  0
SECTION
  2
HEADER
  9
$ACADVER
  1
AC1032
  9
$ACADMAINTVER
 90
4
  9
$DWGCODEPAGE
  3
ANSI_1252
  9
$LASTSAVEDBY
  1
ezdxf
  9
$REQUIREDVERSIONS
160
0
  9
$INSBASE
 10
0.0
 20
0.0
 30
0.0
  9
$EXTMIN
 10
1e+20
 20
1e+20
 30
1e+20
  9
$EXTMAX
 10
-1e+20
 20
-1e+20
 30
-1e+20
  9
$LIMMIN
 10
0.0
 20
0.0
  9
$LIMMAX
 10
420.0
 20
297.0
  9
$ORTHOMODE
 70
0
  9
$REGENMODE
 70
1
  9
$FILLMODE
 70
1
  9
$QTEXTMODE
 70
0
  9
$MIRRTEXT
 70
1
  9
$LTSCALE
 40
1.0
  9
$ATTMODE
 70
1
  9
$TEXTSIZE
 40
2.5
  9
$TRACEWID
 40
1.0
  9
$TEXTSTYLE
  7
Standard
  9
$CLAYER
  8
0
  9
$CELTYPE
  6
ByLayer
  9
$CECOLOR
 62
256
  9
$CELTSCALE
 40
1.0
  9
$DISPSILH
 70
0
  9
$DIMSCALE
 40
1.0
  9
$DIMASZ
 40
2.5
  9
$DIMEXO
 40
0.625
  9
$DIMDLI
 40
3.75
  9
$DIMRND
 40
0.0
  9
$DIMDLE
 40
0.0
  9
$DIMEXE
 40
1.25
  9
$DIMTP
 40
0.0
  9
$DIMTM
 40
0.0
  9
$DIMTXT
 40
2.5
  9
$DIMCEN
 40
2.5
  9
$DIMTSZ
 40
0.0
  9
$DIMTOL
 70
0
  9
$DIMLIM
 70
0
  9
$DIMTIH
 70
0
  9
$DIMTOH
 70
0
  9
$DIMSE1
 70
0
  9
$DIMSE2
 70
0
  9
$DIMTAD
 70
1
  9
$DIMZIN
 70
8
  9
$DIMBLK
  1

  9
$DIMASO
 70
1
  9
$DIMSHO
 70
1
  9
$DIMPOST
  1

  9
$DIMAPOST
  1

  9
$DIMALT
 70
0
  9
$DIMALTD
 70
3
  9
$DIMALTF
 40
0.03937007874
  9
$DIMLFAC
 40
1.0
  9
$DIMTOFL
 70
1
  9
$DIMTVP
 40
0.0
  9
$DIMTIX
 70
0
  9
$DIMSOXD
 70
0
  9
$DIMSAH
 70
0
  9
$DIMBLK1
  1

  9
$DIMBLK2
  1

  9
$DIMSTYLE
  2
ISO-25
  9
$DIMCLRD
 70
0
  9
$DIMCLRE
 70
0
  9
$DIMCLRT
 70
0
  9
$DIMTFAC
 40
1.0
  9
$DIMGAP
 40
0.625
  9
$DIMJUST
 70
0
  9
$DIMSD1
 70
0
  9
$DIMSD2
 70
0
  9
$DIMTOLJ
 70
0
  9
$DIMTZIN
 70
8
  9
$DIMALTZ
 70
0
  9
$DIMALTTZ
 70
0
  9
$DIMUPT
 70
0
  9
$DIMDEC
 70
2
  9
$DIMTDEC
 70
2
  9
$DIMALTU
 70
2
  9
$DIMALTTD
 70
3
  9
$DIMTXSTY
  7
Standard
  9
$DIMAUNIT
 70
0
  9
$DIMADEC
 70
0
  9
$DIMALTRND
 40
0.0
  9
$DIMAZIN
 70
0
  9
$DIMDSEP
 70
44
  9
$DIMATFIT
 70
3
  9
$DIMFRAC
 70
0
  9
$DIMLDRBLK
  1

  9
$DIMLUNIT
 70
2
  9
$DIMLWD
 70
-2
  9
$DIMLWE
 70
-2
  9
$DIMTMOVE
 70
0
  9
$DIMFXL
 40
1.0
  9
$DIMFXLON
 70
0
  9
$DIMJOGANG
 40
0.785398163397
  9
$DIMTFILL
 70
0
  9
$DIMTFILLCLR
 70
0
  9
$DIMARCSYM
 70
0
  9
$DIMLTYPE
  6

  9
$DIMLTEX1
  6

  9
$DIMLTEX2
  6

  9
$DIMTXTDIRECTION
 70
0
  9
$LUNITS
 70
2
  9
$LUPREC
 70
4
  9
$SKETCHINC
 40
1.0
  9
$FILLETRAD
 40
10.0
  9
$AUNITS
 70
0
  9
$AUPREC
 70
2
  9
$MENU
  1
.
  9
$ELEVATION
 40
0.0
  9
$PELEVATION
 40
0.0
  9
$THICKNESS
 40
0.0
  9
$LIMCHECK
 70
0
  9
$CHAMFERA
 40
0.0
  9
$CHAMFERB
 40
0.0
  9
$CHAMFERC
 40
0.0
  9
$CHAMFERD
 40
0.0
  9
$SKPOLY
 70
0
  9
$TDCREATE
 40
2461306.8951157406
  9
$TDUCREATE
 40
2458532.153996898
  9
$TDUPDATE
 40
2461306.8951273146
  9
$TDUUPDATE
 40
2458532.1544311
  9
$TDINDWG
 40
0.0
  9
$TDUSRTIMER
 40
0.0
  9
$USRTIMER
 70
1
  9
$ANGBASE
 50
0.0
  9
$ANGDIR
 70
0
  9
$PDMODE
 70
0
  9
$PDSIZE
 40
0.0
  9
$PLINEWID
 40
0.0
  9
$SPLFRAME
 70
0
  9
$SPLINETYPE
 70
6
  9
$SPLINESEGS
 70
8
  9
$HANDSEED
  5
DA
  9
$SURFTAB1
 70
6
  9
$SURFTAB2
 70
6
  9
$SURFTYPE
 70
6
  9
$SURFU
 70
6
  9
$SURFV
 70
6
  9
$UCSBASE
  2

  9
$UCSNAME
  2

  9
$UCSORG
 10
0.0
 20
0.0
 30
0.0
  9
$UCSXDIR
 10
1.0
 20
0.0
 30
0.0
  9
$UCSYDIR
 10
0.0
 20
1.0
 30
0.0
  9
$UCSORTHOREF
  2

  9
$UCSORTHOVIEW
 70
0
  9
$UCSORGTOP
 10
0.0
 20
0.0
 30
0.0
  9
$UCSORGBOTTOM
 10
0.0
 20
0.0
 30
0.0
  9
$UCSORGLEFT
 10
0.0
 20
0.0
 30
0.0
  9
$UCSORGRIGHT
 10
0.0
 20
0.0
 30
0.0
  9
$UCSORGFRONT
 10
0.0
 20
0.0
 30
0.0
  9
$UCSORGBACK
 10
0.0
 20
0.0
 30
0.0
  9
$PUCSBASE
  2

  9
$PUCSNAME
  2

  9
$PUCSORG
 10
0.0
 20
0.0
 30
0.0
  9
$PUCSXDIR
 10
1.0
 20
0.0
 30
0.0
  9
$PUCSYDIR
 10
0.0
 20
1.0
 30
0.0
  9
$PUCSORTHOREF
  2

  9
$PUCSORTHOVIEW
 70
0
  9
$PUCSORGTOP
 10
0.0
 20
0.0
 30
0.0
  9
$PUCSORGBOTTOM
 10
0.0
 20
0.0
 30
0.0
  9
$PUCSORGLEFT
 10
0.0
 20
0.0
 30
0.0
  9
$PUCSORGRIGHT
 10
0.0
 20
0.0
 30
0.0
  9
$PUCSORGFRONT
 10
0.0
 20
0.0
 30
0.0
  9
$PUCSORGBACK
 10
0.0
 20
0.0
 30
0.0
  9
$USERI1
 70
0
  9
$USERI2
 70
0
  9
$USERI3
 70
0
  9
$USERI4
 70
0
  9
$USERI5
 70
0
  9
$USERR1
 40
0.0
  9
$USERR2
 40
0.0
  9
$USERR3
 40
0.0
  9
$USERR4
 40
0.0
  9
$USERR5
 40
0.0
  9
$WORLDVIEW
 70
1
  9
$SHADEDGE
 70
3
  9
$SHADEDIF
 70
70
  9
$TILEMODE
 70
1
  9
$MAXACTVP
 70
64
  9
$PINSBASE
 10
0.0
 20
0.0
 30
0.0
  9
$PLIMCHECK
 70
0
  9
$PEXTMIN
 10
1e+20
 20
1e+20
 30
1e+20
  9
$PEXTMAX
 10
-1e+20
 20
-1e+20
 30
-1e+20
  9
$PLIMMIN
 10
0.0
 20
0.0
  9
$PLIMMAX
 10
420.0
 20
297.0
  9
$UNITMODE
 70
0
  9
$VISRETAIN
 70
1
  9
$PLINEGEN
 70
0
  9
$PSLTSCALE
 70
1
  9
$TREEDEPTH
 70
3020
  9
$CMLSTYLE
  2
Standard
  9
$CMLJUST
 70
0
  9
$CMLSCALE
 40
20.0
  9
$PROXYGRAPHICS
 70
1
  9
$MEASUREMENT
 70
1
  9
$CELWEIGHT
370
-1
  9
$ENDCAPS
280
0
  9
$JOINSTYLE
280
0
  9
$LWDISPLAY
290
0
  9
$INSUNITS
 70
6
  9
$HYPERLINKBASE
  1

  9
$STYLESHEET
  1

  9
$XEDIT
290
1
  9
$CEPSNTYPE
380
0
  9
$PSTYLEMODE
290
1
  9
$FINGERPRINTGUID
  2
{9D029C25-DD1C-4DCD-AC7A-2B76FDD39BA1}
  9
$VERSIONGUID
  2
{A9E95508-2F9E-4021-80A0-2CA694DDC0B3}
  9
$EXTNAMES
290
1
  9
$PSVPSCALE
 40
0.0
  9
$OLESTARTUP
290
0
  9
$SORTENTS
280
127
  9
$INDEXCTL
280
0
  9
$HIDETEXT
280
1
  9
$XCLIPFRAME
280
1
  9
$HALOGAP
280
0
  9
$OBSCOLOR
 70
257
  9
$OBSLTYPE
280
0
  9
$INTERSECTIONDISPLAY
280
0
  9
$INTERSECTIONCOLOR
 70
257
  9
$DIMASSOC
280
2
  9
$PROJECTNAME
  1

  9
$CAMERADISPLAY
290
0
  9
$LENSLENGTH
 40
50.0
  9
$CAMERAHEIGHT
 40
0.0
  9
$STEPSPERSEC
 40
24.0
  9
$STEPSIZE
 40
100.0
  9
$3DDWFPREC
 40
2.0
  9
$PSOLWIDTH
 40
0.005
  9
$PSOLHEIGHT
 40
0.08
  9
$LOFTANG1
 40
1.570796326795
  9
$LOFTANG2
 40
1.570796326795
  9
$LOFTMAG1
 40
0.0
  9
$LOFTMAG2
 40
0.0
  9
$LOFTPARAM
 70
7
  9
$LOFTNORMALS
280
1
  9
$LATITUDE
 40
37.795
  9
$LONGITUDE
 40
-122.394
  9
$NORTHDIRECTION
 40
0.0
  9
$TIMEZONE
 70
-8000
  9
$LIGHTGLYPHDISPLAY
280
1
  9
$TILEMODELIGHTSYNCH
280
1
  9
$CMATERIAL
347
20
  9
$SOLIDHIST
280
0
  9
$SHOWHIST
280
1
  9
$DWFFRAME
280
2
  9
$DGNFRAME
280
2
  9
$REALWORLDSCALE
290
1
  9
$INTERFERECOLOR
 62
256
  9
$CSHADOW
280
0
  9
$SHADOWPLANELOCATION
 40
0.0
  0
ENDSEC
  0
SECTION
  2
CLASSES
  0
CLASS
  1
ACDBDICTIONARYWDFLT
  2
AcDbDictionaryWithDefault
  3
ObjectDBX Classes
 90
0
 91
0
280
0
281
0
  0
CLASS
  1
SUN
  2
AcDbSun
  3
SCENEOE
 90
1153
 91
0
280
0
281
0
  0
CLASS
  1
VISUALSTYLE
  2
AcDbVisualStyle
  3
ObjectDBX Classes
 90
4095
 91
0
280
0
281
0
  0
CLASS
  1
MATERIAL
  2
AcDbMaterial
  3
ObjectDBX Classes
 90
1153
 91
0
280
0
281
0
  0
CLASS
  1
SCALE
  2
AcDbScale
  3
ObjectDBX Classes
 90
1153
 91
0
280
0
281
0
  0
CLASS
  1
TABLESTYLE
  2
AcDbTableStyle
  3
ObjectDBX Classes
 90
4095
 91
0
280
0
281
0
  0
CLASS
  1
MLEADERSTYLE
  2
AcDbMLeaderStyle
  3
ACDB_MLEADERSTYLE_CLASS
 90
4095
 91
0
280
0
281
0
  0
CLASS
  1
DICTIONARYVAR
  2
AcDbDictionaryVar
  3
ObjectDBX Classes
 90
0
 91
0
280
0
281
0
  0
CLASS
  1
CELLSTYLEMAP
  2
AcDbCellStyleMap
  3
ObjectDBX Classes
 90
1152
 91
0
280
0
281
0
  0
CLASS
  1
MENTALRAYRENDERSETTINGS
  2
AcDbMentalRayRenderSettings
  3
SCENEOE
 90
1024
 91
0
280
0
281
0
  0
CLASS
  1
ACDBDETAILVIEWSTYLE
  2
AcDbDetailViewStyle
  3
ObjectDBX Classes
 90
1025
 91
0
280
0
281
0
  0
CLASS
  1
ACDBSECTIONVIEWSTYLE
  2
AcDbSectionViewStyle
  3
ObjectDBX Classes
 90
1025
 91
0
280
0
281
0
  0
CLASS
  1
RASTERVARIABLES
  2
AcDbRasterVariables
  3
ISM
 90
0
 91
0
280
0
281
0
  0
CLASS
  1
LAYOUT
  2
AcDbLayout
  3
ObjectDBX Classes
 90
0
 91
0
280
0
281
0
  0
CLASS
  1
ACDBPLACEHOLDER
  2
AcDbPlaceHolder
  3
ObjectDBX Classes
 90
0
 91
0
280
0
281
0
  0
ENDSEC
  0
SECTION
  2
TABLES
  0
TABLE
  2
VPORT
  5
8
330
0
100
AcDbSymbolTable
 70
1
  0
VPORT
  5
23
330
8
100
AcDbSymbolTableRecord
100
AcDbViewportTableRecord
  2
*Active
 70
0
 10
0.0
 20
0.0
 11
1.0
 21
1.0
 12
0.0
 22
0.0
 13
0.0
 23
0.0
 14
0.5
 24
0.5
 15
0.5
 25
0.5
 16
0.0
 26
0.0
 36
1.0
 17
0.0
 27
0.0
 37
0.0
 40
1000.0
 41
1.34
 42
50.0
 43
0.0
 44
0.0
 50
0.0
 51
0.0
 71
0
 72
1000
 73
1
 74
3
 75
0
 76
0
 77
0
 78
0
281
0
 65
0
146
0.0
  0
ENDTAB
  0
TABLE
  2
LTYPE
  5
2
330
0
100
AcDbSymbolTable
 70
3
  0
LTYPE
  5
24
330
2
100
AcDbSymbolTableRecord
100
AcDbLinetypeTableRecord
  2
ByBlock
 70
0
  3

 72
65
 73
0
 40
0.0
  0
LTYPE
  5
25
330
2
100
AcDbSymbolTableRecord
100
AcDbLinetypeTableRecord
  2
ByLayer
 70
0
  3

 72
65
 73
0
 40
0.0
  0
LTYPE
  5
26
330
2
100
AcDbSymbolTableRecord
100
AcDbLinetypeTableRecord
  2
Continuous
 70
0
  3

 72
65
 73
0
 40
0.0
  0
ENDTAB
  0
TABLE
  2
LAYER
  5
1
330
0
100
AcDbSymbolTable
 70
10
  0
LAYER
  5
27
330
1
100
AcDbSymbolTableRecord
100
AcDbLayerTableRecord
  2
0
 70
0
 62
7
  6
Continuous
370
-3
390
13
347
21
  0
LAYER
  5
28
330
1
100
AcDbSymbolTableRecord
100
AcDbLayerTableRecord
  2
Defpoints
 70
0
 62
7
  6
Continuous
290
0
370
-3
390
13
347
21
  0
LAYER
  5
2F
330
1
100
AcDbSymbolTableRecord
100
AcDbLayerTableRecord
  2
OUTLINE
 70
0
 62
7
  6
Continuous
370
-3
390
13
347
21
  0
LAYER
  5
30
330
1
100
AcDbSymbolTableRecord
100
AcDbLayerTableRecord
  2
CUTOUTS
 70
0
 62
3
  6
Continuous
370
-3
390
13
347
21
  0
LAYER
  5
31
330
1
100
AcDbSymbolTableRecord
100
AcDbLayerTableRecord
  2
HOLES
 70
0
 62
4
  6
Continuous
370
-3
390
13
347
21
  0
LAYER
  5
32
330
1
100
AcDbSymbolTableRecord
100
AcDbLayerTableRecord
  2
NOTCHES
 70
0
 62
6
  6
Continuous
370
-3
390
13
347
21
  0
LAYER
  5
33
330
1
100
AcDbSymbolTableRecord
100
AcDbLayerTableRecord
  2
SHEETS_1_5
 70
0
 62
4
  6
Continuous
370
-3
390
13
347
21
  0
LAYER
  5
34
330
1
100
AcDbSymbolTableRecord
100
AcDbLayerTableRecord
  2
SHEETS_1_2
 70
0
 62
3
  6
Continuous
370
-3
390
13
347
21
  0
LAYER
  5
35
330
1
100
AcDbSymbolTableRecord
100
AcDbLayerTableRecord
  2
PART_LABELS
 70
0
 62
7
  6
Continuous
370
-3
390
13
347
21
  0
LAYER
  5
36
330
1
100
AcDbSymbolTableRecord
100
AcDbLayerTableRecord
  2
TEXT
 70
0
 62
2
  6
Continuous
370
-3
390
13
347
21
  0
ENDTAB
  0
TABLE
  2
STYLE
  5
5
330
0
100
AcDbSymbolTable
 70
1
  0
STYLE
  5
29
330
5
100
AcDbSymbolTableRecord
100
AcDbTextStyleTableRecord
  2
Standard
 70
0
 40
0.0
 41
1.0
 50
0.0
 71
0
 42
2.5
  3
txt
  4

  0
ENDTAB
  0
TABLE
  2
VIEW
  5
7
330
0
100
AcDbSymbolTable
 70
0
  0
ENDTAB
  0
TABLE
  2
UCS
  5
6
330
0
100
AcDbSymbolTable
 70
0
  0
ENDTAB
  0
TABLE
  2
APPID
  5
3
330
0
100
AcDbSymbolTable
 70
3
  0
APPID
  5
2A
330
3
100
AcDbSymbolTableRecord
100
AcDbRegAppTableRecord
  2
ACAD
 70
0
  0
APPID
  5
D7
330
3
100
AcDbSymbolTableRecord
100
AcDbRegAppTableRecord
  2
HATCHBACKGROUNDCOLOR
 70
0
  0
APPID
  5
D8
330
3
100
AcDbSymbolTableRecord
100
AcDbRegAppTableRecord
  2
EZDXF
 70
0
  0
ENDTAB
  0
TABLE
  2
DIMSTYLE
  5
4
330
0
100
AcDbSymbolTable
 70
1
100
AcDbDimStyleTable
  0
DIMSTYLE
105
2B
330
4
100
AcDbSymbolTableRecord
100
AcDbDimStyleTableRecord
  2
Standard
 70
0
 40
1.0
 41
2.5
 42
0.625
 43
3.75
 44
1.25
 45
0.0
 46
0.0
 47
0.0
 48
0.0
 49
2.5
140
2.5
141
2.5
142
0.0
143
0.03937007874
144
1.0
145
0.0
146
1.0
147
0.625
148
0.0
 69
0
 70
0
 71
0
 72
0
 73
0
 74
0
 75
0
 76
0
 77
1
 78
8
 79
3
170
0
171
3
172
1
173
0
174
0
175
0
176
0
177
0
178
0
179
2
271
2
272
2
273
2
274
3
275
0
276
0
277
2
278
44
279
0
280
0
281
0
282
0
283
0
284
8
285
0
286
0
288
0
289
3
290
0
371
-2
372
-2
  0
ENDTAB
  0
TABLE
  2
BLOCK_RECORD
  5
9
330
0
100
AcDbSymbolTable
 70
7
  0
BLOCK_RECORD
  5
17
330
9
100
AcDbSymbolTableRecord
100
AcDbBlockTableRecord
  2
*Model_Space
340
1A
 70
0
280
1
281
0
  0
BLOCK_RECORD
  5
1B
330
9
100
AcDbSymbolTableRecord
100
AcDbBlockTableRecord
  2
*Paper_Space
340
1E
 70
0
280
1
281
0
  0
BLOCK_RECORD
  5
37
330
9
100
AcDbSymbolTableRecord
100
AcDbBlockTableRecord
  2
B_TEST_DOOR_HINGE_POST
340
0
 70
0
280
1
281
0
  0
BLOCK_RECORD
  5
58
330
9
100
AcDbSymbolTableRecord
100
AcDbBlockTableRecord
  2
B_TEST_DOOR_LOCK_POST
340
0
 70
0
280
1
281
0
  0
BLOCK_RECORD
  5
74
330
9
100
AcDbSymbolTableRecord
100
AcDbBlockTableRecord
  2
B_TEST_DOOR_HEADER
340
0
 70
0
280
1
281
0
  0
BLOCK_RECORD
  5
91
330
9
100
AcDbSymbolTableRecord
100
AcDbBlockTableRecord
  2
B_TEST_DOOR_LEAF1
340
0
 70
0
280
1
281
0
  0
BLOCK_RECORD
  5
AF
330
9
100
AcDbSymbolTableRecord
100
AcDbBlockTableRecord
  2
B_TEST_DOOR_LEAF2
340
0
 70
0
280
1
281
0
  0
ENDTAB
  0
ENDSEC
  0
SECTION
  2
BLOCKS
  0
BLOCK
  5
18
330
17
100
AcDbEntity
  8
0
100
AcDbBlockBegin
  2
*Model_Space
 70
0
 10
0.0
 20
0.0
 30
0.0
  3
*Model_Space
  1

  0
ENDBLK
  5
19
330
17
100
AcDbEntity
  8
0
100
AcDbBlockEnd
  0
BLOCK
  5
1C
330
1B
100
AcDbEntity
  8
0
100
AcDbBlockBegin
  2
*Paper_Space
 70
0
 10
0.0
 20
0.0
 30
0.0
  3
*Paper_Space
  1

  0
ENDBLK
  5
1D
330
1B
100
AcDbEntity
  8
0
100
AcDbBlockEnd
  0
BLOCK
  5
38
330
37
100
AcDbEntity
  8
0
100
AcDbBlockBegin
  2
B_TEST_DOOR_HINGE_POST
 70
0
 10
0.0
 20
0.0
 30
0.0
  3
B_TEST_DOOR_HINGE_POST
  1

  0
LINE
  5
3A
330
37
100
AcDbEntity
  8
NOTCHES
100
AcDbLine
 10
148.23559335968446
 20
3.0
 30
0.0
 11
148.23559335968446
 21
0.0
 31
0.0
  0
LINE
  5
3B
330
37
100
AcDbEntity
  8
NOTCHES
100
AcDbLine
 10
268.2356320316902
 20
3.0
 30
0.0
 11
268.2356320316902
 21
0.0
 31
0.0
  0
LINE
  5
3C
330
37
100
AcDbEntity
  8
NOTCHES
100
AcDbLine
 10
140.6018546875565
 20
3.0
 30
0.0
 11
140.6018546875565
 21
0.0
 31
0.0
  0
LINE
  5
3D
330
37
100
AcDbEntity
  8
NOTCHES
100
AcDbLine
 10
55.700638671870934
 20
3.0
 30
0.0
 11
55.700638671870934
 21
0.0
 31
0.0
  0
LINE
  5
3E
330
37
100
AcDbEntity
  8
NOTCHES
100
AcDbLine
 10
340.36937070358533
 20
3.0
 30
0.0
 11
340.36937070358533
 21
0.0
 31
0.0
  0
LINE
  5
3F
330
37
100
AcDbEntity
  8
NOTCHES
100
AcDbLine
 10
18.56689999997593
 20
3.0
 30
0.0
 11
18.56689999997593
 21
0.0
 31
0.0
  0
LINE
  5
40
330
37
100
AcDbEntity
  8
NOTCHES
100
AcDbLine
 10
129.96811601566117
 20
1.0
 30
0.0
 11
129.96811601566117
 21
0.0
 31
0.0
  0
LINE
  5
41
330
37
100
AcDbEntity
  8
NOTCHES
100
AcDbLine
 10
118.3343773437665
 20
1.047160253394394
 30
0.0
 11
118.3343773437665
 21
0.0471602533943951
 31
0.0
  0
LINE
  5
42
330
37
100
AcDbEntity
  8
NOTCHES
100
AcDbLine
 10
55.700638671870934
 20
1961.5
 30
0.0
 11
55.700638671870934
 21
1958.5
 31
0.0
  0
LINE
  5
43
330
37
100
AcDbEntity
  8
NOTCHES
100
AcDbLine
 10
118.3343773437665
 20
1959.25
 30
0.0
 11
118.3343773437665
 21
1958.25
 31
0.0
  0
LINE
  5
44
330
37
100
AcDbEntity
  8
NOTCHES
100
AcDbLine
 10
129.96811601566117
 20
1948.5
 30
0.0
 11
129.96811601566117
 21
1947.5
 31
0.0
  0
LINE
  5
45
330
37
100
AcDbEntity
  8
NOTCHES
100
AcDbLine
 10
140.6018546875565
 20
1946.25
 30
0.0
 11
140.6018546875565
 21
1943.25
 31
0.0
  0
LINE
  5
46
330
37
100
AcDbEntity
  8
NOTCHES
100
AcDbLine
 10
148.23559335968446
 20
1939.5
 30
0.0
 11
148.23559335968446
 21
1936.5
 31
0.0
  0
LINE
  5
47
330
37
100
AcDbEntity
  8
NOTCHES
100
AcDbLine
 10
268.2356320316902
 20
1939.5
 30
0.0
 11
268.2356320316902
 21
1936.5
 31
0.0
  0
LINE
  5
48
330
37
100
AcDbEntity
  8
NOTCHES
100
AcDbLine
 10
340.36937070358533
 20
2010.75
 30
0.0
 11
340.36937070358533
 21
2007.75
 31
0.0
  0
LINE
  5
49
330
37
100
AcDbEntity
  8
NOTCHES
100
AcDbLine
 10
18.56689999997593
 20
1997.75
 30
0.0
 11
18.56689999997593
 21
1994.75
 31
0.0
  0
LWPOLYLINE
  5
4A
330
37
100
AcDbEntity
  8
OUTLINE
100
AcDbPolyline
 90
44
 70
1
 10
146.6687240237369
 20
1941.0
 10
142.1687240237369
 20
1945.5
 10
139.03498535184156
 20
1947.0
 10
131.5349853518419
 20
1947.0
 10
128.40124667971384
 20
1950.0
 10
119.90124667971361
 20
1958.5
 10
116.7675080078186
 20
1960.0
 10
104.76750800781895
 20
1960.0
 10
104.76750800781895
 20
1969.0
 10
101.7675080078186
 20
1972.0
 10
97.76750800781895
 20
1972.0
 10
94.7675080078186
 20
1969.0
 10
94.7675080078186
 20
1960.0
 10
79.2675080078186
 20
1960.0
 10
79.2675080078186
 20
1969.0
 10
76.26750800781895
 20
1972.0
 10
72.2675080078186
 20
1972.0
 10
69.26750800781872
 20
1969.0
 10
69.26750800781872
 20
1960.0
 10
57.267508007818606
 20
1960.0
 10
54.13376933569066
 20
1963.0
 10
20.133769336156433
 20
1997.0
 10
17.000030663795428
 20
1998.5
 10
0.0
 20
1998.5
 10
0.0
 20
0.0
 10
353.9362400395322
 20
0.0
 10
353.93624003976527
 20
2011.5
 10
341.93624003953335
 20
2011.5
 10
338.8025013676373
 20
2010.0
 10
269.8025013676373
 20
1941.0
 10
266.66876269550914
 20
1938.0
 10
254.6687626957422
 20
1938.0
 10
254.6687626957422
 20
1947.0
 10
251.6687626957422
 20
1950.0
 10
247.6687626957422
 20
1950.0
 10
244.6687626957422
 20
1947.0
 10
244.6687626957422
 20
1938.0
 10
171.80246269563224
 20
1938.0
 10
171.80246269563224
 20
1947.0
 10
168.80246269563202
 20
1950.0
 10
164.8024626956319
 20
1950.0
 10
161.8024626956319
 20
1947.0
 10
161.8024626956319
 20
1938.0
 10
149.8024626956319
 20
1938.0
  0
LWPOLYLINE
  5
4B
330
37
100
AcDbEntity
  8
CUTOUTS
100
AcDbPolyline
 90
4
 70
1
 10
53.90063867182437
 20
1810.0
 10
84.4006386718246
 20
1810.0
 10
84.4006386718246
 20
1708.0
 10
53.90063867182437
 20
1708.0
  0
LWPOLYLINE
  5
4C
330
37
100
AcDbEntity
  8
CUTOUTS
100
AcDbPolyline
 90
4
 70
1
 10
53.90063867159165
 20
252.0
 10
84.40063867159165
 20
252.0
 10
84.40063867159165
 20
150.0
 10
53.90063867159165
 20
150.0
  0
LWPOLYLINE
  5
4D
330
37
100
AcDbEntity
  8
CUTOUTS
100
AcDbPolyline
 90
4
 70
1
 10
53.90063867182437
 20
1608.0
 10
84.4006386718246
 20
1608.0
 10
84.4006386718246
 20
1506.0
 10
53.90063867182437
 20
1506.0
  0
LWPOLYLINE
  5
4E
330
37
100
AcDbEntity
  8
CUTOUTS
100
AcDbPolyline
 90
4
 70
1
 10
53.900638671475576
 20
930.0
 10
84.40063867147512
 20
930.0
 10
84.40063867147512
 20
828.0
 10
53.900638671475576
 20
828.0
  0
LWPOLYLINE
  5
4F
330
37
100
AcDbEntity
  8
CUTOUTS
100
AcDbPolyline
 90
4
 70
1
 10
82.63380800792925
 20
6.0
 10
70.63380800792947
 20
6.0
 10
70.63380800792947
 20
4.0
 10
82.63380800792925
 20
4.0
  0
LWPOLYLINE
  5
50
330
37
100
AcDbEntity
  8
CUTOUTS
100
AcDbPolyline
 90
4
 70
1
 10
241.30246269539919
 20
11.0
 10
253.30246269539919
 20
11.0
 10
253.30246269539919
 20
9.0
 10
241.30246269539919
 20
9.0
  0
CIRCLE
  5
51
330
37
100
AcDbEntity
  8
HOLES
100
AcDbCircle
 10
77.26747734379
 20
1417.5
 30
0.0
 40
2.0
  0
CIRCLE
  5
52
330
37
100
AcDbEntity
  8
HOLES
100
AcDbCircle
 10
77.26747734379
 20
1347.5
 30
0.0
 40
2.0
  0
CIRCLE
  5
53
330
37
100
AcDbEntity
  8
HOLES
100
AcDbCircle
 10
208.23561269615618
 20
149.9999999999963
 30
0.0
 40
3.25
  0
CIRCLE
  5
54
330
37
100
AcDbEntity
  8
HOLES
100
AcDbCircle
 10
208.2356126961173
 20
695.9999999999961
 30
0.0
 40
3.25
  0
CIRCLE
  5
55
330
37
100
AcDbEntity
  8
HOLES
100
AcDbCircle
 10
208.23561269607933
 20
1241.999999999996
 30
0.0
 40
3.25
  0
CIRCLE
  5
56
330
37
100
AcDbEntity
  8
HOLES
100
AcDbCircle
 10
208.23561269604022
 20
1787.999999999996
 30
0.0
 40
3.25
  0
TEXT
  5
57
330
37
100
AcDbEntity
  8
PART_LABELS
100
AcDbText
 10
176.96812001988263
 20
1005.75
 30
0.0
 40
28.0
  1
TEST_DOOR
 72
1
 11
176.96812001988263
 21
1005.75
 31
0.0
100
AcDbText
 73
2
  0
ENDBLK
  5
39
330
37
100
AcDbEntity
  8
0
100
AcDbBlockEnd
  0
BLOCK
  5
59
330
58
100
AcDbEntity
  8
0
100
AcDbBlockBegin
  2
B_TEST_DOOR_LOCK_POST
 70
0
 10
0.0
 20
0.0
 30
0.0
  3
B_TEST_DOOR_LOCK_POST
  1

  0
LINE
  5
5B
330
58
100
AcDbEntity
  8
NOTCHES
100
AcDbLine
 10
205.70064667984798
 20
3.0
 30
0.0
 11
205.70064667984798
 21
0.0
 31
0.0
  0
LINE
  5
5C
330
58
100
AcDbEntity
  8
NOTCHES
100
AcDbLine
 10
85.70060800807482
 20
3.0
 30
0.0
 11
85.70060800807482
 21
0.0
 31
0.0
  0
LINE
  5
5D
330
58
100
AcDbEntity
  8
NOTCHES
100
AcDbLine
 10
213.33438535174287
 20
3.0
 30
0.0
 11
213.33438535174287
 21
0.0
 31
0.0
  0
LINE
  5
5E
330
58
100
AcDbEntity
  8
NOTCHES
100
AcDbLine
 10
298.2356013678939
 20
3.0
 30
0.0
 11
298.2356013678939
 21
0.0
 31
0.0
  0
LINE
  5
5F
330
58
100
AcDbEntity
  8
NOTCHES
100
AcDbLine
 10
13.566869335946876
 20
3.0
 30
0.0
 11
13.566869335946876
 21
0.0
 31
0.0
  0
LINE
  5
60
330
58
100
AcDbEntity
  8
NOTCHES
100
AcDbLine
 10
335.36934003978786
 20
3.0
 30
0.0
 11
335.36934003978786
 21
0.0
 31
0.0
  0
LINE
  5
61
330
58
100
AcDbEntity
  8
NOTCHES
100
AcDbLine
 10
223.9681240238708
 20
1.0
 30
0.0
 11
223.9681240238708
 21
0.0
 31
0.0
  0
LINE
  5
62
330
58
100
AcDbEntity
  8
NOTCHES
100
AcDbLine
 10
235.60186269553378
 20
1.047160253394394
 30
0.0
 11
235.60186269553378
 21
0.0471602533943951
 31
0.0
  0
LINE
  5
63
330
58
100
AcDbEntity
  8
NOTCHES
100
AcDbLine
 10
298.2356013678939
 20
1961.5
 30
0.0
 11
298.2356013678939
 21
1955.5
 31
0.0
  0
LINE
  5
64
330
58
100
AcDbEntity
  8
NOTCHES
100
AcDbLine
 10
235.60186269553378
 20
1959.25
 30
0.0
 11
235.60186269553378
 21
1958.25
 31
0.0
  0
LINE
  5
65
330
58
100
AcDbEntity
  8
NOTCHES
100
AcDbLine
 10
223.9681240238708
 20
1948.5
 30
0.0
 11
223.9681240238708
 21
1947.5
 31
0.0
  0
LINE
  5
66
330
58
100
AcDbEntity
  8
NOTCHES
100
AcDbLine
 10
213.33438535174287
 20
1946.25
 30
0.0
 11
213.33438535174287
 21
1943.25
 31
0.0
  0
LINE
  5
67
330
58
100
AcDbEntity
  8
NOTCHES
100
AcDbLine
 10
205.70064667984798
 20
1939.5
 30
0.0
 11
205.70064667984798
 21
1936.5
 31
0.0
  0
LINE
  5
68
330
58
100
AcDbEntity
  8
NOTCHES
100
AcDbLine
 10
85.70060800807482
 20
1939.5
 30
0.0
 11
85.70060800807482
 21
1936.5
 31
0.0
  0
LINE
  5
69
330
58
100
AcDbEntity
  8
NOTCHES
100
AcDbLine
 10
13.566869335946876
 20
2010.75
 30
0.0
 11
13.566869335946876
 21
2007.75
 31
0.0
  0
LINE
  5
6A
330
58
100
AcDbEntity
  8
NOTCHES
100
AcDbLine
 10
335.36934003978786
 20
1997.75
 30
0.0
 11
335.36934003978786
 21
1994.75
 31
0.0
  0
LWPOLYLINE
  5
6B
330
58
100
AcDbEntity
  8
OUTLINE
100
AcDbPolyline
 90
44
 70
1
 10
207.26751601602882
 20
1941.0
 10
211.7675160160279
 20
1945.5
 10
214.90125468792394
 20
1947.0
 10
222.40125468792394
 20
1947.0
 10
225.53499335981883
 20
1950.0
 10
234.03499335981883
 20
1958.5
 10
237.16873203171394
 20
1960.0
 10
249.16873203171394
 20
1960.0
 10
249.16873203171394
 20
1969.0
 10
252.16873203171394
 20
1972.0
 10
256.16873203171394
 20
1972.0
 10
259.16873203171394
 20
1969.0
 10
259.16873203171394
 20
1960.0
 10
274.66873203171394
 20
1960.0
 10
274.66873203171394
 20
1969.0
 10
277.66873203171394
 20
1972.0
 10
281.66873203171394
 20
1972.0
 10
284.66873203171394
 20
1969.0
 10
284.66873203171394
 20
1960.0
 10
296.66873203171394
 20
1960.0
 10
299.80247070360883
 20
1963.0
 10
333.80247070360883
 20
1997.0
 10
336.9362093755028
 20
1998.5
 10
353.936240039533
 20
1998.5
 10
353.9362400397649
 20
0.0
 10
0.0
 20
0.0
 10
0.0
 20
2011.5
 10
12.0
 20
2011.5
 10
15.13373867189489
 20
2010.0
 10
84.13373867189489
 20
1941.0
 10
87.26747734379
 20
1938.0
 10
99.26747734379
 20
1938.0
 10
99.26747734379
 20
1947.0
 10
102.26747734379
 20
1950.0
 10
106.26747734379
 20
1950.0
 10
109.26747734379
 20
1947.0
 10
109.26747734379
 20
1938.0
 10
182.13377734366782
 20
1938.0
 10
182.13377734366782
 20
1947.0
 10
185.13377734366782
 20
1950.0
 10
189.13377734366782
 20
1950.0
 10
192.13377734366782
 20
1947.0
 10
192.13377734366782
 20
1938.0
 10
204.13377734390087
 20
1938.0
  0
LWPOLYLINE
  5
6C
330
58
100
AcDbEntity
  8
CUTOUTS
100
AcDbPolyline
 90
4
 70
1
 10
271.3024320318359
 20
6.0
 10
283.3024320318359
 20
6.0
 10
283.3024320318359
 20
4.0
 10
271.3024320318359
 20
4.0
  0
LWPOLYLINE
  5
6D
330
58
100
AcDbEntity
  8
CUTOUTS
100
AcDbPolyline
 90
4
 70
1
 10
112.6337773441328
 20
11.0
 10
100.6337773441328
 20
11.0
 10
100.6337773441328
 20
9.0
 10
112.6337773441328
 20
9.0
  0
LWPOLYLINE
  5
6E
330
58
100
AcDbEntity
  8
CUTOUTS
100
AcDbPolyline
 90
8
 70
1
 10
290.50827847444384
 20
1044.5
 10
290.50827847444384
 20
952.25
 10
266.00827847444384
 20
952.25
 10
266.00827847444384
 20
1122.75
 10
290.50827847444384
 20
1122.75
 10
290.50827847444384
 20
1110.5
 10
298.83560136775395
 20
1110.5
 10
298.83560136775395
 20
1044.5
  0
CIRCLE
  5
6F
330
58
100
AcDbEntity
  8
HOLES
100
AcDbCircle
 10
145.70062734360886
 20
149.9999999999963
 30
0.0
 40
3.25
  0
CIRCLE
  5
70
330
58
100
AcDbEntity
  8
HOLES
100
AcDbCircle
 10
145.70062734364797
 20
695.9999999999961
 30
0.0
 40
3.25
  0
CIRCLE
  5
71
330
58
100
AcDbEntity
  8
HOLES
100
AcDbCircle
 10
145.70062734368594
 20
1241.999999999996
 30
0.0
 40
3.25
  0
CIRCLE
  5
72
330
58
100
AcDbEntity
  8
HOLES
100
AcDbCircle
 10
145.70062734372482
 20
1787.999999999996
 30
0.0
 40
3.25
  0
TEXT
  5
73
330
58
100
AcDbEntity
  8
PART_LABELS
100
AcDbText
 10
176.96812001988246
 20
1005.75
 30
0.0
 40
28.0
  1
TEST_DOOR
 72
1
 11
176.96812001988246
 21
1005.75
 31
0.0
100
AcDbText
 73
2
  0
ENDBLK
  5
5A
330
58
100
AcDbEntity
  8
0
100
AcDbBlockEnd
  0
BLOCK
  5
75
330
74
100
AcDbEntity
  8
0
100
AcDbBlockBegin
  2
B_TEST_DOOR_HEADER
 70
0
 10
0.0
 20
0.0
 30
0.0
  3
B_TEST_DOOR_HEADER
  1

  0
LWPOLYLINE
  5
77
330
74
100
AcDbEntity
  8
NOTCHES
100
AcDbPolyline
 90
4
 70
1
 10
51.75
 20
248.16873203183013
 10
51.75
 20
260.16873203183013
 10
49.75
 20
260.16873203183013
 10
49.75
 20
248.16873203183013
  0
LWPOLYLINE
  5
78
330
74
100
AcDbEntity
  8
NOTCHES
100
AcDbPolyline
 90
4
 70
1
 10
51.75
 20
273.6687320317119
 10
51.75
 20
285.66873203171554
 10
49.75
 20
285.66873203171554
 10
49.75
 20
273.6687320317119
  0
LWPOLYLINE
  5
79
330
74
100
AcDbEntity
  8
NOTCHES
100
AcDbPolyline
 90
4
 70
1
 10
71.75
 20
98.2674773439062
 10
71.75
 20
110.2674773439062
 10
73.75
 20
110.2674773439062
 10
73.75
 20
98.2674773439062
  0
LWPOLYLINE
  5
7A
330
74
100
AcDbEntity
  8
NOTCHES
100
AcDbPolyline
 90
4
 70
1
 10
71.75
 20
181.13377734390042
 10
71.75
 20
193.13377734390042
 10
73.75
 20
193.13377734390042
 10
73.75
 20
181.13377734390042
  0
LINE
  5
7B
330
74
100
AcDbEntity
  8
NOTCHES
100
AcDbLine
 10
13.75
 20
335.369340039671
 30
0.0
 11
19.75
 21
335.369340039671
 31
0.0
  0
LINE
  5
7C
330
74
100
AcDbEntity
  8
NOTCHES
100
AcDbLine
 10
50.0
 20
298.2356013676613
 30
0.0
 11
56.0
 21
298.2356013676613
 31
0.0
  0
LINE
  5
7D
330
74
100
AcDbEntity
  8
NOTCHES
100
AcDbLine
 10
52.25
 20
235.60186269564883
 30
0.0
 11
54.25
 21
235.60186269564883
 31
0.0
  0
LINE
  5
7E
330
74
100
AcDbEntity
  8
NOTCHES
100
AcDbLine
 10
63.0
 20
223.9681240237528
 30
0.0
 11
65.0
 21
223.9681240237528
 31
0.0
  0
LINE
  5
7F
330
74
100
AcDbEntity
  8
NOTCHES
100
AcDbLine
 10
65.25
 20
213.33438535174128
 30
0.0
 11
71.25
 21
213.33438535174128
 31
0.0
  0
LINE
  5
80
330
74
100
AcDbEntity
  8
NOTCHES
100
AcDbLine
 10
72.0
 20
205.7006466798489
 30
0.0
 11
78.0
 21
205.7006466798489
 31
0.0
  0
LINE
  5
81
330
74
100
AcDbEntity
  8
NOTCHES
100
AcDbLine
 10
72.0
 20
85.70060800784222
 30
0.0
 11
78.0
 21
85.70060800784222
 31
0.0
  0
LINE
  5
82
330
74
100
AcDbEntity
  8
NOTCHES
100
AcDbLine
 10
0.75
 20
13.566869335947104
 30
0.0
 11
6.75
 21
13.566869335947104
 31
0.0
  0
LWPOLYLINE
  5
83
330
74
100
AcDbEntity
  8
NOTCHES
100
AcDbPolyline
 90
4
 70
1
 10
1004.2499999999998
 20
248.16873203183013
 10
1004.2499999999998
 20
260.16873203183013
 10
1006.2499999999995
 20
260.16873203183013
 10
1006.2499999999995
 20
248.16873203183013
  0
LWPOLYLINE
  5
84
330
74
100
AcDbEntity
  8
NOTCHES
100
AcDbPolyline
 90
4
 70
1
 10
1004.2499999999998
 20
273.6687320317119
 10
1004.2499999999998
 20
285.66873203171554
 10
1006.2499999999995
 20
285.66873203171554
 10
1006.2499999999995
 20
273.6687320317119
  0
LWPOLYLINE
  5
85
330
74
100
AcDbEntity
  8
NOTCHES
100
AcDbPolyline
 90
4
 70
1
 10
984.2499999999995
 20
98.2674773439062
 10
984.2499999999995
 20
110.2674773439062
 10
982.2499999999995
 20
110.2674773439062
 10
982.2499999999995
 20
98.2674773439062
  0
LWPOLYLINE
  5
86
330
74
100
AcDbEntity
  8
NOTCHES
100
AcDbPolyline
 90
4
 70
1
 10
984.2499999999995
 20
181.13377734390042
 10
984.2499999999995
 20
193.13377734390042
 10
982.2499999999995
 20
193.13377734390042
 10
982.2499999999995
 20
181.13377734390042
  0
LINE
  5
87
330
74
100
AcDbEntity
  8
NOTCHES
100
AcDbLine
 10
1005.9999999999998
 20
298.2356013676613
 30
0.0
 11
999.9999999999995
 21
298.2356013676613
 31
0.0
  0
LINE
  5
88
330
74
100
AcDbEntity
  8
NOTCHES
100
AcDbLine
 10
1003.7499999999995
 20
235.60186269564883
 30
0.0
 11
1001.7499999999995
 21
235.60186269564883
 31
0.0
  0
LINE
  5
89
330
74
100
AcDbEntity
  8
NOTCHES
100
AcDbLine
 10
992.9999999999995
 20
223.9681240237528
 30
0.0
 11
990.9999999999995
 21
223.9681240237528
 31
0.0
  0
LINE
  5
8A
330
74
100
AcDbEntity
  8
NOTCHES
100
AcDbLine
 10
990.7499999999998
 20
213.33438535174128
 30
0.0
 11
984.7499999999995
 21
213.33438535174128
 31
0.0
  0
LINE
  5
8B
330
74
100
AcDbEntity
  8
NOTCHES
100
AcDbLine
 10
983.9999999999995
 20
205.7006466798489
 30
0.0
 11
977.9999999999995
 21
205.7006466798489
 31
0.0
  0
LINE
  5
8C
330
74
100
AcDbEntity
  8
NOTCHES
100
AcDbLine
 10
983.9999999999995
 20
85.70060800784222
 30
0.0
 11
977.9999999999995
 21
85.70060800784222
 31
0.0
  0
LWPOLYLINE
  5
8D
330
74
100
AcDbEntity
  8
OUTLINE
100
AcDbPolyline
 90
44
 70
1
 10
13.0
 20
353.93620937562036
 10
1042.9999999999998
 20
353.93620937562036
 10
1042.9999999999998
 20
336.9362093756213
 10
1041.4999999999995
 20
333.80247070372525
 10
1007.4999999999995
 20
299.80247070372525
 10
1004.4999999999995
 20
296.6687320317146
 10
1014.4999999999997
 20
286.6687320317119
 10
1014.4999999999997
 20
247.1687320317119
 10
1004.4999999999995
 20
237.16873203171463
 10
1002.9999999999995
 20
234.0349933598195
 10
994.4999999999997
 20
225.53499335981678
 10
991.4999999999995
 20
222.40125468780616
 10
991.4999999999995
 20
214.90125468780707
 10
989.9999999999997
 20
211.76751601591195
 10
985.4999999999998
 20
207.26751601591195
 10
982.4999999999995
 20
204.13377734390042
 10
992.4999999999998
 20
192.21624141803431
 10
992.4999999999998
 20
97.2674773439062
 10
982.4999999999995
 20
87.26747734390801
 10
985.4999999999998
 20
84.13373867189512
 10
1054.4999999999995
 20
15.133738671894207
 10
1055.9999999999998
 20
12.0
 10
1055.9999999999998
 20
0.0
 10
0.0
 20
0.0
 10
0.0
 20
12.0
 10
1.5
 20
15.133738671894207
 10
70.5
 20
84.13373867189512
 10
73.5
 20
87.26747734390801
 10
63.5
 20
97.2674773439062
 10
63.5
 20
192.21624141803431
 10
73.5
 20
204.13377734390042
 10
70.5
 20
207.26751601591195
 10
66.0
 20
211.76751601591195
 10
64.5
 20
214.90125468780707
 10
64.5
 20
222.40125468780616
 10
61.5
 20
225.53499335981678
 10
53.0
 20
234.0349933598195
 10
51.5
 20
237.16873203171463
 10
41.5
 20
247.1687320317119
 10
41.5
 20
286.6687320317119
 10
51.5
 20
296.6687320317146
 10
48.5
 20
299.80247070372525
 10
14.5
 20
333.80247070372525
 10
13.0
 20
336.9362093756213
  0
LINE
  5
8E
330
74
100
AcDbEntity
  8
NOTCHES
100
AcDbLine
 10
1036.2499999999995
 20
335.369340039671
 30
0.0
 11
1042.2499999999998
 21
335.369340039671
 31
0.0
  0
LINE
  5
8F
330
74
100
AcDbEntity
  8
NOTCHES
100
AcDbLine
 10
1049.2499999999998
 20
13.566869335947104
 30
0.0
 11
1055.2499999999998
 21
13.566869335947104
 31
0.0
  0
TEXT
  5
90
330
74
100
AcDbEntity
  8
PART_LABELS
100
AcDbText
 10
527.9999999999999
 20
176.96810468781018
 30
0.0
 40
28.0
  1
TEST_DOOR
 72
1
 11
527.9999999999999
 21
176.96810468781018
 31
0.0
100
AcDbText
 73
2
  0
ENDBLK
  5
76
330
74
100
AcDbEntity
  8
0
100
AcDbBlockEnd
  0
BLOCK
  5
92
330
91
100
AcDbEntity
  8
0
100
AcDbBlockBegin
  2
B_TEST_DOOR_LEAF1
 70
0
 10
0.0
 20
0.0
 30
0.0
  3
B_TEST_DOOR_LEAF1
  1

  0
LINE
  5
94
330
91
100
AcDbEntity
  8
NOTCHES
100
AcDbLine
 10
11.744667951017846
 20
2013.5000000000005
 30
0.0
 11
11.744667951017846
 21
2010.5000000000014
 31
0.0
  0
LINE
  5
95
330
91
100
AcDbEntity
  8
NOTCHES
100
AcDbLine
 10
11.744667951017846
 20
3.0
 30
0.0
 11
11.744667951017846
 21
0.0
 31
0.0
  0
LINE
  5
96
330
91
100
AcDbEntity
  8
NOTCHES
100
AcDbLine
 10
71.26319617545187
 20
2013.5000000000005
 30
0.0
 11
71.26319617545187
 21
2010.5000000000014
 31
0.0
  0
LINE
  5
97
330
91
100
AcDbEntity
  8
NOTCHES
100
AcDbLine
 10
71.26319617545187
 20
3.0
 30
0.0
 11
71.26319617545187
 21
0.0
 31
0.0
  0
LINE
  5
98
330
91
100
AcDbEntity
  8
NOTCHES
100
AcDbLine
 10
33.747289326506916
 20
2013.5000000000005
 30
0.0
 11
33.747289326506916
 21
2010.5000000000014
 31
0.0
  0
LINE
  5
99
330
91
100
AcDbEntity
  8
NOTCHES
100
AcDbLine
 10
33.747289326506916
 20
3.0
 30
0.0
 11
33.747289326506916
 21
0.0
 31
0.0
  0
LINE
  5
9A
330
91
100
AcDbEntity
  8
NOTCHES
100
AcDbLine
 10
1013.663203024305
 20
2010.5000000000014
 30
0.0
 11
1013.663203024305
 21
2013.5000000000005
 31
0.0
  0
LWPOLYLINE
  5
9B
330
91
100
AcDbEntity
  8
CUTOUTS
100
AcDbPolyline
 90
4
 70
1
 10
1041.3632030244912
 20
244.99999999930242
 10
1011.8632030244912
 20
244.99999999930242
 10
1011.8632030244912
 20
142.99999999930242
 10
1041.3632030244912
 20
142.99999999930242
  0
LWPOLYLINE
  5
9C
330
91
100
AcDbEntity
  8
CUTOUTS
100
AcDbPolyline
 90
4
 70
1
 10
1011.8632030244912
 20
1966.5000000000005
 10
1041.3632030244912
 20
1966.5000000000005
 10
1041.3632030244912
 20
1864.5000000000014
 10
1011.8632030244912
 20
1864.5000000000014
  0
LWPOLYLINE
  5
9D
330
91
100
AcDbEntity
  8
CUTOUTS
100
AcDbPolyline
 90
4
 70
1
 10
1011.8632030244912
 20
1764.5000000000014
 10
1041.3632030244912
 20
1764.5000000000014
 10
1041.3632030244912
 20
1662.5000000000005
 10
1011.8632030244912
 20
1662.5000000000005
  0
LINE
  5
9E
330
91
100
AcDbEntity
  8
NOTCHES
100
AcDbLine
 10
1073.1817312492053
 20
2010.5000000000014
 30
0.0
 11
1073.1817312492053
 21
2013.5000000000005
 31
0.0
  0
LINE
  5
9F
330
91
100
AcDbEntity
  8
NOTCHES
100
AcDbLine
 10
1051.1791098732497
 20
2010.5000000000014
 30
0.0
 11
1051.1791098732497
 21
2013.5000000000005
 31
0.0
  0
LWPOLYLINE
  5
A0
330
91
100
AcDbEntity
  8
CUTOUTS
100
AcDbPolyline
 90
4
 70
1
 10
1041.3632030243748
 20
1004.7500000000146
 10
1011.8632030243748
 20
1004.7500000000146
 10
1011.8632030243748
 20
902.7500000000155
 10
1041.3632030243748
 20
902.7500000000155
  0
LWPOLYLINE
  5
A1
330
91
100
AcDbEntity
  8
CUTOUTS
100
AcDbPolyline
 90
4
 70
1
 10
40.06415866268799
 20
1141.1500000000233
 10
64.56415866268799
 20
1141.1500000000233
 10
64.56415866268799
 20
905.8499999999772
 10
40.06415866268799
 20
905.8499999999772
  0
CIRCLE
  5
A2
330
91
100
AcDbEntity
  8
HOLES
100
AcDbCircle
 10
110.9611496003339
 20
1043.0000000000005
 30
0.0
 40
3.500000000000055
  0
CIRCLE
  5
A3
330
91
100
AcDbEntity
  8
HOLES
100
AcDbCircle
 10
148.96114960033424
 20
1043.0000000000005
 30
0.0
 40
3.5
  0
LINE
  5
A4
330
91
100
AcDbEntity
  8
NOTCHES
100
AcDbLine
 10
45.00524275097996
 20
0.0
 30
0.0
 11
45.00524275097996
 21
0.0
 31
0.0
  0
LINE
  5
A5
330
91
100
AcDbEntity
  8
NOTCHES
100
AcDbLine
 10
60.00524275097996
 20
0.0
 30
0.0
 11
60.00524275097996
 21
0.0
 31
0.0
  0
LINE
  5
A6
330
91
100
AcDbEntity
  8
NOTCHES
100
AcDbLine
 10
1073.1817312492053
 20
3.0
 30
0.0
 11
1073.1817312492053
 21
0.0
 31
0.0
  0
LINE
  5
A7
330
91
100
AcDbEntity
  8
NOTCHES
100
AcDbLine
 10
1013.6632030247706
 20
3.0
 30
0.0
 11
1013.6632030247706
 21
0.0
 31
0.0
  0
LINE
  5
A8
330
91
100
AcDbEntity
  8
NOTCHES
100
AcDbLine
 10
1051.1791098737153
 20
3.0
 30
0.0
 11
1051.1791098737153
 21
0.0
 31
0.0
  0
LWPOLYLINE
  5
A9
330
91
100
AcDbEntity
  8
OUTLINE
100
AcDbPolyline
 90
4
 70
1
 10
1084.926399200223
 20
2013.5000000000005
 10
0.0
 20
2013.5000000000005
 10
0.0
 20
0.0
 10
1084.926399200223
 20
0.0
  0
CIRCLE
  5
AA
330
91
100
AcDbEntity
  8
HOLES
100
AcDbCircle
 10
129.96114960033424
 20
1043.0000000000005
 30
0.0
 40
11.0
  0
LWPOLYLINE
  5
AB
330
91
100
AcDbEntity
  8
CUTOUTS
100
AcDbPolyline
 90
4
 70
1
 10
137.46114960033412
 20
962.3820424718433
 10
137.46114960033412
 20
950.9287809415823
 42
-0.9999999999999998
 10
122.4611496003339
 20
950.9287809415823
 10
122.4611496003339
 20
962.3820424718433
 42
-2.539565129295556
  0
LWPOLYLINE
  5
AC
330
91
100
AcDbEntity
  8
CUTOUTS
100
AcDbPolyline
 90
4
 70
1
 10
1039.921156449243
 20
0.0
 10
1024.921156449243
 20
0.0
 10
1024.921156449243
 20
30.00000000000182
 10
1039.921156449243
 20
30.00000000000182
  0
LWPOLYLINE
  5
AD
330
91
100
AcDbEntity
  8
CUTOUTS
100
AcDbPolyline
 90
4
 70
1
 10
45.00524275097996
 20
0.0
 10
60.00524275097996
 20
0.0
 10
60.00524275097996
 20
30.00000000000182
 10
45.00524275097996
 20
30.00000000000182
  0
TEXT
  5
AE
330
91
100
AcDbEntity
  8
PART_LABELS
100
AcDbText
 10
542.4631996001115
 20
1006.7500000000002
 30
0.0
 40
35.0
  1
TEST_DOOR
 72
1
 11
542.4631996001115
 21
1006.7500000000002
 31
0.0
100
AcDbText
 73
2
  0
ENDBLK
  5
93
330
91
100
AcDbEntity
  8
0
100
AcDbBlockEnd
  0
BLOCK
  5
B0
330
AF
100
AcDbEntity
  8
0
100
AcDbBlockBegin
  2
B_TEST_DOOR_LEAF2
 70
0
 10
0.0
 20
0.0
 30
0.0
  3
B_TEST_DOOR_LEAF2
  1

  0
LINE
  5
B2
330
AF
100
AcDbEntity
  8
NOTCHES
100
AcDbLine
 10
16.705641426612146
 20
2010.5000000000014
 30
0.0
 11
16.705641426612146
 21
2013.5000000000005
 31
0.0
  0
LINE
  5
B3
330
AF
100
AcDbEntity
  8
NOTCHES
100
AcDbLine
 10
955.1043585734451
 20
2013.5000000000005
 30
0.0
 11
955.1043585734451
 21
2010.5000000000014
 31
0.0
  0
LINE
  5
B4
330
AF
100
AcDbEntity
  8
NOTCHES
100
AcDbLine
 10
955.1043585734451
 20
3.0
 30
0.0
 11
955.1043585734451
 21
0.0
 31
0.0
  0
LINE
  5
B5
330
AF
100
AcDbEntity
  8
NOTCHES
100
AcDbLine
 10
16.705641426612146
 20
0.0
 30
0.0
 11
16.705641426612146
 21
3.0
 31
0.0
  0
LWPOLYLINE
  5
B6
330
AF
100
AcDbEntity
  8
OUTLINE
100
AcDbPolyline
 90
4
 70
1
 10
971.8100000000561
 20
2013.5000000000005
 10
0.0
 20
2013.5000000000005
 10
0.0
 20
0.0
 10
971.8100000000561
 20
0.0
  0
CIRCLE
  5
B7
330
AF
100
AcDbEntity
  8
HOLES
100
AcDbCircle
 10
879.1696034176282
 20
1043.0000000000005
 30
0.0
 40
3.500000000000055
  0
CIRCLE
  5
B8
330
AF
100
AcDbEntity
  8
HOLES
100
AcDbCircle
 10
917.1696034176282
 20
1043.0000000000005
 30
0.0
 40
3.5
  0
CIRCLE
  5
B9
330
AF
100
AcDbEntity
  8
HOLES
100
AcDbCircle
 10
898.1696034176282
 20
1043.0000000000005
 30
0.0
 40
11.0
  0
LWPOLYLINE
  5
BA
330
AF
100
AcDbEntity
  8
CUTOUTS
100
AcDbPolyline
 90
4
 70
1
 10
905.6696034176282
 20
962.3820424718433
 10
905.6696034176282
 20
950.9287809415846
 42
-0.9999999999999998
 10
890.6696034176282
 20
950.9287809415846
 10
890.6696034176282
 20
962.3820424718433
 42
-2.539565129295556
  0
TEXT
  5
BB
330
AF
100
AcDbEntity
  8
PART_LABELS
100
AcDbText
 10
485.90500000002805
 20
1006.7500000000002
 30
0.0
 40
35.0
  1
TEST_DOOR
 72
1
 11
485.90500000002805
 21
1006.7500000000002
 31
0.0
100
AcDbText
 73
2
  0
ENDBLK
  5
B1
330
AF
100
AcDbEntity
  8
0
100
AcDbBlockEnd
  0
ENDSEC
  0
SECTION
  2
ENTITIES
  0
INSERT
  5
BC
330
17
100
AcDbEntity
  8
0
100
AcDbBlockReference
  2
B_TEST_DOOR_HINGE_POST
 10
0.0
 20
0.0
 30
0.0
  0
INSERT
  5
BE
330
17
100
AcDbEntity
  8
0
100
AcDbBlockReference
  2
B_TEST_DOOR_LOCK_POST
 10
503.93624003976527
 20
0.0
 30
0.0
  0
INSERT
  5
C0
330
17
100
AcDbEntity
  8
0
100
AcDbBlockReference
  2
B_TEST_DOOR_HEADER
 10
1007.8724800795302
 20
0.0
 30
0.0
  0
INSERT
  5
C2
330
17
100
AcDbEntity
  8
0
100
AcDbBlockReference
  2
B_TEST_DOOR_LEAF1
 10
2313.87248007953
 20
0.0
 30
0.0
  0
INSERT
  5
C4
330
17
100
AcDbEntity
  8
0
100
AcDbBlockReference
  2
B_TEST_DOOR_LEAF2
 10
3648.798879279753
 20
0.0
 30
0.0
  0
TEXT
  5
C6
330
17
100
AcDbEntity
  8
TEXT
100
AcDbText
 10
0.0
 20
-120.0
 30
0.0
 40
45.0
  1
DOOR TEST_DOOR | 955x2000x175 mm (RH)
100
AcDbText
  0
LWPOLYLINE
  5
C7
330
17
100
AcDbEntity
  8
SHEETS_1_5
100
AcDbPolyline
 90
4
 70
1
 10
0.0
 20
-3500.0
 10
1250.0
 20
-3500.0
 10
1250.0
 20
-1200.0
 10
0.0
 20
-1200.0
  0
INSERT
  5
C8
330
17
100
AcDbEntity
  8
0
100
AcDbBlockReference
  2
B_TEST_DOOR_HINGE_POST
 10
0.0
 20
-3500.0
 30
0.0
  0
INSERT
  5
CA
330
17
100
AcDbEntity
  8
0
100
AcDbBlockReference
  2
B_TEST_DOOR_LOCK_POST
 10
353.93624003976527
 20
-3500.0
 30
0.0
  0
INSERT
  5
CC
330
17
100
AcDbEntity
  8
0
100
AcDbBlockReference
  2
B_TEST_DOOR_HEADER
 10
1061.8086894551507
 20
-3500.0
 30
0.0
 50
90.0
  0
TEXT
  5
CE
330
17
100
AcDbEntity
  8
TEXT
100
AcDbText
 10
0.0
 20
-3580.0
 30
0.0
 40
40.0
  1
Sheet 1.5mm #1 (125x230 cm)
100
AcDbText
  0
LWPOLYLINE
  5
CF
330
17
100
AcDbEntity
  8
SHEETS_1_2
100
AcDbPolyline
 90
4
 70
1
 10
0.0
 20
-6700.0
 10
1250.0
 20
-6700.0
 10
1250.0
 20
-4400.0
 10
0.0
 20
-4400.0
  0
INSERT
  5
D0
330
17
100
AcDbEntity
  8
0
100
AcDbBlockReference
  2
B_TEST_DOOR_LEAF1
 10
0.0
 20
-6700.0
 30
0.0
  0
TEXT
  5
D2
330
17
100
AcDbEntity
  8
TEXT
100
AcDbText
 10
0.0
 20
-6780.0
 30
0.0
 40
40.0
  1
Sheet 1.2mm #1 (125x230 cm)
100
AcDbText
  0
LWPOLYLINE
  5
D3
330
17
100
AcDbEntity
  8
SHEETS_1_2
100
AcDbPolyline
 90
4
 70
1
 10
1500.0
 20
-6700.0
 10
2500.0
 20
-6700.0
 10
2500.0
 20
-4400.0
 10
1500.0
 20
-4400.0
  0
INSERT
  5
D4
330
17
100
AcDbEntity
  8
0
100
AcDbBlockReference
  2
B_TEST_DOOR_LEAF2
 10
1500.0
 20
-6700.0
 30
0.0
  0
TEXT
  5
D6
330
17
100
AcDbEntity
  8
TEXT
100
AcDbText
 10
1500.0
 20
-6780.0
 30
0.0
 40
40.0
  1
Sheet 1.2mm #2 (100x230 cm)
100
AcDbText
  0
ENDSEC
  0
SECTION
  2
OBJECTS
  0
DICTIONARY
  5
A
330
0
100
AcDbDictionary
281
1
  3
ACAD_COLOR
350
B
  3
ACAD_GROUP
350
C
  3
ACAD_LAYOUT
350
D
  3
ACAD_MATERIAL
350
E
  3
ACAD_MLEADERSTYLE
350
F
  3
ACAD_MLINESTYLE
350
10
  3
ACAD_PLOTSETTINGS
350
11
  3
ACAD_PLOTSTYLENAME
350
12
  3
ACAD_SCALELIST
350
14
  3
ACAD_TABLESTYLE
350
15
  3
ACAD_VISUALSTYLE
350
16
  3
EZDXF_META
350
2D
  0
DICTIONARY
  5
B
330
A
100
AcDbDictionary
281
1
  0
DICTIONARY
  5
C
330
A
100
AcDbDictionary
281
1
  0
DICTIONARY
  5
D
330
A
100
AcDbDictionary
281
1
  3
Model
350
1A
  3
Layout1
350
1E
  0
DICTIONARY
  5
E
330
A
100
AcDbDictionary
281
1
  3
ByBlock
350
1F
  3
ByLayer
350
20
  3
Global
350
21
  0
DICTIONARY
  5
F
330
A
100
AcDbDictionary
281
1
  3
Standard
350
2C
  0
DICTIONARY
  5
10
330
A
100
AcDbDictionary
281
1
  3
Standard
350
22
  0
DICTIONARY
  5
11
330
A
100
AcDbDictionary
281
1
  0
ACDBDICTIONARYWDFLT
  5
12
330
A
100
AcDbDictionary
281
1
  3
Normal
350
13
100
AcDbDictionaryWithDefault
340
13
  0
ACDBPLACEHOLDER
  5
13
330
12
  0
DICTIONARY
  5
14
330
A
100
AcDbDictionary
281
1
  0
DICTIONARY
  5
15
330
A
100
AcDbDictionary
281
1
  0
DICTIONARY
  5
16
330
A
100
AcDbDictionary
281
1
  0
LAYOUT
  5
1A
330
D
100
AcDbPlotSettings
  1

  4
A3
  6

 40
7.5
 41
20.0
 42
7.5
 43
20.0
 44
420.0
 45
297.0
 46
0.0
 47
0.0
 48
0.0
 49
0.0
140
0.0
141
0.0
142
1.0
143
1.0
 70
1024
 72
1
 73
0
 74
5
  7

 75
16
 76
0
 77
2
 78
300
147
1.0
148
0.0
149
0.0
100
AcDbLayout
  1
Model
 70
1
 71
0
 10
0.0
 20
0.0
 11
420.0
 21
297.0
 12
0.0
 22
0.0
 32
0.0
 14
1e+20
 24
1e+20
 34
1e+20
 15
-1e+20
 25
-1e+20
 35
-1e+20
146
0.0
 13
0.0
 23
0.0
 33
0.0
 16
1.0
 26
0.0
 36
0.0
 17
0.0
 27
1.0
 37
0.0
 76
1
330
17
  0
LAYOUT
  5
1E
330
D
100
AcDbPlotSettings
  1

  4
A3
  6

 40
7.5
 41
20.0
 42
7.5
 43
20.0
 44
420.0
 45
297.0
 46
0.0
 47
0.0
 48
0.0
 49
0.0
140
0.0
141
0.0
142
1.0
143
1.0
 70
0
 72
1
 73
0
 74
5
  7

 75
16
 76
0
 77
2
 78
300
147
1.0
148
0.0
149
0.0
100
AcDbLayout
  1
Layout1
 70
1
 71
1
 10
0.0
 20
0.0
 11
420.0
 21
297.0
 12
0.0
 22
0.0
 32
0.0
 14
1e+20
 24
1e+20
 34
1e+20
 15
-1e+20
 25
-1e+20
 35
-1e+20
146
0.0
 13
0.0
 23
0.0
 33
0.0
 16
1.0
 26
0.0
 36
0.0
 17
0.0
 27
1.0
 37
0.0
 76
1
330
1B
  0
MATERIAL
  5
1F
102
{ACAD_REACTORS
330
E
102
}
330
E
100
AcDbMaterial
  1
ByBlock
  2

 70
0
 40
1.0
 71
1
 41
1.0
 91
-1023410177
 42
1.0
 72
1
  3

 73
1
 74
1
 75
1
 44
0.5
 73
0
 45
1.0
 46
1.0
 77
1
  4

 78
1
 79
1
170
1
 48
1.0
171
1
  6

172
1
173
1
174
1
140
1.0
141
1.0
175
1
  7

176
1
177
1
178
1
143
1.0
179
1
  8

270
1
271
1
272
1
145
1.0
146
1.0
273
1
  9

274
1
275
1
276
1
 42
1.0
 72
1
  3

 73
1
 74
1
 75
1
 94
63
  0
MATERIAL
  5
20
102
{ACAD_REACTORS
330
E
102
}
330
E
100
AcDbMaterial
  1
ByLayer
  2

 70
0
 40
1.0
 71
1
 41
1.0
 91
-1023410177
 42
1.0
 72
1
  3

 73
1
 74
1
 75
1
 44
0.5
 73
0
 45
1.0
 46
1.0
 77
1
  4

 78
1
 79
1
170
1
 48
1.0
171
1
  6

172
1
173
1
174
1
140
1.0
141
1.0
175
1
  7

176
1
177
1
178
1
143
1.0
179
1
  8

270
1
271
1
272
1
145
1.0
146
1.0
273
1
  9

274
1
275
1
276
1
 42
1.0
 72
1
  3

 73
1
 74
1
 75
1
 94
63
  0
MATERIAL
  5
21
102
{ACAD_REACTORS
330
E
102
}
330
E
100
AcDbMaterial
  1
Global
  2

 70
0
 40
1.0
 71
1
 41
1.0
 91
-1023410177
 42
1.0
 72
1
  3

 73
1
 74
1
 75
1
 44
0.5
 73
0
 45
1.0
 46
1.0
 77
1
  4

 78
1
 79
1
170
1
 48
1.0
171
1
  6

172
1
173
1
174
1
140
1.0
141
1.0
175
1
  7

176
1
177
1
178
1
143
1.0
179
1
  8

270
1
271
1
272
1
145
1.0
146
1.0
273
1
  9

274
1
275
1
276
1
 42
1.0
 72
1
  3

 73
1
 74
1
 75
1
 94
63
  0
MLINESTYLE
  5
22
102
{ACAD_REACTORS
330
10
102
}
330
10
100
AcDbMlineStyle
  2
Standard
 70
0
  3

 62
256
 51
90.0
 52
90.0
 71
2
 49
0.5
 62
256
  6
BYLAYER
 49
-0.5
 62
256
  6
BYLAYER
  0
MLEADERSTYLE
  5
2C
102
{ACAD_REACTORS
330
F
102
}
330
F
100
AcDbMLeaderStyle
179
2
170
2
171
1
172
0
 90
2
 40
0.0
 41
0.0
173
1
 91
-1056964608
 92
-2
290
1
 42
2.0
291
1
 43
8.0
  3
Standard
 44
4.0
300

342
29
174
1
175
1
176
0
178
1
 93
-1056964608
 45
4.0
292
0
297
0
 46
4.0
 94
-1056964608
 47
1.0
 49
1.0
140
1.0
294
1
141
0.0
177
0
142
1.0
295
0
296
0
143
3.75
271
0
272
9
273
9
  0
DICTIONARY
  5
2D
330
A
100
AcDbDictionary
280
1
281
1
  3
CREATED_BY_EZDXF
350
2E
  3
WRITTEN_BY_EZDXF
350
D9
  0
DICTIONARYVAR
  5
2E
330
2D
100
DictionaryVariables
280
0
  1
1.4.4 @ 2026-09-22T18:28:58.990938+00:00
  0
DICTIONARYVAR
  5
D9
330
2D
100
DictionaryVariables
280
0
  1
1.4.4 @ 2026-09-22T18:28:59.045041+00:00
  0
ENDSEC
  0
EOF
