  0
SECTION
  2
HEADER
  9
$ACADVER
  1
AC1032
  9
$ACADMAINTVER
 90
      197
  9
$DWGCODEPAGE
  3
ANSI_1252
  9
$LASTSAVEDBY
  1
hassa
  9
$REQUIREDVERSIONS
160
                 0
  9
$INSBASE
 10
0.0
 20
0.0
 30
0.0
  9
$EXTMIN
 10
0.0
 20
0.0
 30
0.0
  9
$EXTMAX
 10
5189.365140936337
 20
3502.565591085236
 30
0.0
  9
$LIMMIN
 10
0.0
 20
0.0
  9
$LIMMAX
 10
12.0
 20
9.0
  9
$ORTHOMODE
 70
     0
  9
$REGENMODE
 70
     1
  9
$FILLMODE
 70
     1
  9
$QTEXTMODE
 70
     0
  9
$MIRRTEXT
 70
     0
  9
$LTSCALE
 40
1.0
  9
$ATTMODE
 70
     1
  9
$TEXTSIZE
 40
0.2
  9
$TRACEWID
 40
0.05
  9
$TEXTSTYLE
  7
Standard
  9
$CLAYER
  8
0
  9
$CELTYPE
  6
ByLayer
  9
$CECOLOR
 62
   256
  9
$CELTSCALE
 40
1.0
  9
$DISPSILH
 70
     0
  9
$DIMSCALE
 40
1.0
  9
$DIMASZ
 40
0.18
  9
$DIMEXO
 40
0.0625
  9
$DIMDLI
 40
0.38
  9
$DIMRND
 40
0.0
  9
$DIMDLE
 40
0.0
  9
$DIMEXE
 40
0.18
  9
$DIMTP
 40
0.0
  9
$DIMTM
 40
0.0
  9
$DIMTXT
 40
0.18
  9
$DIMCEN
 40
0.09
  9
$DIMTSZ
 40
0.0
  9
$DIMTOL
 70
     0
  9
$DIMLIM
 70
     0
  9
$DIMTIH
 70
     1
  9
$DIMTOH
 70
     1
  9
$DIMSE1
 70
     0
  9
$DIMSE2
 70
     0
  9
$DIMTAD
 70
     0
  9
$DIMZIN
 70
     0
  9
$DIMBLK
  1

  9
$DIMASO
 70
     1
  9
$DIMSHO
 70
     1
  9
$DIMPOST
  1

  9
$DIMAPOST
  1

  9
$DIMALT
 70
     0
  9
$DIMALTD
 70
     2
  9
$DIMALTF
 40
25.4
  9
$DIMLFAC
 40
1.0
  9
$DIMTOFL
 70
     0
  9
$DIMTVP
 40
0.0
  9
$DIMTIX
 70
     0
  9
$DIMSOXD
 70
     0
  9
$DIMSAH
 70
     0
  9
$DIMBLK1
  1

  9
$DIMBLK2
  1

  9
$DIMSTYLE
  2
Standard
  9
$DIMCLRD
 70
     0
  9
$DIMCLRE
 70
     0
  9
$DIMCLRT
 70
     0
  9
$DIMTFAC
 40
1.0
  9
$DIMGAP
 40
0.09
  9
$DIMJUST
 70
     0
  9
$DIMSD1
 70
     0
  9
$DIMSD2
 70
     0
  9
$DIMTOLJ
 70
     1
  9
$DIMTZIN
 70
     0
  9
$DIMALTZ
 70
     0
  9
$DIMALTTZ
 70
     0
  9
$DIMUPT
 70
     0
  9
$DIMDEC
 70
     4
  9
$DIMTDEC
 70
     4
  9
$DIMALTU
 70
     2
  9
$DIMALTTD
 70
     2
  9
$DIMTXSTY
  7
Standard
  9
$DIMAUNIT
 70
     0
  9
$DIMADEC
 70
     0
  9
$DIMALTRND
 40
0.0
  9
$DIMAZIN
 70
     0
  9
$DIMDSEP
 70
    46
  9
$DIMATFIT
 70
     3
  9
$DIMFRAC
 70
     0
  9
$DIMLDRBLK
  1

  9
$DIMLUNIT
 70
     2
  9
$DIMLWD
 70
    -2
  9
$DIMLWE
 70
    -2
  9
$DIMTMOVE
 70
     0
  9
$DIMFXL
 40
1.0
  9
$DIMFXLON
 70
     0
  9
$DIMJOGANG
 40
0.7853981633974483
  9
$DIMTFILL
 70
     0
  9
$DIMTFILLCLR
 70
     0
  9
$DIMARCSYM
 70
     0
  9
$DIMLTYPE
  6

  9
$DIMLTEX1
  6

  9
$DIMLTEX2
  6

  9
$DIMTXTDIRECTION
 70
     0
  9
$LUNITS
 70
     2
  9
$LUPREC
 70
     4
  9
$SKETCHINC
 40
0.1
  9
$FILLETRAD
 40
0.0
  9
$AUNITS
 70
     0
  9
$AUPREC
 70
     0
  9
$MENU
  1
.
  9
$ELEVATION
 40
0.0
  9
$PELEVATION
 40
0.0
  9
$THICKNESS
 40
0.0
  9
$LIMCHECK
 70
     0
  9
$CHAMFERA
 40
0.0
  9
$CHAMFERB
 40
0.0
  9
$CHAMFERC
 40
0.0
  9
$CHAMFERD
 40
0.0
  9
$SKPOLY
 70
     0
  9
$TDCREATE
 40
2461308.809988426
  9
$TDUCREATE
 40
2461308.684988426
  9
$TDUPDATE
 40
2461308.810972222
  9
$TDUUPDATE
 40
2461308.685972222
  9
$TDINDWG
 40
0.0009837963
  9
$TDUSRTIMER
 40
0.0009837963
  9
$USRTIMER
 70
     1
  9
$ANGBASE
 50
0.0
  9
$ANGDIR
 70
     0
  9
$PDMODE
 70
     0
  9
$PDSIZE
 40
0.0
  9
$PLINEWID
 40
0.0
  9
$SPLFRAME
 70
     0
  9
$SPLINETYPE
 70
     6
  9
$SPLINESEGS
 70
     8
  9
$HANDSEED
  5
360
  9
$SURFTAB1
 70
     6
  9
$SURFTAB2
 70
     6
  9
$SURFTYPE
 70
     6
  9
$SURFU
 70
     6
  9
$SURFV
 70
     6
  9
$UCSBASE
  2

  9
$UCSNAME
  2

  9
$UCSORG
 10
0.0
 20
0.0
 30
0.0
  9
$UCSXDIR
 10
1.0
 20
0.0
 30
0.0
  9
$UCSYDIR
 10
0.0
 20
1.0
 30
0.0
  9
$UCSORTHOREF
  2

  9
$UCSORTHOVIEW
 70
     0
  9
$UCSORGTOP
 10
0.0
 20
0.0
 30
0.0
  9
$UCSORGBOTTOM
 10
0.0
 20
0.0
 30
0.0
  9
$UCSORGLEFT
 10
0.0
 20
0.0
 30
0.0
  9
$UCSORGRIGHT
 10
0.0
 20
0.0
 30
0.0
  9
$UCSORGFRONT
 10
0.0
 20
0.0
 30
0.0
  9
$UCSORGBACK
 10
0.0
 20
0.0
 30
0.0
  9
$PUCSBASE
  2

  9
$PUCSNAME
  2

  9
$PUCSORG
 10
0.0
 20
0.0
 30
0.0
  9
$PUCSXDIR
 10
1.0
 20
0.0
 30
0.0
  9
$PUCSYDIR
 10
0.0
 20
1.0
 30
0.0
  9
$PUCSORTHOREF
  2

  9
$PUCSORTHOVIEW
 70
     0
  9
$PUCSORGTOP
 10
0.0
 20
0.0
 30
0.0
  9
$PUCSORGBOTTOM
 10
0.0
 20
0.0
 30
0.0
  9
$PUCSORGLEFT
 10
0.0
 20
0.0
 30
0.0
  9
$PUCSORGRIGHT
 10
0.0
 20
0.0
 30
0.0
  9
$PUCSORGFRONT
 10
0.0
 20
0.0
 30
0.0
  9
$PUCSORGBACK
 10
0.0
 20
0.0
 30
0.0
  9
$USERI1
 70
     0
  9
$USERI2
 70
     0
  9
$USERI3
 70
     0
  9
$USERI4
 70
     0
  9
$USERI5
 70
     0
  9
$USERR1
 40
0.0
  9
$USERR2
 40
0.0
  9
$USERR3
 40
0.0
  9
$USERR4
 40
0.0
  9
$USERR5
 40
0.0
  9
$WORLDVIEW
 70
     1
  9
$SHADEDGE
 70
     3
  9
$SHADEDIF
 70
    70
  9
$TILEMODE
 70
     1
  9
$MAXACTVP
 70
    64
  9
$PINSBASE
 10
0.0
 20
0.0
 30
0.0
  9
$PLIMCHECK
 70
     0
  9
$PEXTMIN
 10
1.000000000000000E+20
 20
1.000000000000000E+20
 30
1.000000000000000E+20
  9
$PEXTMAX
 10
-1.000000000000000E+20
 20
-1.000000000000000E+20
 30
-1.000000000000000E+20
  9
$PLIMMIN
 10
0.0
 20
0.0
  9
$PLIMMAX
 10
12.0
 20
9.0
  9
$UNITMODE
 70
     0
  9
$VISRETAIN
 70
     1
  9
$PLINEGEN
 70
     0
  9
$PSLTSCALE
 70
     1
  9
$TREEDEPTH
 70
  3020
  9
$CMLSTYLE
  2
Standard
  9
$CMLJUST
 70
     0
  9
$CMLSCALE
 40
1.0
  9
$PROXYGRAPHICS
 70
     1
  9
$MEASUREMENT
 70
     0
  9
$CELWEIGHT
370
    -1
  9
$ENDCAPS
280
     0
  9
$JOINSTYLE
280
     0
  9
$LWDISPLAY
290
     0
  9
$INSUNITS
 70
     1
  9
$HYPERLINKBASE
  1

  9
$STYLESHEET
  1

  9
$XEDIT
290
     1
  9
$CEPSNTYPE
380
     0
  9
$PSTYLEMODE
290
     1
  9
$FINGERPRINTGUID
  2
{36967273-24E8-C244-B347-CFCB6A3A1D97}
  9
$VERSIONGUID
  2
{77E8ACE9-353D-2E4C-9CDB-3CC6ED16BB9D}
  9
$EXTNAMES
290
     1
  9
$PSVPSCALE
 40
0.0
  9
$OLESTARTUP
290
     0
  9
$SORTENTS
280
   127
  9
$INDEXCTL
280
     0
  9
$HIDETEXT
280
     1
  9
$XCLIPFRAME
280
     2
  9
$HALOGAP
280
     0
  9
$OBSCOLOR
 70
   257
  9
$OBSLTYPE
280
     0
  9
$INTERSECTIONDISPLAY
280
     0
  9
$INTERSECTIONCOLOR
 70
   257
  9
$DIMASSOC
280
     2
  9
$PROJECTNAME
  1

  9
$CAMERADISPLAY
290
     0
  9
$LENSLENGTH
 40
50.0
  9
$CAMERAHEIGHT
 40
0.0
  9
$STEPSPERSEC
 40
2.0
  9
$STEPSIZE
 40
6.0
  9
$3DDWFPREC
 40
2.0
  9
$PSOLWIDTH
 40
0.25
  9
$PSOLHEIGHT
 40
4.0
  9
$LOFTANG1
 40
1.570796326794896
  9
$LOFTANG2
 40
1.570796326794896
  9
$LOFTMAG1
 40
0.0
  9
$LOFTMAG2
 40
0.0
  9
$LOFTPARAM
 70
     7
  9
$LOFTNORMALS
280
     1
  9
$LATITUDE
 40
37.795
  9
$LONGITUDE
 40
-122.394
  9
$NORTHDIRECTION
 40
0.0
  9
$TIMEZONE
 70
 -8000
  9
$LIGHTGLYPHDISPLAY
280
     1
  9
$TILEMODELIGHTSYNCH
280
     1
  9
$CMATERIAL
347
11
  9
$SOLIDHIST
280
     0
  9
$SHOWHIST
280
     1
  9
$DWFFRAME
280
     2
  9
$DGNFRAME
280
     0
  9
$REALWORLDSCALE
290
     1
  9
$INTERFERECOLOR
 62
     1
  9
$INTERFEREOBJVS
345
33
  9
$INTERFEREVPVS
346
30
  9
$CSHADOW
280
     0
  9
$SHADOWPLANELOCATION
 40
0.0
  0
ENDSEC
  0
SECTION
  2
CLASSES
  0
CLASS
  1
ACDBDICTIONARYWDFLT
  2
AcDbDictionaryWithDefault
  3
ObjectDBX Classes
 90
        0
 91
        1
280
     0
281
     0
  0
CLASS
  1
MATERIAL
  2
AcDbMaterial
  3
ObjectDBX Classes
 90
     1153
 91
        3
280
     0
281
     0
  0
CLASS
  1
VISUALSTYLE
  2
AcDbVisualStyle
  3
ObjectDBX Classes
 90
     4095
 91
       25
280
     0
281
     0
  0
CLASS
  1
SCALE
  2
AcDbScale
  3
ObjectDBX Classes
 90
     1153
 91
       17
280
     0
281
     0
  0
CLASS
  1
TABLESTYLE
  2
AcDbTableStyle
  3
ObjectDBX Classes
 90
     4095
 91
        1
280
     0
281
     0
  0
CLASS
  1
MLEADERSTYLE
  2
AcDbMLeaderStyle
  3
ACDB_MLEADERSTYLE_CLASS
 90
     4095
 91
        1
280
     0
281
     0
  0
CLASS
  1
ACDBSECTIONVIEWSTYLE
  2
AcDbSectionViewStyle
  3
ObjectDBX Classes
 90
     1025
 91
        2
280
     0
281
     0
  0
CLASS
  1
ACDBDETAILVIEWSTYLE
  2
AcDbDetailViewStyle
  3
ObjectDBX Classes
 90
     1025
 91
        2
280
     0
281
     0
  0
CLASS
  1
EXACXREFPANELOBJECT
  2
ExAcXREFPanelObject
  3
EXAC_ESW
 90
     1025
 91
        1
280
     0
281
     0
  0
CLASS
  1
NPOCOLLECTION
  2
AcDbImpNonPersistentObjectsCollection
  3
ObjectDBX Classes
 90
     1153
 91
        1
280
     0
281
     0
  0
CLASS
  1
DICTIONARYVAR
  2
AcDbDictionaryVar
  3
ObjectDBX Classes
 90
        0
 91
       29
280
     0
281
     0
  0
CLASS
  1
DIMASSOC
  2
AcDbDimAssoc
  3
"AcDbDimAssoc|Product Desc:     AcDim ARX App For Dimension|Company:          Autodesk, Inc.|WEB Address:      www.autodesk.com"
 90
        0
 91
       20
280
     0
281
     0
  0
CLASS
  1
SORTENTSTABLE
  2
AcDbSortentsTable
  3
ObjectDBX Classes
 90
        0
 91
        1
280
     0
281
     0
  0
CLASS
  1
CELLSTYLEMAP
  2
AcDbCellStyleMap
  3
ObjectDBX Classes
 90
     1152
 91
        1
280
     0
281
     0
  0
ENDSEC
  0
SECTION
  2
TABLES
  0
TABLE
  2
VPORT
  5
8
330
0
100
AcDbSymbolTable
 70
     1
  0
VPORT
  5
57
330
8
100
AcDbSymbolTableRecord
100
AcDbViewportTableRecord
  2
*Active
 70
     0
 10
0.0
 20
0.0
 11
1.0
 21
1.0
 12
5292.080251347067
 22
1930.047744975594
 13
0.0
 23
0.0
 14
0.5
 24
0.5
 15
0.5
 25
0.5
 16
0.0
 26
0.0
 36
1.0
 17
0.0
 27
0.0
 37
0.0
 40
5648.797911079465
 41
2.562922868741542
 42
50.0
 43
0.0
 44
0.0
 50
0.0
 51
0.0
 71
     0
 72
  1000
 73
     1
 74
     3
 75
     0
 76
     0
 77
     0
 78
     0
281
     0
 65
     1
110
0.0
120
0.0
130
0.0
111
1.0
121
0.0
131
0.0
112
0.0
122
1.0
132
0.0
 79
     0
146
0.0
348
2F
 60
     3
 61
     5
292
     1
282
     1
141
0.0
142
0.0
 63
   250
421
  3355443
1001
ACAD_NAV_VCDISPLAY
1070
     1
  0
ENDTAB
  0
TABLE
  2
LTYPE
  5
5
330
0
100
AcDbSymbolTable
 70
     2
  0
LTYPE
  5
5B
330
5
100
AcDbSymbolTableRecord
100
AcDbLinetypeTableRecord
  2
ByBlock
 70
     0
  3

 72
    65
 73
     0
 40
0.0
  0
LTYPE
  5
5C
330
5
100
AcDbSymbolTableRecord
100
AcDbLinetypeTableRecord
  2
ByLayer
 70
     0
  3

 72
    65
 73
     0
 40
0.0
  0
LTYPE
  5
5D
330
5
100
AcDbSymbolTableRecord
100
AcDbLinetypeTableRecord
  2
Continuous
 70
     0
  3
Solid line
 72
    65
 73
     0
 40
0.0
  0
LTYPE
  5
124
330
5
100
AcDbSymbolTableRecord
100
AcDbLinetypeTableRecord
  2
CENTERX2
 70
     0
  3
Center (2x) ________  __  ________  __  _____
 72
    65
 73
     4
 40
20.32
 49
12.7
 74
     0
 49
-2.54
 74
     0
 49
2.54
 74
     0
 49
-2.54
 74
     0
  0
ENDTAB
  0
TABLE
  2
LAYER
  5
2
102
{ACAD_XDICTIONARY
360
12F
102
}
330
0
100
AcDbSymbolTable
 70
     3
  0
LAYER
  5
54
330
2
100
AcDbSymbolTableRecord
100
AcDbLayerTableRecord
  2
0
 70
     0
 62
     7
  6
Continuous
370
    -3
390
F
347
21
348
0
  0
LAYER
  5
125
330
2
100
AcDbSymbolTableRecord
100
AcDbLayerTableRecord
  2
Defpoints
 70
     0
 62
     7
  6
Continuous
290
     0
370
    -3
390
F
347
21
348
0
  0
LAYER
  5
126
102
{ACAD_XDICTIONARY
360
127
102
}
330
2
100
AcDbSymbolTableRecord
100
AcDbLayerTableRecord
  2
A-DIMS-INSD
 70
     0
 62
     7
  6
Continuous
370
    -3
390
F
347
21
348
0
  0
ENDTAB
  0
TABLE
  2
STYLE
  5
3
330
0
100
AcDbSymbolTable
 70
     2
  0
STYLE
  5
55
330
3
100
AcDbSymbolTableRecord
100
AcDbTextStyleTableRecord
  2
Standard
 70
     0
 40
0.0
 41
1.0
 50
0.0
 71
     0
 42
0.2
  3
txt
  4

  0
STYLE
  5
5A
330
3
100
AcDbSymbolTableRecord
100
AcDbTextStyleTableRecord
  2
Annotative
 70
     0
 40
0.0
 41
1.0
 50
0.0
 71
     0
 42
0.2
  3
txt
  4

1001
AcadAnnotative
1000
AnnotativeData
1002
{
1070
     1
1070
     1
1002
}
  0
ENDTAB
  0
TABLE
  2
VIEW
  5
6
330
0
100
AcDbSymbolTable
 70
     0
  0
ENDTAB
  0
TABLE
  2
UCS
  5
7
330
0
100
AcDbSymbolTable
 70
     0
  0
ENDTAB
  0
TABLE
  2
APPID
  5
9
330
0
100
AcDbSymbolTable
 70
     7
  0
APPID
  5
56
330
9
100
AcDbSymbolTableRecord
100
AcDbRegAppTableRecord
  2
ACAD
 70
     0
  0
APPID
  5
5E
330
9
100
AcDbSymbolTableRecord
100
AcDbRegAppTableRecord
  2
AcadAnnotative
 70
     0
  0
APPID
  5
7A
330
9
100
AcDbSymbolTableRecord
100
AcDbRegAppTableRecord
  2
ACAD_NAV_VCDISPLAY
 70
     0
  0
APPID
  5
12A
330
9
100
AcDbSymbolTableRecord
100
AcDbRegAppTableRecord
  2
ACAD_PSEXT
 70
     0
  0
APPID
  5
12B
330
9
100
AcDbSymbolTableRecord
100
AcDbRegAppTableRecord
  2
ACAD_DSTYLE_DIMJAG
 70
     0
  0
APPID
  5
12C
330
9
100
AcDbSymbolTableRecord
100
AcDbRegAppTableRecord
  2
ACAD_DSTYLE_DIMTALN
 70
     0
  0
APPID
  5
12D
330
9
100
AcDbSymbolTableRecord
100
AcDbRegAppTableRecord
  2
AcDbBlockRepETag
 70
     0
  0
ENDTAB
  0
TABLE
  2
DIMSTYLE
  5
A
330
0
100
AcDbSymbolTable
 70
     4
100
AcDbDimStyleTable
 71
     0
  0
DIMSTYLE
105
58
330
A
100
AcDbSymbolTableRecord
100
AcDbDimStyleTableRecord
  2
Standard
 70
     0
340
55
  0
DIMSTYLE
105
59
330
A
100
AcDbSymbolTableRecord
100
AcDbDimStyleTableRecord
  2
Annotative
 70
     0
340
55
1001
AcadAnnotative
1000
AnnotativeData
1002
{
1070
     1
1070
     1
1002
}
  0
DIMSTYLE
105
128
102
{ACAD_REACTORS
330
1D9
330
1DC
330
15F
330
162
330
163
330
19D
330
1A0
330
1A3
330
1A6
330
15B
330
15C
330
1DF
330
1FA
330
1FB
330
1FE
330
201
330
202
330
23C
330
23F
330
242
330
245
330
278
330
27B
330
27E
102
}
330
A
100
AcDbSymbolTableRecord
100
AcDbDimStyleTableRecord
  2
Sh
 70
     0
 40
20.0
 41
1.5
 42
0.625
 43
3.75
 44
1.25
 73
     0
 74
     0
 78
     8
140
2.5
141
2.5
143
0.03937007874016
147
0.625
171
     3
172
     1
271
     2
272
     2
274
     3
278
    44
283
     0
284
     8
290
     1
340
55
342
7E
1001
ACAD_DSTYLE_DIMJAG
1070
   388
1040
1.5
1001
ACAD_DSTYLE_DIMTALN
1070
   392
1070
     0
  0
DIMSTYLE
105
129
330
A
100
AcDbSymbolTableRecord
100
AcDbDimStyleTableRecord
  2
khaled
 70
     0
 40
5.0
 41
1.0
 42
0.625
 43
3.75
 44
1.25
 73
     0
 74
     0
 78
     9
140
2.5
141
2.5
143
0.03937007874016
144
-1.0
147
0.625
171
     3
172
     1
178
   256
179
     1
271
     1
272
     1
274
     3
278
    44
284
     8
290
     1
340
55
341
82
342
82
1001
ACAD_DSTYLE_DIMJAG
1070
   388
1040
1.5
1001
ACAD_DSTYLE_DIMTALN
1070
   392
1070
     0
  0
ENDTAB
  0
TABLE
  2
BLOCK_RECORD
  5
1
330
0
100
AcDbSymbolTable
 70
    28
  0
BLOCK_RECORD
  5
70
330
1
100
AcDbSymbolTableRecord
100
AcDbBlockTableRecord
  2
*Model_Space
340
73
 70
     0
280
     1
281
     0
  0
BLOCK_RECORD
  5
6C
330
1
100
AcDbSymbolTableRecord
100
AcDbBlockTableRecord
  2
*Paper_Space
340
6F
 70
     0
280
     1
281
     0
  0
BLOCK_RECORD
  5
74
330
1
100
AcDbSymbolTableRecord
100
AcDbBlockTableRecord
  2
*Paper_Space0
340
77
 70
     0
280
     1
281
     0
  0
BLOCK_RECORD
  5
7E
330
1
100
AcDbSymbolTableRecord
100
AcDbBlockTableRecord
  2
_Oblique
340
0
102
{BLKREFS
331
F5
331
F6
331
102
331
103
331
10F
331
110
331
11D
331
11E
331
34D
331
34E
331
357
331
358
331
8B
331
8C
331
98
331
99
331
A6
331
A7
331
B4
331
B5
331
C1
331
C2
331
CE
331
CF
331
DB
331
DC
331
E8
331
E9
331
2A9
331
2AA
331
2B6
331
2B7
331
2C3
331
2C4
331
2CD
331
2CE
331
2DA
331
2DB
331
2F4
331
2F5
331
30E
331
30F
331
32A
331
32B
331
338
331
339
331
343
331
344
102
}
 70
     0
280
     1
281
     0
  0
BLOCK_RECORD
  5
82
330
1
100
AcDbSymbolTableRecord
100
AcDbBlockTableRecord
  2
_None
340
0
 70
     0
280
     1
281
     0
  0
BLOCK_RECORD
  5
85
330
1
100
AcDbSymbolTableRecord
100
AcDbBlockTableRecord
  2
*D3
340
0
 70
     0
280
     1
281
     0
  0
BLOCK_RECORD
  5
92
330
1
100
AcDbSymbolTableRecord
100
AcDbBlockTableRecord
  2
*D4
340
0
 70
     0
280
     1
281
     0
  0
BLOCK_RECORD
  5
9F
330
1
100
AcDbSymbolTableRecord
100
AcDbBlockTableRecord
  2
*D5
340
0
 70
     0
280
     1
281
     0
  0
BLOCK_RECORD
  5
AD
330
1
100
AcDbSymbolTableRecord
100
AcDbBlockTableRecord
  2
*D6
340
0
 70
     0
280
     1
281
     0
  0
BLOCK_RECORD
  5
BB
330
1
100
AcDbSymbolTableRecord
100
AcDbBlockTableRecord
  2
*D7
340
0
 70
     0
280
     1
281
     0
  0
BLOCK_RECORD
  5
C8
330
1
100
AcDbSymbolTableRecord
100
AcDbBlockTableRecord
  2
*D8
340
0
 70
     0
280
     1
281
     0
  0
BLOCK_RECORD
  5
D5
330
1
100
AcDbSymbolTableRecord
100
AcDbBlockTableRecord
  2
*D9
340
0
 70
     0
280
     1
281
     0
  0
BLOCK_RECORD
  5
E2
330
1
100
AcDbSymbolTableRecord
100
AcDbBlockTableRecord
  2
*D10
340
0
 70
     0
280
     1
281
     0
  0
BLOCK_RECORD
  5
EF
330
1
100
AcDbSymbolTableRecord
100
AcDbBlockTableRecord
  2
*D11
340
0
 70
     0
280
     1
281
     0
  0
BLOCK_RECORD
  5
FC
330
1
100
AcDbSymbolTableRecord
100
AcDbBlockTableRecord
  2
*D12
340
0
 70
     0
280
     1
281
     0
  0
BLOCK_RECORD
  5
109
330
1
100
AcDbSymbolTableRecord
100
AcDbBlockTableRecord
  2
*D13
340
0
 70
     0
280
     1
281
     0
  0
BLOCK_RECORD
  5
116
330
1
100
AcDbSymbolTableRecord
100
AcDbBlockTableRecord
  2
*D14
340
0
 70
     0
280
     1
281
     0
  0
BLOCK_RECORD
  5
28B
330
1
100
AcDbSymbolTableRecord
100
AcDbBlockTableRecord
  2
*D16
340
0
 70
     0
280
     1
281
     0
  0
BLOCK_RECORD
  5
298
330
1
100
AcDbSymbolTableRecord
100
AcDbBlockTableRecord
  2
*D17
340
0
 70
     0
280
     1
281
     0
  0
BLOCK_RECORD
  5
2AF
330
1
100
AcDbSymbolTableRecord
100
AcDbBlockTableRecord
  2
*D18
340
0
 70
     0
280
     1
281
     0
  0
BLOCK_RECORD
  5
2BC
330
1
100
AcDbSymbolTableRecord
100
AcDbBlockTableRecord
  2
*D19
340
0
 70
     0
280
     1
281
     0
  0
BLOCK_RECORD
  5
2D3
330
1
100
AcDbSymbolTableRecord
100
AcDbBlockTableRecord
  2
*D20
340
0
 70
     0
280
     1
281
     0
  0
BLOCK_RECORD
  5
2E0
330
1
100
AcDbSymbolTableRecord
100
AcDbBlockTableRecord
  2
*D21
340
0
 70
     0
280
     1
281
     0
  0
BLOCK_RECORD
  5
2ED
330
1
100
AcDbSymbolTableRecord
100
AcDbBlockTableRecord
  2
*D22
340
0
 70
     0
280
     1
281
     0
  0
BLOCK_RECORD
  5
2FA
330
1
100
AcDbSymbolTableRecord
100
AcDbBlockTableRecord
  2
*D23
340
0
 70
     0
280
     1
281
     0
  0
BLOCK_RECORD
  5
307
330
1
100
AcDbSymbolTableRecord
100
AcDbBlockTableRecord
  2
*D24
340
0
 70
     0
280
     1
281
     0
  0
BLOCK_RECORD
  5
314
330
1
100
AcDbSymbolTableRecord
100
AcDbBlockTableRecord
  2
*D25
340
0
 70
     0
280
     1
281
     0
  0
BLOCK_RECORD
  5
322
330
1
100
AcDbSymbolTableRecord
100
AcDbBlockTableRecord
  2
*D26
340
0
 70
     0
280
     1
281
     0
  0
BLOCK_RECORD
  5
330
330
1
100
AcDbSymbolTableRecord
100
AcDbBlockTableRecord
  2
*D27
340
0
 70
     0
280
     1
281
     0
  0
ENDTAB
  0
ENDSEC
  0
SECTION
  2
BLOCKS
  0
BLOCK
  5
71
330
70
100
AcDbEntity
  8
0
100
AcDbBlockBegin
  2
*Model_Space
 70
     0
 10
0.0
 20
0.0
 30
0.0
  3
*Model_Space
  1

  0
ENDBLK
  5
72
330
70
100
AcDbEntity
  8
0
100
AcDbBlockEnd
  0
BLOCK
  5
6D
330
6C
100
AcDbEntity
 67
     1
  8
0
100
AcDbBlockBegin
  2
*Paper_Space
 70
     0
 10
0.0
 20
0.0
 30
0.0
  3
*Paper_Space
  1

  0
ENDBLK
  5
6E
330
6C
100
AcDbEntity
 67
     1
  8
0
100
AcDbBlockEnd
  0
BLOCK
  5
75
330
74
100
AcDbEntity
 67
     1
  8
0
100
AcDbBlockBegin
  2
*Paper_Space0
 70
     0
 10
0.0
 20
0.0
 30
0.0
  3
*Paper_Space0
  1

  0
ENDBLK
  5
76
330
74
100
AcDbEntity
 67
     1
  8
0
100
AcDbBlockEnd
  0
BLOCK
  5
7F
330
7E
100
AcDbEntity
  8
0
100
AcDbBlockBegin
  2
_Oblique
 70
     0
 10
0.0
 20
0.0
 30
0.0
  3
_Oblique
  1

  0
LINE
  5
80
330
7E
100
AcDbEntity
  8
0
  6
ByBlock
 62
     0
370
    -2
100
AcDbLine
 10
-0.5
 20
-0.5
 30
0.0
 11
0.5
 21
0.5
 31
0.0
  0
ENDBLK
  5
81
330
7E
100
AcDbEntity
  8
0
100
AcDbBlockEnd
  0
BLOCK
  5
83
330
82
100
AcDbEntity
  8
0
 62
     1
100
AcDbBlockBegin
  2
_None
 70
     0
 10
0.0
 20
0.0
 30
0.0
  3
_None
  1

  0
ENDBLK
  5
84
330
82
100
AcDbEntity
  8
0
 62
     1
100
AcDbBlockEnd
  0
BLOCK
  5
86
330
85
100
AcDbEntity
  8
0
 62
     0
100
AcDbBlockBegin
  2
*D3
 70
     1
 10
0.0
 20
0.0
 30
0.0
  3
*D3
  1

  0
LINE
  5
87
330
85
100
AcDbEntity
  8
0
 62
     0
440
 16777216
370
    -2
100
AcDbLine
 10
1187056.574748409
 20
265013.7680711817
 30
0.0
 11
1187056.574748409
 21
265058.7680711817
 31
0.0
  0
LINE
  5
88
330
85
100
AcDbEntity
  8
0
 62
     0
440
 16777216
370
    -2
100
AcDbLine
 10
1188109.074748409
 20
265013.7680711817
 30
0.0
 11
1188109.074748409
 21
265058.7680711817
 31
0.0
  0
LINE
  5
89
330
85
100
AcDbEntity
  8
0
 62
     0
440
 16777216
370
    -2
100
AcDbLine
 10
1187056.574748409
 20
265033.7680711817
 30
0.0
 11
1187455.616890786
 21
265033.7680711817
 31
0.0
  0
LINE
  5
8A
330
85
100
AcDbEntity
  8
0
 62
     0
440
 16777216
370
    -2
100
AcDbLine
 10
1188109.074748409
 20
265033.7680711817
 30
0.0
 11
1187710.032606031
 21
265033.7680711817
 31
0.0
  0
INSERT
  5
8B
330
85
100
AcDbEntity
  8
0
 62
     0
440
 16777216
370
    -2
100
AcDbBlockReference
  2
_Oblique
 10
1187056.574748409
 20
265033.7680711817
 30
0.0
 41
30.0
 42
30.0
 43
30.0
 50
180.0
  0
INSERT
  5
8C
330
85
100
AcDbEntity
  8
0
 62
     0
440
 16777216
370
    -2
100
AcDbBlockReference
  2
_Oblique
 10
1188109.074748409
 20
265033.7680711817
 30
0.0
 41
30.0
 42
30.0
 43
30.0
  0
MTEXT
  5
8D
330
85
100
AcDbEntity
  8
0
 62
     0
440
 16777216
100
AcDbMText
 10
1187582.824748409
 20
265033.7680711817
 30
0.0
 40
50.0
 41
0.0
 46
0.0
 71
     5
 72
     1
  1
1052,5
 73
     1
 44
1.0
  0
POINT
  5
8E
330
85
100
AcDbEntity
  8
Defpoints
 62
     0
440
 16777216
100
AcDbPoint
 10
1187056.574748409
 20
264911.5988153063
 30
0.0
  0
POINT
  5
8F
330
85
100
AcDbEntity
  8
Defpoints
 62
     0
440
 16777216
100
AcDbPoint
 10
1188109.074748409
 20
264911.5988153063
 30
0.0
  0
POINT
  5
90
330
85
100
AcDbEntity
  8
Defpoints
 62
     0
440
 16777216
100
AcDbPoint
 10
1188109.074748409
 20
265033.7680711817
 30
0.0
  0
ENDBLK
  5
91
330
85
100
AcDbEntity
  8
0
 62
     0
100
AcDbBlockEnd
  0
BLOCK
  5
93
330
92
100
AcDbEntity
  8
0
 62
     0
100
AcDbBlockBegin
  2
*D4
 70
     1
 10
0.0
 20
0.0
 30
0.0
  3
*D4
  1

  0
LINE
  5
94
330
92
100
AcDbEntity
  8
A-DIMS-INSD
 62
     0
440
 16777216
370
    -2
100
AcDbLine
 10
1188117.072917105
 20
265013.7680711817
 30
0.0
 11
1188117.072917105
 21
265058.7680711817
 31
0.0
  0
LINE
  5
95
330
92
100
AcDbEntity
  8
A-DIMS-INSD
 62
     0
440
 16777216
370
    -2
100
AcDbLine
 10
1189169.574748409
 20
265013.7680711817
 30
0.0
 11
1189169.574748409
 21
265058.7680711817
 31
0.0
  0
LINE
  5
96
330
92
100
AcDbEntity
  8
A-DIMS-INSD
 62
     0
440
 16777216
370
    -2
100
AcDbLine
 10
1188117.072917105
 20
265033.7680711817
 30
0.0
 11
1188516.115975134
 21
265033.7680711817
 31
0.0
  0
LINE
  5
97
330
92
100
AcDbEntity
  8
A-DIMS-INSD
 62
     0
440
 16777216
370
    -2
100
AcDbLine
 10
1189169.574748409
 20
265033.7680711817
 30
0.0
 11
1188770.531690379
 21
265033.7680711817
 31
0.0
  0
INSERT
  5
98
330
92
100
AcDbEntity
  8
A-DIMS-INSD
 62
     0
440
 16777216
370
    -2
100
AcDbBlockReference
  2
_Oblique
 10
1188117.072917105
 20
265033.7680711817
 30
0.0
 41
30.0
 42
30.0
 43
30.0
 50
180.0
  0
INSERT
  5
99
330
92
100
AcDbEntity
  8
A-DIMS-INSD
 62
     0
440
 16777216
370
    -2
100
AcDbBlockReference
  2
_Oblique
 10
1189169.574748409
 20
265033.7680711817
 30
0.0
 41
30.0
 42
30.0
 43
30.0
  0
MTEXT
  5
9A
330
92
100
AcDbEntity
  8
A-DIMS-INSD
 62
     0
440
 16777216
100
AcDbMText
 10
1188643.323832757
 20
265033.7680711817
 30
0.0
 40
50.0
 41
0.0
 46
0.0
 71
     5
 72
     1
  1
1052,5
 73
     1
 44
1.0
  0
POINT
  5
9B
330
92
100
AcDbEntity
  8
Defpoints
 62
     0
440
 16777216
100
AcDbPoint
 10
1188117.072917105
 20
264910.5238153064
 30
0.0
  0
POINT
  5
9C
330
92
100
AcDbEntity
  8
Defpoints
 62
     0
440
 16777216
100
AcDbPoint
 10
1189169.574748409
 20
264911.0799072887
 30
0.0
  0
POINT
  5
9D
330
92
100
AcDbEntity
  8
Defpoints
 62
     0
440
 16777216
100
AcDbPoint
 10
1189169.574748409
 20
265033.7680711817
 30
0.0
  0
ENDBLK
  5
9E
330
92
100
AcDbEntity
  8
0
 62
     0
100
AcDbBlockEnd
  0
BLOCK
  5
A0
330
9F
100
AcDbEntity
  8
0
 62
     0
100
AcDbBlockBegin
  2
*D5
 70
     1
 10
0.0
 20
0.0
 30
0.0
  3
*D5
  1

  0
LINE
  5
A1
330
9F
100
AcDbEntity
  8
A-DIMS-INSD
 62
     0
440
 16777216
370
    -2
100
AcDbLine
 10
1188109.074748409
 20
264767.4475801806
 30
0.0
 11
1188109.074748409
 21
264722.4475801806
 31
0.0
  0
LINE
  5
A2
330
9F
100
AcDbEntity
  8
A-DIMS-INSD
 62
     0
440
 16777216
370
    -2
100
AcDbLine
 10
1188117.072917105
 20
264767.4475801806
 30
0.0
 11
1188117.072917105
 21
264722.4475801806
 31
0.0
  0
LINE
  5
A3
330
9F
100
AcDbEntity
  8
A-DIMS-INSD
 62
     0
440
 16777216
370
    -2
100
AcDbLine
 10
1188109.074748409
 20
264747.4475801806
 30
0.0
 11
1188079.074748409
 21
264747.4475801806
 31
0.0
  0
LINE
  5
A4
330
9F
100
AcDbEntity
  8
A-DIMS-INSD
 62
     0
440
 16777216
370
    -2
100
AcDbLine
 10
1188117.072917105
 20
264747.4475801806
 30
0.0
 11
1188177.072917105
 21
264747.4475801806
 31
0.0
  0
LINE
  5
A5
330
9F
100
AcDbEntity
  8
A-DIMS-INSD
 62
     0
440
 16777216
370
    -2
100
AcDbLine
 10
1188109.074748409
 20
264747.4475801806
 30
0.0
 11
1188117.072917105
 21
264747.4475801806
 31
0.0
  0
INSERT
  5
A6
330
9F
100
AcDbEntity
  8
A-DIMS-INSD
 62
     0
440
 16777216
370
    -2
100
AcDbBlockReference
  2
_Oblique
 10
1188109.074748409
 20
264747.4475801806
 30
0.0
 41
30.0
 42
30.0
 43
30.0
  0
INSERT
  5
A7
330
9F
100
AcDbEntity
  8
A-DIMS-INSD
 62
     0
440
 16777216
370
    -2
100
AcDbBlockReference
  2
_Oblique
 10
1188117.072917105
 20
264747.4475801806
 30
0.0
 41
30.0
 42
30.0
 43
30.0
 50
180.0
  0
MTEXT
  5
A8
330
9F
100
AcDbEntity
  8
A-DIMS-INSD
 62
     0
440
 16777216
100
AcDbMText
 10
1188207.336516836
 20
264747.4475801806
 30
0.0
 40
50.0
 41
0.0
 46
0.0
 71
     5
 72
     1
  1
8
 73
     1
 44
1.0
  0
POINT
  5
A9
330
9F
100
AcDbEntity
  8
Defpoints
 62
     0
440
 16777216
100
AcDbPoint
 10
1188109.074748409
 20
264873.6348914165
 30
0.0
  0
POINT
  5
AA
330
9F
100
AcDbEntity
  8
Defpoints
 62
     0
440
 16777216
100
AcDbPoint
 10
1188117.072917105
 20
264873.6348914165
 30
0.0
  0
POINT
  5
AB
330
9F
100
AcDbEntity
  8
Defpoints
 62
     0
440
 16777216
100
AcDbPoint
 10
1188117.072917105
 20
264747.4475801806
 30
0.0
  0
ENDBLK
  5
AC
330
9F
100
AcDbEntity
  8
0
 62
     0
100
AcDbBlockEnd
  0
BLOCK
  5
AE
330
AD
100
AcDbEntity
  8
0
 62
     0
100
AcDbBlockBegin
  2
*D6
 70
     1
 10
0.0
 20
0.0
 30
0.0
  3
*D6
  1

  0
LINE
  5
AF
330
AD
100
AcDbEntity
  8
A-DIMS-INSD
 62
     0
440
 16777216
370
    -2
100
AcDbLine
 10
1189169.574748409
 20
264874.4478072753
 30
0.0
 11
1189169.574748409
 21
264849.4478072752
 31
0.0
  0
LINE
  5
B0
330
AD
100
AcDbEntity
  8
A-DIMS-INSD
 62
     0
440
 16777216
370
    -2
100
AcDbLine
 10
1189173.074748409
 20
264874.4478072753
 30
0.0
 11
1189173.074748409
 21
264849.4478072752
 31
0.0
  0
LINE
  5
B1
330
AD
100
AcDbEntity
  8
A-DIMS-INSD
 62
     0
440
 16777216
370
    -2
100
AcDbLine
 10
1189169.574748409
 20
264874.4478072753
 30
0.0
 11
1189139.574748409
 21
264874.4478072753
 31
0.0
  0
LINE
  5
B2
330
AD
100
AcDbEntity
  8
A-DIMS-INSD
 62
     0
440
 16777216
370
    -2
100
AcDbLine
 10
1189173.074748409
 20
264874.4478072753
 30
0.0
 11
1189233.074748409
 21
264874.4478072753
 31
0.0
  0
LINE
  5
B3
330
AD
100
AcDbEntity
  8
A-DIMS-INSD
 62
     0
440
 16777216
370
    -2
100
AcDbLine
 10
1189169.574748409
 20
264874.4478072753
 30
0.0
 11
1189173.074748409
 21
264874.4478072753
 31
0.0
  0
INSERT
  5
B4
330
AD
100
AcDbEntity
  8
A-DIMS-INSD
 62
     0
440
 16777216
370
    -2
100
AcDbBlockReference
  2
_Oblique
 10
1189169.574748409
 20
264874.4478072753
 30
0.0
 41
30.0
 42
30.0
 43
30.0
  0
INSERT
  5
B5
330
AD
100
AcDbEntity
  8
A-DIMS-INSD
 62
     0
440
 16777216
370
    -2
100
AcDbBlockReference
  2
_Oblique
 10
1189173.074748409
 20
264874.4478072753
 30
0.0
 41
30.0
 42
30.0
 43
30.0
 50
180.0
  0
MTEXT
  5
B6
330
AD
100
AcDbEntity
  8
A-DIMS-INSD
 62
     0
440
 16777216
100
AcDbMText
 10
1189296.565346125
 20
264874.4478072753
 30
0.0
 40
50.0
 41
0.0
 46
0.0
 71
     5
 72
     1
  1
3,5
 73
     1
 44
1.0
  0
POINT
  5
B7
330
AD
100
AcDbEntity
  8
Defpoints
 62
     0
440
 16777216
100
AcDbPoint
 10
1189169.574748409
 20
264877.0409833988
 30
0.0
  0
POINT
  5
B8
330
AD
100
AcDbEntity
  8
Defpoints
 62
     0
440
 16777216
100
AcDbPoint
 10
1189173.074748409
 20
264877.0409833988
 30
0.0
  0
POINT
  5
B9
330
AD
100
AcDbEntity
  8
Defpoints
 62
     0
440
 16777216
100
AcDbPoint
 10
1189173.074748409
 20
264874.4478072753
 30
0.0
  0
ENDBLK
  5
BA
330
AD
100
AcDbEntity
  8
0
 62
     0
100
AcDbBlockEnd
  0
BLOCK
  5
BC
330
BB
100
AcDbEntity
  8
0
 62
     0
100
AcDbBlockBegin
  2
*D7
 70
     1
 10
0.0
 20
0.0
 30
0.0
  3
*D7
  1

  0
LINE
  5
BD
330
BB
100
AcDbEntity
  8
0
 62
     0
440
 16777216
370
    -2
100
AcDbLine
 10
1187013.074748409
 20
265289.3014395479
 30
0.0
 11
1187013.074748409
 21
265334.3014395479
 31
0.0
  0
LINE
  5
BE
330
BB
100
AcDbEntity
  8
0
 62
     0
440
 16777216
370
    -2
100
AcDbLine
 10
1189213.074748409
 20
265289.3014395479
 30
0.0
 11
1189213.074748409
 21
265334.3014395479
 31
0.0
  0
LINE
  5
BF
330
BB
100
AcDbEntity
  8
0
 62
     0
440
 16777216
370
    -2
100
AcDbLine
 10
1187013.074748409
 20
265309.3014395479
 30
0.0
 11
1188018.103291055
 21
265309.3014395479
 31
0.0
  0
LINE
  5
C0
330
BB
100
AcDbEntity
  8
0
 62
     0
440
 16777216
370
    -2
100
AcDbLine
 10
1189213.074748409
 20
265309.3014395479
 30
0.0
 11
1188208.046205763
 21
265309.3014395479
 31
0.0
  0
INSERT
  5
C1
330
BB
100
AcDbEntity
  8
0
 62
     0
440
 16777216
370
    -2
100
AcDbBlockReference
  2
_Oblique
 10
1187013.074748409
 20
265309.3014395479
 30
0.0
 41
30.0
 42
30.0
 43
30.0
 50
180.0
  0
INSERT
  5
C2
330
BB
100
AcDbEntity
  8
0
 62
     0
440
 16777216
370
    -2
100
AcDbBlockReference
  2
_Oblique
 10
1189213.074748409
 20
265309.3014395479
 30
0.0
 41
30.0
 42
30.0
 43
30.0
  0
MTEXT
  5
C3
330
BB
100
AcDbEntity
  8
0
 62
     0
440
 16777216
100
AcDbMText
 10
1188113.074748409
 20
265309.3014395479
 30
0.0
 40
50.0
 41
0.0
 46
0.0
 71
     5
 72
     1
  1
2200
 73
     1
 44
1.0
  0
POINT
  5
C4
330
BB
100
AcDbEntity
  8
Defpoints
 62
     0
440
 16777216
100
AcDbPoint
 10
1187013.074748409
 20
264890.5598914164
 30
0.0
  0
POINT
  5
C5
330
BB
100
AcDbEntity
  8
Defpoints
 62
     0
440
 16777216
100
AcDbPoint
 10
1189213.074748409
 20
264890.5598914164
 30
0.0
  0
POINT
  5
C6
330
BB
100
AcDbEntity
  8
Defpoints
 62
     0
440
 16777216
100
AcDbPoint
 10
1189213.074748409
 20
265309.3014395479
 30
0.0
  0
ENDBLK
  5
C7
330
BB
100
AcDbEntity
  8
0
 62
     0
100
AcDbBlockEnd
  0
BLOCK
  5
C9
330
C8
100
AcDbEntity
  8
0
 62
     0
100
AcDbBlockBegin
  2
*D8
 70
     1
 10
0.0
 20
0.0
 30
0.0
  3
*D8
  1

  0
LINE
  5
CA
330
C8
100
AcDbEntity
  8
0
 62
     0
440
 16777216
370
    -2
100
AcDbLine
 10
1189173.074748409
 20
264979.7291472919
 30
0.0
 11
1189173.074748409
 21
265024.7291472919
 31
0.0
  0
LINE
  5
CB
330
C8
100
AcDbEntity
  8
0
 62
     0
440
 16777216
370
    -2
100
AcDbLine
 10
1189213.074748409
 20
264979.7291472919
 30
0.0
 11
1189213.074748409
 21
265024.7291472919
 31
0.0
  0
LINE
  5
CC
330
C8
100
AcDbEntity
  8
0
 62
     0
440
 16777216
370
    -2
100
AcDbLine
 10
1189173.074748409
 20
264999.7291472919
 30
0.0
 11
1189213.074748409
 21
264999.7291472919
 31
0.0
  0
LINE
  5
CD
330
C8
100
AcDbEntity
  8
0
 62
     0
440
 16777216
370
    -2
100
AcDbLine
 10
1189213.074748409
 20
264999.7291472919
 30
0.0
 11
1189243.074748409
 21
264999.7291472919
 31
0.0
  0
INSERT
  5
CE
330
C8
100
AcDbEntity
  8
0
 62
     0
440
 16777216
370
    -2
100
AcDbBlockReference
  2
_Oblique
 10
1189173.074748409
 20
264999.7291472919
 30
0.0
 41
30.0
 42
30.0
 43
30.0
 50
180.0
  0
INSERT
  5
CF
330
C8
100
AcDbEntity
  8
0
 62
     0
440
 16777216
370
    -2
100
AcDbBlockReference
  2
_Oblique
 10
1189213.074748409
 20
264999.7291472919
 30
0.0
 41
30.0
 42
30.0
 43
30.0
  0
MTEXT
  5
D0
330
C8
100
AcDbEntity
  8
0
 62
     0
440
 16777216
100
AcDbMText
 10
1189295.73593041
 20
264999.7291472919
 30
0.0
 40
50.0
 41
0.0
 46
0.0
 71
     5
 72
     1
  1
40
 73
     1
 44
1.0
  0
POINT
  5
D1
330
C8
100
AcDbEntity
  8
Defpoints
 62
     0
440
 16777216
100
AcDbPoint
 10
1189173.074748409
 20
264896.5598914164
 30
0.0
  0
POINT
  5
D2
330
C8
100
AcDbEntity
  8
Defpoints
 62
     0
440
 16777216
100
AcDbPoint
 10
1189213.074748409
 20
264896.5598914164
 30
0.0
  0
POINT
  5
D3
330
C8
100
AcDbEntity
  8
Defpoints
 62
     0
440
 16777216
100
AcDbPoint
 10
1189213.074748409
 20
264999.7291472919
 30
0.0
  0
ENDBLK
  5
D4
330
C8
100
AcDbEntity
  8
0
 62
     0
100
AcDbBlockEnd
  0
BLOCK
  5
D6
330
D5
100
AcDbEntity
  8
0
 62
     0
100
AcDbBlockBegin
  2
*D9
 70
     1
 10
0.0
 20
0.0
 30
0.0
  3
*D9
  1

  0
LINE
  5
D7
330
D5
100
AcDbEntity
  8
A-DIMS-INSD
 62
     0
440
 16777216
370
    -2
100
AcDbLine
 10
1189417.103952195
 20
264352.4590420473
 30
0.0
 11
1189417.103952195
 21
264397.4590420473
 31
0.0
  0
LINE
  5
D8
330
D5
100
AcDbEntity
  8
A-DIMS-INSD
 62
     0
440
 16777216
370
    -2
100
AcDbLine
 10
1190493.423952195
 20
264352.4590420473
 30
0.0
 11
1190493.423952195
 21
264397.4590420473
 31
0.0
  0
LINE
  5
D9
330
D5
100
AcDbEntity
  8
A-DIMS-INSD
 62
     0
440
 16777216
370
    -2
100
AcDbLine
 10
1189417.103952195
 20
264372.4590420473
 30
0.0
 11
1189805.994308139
 21
264372.4590420473
 31
0.0
  0
LINE
  5
DA
330
D5
100
AcDbEntity
  8
A-DIMS-INSD
 62
     0
440
 16777216
370
    -2
100
AcDbLine
 10
1190493.423952195
 20
264372.4590420473
 30
0.0
 11
1190104.533596251
 21
264372.4590420473
 31
0.0
  0
INSERT
  5
DB
330
D5
100
AcDbEntity
  8
A-DIMS-INSD
 62
     0
440
 16777216
370
    -2
100
AcDbBlockReference
  2
_Oblique
 10
1189417.103952195
 20
264372.4590420473
 30
0.0
 41
30.0
 42
30.0
 43
30.0
 50
180.0
  0
INSERT
  5
DC
330
D5
100
AcDbEntity
  8
A-DIMS-INSD
 62
     0
440
 16777216
370
    -2
100
AcDbBlockReference
  2
_Oblique
 10
1190493.423952195
 20
264372.4590420473
 30
0.0
 41
30.0
 42
30.0
 43
30.0
  0
MTEXT
  5
DD
330
D5
100
AcDbEntity
  8
A-DIMS-INSD
 62
     0
440
 16777216
100
AcDbMText
 10
1189955.263952195
 20
264372.4590420473
 30
0.0
 40
50.0
 41
0.0
 46
0.0
 71
     5
 72
     1
  1
1076,32
 73
     1
 44
1.0
  0
POINT
  5
DE
330
D5
100
AcDbEntity
  8
Defpoints
 62
     0
440
 16777216
100
AcDbPoint
 10
1189417.103952195
 20
264305.7967114568
 30
0.0
  0
POINT
  5
DF
330
D5
100
AcDbEntity
  8
Defpoints
 62
     0
440
 16777216
100
AcDbPoint
 10
1190493.423952195
 20
264300.9967114567
 30
0.0
  0
POINT
  5
E0
330
D5
100
AcDbEntity
  8
Defpoints
 62
     0
440
 16777216
100
AcDbPoint
 10
1190493.423952195
 20
264372.4590420473
 30
0.0
  0
ENDBLK
  5
E1
330
D5
100
AcDbEntity
  8
0
 62
     0
100
AcDbBlockEnd
  0
BLOCK
  5
E3
330
E2
100
AcDbEntity
  8
0
 62
     0
100
AcDbBlockBegin
  2
*D10
 70
     1
 10
0.0
 20
0.0
 30
0.0
  3
*D10
  1

  0
LINE
  5
E4
330
E2
100
AcDbEntity
  8
A-DIMS-INSD
 62
     0
440
 16777216
370
    -2
100
AcDbLine
 10
1188166.38210651
 20
264342.6797171122
 30
0.0
 11
1188166.38210651
 21
264387.6797171123
 31
0.0
  0
LINE
  5
E5
330
E2
100
AcDbEntity
  8
A-DIMS-INSD
 62
     0
440
 16777216
370
    -2
100
AcDbLine
 10
1189217.894296484
 20
264342.6797171122
 30
0.0
 11
1189217.894296484
 21
264387.6797171123
 31
0.0
  0
LINE
  5
E6
330
E2
100
AcDbEntity
  8
A-DIMS-INSD
 62
     0
440
 16777216
370
    -2
100
AcDbLine
 10
1188166.38210651
 20
264362.6797171123
 30
0.0
 11
1188544.295689744
 21
264362.6797171123
 31
0.0
  0
LINE
  5
E7
330
E2
100
AcDbEntity
  8
A-DIMS-INSD
 62
     0
440
 16777216
370
    -2
100
AcDbLine
 10
1189217.894296484
 20
264362.6797171123
 30
0.0
 11
1188839.98071325
 21
264362.6797171123
 31
0.0
  0
INSERT
  5
E8
330
E2
100
AcDbEntity
  8
A-DIMS-INSD
 62
     0
440
 16777216
370
    -2
100
AcDbBlockReference
  2
_Oblique
 10
1188166.38210651
 20
264362.6797171123
 30
0.0
 41
30.0
 42
30.0
 43
30.0
 50
180.0
  0
INSERT
  5
E9
330
E2
100
AcDbEntity
  8
A-DIMS-INSD
 62
     0
440
 16777216
370
    -2
100
AcDbBlockReference
  2
_Oblique
 10
1189217.894296484
 20
264362.6797171123
 30
0.0
 41
30.0
 42
30.0
 43
30.0
  0
MTEXT
  5
EA
330
E2
100
AcDbEntity
  8
A-DIMS-INSD
 62
     0
440
 16777216
100
AcDbMText
 10
1188692.138201497
 20
264362.6797171123
 30
0.0
 40
50.0
 41
0.0
 46
0.0
 71
     5
 72
     1
  1
1051,51
 73
     1
 44
1.0
  0
POINT
  5
EB
330
E2
100
AcDbEntity
  8
Defpoints
 62
     0
440
 16777216
100
AcDbPoint
 10
1188166.38210651
 20
264291.4313035358
 30
0.0
  0
POINT
  5
EC
330
E2
100
AcDbEntity
  8
Defpoints
 62
     0
440
 16777216
100
AcDbPoint
 10
1189217.894296484
 20
264291.0813035357
 30
0.0
  0
POINT
  5
ED
330
E2
100
AcDbEntity
  8
Defpoints
 62
     0
440
 16777216
100
AcDbPoint
 10
1189217.894296484
 20
264362.6797171123
 30
0.0
  0
ENDBLK
  5
EE
330
E2
100
AcDbEntity
  8
0
 62
     0
100
AcDbBlockEnd
  0
BLOCK
  5
F0
330
EF
100
AcDbEntity
  8
0
 62
     0
100
AcDbBlockBegin
  2
*D11
 70
     1
 10
0.0
 20
0.0
 30
0.0
  3
*D11
  1

  0
LINE
  5
F1
330
EF
100
AcDbEntity
  8
A-DIMS-INSD
 62
     0
440
 16777216
370
    -2
100
AcDbLine
 10
1186803.938641041
 20
264345.7604851036
 30
0.0
 11
1186803.938641041
 21
264390.7604851036
 31
0.0
  0
LINE
  5
F2
330
EF
100
AcDbEntity
  8
A-DIMS-INSD
 62
     0
440
 16777216
370
    -2
100
AcDbLine
 10
1187880.838468762
 20
264345.7604851036
 30
0.0
 11
1187880.838468762
 21
264390.7604851036
 31
0.0
  0
LINE
  5
F3
330
EF
100
AcDbEntity
  8
A-DIMS-INSD
 62
     0
440
 16777216
370
    -2
100
AcDbLine
 10
1186803.938641041
 20
264365.7604851036
 30
0.0
 11
1187215.012799361
 21
264365.7604851036
 31
0.0
  0
LINE
  5
F4
330
EF
100
AcDbEntity
  8
A-DIMS-INSD
 62
     0
440
 16777216
370
    -2
100
AcDbLine
 10
1187880.838468762
 20
264365.7604851036
 30
0.0
 11
1187469.764310442
 21
264365.7604851036
 31
0.0
  0
INSERT
  5
F5
330
EF
100
AcDbEntity
  8
A-DIMS-INSD
 62
     0
440
 16777216
370
    -2
100
AcDbBlockReference
  2
_Oblique
 10
1186803.938641041
 20
264365.7604851036
 30
0.0
 41
30.0
 42
30.0
 43
30.0
 50
180.0
  0
INSERT
  5
F6
330
EF
100
AcDbEntity
  8
A-DIMS-INSD
 62
     0
440
 16777216
370
    -2
100
AcDbBlockReference
  2
_Oblique
 10
1187880.838468762
 20
264365.7604851036
 30
0.0
 41
30.0
 42
30.0
 43
30.0
  0
MTEXT
  5
F7
330
EF
100
AcDbEntity
  8
A-DIMS-INSD
 62
     0
440
 16777216
100
AcDbMText
 10
1187342.388554901
 20
264365.7604851036
 30
0.0
 40
50.0
 41
0.0
 46
0.0
 71
     5
 72
     1
  1
1076,9
 73
     1
 44
1.0
  0
POINT
  5
F8
330
EF
100
AcDbEntity
  8
Defpoints
 62
     0
440
 16777216
100
AcDbPoint
 10
1186803.938641041
 20
264298.3307913469
 30
0.0
  0
POINT
  5
F9
330
EF
100
AcDbEntity
  8
Defpoints
 62
     0
440
 16777216
100
AcDbPoint
 10
1187880.838468762
 20
264293.8807913469
 30
0.0
  0
POINT
  5
FA
330
EF
100
AcDbEntity
  8
Defpoints
 62
     0
440
 16777216
100
AcDbPoint
 10
1187880.838468762
 20
264365.7604851036
 30
0.0
  0
ENDBLK
  5
FB
330
EF
100
AcDbEntity
  8
0
 62
     0
100
AcDbBlockEnd
  0
BLOCK
  5
FD
330
FC
100
AcDbEntity
  8
0
 62
     0
100
AcDbBlockBegin
  2
*D12
 70
     1
 10
0.0
 20
0.0
 30
0.0
  3
*D12
  1

  0
LINE
  5
FE
330
FC
100
AcDbEntity
  8
A-DIMS-INSD
 62
     0
440
 16777216
370
    -2
100
AcDbLine
 10
1185442.556376212
 20
264360.4817887415
 30
0.0
 11
1185442.556376212
 21
264405.4817887415
 31
0.0
  0
LINE
  5
FF
330
FC
100
AcDbEntity
  8
A-DIMS-INSD
 62
     0
440
 16777216
370
    -2
100
AcDbLine
 10
1186495.061022005
 20
264360.4817887415
 30
0.0
 11
1186495.061022005
 21
264405.4817887415
 31
0.0
  0
LINE
  5
100
330
FC
100
AcDbEntity
  8
A-DIMS-INSD
 62
     0
440
 16777216
370
    -2
100
AcDbLine
 10
1185442.556376212
 20
264380.4817887415
 30
0.0
 11
1185841.600841486
 21
264380.4817887415
 31
0.0
  0
LINE
  5
101
330
FC
100
AcDbEntity
  8
A-DIMS-INSD
 62
     0
440
 16777216
370
    -2
100
AcDbLine
 10
1186495.061022005
 20
264380.4817887415
 30
0.0
 11
1186096.016556731
 21
264380.4817887415
 31
0.0
  0
INSERT
  5
102
330
FC
100
AcDbEntity
  8
A-DIMS-INSD
 62
     0
440
 16777216
370
    -2
100
AcDbBlockReference
  2
_Oblique
 10
1185442.556376212
 20
264380.4817887415
 30
0.0
 41
30.0
 42
30.0
 43
30.0
 50
180.0
  0
INSERT
  5
103
330
FC
100
AcDbEntity
  8
A-DIMS-INSD
 62
     0
440
 16777216
370
    -2
100
AcDbBlockReference
  2
_Oblique
 10
1186495.061022005
 20
264380.4817887415
 30
0.0
 41
30.0
 42
30.0
 43
30.0
  0
MTEXT
  5
104
330
FC
100
AcDbEntity
  8
A-DIMS-INSD
 62
     0
440
 16777216
100
AcDbMText
 10
1185968.808699108
 20
264380.4817887415
 30
0.0
 40
50.0
 41
0.0
 46
0.0
 71
     5
 72
     1
  1
1052,5
 73
     1
 44
1.0
  0
POINT
  5
105
330
FC
100
AcDbEntity
  8
Defpoints
 62
     0
440
 16777216
100
AcDbPoint
 10
1185442.556376212
 20
264311.8661143672
 30
0.0
  0
POINT
  5
106
330
FC
100
AcDbEntity
  8
Defpoints
 62
     0
440
 16777216
100
AcDbPoint
 10
1186495.061022005
 20
264311.8661143672
 30
0.0
  0
POINT
  5
107
330
FC
100
AcDbEntity
  8
Defpoints
 62
     0
440
 16777216
100
AcDbPoint
 10
1186495.061022005
 20
264380.4817887415
 30
0.0
  0
ENDBLK
  5
108
330
FC
100
AcDbEntity
  8
0
 62
     0
100
AcDbBlockEnd
  0
BLOCK
  5
10A
330
109
100
AcDbEntity
  8
0
 62
     0
100
AcDbBlockBegin
  2
*D13
 70
     1
 10
0.0
 20
0.0
 30
0.0
  3
*D13
  1

  0
LINE
  5
10B
330
109
100
AcDbEntity
  8
0
 62
     0
440
 16777216
370
    -2
100
AcDbLine
 10
1187013.074748409
 20
265059.4344516937
 30
0.0
 11
1187013.074748409
 21
265104.4344516937
 31
0.0
  0
LINE
  5
10C
330
109
100
AcDbEntity
  8
0
 62
     0
440
 16777216
370
    -2
100
AcDbLine
 10
1187053.074748409
 20
265059.4344516937
 30
0.0
 11
1187053.074748409
 21
265104.4344516937
 31
0.0
  0
LINE
  5
10D
330
109
100
AcDbEntity
  8
0
 62
     0
440
 16777216
370
    -2
100
AcDbLine
 10
1187013.074748409
 20
265079.4344516937
 30
0.0
 11
1187053.074748409
 21
265079.4344516937
 31
0.0
  0
LINE
  5
10E
330
109
100
AcDbEntity
  8
0
 62
     0
440
 16777216
370
    -2
100
AcDbLine
 10
1187053.074748409
 20
265079.4344516937
 30
0.0
 11
1187083.074748409
 21
265079.4344516937
 31
0.0
  0
INSERT
  5
10F
330
109
100
AcDbEntity
  8
0
 62
     0
440
 16777216
370
    -2
100
AcDbBlockReference
  2
_Oblique
 10
1187013.074748409
 20
265079.4344516937
 30
0.0
 41
30.0
 42
30.0
 43
30.0
 50
180.0
  0
INSERT
  5
110
330
109
100
AcDbEntity
  8
0
 62
     0
440
 16777216
370
    -2
100
AcDbBlockReference
  2
_Oblique
 10
1187053.074748409
 20
265079.4344516937
 30
0.0
 41
30.0
 42
30.0
 43
30.0
  0
MTEXT
  5
111
330
109
100
AcDbEntity
  8
0
 62
     0
440
 16777216
100
AcDbMText
 10
1187135.73593041
 20
265079.4344516937
 30
0.0
 40
50.0
 41
0.0
 46
0.0
 71
     5
 72
     1
  1
40
 73
     1
 44
1.0
  0
POINT
  5
112
330
109
100
AcDbEntity
  8
Defpoints
 62
     0
440
 16777216
100
AcDbPoint
 10
1187013.074748409
 20
264890.5598914164
 30
0.0
  0
POINT
  5
113
330
109
100
AcDbEntity
  8
Defpoints
 62
     0
440
 16777216
100
AcDbPoint
 10
1187053.074748409
 20
264890.5598914164
 30
0.0
  0
POINT
  5
114
330
109
100
AcDbEntity
  8
Defpoints
 62
     0
440
 16777216
100
AcDbPoint
 10
1187053.074748409
 20
265079.4344516937
 30
0.0
  0
ENDBLK
  5
115
330
109
100
AcDbEntity
  8
0
 62
     0
100
AcDbBlockEnd
  0
BLOCK
  5
117
330
116
100
AcDbEntity
  8
0
 62
     0
100
AcDbBlockBegin
  2
*D14
 70
     1
 10
0.0
 20
0.0
 30
0.0
  3
*D14
  1

  0
LINE
  5
118
330
116
100
AcDbEntity
  8
A-DIMS-INSD
 62
     0
440
 16777216
370
    -2
100
AcDbLine
 10
1187056.574748409
 20
264866.8701166851
 30
0.0
 11
1187056.574748409
 21
264841.8701166851
 31
0.0
  0
LINE
  5
119
330
116
100
AcDbEntity
  8
A-DIMS-INSD
 62
     0
440
 16777216
370
    -2
100
AcDbLine
 10
1187053.074748409
 20
264866.8701166851
 30
0.0
 11
1187053.074748409
 21
264841.8701166851
 31
0.0
  0
LINE
  5
11A
330
116
100
AcDbEntity
  8
A-DIMS-INSD
 62
     0
440
 16777216
370
    -2
100
AcDbLine
 10
1187056.574748409
 20
264866.8701166851
 30
0.0
 11
1187086.574748409
 21
264866.8701166851
 31
0.0
  0
LINE
  5
11B
330
116
100
AcDbEntity
  8
A-DIMS-INSD
 62
     0
440
 16777216
370
    -2
100
AcDbLine
 10
1187053.074748409
 20
264866.8701166851
 30
0.0
 11
1186993.074748409
 21
264866.8701166851
 31
0.0
  0
LINE
  5
11C
330
116
100
AcDbEntity
  8
A-DIMS-INSD
 62
     0
440
 16777216
370
    -2
100
AcDbLine
 10
1187056.574748409
 20
264866.8701166851
 30
0.0
 11
1187053.074748409
 21
264866.8701166851
 31
0.0
  0
INSERT
  5
11D
330
116
100
AcDbEntity
  8
A-DIMS-INSD
 62
     0
440
 16777216
370
    -2
100
AcDbBlockReference
  2
_Oblique
 10
1187056.574748409
 20
264866.8701166851
 30
0.0
 41
30.0
 42
30.0
 43
30.0
 50
180.0
  0
INSERT
  5
11E
330
116
100
AcDbEntity
  8
A-DIMS-INSD
 62
     0
440
 16777216
370
    -2
100
AcDbBlockReference
  2
_Oblique
 10
1187053.074748409
 20
264866.8701166851
 30
0.0
 41
30.0
 42
30.0
 43
30.0
  0
MTEXT
  5
11F
330
116
100
AcDbEntity
  8
A-DIMS-INSD
 62
     0
440
 16777216
100
AcDbMText
 10
1186929.584150692
 20
264866.8701166851
 30
0.0
 40
50.0
 41
0.0
 46
0.0
 71
     5
 72
     1
  1
3,5
 73
     1
 44
1.0
  0
POINT
  5
120
330
116
100
AcDbEntity
  8
Defpoints
 62
     0
440
 16777216
100
AcDbPoint
 10
1187056.574748409
 20
264877.5598914165
 30
0.0
  0
POINT
  5
121
330
116
100
AcDbEntity
  8
Defpoints
 62
     0
440
 16777216
100
AcDbPoint
 10
1187053.074748409
 20
264877.5598914165
 30
0.0
  0
POINT
  5
122
330
116
100
AcDbEntity
  8
Defpoints
 62
     0
440
 16777216
100
AcDbPoint
 10
1187053.074748409
 20
264866.8701166851
 30
0.0
  0
ENDBLK
  5
123
330
116
100
AcDbEntity
  8
0
 62
     0
100
AcDbBlockEnd
  0
BLOCK
  5
28C
330
28B
100
AcDbEntity
  8
0
100
AcDbBlockBegin
  2
*D16
 70
     1
 10
0.0
 20
0.0
 30
0.0
  3
*D16
  1

  0
LINE
  5
2A5
330
28B
100
AcDbEntity
  8
A-DIMS-INSD
 62
     0
440
 16777216
370
    -2
100
AcDbLine
 10
2743.765323368833
 20
3182.032222719048
 30
0.0
 11
2743.765323368833
 21
3227.032222719048
 31
0.0
  0
LINE
  5
2A6
330
28B
100
AcDbEntity
  8
A-DIMS-INSD
 62
     0
440
 16777216
370
    -2
100
AcDbLine
 10
3796.267154673115
 20
3182.032222719048
 30
0.0
 11
3796.267154673115
 21
3227.032222719048
 31
0.0
  0
LINE
  5
2A7
330
28B
100
AcDbEntity
  8
A-DIMS-INSD
 62
     0
440
 16777216
370
    -2
100
AcDbLine
 10
2743.765323368833
 20
3202.032222719048
 30
0.0
 11
3140.849572354307
 21
3202.032222719048
 31
0.0
  0
LINE
  5
2A8
330
28B
100
AcDbEntity
  8
A-DIMS-INSD
 62
     0
440
 16777216
370
    -2
100
AcDbLine
 10
3796.267154673115
 20
3202.032222719048
 30
0.0
 11
3399.18290568764
 21
3202.032222719048
 31
0.0
  0
INSERT
  5
2A9
330
28B
100
AcDbEntity
  8
A-DIMS-INSD
 62
     0
440
 16777216
370
    -2
100
AcDbBlockReference
  2
_Oblique
 10
2743.765323368833
 20
3202.032222719048
 30
0.0
 41
30.0
 42
30.0
 43
30.0
 50
180.0
  0
INSERT
  5
2AA
330
28B
100
AcDbEntity
  8
A-DIMS-INSD
 62
     0
440
 16777216
370
    -2
100
AcDbBlockReference
  2
_Oblique
 10
3796.267154673115
 20
3202.032222719048
 30
0.0
 41
30.0
 42
30.0
 43
30.0
  0
MTEXT
  5
2AB
330
28B
100
AcDbEntity
  8
A-DIMS-INSD
 62
     0
440
 16777216
100
AcDbMText
 10
3270.016239020974
 20
3202.032222719048
 30
0.0
 40
50.0
 41
0.0
 46
0.0
 71
     5
 72
     1
  1
1052,5
 73
     1
 44
1.0
  0
POINT
  5
2AC
330
28B
100
AcDbEntity
  8
Defpoints
 62
     0
440
 16777216
100
AcDbPoint
 10
2743.765323368833
 20
3078.787966843695
 30
0.0
  0
POINT
  5
2AD
330
28B
100
AcDbEntity
  8
Defpoints
 62
     0
440
 16777216
100
AcDbPoint
 10
3796.267154673115
 20
3079.344058825984
 30
0.0
  0
POINT
  5
2AE
330
28B
100
AcDbEntity
  8
Defpoints
 62
     0
440
 16777216
100
AcDbPoint
 10
3796.267154673115
 20
3202.032222719048
 30
0.0
  0
ENDBLK
  5
28D
330
28B
100
AcDbEntity
  8
0
100
AcDbBlockEnd
  0
BLOCK
  5
299
330
298
100
AcDbEntity
  8
0
100
AcDbBlockBegin
  2
*D17
 70
     1
 10
0.0
 20
0.0
 30
0.0
  3
*D17
  1

  0
LINE
  5
2C9
330
298
100
AcDbEntity
  8
0
 62
     0
440
 16777216
370
    -2
100
AcDbLine
 10
1683.267154673347
 20
3182.032222719048
 30
0.0
 11
1683.267154673347
 21
3227.032222719048
 31
0.0
  0
LINE
  5
2CA
330
298
100
AcDbEntity
  8
0
 62
     0
440
 16777216
370
    -2
100
AcDbLine
 10
2735.767154673114
 20
3182.032222719048
 30
0.0
 11
2735.767154673114
 21
3227.032222719048
 31
0.0
  0
LINE
  5
2CB
330
298
100
AcDbEntity
  8
0
 62
     0
440
 16777216
370
    -2
100
AcDbLine
 10
1683.267154673347
 20
3202.032222719048
 30
0.0
 11
2080.350488006564
 21
3202.032222719048
 31
0.0
  0
LINE
  5
2CC
330
298
100
AcDbEntity
  8
0
 62
     0
440
 16777216
370
    -2
100
AcDbLine
 10
2735.767154673114
 20
3202.032222719048
 30
0.0
 11
2338.683821339897
 21
3202.032222719048
 31
0.0
  0
INSERT
  5
2CD
330
298
100
AcDbEntity
  8
0
 62
     0
440
 16777216
370
    -2
100
AcDbBlockReference
  2
_Oblique
 10
1683.267154673347
 20
3202.032222719048
 30
0.0
 41
30.0
 42
30.0
 43
30.0
 50
180.0
  0
INSERT
  5
2CE
330
298
100
AcDbEntity
  8
0
 62
     0
440
 16777216
370
    -2
100
AcDbBlockReference
  2
_Oblique
 10
2735.767154673114
 20
3202.032222719048
 30
0.0
 41
30.0
 42
30.0
 43
30.0
  0
MTEXT
  5
2CF
330
298
100
AcDbEntity
  8
0
 62
     0
440
 16777216
100
AcDbMText
 10
2209.517154673231
 20
3202.032222719048
 30
0.0
 40
50.0
 41
0.0
 46
0.0
 71
     5
 72
     1
  1
1052,5
 73
     1
 44
1.0
  0
POINT
  5
2D0
330
298
100
AcDbEntity
  8
Defpoints
 62
     0
440
 16777216
100
AcDbPoint
 10
1683.267154673347
 20
3079.862966843648
 30
0.0
  0
POINT
  5
2D1
330
298
100
AcDbEntity
  8
Defpoints
 62
     0
440
 16777216
100
AcDbPoint
 10
2735.767154673114
 20
3079.862966843648
 30
0.0
  0
POINT
  5
2D2
330
298
100
AcDbEntity
  8
Defpoints
 62
     0
440
 16777216
100
AcDbPoint
 10
2735.767154673114
 20
3202.032222719048
 30
0.0
  0
ENDBLK
  5
29A
330
298
100
AcDbEntity
  8
0
100
AcDbBlockEnd
  0
BLOCK
  5
2B0
330
2AF
100
AcDbEntity
  8
0
100
AcDbBlockBegin
  2
*D18
 70
     1
 10
0.0
 20
0.0
 30
0.0
  3
*D18
  1

  0
LINE
  5
2B2
330
2AF
100
AcDbEntity
  8
0
 62
     0
440
 16777216
370
    -2
100
AcDbLine
 10
1639.767154673114
 20
3227.698603230994
 30
0.0
 11
1639.767154673114
 21
3272.698603230995
 31
0.0
  0
LINE
  5
2B3
330
2AF
100
AcDbEntity
  8
0
 62
     0
440
 16777216
370
    -2
100
AcDbLine
 10
1679.767154673114
 20
3227.698603230994
 30
0.0
 11
1679.767154673114
 21
3272.698603230995
 31
0.0
  0
LINE
  5
2B4
330
2AF
100
AcDbEntity
  8
0
 62
     0
440
 16777216
370
    -2
100
AcDbLine
 10
1639.767154673114
 20
3247.698603230995
 30
0.0
 11
1679.767154673114
 21
3247.698603230995
 31
0.0
  0
LINE
  5
2B5
330
2AF
100
AcDbEntity
  8
0
 62
     0
440
 16777216
370
    -2
100
AcDbLine
 10
1679.767154673114
 20
3247.698603230995
 30
0.0
 11
1709.767154673114
 21
3247.698603230995
 31
0.0
  0
INSERT
  5
2B6
330
2AF
100
AcDbEntity
  8
0
 62
     0
440
 16777216
370
    -2
100
AcDbBlockReference
  2
_Oblique
 10
1639.767154673114
 20
3247.698603230995
 30
0.0
 41
30.0
 42
30.0
 43
30.0
 50
180.0
  0
INSERT
  5
2B7
330
2AF
100
AcDbEntity
  8
0
 62
     0
440
 16777216
370
    -2
100
AcDbBlockReference
  2
_Oblique
 10
1679.767154673114
 20
3247.698603230995
 30
0.0
 41
30.0
 42
30.0
 43
30.0
  0
MTEXT
  5
2B8
330
2AF
100
AcDbEntity
  8
0
 62
     0
440
 16777216
100
AcDbMText
 10
1759.767154673114
 20
3247.698603230995
 30
0.0
 40
50.0
 41
0.0
 46
0.0
 71
     5
 72
     1
  1
40
 73
     1
 44
1.0
  0
POINT
  5
2B9
330
2AF
100
AcDbEntity
  8
Defpoints
 62
     0
440
 16777216
100
AcDbPoint
 10
1639.767154673114
 20
3058.824042953725
 30
0.0
  0
POINT
  5
2BA
330
2AF
100
AcDbEntity
  8
Defpoints
 62
     0
440
 16777216
100
AcDbPoint
 10
1679.767154673114
 20
3058.824042953725
 30
0.0
  0
POINT
  5
2BB
330
2AF
100
AcDbEntity
  8
Defpoints
 62
     0
440
 16777216
100
AcDbPoint
 10
1679.767154673114
 20
3247.698603230995
 30
0.0
  0
ENDBLK
  5
2B1
330
2AF
100
AcDbEntity
  8
0
100
AcDbBlockEnd
  0
BLOCK
  5
2BD
330
2BC
100
AcDbEntity
  8
0
100
AcDbBlockBegin
  2
*D19
 70
     1
 10
0.0
 20
0.0
 30
0.0
  3
*D19
  1

  0
LINE
  5
2BF
330
2BC
100
AcDbEntity
  8
0
 62
     0
440
 16777216
370
    -2
100
AcDbLine
 10
1639.767154673114
 20
3457.565591085237
 30
0.0
 11
1639.767154673114
 21
3502.565591085236
 31
0.0
  0
LINE
  5
2C0
330
2BC
100
AcDbEntity
  8
0
 62
     0
440
 16777216
370
    -2
100
AcDbLine
 10
3839.767154673115
 20
3457.565591085237
 30
0.0
 11
3839.767154673115
 21
3502.565591085236
 31
0.0
  0
LINE
  5
2C1
330
2BC
100
AcDbEntity
  8
0
 62
     0
440
 16777216
370
    -2
100
AcDbLine
 10
1639.767154673114
 20
3477.565591085236
 30
0.0
 11
2643.933821339781
 21
3477.565591085236
 31
0.0
  0
LINE
  5
2C2
330
2BC
100
AcDbEntity
  8
0
 62
     0
440
 16777216
370
    -2
100
AcDbLine
 10
3839.767154673115
 20
3477.565591085236
 30
0.0
 11
2835.600488006448
 21
3477.565591085236
 31
0.0
  0
INSERT
  5
2C3
330
2BC
100
AcDbEntity
  8
0
 62
     0
440
 16777216
370
    -2
100
AcDbBlockReference
  2
_Oblique
 10
1639.767154673114
 20
3477.565591085236
 30
0.0
 41
30.0
 42
30.0
 43
30.0
 50
180.0
  0
INSERT
  5
2C4
330
2BC
100
AcDbEntity
  8
0
 62
     0
440
 16777216
370
    -2
100
AcDbBlockReference
  2
_Oblique
 10
3839.767154673115
 20
3477.565591085236
 30
0.0
 41
30.0
 42
30.0
 43
30.0
  0
MTEXT
  5
2C5
330
2BC
100
AcDbEntity
  8
0
 62
     0
440
 16777216
100
AcDbMText
 10
2739.767154673115
 20
3477.565591085236
 30
0.0
 40
50.0
 41
0.0
 46
0.0
 71
     5
 72
     1
  1
2200
 73
     1
 44
1.0
  0
POINT
  5
2C6
330
2BC
100
AcDbEntity
  8
Defpoints
 62
     0
440
 16777216
100
AcDbPoint
 10
1639.767154673114
 20
3058.824042953725
 30
0.0
  0
POINT
  5
2C7
330
2BC
100
AcDbEntity
  8
Defpoints
 62
     0
440
 16777216
100
AcDbPoint
 10
3839.767154673115
 20
3058.824042953725
 30
0.0
  0
POINT
  5
2C8
330
2BC
100
AcDbEntity
  8
Defpoints
 62
     0
440
 16777216
100
AcDbPoint
 10
3839.767154673115
 20
3477.565591085236
 30
0.0
  0
ENDBLK
  5
2BE
330
2BC
100
AcDbEntity
  8
0
100
AcDbBlockEnd
  0
BLOCK
  5
2D4
330
2D3
100
AcDbEntity
  8
0
100
AcDbBlockBegin
  2
*D20
 70
     1
 10
0.0
 20
0.0
 30
0.0
  3
*D20
  1

  0
LINE
  5
2D6
330
2D3
100
AcDbEntity
  8
0
 62
     0
440
 16777216
370
    -2
100
AcDbLine
 10
3799.767154673115
 20
3147.993298829184
 30
0.0
 11
3799.767154673115
 21
3192.993298829184
 31
0.0
  0
LINE
  5
2D7
330
2D3
100
AcDbEntity
  8
0
 62
     0
440
 16777216
370
    -2
100
AcDbLine
 10
3839.767154673115
 20
3147.993298829184
 30
0.0
 11
3839.767154673115
 21
3192.993298829184
 31
0.0
  0
LINE
  5
2D8
330
2D3
100
AcDbEntity
  8
0
 62
     0
440
 16777216
370
    -2
100
AcDbLine
 10
3799.767154673115
 20
3167.993298829184
 30
0.0
 11
3839.767154673115
 21
3167.993298829184
 31
0.0
  0
LINE
  5
2D9
330
2D3
100
AcDbEntity
  8
0
 62
     0
440
 16777216
370
    -2
100
AcDbLine
 10
3839.767154673115
 20
3167.993298829184
 30
0.0
 11
3869.767154673115
 21
3167.993298829184
 31
0.0
  0
INSERT
  5
2DA
330
2D3
100
AcDbEntity
  8
0
 62
     0
440
 16777216
370
    -2
100
AcDbBlockReference
  2
_Oblique
 10
3799.767154673115
 20
3167.993298829184
 30
0.0
 41
30.0
 42
30.0
 43
30.0
 50
180.0
  0
INSERT
  5
2DB
330
2D3
100
AcDbEntity
  8
0
 62
     0
440
 16777216
370
    -2
100
AcDbBlockReference
  2
_Oblique
 10
3839.767154673115
 20
3167.993298829184
 30
0.0
 41
30.0
 42
30.0
 43
30.0
  0
MTEXT
  5
2DC
330
2D3
100
AcDbEntity
  8
0
 62
     0
440
 16777216
100
AcDbMText
 10
3919.767154673115
 20
3167.993298829184
 30
0.0
 40
50.0
 41
0.0
 46
0.0
 71
     5
 72
     1
  1
40
 73
     1
 44
1.0
  0
POINT
  5
2DD
330
2D3
100
AcDbEntity
  8
Defpoints
 62
     0
440
 16777216
100
AcDbPoint
 10
3799.767154673115
 20
3064.824042953726
 30
0.0
  0
POINT
  5
2DE
330
2D3
100
AcDbEntity
  8
Defpoints
 62
     0
440
 16777216
100
AcDbPoint
 10
3839.767154673115
 20
3064.824042953726
 30
0.0
  0
POINT
  5
2DF
330
2D3
100
AcDbEntity
  8
Defpoints
 62
     0
440
 16777216
100
AcDbPoint
 10
3839.767154673115
 20
3167.993298829184
 30
0.0
  0
ENDBLK
  5
2D5
330
2D3
100
AcDbEntity
  8
0
100
AcDbBlockEnd
  0
BLOCK
  5
2E1
330
2E0
100
AcDbEntity
  8
0
100
AcDbBlockBegin
  2
*D21
 70
     1
 10
0.0
 20
0.0
 30
0.0
  3
*D21
  1

  0
LINE
  5
353
330
2E0
100
AcDbEntity
  8
A-DIMS-INSD
 62
     0
440
 16777216
370
    -2
100
AcDbLine
 10
4043.796358459367
 20
2520.723193584563
 30
0.0
 11
4043.796358459367
 21
2565.723193584563
 31
0.0
  0
LINE
  5
354
330
2E0
100
AcDbEntity
  8
A-DIMS-INSD
 62
     0
440
 16777216
370
    -2
100
AcDbLine
 10
5120.116358459433
 20
2520.723193584563
 30
0.0
 11
5120.116358459433
 21
2565.723193584563
 31
0.0
  0
LINE
  5
355
330
2E0
100
AcDbEntity
  8
A-DIMS-INSD
 62
     0
440
 16777216
370
    -2
100
AcDbLine
 10
4043.796358459367
 20
2540.723193584563
 30
0.0
 11
4427.789691792733
 21
2540.723193584563
 31
0.0
  0
LINE
  5
356
330
2E0
100
AcDbEntity
  8
A-DIMS-INSD
 62
     0
440
 16777216
370
    -2
100
AcDbLine
 10
5120.116358459433
 20
2540.723193584563
 30
0.0
 11
4736.123025126067
 21
2540.723193584563
 31
0.0
  0
INSERT
  5
357
330
2E0
100
AcDbEntity
  8
A-DIMS-INSD
 62
     0
440
 16777216
370
    -2
100
AcDbBlockReference
  2
_Oblique
 10
4043.796358459367
 20
2540.723193584563
 30
0.0
 41
30.0
 42
30.0
 43
30.0
 50
180.0
  0
INSERT
  5
358
330
2E0
100
AcDbEntity
  8
A-DIMS-INSD
 62
     0
440
 16777216
370
    -2
100
AcDbBlockReference
  2
_Oblique
 10
5120.116358459433
 20
2540.723193584563
 30
0.0
 41
30.0
 42
30.0
 43
30.0
  0
MTEXT
  5
359
330
2E0
100
AcDbEntity
  8
A-DIMS-INSD
 62
     0
440
 16777216
100
AcDbMText
 10
4581.956358459399
 20
2540.723193584563
 30
0.0
 40
50.0
 41
0.0
 46
0.0
 71
     5
 72
     1
  1
1076,32
 73
     1
 44
1.0
  0
POINT
  5
35A
330
2E0
100
AcDbEntity
  8
Defpoints
 62
     0
440
 16777216
100
AcDbPoint
 10
4043.796358459367
 20
2474.060862994026
 30
0.0
  0
POINT
  5
35B
330
2E0
100
AcDbEntity
  8
Defpoints
 62
     0
440
 16777216
100
AcDbPoint
 10
5120.116358459433
 20
2469.260862993979
 30
0.0
  0
POINT
  5
35C
330
2E0
100
AcDbEntity
  8
Defpoints
 62
     0
440
 16777216
100
AcDbPoint
 10
5120.116358459433
 20
2540.723193584563
 30
0.0
  0
ENDBLK
  5
2E2
330
2E0
100
AcDbEntity
  8
0
100
AcDbBlockEnd
  0
BLOCK
  5
2EE
330
2ED
100
AcDbEntity
  8
0
100
AcDbBlockBegin
  2
*D22
 70
     1
 10
0.0
 20
0.0
 30
0.0
  3
*D22
  1

  0
LINE
  5
2F0
330
2ED
100
AcDbEntity
  8
A-DIMS-INSD
 62
     0
440
 16777216
370
    -2
100
AcDbLine
 10
2793.074512774125
 20
2510.943868649542
 30
0.0
 11
2793.074512774125
 21
2555.943868649542
 31
0.0
  0
LINE
  5
2F1
330
2ED
100
AcDbEntity
  8
A-DIMS-INSD
 62
     0
440
 16777216
370
    -2
100
AcDbLine
 10
3844.58670274797
 20
2510.943868649542
 30
0.0
 11
3844.58670274797
 21
2555.943868649542
 31
0.0
  0
LINE
  5
2F2
330
2ED
100
AcDbEntity
  8
A-DIMS-INSD
 62
     0
440
 16777216
370
    -2
100
AcDbLine
 10
2793.074512774125
 20
2530.943868649542
 30
0.0
 11
3181.330607761047
 21
2530.943868649542
 31
0.0
  0
LINE
  5
2F3
330
2ED
100
AcDbEntity
  8
A-DIMS-INSD
 62
     0
440
 16777216
370
    -2
100
AcDbLine
 10
3844.58670274797
 20
2530.943868649542
 30
0.0
 11
3456.330607761047
 21
2530.943868649542
 31
0.0
  0
INSERT
  5
2F4
330
2ED
100
AcDbEntity
  8
A-DIMS-INSD
 62
     0
440
 16777216
370
    -2
100
AcDbBlockReference
  2
_Oblique
 10
2793.074512774125
 20
2530.943868649542
 30
0.0
 41
30.0
 42
30.0
 43
30.0
 50
180.0
  0
INSERT
  5
2F5
330
2ED
100
AcDbEntity
  8
A-DIMS-INSD
 62
     0
440
 16777216
370
    -2
100
AcDbBlockReference
  2
_Oblique
 10
3844.58670274797
 20
2530.943868649542
 30
0.0
 41
30.0
 42
30.0
 43
30.0
  0
MTEXT
  5
2F6
330
2ED
100
AcDbEntity
  8
A-DIMS-INSD
 62
     0
440
 16777216
100
AcDbMText
 10
3318.830607761047
 20
2530.943868649542
 30
0.0
 40
50.0
 41
0.0
 46
0.0
 71
     5
 72
     1
  1
1051,51
 73
     1
 44
1.0
  0
POINT
  5
2F7
330
2ED
100
AcDbEntity
  8
Defpoints
 62
     0
440
 16777216
100
AcDbPoint
 10
2793.074512774125
 20
2459.695455073088
 30
0.0
  0
POINT
  5
2F8
330
2ED
100
AcDbEntity
  8
Defpoints
 62
     0
440
 16777216
100
AcDbPoint
 10
3844.58670274797
 20
2459.345455073053
 30
0.0
  0
POINT
  5
2F9
330
2ED
100
AcDbEntity
  8
Defpoints
 62
     0
440
 16777216
100
AcDbPoint
 10
3844.58670274797
 20
2530.943868649542
 30
0.0
  0
ENDBLK
  5
2EF
330
2ED
100
AcDbEntity
  8
0
100
AcDbBlockEnd
  0
BLOCK
  5
2FB
330
2FA
100
AcDbEntity
  8
0
100
AcDbBlockBegin
  2
*D23
 70
     1
 10
0.0
 20
0.0
 30
0.0
  3
*D23
  1

  0
LINE
  5
349
330
2FA
100
AcDbEntity
  8
A-DIMS-INSD
 62
     0
440
 16777216
370
    -2
100
AcDbLine
 10
1430.631047304952
 20
2514.024636640883
 30
0.0
 11
1430.631047304952
 21
2559.024636640883
 31
0.0
  0
LINE
  5
34A
330
2FA
100
AcDbEntity
  8
A-DIMS-INSD
 62
     0
440
 16777216
370
    -2
100
AcDbLine
 10
2507.530875026481
 20
2514.024636640883
 30
0.0
 11
2507.530875026481
 21
2559.024636640883
 31
0.0
  0
LINE
  5
34B
330
2FA
100
AcDbEntity
  8
A-DIMS-INSD
 62
     0
440
 16777216
370
    -2
100
AcDbLine
 10
1430.631047304952
 20
2534.024636640883
 30
0.0
 11
1839.91429449905
 21
2534.024636640883
 31
0.0
  0
LINE
  5
34C
330
2FA
100
AcDbEntity
  8
A-DIMS-INSD
 62
     0
440
 16777216
370
    -2
100
AcDbLine
 10
2507.530875026481
 20
2534.024636640883
 30
0.0
 11
2098.247627832384
 21
2534.024636640883
 31
0.0
  0
INSERT
  5
34D
330
2FA
100
AcDbEntity
  8
A-DIMS-INSD
 62
     0
440
 16777216
370
    -2
100
AcDbBlockReference
  2
_Oblique
 10
1430.631047304952
 20
2534.024636640883
 30
0.0
 41
30.0
 42
30.0
 43
30.0
 50
180.0
  0
INSERT
  5
34E
330
2FA
100
AcDbEntity
  8
A-DIMS-INSD
 62
     0
440
 16777216
370
    -2
100
AcDbBlockReference
  2
_Oblique
 10
2507.530875026481
 20
2534.024636640883
 30
0.0
 41
30.0
 42
30.0
 43
30.0
  0
MTEXT
  5
34F
330
2FA
100
AcDbEntity
  8
A-DIMS-INSD
 62
     0
440
 16777216
100
AcDbMText
 10
1969.080961165717
 20
2534.024636640883
 30
0.0
 40
50.0
 41
0.0
 46
0.0
 71
     5
 72
     1
  1
1076,9
 73
     1
 44
1.0
  0
POINT
  5
350
330
2FA
100
AcDbEntity
  8
Defpoints
 62
     0
440
 16777216
100
AcDbPoint
 10
1430.631047304952
 20
2466.594942884171
 30
0.0
  0
POINT
  5
351
330
2FA
100
AcDbEntity
  8
Defpoints
 62
     0
440
 16777216
100
AcDbPoint
 10
2507.530875026481
 20
2462.144942884217
 30
0.0
  0
POINT
  5
352
330
2FA
100
AcDbEntity
  8
Defpoints
 62
     0
440
 16777216
100
AcDbPoint
 10
2507.530875026481
 20
2534.024636640883
 30
0.0
  0
ENDBLK
  5
2FC
330
2FA
100
AcDbEntity
  8
0
100
AcDbBlockEnd
  0
BLOCK
  5
308
330
307
100
AcDbEntity
  8
0
100
AcDbBlockBegin
  2
*D24
 70
     1
 10
0.0
 20
0.0
 30
0.0
  3
*D24
  1

  0
LINE
  5
30A
330
307
100
AcDbEntity
  8
A-DIMS-INSD
 62
     0
440
 16777216
370
    -2
100
AcDbLine
 10
69.24878247687593
 20
2528.745940278808
 30
0.0
 11
69.24878247687593
 21
2573.745940278808
 31
0.0
  0
LINE
  5
30B
330
307
100
AcDbEntity
  8
A-DIMS-INSD
 62
     0
440
 16777216
370
    -2
100
AcDbLine
 10
1121.753428268945
 20
2528.745940278808
 30
0.0
 11
1121.753428268945
 21
2573.745940278808
 31
0.0
  0
LINE
  5
30C
330
307
100
AcDbEntity
  8
A-DIMS-INSD
 62
     0
440
 16777216
370
    -2
100
AcDbLine
 10
69.24878247687593
 20
2548.745940278808
 30
0.0
 11
466.3344387062437
 21
2548.745940278808
 31
0.0
  0
LINE
  5
30D
330
307
100
AcDbEntity
  8
A-DIMS-INSD
 62
     0
440
 16777216
370
    -2
100
AcDbLine
 10
1121.753428268945
 20
2548.745940278808
 30
0.0
 11
724.667772039577
 21
2548.745940278808
 31
0.0
  0
INSERT
  5
30E
330
307
100
AcDbEntity
  8
A-DIMS-INSD
 62
     0
440
 16777216
370
    -2
100
AcDbBlockReference
  2
_Oblique
 10
69.24878247687593
 20
2548.745940278808
 30
0.0
 41
30.0
 42
30.0
 43
30.0
 50
180.0
  0
INSERT
  5
30F
330
307
100
AcDbEntity
  8
A-DIMS-INSD
 62
     0
440
 16777216
370
    -2
100
AcDbBlockReference
  2
_Oblique
 10
1121.753428268945
 20
2548.745940278808
 30
0.0
 41
30.0
 42
30.0
 43
30.0
  0
MTEXT
  5
310
330
307
100
AcDbEntity
  8
A-DIMS-INSD
 62
     0
440
 16777216
100
AcDbMText
 10
595.5011053729103
 20
2548.745940278808
 30
0.0
 40
50.0
 41
0.0
 46
0.0
 71
     5
 72
     1
  1
1052,5
 73
     1
 44
1.0
  0
POINT
  5
311
330
307
100
AcDbEntity
  8
Defpoints
 62
     0
440
 16777216
100
AcDbPoint
 10
69.24878247687593
 20
2480.130265904533
 30
0.0
  0
POINT
  5
312
330
307
100
AcDbEntity
  8
Defpoints
 62
     0
440
 16777216
100
AcDbPoint
 10
1121.753428268945
 20
2480.130265904533
 30
0.0
  0
POINT
  5
313
330
307
100
AcDbEntity
  8
Defpoints
 62
     0
440
 16777216
100
AcDbPoint
 10
1121.753428268945
 20
2548.745940278808
 30
0.0
  0
ENDBLK
  5
309
330
307
100
AcDbEntity
  8
0
100
AcDbBlockEnd
  0
BLOCK
  5
315
330
314
100
AcDbEntity
  8
0
100
AcDbBlockBegin
  2
*D25
 70
     1
 10
0.0
 20
0.0
 30
0.0
  3
*D25
  1

  0
LINE
  5
33E
330
314
100
AcDbEntity
  8
A-DIMS-INSD
 62
     0
440
 16777216
370
    -2
100
AcDbLine
 10
2735.767154673114
 20
2935.711731717893
 30
0.0
 11
2735.767154673114
 21
2890.711731717893
 31
0.0
  0
LINE
  5
33F
330
314
100
AcDbEntity
  8
A-DIMS-INSD
 62
     0
440
 16777216
370
    -2
100
AcDbLine
 10
2743.765323368833
 20
2935.711731717893
 30
0.0
 11
2743.765323368833
 21
2890.711731717893
 31
0.0
  0
LINE
  5
340
330
314
100
AcDbEntity
  8
A-DIMS-INSD
 62
     0
440
 16777216
370
    -2
100
AcDbLine
 10
2735.767154673114
 20
2915.711731717893
 30
0.0
 11
2705.767154673115
 21
2915.711731717893
 31
0.0
  0
LINE
  5
341
330
314
100
AcDbEntity
  8
A-DIMS-INSD
 62
     0
440
 16777216
370
    -2
100
AcDbLine
 10
2743.765323368833
 20
2915.711731717893
 30
0.0
 11
2803.765323368832
 21
2915.711731717893
 31
0.0
  0
LINE
  5
342
330
314
100
AcDbEntity
  8
A-DIMS-INSD
 62
     0
440
 16777216
370
    -2
100
AcDbLine
 10
2735.767154673114
 20
2915.711731717893
 30
0.0
 11
2743.765323368833
 21
2915.711731717893
 31
0.0
  0
INSERT
  5
343
330
314
100
AcDbEntity
  8
A-DIMS-INSD
 62
     0
440
 16777216
370
    -2
100
AcDbBlockReference
  2
_Oblique
 10
2735.767154673114
 20
2915.711731717893
 30
0.0
 41
30.0
 42
30.0
 43
30.0
  0
INSERT
  5
344
330
314
100
AcDbEntity
  8
A-DIMS-INSD
 62
     0
440
 16777216
370
    -2
100
AcDbBlockReference
  2
_Oblique
 10
2743.765323368833
 20
2915.711731717893
 30
0.0
 41
30.0
 42
30.0
 43
30.0
 50
180.0
  0
MTEXT
  5
345
330
314
100
AcDbEntity
  8
A-DIMS-INSD
 62
     0
440
 16777216
100
AcDbMText
 10
2832.931990035499
 20
2915.711731717893
 30
0.0
 40
50.0
 41
0.0
 46
0.0
 71
     5
 72
     1
  1
8
 73
     1
 44
1.0
  0
POINT
  5
346
330
314
100
AcDbEntity
  8
Defpoints
 62
     0
440
 16777216
100
AcDbPoint
 10
2735.767154673114
 20
3041.899042953824
 30
0.0
  0
POINT
  5
347
330
314
100
AcDbEntity
  8
Defpoints
 62
     0
440
 16777216
100
AcDbPoint
 10
2743.765323368833
 20
3041.899042953824
 30
0.0
  0
POINT
  5
348
330
314
100
AcDbEntity
  8
Defpoints
 62
     0
440
 16777216
100
AcDbPoint
 10
2743.765323368833
 20
2915.711731717893
 30
0.0
  0
ENDBLK
  5
316
330
314
100
AcDbEntity
  8
0
100
AcDbBlockEnd
  0
BLOCK
  5
323
330
322
100
AcDbEntity
  8
0
100
AcDbBlockBegin
  2
*D26
 70
     1
 10
0.0
 20
0.0
 30
0.0
  3
*D26
  1

  0
LINE
  5
325
330
322
100
AcDbEntity
  8
A-DIMS-INSD
 62
     0
440
 16777216
370
    -2
100
AcDbLine
 10
3796.267154673115
 20
3042.71195881255
 30
0.0
 11
3796.267154673115
 21
3017.71195881255
 31
0.0
  0
LINE
  5
326
330
322
100
AcDbEntity
  8
A-DIMS-INSD
 62
     0
440
 16777216
370
    -2
100
AcDbLine
 10
3799.767154673115
 20
3042.71195881255
 30
0.0
 11
3799.767154673115
 21
3017.71195881255
 31
0.0
  0
LINE
  5
327
330
322
100
AcDbEntity
  8
A-DIMS-INSD
 62
     0
440
 16777216
370
    -2
100
AcDbLine
 10
3796.267154673115
 20
3042.71195881255
 30
0.0
 11
3766.267154673115
 21
3042.71195881255
 31
0.0
  0
LINE
  5
328
330
322
100
AcDbEntity
  8
A-DIMS-INSD
 62
     0
440
 16777216
370
    -2
100
AcDbLine
 10
3799.767154673115
 20
3042.71195881255
 30
0.0
 11
3859.767154673114
 21
3042.71195881255
 31
0.0
  0
LINE
  5
329
330
322
100
AcDbEntity
  8
A-DIMS-INSD
 62
     0
440
 16777216
370
    -2
100
AcDbLine
 10
3796.267154673115
 20
3042.71195881255
 30
0.0
 11
3799.767154673115
 21
3042.71195881255
 31
0.0
  0
INSERT
  5
32A
330
322
100
AcDbEntity
  8
A-DIMS-INSD
 62
     0
440
 16777216
370
    -2
100
AcDbBlockReference
  2
_Oblique
 10
3796.267154673115
 20
3042.71195881255
 30
0.0
 41
30.0
 42
30.0
 43
30.0
  0
INSERT
  5
32B
330
322
100
AcDbEntity
  8
A-DIMS-INSD
 62
     0
440
 16777216
370
    -2
100
AcDbBlockReference
  2
_Oblique
 10
3799.767154673115
 20
3042.71195881255
 30
0.0
 41
30.0
 42
30.0
 43
30.0
 50
180.0
  0
MTEXT
  5
32C
330
322
100
AcDbEntity
  8
A-DIMS-INSD
 62
     0
440
 16777216
100
AcDbMText
 10
3926.433821339781
 20
3042.71195881255
 30
0.0
 40
50.0
 41
0.0
 46
0.0
 71
     5
 72
     1
  1
3,5
 73
     1
 44
1.0
  0
POINT
  5
32D
330
322
100
AcDbEntity
  8
Defpoints
 62
     0
440
 16777216
100
AcDbPoint
 10
3796.267154673115
 20
3045.30513493612
 30
0.0
  0
POINT
  5
32E
330
322
100
AcDbEntity
  8
Defpoints
 62
     0
440
 16777216
100
AcDbPoint
 10
3799.767154673115
 20
3045.30513493612
 30
0.0
  0
POINT
  5
32F
330
322
100
AcDbEntity
  8
Defpoints
 62
     0
440
 16777216
100
AcDbPoint
 10
3799.767154673115
 20
3042.71195881255
 30
0.0
  0
ENDBLK
  5
324
330
322
100
AcDbEntity
  8
0
100
AcDbBlockEnd
  0
BLOCK
  5
331
330
330
100
AcDbEntity
  8
0
100
AcDbBlockBegin
  2
*D27
 70
     1
 10
0.0
 20
0.0
 30
0.0
  3
*D27
  1

  0
LINE
  5
333
330
330
100
AcDbEntity
  8
A-DIMS-INSD
 62
     0
440
 16777216
370
    -2
100
AcDbLine
 10
1683.267154673347
 20
3035.134268222377
 30
0.0
 11
1683.267154673347
 21
3010.134268222377
 31
0.0
  0
LINE
  5
334
330
330
100
AcDbEntity
  8
A-DIMS-INSD
 62
     0
440
 16777216
370
    -2
100
AcDbLine
 10
1679.767154673114
 20
3035.134268222377
 30
0.0
 11
1679.767154673114
 21
3010.134268222377
 31
0.0
  0
LINE
  5
335
330
330
100
AcDbEntity
  8
A-DIMS-INSD
 62
     0
440
 16777216
370
    -2
100
AcDbLine
 10
1683.267154673347
 20
3035.134268222377
 30
0.0
 11
1713.267154673347
 21
3035.134268222377
 31
0.0
  0
LINE
  5
336
330
330
100
AcDbEntity
  8
A-DIMS-INSD
 62
     0
440
 16777216
370
    -2
100
AcDbLine
 10
1679.767154673114
 20
3035.134268222377
 30
0.0
 11
1619.767154673114
 21
3035.134268222377
 31
0.0
  0
LINE
  5
337
330
330
100
AcDbEntity
  8
A-DIMS-INSD
 62
     0
440
 16777216
370
    -2
100
AcDbLine
 10
1683.267154673347
 20
3035.134268222377
 30
0.0
 11
1679.767154673114
 21
3035.134268222377
 31
0.0
  0
INSERT
  5
338
330
330
100
AcDbEntity
  8
A-DIMS-INSD
 62
     0
440
 16777216
370
    -2
100
AcDbBlockReference
  2
_Oblique
 10
1683.267154673347
 20
3035.134268222377
 30
0.0
 41
30.0
 42
30.0
 43
30.0
 50
180.0
  0
INSERT
  5
339
330
330
100
AcDbEntity
  8
A-DIMS-INSD
 62
     0
440
 16777216
370
    -2
100
AcDbBlockReference
  2
_Oblique
 10
1679.767154673114
 20
3035.134268222377
 30
0.0
 41
30.0
 42
30.0
 43
30.0
  0
MTEXT
  5
33A
330
330
100
AcDbEntity
  8
A-DIMS-INSD
 62
     0
440
 16777216
100
AcDbMText
 10
1553.100488006448
 20
3035.134268222377
 30
0.0
 40
50.0
 41
0.0
 46
0.0
 71
     5
 72
     1
  1
3,5
 73
     1
 44
1.0
  0
POINT
  5
33B
330
330
100
AcDbEntity
  8
Defpoints
 62
     0
440
 16777216
100
AcDbPoint
 10
1683.267154673347
 20
3045.824042953784
 30
0.0
  0
POINT
  5
33C
330
330
100
AcDbEntity
  8
Defpoints
 62
     0
440
 16777216
100
AcDbPoint
 10
1679.767154673114
 20
3045.824042953784
 30
0.0
  0
POINT
  5
33D
330
330
100
AcDbEntity
  8
Defpoints
 62
     0
440
 16777216
100
AcDbPoint
 10
1679.767154673114
 20
3035.134268222377
 30
0.0
  0
ENDBLK
  5
332
330
330
100
AcDbEntity
  8
0
100
AcDbBlockEnd
  0
ENDSEC
  0
SECTION
  2
ENTITIES
  0
LWPOLYLINE
  5
1F1
102
{ACAD_REACTORS
330
27A
102
}
330
70
100
AcDbEntity
  8
0
  6
Continuous
 62
     1
370
    25
100
AcDbPolyline
 90
       24
 70
     1
 43
0.0
 10
1684.567154673394
 20
3028.424042953761
 42
0.4142135623730951
 10
1685.867154673207
 20
3027.124042953772
 10
1704.267154673347
 20
3027.124042953772
 42
-0.9999999999999998
 10
1704.267154673347
 20
3022.524042953737
 10
1693.267154673347
 20
3022.524042953737
 10
1693.267154673347
 20
3023.824042953784
 10
1704.267154673347
 20
3023.824042953784
 42
0.9999999999999998
 10
1704.267154673347
 20
3025.824042953784
 10
1685.867154673207
 20
3025.824042953784
 42
-0.4142135623730951
 10
1683.267154673347
 20
3028.424042953761
 10
1683.267154673347
 20
3063.224042953749
 42
-0.4142135623730951
 10
1685.867154673207
 20
3065.824042953726
 10
2733.167154673254
 20
3065.824042953842
 42
-0.4142135623730951
 10
2735.767154673114
 20
3063.224042953807
 10
2735.767154673114
 20
3020.574042953842
 42
0.4142135623730951
 10
2737.067154673394
 20
3019.274042953854
 10
2757.317154673394
 20
3019.274042953737
 10
2757.317154673394
 20
3017.974042953807
 10
2737.067154673394
 20
3017.974042953807
 42
-0.4142135623730951
 10
2734.467154673301
 20
3020.574042953842
 10
2734.467154673301
 20
3063.224042953807
 42
0.4142135623730951
 10
2733.167154673254
 20
3064.524042953737
 10
1685.867154673207
 20
3064.524042953737
 42
0.4142135623730951
 10
1684.567154673394
 20
3063.224042953749
  0
LWPOLYLINE
  5
1F2
330
70
100
AcDbEntity
  8
0
  6
Continuous
 62
     3
370
    25
100
AcDbPolyline
 90
       20
 70
     1
 43
0.0
 10
2724.609277705197
 20
3021.967243767868
 42
0.0874886635186368
 10
2723.720025332645
 20
3022.12404295383
 10
1685.7060997691
 20
3022.12404295383
 42
-0.9999999999999998
 10
1685.7060997691
 20
3024.024042953854
 10
1701.905927490443
 20
3024.024042953737
 10
1701.905927490443
 20
3025.324042953784
 10
1685.7060997691
 20
3025.324042953784
 42
0.9999999999999998
 10
1685.7060997691
 20
3020.824042953784
 10
2723.720025332645
 20
3020.824042953842
 42
-0.0874886635186368
 10
2724.164651518921
 20
3020.745643360831
 10
2734.920479475521
 20
3016.830842139723
 42
0.0874886635186368
 10
2735.809731848072
 20
3016.674042953819
 10
2758.401281698374
 20
3016.674042953819
 42
0.9999999999999998
 10
2758.401281698374
 20
3020.574042953842
 10
2745.851281698328
 20
3020.574042953842
 10
2745.851281698328
 20
3019.274042953795
 10
2758.401281698374
 20
3019.274042953854
 42
-0.9999999999999998
 10
2758.401281698374
 20
3017.974042953807
 10
2735.809731848072
 20
3017.974042953807
 42
-0.0874886635186368
 10
2735.365105661796
 20
3018.052442546818
  0
LWPOLYLINE
  5
1F3
102
{ACAD_REACTORS
330
27A
102
}
330
70
100
AcDbEntity
  8
0
  6
Continuous
 62
     3
370
    25
100
AcDbPolyline
 90
       16
 70
     1
 43
0.0
 10
2745.065323368879
 20
3023.42404295376
 42
0.4142135623730951
 10
2746.365323368926
 20
3022.12404295383
 10
3793.020605027908
 20
3022.12404295383
 42
0.9999999999999998
 10
3793.020605027676
 20
3024.024042953854
 10
3778.270605027676
 20
3024.024042953737
 10
3778.270605027676
 20
3025.324042953784
 10
3793.020605027676
 20
3025.324042953784
 42
-0.9999999999999998
 10
3793.020605027676
 20
3020.824042953784
 10
2746.365323368926
 20
3020.824042953842
 42
-0.4142135623730951
 10
2743.765323368833
 20
3023.424042953819
 10
2743.765323368833
 20
3066.074042953842
 42
0.4142135623730951
 10
2742.465323369019
 20
3067.37404295383
 10
2724.215323369019
 20
3067.37404295383
 10
2724.215323369019
 20
3068.674042953819
 10
2742.465323369019
 20
3068.674042953819
 42
-0.4142135623730951
 10
2745.065323368879
 20
3066.074042953842
  0
LWPOLYLINE
  5
1F4
330
70
100
AcDbEntity
  8
0
 62
     1
100
AcDbPolyline
 90
       28
 70
     1
 43
0.0
 10
3794.967154673301
 20
3028.424042953761
 42
-0.4142135623730951
 10
3793.667154673022
 20
3027.12404295383
 10
3775.267154673115
 20
3027.12404295383
 42
0.9999999999999998
 10
3775.267154673115
 20
3022.524042953737
 10
3786.267154673114
 20
3022.524042953737
 10
3786.267154673114
 20
3023.824042953784
 10
3775.267154673115
 20
3023.824042953784
 42
-0.9999999999999998
 10
3775.267154673115
 20
3025.824042953784
 10
3793.667154673022
 20
3025.824042953784
 42
0.4142135623730951
 10
3796.267154673115
 20
3028.424042953761
 10
3796.267154673115
 20
3063.224042953807
 42
0.4142135623730951
 10
3793.667154673022
 20
3065.824042953784
 10
2756.575319353957
 20
3065.824042953842
 42
-0.0874886635186368
 10
2756.130693167681
 20
3065.902442546795
 10
2745.374865211081
 20
3069.817243767902
 42
0.0874886635186368
 10
2744.485612838529
 20
3069.974042953807
 10
2721.894062988227
 20
3069.974042953807
 42
0.9999999999999998
 10
2721.894062988227
 20
3066.074042953842
 10
2734.444062988274
 20
3066.074042953842
 10
2734.444062988274
 20
3067.37404295383
 10
2721.894062988227
 20
3067.374042953772
 42
-0.9999999999999998
 10
2721.894062988227
 20
3068.674042953819
 10
2744.485612838529
 20
3068.674042953819
 42
-0.0874886635186368
 10
2744.930239024805
 20
3068.595643360866
 10
2755.686066981405
 20
3064.680842139758
 42
0.0874886635186368
 10
2756.575319353957
 20
3064.524042953796
 10
3793.667154673022
 20
3064.524042953737
 42
-0.4142135623730951
 10
3794.967154673301
 20
3063.224042953807
  0
LWPOLYLINE
  5
1F5
102
{ACAD_REACTORS
330
1FD
330
280
102
}
330
70
100
AcDbEntity
  8
0
100
AcDbPolyline
 90
       36
 70
     1
 43
0.0
 10
1639.767154673114
 20
3052.824042953726
 10
1639.767154673114
 20
3064.824042953726
 42
-0.4142135623730951
 10
1642.767154673114
 20
3067.824042953726
 10
1676.767154673114
 20
3067.824042953726
 42
-0.4142135623730951
 10
1679.767154673114
 20
3064.824042953726
 10
1679.767154673114
 20
3005.324042953726
 42
0.4142135623730951
 10
1681.267154673114
 20
3003.824042953726
 10
1689.767154673114
 20
3003.824042953726
 42
0.4142135623730951
 10
1691.267154673114
 20
3005.324042953726
 10
1691.267154673114
 20
3012.824042953726
 42
-0.4142135623730951
 10
1694.267154673114
 20
3015.824042953726
 10
1698.767154673114
 20
3015.824042953726
 42
-0.4142135623730951
 10
1701.767154673114
 20
3012.824042953726
 10
1701.767154673114
 20
2945.824042953726
 42
-0.4142135623730951
 10
1698.767154673114
 20
2942.824042953726
 10
1642.767154673114
 20
2942.824042953726
 42
-0.4142135623730951
 10
1639.767154673114
 20
2945.824042953726
 10
1639.767154673114
 20
2957.824042953726
 10
1641.267154673114
 20
2957.824042953726
 10
1641.267154673114
 20
2945.824042953726
 42
0.4142135623730951
 10
1642.767154673114
 20
2944.324042953726
 10
1698.767154673114
 20
2944.324042953726
 42
0.4142135623730951
 10
1700.267154673114
 20
2945.824042953726
 10
1700.267154673114
 20
3012.824042953726
 42
0.4142135623730951
 10
1698.767154673114
 20
3014.324042953726
 10
1694.267154673114
 20
3014.324042953726
 42
0.4142135623730951
 10
1692.767154673114
 20
3012.824042953726
 10
1692.767154673114
 20
3005.324042953726
 42
-0.4142135623730951
 10
1689.767154673114
 20
3002.324042953726
 10
1681.267154673114
 20
3002.324042953726
 42
-0.4142135623730951
 10
1678.267154673114
 20
3005.324042953726
 10
1678.267154673114
 20
3064.824042953726
 42
0.4142135623730951
 10
1676.767154673114
 20
3066.324042953726
 10
1642.767154673114
 20
3066.324042953726
 42
0.4142135623730951
 10
1641.267154673114
 20
3064.824042953726
 10
1641.267154673114
 20
3052.824042953726
  0
LWPOLYLINE
  5
1F6
102
{ACAD_REACTORS
330
200
330
204
330
27D
102
}
330
70
100
AcDbEntity
  8
0
100
AcDbPolyline
 90
       36
 70
     1
 43
0.0
 10
3839.767154673115
 20
3052.824042953726
 10
3839.767154673115
 20
3064.824042953726
 42
0.4142135623730951
 10
3836.767154673115
 20
3067.824042953726
 10
3802.767154673114
 20
3067.824042953726
 42
0.4142135623730951
 10
3799.767154673115
 20
3064.824042953726
 10
3799.767154673115
 20
3005.324042953726
 42
-0.4142135623730951
 10
3798.267154673115
 20
3003.824042953726
 91
        3
 10
3789.767154673115
 20
3003.824042953726
 42
-0.4142135623730951
 91
        4
 10
3788.267154673115
 20
3005.324042953726
 10
3788.267154673115
 20
3012.824042953726
 42
0.4142135623730951
 10
3785.267154673114
 20
3015.824042953726
 91
        1
 10
3780.767154673114
 20
3015.824042953726
 42
0.4142135623730951
 91
        2
 10
3777.767154673114
 20
3012.824042953726
 10
3777.767154673114
 20
2945.824042953726
 42
0.4142135623730951
 10
3780.767154673114
 20
2942.824042953726
 10
3836.767154673115
 20
2942.824042953726
 42
0.4142135623730951
 10
3839.767154673115
 20
2945.824042953726
 10
3839.767154673115
 20
2957.824042953726
 10
3838.267154673115
 20
2957.824042953726
 10
3838.267154673115
 20
2945.824042953726
 42
-0.4142135623730951
 10
3836.767154673115
 20
2944.324042953726
 10
3780.767154673114
 20
2944.324042953726
 42
-0.4142135623730951
 10
3779.267154673114
 20
2945.824042953726
 10
3779.267154673114
 20
3012.824042953726
 42
-0.4142135623730951
 10
3780.767154673114
 20
3014.324042953726
 10
3785.267154673114
 20
3014.324042953726
 42
-0.4142135623730951
 10
3786.767154673114
 20
3012.824042953726
 10
3786.767154673114
 20
3005.324042953726
 42
0.4142135623730951
 10
3789.767154673115
 20
3002.324042953726
 10
3798.267154673115
 20
3002.324042953726
 42
0.4142135623730951
 10
3801.267154673115
 20
3005.324042953726
 10
3801.267154673115
 20
3064.824042953726
 42
-0.4142135623730951
 10
3802.767154673114
 20
3066.324042953726
 10
3836.767154673115
 20
3066.324042953726
 42
-0.4142135623730951
 10
3838.267154673115
 20
3064.824042953726
 10
3838.267154673115
 20
3052.824042953726
  0
CIRCLE
  5
1F7
330
70
100
AcDbEntity
  8
0
  6
Continuous
 62
     7
370
    25
100
AcDbCircle
 10
2721.017154673115
 20
3043.974042953574
 30
0.0
 40
6.000000000000013
  0
LWPOLYLINE
  5
1F8
330
70
100
AcDbEntity
  8
0
 62
     0
100
AcDbPolyline
 90
        4
 70
     1
 43
0.0
 10
2854.419831776992
 20
3065.824042953842
 10
2844.419831776992
 20
3065.824042953842
 10
2844.419831776992
 20
3064.524042953796
 10
2854.419831776992
 20
3064.524042953796
  0
LWPOLYLINE
  5
1F9
330
70
100
AcDbEntity
  8
0
 62
     0
100
AcDbPolyline
 90
        4
 70
     1
 43
0.0
 10
2854.419831776992
 20
3022.12404295383
 10
2844.419831776992
 20
3022.12404295383
 10
2844.419831776992
 20
3020.824042953842
 10
2854.419831776992
 20
3020.824042953842
  0
DIMENSION
  5
1FA
330
70
100
AcDbEntity
  8
A-DIMS-INSD
 62
     0
100
AcDbDimension
280
     0
  2
*D16
 10
3796.267154673115
 20
3202.032222719048
 30
0.0
 11
3270.016239020974
 21
3202.032222719048
 31
0.0
 70
    32
 71
     5
 42
1052.501831304282
 73
     0
 74
     0
 75
     0
  3
Sh
100
AcDbAlignedDimension
 13
2743.765323368833
 23
3078.787966843695
 33
0.0
 14
3796.267154673115
 24
3079.344058825984
 34
0.0
100
AcDbRotatedDimension
  0
DIMENSION
  5
1FB
102
{ACAD_XDICTIONARY
360
1FC
102
}
102
{ACAD_REACTORS
330
1FD
102
}
330
70
100
AcDbEntity
  8
0
 62
     0
100
AcDbDimension
280
     0
  2
*D18
 10
1679.767154673114
 20
3247.698603230995
 30
0.0
 11
1759.767154673114
 21
3247.698603230995
 31
0.0
 70
    32
 71
     5
 42
40.0
 73
     0
 74
     0
 75
     0
  3
Sh
100
AcDbAlignedDimension
 13
1639.767154673114
 23
3058.824042953725
 33
0.0
 14
1679.767154673114
 24
3058.824042953725
 34
0.0
100
AcDbRotatedDimension
  0
DIMENSION
  5
1FE
102
{ACAD_XDICTIONARY
360
1FF
102
}
102
{ACAD_REACTORS
330
200
102
}
330
70
100
AcDbEntity
  8
0
 62
     0
100
AcDbDimension
280
     0
  2
*D19
 10
3839.767154673115
 20
3477.565591085236
 30
0.0
 11
2739.767154673115
 21
3477.565591085236
 31
0.0
 70
    32
 71
     5
 42
2200.0
 73
     0
 74
     0
 75
     0
  3
Sh
100
AcDbAlignedDimension
 13
1639.767154673114
 23
3058.824042953725
 33
0.0
 14
3839.767154673115
 24
3058.824042953725
 34
0.0
100
AcDbRotatedDimension
  0
DIMENSION
  5
201
330
70
100
AcDbEntity
  8
0
 62
     0
100
AcDbDimension
280
     0
  2
*D17
 10
2735.767154673114
 20
3202.032222719048
 30
0.0
 11
2209.517154673231
 21
3202.032222719048
 31
0.0
 70
    32
 71
     5
 42
1052.499999999767
 73
     0
 74
     0
 75
     0
  3
Sh
100
AcDbAlignedDimension
 13
1683.267154673347
 23
3079.862966843648
 33
0.0
 14
2735.767154673114
 24
3079.862966843648
 34
0.0
100
AcDbRotatedDimension
  0
DIMENSION
  5
202
102
{ACAD_XDICTIONARY
360
203
102
}
102
{ACAD_REACTORS
330
204
102
}
330
70
100
AcDbEntity
  8
0
 62
     0
100
AcDbDimension
280
     0
  2
*D20
 10
3839.767154673115
 20
3167.993298829184
 30
0.0
 11
3919.767154673115
 21
3167.993298829184
 31
0.0
 70
    32
 71
     5
 42
40.0
 73
     0
 74
     0
 75
     0
  3
Sh
100
AcDbAlignedDimension
 13
3799.767154673115
 23
3064.824042953726
 33
0.0
 14
3839.767154673115
 24
3064.824042953726
 34
0.0
100
AcDbRotatedDimension
  0
LINE
  5
205
330
70
100
AcDbEntity
  8
0
  6
CENTERX2
 62
     3
100
AcDbLine
 10
2794.374512773939
 20
10.0
 30
0.0
 11
2794.374512773939
 21
16.0
 31
0.0
  0
LINE
  5
206
330
70
100
AcDbEntity
  8
0
  6
CENTERX2
 62
     3
100
AcDbLine
 10
2794.374512773939
 20
2193.999999999884
 30
0.0
 11
2794.374512773939
 21
2199.999999999883
 31
0.0
  0
LINE
  5
207
330
70
100
AcDbEntity
  8
0
  6
CENTERX2
 62
     3
100
AcDbLine
 10
3888.591348540038
 20
2199.999999999883
 30
0.0
 11
3888.591348540038
 21
2197.999999999884
 31
0.0
  0
LINE
  5
208
330
70
100
AcDbEntity
  8
0
  6
CENTERX2
 62
     3
100
AcDbLine
 10
3888.591348540038
 20
12.0
 30
0.0
 11
3888.591348540038
 21
10.0
 31
0.0
  0
LINE
  5
209
330
70
100
AcDbEntity
  8
0
  6
CENTERX2
 62
     3
100
AcDbLine
 10
3843.286702747923
 20
2199.999999999883
 30
0.0
 11
3843.286702747923
 21
2193.999999999884
 31
0.0
  0
LINE
  5
20A
330
70
100
AcDbEntity
  8
0
  6
CENTERX2
 62
     3
100
AcDbLine
 10
3843.286702747923
 20
16.0
 30
0.0
 11
3843.286702747923
 21
10.0
 31
0.0
  0
LINE
  5
20B
330
70
100
AcDbEntity
  8
0
  6
CENTERX2
 62
     1
100
AcDbLine
 10
11.18340689409524
 20
2199.999999999883
 30
0.0
 11
11.18340689409524
 21
2197.999999999884
 31
0.0
  0
LINE
  5
20C
330
70
100
AcDbEntity
  8
0
  6
CENTERX2
 62
     1
100
AcDbLine
 10
11.18340689409524
 20
12.0
 30
0.0
 11
11.18340689409524
 21
10.0
 31
0.0
  0
LINE
  5
20D
330
70
100
AcDbEntity
  8
0
  6
CENTERX2
 62
     1
100
AcDbLine
 10
33.09413668466732
 20
2199.999999999883
 30
0.0
 11
33.09413668466732
 21
2193.999999999884
 31
0.0
  0
LINE
  5
20E
330
70
100
AcDbEntity
  8
0
  6
CENTERX2
 62
     1
100
AcDbLine
 10
33.09413668466732
 20
16.0
 30
0.0
 11
33.09413668466732
 21
10.0
 31
0.0
  0
LINE
  5
20F
330
70
100
AcDbEntity
  8
0
  6
CENTERX2
 62
     1
100
AcDbLine
 10
70.5487824769225
 20
16.0
 30
0.0
 11
70.5487824769225
 21
10.0
 31
0.0
  0
LINE
  5
210
330
70
100
AcDbEntity
  8
0
  6
CENTERX2
 62
     1
100
AcDbLine
 10
1120.453428268898
 20
10.0
 30
0.0
 11
1120.453428268898
 21
16.0
 31
0.0
  0
LINE
  5
211
330
70
100
AcDbEntity
  8
0
  6
CENTERX2
 62
     1
100
AcDbLine
 10
1165.758074061479
 20
10.0
 30
0.0
 11
1165.758074061479
 21
12.0
 31
0.0
  0
LINE
  5
212
330
70
100
AcDbEntity
  8
0
  6
CENTERX2
 62
     1
100
AcDbLine
 10
1165.758074061479
 20
2180.999999999884
 30
0.0
 11
1165.758074061479
 21
2182.999999999884
 31
0.0
  0
LINE
  5
213
330
70
100
AcDbEntity
  8
0
  6
CENTERX2
 62
     1
100
AcDbLine
 10
70.5487824769225
 20
2199.999999999883
 30
0.0
 11
70.5487824769225
 21
2193.999999999884
 31
0.0
  0
LINE
  5
214
330
70
100
AcDbEntity
  8
0
  6
CENTERX2
 62
     1
100
AcDbLine
 10
1120.453428268898
 20
2193.999999999884
 30
0.0
 11
1120.453428268898
 21
2199.999999999883
 31
0.0
  0
LINE
  5
215
330
70
100
AcDbEntity
  8
0
  6
CENTERX2
 62
     3
100
AcDbLine
 10
2506.230875026435
 20
10.0
 30
0.0
 11
2506.230875026435
 21
16.0
 31
0.0
  0
LINE
  5
216
330
70
100
AcDbEntity
  8
0
  6
CENTERX2
 62
     3
100
AcDbLine
 10
2506.230875026435
 20
2193.999999999884
 30
0.0
 11
2506.230875026435
 21
2199.999999999883
 31
0.0
  0
LINE
  5
217
330
70
100
AcDbEntity
  8
0
  6
CENTERX2
 62
     3
100
AcDbLine
 10
1430.706130674109
 20
2182.999999999884
 30
0.0
 11
1430.706130674109
 21
2176.999999999884
 31
0.0
  0
LINE
  5
218
330
70
100
AcDbEntity
  8
0
  6
CENTERX2
 62
     3
100
AcDbLine
 10
1430.706130674109
 20
16.0
 30
0.0
 11
1430.706130674109
 21
10.0
 31
0.0
  0
LINE
  5
219
330
70
100
AcDbEntity
  8
0
  6
CENTERX2
 62
     3
100
AcDbLine
 10
1467.262303670635
 20
2182.999999999884
 30
0.0
 11
1467.262303670635
 21
2180.999999999884
 31
0.0
  0
LINE
  5
21A
330
70
100
AcDbEntity
  8
0
  6
CENTERX2
 62
     3
100
AcDbLine
 10
1467.262303670635
 20
12.0
 30
0.0
 11
1467.262303670635
 21
10.0
 31
0.0
  0
LINE
  5
21B
330
70
100
AcDbEntity
  8
0
  6
CENTERX2
 62
     3
100
AcDbLine
 10
1455.226269347593
 20
2182.999999999884
 30
0.0
 11
1455.226269347593
 21
2176.999999999884
 31
0.0
  0
LINE
  5
21C
330
70
100
AcDbEntity
  8
0
  6
CENTERX2
 62
     3
100
AcDbLine
 10
1455.226269347593
 20
16.0
 30
0.0
 11
1455.226269347593
 21
10.0
 31
0.0
  0
LWPOLYLINE
  5
21D
330
70
100
AcDbEntity
  8
0
  6
Continuous
 62
     3
370
    25
100
AcDbPolyline
 90
        8
 70
     0
 43
0.0
 10
1472.262303670635
 20
2199.999999999883
 10
1455.426007948583
 20
2199.999999999883
 10
1455.426007948583
 20
2183.249999999884
 10
1467.557264314266
 20
2183.249999999884
 10
1467.557264314266
 20
2182.999999999884
 10
1418.722502494231
 20
2182.999999999884
 10
1418.722502494231
 20
10.0
 10
1472.262303670635
 20
10.0
  0
LWPOLYLINE
  5
21E
330
70
100
AcDbEntity
  8
0
  6
Continuous
 62
     3
370
    25
100
AcDbPolyline
 90
        3
 70
     0
 43
0.0
 10
2523.085742104333
 20
10.0
 10
2523.085742104333
 20
2199.999999999883
 10
2484.081047304906
 20
2199.999999999883
  0
LWPOLYLINE
  5
21F
330
70
100
AcDbEntity
  8
0
  6
Continuous
 62
     1
370
    25
100
AcDbPolyline
 90
        4
 70
     1
 43
0.0
 10
72.52610537293367
 20
1950.999999999883
 10
72.52610537293367
 20
2052.999999999884
 10
42.62145958072506
 20
2052.999999999884
 10
42.62145958072506
 20
1950.999999999883
  0
LWPOLYLINE
  5
220
330
70
100
AcDbEntity
  8
0
  6
Continuous
 62
     1
370
    25
100
AcDbPolyline
 90
        4
 70
     1
 43
0.0
 10
72.52610537293367
 20
950.9999999998836
 10
72.52610537293367
 20
1052.999999999883
 10
42.62145958072506
 20
1052.999999999883
 10
42.62145958072506
 20
950.9999999998836
  0
LWPOLYLINE
  5
221
330
70
100
AcDbEntity
  8
0
  6
Continuous
 62
     1
370
    25
100
AcDbPolyline
 90
        4
 70
     1
 43
0.0
 10
72.52610537293367
 20
152.9999999999127
 10
72.52610537293367
 20
254.9999999999127
 10
42.62145958072506
 20
254.9999999999127
 10
42.62145958072506
 20
152.9999999999127
  0
LWPOLYLINE
  5
222
330
70
100
AcDbEntity
  8
0
  6
Continuous
 62
     1
370
    25
100
AcDbPolyline
 90
        4
 70
     1
 43
0.0
 10
42.62145958072506
 20
1748.999999999884
 10
72.52610537293367
 20
1748.999999999884
 10
72.52610537293367
 20
1850.999999999883
 10
42.62145958072506
 20
1850.999999999883
  0
LWPOLYLINE
  5
223
330
70
100
AcDbEntity
  8
0
  6
Continuous
 62
     1
370
    25
100
AcDbPolyline
 90
        4
 70
     1
 43
0.0
 10
1130.605751165189
 20
1792.499999999883
 10
1130.605751165189
 20
1964.999999999884
 10
1155.605751165189
 20
1964.999999999884
 10
1155.605751165189
 20
1792.499999999883
  0
LWPOLYLINE
  5
224
330
70
100
AcDbEntity
  8
0
  6
Continuous
 62
     1
370
    25
100
AcDbPolyline
 90
        4
 70
     1
 43
0.0
 10
1155.605751165189
 20
417.4999999999999
 10
1155.605751165189
 20
245.0
 10
1130.605751165189
 20
245.0
 10
1130.605751165189
 20
417.4999999999999
  0
LINE
  5
225
330
70
100
AcDbEntity
  8
0
  6
CENTERX2
 62
     1
100
AcDbLine
 10
5178.181734042009
 20
2199.999999999883
 30
0.0
 11
5178.181734042009
 21
2197.999999999884
 31
0.0
  0
LINE
  5
226
330
70
100
AcDbEntity
  8
0
  6
CENTERX2
 62
     1
100
AcDbLine
 10
5178.181734042009
 20
12.0
 30
0.0
 11
5178.181734042009
 21
10.0
 31
0.0
  0
LINE
  5
227
330
70
100
AcDbEntity
  8
0
  6
CENTERX2
 62
     1
100
AcDbLine
 10
4043.549158288631
 20
10.0
 30
0.0
 11
4043.549158288631
 21
16.0
 31
0.0
  0
LINE
  5
228
330
70
100
AcDbEntity
  8
0
  6
CENTERX2
 62
     1
100
AcDbLine
 10
4043.549158288631
 20
2193.999999999884
 30
0.0
 11
4043.549158288631
 21
2199.999999999883
 31
0.0
  0
LINE
  5
229
330
70
100
AcDbEntity
  8
0
  6
CENTERX2
 62
     1
100
AcDbLine
 10
5156.27100425167
 20
2199.999999999883
 30
0.0
 11
5156.27100425167
 21
2193.999999999884
 31
0.0
  0
LINE
  5
22A
330
70
100
AcDbEntity
  8
0
  6
CENTERX2
 62
     1
100
AcDbLine
 10
5156.27100425167
 20
16.0
 30
0.0
 11
5156.27100425167
 21
10.0
 31
0.0
  0
LINE
  5
22B
330
70
100
AcDbEntity
  8
0
  6
CENTERX2
 62
     1
100
AcDbLine
 10
5118.816358459182
 20
16.0
 30
0.0
 11
5118.816358459182
 21
10.0
 31
0.0
  0
LINE
  5
22C
330
70
100
AcDbEntity
  8
0
  6
CENTERX2
 62
     1
100
AcDbLine
 10
4080.10533128539
 20
10.0
 30
0.0
 11
4080.10533128539
 21
12.0
 31
0.0
  0
LINE
  5
22D
330
70
100
AcDbEntity
  8
0
  6
CENTERX2
 62
     1
100
AcDbLine
 10
4080.10533128539
 20
2197.999999999884
 30
0.0
 11
4080.10533128539
 21
2199.999999999883
 31
0.0
  0
LINE
  5
22E
330
70
100
AcDbEntity
  8
0
  6
CENTERX2
 62
     1
100
AcDbLine
 10
4068.069296962116
 20
10.0
 30
0.0
 11
4068.069296962116
 21
16.0
 31
0.0
  0
LINE
  5
22F
330
70
100
AcDbEntity
  8
0
  6
CENTERX2
 62
     1
100
AcDbLine
 10
4068.069296962116
 20
2193.999999999884
 30
0.0
 11
4068.069296962116
 21
2199.999999999883
 31
0.0
  0
LINE
  5
230
330
70
100
AcDbEntity
  8
0
  6
CENTERX2
 62
     1
100
AcDbLine
 10
5118.816358459182
 20
2199.999999999883
 30
0.0
 11
5118.816358459182
 21
2193.999999999884
 31
0.0
  0
LWPOLYLINE
  5
231
102
{ACAD_REACTORS
330
247
102
}
330
70
100
AcDbEntity
  8
0
  6
Continuous
 62
     1
370
    25
100
AcDbPolyline
 90
       24
 70
     1
 43
0.0
 10
70.54878247668966
 20
2445.330265904544
 42
0.4142135623730951
 10
71.84878247696906
 20
2444.030265904614
 10
90.24878247687594
 20
2444.030265904614
 42
-0.9999999999999998
 10
90.24878247687594
 20
2439.430265904521
 10
79.24878247687593
 20
2439.430265904521
 10
79.24878247687593
 20
2440.730265904567
 10
90.24878247687594
 20
2440.730265904567
 42
0.9999999999999998
 10
90.24878247687594
 20
2442.730265904567
 10
71.84878247696906
 20
2442.730265904567
 42
-0.4142135623730951
 10
69.24878247687593
 20
2445.330265904544
 10
69.24878247687593
 20
2480.130265904591
 42
-0.4142135623730951
 10
71.84878247696906
 20
2482.730265904567
 10
1119.153428269084
 20
2482.730265904567
 42
-0.4142135623730951
 10
1121.753428268945
 20
2480.130265904591
 10
1121.753428268945
 20
2437.480265904568
 42
0.4142135623730951
 10
1123.053428268991
 20
2436.180265904637
 10
1143.303428268991
 20
2436.180265904521
 10
1143.303428268991
 20
2434.88026590459
 10
1123.053428268991
 20
2434.88026590459
 42
-0.4142135623730951
 10
1120.453428268898
 20
2437.480265904568
 10
1120.453428268898
 20
2480.130265904591
 42
0.4142135623730951
 10
1119.153428269084
 20
2481.430265904521
 10
71.84878247696906
 20
2481.430265904521
 42
0.4142135623730951
 10
70.54878247668966
 20
2480.130265904591
  0
LWPOLYLINE
  5
232
102
{ACAD_REACTORS
330
244
102
}
330
70
100
AcDbEntity
  8
0
  6
Continuous
 62
     3
370
    25
100
AcDbPolyline
 90
       20
 70
     1
 43
0.0
 10
1466.373051297851
 20
2463.251742070075
 42
0.0874886635186368
 10
1467.262303670402
 20
2463.094942884171
 10
2505.280875026249
 20
2463.094942884171
 42
-0.9999999999999998
 10
2505.280875026249
 20
2461.194942884147
 10
2489.081047304906
 20
2461.194942884205
 10
2489.081047304906
 20
2459.894942884159
 10
2505.280875026249
 20
2459.894942884159
 42
0.9999999999999998
 10
2505.280875026249
 20
2464.394942884159
 10
1467.262303670402
 20
2464.394942884159
 42
-0.0874886635186368
 10
1466.817677484359
 20
2464.47334247717
 10
1456.061849527526
 20
2468.388143698277
 42
0.0874886635186368
 10
1455.172597154975
 20
2468.544942884124
 10
1432.581047304906
 20
2468.544942884124
 42
0.9999999999999998
 10
1432.581047304906
 20
2464.644942884159
 10
1445.13104730472
 20
2464.644942884159
 10
1445.13104730472
 20
2465.944942884148
 10
1432.581047304906
 20
2465.944942884148
 42
-0.9999999999999998
 10
1432.581047304906
 20
2467.244942884194
 10
1455.172597154975
 20
2467.244942884194
 42
-0.0874886635186368
 10
1455.617223341483
 20
2467.166543291183
  0
LWPOLYLINE
  5
233
102
{ACAD_REACTORS
330
241
102
}
330
70
100
AcDbEntity
  8
0
  6
Continuous
 62
     3
370
    25
100
AcDbPolyline
 90
       16
 70
     1
 43
0.0
 10
3843.286702747923
 20
2459.345455073053
 42
0.4142135623730951
 10
3841.986702748109
 20
2460.6454550731
 10
2795.324512774125
 20
2460.6454550731
 42
0.9999999999999998
 10
2795.324512774125
 20
2458.745455073076
 10
2810.074512774125
 20
2458.745455073076
 10
2810.074512774125
 20
2457.445455073088
 10
2795.324512774125
 20
2457.445455073088
 42
-0.9999999999999998
 10
2795.324512774125
 20
2461.945455073088
 10
3841.986702748109
 20
2461.945455073088
 42
-0.4142135623730951
 10
3844.58670274797
 20
2459.345455073053
 10
3844.58670274797
 20
2416.695455073088
 42
0.4142135623730951
 10
3845.886702748016
 20
2415.3954550731
 10
3864.136702748016
 20
2415.3954550731
 10
3864.136702748016
 20
2414.095455073053
 10
3845.886702748016
 20
2414.095455073053
 42
-0.4142135623730951
 10
3843.286702747923
 20
2416.695455073088
  0
LINE
  5
234
330
70
100
AcDbEntity
  8
0
  6
Continuous
 62
     1
370
    25
100
AcDbLine
 10
5118.816358459182
 20
2434.460862994078
 30
0.0
 11
5118.816358459182
 21
2469.260862994008
 31
0.0
  0
LWPOLYLINE
  5
235
102
{ACAD_REACTORS
330
23E
102
}
330
70
100
AcDbEntity
  8
0
 62
     1
100
AcDbPolyline
 90
       28
 70
     0
 43
0.0
 10
5118.816358459415
 20
2434.460862994078
 42
-0.4142135623730951
 10
5117.516358459369
 20
2433.160862994031
 10
5099.116358459461
 20
2433.160862994031
 42
0.9999999999999998
 10
5099.116358459461
 20
2428.560862994054
 10
5110.116358459461
 20
2428.560862994054
 10
5110.116358459461
 20
2429.860862994043
 10
5099.116358459461
 20
2429.860862994043
 42
-0.9999999999999998
 10
5099.116358459461
 20
2431.860862994043
 10
5117.516358459369
 20
2431.860862994043
 42
0.4142135623730951
 10
5120.116358459462
 20
2434.460862994078
 10
5120.116358459462
 20
2469.260862994008
 42
0.4142135623730951
 10
5117.516358459369
 20
2471.860862994043
 10
4080.427614825079
 20
2471.860862994043
 42
-0.0874886635186368
 10
4079.982988638803
 20
2471.939262586995
 10
4069.227160682203
 20
2475.854063808103
 42
0.0874886635186368
 10
4068.337908309652
 20
2476.010862994008
 10
4045.746358459349
 20
2476.010862994008
 42
0.9999999999999998
 10
4045.746358459349
 20
2472.110862994043
 10
4058.296358459396
 20
2472.110862994043
 10
4058.296358459396
 20
2473.410862994031
 10
4045.746358459349
 20
2473.410862993973
 42
-0.9999999999999998
 10
4045.746358459349
 20
2474.710862994078
 10
4068.337908309652
 20
2474.710862994078
 42
-0.0874886635186368
 10
4068.782534495927
 20
2474.632463401067
 10
4079.538362452527
 20
2470.717662179959
 42
0.0874886635186368
 10
4080.427614825079
 20
2470.560862994054
 10
5117.516358459369
 20
2470.560862994054
 42
-0.4142135623730951
 10
5118.816358459415
 20
2469.260862994008
  0
LWPOLYLINE
  5
236
330
70
100
AcDbEntity
  8
0
  6
Continuous
 62
     1
370
    25
100
AcDbPolyline
 90
        4
 70
     1
 43
0.0
 10
4129.769035563338
 20
974.0717967697419
 42
2.527415881576048
 10
4116.769035563339
 20
974.0717967697419
 10
4116.769035563339
 20
961.0
 42
0.9999999999999998
 10
4129.769035563338
 20
961.0
  0
LWPOLYLINE
  5
237
330
70
100
AcDbEntity
  8
0
  6
Continuous
 62
     1
370
    25
100
AcDbPolyline
 90
        4
 70
     1
 43
0.0
 10
5146.921004251577
 20
1950.999999999883
 10
5146.921004251577
 20
2052.999999999884
 10
5117.016358459369
 20
2052.999999999884
 10
5117.016358459369
 20
1950.999999999883
  0
LWPOLYLINE
  5
238
330
70
100
AcDbEntity
  8
0
  6
Continuous
 62
     1
370
    25
100
AcDbPolyline
 90
        4
 70
     1
 43
0.0
 10
5146.921004251577
 20
950.9999999998836
 10
5146.921004251577
 20
1052.999999999883
 10
5117.016358459369
 20
1052.999999999883
 10
5117.016358459369
 20
950.9999999998836
  0
LWPOLYLINE
  5
239
330
70
100
AcDbEntity
  8
0
  6
Continuous
 62
     1
370
    25
100
AcDbPolyline
 90
        4
 70
     1
 43
0.0
 10
5146.921004251577
 20
152.9999999999127
 10
5146.921004251577
 20
254.9999999999127
 10
5117.016358459369
 20
254.9999999999127
 10
5117.016358459369
 20
152.9999999999127
  0
LWPOLYLINE
  5
23A
330
70
100
AcDbEntity
  8
0
  6
Continuous
 62
     1
370
    25
100
AcDbPolyline
 90
        4
 70
     1
 43
0.0
 10
5117.016358459369
 20
1748.999999999884
 10
5146.921004251577
 20
1748.999999999884
 10
5146.921004251577
 20
1850.999999999883
 10
5117.016358459369
 20
1850.999999999883
  0
MTEXT
  5
23B
330
70
100
AcDbEntity
  8
0
100
AcDbMText
 10
525.7777461465447
 20
2375.955244487152
 30
0.0
 40
51.02839514805157
 41
225.664338098315
 46
0.0
 71
     1
 72
     5
  1
A4
 73
     1
 44
1.0
101
Embedded Object
 70
     1
 10
1.0
 20
0.0
 30
0.0
 11
525.7777461465447
 21
2375.955244487152
 31
0.0
 40
225.664338098315
 41
0.0
 42
85.0473252467526
 43
51.02839514805157
 71
     2
 72
     1
 44
225.664338098315
 45
2.551419757402578
 73
     0
 74
     0
 46
0.0
  0
DIMENSION
  5
23C
102
{ACAD_XDICTIONARY
360
23D
102
}
102
{ACAD_REACTORS
330
23E
102
}
330
70
100
AcDbEntity
  8
A-DIMS-INSD
 62
     0
100
AcDbDimension
280
     0
  2
*D21
 10
5120.116358459433
 20
2540.723193584563
 30
0.0
 11
4581.956358459399
 21
2540.723193584563
 31
0.0
 70
    32
 71
     5
 42
1076.320000000065
 73
     0
 74
     0
 75
     0
  3
Sh
100
AcDbAlignedDimension
 13
4043.796358459367
 23
2474.060862994026
 33
0.0
 14
5120.116358459433
 24
2469.260862993979
 34
0.0
100
AcDbRotatedDimension
  0
DIMENSION
  5
23F
102
{ACAD_XDICTIONARY
360
240
102
}
102
{ACAD_REACTORS
330
241
102
}
330
70
100
AcDbEntity
  8
A-DIMS-INSD
 62
     0
100
AcDbDimension
280
     0
  2
*D22
 10
3844.58670274797
 20
2530.943868649542
 30
0.0
 11
3318.830607761047
 21
2530.943868649542
 31
0.0
 70
    32
 71
     5
 42
1051.512189973844
 73
     0
 74
     0
 75
     0
  3
Sh
100
AcDbAlignedDimension
 13
2793.074512774125
 23
2459.695455073088
 33
0.0
 14
3844.58670274797
 24
2459.345455073053
 34
0.0
100
AcDbRotatedDimension
  0
DIMENSION
  5
242
102
{ACAD_XDICTIONARY
360
243
102
}
102
{ACAD_REACTORS
330
244
102
}
330
70
100
AcDbEntity
  8
A-DIMS-INSD
 62
     0
100
AcDbDimension
280
     0
  2
*D23
 10
2507.530875026481
 20
2534.024636640883
 30
0.0
 11
1969.080961165717
 21
2534.024636640883
 31
0.0
 70
    32
 71
     5
 42
1076.899827721528
 73
     0
 74
     0
 75
     0
  3
Sh
100
AcDbAlignedDimension
 13
1430.631047304952
 23
2466.594942884171
 33
0.0
 14
2507.530875026481
 24
2462.144942884217
 34
0.0
100
AcDbRotatedDimension
  0
DIMENSION
  5
245
102
{ACAD_XDICTIONARY
360
246
102
}
102
{ACAD_REACTORS
330
247
102
}
330
70
100
AcDbEntity
  8
A-DIMS-INSD
 62
     0
100
AcDbDimension
280
     0
  2
*D24
 10
1121.753428268945
 20
2548.745940278808
 30
0.0
 11
595.5011053729103
 21
2548.745940278808
 31
0.0
 70
    32
 71
     5
 42
1052.504645792069
 73
     0
 74
     0
 75
     0
  3
Sh
100
AcDbAlignedDimension
 13
69.24878247687593
 23
2480.130265904533
 33
0.0
 14
1121.753428268945
 24
2480.130265904533
 34
0.0
100
AcDbRotatedDimension
  0
LWPOLYLINE
  5
248
330
70
100
AcDbEntity
  8
0
  6
Continuous
 62
     1
370
    25
100
AcDbPolyline
 90
        4
 70
     0
 43
0.0
 10
5145.043681355659
 20
10.0
 10
5189.365140936337
 20
10.0
 10
5189.365140936337
 20
2199.999999999883
 10
5112.516358459369
 20
2199.999999999883
  0
LWPOLYLINE
  5
249
330
70
100
AcDbEntity
  8
0
  6
Continuous
 62
     1
370
    25
100
AcDbPolyline
 90
        4
 70
     0
 43
0.0
 10
4085.427614825312
 20
2199.999999999883
 10
4031.565530108753
 20
2199.999999999883
 10
4031.565530108753
 20
10.0
 10
4085.427614825312
 20
10.0
  0
LWPOLYLINE
  5
24A
330
70
100
AcDbEntity
  8
0
  6
Continuous
 62
     3
370
    25
100
AcDbPolyline
 90
        4
 70
     0
 43
0.0
 10
2815.074512774125
 20
10.0
 10
2777.51964569604
 20
10.0
 10
2777.51964569604
 20
2199.999999999883
 10
2815.074512774125
 20
2199.999999999883
  0
LWPOLYLINE
  5
24B
330
70
100
AcDbEntity
  8
0
  6
Continuous
 62
     3
370
    25
100
AcDbPolyline
 90
        4
 70
     0
 43
0.0
 10
3836.986702748109
 20
2199.999999999883
 10
3909.668671436375
 20
2199.999999999883
 10
3909.668671436375
 20
10.0
 10
3874.456370789325
 20
10.0
  0
LWPOLYLINE
  5
24C
330
70
100
AcDbEntity
  8
0
  6
Continuous
 62
     1
370
    25
100
AcDbPolyline
 90
        2
 70
     0
 43
0.0
 10
59.32145958067849
 20
10.0
 10
76.84878247696906
 20
10.0
  0
LWPOLYLINE
  5
24D
330
70
100
AcDbEntity
  8
0
  6
Continuous
 62
     1
370
    25
100
AcDbPolyline
 90
        2
 70
     0
 43
0.0
 10
1114.153428269084
 20
10.0
 10
1131.680751164909
 20
10.0
  0
LWPOLYLINE
  5
24E
330
70
100
AcDbEntity
  8
0
  6
Continuous
 62
     1
370
    25
100
AcDbPolyline
 90
        6
 70
     0
 43
0.0
 10
1146.680751164909
 20
10.0
 10
1186.835396957583
 20
10.0
 10
1186.835396957583
 20
2182.999999999884
 10
1162.880751165096
 20
2182.999999999884
 10
1162.880751165096
 20
2199.999999999883
 10
1114.153428269084
 20
2199.999999999883
  0
LWPOLYLINE
  5
24F
330
70
100
AcDbEntity
  8
0
  6
Continuous
 62
     1
370
    25
100
AcDbPolyline
 90
        4
 70
     0
 43
0.0
 10
76.84878247696906
 20
2199.999999999883
 10
0.0
 20
2199.999999999883
 10
0.0
 20
10.0
 10
44.32145958067849
 20
10.0
  0
MTEXT
  5
250
330
70
100
AcDbEntity
  8
0
100
AcDbMText
 10
1882.570919570513
 20
2375.955244487152
 30
0.0
 40
51.02839514805157
 41
225.664338098315
 46
0.0
 71
     1
 72
     5
  1
A3
 73
     1
 44
1.0
101
Embedded Object
 70
     1
 10
1.0
 20
0.0
 30
0.0
 11
1882.570919570513
 21
2375.955244487152
 31
0.0
 40
225.664338098315
 41
0.0
 42
85.0473252467526
 43
51.02839514805157
 71
     2
 72
     1
 44
225.664338098315
 45
2.551419757402578
 73
     0
 74
     0
 46
0.0
  0
MTEXT
  5
251
330
70
100
AcDbEntity
  8
0
100
AcDbMText
 10
3226.115600253921
 20
2375.955244487152
 30
0.0
 40
51.02839514805157
 41
225.664338098315
 46
0.0
 71
     1
 72
     5
  1
A2
 73
     1
 44
1.0
101
Embedded Object
 70
     1
 10
1.0
 20
0.0
 30
0.0
 11
3226.115600253921
 21
2375.955244487152
 31
0.0
 40
225.664338098315
 41
0.0
 42
85.0473252467526
 43
51.02839514805157
 71
     2
 72
     1
 44
225.664338098315
 45
2.551419757402578
 73
     0
 74
     0
 46
0.0
  0
MTEXT
  5
252
330
70
100
AcDbEntity
  8
0
100
AcDbMText
 10
4456.840789554175
 20
2375.955244487152
 30
0.0
 40
51.02839514805157
 41
225.664338098315
 46
0.0
 71
     1
 72
     5
  1
A1
 73
     1
 44
1.0
101
Embedded Object
 70
     1
 10
1.0
 20
0.0
 30
0.0
 11
4456.840789554175
 21
2375.955244487152
 31
0.0
 40
225.664338098315
 41
0.0
 42
68.03786019740208
 43
51.02839514805157
 71
     2
 72
     1
 44
225.664338098315
 45
2.551419757402578
 73
     0
 74
     0
 46
0.0
  0
LWPOLYLINE
  5
253
330
70
100
AcDbEntity
  8
0
 62
     0
100
AcDbPolyline
 90
        4
 70
     1
 43
0.0
 10
4132.769035563338
 20
2471.860862994043
 10
4113.769035563339
 20
2471.860862994043
 10
4113.769035563339
 20
2470.560862994054
 10
4132.769035563338
 20
2470.560862994054
  0
LWPOLYLINE
  5
254
330
70
100
AcDbEntity
  8
0
 62
     0
100
AcDbPolyline
 90
        4
 70
     1
 43
0.0
 10
3799.059379851911
 20
2461.945455073088
 10
3780.059379851911
 20
2461.945455073088
 10
3780.059379851911
 20
2460.6454550731
 10
3799.059379851911
 20
2460.6454550731
  0
LWPOLYLINE
  5
255
330
70
100
AcDbEntity
  8
0
 62
     0
100
AcDbPolyline
 90
        4
 70
     1
 43
0.0
 10
3751.559379851912
 20
2460.6454550731
 10
3761.559379851912
 20
2460.6454550731
 10
3761.559379851912
 20
2461.94545507303
 10
3751.559379851912
 20
2461.94545507303
  0
LWPOLYLINE
  5
256
330
70
100
AcDbEntity
  8
0
 62
     0
100
AcDbPolyline
 90
        4
 70
     1
 43
0.0
 10
4161.269035563338
 20
2471.860862994043
 10
4151.269035563339
 20
2471.860862994043
 10
4151.269035563339
 20
2470.560862993997
 10
4161.269035563338
 20
2470.560862993997
  0
LWPOLYLINE
  5
257
330
70
100
AcDbEntity
  8
0
 62
     1
100
AcDbPolyline
 90
        4
 70
     0
 43
0.0
 10
44.32145958067849
 20
10.0
 10
44.32145958067849
 20
40.0
 10
59.32145958067849
 20
40.0
 10
59.32145958067849
 20
10.0
  0
LWPOLYLINE
  5
258
330
70
100
AcDbEntity
  8
0
 62
     1
100
AcDbPolyline
 90
        4
 70
     0
 43
0.0
 10
5130.043681355658
 20
10.0
 10
5130.043681355658
 20
40.0
 10
5145.043681355659
 20
40.0
 10
5145.043681355659
 20
10.0
  0
LWPOLYLINE
  5
259
330
70
100
AcDbEntity
  8
0
 62
     3
100
AcDbPolyline
 90
        4
 70
     0
 43
0.0
 10
3859.456370789325
 20
10.0
 10
3859.456370789325
 20
40.0
 10
3874.456370789325
 20
40.0
 10
3874.456370789325
 20
10.0
  0
LWPOLYLINE
  5
25A
330
70
100
AcDbEntity
  8
0
 62
     1
100
AcDbPolyline
 90
        4
 70
     0
 43
0.0
 10
1146.680751164909
 20
10.0
 10
1146.680751164909
 20
40.0
 10
1131.680751164909
 20
40.0
 10
1131.680751164909
 20
10.0
  0
LINE
  5
25B
330
70
100
AcDbEntity
  8
0
 62
     1
100
AcDbLine
 10
4085.427614825312
 20
0.0
 30
0.0
 11
4085.427614825312
 21
11.29999999998836
 31
0.0
  0
LINE
  5
25C
330
70
100
AcDbEntity
  8
0
 62
     1
100
AcDbLine
 10
4085.427614825312
 20
2198.699999999954
 30
0.0
 11
4085.427614825312
 21
2209.999999999884
 31
0.0
  0
LINE
  5
25D
330
70
100
AcDbEntity
  8
0
 62
     1
100
AcDbLine
 10
5112.516358459369
 20
0.0
 30
0.0
 11
5112.516358459369
 21
11.29999999998836
 31
0.0
  0
LINE
  5
25E
330
70
100
AcDbEntity
  8
0
 62
     1
100
AcDbLine
 10
5112.516358459369
 20
2198.699999999954
 30
0.0
 11
5112.516358459369
 21
2209.999999999884
 31
0.0
  0
LINE
  5
25F
330
70
100
AcDbEntity
  8
0
 62
     3
100
AcDbLine
 10
3836.986702748109
 20
0.0
 30
0.0
 11
3836.986702748109
 21
11.29999999998836
 31
0.0
  0
LINE
  5
260
330
70
100
AcDbEntity
  8
0
 62
     3
100
AcDbLine
 10
3836.986702748109
 20
2198.699999999954
 30
0.0
 11
3836.986702748109
 21
2209.999999999884
 31
0.0
  0
LINE
  5
261
330
70
100
AcDbEntity
  8
0
 62
     3
100
AcDbLine
 10
2815.074512774125
 20
0.0
 30
0.0
 11
2815.074512774125
 21
11.29999999998836
 31
0.0
  0
LINE
  5
262
330
70
100
AcDbEntity
  8
0
 62
     3
100
AcDbLine
 10
2815.074512774125
 20
2198.699999999954
 30
0.0
 11
2815.074512774125
 21
2209.999999999884
 31
0.0
  0
LINE
  5
263
330
70
100
AcDbEntity
  8
0
 62
     3
100
AcDbLine
 10
2484.081047304906
 20
0.0
 30
0.0
 11
2484.081047304906
 21
11.29999999998836
 31
0.0
  0
LINE
  5
264
330
70
100
AcDbEntity
  8
0
 62
     3
100
AcDbLine
 10
2484.081047304906
 20
2198.699999999954
 30
0.0
 11
2484.081047304906
 21
2209.999999999884
 31
0.0
  0
LINE
  5
265
330
70
100
AcDbEntity
  8
0
 62
     3
100
AcDbLine
 10
1472.262303670635
 20
0.0
 30
0.0
 11
1472.262303670635
 21
11.29999999998836
 31
0.0
  0
LINE
  5
266
330
70
100
AcDbEntity
  8
0
 62
     3
100
AcDbLine
 10
1472.262303670635
 20
2198.699999999954
 30
0.0
 11
1472.262303670635
 21
2209.999999999884
 31
0.0
  0
LINE
  5
267
330
70
100
AcDbEntity
  8
0
 62
     1
100
AcDbLine
 10
1114.153428269084
 20
2198.699999999954
 30
0.0
 11
1114.153428269084
 21
2209.999999999884
 31
0.0
  0
LINE
  5
268
330
70
100
AcDbEntity
  8
0
 62
     1
100
AcDbLine
 10
76.84878247696906
 20
2198.699999999954
 30
0.0
 11
76.84878247696906
 21
2209.999999999884
 31
0.0
  0
LINE
  5
269
330
70
100
AcDbEntity
  8
0
 62
     1
100
AcDbLine
 10
76.84878247696906
 20
2209.999999999884
 30
0.0
 11
1114.153428269084
 21
2209.999999999884
 31
0.0
  0
LINE
  5
26A
330
70
100
AcDbEntity
  8
0
 62
     3
100
AcDbLine
 10
1472.262303670635
 20
2209.999999999884
 30
0.0
 11
2484.081047304906
 21
2209.999999999884
 31
0.0
  0
LINE
  5
26B
330
70
100
AcDbEntity
  8
0
 62
     3
100
AcDbLine
 10
2815.074512774125
 20
2209.999999999884
 30
0.0
 11
3836.986702748109
 21
2209.999999999884
 31
0.0
  0
LINE
  5
26C
330
70
100
AcDbEntity
  8
0
 62
     1
100
AcDbLine
 10
4085.427614825312
 20
2209.999999999884
 30
0.0
 11
5112.516358459369
 21
2209.999999999884
 31
0.0
  0
LINE
  5
26D
330
70
100
AcDbEntity
  8
0
 62
     1
100
AcDbLine
 10
76.84878247696906
 20
0.0
 30
0.0
 11
1114.153428269084
 21
0.0
 31
0.0
  0
LINE
  5
26E
330
70
100
AcDbEntity
  8
0
 62
     1
100
AcDbLine
 10
76.84878247696906
 20
0.0
 30
0.0
 11
76.84878247696906
 21
11.29999999998836
 31
0.0
  0
LINE
  5
26F
330
70
100
AcDbEntity
  8
0
 62
     1
100
AcDbLine
 10
76.84878247696906
 20
2199.999999999883
 30
0.0
 11
76.84878247696906
 21
2209.999999999884
 31
0.0
  0
LINE
  5
270
330
70
100
AcDbEntity
  8
0
 62
     1
100
AcDbLine
 10
1114.153428269084
 20
0.0
 30
0.0
 11
1114.153428269084
 21
11.29999999998836
 31
0.0
  0
LINE
  5
271
330
70
100
AcDbEntity
  8
0
 62
     1
100
AcDbLine
 10
1114.153428269084
 20
2199.999999999883
 30
0.0
 11
1114.153428269084
 21
2209.999999999884
 31
0.0
  0
LINE
  5
272
330
70
100
AcDbEntity
  8
0
 62
     3
100
AcDbLine
 10
2484.081047304906
 20
0.0
 30
0.0
 11
1472.262303670635
 21
0.0
 31
0.0
  0
LINE
  5
273
330
70
100
AcDbEntity
  8
0
 62
     3
100
AcDbLine
 10
2523.085742104333
 20
10.0
 30
0.0
 11
2484.081047304906
 21
10.0
 31
0.0
  0
LINE
  5
274
330
70
100
AcDbEntity
  8
0
 62
     3
100
AcDbLine
 10
2815.074512774125
 20
0.0
 30
0.0
 11
3836.986702748109
 21
0.0
 31
0.0
  0
LINE
  5
275
330
70
100
AcDbEntity
  8
0
 62
     3
100
AcDbLine
 10
3859.456370789325
 20
10.0
 30
0.0
 11
3836.986702748109
 21
10.0
 31
0.0
  0
LINE
  5
276
330
70
100
AcDbEntity
  8
0
 62
     1
100
AcDbLine
 10
4085.427614825312
 20
0.0
 30
0.0
 11
5112.516358459369
 21
0.0
 31
0.0
  0
LINE
  5
277
330
70
100
AcDbEntity
  8
0
 62
     1
100
AcDbLine
 10
5130.043681355658
 20
10.0
 30
0.0
 11
5112.516358459369
 21
10.0
 31
0.0
  0
DIMENSION
  5
278
102
{ACAD_XDICTIONARY
360
279
102
}
102
{ACAD_REACTORS
330
27A
102
}
330
70
100
AcDbEntity
  8
A-DIMS-INSD
 62
     0
100
AcDbDimension
280
     0
  2
*D25
 10
2743.765323368833
 20
2915.711731717893
 30
0.0
 11
2832.931990035499
 21
2915.711731717893
 31
0.0
 70
    32
 71
     5
 42
7.99816869571805
 73
     0
 74
     0
 75
     0
  3
Sh
100
AcDbAlignedDimension
 13
2735.767154673114
 23
3041.899042953824
 33
0.0
 14
2743.765323368833
 24
3041.899042953824
 34
0.0
100
AcDbRotatedDimension
  0
DIMENSION
  5
27B
102
{ACAD_XDICTIONARY
360
27C
102
}
102
{ACAD_REACTORS
330
27D
102
}
330
70
100
AcDbEntity
  8
A-DIMS-INSD
 62
     0
100
AcDbDimension
280
     0
  2
*D26
 10
3799.767154673115
 20
3042.71195881255
 30
0.0
 11
3926.433821339781
 21
3042.71195881255
 31
0.0
 70
    32
 71
     5
 42
3.5
 73
     0
 74
     0
 75
     0
  3
Sh
100
AcDbAlignedDimension
 13
3796.267154673115
 23
3045.30513493612
 33
0.0
 14
3799.767154673115
 24
3045.30513493612
 34
0.0
100
AcDbRotatedDimension
  0
DIMENSION
  5
27E
102
{ACAD_XDICTIONARY
360
27F
102
}
102
{ACAD_REACTORS
330
280
102
}
330
70
100
AcDbEntity
  8
A-DIMS-INSD
 62
     0
100
AcDbDimension
280
     0
  2
*D27
 10
1679.767154673114
 20
3035.134268222377
 30
0.0
 11
1553.100488006448
 21
3035.134268222377
 31
0.0
 70
    32
 71
     5
 42
3.50000000023283
 73
     0
 74
     0
 75
     0
  3
Sh
100
AcDbAlignedDimension
 13
1683.267154673347
 23
3045.824042953784
 33
0.0
 14
1679.767154673114
 24
3045.824042953784
 34
0.0
100
AcDbRotatedDimension
  0
MTEXT
  5
281
330
70
100
AcDbEntity
  8
0
100
AcDbMText
 10
3185.086784690619
 20
3144.226549645653
 30
0.0
 40
50.0
 41
13802.56349596008
 46
0.0
 71
     1
 72
     5
  1
A1
 73
     1
 44
1.0
101
Embedded Object
 70
     1
 10
1.0
 20
0.0
 30
0.0
 11
3185.086784690619
 21
3144.226549645653
 31
0.0
 40
13802.56349596008
 41
0.0
 42
66.66666666666666
 43
50.0
 71
     2
 72
     1
 44
13802.56349596008
 45
2.957382552968207
 73
     0
 74
     0
 46
0.0
  0
MTEXT
  5
282
330
70
100
AcDbEntity
  8
0
100
AcDbMText
 10
3185.086784690619
 20
2999.659150731517
 30
0.0
 40
50.0
 41
13802.56349596008
 46
0.0
 71
     1
 72
     5
  1
A2
 73
     1
 44
1.0
101
Embedded Object
 70
     1
 10
1.0
 20
0.0
 30
0.0
 11
3185.086784690619
 21
2999.659150731517
 31
0.0
 40
13802.56349596008
 41
0.0
 42
83.33333333333333
 43
50.0
 71
     2
 72
     1
 44
13802.56349596008
 45
2.957382552968207
 73
     0
 74
     0
 46
0.0
  0
MTEXT
  5
283
330
70
100
AcDbEntity
  8
0
100
AcDbMText
 10
2236.822761256248
 20
3144.226549645653
 30
0.0
 40
50.0
 41
13802.56349596008
 46
0.0
 71
     1
 72
     5
  1
A4
 73
     1
 44
1.0
101
Embedded Object
 70
     1
 10
1.0
 20
0.0
 30
0.0
 11
2236.822761256248
 21
3144.226549645653
 31
0.0
 40
13802.56349596008
 41
0.0
 42
83.33333333333332
 43
50.0
 71
     2
 72
     1
 44
13802.56349596008
 45
2.957382552968207
 73
     0
 74
     0
 46
0.0
  0
MTEXT
  5
284
330
70
100
AcDbEntity
  8
0
100
AcDbMText
 10
2236.822761256248
 20
2999.659150731517
 30
0.0
 40
50.0
 41
13802.56349596008
 46
0.0
 71
     1
 72
     5
  1
A3
 73
     1
 44
1.0
101
Embedded Object
 70
     1
 10
1.0
 20
0.0
 30
0.0
 11
2236.822761256248
 21
2999.659150731517
 31
0.0
 40
13802.56349596008
 41
0.0
 42
83.33333333333333
 43
50.0
 71
     2
 72
     1
 44
13802.56349596008
 45
2.957382552968207
 73
     0
 74
     0
 46
0.0
  0
CIRCLE
  5
285
330
70
100
AcDbEntity
  8
0
  6
Continuous
370
    25
100
AcDbCircle
 10
3808.619379851734
 20
1052.900000000023
 30
0.0
 40
3.500000000000055
1001
AcDbBlockRepETag
1070
     1
1071
       21
1005
0
  0
CIRCLE
  5
286
330
70
100
AcDbEntity
  8
0
  6
Continuous
370
    25
100
AcDbCircle
 10
3770.619379851734
 20
1052.900000000023
 30
0.0
 40
3.5
1001
AcDbBlockRepETag
1070
     1
1071
       22
1005
0
  0
CIRCLE
  5
287
330
70
100
AcDbEntity
  8
0
100
AcDbCircle
 10
3789.619379851735
 20
1052.900000000023
 30
0.0
 40
11.0
1001
AcDbBlockRepETag
1070
     1
1071
      229
1005
0
  0
LWPOLYLINE
  5
288
330
70
100
AcDbEntity
  8
0
100
AcDbPolyline
 90
        4
 70
     1
 43
0.0
 10
3782.119379851734
 20
972.2820424718666
 10
3782.119379851734
 20
960.8287809416069
 42
0.9999999999999998
 10
3797.119379851734
 20
960.8287809416069
 10
3797.119379851734
 20
972.2820424718666
 42
2.539565129295556
1001
AcDbBlockRepETag
1070
     1
1071
      231
1005
0
  0
LWPOLYLINE
  5
289
330
70
100
AcDbEntity
  8
0
100
AcDbPolyline
 90
        4
 70
     1
 43
0.0
 10
3879.516370789381
 20
1151.050000000046
 10
3855.016370789381
 20
1151.050000000046
 10
3855.016370789381
 20
915.75
 10
3879.516370789381
 20
915.75
1001
AcDbBlockRepETag
1070
     1
1071
       20
1005
0
  0
LWPOLYLINE
  5
28A
330
70
100
AcDbEntity
  8
0
100
AcDbPolyline
 90
        8
 70
     1
 43
0.0
 10
1154.172820261214
 20
1047.400000000023
 10
1154.172820261214
 20
955.1500000000233
 10
1129.672820261214
 20
955.1500000000233
 10
1129.672820261214
 20
1125.650000000023
 10
1154.172820261214
 20
1125.650000000023
 10
1154.172820261214
 20
1113.400000000023
 10
1162.500143154524
 20
1113.400000000023
 10
1162.500143154524
 20
1047.400000000023
1001
AcDbBlockRepETag
1070
     1
1071
      200
1005
0
  0
ENDSEC
  0
SECTION
  2
OBJECTS
  0
DICTIONARY
  5
C
330
0
100
AcDbDictionary
281
     1
  3
ACAD_CIP_PREVIOUS_PRODUCT_INFO
350
7B
  3
ACAD_COLOR
350
63
  3
ACAD_DETAILVIEWSTYLE
350
6A
  3
ACAD_GROUP
350
D
  3
ACAD_LAYOUT
350
62
  3
ACAD_MATERIAL
350
10
  3
ACAD_MLEADERSTYLE
350
66
  3
ACAD_MLINESTYLE
350
5F
  3
ACAD_PLOTSETTINGS
350
61
  3
ACAD_PLOTSTYLENAME
350
E
  3
ACAD_SCALELIST
350
42
  3
ACAD_SECTIONVIEWSTYLE
350
68
  3
ACAD_TABLESTYLE
350
64
  3
ACAD_VISUALSTYLE
350
29
  3
ACDB_RECOMPOSE_DATA
350
35F
  3
ACDBVARIABLEDICTIONARY
350
133
  0
DICTIONARY
  5
12F
330
2
100
AcDbDictionary
280
     1
281
     1
  3
ACAD_LAYERSTATES
360
130
  0
DICTIONARY
  5
127
330
126
100
AcDbDictionary
280
     1
281
     1
  0
DICTIONARY
  5
1FC
330
1FB
100
AcDbDictionary
280
     1
281
     1
  3
ACAD_DIMASSOC
360
1FD
  0
DICTIONARY
  5
1FF
330
1FE
100
AcDbDictionary
280
     1
281
     1
  3
ACAD_DIMASSOC
360
200
  0
DICTIONARY
  5
203
330
202
100
AcDbDictionary
280
     1
281
     1
  3
ACAD_DIMASSOC
360
204
  0
DICTIONARY
  5
23D
330
23C
100
AcDbDictionary
280
     1
281
     1
  3
ACAD_DIMASSOC
360
23E
  0
DICTIONARY
  5
240
330
23F
100
AcDbDictionary
280
     1
281
     1
  3
ACAD_DIMASSOC
360
241
  0
DICTIONARY
  5
243
330
242
100
AcDbDictionary
280
     1
281
     1
  3
ACAD_DIMASSOC
360
244
  0
DICTIONARY
  5
246
330
245
100
AcDbDictionary
280
     1
281
     1
  3
ACAD_DIMASSOC
360
247
  0
DICTIONARY
  5
279
330
278
100
AcDbDictionary
280
     1
281
     1
  3
ACAD_DIMASSOC
360
27A
  0
DICTIONARY
  5
27C
330
27B
100
AcDbDictionary
280
     1
281
     1
  3
ACAD_DIMASSOC
360
27D
  0
DICTIONARY
  5
27F
330
27E
100
AcDbDictionary
280
     1
281
     1
  3
ACAD_DIMASSOC
360
280
  0
XRECORD
  5
7B
102
{ACAD_REACTORS
330
C
102
}
330
C
100
AcDbXrecord
280
     1
300
ACD
300
2022
300

  0
DICTIONARY
  5
63
102
{ACAD_REACTORS
330
C
102
}
330
C
100
AcDbDictionary
281
     1
  0
DICTIONARY
  5
6A
102
{ACAD_REACTORS
330
C
102
}
330
C
100
AcDbDictionary
281
     1
  3
Imperial24
350
6B
  3
Metric50
350
132
  0
DICTIONARY
  5
D
102
{ACAD_REACTORS
330
C
102
}
330
C
100
AcDbDictionary
281
     1
  0
DICTIONARY
  5
62
102
{ACAD_REACTORS
330
C
102
}
330
C
100
AcDbDictionary
281
     1
  3
Layout1
350
6F
  3
Layout2
350
77
  3
Model
350
73
  0
DICTIONARY
  5
10
102
{ACAD_REACTORS
330
C
102
}
330
C
100
AcDbDictionary
281
     1
  3
ByBlock
350
19
  3
ByLayer
350
11
  3
Global
350
21
  0
DICTIONARY
  5
66
102
{ACAD_REACTORS
330
C
102
}
330
C
100
AcDbDictionary
281
     1
  3
Standard
350
67
  0
DICTIONARY
  5
5F
102
{ACAD_REACTORS
330
C
102
}
330
C
100
AcDbDictionary
281
     1
  3
Standard
350
60
  0
DICTIONARY
  5
61
102
{ACAD_REACTORS
330
C
102
}
330
C
100
AcDbDictionary
281
     1
  0
ACDBDICTIONARYWDFLT
  5
E
102
{ACAD_REACTORS
330
C
102
}
330
C
100
AcDbDictionary
281
     1
  3
Normal
350
F
100
AcDbDictionaryWithDefault
340
F
  0
DICTIONARY
  5
42
102
{ACAD_REACTORS
330
C
102
}
330
C
100
AcDbDictionary
281
     1
  3
A0
350
43
  3
A1
350
44
  3
A2
350
45
  3
A3
350
46
  3
A4
350
47
  3
A5
350
48
  3
A6
350
49
  3
A7
350
4A
  3
A8
350
4B
  3
A9
350
4C
  3
B0
350
4D
  3
B1
350
4E
  3
B2
350
4F
  3
B3
350
50
  3
B4
350
51
  3
B5
350
52
  3
B6
350
53
  0
DICTIONARY
  5
68
102
{ACAD_REACTORS
330
C
102
}
330
C
100
AcDbDictionary
281
     1
  3
Imperial24
350
69
  3
Metric50
350
131
  0
DICTIONARY
  5
64
102
{ACAD_REACTORS
330
C
102
}
330
C
100
AcDbDictionary
281
     1
  3
Standard
350
65
  0
DICTIONARY
  5
29
102
{ACAD_REACTORS
330
C
102
}
330
C
100
AcDbDictionary
281
     1
  3
2dWireframe
350
2F
  3
3dWireframe
350
12E
  3
Basic
350
2E
  3
Brighten
350
35
  3
ColorChange
350
39
  3
Conceptual
350
32
  3
Dim
350
34
  3
EdgeColorOff
350
41
  3
Facepattern
350
38
  3
Flat
350
2A
  3
FlatWithEdges
350
2B
  3
Gouraud
350
2C
  3
GouraudWithEdges
350
2D
  3
Hidden
350
31
  3
JitterOff
350
3F
  3
Linepattern
350
37
  3
OverhangOff
350
40
  3
Realistic
350
33
  3
Shaded
350
3E
  3
Shaded with edges
350
3D
  3
Shades of Gray
350
3A
  3
Sketchy
350
3B
  3
Thicken
350
36
  3
Wireframe
350
30
  3
X-Ray
350
3C
  0
XRECORD
  5
35F
102
{ACAD_REACTORS
330
C
102
}
330
C
100
AcDbXrecord
280
     1
 90
        1
330
65
  0
DICTIONARY
  5
133
102
{ACAD_REACTORS
330
C
102
}
330
C
100
AcDbDictionary
281
     2
  3
#COMPAREDIFFTOTAL
350
134
  3
#REVCLOUDAPPROXARCLEN
350
135
  3
ANNOALLVISIBLE
350
136
  3
CANNOSCALE
350
137
  3
CMLEADERSTYLE
350
138
  3
CTABLESTYLE
350
139
  3
CVIEWDETAILSTYLE
350
13A
  3
CVIEWSECTIONSTYLE
350
13B
  3
DIMADEC
350
13C
  3
DIMASSOC
350
13D
  3
DIMLAYER
350
13E
  3
EXPORTPAPERSPACE
350
13F
  3
HIDETEXT
350
140
  3
HPCOLOR
350
141
  3
HPINHERIT
350
142
  3
HPLAYER
350
143
  3
HPORIGIN
350
144
  3
HPTRANSPARENCY
350
145
  3
INDEXCTL
350
146
  3
LAYEREVAL
350
147
  3
LAYERNOTIFY
350
148
  3
LIGHTINGUNITS
350
149
  3
MLEADERSCALE
350
14A
  3
MSLTSCALE
350
14B
  3
OLEFRAME
350
14C
  3
PDFFRAME
350
14D
  3
SOLIDHIST
350
14E
  3
SORTENTS
350
14F
  3
TEXTLAYER
350
150
  0
DICTIONARY
  5
130
102
{ACAD_REACTORS
330
12F
102
}
330
12F
100
AcDbDictionary
281
     1
  0
DIMASSOC
  5
1FD
102
{ACAD_REACTORS
330
1FC
102
}
330
1FC
100
AcDbDimAssoc
330
1FB
 90
        3
 70
     0
 71
     0
  1
AcDbOsnapPointRef
 72
     2
331
1F5
 73
     2
 91
        1
 40
0.5
 10
0.0
 20
0.0
 30
0.0
 75
     0
  1
AcDbOsnapPointRef
 72
     8
331
1F5
 73
     2
 91
        5
 40
0.1008403361344538
 10
0.0
 20
0.0
 30
0.0
 75
     1
  1
AcDbOsnapPointRef
 72
     2
331
1F5
 73
     2
 91
        1
 40
0.5
 10
0.0
 20
0.0
 30
0.0
 75
     0
  0
DIMASSOC
  5
200
102
{ACAD_REACTORS
330
1FF
102
}
330
1FF
100
AcDbDimAssoc
330
1FE
 90
        2
 70
     0
 71
     0
  1
AcDbOsnapPointRef
 72
     2
331
1F6
 73
     2
 91
        1
 40
0.5
 10
0.0
 20
0.0
 30
0.0
 75
     0
  0
DIMASSOC
  5
204
102
{ACAD_REACTORS
330
203
102
}
330
203
100
AcDbDimAssoc
330
202
 90
        3
 70
     0
 71
     0
  1
AcDbOsnapPointRef
 72
    13
331
1F6
 73
     2
 91
        5
 40
0.0
 10
0.0
 20
0.0
 30
2.000000000000000E+50
 75
     0
  1
AcDbOsnapPointRef
 72
    13
331
1F6
 73
     2
 91
        2
 40
0.0
 10
0.0
 20
0.0
 30
2.000000000000000E+50
 75
     0
  0
DIMASSOC
  5
23E
102
{ACAD_REACTORS
330
23D
102
}
330
23D
100
AcDbDimAssoc
330
23C
 90
        3
 70
     0
 71
     0
  1
AcDbOsnapPointRef
 72
     5
331
235
 73
     2
 91
       17
 40
3.141592653589793
 10
0.0
 20
0.0
 30
0.0
 75
     0
  1
AcDbOsnapPointRef
 72
     1
331
235
 73
     2
 91
       10
 40
1.0
 10
0.0
 20
0.0
 30
2.000000000000000E+50
 75
     0
  0
DIMASSOC
  5
241
102
{ACAD_REACTORS
330
240
102
}
330
240
100
AcDbDimAssoc
330
23F
 90
        3
 70
     0
 71
     0
  1
AcDbOsnapPointRef
 72
     2
331
233
 73
     2
 91
        7
 40
3.141592653589793
 10
0.0
 20
0.0
 30
0.0
 75
     0
  1
AcDbOsnapPointRef
 72
    13
331
233
 73
     2
 91
       10
 40
0.0
 10
0.0
 20
0.0
 30
2.000000000000000E+50
 75
     0
  0
DIMASSOC
  5
244
102
{ACAD_REACTORS
330
243
102
}
330
243
100
AcDbDimAssoc
330
242
 90
        1
 70
     0
 71
     0
  1
AcDbOsnapPointRef
 72
     2
331
232
 73
     2
 91
       13
 40
3.141592653604718
 10
0.0
 20
0.0
 30
0.0
 75
     0
  0
DIMASSOC
  5
247
102
{ACAD_REACTORS
330
246
102
}
330
246
100
AcDbDimAssoc
330
245
 90
        1
 70
     0
 71
     0
  1
AcDbOsnapPointRef
 72
     5
331
231
 73
     2
 91
       11
 40
3.141592653589793
 10
0.0
 20
0.0
 30
0.0
 75
     0
  0
DIMASSOC
  5
27A
102
{ACAD_REACTORS
330
279
102
}
330
279
100
AcDbDimAssoc
330
278
 90
        3
 70
     0
 71
     0
  1
AcDbOsnapPointRef
 72
     2
331
1F1
 73
     2
 91
       14
 40
0.4999999999993177
 10
0.0
 20
0.0
 30
0.0
 75
     0
  1
AcDbOsnapPointRef
 72
     8
331
1F3
 73
     2
 91
       10
 40
0.4331770222749083
 10
0.0
 20
0.0
 30
0.0
 75
     1
  1
AcDbOsnapPointRef
 72
     2
331
1F1
 73
     2
 91
       14
 40
0.4999999999993177
 10
0.0
 20
0.0
 30
0.0
 75
     0
  0
DIMASSOC
  5
27D
102
{ACAD_REACTORS
330
27C
102
}
330
27C
100
AcDbDimAssoc
330
27B
 90
        2
 70
     0
 71
     0
  1
AcDbOsnapPointRef
 72
     8
331
1F6
 73
     2
 91
        5
 40
0.3280488742454791
 10
0.0
 20
0.0
 30
0.0
 75
     1
  1
AcDbOsnapPointRef
 72
     0
 40
0.0
 10
1197373.725164213
 20
264877.0409833988
 30
0.0
 75
     0
  0
DIMASSOC
  5
280
102
{ACAD_REACTORS
330
27F
102
}
330
27F
100
AcDbDimAssoc
330
27E
 90
        2
 70
     0
 71
     0
  1
AcDbOsnapPointRef
 72
     8
331
1F5
 73
     2
 91
        5
 40
0.3193277310914587
 10
0.0
 20
0.0
 30
0.0
 75
     1
  1
AcDbOsnapPointRef
 72
     0
 40
0.0
 10
1195460.725164213
 20
264877.5598914165
 30
0.0
 75
     0
  0
ACDBDETAILVIEWSTYLE
  5
6B
102
{ACAD_REACTORS
330
6A
102
}
330
6A
100
AcDbModelDocViewStyle
 70
     0
  3
Imperial24
290
     1
300
Imperial24
 90
        0
100
AcDbDetailViewStyle
 70
     0
 71
     0
 90
        3
 71
     1
340
55
 62
   256
 40
0.24
340
0
 62
   256
 40
0.24
300

 40
0.36
280
     3
 71
     2
340
5D
 90
       25
 62
   256
 71
     3
340
55
 62
   256
 40
0.24
 90
        1
 40
0.75
 90
        1
300
%<\AcVar ViewType \f "%tc1">% %<\AcVar ViewDetailId>%\PSCALE %<\AcVar ViewScale \f "%sn">%
 71
     4
340
5D
 90
       25
 62
   256
340
5D
 90
       25
 62
   256
280
     0
  0
ACDBDETAILVIEWSTYLE
  5
132
102
{ACAD_REACTORS
330
6A
102
}
330
6A
100
AcDbModelDocViewStyle
 70
     0
  3
Metric50
290
     0
300
Metric50
 90
        0
100
AcDbDetailViewStyle
 70
     0
 71
     0
 90
        3
 71
     1
340
55
 62
   256
 40
5.0
340
0
 62
   256
 40
5.0
300

 40
0.0
280
     1
 71
     2
340
5D
 90
       25
 62
   256
 71
     3
340
55
 62
   256
 40
5.0
 90
        0
 40
15.0
 90
        1
300
%<\AcVar ViewDetailId>% (%<\AcVar ViewScale \f "%sn">%)
 71
     4
340
5D
 90
       25
 62
   256
340
5D
 90
       25
 62
   256
280
     0
  0
LAYOUT
  5
6F
102
{ACAD_REACTORS
330
62
102
}
330
62
100
AcDbPlotSettings
  1

  2
RICOH MP C2004ex
  4

  6

 40
0.0
 41
0.0
 42
0.0
 43
0.0
 44
0.0
 45
0.0
 46
0.0
 47
0.0
 48
0.0
 49
0.0
140
0.0
141
0.0
142
1.0
143
1.0
 70
   688
 72
     0
 73
     0
 74
     5
  7

 75
    16
147
1.0
 76
     0
 77
     2
 78
   300
148
0.0
149
0.0
100
AcDbLayout
  1
Layout1
 70
     1
 71
     1
 10
0.0
 20
0.0
 11
12.0
 21
9.0
 12
0.0
 22
0.0
 32
0.0
 14
1.000000000000000E+20
 24
1.000000000000000E+20
 34
1.000000000000000E+20
 15
-1.000000000000000E+20
 25
-1.000000000000000E+20
 35
-1.000000000000000E+20
146
0.0
 13
0.0
 23
0.0
 33
0.0
 16
1.0
 26
0.0
 36
0.0
 17
0.0
 27
1.0
 37
0.0
 76
     0
330
6C
  0
LAYOUT
  5
77
102
{ACAD_REACTORS
330
62
102
}
330
62
100
AcDbPlotSettings
  1

  2
RICOH MP C2004ex
  4

  6

 40
0.0
 41
0.0
 42
0.0
 43
0.0
 44
0.0
 45
0.0
 46
0.0
 47
0.0
 48
0.0
 49
0.0
140
0.0
141
0.0
142
1.0
143
1.0
 70
   688
 72
     0
 73
     0
 74
     5
  7

 75
    16
147
1.0
 76
     0
 77
     2
 78
   300
148
0.0
149
0.0
100
AcDbLayout
  1
Layout2
 70
     1
 71
     2
 10
0.0
 20
0.0
 11
12.0
 21
9.0
 12
0.0
 22
0.0
 32
0.0
 14
0.0
 24
0.0
 34
0.0
 15
0.0
 25
0.0
 35
0.0
146
0.0
 13
0.0
 23
0.0
 33
0.0
 16
1.0
 26
0.0
 36
0.0
 17
0.0
 27
1.0
 37
0.0
 76
     0
330
74
  0
LAYOUT
  5
73
102
{ACAD_REACTORS
330
62
102
}
330
62
100
AcDbPlotSettings
  1

  2
RICOH MP C2004ex
  4

  6

 40
0.0
 41
0.0
 42
0.0
 43
0.0
 44
0.0
 45
0.0
 46
0.0
 47
0.0
 48
0.0
 49
0.0
140
0.0
141
0.0
142
1.0
143
1.0
 70
  1712
 72
     0
 73
     0
 74
     0
  7

 75
     0
147
1.0
 76
     0
 77
     2
 78
   300
148
0.0
149
0.0
100
AcDbLayout
  1
Model
 70
     1
 71
     0
 10
0.0
 20
0.0
 11
12.0
 21
9.0
 12
0.0
 22
0.0
 32
0.0
 14
0.0
 24
0.0
 34
0.0
 15
0.0
 25
0.0
 35
0.0
146
0.0
 13
0.0
 23
0.0
 33
0.0
 16
1.0
 26
0.0
 36
0.0
 17
0.0
 27
1.0
 37
0.0
 76
     0
330
70
331
57
  0
MATERIAL
  5
19
102
{ACAD_XDICTIONARY
360
1A
102
}
102
{ACAD_REACTORS
330
10
102
}
330
10
100
AcDbMaterial
  1
ByBlock
 72
     0
 43
0.0208333333333333
 43
0.0
 43
0.0
 43
0.0
 43
0.0
 43
0.0208333333333333
 43
0.0
 43
0.0
 43
0.0
 43
0.0
 43
1.0
 43
0.0
 43
0.0
 43
0.0
 43
0.0
 43
1.0
 77
     0
 47
0.0208333333333333
 47
0.0
 47
0.0
 47
0.0
 47
0.0
 47
0.0208333333333333
 47
0.0
 47
0.0
 47
0.0
 47
0.0
 47
1.0
 47
0.0
 47
0.0
 47
0.0
 47
0.0
 47
1.0
171
     0
 49
0.0208333333333333
 49
0.0
 49
0.0
 49
0.0
 49
0.0
 49
0.0208333333333333
 49
0.0
 49
0.0
 49
0.0
 49
0.0
 49
1.0
 49
0.0
 49
0.0
 49
0.0
 49
0.0
 49
1.0
175
     0
142
0.0208333333333333
142
0.0
142
0.0
142
0.0
142
0.0
142
0.0208333333333333
142
0.0
142
0.0
142
0.0
142
0.0
142
1.0
142
0.0
142
0.0
142
0.0
142
0.0
142
1.0
179
     0
144
0.0208333333333333
144
0.0
144
0.0
144
0.0
144
0.0
144
0.0208333333333333
144
0.0
144
0.0
144
0.0
144
0.0
144
1.0
144
0.0
144
0.0
144
0.0
144
0.0
144
1.0
147
0.0208333333333333
147
0.0
147
0.0
147
0.0
147
0.0
147
0.0208333333333333
147
0.0
147
0.0
147
0.0
147
0.0
147
1.0
147
0.0
147
0.0
147
0.0
147
0.0
147
1.0
  0
MATERIAL
  5
11
102
{ACAD_XDICTIONARY
360
12
102
}
102
{ACAD_REACTORS
330
10
102
}
330
10
100
AcDbMaterial
  1
ByLayer
 72
     0
 43
0.0208333333333333
 43
0.0
 43
0.0
 43
0.0
 43
0.0
 43
0.0208333333333333
 43
0.0
 43
0.0
 43
0.0
 43
0.0
 43
1.0
 43
0.0
 43
0.0
 43
0.0
 43
0.0
 43
1.0
 77
     0
 47
0.0208333333333333
 47
0.0
 47
0.0
 47
0.0
 47
0.0
 47
0.0208333333333333
 47
0.0
 47
0.0
 47
0.0
 47
0.0
 47
1.0
 47
0.0
 47
0.0
 47
0.0
 47
0.0
 47
1.0
171
     0
 49
0.0208333333333333
 49
0.0
 49
0.0
 49
0.0
 49
0.0
 49
0.0208333333333333
 49
0.0
 49
0.0
 49
0.0
 49
0.0
 49
1.0
 49
0.0
 49
0.0
 49
0.0
 49
0.0
 49
1.0
175
     0
142
0.0208333333333333
142
0.0
142
0.0
142
0.0
142
0.0
142
0.0208333333333333
142
0.0
142
0.0
142
0.0
142
0.0
142
1.0
142
0.0
142
0.0
142
0.0
142
0.0
142
1.0
179
     0
144
0.0208333333333333
144
0.0
144
0.0
144
0.0
144
0.0
144
0.0208333333333333
144
0.0
144
0.0
144
0.0
144
0.0
144
1.0
144
0.0
144
0.0
144
0.0
144
0.0
144
1.0
147
0.0208333333333333
147
0.0
147
0.0
147
0.0
147
0.0
147
0.0208333333333333
147
0.0
147
0.0
147
0.0
147
0.0
147
1.0
147
0.0
147
0.0
147
0.0
147
0.0
147
1.0
  0
MATERIAL
  5
21
102
{ACAD_XDICTIONARY
360
22
102
}
102
{ACAD_REACTORS
330
10
102
}
330
10
100
AcDbMaterial
  1
Global
 72
     0
 43
0.0208333333333333
 43
0.0
 43
0.0
 43
0.0
 43
0.0
 43
0.0208333333333333
 43
0.0
 43
0.0
 43
0.0
 43
0.0
 43
1.0
 43
0.0
 43
0.0
 43
0.0
 43
0.0
 43
1.0
 77
     0
 47
0.0208333333333333
 47
0.0
 47
0.0
 47
0.0
 47
0.0
 47
0.0208333333333333
 47
0.0
 47
0.0
 47
0.0
 47
0.0
 47
1.0
 47
0.0
 47
0.0
 47
0.0
 47
0.0
 47
1.0
171
     0
 49
0.0208333333333333
 49
0.0
 49
0.0
 49
0.0
 49
0.0
 49
0.0208333333333333
 49
0.0
 49
0.0
 49
0.0
 49
0.0
 49
1.0
 49
0.0
 49
0.0
 49
0.0
 49
0.0
 49
1.0
175
     0
142
0.0208333333333333
142
0.0
142
0.0
142
0.0
142
0.0
142
0.0208333333333333
142
0.0
142
0.0
142
0.0
142
0.0
142
1.0
142
0.0
142
0.0
142
0.0
142
0.0
142
1.0
179
     0
144
0.0208333333333333
144
0.0
144
0.0
144
0.0
144
0.0
144
0.0208333333333333
144
0.0
144
0.0
144
0.0
144
0.0
144
1.0
144
0.0
144
0.0
144
0.0
144
0.0
144
1.0
147
0.0208333333333333
147
0.0
147
0.0
147
0.0
147
0.0
147
0.0208333333333333
147
0.0
147
0.0
147
0.0
147
0.0
147
1.0
147
0.0
147
0.0
147
0.0
147
0.0
147
1.0
  0
MLEADERSTYLE
  5
67
102
{ACAD_REACTORS
330
66
102
}
330
66
100
AcDbMLeaderStyle
179
     2
170
     2
171
     1
172
     0
 90
        2
 40
0.0
 41
0.0
173
     1
 91
-1056964608
340
5B
 92
       -2
290
     1
 42
0.09
291
     1
 43
0.36
  3
Standard
 44
0.18
300

342
55
174
     1
178
     6
175
     1
176
     0
 93
-1056964608
 45
0.18
292
     0
297
     0
 46
0.18
 94
-1056964608
 47
1.0
 49
1.0
140
1.0
293
     1
141
0.0
294
     1
177
     0
142
1.0
295
     1
296
     0
143
0.125
271
     0
272
     9
273
     9
298
     1
  0
MLINESTYLE
  5
60
102
{ACAD_REACTORS
330
5F
102
}
330
5F
100
AcDbMlineStyle
  2
STANDARD
 70
     0
  3

 62
   256
 51
90.0
 52
90.0
 71
     2
 49
0.5
 62
   256
  6
BYLAYER
 49
-0.5
 62
   256
  6
BYLAYER
  0
ACDBPLACEHOLDER
  5
F
102
{ACAD_REACTORS
330
E
102
}
330
E
  0
SCALE
  5
43
102
{ACAD_REACTORS
330
42
102
}
330
42
100
AcDbScale
 70
     0
300
1:1
140
1.0
141
1.0
290
     1
  0
SCALE
  5
44
102
{ACAD_REACTORS
330
42
102
}
330
42
100
AcDbScale
 70
     0
300
1/128" = 1'-0"
140
0.0078125
141
12.0
290
     0
  0
SCALE
  5
45
102
{ACAD_REACTORS
330
42
102
}
330
42
100
AcDbScale
 70
     0
300
1/64" = 1'-0"
140
0.015625
141
12.0
290
     0
  0
SCALE
  5
46
102
{ACAD_REACTORS
330
42
102
}
330
42
100
AcDbScale
 70
     0
300
1/32" = 1'-0"
140
0.03125
141
12.0
290
     0
  0
SCALE
  5
47
102
{ACAD_REACTORS
330
42
102
}
330
42
100
AcDbScale
 70
     0
300
1/16" = 1'-0"
140
0.0625
141
12.0
290
     0
  0
SCALE
  5
48
102
{ACAD_REACTORS
330
42
102
}
330
42
100
AcDbScale
 70
     0
300
3/32" = 1'-0"
140
0.09375
141
12.0
290
     0
  0
SCALE
  5
49
102
{ACAD_REACTORS
330
42
102
}
330
42
100
AcDbScale
 70
     0
300
1/8" = 1'-0"
140
0.125
141
12.0
290
     0
  0
SCALE
  5
4A
102
{ACAD_REACTORS
330
42
102
}
330
42
100
AcDbScale
 70
     0
300
3/16" = 1'-0"
140
0.1875
141
12.0
290
     0
  0
SCALE
  5
4B
102
{ACAD_REACTORS
330
42
102
}
330
42
100
AcDbScale
 70
     0
300
1/4" = 1'-0"
140
0.25
141
12.0
290
     0
  0
SCALE
  5
4C
102
{ACAD_REACTORS
330
42
102
}
330
42
100
AcDbScale
 70
     0
300
3/8" = 1'-0"
140
0.375
141
12.0
290
     0
  0
SCALE
  5
4D
102
{ACAD_REACTORS
330
42
102
}
330
42
100
AcDbScale
 70
     0
300
1/2" = 1'-0"
140
0.5
141
12.0
290
     0
  0
SCALE
  5
4E
102
{ACAD_REACTORS
330
42
102
}
330
42
100
AcDbScale
 70
     0
300
3/4" = 1'-0"
140
0.75
141
12.0
290
     0
  0
SCALE
  5
4F
102
{ACAD_REACTORS
330
42
102
}
330
42
100
AcDbScale
 70
     0
300
1" = 1'-0"
140
1.0
141
12.0
290
     0
  0
SCALE
  5
50
102
{ACAD_REACTORS
330
42
102
}
330
42
100
AcDbScale
 70
     0
300
1-1/2" = 1'-0"
140
1.5
141
12.0
290
     0
  0
SCALE
  5
51
102
{ACAD_REACTORS
330
42
102
}
330
42
100
AcDbScale
 70
     0
300
3" = 1'-0"
140
3.0
141
12.0
290
     0
  0
SCALE
  5
52
102
{ACAD_REACTORS
330
42
102
}
330
42
100
AcDbScale
 70
     0
300
6" = 1'-0"
140
6.0
141
12.0
290
     0
  0
SCALE
  5
53
102
{ACAD_REACTORS
330
42
102
}
330
42
100
AcDbScale
 70
     0
300
1'-0" = 1'-0"
140
12.0
141
12.0
290
     0
  0
ACDBSECTIONVIEWSTYLE
  5
69
102
{ACAD_REACTORS
330
68
102
}
330
68
100
AcDbModelDocViewStyle
 70
     0
  3
Imperial24
290
     1
300
Imperial24
 90
        0
100
AcDbSectionViewStyle
 70
     0
 71
     0
 90
       78
 71
     1
340
55
 62
   256
 40
0.24
340
0
340
0
 62
   256
 40
0.24
300
I, O, Q, S, X, Z
 40
0.48
 90
        3
 40
0.18
 90
        1
 71
     2
340
5D
 90
       25
 62
   256
340
5D
 90
       50
 62
   256
 40
0.24
 40
0.0
 40
0.24
 71
     3
340
55
 62
   256
 40
0.24
 90
        1
 40
0.75
 90
        1
300
%<\AcVar ViewType \f "%tc1">% %<\AcVar ViewSectionStartId>%-%<\AcVar ViewSectionEndId>%\PSCALE %<\AcVar ViewScale \f "%sn">%
 71
     4
 62
   256
 62
   257
300
ANSI31
 40
1.0
 90
        0
290
     0
290
     0
 90
        6
 40
0.0
 40
1.570796326794896
 40
0.2617993877991494
 40
1.308996938995747
 40
-0.2617993877991494
 40
1.832595714594046
  0
ACDBSECTIONVIEWSTYLE
  5
131
102
{ACAD_REACTORS
330
68
102
}
330
68
100
AcDbModelDocViewStyle
 70
     0
  3
Metric50
290
     0
300
Metric50
 90
        0
100
AcDbSectionViewStyle
 70
     0
 71
     0
 90
      102
 71
     1
340
55
 62
   256
 40
5.0
340
0
340
0
 62
   256
 40
5.0
300
I, O, Q, S, X, Z
 40
10.0
 90
        0
 40
2.5
 90
        0
 71
     2
340
5D
 90
       25
 62
   256
340
5D
 90
       50
 62
   256
 40
5.0
 40
2.5
 40
5.0
 71
     3
340
55
 62
   256
 40
5.0
 90
        0
 40
15.0
 90
        1
300
%<\AcVar ViewSectionStartId>%-%<\AcVar ViewSectionEndId>% (%<\AcVar ViewScale \f "%sn">%)
 71
     4
 62
   256
 62
   257
300
ANSI31
 40
1.0
 90
        0
290
     0
290
     0
 90
        6
 40
0.0
 40
1.570796326794896
 40
0.2617993877991494
 40
1.308996938995747
 40
-0.2617993877991494
 40
1.832595714594046
  0
TABLESTYLE
  5
65
102
{ACAD_XDICTIONARY
360
35D
102
}
102
{ACAD_REACTORS
330
64
102
}
330
64
100
AcDbTableStyle
280
     0
  3
Standard
 70
     0
 71
     0
 40
0.06
 41
0.06
280
     0
281
     0
  7
Standard
140
0.18
170
     2
 62
     0
 63
     7
283
     0
 90
      512
 91
        0
  1

274
    -2
284
     1
 64
     0
275
    -2
285
     1
 65
     0
276
    -2
286
     1
 66
     0
277
    -2
287
     1
 67
     0
278
    -2
288
     1
 68
     0
279
    -2
289
     1
 69
     0
  7
Standard
140
0.25
170
     5
 62
     0
 63
     7
283
     0
 90
      512
 91
        0
  1

274
    -2
284
     1
 64
     0
275
    -2
285
     1
 65
     0
276
    -2
286
     1
 66
     0
277
    -2
287
     1
 67
     0
278
    -2
288
     1
 68
     0
279
    -2
289
     1
 69
     0
  7
Standard
140
0.18
170
     5
 62
     0
 63
     7
283
     0
 90
      512
 91
        0
  1

274
    -2
284
     1
 64
     0
275
    -2
285
     1
 65
     0
276
    -2
286
     1
 66
     0
277
    -2
287
     1
 67
     0
278
    -2
288
     1
 68
     0
279
    -2
289
     1
 69
     0
  0
VISUALSTYLE
  5
2F
102
{ACAD_REACTORS
330
29
102
}
330
29
100
AcDbVisualStyle
  2
2dWireframe
 70
     4
177
     3
291
     0
 70
    58
 90
        0
176
     1
 90
        2
176
     1
 90
        0
176
     1
 90
        0
176
     1
 40
0.6
176
     1
 40
30.0
176
     1
 62
     7
420
 16777215
176
     1
 90
        1
176
     1
 90
        4
176
     1
 62
     7
176
     1
 62
   257
176
     1
 90
        1
176
     1
 90
        1
176
     1
 40
1.0
176
     1
 90
        0
176
     1
 62
   257
176
     1
 40
1.0
176
     1
 90
        1
176
     1
 90
        6
176
     1
 90
        2
176
     1
 62
     7
176
     1
 90
        5
176
     1
 90
        0
176
     1
 90
        0
176
     1
290
     0
176
     1
 90
        1
176
     1
 40
0.0
176
     1
 90
        0
176
     1
290
     1
176
     1
290
     1
176
     1
290
     0
176
     1
290
     0
176
     1
290
     0
176
     1
290
     0
176
     1
290
     0
176
     1
290
     0
176
     1
290
     0
176
     1
 90
       50
176
     1
 40
0.0
176
     1
 40
1.0
176
     1
 90
        0
176
     1
 62
    18
420
        0
176
     1
 90
       50
176
     1
 90
        3
176
     1
 62
     5
420
      255
176
     1
290
     0
176
     1
 90
       50
176
     1
 90
       50
176
     1
 90
       50
176
     1
290
     0
176
     1
 90
       50
176
     1
 62
   256
176
     0
 40
1.0
176
     0
 90
        2
176
     1
  1
strokes_ogs.tif
176
     1
290
     0
176
     1
 40
1.0
176
     1
 40
1.0
176
     1
  0
VISUALSTYLE
  5
12E
102
{ACAD_REACTORS
330
29
102
}
330
29
100
AcDbVisualStyle
  2
3dWireframe
 70
     5
177
     3
291
     0
 70
    58
 90
        0
176
     1
 90
        2
176
     1
 90
        1
176
     1
 90
        0
176
     1
 40
0.6
176
     1
 40
30.0
176
     1
 62
     7
420
 16777215
176
     1
 90
        1
176
     1
 90
        4
176
     1
 62
     7
176
     1
 62
   257
176
     1
 90
        1
176
     1
 90
        1
176
     1
 40
1.0
176
     1
 90
        0
176
     1
 62
   257
176
     1
 40
1.0
176
     1
 90
        1
176
     1
 90
        6
176
     1
 90
        2
176
     1
 62
     7
176
     1
 90
        5
176
     1
 90
        0
176
     1
 90
        0
176
     1
290
     0
176
     1
 90
        1
176
     1
 40
0.0
176
     1
 90
        0
176
     1
290
     0
176
     1
290
     1
176
     1
290
     1
176
     1
290
     0
176
     1
290
     0
176
     1
290
     0
176
     1
290
     0
176
     1
290
     0
176
     1
290
     0
176
     1
 90
       50
176
     1
 40
0.0
176
     1
 40
1.0
176
     1
 90
        0
176
     1
 62
    18
420
        0
176
     1
 90
       50
176
     1
 90
        3
176
     1
 62
     5
420
      255
176
     1
290
     0
176
     1
 90
       50
176
     1
 90
       50
176
     1
 90
       50
176
     1
290
     0
176
     1
 90
       50
176
     1
 62
   256
176
     0
 40
1.0
176
     0
 90
        2
176
     1
  1
strokes_ogs.tif
176
     1
290
     0
176
     1
 40
1.0
176
     1
 40
1.0
176
     1
  0
VISUALSTYLE
  5
2E
102
{ACAD_REACTORS
330
29
102
}
330
29
100
AcDbVisualStyle
  2
Basic
 70
     7
177
     3
291
     1
 70
    58
 90
        1
176
     1
 90
        0
176
     1
 90
        1
176
     1
 90
        0
176
     1
 40
0.6
176
     1
 40
30.0
176
     1
 62
     7
420
 16777215
176
     1
 90
        0
176
     1
 90
        4
176
     1
 62
     7
176
     1
 62
   257
176
     1
 90
        1
176
     1
 90
        1
176
     1
 40
1.0
176
     1
 90
        8
176
     1
 62
     7
176
     1
 40
1.0
176
     1
 90
        1
176
     1
 90
        6
176
     1
 90
        2
176
     1
 62
     7
176
     1
 90
        5
176
     1
 90
        0
176
     1
 90
        0
176
     1
290
     0
176
     1
 90
        1
176
     1
 40
0.0
176
     1
 90
        0
176
     1
290
     0
176
     1
290
     1
176
     1
290
     1
176
     1
290
     0
176
     1
290
     0
176
     1
290
     0
176
     1
290
     0
176
     1
290
     0
176
     1
290
     0
176
     1
 90
       50
176
     1
 40
0.0
176
     1
 40
1.0
176
     1
 90
        0
176
     1
 62
    18
420
        0
176
     1
 90
       50
176
     1
 90
        3
176
     1
 62
     5
420
      255
176
     1
290
     0
176
     1
 90
       50
176
     1
 90
       50
176
     1
 90
       50
176
     1
290
     0
176
     1
 90
       50
176
     1
 62
   256
176
     0
 40
1.0
176
     0
 90
        2
176
     1
  1
strokes_ogs.tif
176
     1
290
     0
176
     1
 40
1.0
176
     1
 40
1.0
176
     1
  0
VISUALSTYLE
  5
35
102
{ACAD_REACTORS
330
29
102
}
330
29
100
AcDbVisualStyle
  2
Brighten
 70
    12
177
     3
291
     1
 70
    58
 90
        2
176
     1
 90
        2
176
     1
 90
        0
176
     1
 90
        0
176
     1
 40
0.6
176
     1
 40
30.0
176
     1
 62
     7
420
 16777215
176
     1
 90
        1
176
     1
 90
        4
176
     1
 62
     7
176
     1
 62
   257
176
     1
 90
        1
176
     1
 90
        1
176
     1
 40
1.0
176
     1
 90
        8
176
     1
 62
     7
176
     1
 40
1.0
176
     1
 90
        1
176
     1
 90
        6
176
     1
 90
        2
176
     1
 62
     7
176
     1
 90
        5
176
     1
 90
        0
176
     1
 90
        0
176
     1
290
     0
176
     1
 90
        1
176
     1
 40
50.0
176
     1
 90
        0
176
     1
290
     0
176
     1
290
     1
176
     1
290
     1
176
     1
290
     0
176
     1
290
     0
176
     1
290
     0
176
     1
290
     0
176
     1
290
     0
176
     1
290
     0
176
     1
 90
       50
176
     1
 40
0.0
176
     1
 40
1.0
176
     1
 90
        0
176
     1
 62
    18
420
        0
176
     1
 90
       50
176
     1
 90
        3
176
     1
 62
     5
420
      255
176
     1
290
     0
176
     1
 90
       50
176
     1
 90
       50
176
     1
 90
       50
176
     1
290
     0
176
     1
 90
       50
176
     1
 62
   256
176
     0
 40
1.0
176
     0
 90
        2
176
     1
  1
strokes_ogs.tif
176
     1
290
     0
176
     1
 40
1.0
176
     1
 40
1.0
176
     1
  0
VISUALSTYLE
  5
39
102
{ACAD_REACTORS
330
29
102
}
330
29
100
AcDbVisualStyle
  2
ColorChange
 70
    16
177
     3
291
     1
 70
    58
 90
        2
176
     1
 90
        2
176
     1
 90
        3
176
     1
 90
        0
176
     1
 40
0.6
176
     1
 40
30.0
176
     1
 62
     8
420
  8421504
176
     1
 90
        1
176
     1
 90
        4
176
     1
 62
     7
176
     1
 62
   257
176
     1
 90
        1
176
     1
 90
        1
176
     1
 40
1.0
176
     1
 90
        8
176
     1
 62
     8
420
  8421504
176
     1
 40
1.0
176
     1
 90
        1
176
     1
 90
        6
176
     1
 90
        2
176
     1
 62
     7
176
     1
 90
        5
176
     1
 90
        0
176
     1
 90
        0
176
     1
290
     0
176
     1
 90
        1
176
     1
 40
0.0
176
     1
 90
        0
176
     1
290
     0
176
     1
290
     1
176
     1
290
     1
176
     1
290
     0
176
     1
290
     0
176
     1
290
     0
176
     1
290
     0
176
     1
290
     0
176
     1
290
     0
176
     1
 90
       50
176
     1
 40
0.0
176
     1
 40
1.0
176
     1
 90
        0
176
     1
 62
    18
420
        0
176
     1
 90
       50
176
     1
 90
        3
176
     1
 62
     5
420
      255
176
     1
290
     0
176
     1
 90
       50
176
     1
 90
       50
176
     1
 90
       50
176
     1
290
     0
176
     1
 90
       50
176
     1
 62
   256
176
     0
 40
1.0
176
     0
 90
        2
176
     1
  1
strokes_ogs.tif
176
     1
290
     0
176
     1
 40
1.0
176
     1
 40
1.0
176
     1
  0
VISUALSTYLE
  5
32
102
{ACAD_REACTORS
330
29
102
}
330
29
100
AcDbVisualStyle
  2
Conceptual
 70
     9
177
     3
291
     0
 70
    58
 90
        3
176
     1
 90
        2
176
     1
 90
        0
176
     1
 90
        0
176
     1
 40
0.6
176
     1
 40
30.0
176
     1
 62
     7
420
 16777215
176
     1
 90
        2
176
     1
 90
        2
176
     1
 62
     7
176
     1
 62
   257
176
     1
 90
        1
176
     1
 90
        1
176
     1
 40
179.0
176
     1
 90
        8
176
     1
 62
     7
176
     1
 40
1.0
176
     1
 90
        1
176
     1
 90
        6
176
     1
 90
        2
176
     1
 62
     7
176
     1
 90
        3
176
     1
 90
        0
176
     1
 90
        0
176
     1
290
     0
176
     1
 90
        1
176
     1
 40
0.0
176
     1
 90
        0
176
     1
290
     0
176
     1
290
     1
176
     1
290
     1
176
     1
290
     0
176
     1
290
     0
176
     1
290
     0
176
     1
290
     0
176
     1
290
     0
176
     1
290
     0
176
     1
 90
       50
176
     1
 40
0.0
176
     1
 40
1.0
176
     1
 90
        0
176
     1
 62
    18
420
        0
176
     1
 90
       50
176
     1
 90
        3
176
     1
 62
     5
420
      255
176
     1
290
     0
176
     1
 90
       50
176
     1
 90
       50
176
     1
 90
       50
176
     1
290
     0
176
     1
 90
       50
176
     1
 62
   256
176
     0
 40
1.0
176
     0
 90
        2
176
     1
  1
strokes_ogs.tif
176
     1
290
     0
176
     1
 40
1.0
176
     1
 40
1.0
176
     1
  0
VISUALSTYLE
  5
34
102
{ACAD_REACTORS
330
29
102
}
330
29
100
AcDbVisualStyle
  2
Dim
 70
    11
177
     3
291
     1
 70
    58
 90
        2
176
     1
 90
        2
176
     1
 90
        0
176
     1
 90
        0
176
     1
 40
0.6
176
     1
 40
30.0
176
     1
 62
     7
420
 16777215
176
     1
 90
        1
176
     1
 90
        4
176
     1
 62
     7
176
     1
 62
   257
176
     1
 90
        1
176
     1
 90
        1
176
     1
 40
1.0
176
     1
 90
        8
176
     1
 62
     7
176
     1
 40
1.0
176
     1
 90
        1
176
     1
 90
        6
176
     1
 90
        2
176
     1
 62
     7
176
     1
 90
        5
176
     1
 90
        0
176
     1
 90
        0
176
     1
290
     0
176
     1
 90
        1
176
     1
 40
-50.0
176
     1
 90
        0
176
     1
290
     0
176
     1
290
     1
176
     1
290
     1
176
     1
290
     0
176
     1
290
     0
176
     1
290
     0
176
     1
290
     0
176
     1
290
     0
176
     1
290
     0
176
     1
 90
       50
176
     1
 40
0.0
176
     1
 40
1.0
176
     1
 90
        0
176
     1
 62
    18
420
        0
176
     1
 90
       50
176
     1
 90
        3
176
     1
 62
     5
420
      255
176
     1
290
     0
176
     1
 90
       50
176
     1
 90
       50
176
     1
 90
       50
176
     1
290
     0
176
     1
 90
       50
176
     1
 62
   256
176
     0
 40
1.0
176
     0
 90
        2
176
     1
  1
strokes_ogs.tif
176
     1
290
     0
176
     1
 40
1.0
176
     1
 40
1.0
176
     1
  0
VISUALSTYLE
  5
41
102
{ACAD_REACTORS
330
29
102
}
330
29
100
AcDbVisualStyle
  2
EdgeColorOff
 70
    22
177
     3
291
     1
 70
    58
 90
        2
176
     0
 90
        2
176
     0
 90
        0
176
     0
 90
        0
176
     0
 40
0.6
176
     0
 40
30.0
176
     0
 62
     7
420
 16777215
176
     0
 90
        1
176
     0
 90
        4
176
     0
 62
     7
176
     0
 62
   257
176
     0
 90
        1
176
     0
 90
        1
176
     0
 40
1.0
176
     0
 90
        8
176
     2
 62
     7
176
     0
 40
1.0
176
     0
 90
        1
176
     0
 90
        6
176
     0
 90
        2
176
     0
 62
     7
176
     0
 90
        5
176
     0
 90
        0
176
     0
 90
        0
176
     0
290
     0
176
     0
 90
        1
176
     0
 40
0.0
176
     0
 90
        0
176
     0
290
     0
176
     0
290
     1
176
     0
290
     1
176
     0
290
     0
176
     0
290
     0
176
     0
290
     0
176
     0
290
     0
176
     0
290
     0
176
     0
290
     0
176
     0
 90
       50
176
     0
 40
0.0
176
     0
 40
1.0
176
     0
 90
        0
176
     0
 62
    18
420
        0
176
     0
 90
       50
176
     0
 90
        3
176
     0
 62
     5
420
      255
176
     0
290
     0
176
     0
 90
       50
176
     0
 90
       50
176
     0
 90
       50
176
     0
290
     0
176
     0
 90
       50
176
     0
 62
   256
176
     0
 40
1.0
176
     0
 90
        2
176
     0
  1
strokes_ogs.tif
176
     0
290
     0
176
     0
 40
1.0
176
     0
 40
1.0
176
     0
  0
VISUALSTYLE
  5
38
102
{ACAD_REACTORS
330
29
102
}
330
29
100
AcDbVisualStyle
  2
Facepattern
 70
    15
177
     3
291
     1
 70
    58
 90
        2
176
     1
 90
        2
176
     1
 90
        0
176
     1
 90
        0
176
     1
 40
0.6
176
     1
 40
30.0
176
     1
 62
     7
420
 16777215
176
     1
 90
        1
176
     1
 90
        4
176
     1
 62
     7
176
     1
 62
   257
176
     1
 90
        1
176
     1
 90
        1
176
     1
 40
1.0
176
     1
 90
        8
176
     1
 62
     7
176
     1
 40
1.0
176
     1
 90
        1
176
     1
 90
        6
176
     1
 90
        2
176
     1
 62
     7
176
     1
 90
        5
176
     1
 90
        0
176
     1
 90
        0
176
     1
290
     0
176
     1
 90
        1
176
     1
 40
0.0
176
     1
 90
        0
176
     1
290
     0
176
     1
290
     1
176
     1
290
     1
176
     1
290
     0
176
     1
290
     0
176
     1
290
     0
176
     1
290
     0
176
     1
290
     0
176
     1
290
     0
176
     1
 90
       50
176
     1
 40
0.0
176
     1
 40
1.0
176
     1
 90
        0
176
     1
 62
    18
420
        0
176
     1
 90
       50
176
     1
 90
        3
176
     1
 62
     5
420
      255
176
     1
290
     0
176
     1
 90
       50
176
     1
 90
       50
176
     1
 90
       50
176
     1
290
     0
176
     1
 90
       50
176
     1
 62
   256
176
     0
 40
1.0
176
     0
 90
        2
176
     1
  1
strokes_ogs.tif
176
     1
290
     0
176
     1
 40
1.0
176
     1
 40
1.0
176
     1
  0
VISUALSTYLE
  5
2A
102
{ACAD_REACTORS
330
29
102
}
330
29
100
AcDbVisualStyle
  2
Flat
 70
     0
177
     3
291
     1
 70
    58
 90
        2
176
     1
 90
        1
176
     1
 90
        1
176
     1
 90
        2
176
     1
 40
0.6
176
     1
 40
30.0
176
     1
 62
     7
420
 16777215
176
     1
 90
        0
176
     1
 90
        0
176
     1
 62
     7
176
     1
 62
   257
176
     1
 90
        1
176
     1
 90
        1
176
     1
 40
1.0
176
     1
 90
        8
176
     1
 62
     7
176
     1
 40
1.0
176
     1
 90
        1
176
     1
 90
        6
176
     1
 90
        2
176
     1
 62
     7
176
     1
 90
        5
176
     1
 90
        0
176
     1
 90
        0
176
     1
290
     0
176
     1
 90
       13
176
     1
 40
0.0
176
     1
 90
        0
176
     1
290
     0
176
     1
290
     1
176
     1
290
     1
176
     1
290
     0
176
     1
290
     0
176
     1
290
     0
176
     1
290
     0
176
     1
290
     0
176
     1
290
     0
176
     1
 90
       50
176
     1
 40
0.0
176
     1
 40
1.0
176
     1
 90
        0
176
     1
 62
    18
420
        0
176
     1
 90
       50
176
     1
 90
        3
176
     1
 62
     5
420
      255
176
     1
290
     0
176
     1
 90
       50
176
     1
 90
       50
176
     1
 90
       50
176
     1
290
     0
176
     1
 90
       50
176
     1
 62
   256
176
     0
 40
1.0
176
     0
 90
        2
176
     1
  1
strokes_ogs.tif
176
     1
290
     0
176
     1
 40
1.0
176
     1
 40
1.0
176
     1
  0
VISUALSTYLE
  5
2B
102
{ACAD_REACTORS
330
29
102
}
330
29
100
AcDbVisualStyle
  2
FlatWithEdges
 70
     1
177
     3
291
     1
 70
    58
 90
        2
176
     1
 90
        1
176
     1
 90
        1
176
     1
 90
        2
176
     1
 40
0.6
176
     1
 40
30.0
176
     1
 62
     7
420
 16777215
176
     1
 90
        1
176
     1
 90
        0
176
     1
 62
     7
176
     1
 62
   257
176
     1
 90
        1
176
     1
 90
        1
176
     1
 40
1.0
176
     1
 90
        0
176
     1
 62
   257
176
     1
 40
1.0
176
     1
 90
        1
176
     1
 90
        6
176
     1
 90
        2
176
     1
 62
     7
176
     1
 90
        5
176
     1
 90
        0
176
     1
 90
        0
176
     1
290
     0
176
     1
 90
       13
176
     1
 40
0.0
176
     1
 90
        0
176
     1
290
     0
176
     1
290
     1
176
     1
290
     1
176
     1
290
     0
176
     1
290
     0
176
     1
290
     0
176
     1
290
     0
176
     1
290
     0
176
     1
290
     0
176
     1
 90
       50
176
     1
 40
0.0
176
     1
 40
1.0
176
     1
 90
        0
176
     1
 62
    18
420
        0
176
     1
 90
       50
176
     1
 90
        3
176
     1
 62
     5
420
      255
176
     1
290
     0
176
     1
 90
       50
176
     1
 90
       50
176
     1
 90
       50
176
     1
290
     0
176
     1
 90
       50
176
     1
 62
   256
176
     0
 40
1.0
176
     0
 90
        2
176
     1
  1
strokes_ogs.tif
176
     1
290
     0
176
     1
 40
1.0
176
     1
 40
1.0
176
     1
  0
VISUALSTYLE
  5
2C
102
{ACAD_REACTORS
330
29
102
}
330
29
100
AcDbVisualStyle
  2
Gouraud
 70
     2
177
     3
291
     1
 70
    58
 90
        2
176
     1
 90
        2
176
     1
 90
        1
176
     1
 90
        2
176
     1
 40
0.6
176
     1
 40
30.0
176
     1
 62
     7
420
 16777215
176
     1
 90
        0
176
     1
 90
        0
176
     1
 62
     7
176
     1
 62
   257
176
     1
 90
        1
176
     1
 90
        1
176
     1
 40
1.0
176
     1
 90
        0
176
     1
 62
     7
176
     1
 40
1.0
176
     1
 90
        1
176
     1
 90
        6
176
     1
 90
        2
176
     1
 62
     7
176
     1
 90
        5
176
     1
 90
        0
176
     1
 90
        0
176
     1
290
     0
176
     1
 90
       13
176
     1
 40
0.0
176
     1
 90
        0
176
     1
290
     0
176
     1
290
     1
176
     1
290
     1
176
     1
290
     0
176
     1
290
     0
176
     1
290
     0
176
     1
290
     0
176
     1
290
     0
176
     1
290
     0
176
     1
 90
       50
176
     1
 40
0.0
176
     1
 40
1.0
176
     1
 90
        0
176
     1
 62
    18
420
        0
176
     1
 90
       50
176
     1
 90
        3
176
     1
 62
     5
420
      255
176
     1
290
     0
176
     1
 90
       50
176
     1
 90
       50
176
     1
 90
       50
176
     1
290
     0
176
     1
 90
       50
176
     1
 62
   256
176
     0
 40
1.0
176
     0
 90
        2
176
     1
  1
strokes_ogs.tif
176
     1
290
     0
176
     1
 40
1.0
176
     1
 40
1.0
176
     1
  0
VISUALSTYLE
  5
2D
102
{ACAD_REACTORS
330
29
102
}
330
29
100
AcDbVisualStyle
  2
GouraudWithEdges
 70
     3
177
     3
291
     1
 70
    58
 90
        2
176
     1
 90
        2
176
     1
 90
        1
176
     1
 90
        2
176
     1
 40
0.6
176
     1
 40
30.0
176
     1
 62
     7
420
 16777215
176
     1
 90
        1
176
     1
 90
        0
176
     1
 62
     7
176
     1
 62
   257
176
     1
 90
        1
176
     1
 90
        1
176
     1
 40
1.0
176
     1
 90
        0
176
     1
 62
   257
176
     1
 40
1.0
176
     1
 90
        1
176
     1
 90
        6
176
     1
 90
        2
176
     1
 62
     7
176
     1
 90
        5
176
     1
 90
        0
176
     1
 90
        0
176
     1
290
     0
176
     1
 90
       13
176
     1
 40
0.0
176
     1
 90
        0
176
     1
290
     0
176
     1
290
     1
176
     1
290
     1
176
     1
290
     0
176
     1
290
     0
176
     1
290
     0
176
     1
290
     0
176
     1
290
     0
176
     1
290
     0
176
     1
 90
       50
176
     1
 40
0.0
176
     1
 40
1.0
176
     1
 90
        0
176
     1
 62
    18
420
        0
176
     1
 90
       50
176
     1
 90
        3
176
     1
 62
     5
420
      255
176
     1
290
     0
176
     1
 90
       50
176
     1
 90
       50
176
     1
 90
       50
176
     1
290
     0
176
     1
 90
       50
176
     1
 62
   256
176
     0
 40
1.0
176
     0
 90
        2
176
     1
  1
strokes_ogs.tif
176
     1
290
     0
176
     1
 40
1.0
176
     1
 40
1.0
176
     1
  0
VISUALSTYLE
  5
31
102
{ACAD_REACTORS
330
29
102
}
330
29
100
AcDbVisualStyle
  2
Hidden
 70
     6
177
     3
291
     0
 70
    58
 90
        1
176
     1
 90
        2
176
     1
 90
        2
176
     1
 90
        0
176
     1
 40
0.6
176
     1
 40
30.0
176
     1
 62
     7
420
 16777215
176
     1
 90
        2
176
     1
 90
        2
176
     1
 62
     7
176
     1
 62
   257
176
     1
 90
        2
176
     1
 90
        1
176
     1
 40
40.0
176
     1
 90
        0
176
     1
 62
   257
176
     1
 40
1.0
176
     1
 90
        1
176
     1
 90
        6
176
     1
 90
        2
176
     1
 62
     7
176
     1
 90
        3
176
     1
 90
        0
176
     1
 90
        0
176
     1
290
     0
176
     1
 90
        1
176
     1
 40
0.0
176
     1
 90
        0
176
     1
290
     0
176
     1
290
     1
176
     1
290
     1
176
     1
290
     0
176
     1
290
     0
176
     1
290
     0
176
     1
290
     0
176
     1
290
     0
176
     1
290
     0
176
     1
 90
       50
176
     1
 40
0.0
176
     1
 40
1.0
176
     1
 90
        0
176
     1
 62
    18
420
        0
176
     1
 90
       50
176
     1
 90
        3
176
     1
 62
     5
420
      255
176
     1
290
     0
176
     1
 90
       50
176
     1
 90
       50
176
     1
 90
       50
176
     1
290
     0
176
     1
 90
       50
176
     1
 62
   256
176
     0
 40
1.0
176
     0
 90
        2
176
     1
  1
strokes_ogs.tif
176
     1
290
     0
176
     1
 40
1.0
176
     1
 40
1.0
176
     1
  0
VISUALSTYLE
  5
3F
102
{ACAD_REACTORS
330
29
102
}
330
29
100
AcDbVisualStyle
  2
JitterOff
 70
    20
177
     3
291
     1
 70
    58
 90
        2
176
     0
 90
        2
176
     0
 90
        0
176
     0
 90
        0
176
     0
 40
0.6
176
     0
 40
30.0
176
     0
 62
     7
420
 16777215
176
     0
 90
        1
176
     0
 90
        4
176
     0
 62
     7
176
     0
 62
   257
176
     0
 90
        1
176
     0
 90
        1
176
     0
 40
1.0
176
     0
 90
       10
176
     2
 62
     7
176
     0
 40
1.0
176
     0
 90
        1
176
     0
 90
        6
176
     0
 90
        2
176
     0
 62
     7
176
     0
 90
        5
176
     0
 90
        0
176
     0
 90
        0
176
     0
290
     0
176
     0
 90
        1
176
     0
 40
0.0
176
     0
 90
        0
176
     0
290
     0
176
     0
290
     1
176
     0
290
     1
176
     0
290
     0
176
     0
290
     0
176
     0
290
     0
176
     0
290
     0
176
     0
290
     0
176
     0
290
     0
176
     0
 90
       50
176
     0
 40
0.0
176
     0
 40
1.0
176
     0
 90
        0
176
     0
 62
    18
420
        0
176
     0
 90
       50
176
     0
 90
        3
176
     0
 62
     5
420
      255
176
     0
290
     0
176
     0
 90
       50
176
     0
 90
       50
176
     0
 90
       50
176
     0
290
     0
176
     0
 90
       50
176
     0
 62
   256
176
     0
 40
1.0
176
     0
 90
        2
176
     0
  1
strokes_ogs.tif
176
     0
290
     0
176
     0
 40
1.0
176
     0
 40
1.0
176
     0
  0
VISUALSTYLE
  5
37
102
{ACAD_REACTORS
330
29
102
}
330
29
100
AcDbVisualStyle
  2
Linepattern
 70
    14
177
     3
291
     1
 70
    58
 90
        2
176
     1
 90
        2
176
     1
 90
        0
176
     1
 90
        0
176
     1
 40
0.6
176
     1
 40
30.0
176
     1
 62
     7
420
 16777215
176
     1
 90
        1
176
     1
 90
        4
176
     1
 62
     7
176
     1
 62
   257
176
     1
 90
        7
176
     1
 90
        7
176
     1
 40
1.0
176
     1
 90
        8
176
     1
 62
     7
176
     1
 40
1.0
176
     1
 90
        1
176
     1
 90
        6
176
     1
 90
        2
176
     1
 62
     7
176
     1
 90
        5
176
     1
 90
        0
176
     1
 90
        0
176
     1
290
     0
176
     1
 90
        1
176
     1
 40
0.0
176
     1
 90
        0
176
     1
290
     0
176
     1
290
     1
176
     1
290
     1
176
     1
290
     0
176
     1
290
     0
176
     1
290
     0
176
     1
290
     0
176
     1
290
     0
176
     1
290
     0
176
     1
 90
       50
176
     1
 40
0.0
176
     1
 40
1.0
176
     1
 90
        0
176
     1
 62
    18
420
        0
176
     1
 90
       50
176
     1
 90
        3
176
     1
 62
     5
420
      255
176
     1
290
     0
176
     1
 90
       50
176
     1
 90
       50
176
     1
 90
       50
176
     1
290
     0
176
     1
 90
       50
176
     1
 62
   256
176
     0
 40
1.0
176
     0
 90
        2
176
     1
  1
strokes_ogs.tif
176
     1
290
     0
176
     1
 40
1.0
176
     1
 40
1.0
176
     1
  0
VISUALSTYLE
  5
40
102
{ACAD_REACTORS
330
29
102
}
330
29
100
AcDbVisualStyle
  2
OverhangOff
 70
    21
177
     3
291
     1
 70
    58
 90
        2
176
     0
 90
        2
176
     0
 90
        0
176
     0
 90
        0
176
     0
 40
0.6
176
     0
 40
30.0
176
     0
 62
     7
420
 16777215
176
     0
 90
        1
176
     0
 90
        4
176
     0
 62
     7
176
     0
 62
   257
176
     0
 90
        1
176
     0
 90
        1
176
     0
 40
1.0
176
     0
 90
        9
176
     2
 62
     7
176
     0
 40
1.0
176
     0
 90
        1
176
     0
 90
        6
176
     0
 90
        2
176
     0
 62
     7
176
     0
 90
        5
176
     0
 90
        0
176
     0
 90
        0
176
     0
290
     0
176
     0
 90
        1
176
     0
 40
0.0
176
     0
 90
        0
176
     0
290
     0
176
     0
290
     1
176
     0
290
     1
176
     0
290
     0
176
     0
290
     0
176
     0
290
     0
176
     0
290
     0
176
     0
290
     0
176
     0
290
     0
176
     0
 90
       50
176
     0
 40
0.0
176
     0
 40
1.0
176
     0
 90
        0
176
     0
 62
    18
420
        0
176
     0
 90
       50
176
     0
 90
        3
176
     0
 62
     5
420
      255
176
     0
290
     0
176
     0
 90
       50
176
     0
 90
       50
176
     0
 90
       50
176
     0
290
     0
176
     0
 90
       50
176
     0
 62
   256
176
     0
 40
1.0
176
     0
 90
        2
176
     0
  1
strokes_ogs.tif
176
     0
290
     0
176
     0
 40
1.0
176
     0
 40
1.0
176
     0
  0
VISUALSTYLE
  5
33
102
{ACAD_REACTORS
330
29
102
}
330
29
100
AcDbVisualStyle
  2
Realistic
 70
     8
177
     3
291
     0
 70
    58
 90
        2
176
     1
 90
        3
176
     1
 90
        0
176
     1
 90
        2
176
     1
 40
0.6
176
     1
 40
30.0
176
     1
 62
     7
420
 16777215
176
     1
 90
        0
176
     1
 90
        0
176
     1
 62
     7
176
     1
 62
   257
176
     1
 90
        1
176
     1
 90
        1
176
     1
 40
1.0
176
     1
 90
        8
176
     1
 62
   257
176
     1
 40
1.0
176
     1
 90
        1
176
     1
 90
        6
176
     1
 90
        2
176
     1
 62
     7
176
     1
 90
        3
176
     1
 90
        0
176
     1
 90
        0
176
     1
290
     0
176
     1
 90
       13
176
     1
 40
0.0
176
     1
 90
        0
176
     1
290
     0
176
     1
290
     1
176
     1
290
     1
176
     1
290
     0
176
     1
290
     0
176
     1
290
     0
176
     1
290
     0
176
     1
290
     0
176
     1
290
     0
176
     1
 90
       50
176
     1
 40
0.0
176
     1
 40
1.0
176
     1
 90
        0
176
     1
 62
    18
420
        0
176
     1
 90
       50
176
     1
 90
        3
176
     1
 62
     5
420
      255
176
     1
290
     0
176
     1
 90
       50
176
     1
 90
       50
176
     1
 90
       50
176
     1
290
     0
176
     1
 90
       50
176
     1
 62
   256
176
     0
 40
1.0
176
     0
 90
        2
176
     1
  1
strokes_ogs.tif
176
     1
290
     0
176
     1
 40
1.0
176
     1
 40
1.0
176
     1
  0
VISUALSTYLE
  5
3E
102
{ACAD_REACTORS
330
29
102
}
330
29
100
AcDbVisualStyle
  2
Shaded
 70
    27
177
     3
291
     0
 70
    58
 90
        2
176
     1
 90
        2
176
     1
 90
        1
176
     1
 90
        2
176
     1
 40
0.6
176
     1
 40
30.0
176
     1
 62
     7
420
 16777215
176
     1
 90
        0
176
     1
 90
        4
176
     1
 62
     7
176
     1
 62
   257
176
     1
 90
        1
176
     1
 90
        1
176
     1
 40
1.0
176
     1
 90
        8
176
     1
 62
   257
176
     1
 40
1.0
176
     1
 90
        1
176
     1
 90
        6
176
     1
 90
        2
176
     1
 62
     8
420
  7895160
176
     1
 90
        3
176
     1
 90
        0
176
     1
 90
        0
176
     1
290
     0
176
     1
 90
        5
176
     1
 40
0.0
176
     1
 90
        0
176
     1
290
     0
176
     1
290
     1
176
     1
290
     1
176
     1
290
     0
176
     1
290
     0
176
     1
290
     0
176
     1
290
     0
176
     1
290
     0
176
     1
290
     0
176
     1
 90
       50
176
     1
 40
0.0
176
     1
 40
1.0
176
     1
 90
        0
176
     1
 62
    18
420
        0
176
     1
 90
       50
176
     1
 90
        3
176
     1
 62
     5
420
      255
176
     1
290
     0
176
     1
 90
       50
176
     1
 90
       50
176
     1
 90
       50
176
     1
290
     0
176
     1
 90
       50
176
     1
 62
   256
176
     0
 40
1.0
176
     0
 90
        2
176
     1
  1
strokes_ogs.tif
176
     1
290
     0
176
     1
 40
1.0
176
     1
 40
1.0
176
     1
  0
VISUALSTYLE
  5
3D
102
{ACAD_REACTORS
330
29
102
}
330
29
100
AcDbVisualStyle
  2
Shaded with edges
 70
    26
177
     3
291
     0
 70
    58
 90
        2
176
     1
 90
        2
176
     1
 90
        1
176
     1
 90
        2
176
     1
 40
0.6
176
     1
 40
30.0
176
     1
 62
     7
420
 16777215
176
     1
 90
        1
176
     1
 90
        2
176
     1
 62
     7
176
     1
 62
   257
176
     1
 90
        2
176
     1
 90
        1
176
     1
 40
1.0
176
     1
 90
        8
176
     1
 62
   257
176
     1
 40
1.0
176
     1
 90
        1
176
     1
 90
        6
176
     1
 90
        2
176
     1
 62
     7
176
     1
 90
        3
176
     1
 90
        0
176
     1
 90
        0
176
     1
290
     0
176
     1
 90
        5
176
     1
 40
0.0
176
     1
 90
        0
176
     1
290
     0
176
     1
290
     1
176
     1
290
     1
176
     1
290
     0
176
     1
290
     0
176
     1
290
     0
176
     1
290
     0
176
     1
290
     0
176
     1
290
     0
176
     1
 90
       50
176
     1
 40
0.0
176
     1
 40
1.0
176
     1
 90
        0
176
     1
 62
    18
420
        0
176
     1
 90
       50
176
     1
 90
        3
176
     1
 62
     5
420
      255
176
     1
290
     0
176
     1
 90
       50
176
     1
 90
       50
176
     1
 90
       50
176
     1
290
     0
176
     1
 90
       50
176
     1
 62
   256
176
     0
 40
1.0
176
     0
 90
        2
176
     1
  1
strokes_ogs.tif
176
     1
290
     0
176
     1
 40
1.0
176
     1
 40
1.0
176
     1
  0
VISUALSTYLE
  5
3A
102
{ACAD_REACTORS
330
29
102
}
330
29
100
AcDbVisualStyle
  2
Shades of Gray
 70
    23
177
     3
291
     0
 70
    58
 90
        2
176
     1
 90
        2
176
     1
 90
        3
176
     1
 90
        0
176
     1
 40
0.6
176
     1
 40
30.0
176
     1
 62
     7
420
 16777215
176
     1
 90
        2
176
     1
 90
        2
176
     1
 62
     7
176
     1
 62
     7
176
     1
 90
        1
176
     1
 90
        1
176
     1
 40
40.0
176
     1
 90
        8
176
     1
 62
     7
176
     1
 40
1.0
176
     1
 90
        1
176
     1
 90
        6
176
     1
 90
        2
176
     1
 62
     7
176
     1
 90
        3
176
     1
 90
        0
176
     1
 90
        0
176
     1
290
     0
176
     1
 90
        1
176
     1
 40
0.0
176
     1
 90
        0
176
     1
290
     0
176
     1
290
     1
176
     1
290
     1
176
     1
290
     0
176
     1
290
     0
176
     1
290
     0
176
     1
290
     0
176
     1
290
     0
176
     1
290
     0
176
     1
 90
       50
176
     1
 40
0.0
176
     1
 40
1.0
176
     1
 90
        0
176
     1
 62
    18
420
        0
176
     1
 90
       50
176
     1
 90
        3
176
     1
 62
     5
420
      255
176
     1
290
     0
176
     1
 90
       50
176
     1
 90
       50
176
     1
 90
       50
176
     1
290
     0
176
     1
 90
       50
176
     1
 62
   256
176
     0
 40
1.0
176
     0
 90
        2
176
     1
  1
strokes_ogs.tif
176
     1
290
     0
176
     1
 40
1.0
176
     1
 40
1.0
176
     1
  0
VISUALSTYLE
  5
3B
102
{ACAD_REACTORS
330
29
102
}
330
29
100
AcDbVisualStyle
  2
Sketchy
 70
    24
177
     3
291
     0
 70
    58
 90
        1
176
     1
 90
        2
176
     1
 90
        2
176
     1
 90
        0
176
     1
 40
0.6
176
     1
 40
30.0
176
     1
 62
     7
420
 16777215
176
     1
 90
        2
176
     1
 90
        2
176
     1
 62
     7
176
     1
 62
     7
176
     1
 90
        1
176
     1
 90
        1
176
     1
 40
40.0
176
     1
 90
       11
176
     1
 62
     7
176
     1
 40
1.0
176
     1
 90
        1
176
     1
 90
        6
176
     1
 90
        2
176
     1
 62
     7
176
     1
 90
        6
176
     1
 90
        0
176
     1
 90
        0
176
     1
290
     0
176
     1
 90
        1
176
     1
 40
0.0
176
     1
 90
        0
176
     1
290
     0
176
     1
290
     1
176
     1
290
     1
176
     1
290
     0
176
     1
290
     0
176
     1
290
     0
176
     1
290
     0
176
     1
290
     0
176
     1
290
     0
176
     1
 90
       50
176
     1
 40
0.0
176
     1
 40
1.0
176
     1
 90
        0
176
     1
 62
    18
420
        0
176
     1
 90
       50
176
     1
 90
        3
176
     1
 62
     5
420
      255
176
     1
290
     0
176
     1
 90
       50
176
     1
 90
       50
176
     1
 90
       50
176
     1
290
     0
176
     1
 90
       50
176
     1
 62
   256
176
     0
 40
1.0
176
     0
 90
        2
176
     1
  1
strokes_ogs.tif
176
     1
290
     0
176
     1
 40
1.0
176
     1
 40
1.0
176
     1
  0
VISUALSTYLE
  5
36
102
{ACAD_REACTORS
330
29
102
}
330
29
100
AcDbVisualStyle
  2
Thicken
 70
    13
177
     3
291
     1
 70
    58
 90
        2
176
     1
 90
        2
176
     1
 90
        0
176
     1
 90
        0
176
     1
 40
0.6
176
     1
 40
30.0
176
     1
 62
     7
420
 16777215
176
     1
 90
        1
176
     1
 90
        4
176
     1
 62
     7
176
     1
 62
   257
176
     1
 90
        1
176
     1
 90
        1
176
     1
 40
1.0
176
     1
 90
       12
176
     1
 62
     7
176
     1
 40
1.0
176
     1
 90
        1
176
     1
 90
        6
176
     1
 90
        2
176
     1
 62
     7
176
     1
 90
        5
176
     1
 90
        0
176
     1
 90
        0
176
     1
290
     0
176
     1
 90
        1
176
     1
 40
0.0
176
     1
 90
        0
176
     1
290
     0
176
     1
290
     1
176
     1
290
     1
176
     1
290
     0
176
     1
290
     0
176
     1
290
     0
176
     1
290
     0
176
     1
290
     0
176
     1
290
     0
176
     1
 90
       50
176
     1
 40
0.0
176
     1
 40
1.0
176
     1
 90
        0
176
     1
 62
    18
420
        0
176
     1
 90
       50
176
     1
 90
        3
176
     1
 62
     5
420
      255
176
     1
290
     0
176
     1
 90
       50
176
     1
 90
       50
176
     1
 90
       50
176
     1
290
     0
176
     1
 90
       50
176
     1
 62
   256
176
     0
 40
1.0
176
     0
 90
        2
176
     1
  1
strokes_ogs.tif
176
     1
290
     0
176
     1
 40
1.0
176
     1
 40
1.0
176
     1
  0
VISUALSTYLE
  5
30
102
{ACAD_REACTORS
330
29
102
}
330
29
100
AcDbVisualStyle
  2
Wireframe
 70
     5
177
     3
291
     0
 70
    58
 90
        0
176
     1
 90
        2
176
     1
 90
        0
176
     1
 90
        0
176
     1
 40
0.6
176
     1
 40
30.0
176
     1
 62
     7
420
 16777215
176
     1
 90
        1
176
     1
 90
        4
176
     1
 62
     7
176
     1
 62
   257
176
     1
 90
        1
176
     1
 90
        1
176
     1
 40
1.0
176
     1
 90
        0
176
     1
 62
   257
176
     1
 40
1.0
176
     1
 90
        1
176
     1
 90
        6
176
     1
 90
        2
176
     1
 62
     7
176
     1
 90
        3
176
     1
 90
        0
176
     1
 90
        0
176
     1
290
     0
176
     1
 90
        1
176
     1
 40
0.0
176
     1
 90
        0
176
     1
290
     0
176
     1
290
     1
176
     1
290
     1
176
     1
290
     0
176
     1
290
     0
176
     1
290
     0
176
     1
290
     0
176
     1
290
     0
176
     1
290
     0
176
     1
 90
       50
176
     1
 40
0.0
176
     1
 40
1.0
176
     1
 90
        0
176
     1
 62
    18
420
        0
176
     1
 90
       50
176
     1
 90
        3
176
     1
 62
     5
420
      255
176
     1
290
     0
176
     1
 90
       50
176
     1
 90
       50
176
     1
 90
       50
176
     1
290
     0
176
     1
 90
       50
176
     1
 62
   256
176
     0
 40
1.0
176
     0
 90
        2
176
     1
  1
strokes_ogs.tif
176
     1
290
     0
176
     1
 40
1.0
176
     1
 40
1.0
176
     1
  0
VISUALSTYLE
  5
3C
102
{ACAD_REACTORS
330
29
102
}
330
29
100
AcDbVisualStyle
  2
X-Ray
 70
    25
177
     3
291
     0
 70
    58
 90
        2
176
     1
 90
        2
176
     1
 90
        1
176
     1
 90
        1
176
     1
 40
0.5
176
     1
 40
30.0
176
     1
 62
     7
420
 16777215
176
     1
 90
        1
176
     1
 90
        0
176
     1
 62
     7
176
     1
 62
   257
176
     1
 90
        1
176
     1
 90
        1
176
     1
 40
1.0
176
     1
 90
        8
176
     1
 62
     7
176
     1
 40
1.0
176
     1
 90
        1
176
     1
 90
        6
176
     1
 90
        2
176
     1
 62
     7
176
     1
 90
        3
176
     1
 90
        0
176
     1
 90
        0
176
     1
290
     0
176
     1
 90
       13
176
     1
 40
0.0
176
     1
 90
        0
176
     1
290
     0
176
     1
290
     1
176
     1
290
     1
176
     1
290
     0
176
     1
290
     0
176
     1
290
     0
176
     1
290
     0
176
     1
290
     0
176
     1
290
     0
176
     1
 90
       50
176
     1
 40
0.0
176
     1
 40
1.0
176
     1
 90
        0
176
     1
 62
    18
420
        0
176
     1
 90
       50
176
     1
 90
        3
176
     1
 62
     5
420
      255
176
     1
290
     0
176
     1
 90
       50
176
     1
 90
       50
176
     1
 90
       50
176
     1
290
     0
176
     1
 90
       50
176
     1
 62
   256
176
     0
 40
1.0
176
     0
 90
        2
176
     1
  1
strokes_ogs.tif
176
     1
290
     0
176
     1
 40
1.0
176
     1
 40
1.0
176
     1
  0
DICTIONARYVAR
  5
134
102
{ACAD_REACTORS
330
133
102
}
330
133
100
DictionaryVariables
280
     0
  1
1
  0
DICTIONARYVAR
  5
135
102
{ACAD_REACTORS
330
133
102
}
330
133
100
DictionaryVariables
280
     0
  1
0.200000
  0
DICTIONARYVAR
  5
136
102
{ACAD_REACTORS
330
133
102
}
330
133
100
DictionaryVariables
280
     0
  1
1
  0
DICTIONARYVAR
  5
137
102
{ACAD_REACTORS
330
133
102
}
330
133
100
DictionaryVariables
280
     0
  1
1:1
  0
DICTIONARYVAR
  5
138
102
{ACAD_REACTORS
330
133
102
}
330
133
100
DictionaryVariables
280
     0
  1
STANDARD
  0
DICTIONARYVAR
  5
139
102
{ACAD_REACTORS
330
133
102
}
330
133
100
DictionaryVariables
280
     0
  1
STANDARD
  0
DICTIONARYVAR
  5
13A
102
{ACAD_REACTORS
330
133
102
}
330
133
100
DictionaryVariables
280
     0
  1
Imperial24
  0
DICTIONARYVAR
  5
13B
102
{ACAD_REACTORS
330
133
102
}
330
133
100
DictionaryVariables
280
     0
  1
Imperial24
  0
DICTIONARYVAR
  5
13C
102
{ACAD_REACTORS
330
133
102
}
330
133
100
DictionaryVariables
280
     0
  1
0
  0
DICTIONARYVAR
  5
13D
102
{ACAD_REACTORS
330
133
102
}
330
133
100
DictionaryVariables
280
     0
  1
2
  0
DICTIONARYVAR
  5
13E
102
{ACAD_REACTORS
330
133
102
}
330
133
100
DictionaryVariables
280
     0
  1
A-DIMS-INSD
  0
DICTIONARYVAR
  5
13F
102
{ACAD_REACTORS
330
133
102
}
330
133
100
DictionaryVariables
280
     0
  1
1
  0
DICTIONARYVAR
  5
140
102
{ACAD_REACTORS
330
133
102
}
330
133
100
DictionaryVariables
280
     0
  1
1
  0
DICTIONARYVAR
  5
141
102
{ACAD_REACTORS
330
133
102
}
330
133
100
DictionaryVariables
280
     0
  1
BYLAYER
  0
DICTIONARYVAR
  5
142
102
{ACAD_REACTORS
330
133
102
}
330
133
100
DictionaryVariables
280
     0
  1
0
  0
DICTIONARYVAR
  5
143
102
{ACAD_REACTORS
330
133
102
}
330
133
100
DictionaryVariables
280
     0
  1
G-G-DIMENSION
  0
DICTIONARYVAR
  5
144
102
{ACAD_REACTORS
330
133
102
}
330
133
100
DictionaryVariables
280
     0
  1
0.000000;0.000000
  0
DICTIONARYVAR
  5
145
102
{ACAD_REACTORS
330
133
102
}
330
133
100
DictionaryVariables
280
     0
  1
ByLayer
  0
DICTIONARYVAR
  5
146
102
{ACAD_REACTORS
330
133
102
}
330
133
100
DictionaryVariables
280
     0
  1
0
  0
DICTIONARYVAR
  5
147
102
{ACAD_REACTORS
330
133
102
}
330
133
100
DictionaryVariables
280
     0
  1
0
  0
DICTIONARYVAR
  5
148
102
{ACAD_REACTORS
330
133
102
}
330
133
100
DictionaryVariables
280
     0
  1
0
  0
DICTIONARYVAR
  5
149
102
{ACAD_REACTORS
330
133
102
}
330
133
100
DictionaryVariables
280
     0
  1
2
  0
DICTIONARYVAR
  5
14A
102
{ACAD_REACTORS
330
133
102
}
330
133
100
DictionaryVariables
280
     0
  1
1.000000
  0
DICTIONARYVAR
  5
14B
102
{ACAD_REACTORS
330
133
102
}
330
133
100
DictionaryVariables
280
     0
  1
1
  0
DICTIONARYVAR
  5
14C
102
{ACAD_REACTORS
330
133
102
}
330
133
100
DictionaryVariables
280
     0
  1
2
  0
DICTIONARYVAR
  5
14D
102
{ACAD_REACTORS
330
133
102
}
330
133
100
DictionaryVariables
280
     0
  1
1
  0
DICTIONARYVAR
  5
14E
102
{ACAD_REACTORS
330
133
102
}
330
133
100
DictionaryVariables
280
     0
  1
0
  0
DICTIONARYVAR
  5
14F
102
{ACAD_REACTORS
330
133
102
}
330
133
100
DictionaryVariables
280
     0
  1
127
  0
DICTIONARYVAR
  5
150
102
{ACAD_REACTORS
330
133
102
}
330
133
100
DictionaryVariables
280
     0
  1
TEXT
  0
DICTIONARY
  5
1A
330
19
100
AcDbDictionary
280
     1
281
     1
  3
BUMPTILE
360
1C
  3
DIFFUSETILE
360
1B
  3
OPACITYTILE
360
1F
  3
REFLECTIONTILE
360
1E
  3
REFRACTIONTILE
360
20
  3
SPECULARTILE
360
1D
  0
DICTIONARY
  5
12
330
11
100
AcDbDictionary
280
     1
281
     1
  3
BUMPTILE
360
14
  3
DIFFUSETILE
360
13
  3
OPACITYTILE
360
17
  3
REFLECTIONTILE
360
16
  3
REFRACTIONTILE
360
18
  3
SPECULARTILE
360
15
  0
DICTIONARY
  5
22
330
21
100
AcDbDictionary
280
     1
281
     1
  3
BUMPTILE
360
24
  3
DIFFUSETILE
360
23
  3
OPACITYTILE
360
27
  3
REFLECTIONTILE
360
26
  3
REFRACTIONTILE
360
28
  3
SPECULARTILE
360
25
  0
DICTIONARY
  5
35D
330
65
100
AcDbDictionary
280
     1
281
     1
  3
ACAD_ROUNDTRIP_2008_TABLESTYLE_CELLSTYLEMAP
360
35E
  0
XRECORD
  5
1C
102
{ACAD_REACTORS
330
1A
102
}
330
1A
100
AcDbXrecord
280
     1
270
     1
271
     1
  0
XRECORD
  5
1B
102
{ACAD_REACTORS
330
1A
102
}
330
1A
100
AcDbXrecord
280
     1
270
     1
271
     1
  0
XRECORD
  5
1F
102
{ACAD_REACTORS
330
1A
102
}
330
1A
100
AcDbXrecord
280
     1
270
     1
271
     1
  0
XRECORD
  5
1E
102
{ACAD_REACTORS
330
1A
102
}
330
1A
100
AcDbXrecord
280
     1
270
     1
271
     1
  0
XRECORD
  5
20
102
{ACAD_REACTORS
330
1A
102
}
330
1A
100
AcDbXrecord
280
     1
270
     1
271
     1
  0
XRECORD
  5
1D
102
{ACAD_REACTORS
330
1A
102
}
330
1A
100
AcDbXrecord
280
     1
270
     1
271
     1
  0
XRECORD
  5
14
102
{ACAD_REACTORS
330
12
102
}
330
12
100
AcDbXrecord
280
     1
270
     1
271
     1
  0
XRECORD
  5
13
102
{ACAD_REACTORS
330
12
102
}
330
12
100
AcDbXrecord
280
     1
270
     1
271
     1
  0
XRECORD
  5
17
102
{ACAD_REACTORS
330
12
102
}
330
12
100
AcDbXrecord
280
     1
270
     1
271
     1
  0
XRECORD
  5
16
102
{ACAD_REACTORS
330
12
102
}
330
12
100
AcDbXrecord
280
     1
270
     1
271
     1
  0
XRECORD
  5
18
102
{ACAD_REACTORS
330
12
102
}
330
12
100
AcDbXrecord
280
     1
270
     1
271
     1
  0
XRECORD
  5
15
102
{ACAD_REACTORS
330
12
102
}
330
12
100
AcDbXrecord
280
     1
270
     1
271
     1
  0
XRECORD
  5
24
102
{ACAD_REACTORS
330
22
102
}
330
22
100
AcDbXrecord
280
     1
270
     1
271
     1
  0
XRECORD
  5
23
102
{ACAD_REACTORS
330
22
102
}
330
22
100
AcDbXrecord
280
     1
270
     1
271
     1
  0
XRECORD
  5
27
102
{ACAD_REACTORS
330
22
102
}
330
22
100
AcDbXrecord
280
     1
270
     1
271
     1
  0
XRECORD
  5
26
102
{ACAD_REACTORS
330
22
102
}
330
22
100
AcDbXrecord
280
     1
270
     1
271
     1
  0
XRECORD
  5
28
102
{ACAD_REACTORS
330
22
102
}
330
22
100
AcDbXrecord
280
     1
270
     1
271
     1
  0
XRECORD
  5
25
102
{ACAD_REACTORS
330
22
102
}
330
22
100
AcDbXrecord
280
     1
270
     1
271
     1
  0
CELLSTYLEMAP
  5
35E
102
{ACAD_REACTORS
330
35D
102
}
330
35D
100
AcDbCellStyleMap
 90
        3
300
CELLSTYLE
  1
TABLEFORMAT_BEGIN
 90
        5
170
     1
 91
        0
 92
    32768
 62
   257
 93
        1
300
CONTENTFORMAT
  1
CONTENTFORMAT_BEGIN
 90
        0
 91
        0
 92
      512
 93
        0
300

 40
0.0
140
1.0
 94
        5
 62
     0
340
55
144
0.25
309
CONTENTFORMAT_END
171
     0
 94
        0
309
TABLEFORMAT_END
  1
CELLSTYLE_BEGIN
 90
        1
 91
        1
300
_TITLE
309
CELLSTYLE_END
300
CELLSTYLE
  1
TABLEFORMAT_BEGIN
 90
        5
170
     1
 91
        0
 92
        0
 62
   257
 93
        1
300
CONTENTFORMAT
  1
CONTENTFORMAT_BEGIN
 90
        0
 91
        0
 92
      512
 93
        0
300

 40
0.0
140
1.0
 94
        5
 62
     0
340
55
144
0.18
309
CONTENTFORMAT_END
171
     0
 94
        0
309
TABLEFORMAT_END
  1
CELLSTYLE_BEGIN
 90
        2
 91
        1
300
_HEADER
309
CELLSTYLE_END
300
CELLSTYLE
  1
TABLEFORMAT_BEGIN
 90
        5
170
     1
 91
        0
 92
        0
 62
   257
 93
        1
300
CONTENTFORMAT
  1
CONTENTFORMAT_BEGIN
 90
        0
 91
        0
 92
      512
 93
        0
300

 40
0.0
140
1.0
 94
        2
 62
     0
340
55
144
0.18
309
CONTENTFORMAT_END
171
     0
 94
        0
309
TABLEFORMAT_END
  1
CELLSTYLE_BEGIN
 90
        3
 91
        2
300
_DATA
309
CELLSTYLE_END
  0
ENDSEC
  0
EOF
