  0
SECTION
  2
HEADER
  9
$ACADVER
  1
AC1032
  9
$ACADMAINTVER
 90
4
  9
$DWGCODEPAGE
  3
ANSI_1252
  9
$LASTSAVEDBY
  1
ezdxf
  9
$REQUIREDVERSIONS
160
0
  9
$INSBASE
 10
0.0
 20
0.0
 30
0.0
  9
$EXTMIN
 10
1e+20
 20
1e+20
 30
1e+20
  9
$EXTMAX
 10
-1e+20
 20
-1e+20
 30
-1e+20
  9
$LIMMIN
 10
0.0
 20
0.0
  9
$LIMMAX
 10
420.0
 20
297.0
  9
$ORTHOMODE
 70
0
  9
$REGENMODE
 70
1
  9
$FILLMODE
 70
1
  9
$QTEXTMODE
 70
0
  9
$MIRRTEXT
 70
1
  9
$LTSCALE
 40
1.0
  9
$ATTMODE
 70
1
  9
$TEXTSIZE
 40
2.5
  9
$TRACEWID
 40
1.0
  9
$TEXTSTYLE
  7
Standard
  9
$CLAYER
  8
0
  9
$CELTYPE
  6
ByLayer
  9
$CECOLOR
 62
256
  9
$CELTSCALE
 40
1.0
  9
$DISPSILH
 70
0
  9
$DIMSCALE
 40
1.0
  9
$DIMASZ
 40
2.5
  9
$DIMEXO
 40
0.625
  9
$DIMDLI
 40
3.75
  9
$DIMRND
 40
0.0
  9
$DIMDLE
 40
0.0
  9
$DIMEXE
 40
1.25
  9
$DIMTP
 40
0.0
  9
$DIMTM
 40
0.0
  9
$DIMTXT
 40
2.5
  9
$DIMCEN
 40
2.5
  9
$DIMTSZ
 40
0.0
  9
$DIMTOL
 70
0
  9
$DIMLIM
 70
0
  9
$DIMTIH
 70
0
  9
$DIMTOH
 70
0
  9
$DIMSE1
 70
0
  9
$DIMSE2
 70
0
  9
$DIMTAD
 70
1
  9
$DIMZIN
 70
8
  9
$DIMBLK
  1

  9
$DIMASO
 70
1
  9
$DIMSHO
 70
1
  9
$DIMPOST
  1

  9
$DIMAPOST
  1

  9
$DIMALT
 70
0
  9
$DIMALTD
 70
3
  9
$DIMALTF
 40
0.03937007874
  9
$DIMLFAC
 40
1.0
  9
$DIMTOFL
 70
1
  9
$DIMTVP
 40
0.0
  9
$DIMTIX
 70
0
  9
$DIMSOXD
 70
0
  9
$DIMSAH
 70
0
  9
$DIMBLK1
  1

  9
$DIMBLK2
  1

  9
$DIMSTYLE
  2
ISO-25
  9
$DIMCLRD
 70
0
  9
$DIMCLRE
 70
0
  9
$DIMCLRT
 70
0
  9
$DIMTFAC
 40
1.0
  9
$DIMGAP
 40
0.625
  9
$DIMJUST
 70
0
  9
$DIMSD1
 70
0
  9
$DIMSD2
 70
0
  9
$DIMTOLJ
 70
0
  9
$DIMTZIN
 70
8
  9
$DIMALTZ
 70
0
  9
$DIMALTTZ
 70
0
  9
$DIMUPT
 70
0
  9
$DIMDEC
 70
2
  9
$DIMTDEC
 70
2
  9
$DIMALTU
 70
2
  9
$DIMALTTD
 70
3
  9
$DIMTXSTY
  7
Standard
  9
$DIMAUNIT
 70
0
  9
$DIMADEC
 70
0
  9
$DIMALTRND
 40
0.0
  9
$DIMAZIN
 70
0
  9
$DIMDSEP
 70
44
  9
$DIMATFIT
 70
3
  9
$DIMFRAC
 70
0
  9
$DIMLDRBLK
  1

  9
$DIMLUNIT
 70
2
  9
$DIMLWD
 70
-2
  9
$DIMLWE
 70
-2
  9
$DIMTMOVE
 70
0
  9
$DIMFXL
 40
1.0
  9
$DIMFXLON
 70
0
  9
$DIMJOGANG
 40
0.785398163397
  9
$DIMTFILL
 70
0
  9
$DIMTFILLCLR
 70
0
  9
$DIMARCSYM
 70
0
  9
$DIMLTYPE
  6

  9
$DIMLTEX1
  6

  9
$DIMLTEX2
  6

  9
$DIMTXTDIRECTION
 70
0
  9
$LUNITS
 70
2
  9
$LUPREC
 70
4
  9
$SKETCHINC
 40
1.0
  9
$FILLETRAD
 40
10.0
  9
$AUNITS
 70
0
  9
$AUPREC
 70
2
  9
$MENU
  1
.
  9
$ELEVATION
 40
0.0
  9
$PELEVATION
 40
0.0
  9
$THICKNESS
 40
0.0
  9
$LIMCHECK
 70
0
  9
$CHAMFERA
 40
0.0
  9
$CHAMFERB
 40
0.0
  9
$CHAMFERC
 40
0.0
  9
$CHAMFERD
 40
0.0
  9
$SKPOLY
 70
0
  9
$TDCREATE
 40
2461303.949085648
  9
$TDUCREATE
 40
2458532.153996898
  9
$TDUPDATE
 40
2461303.949085648
  9
$TDUUPDATE
 40
2458532.1544311
  9
$TDINDWG
 40
0.0
  9
$TDUSRTIMER
 40
0.0
  9
$USRTIMER
 70
1
  9
$ANGBASE
 50
0.0
  9
$ANGDIR
 70
0
  9
$PDMODE
 70
0
  9
$PDSIZE
 40
0.0
  9
$PLINEWID
 40
0.0
  9
$SPLFRAME
 70
0
  9
$SPLINETYPE
 70
6
  9
$SPLINESEGS
 70
8
  9
$HANDSEED
  5
1D1
  9
$SURFTAB1
 70
6
  9
$SURFTAB2
 70
6
  9
$SURFTYPE
 70
6
  9
$SURFU
 70
6
  9
$SURFV
 70
6
  9
$UCSBASE
  2

  9
$UCSNAME
  2

  9
$UCSORG
 10
0.0
 20
0.0
 30
0.0
  9
$UCSXDIR
 10
1.0
 20
0.0
 30
0.0
  9
$UCSYDIR
 10
0.0
 20
1.0
 30
0.0
  9
$UCSORTHOREF
  2

  9
$UCSORTHOVIEW
 70
0
  9
$UCSORGTOP
 10
0.0
 20
0.0
 30
0.0
  9
$UCSORGBOTTOM
 10
0.0
 20
0.0
 30
0.0
  9
$UCSORGLEFT
 10
0.0
 20
0.0
 30
0.0
  9
$UCSORGRIGHT
 10
0.0
 20
0.0
 30
0.0
  9
$UCSORGFRONT
 10
0.0
 20
0.0
 30
0.0
  9
$UCSORGBACK
 10
0.0
 20
0.0
 30
0.0
  9
$PUCSBASE
  2

  9
$PUCSNAME
  2

  9
$PUCSORG
 10
0.0
 20
0.0
 30
0.0
  9
$PUCSXDIR
 10
1.0
 20
0.0
 30
0.0
  9
$PUCSYDIR
 10
0.0
 20
1.0
 30
0.0
  9
$PUCSORTHOREF
  2

  9
$PUCSORTHOVIEW
 70
0
  9
$PUCSORGTOP
 10
0.0
 20
0.0
 30
0.0
  9
$PUCSORGBOTTOM
 10
0.0
 20
0.0
 30
0.0
  9
$PUCSORGLEFT
 10
0.0
 20
0.0
 30
0.0
  9
$PUCSORGRIGHT
 10
0.0
 20
0.0
 30
0.0
  9
$PUCSORGFRONT
 10
0.0
 20
0.0
 30
0.0
  9
$PUCSORGBACK
 10
0.0
 20
0.0
 30
0.0
  9
$USERI1
 70
0
  9
$USERI2
 70
0
  9
$USERI3
 70
0
  9
$USERI4
 70
0
  9
$USERI5
 70
0
  9
$USERR1
 40
0.0
  9
$USERR2
 40
0.0
  9
$USERR3
 40
0.0
  9
$USERR4
 40
0.0
  9
$USERR5
 40
0.0
  9
$WORLDVIEW
 70
1
  9
$SHADEDGE
 70
3
  9
$SHADEDIF
 70
70
  9
$TILEMODE
 70
1
  9
$MAXACTVP
 70
64
  9
$PINSBASE
 10
0.0
 20
0.0
 30
0.0
  9
$PLIMCHECK
 70
0
  9
$PEXTMIN
 10
1e+20
 20
1e+20
 30
1e+20
  9
$PEXTMAX
 10
-1e+20
 20
-1e+20
 30
-1e+20
  9
$PLIMMIN
 10
0.0
 20
0.0
  9
$PLIMMAX
 10
420.0
 20
297.0
  9
$UNITMODE
 70
0
  9
$VISRETAIN
 70
1
  9
$PLINEGEN
 70
0
  9
$PSLTSCALE
 70
1
  9
$TREEDEPTH
 70
3020
  9
$CMLSTYLE
  2
Standard
  9
$CMLJUST
 70
0
  9
$CMLSCALE
 40
20.0
  9
$PROXYGRAPHICS
 70
1
  9
$MEASUREMENT
 70
1
  9
$CELWEIGHT
370
-1
  9
$ENDCAPS
280
0
  9
$JOINSTYLE
280
0
  9
$LWDISPLAY
290
0
  9
$INSUNITS
 70
6
  9
$HYPERLINKBASE
  1

  9
$STYLESHEET
  1

  9
$XEDIT
290
1
  9
$CEPSNTYPE
380
0
  9
$PSTYLEMODE
290
1
  9
$FINGERPRINTGUID
  2
{A1CF3A40-76D8-425F-9423-819D922036F1}
  9
$VERSIONGUID
  2
{02C3203C-7945-4D3A-BB88-0DBAC82C6FC7}
  9
$EXTNAMES
290
1
  9
$PSVPSCALE
 40
0.0
  9
$OLESTARTUP
290
0
  9
$SORTENTS
280
127
  9
$INDEXCTL
280
0
  9
$HIDETEXT
280
1
  9
$XCLIPFRAME
280
1
  9
$HALOGAP
280
0
  9
$OBSCOLOR
 70
257
  9
$OBSLTYPE
280
0
  9
$INTERSECTIONDISPLAY
280
0
  9
$INTERSECTIONCOLOR
 70
257
  9
$DIMASSOC
280
2
  9
$PROJECTNAME
  1

  9
$CAMERADISPLAY
290
0
  9
$LENSLENGTH
 40
50.0
  9
$CAMERAHEIGHT
 40
0.0
  9
$STEPSPERSEC
 40
24.0
  9
$STEPSIZE
 40
100.0
  9
$3DDWFPREC
 40
2.0
  9
$PSOLWIDTH
 40
0.005
  9
$PSOLHEIGHT
 40
0.08
  9
$LOFTANG1
 40
1.570796326795
  9
$LOFTANG2
 40
1.570796326795
  9
$LOFTMAG1
 40
0.0
  9
$LOFTMAG2
 40
0.0
  9
$LOFTPARAM
 70
7
  9
$LOFTNORMALS
280
1
  9
$LATITUDE
 40
37.795
  9
$LONGITUDE
 40
-122.394
  9
$NORTHDIRECTION
 40
0.0
  9
$TIMEZONE
 70
-8000
  9
$LIGHTGLYPHDISPLAY
280
1
  9
$TILEMODELIGHTSYNCH
280
1
  9
$CMATERIAL
347
20
  9
$SOLIDHIST
280
0
  9
$SHOWHIST
280
1
  9
$DWFFRAME
280
2
  9
$DGNFRAME
280
2
  9
$REALWORLDSCALE
290
1
  9
$INTERFERECOLOR
 62
256
  9
$CSHADOW
280
0
  9
$SHADOWPLANELOCATION
 40
0.0
  0
ENDSEC
  0
SECTION
  2
CLASSES
  0
CLASS
  1
ACDBDICTIONARYWDFLT
  2
AcDbDictionaryWithDefault
  3
ObjectDBX Classes
 90
0
 91
0
280
0
281
0
  0
CLASS
  1
SUN
  2
AcDbSun
  3
SCENEOE
 90
1153
 91
0
280
0
281
0
  0
CLASS
  1
VISUALSTYLE
  2
AcDbVisualStyle
  3
ObjectDBX Classes
 90
4095
 91
0
280
0
281
0
  0
CLASS
  1
MATERIAL
  2
AcDbMaterial
  3
ObjectDBX Classes
 90
1153
 91
0
280
0
281
0
  0
CLASS
  1
SCALE
  2
AcDbScale
  3
ObjectDBX Classes
 90
1153
 91
0
280
0
281
0
  0
CLASS
  1
TABLESTYLE
  2
AcDbTableStyle
  3
ObjectDBX Classes
 90
4095
 91
0
280
0
281
0
  0
CLASS
  1
MLEADERSTYLE
  2
AcDbMLeaderStyle
  3
ACDB_MLEADERSTYLE_CLASS
 90
4095
 91
0
280
0
281
0
  0
CLASS
  1
DICTIONARYVAR
  2
AcDbDictionaryVar
  3
ObjectDBX Classes
 90
0
 91
0
280
0
281
0
  0
CLASS
  1
CELLSTYLEMAP
  2
AcDbCellStyleMap
  3
ObjectDBX Classes
 90
1152
 91
0
280
0
281
0
  0
CLASS
  1
MENTALRAYRENDERSETTINGS
  2
AcDbMentalRayRenderSettings
  3
SCENEOE
 90
1024
 91
0
280
0
281
0
  0
CLASS
  1
ACDBDETAILVIEWSTYLE
  2
AcDbDetailViewStyle
  3
ObjectDBX Classes
 90
1025
 91
0
280
0
281
0
  0
CLASS
  1
ACDBSECTIONVIEWSTYLE
  2
AcDbSectionViewStyle
  3
ObjectDBX Classes
 90
1025
 91
0
280
0
281
0
  0
CLASS
  1
RASTERVARIABLES
  2
AcDbRasterVariables
  3
ISM
 90
0
 91
0
280
0
281
0
  0
CLASS
  1
ACDBPLACEHOLDER
  2
AcDbPlaceHolder
  3
ObjectDBX Classes
 90
0
 91
0
280
0
281
0
  0
CLASS
  1
LAYOUT
  2
AcDbLayout
  3
ObjectDBX Classes
 90
0
 91
0
280
0
281
0
  0
ENDSEC
  0
SECTION
  2
TABLES
  0
TABLE
  2
VPORT
  5
8
330
0
100
AcDbSymbolTable
 70
1
  0
VPORT
  5
23
330
8
100
AcDbSymbolTableRecord
100
AcDbViewportTableRecord
  2
*Active
 70
0
 10
0.0
 20
0.0
 11
1.0
 21
1.0
 12
0.0
 22
0.0
 13
0.0
 23
0.0
 14
0.5
 24
0.5
 15
0.5
 25
0.5
 16
0.0
 26
0.0
 36
1.0
 17
0.0
 27
0.0
 37
0.0
 40
1000.0
 41
1.34
 42
50.0
 43
0.0
 44
0.0
 50
0.0
 51
0.0
 71
0
 72
1000
 73
1
 74
3
 75
0
 76
0
 77
0
 78
0
281
0
 65
0
146
0.0
  0
ENDTAB
  0
TABLE
  2
LTYPE
  5
2
330
0
100
AcDbSymbolTable
 70
3
  0
LTYPE
  5
24
330
2
100
AcDbSymbolTableRecord
100
AcDbLinetypeTableRecord
  2
ByBlock
 70
0
  3

 72
65
 73
0
 40
0.0
  0
LTYPE
  5
25
330
2
100
AcDbSymbolTableRecord
100
AcDbLinetypeTableRecord
  2
ByLayer
 70
0
  3

 72
65
 73
0
 40
0.0
  0
LTYPE
  5
26
330
2
100
AcDbSymbolTableRecord
100
AcDbLinetypeTableRecord
  2
Continuous
 70
0
  3

 72
65
 73
0
 40
0.0
  0
ENDTAB
  0
TABLE
  2
LAYER
  5
1
330
0
100
AcDbSymbolTable
 70
9
  0
LAYER
  5
27
330
1
100
AcDbSymbolTableRecord
100
AcDbLayerTableRecord
  2
0
 70
0
 62
7
  6
Continuous
370
-3
390
13
347
21
  0
LAYER
  5
28
330
1
100
AcDbSymbolTableRecord
100
AcDbLayerTableRecord
  2
Defpoints
 70
0
 62
7
  6
Continuous
290
0
370
-3
390
13
347
21
  0
LAYER
  5
2F
330
1
100
AcDbSymbolTableRecord
100
AcDbLayerTableRecord
  2
OUTLINE
 70
0
 62
7
  6
Continuous
370
-3
390
13
347
21
  0
LAYER
  5
30
330
1
100
AcDbSymbolTableRecord
100
AcDbLayerTableRecord
  2
BEND_LINES
 70
0
 62
1
  6
Continuous
370
-3
390
13
347
21
  0
LAYER
  5
31
330
1
100
AcDbSymbolTableRecord
100
AcDbLayerTableRecord
  2
CUTOUTS
 70
0
 62
3
  6
Continuous
370
-3
390
13
347
21
  0
LAYER
  5
32
330
1
100
AcDbSymbolTableRecord
100
AcDbLayerTableRecord
  2
HOLES
 70
0
 62
4
  6
Continuous
370
-3
390
13
347
21
  0
LAYER
  5
33
330
1
100
AcDbSymbolTableRecord
100
AcDbLayerTableRecord
  2
NOTCHES
 70
0
 62
6
  6
Continuous
370
-3
390
13
347
21
  0
LAYER
  5
34
330
1
100
AcDbSymbolTableRecord
100
AcDbLayerTableRecord
  2
CHANNELS
 70
0
 62
5
  6
Continuous
370
-3
390
13
347
21
  0
LAYER
  5
35
330
1
100
AcDbSymbolTableRecord
100
AcDbLayerTableRecord
  2
TEXT
 70
0
 62
2
  6
Continuous
370
-3
390
13
347
21
  0
ENDTAB
  0
TABLE
  2
STYLE
  5
5
330
0
100
AcDbSymbolTable
 70
1
  0
STYLE
  5
29
330
5
100
AcDbSymbolTableRecord
100
AcDbTextStyleTableRecord
  2
Standard
 70
0
 40
0.0
 41
1.0
 50
0.0
 71
0
 42
2.5
  3
txt
  4

  0
ENDTAB
  0
TABLE
  2
VIEW
  5
7
330
0
100
AcDbSymbolTable
 70
0
  0
ENDTAB
  0
TABLE
  2
UCS
  5
6
330
0
100
AcDbSymbolTable
 70
0
  0
ENDTAB
  0
TABLE
  2
APPID
  5
3
330
0
100
AcDbSymbolTable
 70
3
  0
APPID
  5
2A
330
3
100
AcDbSymbolTableRecord
100
AcDbRegAppTableRecord
  2
ACAD
 70
0
  0
APPID
  5
1CE
330
3
100
AcDbSymbolTableRecord
100
AcDbRegAppTableRecord
  2
HATCHBACKGROUNDCOLOR
 70
0
  0
APPID
  5
1CF
330
3
100
AcDbSymbolTableRecord
100
AcDbRegAppTableRecord
  2
EZDXF
 70
0
  0
ENDTAB
  0
TABLE
  2
DIMSTYLE
  5
4
330
0
100
AcDbSymbolTable
 70
1
100
AcDbDimStyleTable
  0
DIMSTYLE
105
2B
330
4
100
AcDbSymbolTableRecord
100
AcDbDimStyleTableRecord
  2
Standard
 70
0
 40
1.0
 41
2.5
 42
0.625
 43
3.75
 44
1.25
 45
0.0
 46
0.0
 47
0.0
 48
0.0
 49
2.5
140
2.5
141
2.5
142
0.0
143
0.03937007874
144
1.0
145
0.0
146
1.0
147
0.625
148
0.0
 69
0
 70
0
 71
0
 72
0
 73
0
 74
0
 75
0
 76
0
 77
1
 78
8
 79
3
170
0
171
3
172
1
173
0
174
0
175
0
176
0
177
0
178
0
179
2
271
2
272
2
273
2
274
3
275
0
276
0
277
2
278
44
279
0
280
0
281
0
282
0
283
0
284
8
285
0
286
0
288
0
289
3
290
0
371
-2
372
-2
  0
ENDTAB
  0
TABLE
  2
BLOCK_RECORD
  5
9
330
0
100
AcDbSymbolTable
 70
2
  0
BLOCK_RECORD
  5
17
330
9
100
AcDbSymbolTableRecord
100
AcDbBlockTableRecord
  2
*Model_Space
340
1A
 70
0
280
1
281
0
  0
BLOCK_RECORD
  5
1B
330
9
100
AcDbSymbolTableRecord
100
AcDbBlockTableRecord
  2
*Paper_Space
340
1E
 70
0
280
1
281
0
  0
ENDTAB
  0
ENDSEC
  0
SECTION
  2
BLOCKS
  0
BLOCK
  5
18
330
17
100
AcDbEntity
  8
0
100
AcDbBlockBegin
  2
*Model_Space
 70
0
 10
0.0
 20
0.0
 30
0.0
  3
*Model_Space
  1

  0
ENDBLK
  5
19
330
17
100
AcDbEntity
  8
0
100
AcDbBlockEnd
  0
BLOCK
  5
1C
330
1B
100
AcDbEntity
  8
0
100
AcDbBlockBegin
  2
*Paper_Space
 70
0
 10
0.0
 20
0.0
 30
0.0
  3
*Paper_Space
  1

  0
ENDBLK
  5
1D
330
1B
100
AcDbEntity
  8
0
100
AcDbBlockEnd
  0
ENDSEC
  0
SECTION
  2
ENTITIES
  0
LWPOLYLINE
  5
36
330
17
100
AcDbEntity
  8
OUTLINE
100
AcDbPolyline
 90
44
 70
1
 10
141.6687240237369
 20
2041.0
 10
137.1687240237369
 20
2045.5
 10
134.03498535184156
 20
2047.0
 10
126.5349853518419
 20
2047.0
 10
123.40124667971384
 20
2050.0
 10
114.90124667971361
 20
2058.5
 10
111.7675080078186
 20
2060.0
 10
99.76750800781895
 20
2060.0
 10
99.76750800781895
 20
2069.0
 10
96.7675080078186
 20
2072.0
 10
92.76750800781895
 20
2072.0
 10
89.7675080078186
 20
2069.0
 10
89.7675080078186
 20
2060.0
 10
74.2675080078186
 20
2060.0
 10
74.2675080078186
 20
2069.0
 10
71.26750800781895
 20
2072.0
 10
67.2675080078186
 20
2072.0
 10
64.26750800781872
 20
2069.0
 10
64.26750800781872
 20
2060.0
 10
52.267508007818606
 20
2060.0
 10
49.13376933569066
 20
2063.0
 10
15.133769336156433
 20
2097.0
 10
12.000030663795428
 20
2098.5
 10
0.0
 20
2098.5
 10
0.0
 20
0.0
 10
315.9362400395322
 20
0.0
 10
315.93624003976527
 20
2098.5
 10
303.93624003953335
 20
2098.5
 10
300.8025013676373
 20
2097.0
 10
244.80250136763732
 20
2041.0
 10
241.66876269550914
 20
2038.0
 10
229.6687626957422
 20
2038.0
 10
229.6687626957422
 20
2047.0
 10
226.6687626957422
 20
2050.0
 10
222.6687626957422
 20
2050.0
 10
219.6687626957422
 20
2047.0
 10
219.6687626957422
 20
2038.0
 10
166.80246269563224
 20
2038.0
 10
166.80246269563224
 20
2047.0
 10
163.80246269563202
 20
2050.0
 10
159.8024626956319
 20
2050.0
 10
156.8024626956319
 20
2047.0
 10
156.8024626956319
 20
2038.0
 10
144.8024626956319
 20
2038.0
  0
LWPOLYLINE
  5
37
330
17
100
AcDbEntity
  8
CUTOUTS
100
AcDbPolyline
 90
4
 70
1
 10
48.9
 20
150.0
 10
79.4
 20
150.0
 10
79.4
 20
252.0
 10
48.9
 20
252.0
  0
LWPOLYLINE
  5
38
330
17
100
AcDbEntity
  8
CUTOUTS
100
AcDbPolyline
 90
4
 70
1
 10
48.9
 20
878.0
 10
79.4
 20
878.0
 10
79.4
 20
980.0
 10
48.9
 20
980.0
  0
LWPOLYLINE
  5
39
330
17
100
AcDbEntity
  8
CUTOUTS
100
AcDbPolyline
 90
4
 70
1
 10
48.9
 20
1606.0
 10
79.4
 20
1606.0
 10
79.4
 20
1708.0
 10
48.9
 20
1708.0
  0
LWPOLYLINE
  5
3A
330
17
100
AcDbEntity
  8
CUTOUTS
100
AcDbPolyline
 90
4
 70
1
 10
48.9
 20
1808.0
 10
79.4
 20
1808.0
 10
79.4
 20
1910.0
 10
48.9
 20
1910.0
  0
CIRCLE
  5
3B
330
17
100
AcDbEntity
  8
HOLES
100
AcDbCircle
 10
72.26
 20
1517.5
 30
0.0
 40
2.0
  0
CIRCLE
  5
3C
330
17
100
AcDbEntity
  8
HOLES
100
AcDbCircle
 10
72.26
 20
1447.5
 30
0.0
 40
2.0
  0
CIRCLE
  5
3D
330
17
100
AcDbEntity
  8
HOLES
100
AcDbCircle
 10
193.23000000000002
 20
150.0
 30
0.0
 40
3.25
  0
CIRCLE
  5
3E
330
17
100
AcDbEntity
  8
HOLES
100
AcDbCircle
 10
193.23000000000002
 20
729.3333333333334
 30
0.0
 40
3.25
  0
CIRCLE
  5
3F
330
17
100
AcDbEntity
  8
HOLES
100
AcDbCircle
 10
193.23000000000002
 20
1308.6666666666667
 30
0.0
 40
3.25
  0
CIRCLE
  5
40
330
17
100
AcDbEntity
  8
HOLES
100
AcDbCircle
 10
193.23000000000002
 20
1888.0
 30
0.0
 40
3.25
  0
LINE
  5
41
330
17
100
AcDbEntity
  8
NOTCHES
100
AcDbLine
 10
143.23559335968446
 20
3.0
 30
0.0
 11
143.23559335968446
 21
0.0
 31
0.0
  0
LINE
  5
42
330
17
100
AcDbEntity
  8
NOTCHES
100
AcDbLine
 10
243.23563203169022
 20
3.0
 30
0.0
 11
243.23563203169022
 21
0.0
 31
0.0
  0
LINE
  5
43
330
17
100
AcDbEntity
  8
NOTCHES
100
AcDbLine
 10
135.6018546875565
 20
3.0
 30
0.0
 11
135.6018546875565
 21
0.0
 31
0.0
  0
LINE
  5
44
330
17
100
AcDbEntity
  8
NOTCHES
100
AcDbLine
 10
50.700638671870934
 20
3.0
 30
0.0
 11
50.700638671870934
 21
0.0
 31
0.0
  0
LINE
  5
45
330
17
100
AcDbEntity
  8
NOTCHES
100
AcDbLine
 10
302.36937070358533
 20
3.0
 30
0.0
 11
302.36937070358533
 21
0.0
 31
0.0
  0
LINE
  5
46
330
17
100
AcDbEntity
  8
NOTCHES
100
AcDbLine
 10
13.56689999997593
 20
3.0
 30
0.0
 11
13.56689999997593
 21
0.0
 31
0.0
  0
LINE
  5
47
330
17
100
AcDbEntity
  8
NOTCHES
100
AcDbLine
 10
124.96811601566117
 20
1.0
 30
0.0
 11
124.96811601566117
 21
0.0
 31
0.0
  0
LINE
  5
48
330
17
100
AcDbEntity
  8
NOTCHES
100
AcDbLine
 10
113.3343773437665
 20
1.047160253394394
 30
0.0
 11
113.3343773437665
 21
0.0471602533943951
 31
0.0
  0
LINE
  5
49
330
17
100
AcDbEntity
  8
NOTCHES
100
AcDbLine
 10
50.700638671870934
 20
2061.5
 30
0.0
 11
50.700638671870934
 21
2058.5
 31
0.0
  0
LINE
  5
4A
330
17
100
AcDbEntity
  8
NOTCHES
100
AcDbLine
 10
113.3343773437665
 20
2059.25
 30
0.0
 11
113.3343773437665
 21
2058.25
 31
0.0
  0
LINE
  5
4B
330
17
100
AcDbEntity
  8
NOTCHES
100
AcDbLine
 10
124.96811601566117
 20
2048.5
 30
0.0
 11
124.96811601566117
 21
2047.5
 31
0.0
  0
LINE
  5
4C
330
17
100
AcDbEntity
  8
NOTCHES
100
AcDbLine
 10
135.6018546875565
 20
2046.25
 30
0.0
 11
135.6018546875565
 21
2043.25
 31
0.0
  0
LINE
  5
4D
330
17
100
AcDbEntity
  8
NOTCHES
100
AcDbLine
 10
143.23559335968446
 20
2039.5
 30
0.0
 11
143.23559335968446
 21
2036.5
 31
0.0
  0
LINE
  5
4E
330
17
100
AcDbEntity
  8
NOTCHES
100
AcDbLine
 10
243.23563203169022
 20
2039.5
 30
0.0
 11
243.23563203169022
 21
2036.5
 31
0.0
  0
LINE
  5
4F
330
17
100
AcDbEntity
  8
NOTCHES
100
AcDbLine
 10
302.36937070358533
 20
2097.75
 30
0.0
 11
302.36937070358533
 21
2094.75
 31
0.0
  0
LINE
  5
50
330
17
100
AcDbEntity
  8
NOTCHES
100
AcDbLine
 10
13.56689999997593
 20
2097.75
 30
0.0
 11
13.56689999997593
 21
2094.75
 31
0.0
  0
LINE
  5
51
330
17
100
AcDbEntity
  8
NOTCHES
100
AcDbLine
 10
143.23559335968446
 20
3.0
 30
0.0
 11
143.23559335968446
 21
0.0
 31
0.0
  0
LINE
  5
52
330
17
100
AcDbEntity
  8
NOTCHES
100
AcDbLine
 10
243.23563203169022
 20
3.0
 30
0.0
 11
243.23563203169022
 21
0.0
 31
0.0
  0
LINE
  5
53
330
17
100
AcDbEntity
  8
NOTCHES
100
AcDbLine
 10
135.6018546875565
 20
3.0
 30
0.0
 11
135.6018546875565
 21
0.0
 31
0.0
  0
LINE
  5
54
330
17
100
AcDbEntity
  8
NOTCHES
100
AcDbLine
 10
50.700638671870934
 20
3.0
 30
0.0
 11
50.700638671870934
 21
0.0
 31
0.0
  0
LINE
  5
55
330
17
100
AcDbEntity
  8
NOTCHES
100
AcDbLine
 10
302.36937070358533
 20
3.0
 30
0.0
 11
302.36937070358533
 21
0.0
 31
0.0
  0
LINE
  5
56
330
17
100
AcDbEntity
  8
NOTCHES
100
AcDbLine
 10
13.56689999997593
 20
3.0
 30
0.0
 11
13.56689999997593
 21
0.0
 31
0.0
  0
LINE
  5
57
330
17
100
AcDbEntity
  8
NOTCHES
100
AcDbLine
 10
124.96811601566117
 20
1.0
 30
0.0
 11
124.96811601566117
 21
0.0
 31
0.0
  0
LINE
  5
58
330
17
100
AcDbEntity
  8
NOTCHES
100
AcDbLine
 10
113.3343773437665
 20
1.047160253394394
 30
0.0
 11
113.3343773437665
 21
0.0471602533943951
 31
0.0
  0
LINE
  5
59
330
17
100
AcDbEntity
  8
NOTCHES
100
AcDbLine
 10
50.700638671870934
 20
2061.5
 30
0.0
 11
50.700638671870934
 21
2058.5
 31
0.0
  0
LINE
  5
5A
330
17
100
AcDbEntity
  8
NOTCHES
100
AcDbLine
 10
113.3343773437665
 20
2059.25
 30
0.0
 11
113.3343773437665
 21
2058.25
 31
0.0
  0
LINE
  5
5B
330
17
100
AcDbEntity
  8
NOTCHES
100
AcDbLine
 10
124.96811601566117
 20
2048.5
 30
0.0
 11
124.96811601566117
 21
2047.5
 31
0.0
  0
LINE
  5
5C
330
17
100
AcDbEntity
  8
NOTCHES
100
AcDbLine
 10
135.6018546875565
 20
2046.25
 30
0.0
 11
135.6018546875565
 21
2043.25
 31
0.0
  0
LINE
  5
5D
330
17
100
AcDbEntity
  8
NOTCHES
100
AcDbLine
 10
143.23559335968446
 20
2039.5
 30
0.0
 11
143.23559335968446
 21
2036.5
 31
0.0
  0
LINE
  5
5E
330
17
100
AcDbEntity
  8
NOTCHES
100
AcDbLine
 10
243.23563203169022
 20
2039.5
 30
0.0
 11
243.23563203169022
 21
2036.5
 31
0.0
  0
LINE
  5
5F
330
17
100
AcDbEntity
  8
NOTCHES
100
AcDbLine
 10
302.36937070358533
 20
2097.75
 30
0.0
 11
302.36937070358533
 21
2094.75
 31
0.0
  0
LINE
  5
60
330
17
100
AcDbEntity
  8
NOTCHES
100
AcDbLine
 10
13.56689999997593
 20
2097.75
 30
0.0
 11
13.56689999997593
 21
2094.75
 31
0.0
  0
LINE
  5
61
330
17
100
AcDbEntity
  8
NOTCHES
100
AcDbLine
 10
143.23559335968446
 20
3.0
 30
0.0
 11
143.23559335968446
 21
0.0
 31
0.0
  0
LINE
  5
62
330
17
100
AcDbEntity
  8
NOTCHES
100
AcDbLine
 10
243.23563203169022
 20
3.0
 30
0.0
 11
243.23563203169022
 21
0.0
 31
0.0
  0
LINE
  5
63
330
17
100
AcDbEntity
  8
NOTCHES
100
AcDbLine
 10
135.6018546875565
 20
3.0
 30
0.0
 11
135.6018546875565
 21
0.0
 31
0.0
  0
LINE
  5
64
330
17
100
AcDbEntity
  8
NOTCHES
100
AcDbLine
 10
50.700638671870934
 20
3.0
 30
0.0
 11
50.700638671870934
 21
0.0
 31
0.0
  0
LINE
  5
65
330
17
100
AcDbEntity
  8
NOTCHES
100
AcDbLine
 10
302.36937070358533
 20
3.0
 30
0.0
 11
302.36937070358533
 21
0.0
 31
0.0
  0
LINE
  5
66
330
17
100
AcDbEntity
  8
NOTCHES
100
AcDbLine
 10
13.56689999997593
 20
3.0
 30
0.0
 11
13.56689999997593
 21
0.0
 31
0.0
  0
LINE
  5
67
330
17
100
AcDbEntity
  8
NOTCHES
100
AcDbLine
 10
124.96811601566117
 20
1.0
 30
0.0
 11
124.96811601566117
 21
0.0
 31
0.0
  0
LINE
  5
68
330
17
100
AcDbEntity
  8
NOTCHES
100
AcDbLine
 10
113.3343773437665
 20
1.047160253394394
 30
0.0
 11
113.3343773437665
 21
0.0471602533943951
 31
0.0
  0
LINE
  5
69
330
17
100
AcDbEntity
  8
NOTCHES
100
AcDbLine
 10
50.700638671870934
 20
2061.5
 30
0.0
 11
50.700638671870934
 21
2058.5
 31
0.0
  0
LINE
  5
6A
330
17
100
AcDbEntity
  8
NOTCHES
100
AcDbLine
 10
113.3343773437665
 20
2059.25
 30
0.0
 11
113.3343773437665
 21
2058.25
 31
0.0
  0
LINE
  5
6B
330
17
100
AcDbEntity
  8
NOTCHES
100
AcDbLine
 10
124.96811601566117
 20
2048.5
 30
0.0
 11
124.96811601566117
 21
2047.5
 31
0.0
  0
LINE
  5
6C
330
17
100
AcDbEntity
  8
NOTCHES
100
AcDbLine
 10
135.6018546875565
 20
2046.25
 30
0.0
 11
135.6018546875565
 21
2043.25
 31
0.0
  0
LINE
  5
6D
330
17
100
AcDbEntity
  8
NOTCHES
100
AcDbLine
 10
143.23559335968446
 20
2039.5
 30
0.0
 11
143.23559335968446
 21
2036.5
 31
0.0
  0
LINE
  5
6E
330
17
100
AcDbEntity
  8
NOTCHES
100
AcDbLine
 10
243.23563203169022
 20
2039.5
 30
0.0
 11
243.23563203169022
 21
2036.5
 31
0.0
  0
LINE
  5
6F
330
17
100
AcDbEntity
  8
NOTCHES
100
AcDbLine
 10
302.36937070358533
 20
2097.75
 30
0.0
 11
302.36937070358533
 21
2094.75
 31
0.0
  0
LINE
  5
70
330
17
100
AcDbEntity
  8
NOTCHES
100
AcDbLine
 10
13.56689999997593
 20
2097.75
 30
0.0
 11
13.56689999997593
 21
2094.75
 31
0.0
  0
LINE
  5
71
330
17
100
AcDbEntity
  8
NOTCHES
100
AcDbLine
 10
143.23559335968446
 20
3.0
 30
0.0
 11
143.23559335968446
 21
0.0
 31
0.0
  0
LINE
  5
72
330
17
100
AcDbEntity
  8
NOTCHES
100
AcDbLine
 10
243.23563203169022
 20
3.0
 30
0.0
 11
243.23563203169022
 21
0.0
 31
0.0
  0
LINE
  5
73
330
17
100
AcDbEntity
  8
NOTCHES
100
AcDbLine
 10
135.6018546875565
 20
3.0
 30
0.0
 11
135.6018546875565
 21
0.0
 31
0.0
  0
LINE
  5
74
330
17
100
AcDbEntity
  8
NOTCHES
100
AcDbLine
 10
50.700638671870934
 20
3.0
 30
0.0
 11
50.700638671870934
 21
0.0
 31
0.0
  0
LINE
  5
75
330
17
100
AcDbEntity
  8
NOTCHES
100
AcDbLine
 10
302.36937070358533
 20
3.0
 30
0.0
 11
302.36937070358533
 21
0.0
 31
0.0
  0
LINE
  5
76
330
17
100
AcDbEntity
  8
NOTCHES
100
AcDbLine
 10
13.56689999997593
 20
3.0
 30
0.0
 11
13.56689999997593
 21
0.0
 31
0.0
  0
LINE
  5
77
330
17
100
AcDbEntity
  8
NOTCHES
100
AcDbLine
 10
124.96811601566117
 20
1.0
 30
0.0
 11
124.96811601566117
 21
0.0
 31
0.0
  0
LINE
  5
78
330
17
100
AcDbEntity
  8
NOTCHES
100
AcDbLine
 10
113.3343773437665
 20
1.047160253394394
 30
0.0
 11
113.3343773437665
 21
0.0471602533943951
 31
0.0
  0
LINE
  5
79
330
17
100
AcDbEntity
  8
NOTCHES
100
AcDbLine
 10
50.700638671870934
 20
2061.5
 30
0.0
 11
50.700638671870934
 21
2058.5
 31
0.0
  0
LINE
  5
7A
330
17
100
AcDbEntity
  8
NOTCHES
100
AcDbLine
 10
113.3343773437665
 20
2059.25
 30
0.0
 11
113.3343773437665
 21
2058.25
 31
0.0
  0
LINE
  5
7B
330
17
100
AcDbEntity
  8
NOTCHES
100
AcDbLine
 10
124.96811601566117
 20
2048.5
 30
0.0
 11
124.96811601566117
 21
2047.5
 31
0.0
  0
LINE
  5
7C
330
17
100
AcDbEntity
  8
NOTCHES
100
AcDbLine
 10
135.6018546875565
 20
2046.25
 30
0.0
 11
135.6018546875565
 21
2043.25
 31
0.0
  0
LINE
  5
7D
330
17
100
AcDbEntity
  8
NOTCHES
100
AcDbLine
 10
143.23559335968446
 20
2039.5
 30
0.0
 11
143.23559335968446
 21
2036.5
 31
0.0
  0
LINE
  5
7E
330
17
100
AcDbEntity
  8
NOTCHES
100
AcDbLine
 10
243.23563203169022
 20
2039.5
 30
0.0
 11
243.23563203169022
 21
2036.5
 31
0.0
  0
LINE
  5
7F
330
17
100
AcDbEntity
  8
NOTCHES
100
AcDbLine
 10
302.36937070358533
 20
2097.75
 30
0.0
 11
302.36937070358533
 21
2094.75
 31
0.0
  0
LINE
  5
80
330
17
100
AcDbEntity
  8
NOTCHES
100
AcDbLine
 10
13.56689999997593
 20
2097.75
 30
0.0
 11
13.56689999997593
 21
2094.75
 31
0.0
  0
LWPOLYLINE
  5
81
330
17
100
AcDbEntity
  8
NOTCHES
100
AcDbPolyline
 90
4
 70
1
 10
77.63380800792925
 20
6.0
 10
65.63380800792947
 20
6.0
 10
65.63380800792947
 20
4.0
 10
77.63380800792925
 20
4.0
  0
LWPOLYLINE
  5
82
330
17
100
AcDbEntity
  8
NOTCHES
100
AcDbPolyline
 90
4
 70
1
 10
216.30246269539919
 20
11.0
 10
228.30246269539919
 20
11.0
 10
228.30246269539919
 20
9.0
 10
216.30246269539919
 20
9.0
  0
LWPOLYLINE
  5
83
330
17
100
AcDbEntity
  8
OUTLINE
100
AcDbPolyline
 90
44
 70
1
 10
690.1975160160289
 20
2041.0
 10
694.697516016028
 20
2045.5
 10
697.831254687924
 20
2047.0
 10
705.331254687924
 20
2047.0
 10
708.4649933598189
 20
2050.0
 10
716.9649933598189
 20
2058.5
 10
720.098732031714
 20
2060.0
 10
732.098732031714
 20
2060.0
 10
732.098732031714
 20
2069.0
 10
735.098732031714
 20
2072.0
 10
739.098732031714
 20
2072.0
 10
742.098732031714
 20
2069.0
 10
742.098732031714
 20
2060.0
 10
757.598732031714
 20
2060.0
 10
757.598732031714
 20
2069.0
 10
760.598732031714
 20
2072.0
 10
764.598732031714
 20
2072.0
 10
767.598732031714
 20
2069.0
 10
767.598732031714
 20
2060.0
 10
779.598732031714
 20
2060.0
 10
782.7324707036089
 20
2063.0
 10
816.7324707036089
 20
2097.0
 10
819.8662093755029
 20
2098.5
 10
831.8662400395331
 20
2098.5
 10
831.866240039765
 20
0.0
 10
515.9300000000001
 20
0.0
 10
515.9300000000001
 20
2098.5
 10
527.9300000000001
 20
2098.5
 10
531.063738671895
 20
2097.0
 10
587.063738671895
 20
2041.0
 10
590.1974773437901
 20
2038.0
 10
602.1974773437901
 20
2038.0
 10
602.1974773437901
 20
2047.0
 10
605.1974773437901
 20
2050.0
 10
609.1974773437901
 20
2050.0
 10
612.1974773437901
 20
2047.0
 10
612.1974773437901
 20
2038.0
 10
665.0637773436679
 20
2038.0
 10
665.0637773436679
 20
2047.0
 10
668.0637773436679
 20
2050.0
 10
672.0637773436679
 20
2050.0
 10
675.0637773436679
 20
2047.0
 10
675.0637773436679
 20
2038.0
 10
687.0637773439009
 20
2038.0
  0
LWPOLYLINE
  5
84
330
17
100
AcDbEntity
  8
CUTOUTS
100
AcDbPolyline
 90
8
 70
1
 10
773.4382784744439
 20
1044.5
 10
773.4382784744439
 20
952.25
 10
748.9382784744439
 20
952.25
 10
748.9382784744439
 20
1122.75
 10
773.4382784744439
 20
1122.75
 10
773.4382784744439
 20
1110.5
 10
781.765601367754
 20
1110.5
 10
781.765601367754
 20
1044.5
  0
CIRCLE
  5
85
330
17
100
AcDbEntity
  8
HOLES
100
AcDbCircle
 10
638.6300000000001
 20
150.0
 30
0.0
 40
3.25
  0
CIRCLE
  5
86
330
17
100
AcDbEntity
  8
HOLES
100
AcDbCircle
 10
638.6300000000001
 20
729.3333333333334
 30
0.0
 40
3.25
  0
CIRCLE
  5
87
330
17
100
AcDbEntity
  8
HOLES
100
AcDbCircle
 10
638.6300000000001
 20
1308.6666666666667
 30
0.0
 40
3.25
  0
CIRCLE
  5
88
330
17
100
AcDbEntity
  8
HOLES
100
AcDbCircle
 10
638.6300000000001
 20
1888.0
 30
0.0
 40
3.25
  0
LINE
  5
89
330
17
100
AcDbEntity
  8
NOTCHES
100
AcDbLine
 10
688.630646679848
 20
3.0
 30
0.0
 11
688.630646679848
 21
0.0
 31
0.0
  0
LINE
  5
8A
330
17
100
AcDbEntity
  8
NOTCHES
100
AcDbLine
 10
588.6306080080749
 20
3.0
 30
0.0
 11
588.6306080080749
 21
0.0
 31
0.0
  0
LINE
  5
8B
330
17
100
AcDbEntity
  8
NOTCHES
100
AcDbLine
 10
696.2643853517429
 20
3.0
 30
0.0
 11
696.2643853517429
 21
0.0
 31
0.0
  0
LINE
  5
8C
330
17
100
AcDbEntity
  8
NOTCHES
100
AcDbLine
 10
781.1656013678939
 20
3.0
 30
0.0
 11
781.1656013678939
 21
0.0
 31
0.0
  0
LINE
  5
8D
330
17
100
AcDbEntity
  8
NOTCHES
100
AcDbLine
 10
529.4968693359469
 20
3.0
 30
0.0
 11
529.4968693359469
 21
0.0
 31
0.0
  0
LINE
  5
8E
330
17
100
AcDbEntity
  8
NOTCHES
100
AcDbLine
 10
818.2993400397879
 20
3.0
 30
0.0
 11
818.2993400397879
 21
0.0
 31
0.0
  0
LINE
  5
8F
330
17
100
AcDbEntity
  8
NOTCHES
100
AcDbLine
 10
706.8981240238709
 20
1.0
 30
0.0
 11
706.8981240238709
 21
0.0
 31
0.0
  0
LINE
  5
90
330
17
100
AcDbEntity
  8
NOTCHES
100
AcDbLine
 10
718.5318626955338
 20
1.047160253394394
 30
0.0
 11
718.5318626955338
 21
0.0471602533943951
 31
0.0
  0
LINE
  5
91
330
17
100
AcDbEntity
  8
NOTCHES
100
AcDbLine
 10
781.1656013678939
 20
2061.5
 30
0.0
 11
781.1656013678939
 21
2055.5
 31
0.0
  0
LINE
  5
92
330
17
100
AcDbEntity
  8
NOTCHES
100
AcDbLine
 10
718.5318626955338
 20
2059.25
 30
0.0
 11
718.5318626955338
 21
2058.25
 31
0.0
  0
LINE
  5
93
330
17
100
AcDbEntity
  8
NOTCHES
100
AcDbLine
 10
706.8981240238709
 20
2048.5
 30
0.0
 11
706.8981240238709
 21
2047.5
 31
0.0
  0
LINE
  5
94
330
17
100
AcDbEntity
  8
NOTCHES
100
AcDbLine
 10
696.2643853517429
 20
2046.25
 30
0.0
 11
696.2643853517429
 21
2043.25
 31
0.0
  0
LINE
  5
95
330
17
100
AcDbEntity
  8
NOTCHES
100
AcDbLine
 10
688.630646679848
 20
2039.5
 30
0.0
 11
688.630646679848
 21
2036.5
 31
0.0
  0
LINE
  5
96
330
17
100
AcDbEntity
  8
NOTCHES
100
AcDbLine
 10
588.6306080080749
 20
2039.5
 30
0.0
 11
588.6306080080749
 21
2036.5
 31
0.0
  0
LINE
  5
97
330
17
100
AcDbEntity
  8
NOTCHES
100
AcDbLine
 10
529.4968693359469
 20
2097.75
 30
0.0
 11
529.4968693359469
 21
2094.75
 31
0.0
  0
LINE
  5
98
330
17
100
AcDbEntity
  8
NOTCHES
100
AcDbLine
 10
818.2993400397879
 20
2097.75
 30
0.0
 11
818.2993400397879
 21
2094.75
 31
0.0
  0
LINE
  5
99
330
17
100
AcDbEntity
  8
NOTCHES
100
AcDbLine
 10
688.630646679848
 20
3.0
 30
0.0
 11
688.630646679848
 21
0.0
 31
0.0
  0
LINE
  5
9A
330
17
100
AcDbEntity
  8
NOTCHES
100
AcDbLine
 10
588.6306080080749
 20
3.0
 30
0.0
 11
588.6306080080749
 21
0.0
 31
0.0
  0
LINE
  5
9B
330
17
100
AcDbEntity
  8
NOTCHES
100
AcDbLine
 10
696.2643853517429
 20
3.0
 30
0.0
 11
696.2643853517429
 21
0.0
 31
0.0
  0
LINE
  5
9C
330
17
100
AcDbEntity
  8
NOTCHES
100
AcDbLine
 10
781.1656013678939
 20
3.0
 30
0.0
 11
781.1656013678939
 21
0.0
 31
0.0
  0
LINE
  5
9D
330
17
100
AcDbEntity
  8
NOTCHES
100
AcDbLine
 10
529.4968693359469
 20
3.0
 30
0.0
 11
529.4968693359469
 21
0.0
 31
0.0
  0
LINE
  5
9E
330
17
100
AcDbEntity
  8
NOTCHES
100
AcDbLine
 10
818.2993400397879
 20
3.0
 30
0.0
 11
818.2993400397879
 21
0.0
 31
0.0
  0
LINE
  5
9F
330
17
100
AcDbEntity
  8
NOTCHES
100
AcDbLine
 10
706.8981240238709
 20
1.0
 30
0.0
 11
706.8981240238709
 21
0.0
 31
0.0
  0
LINE
  5
A0
330
17
100
AcDbEntity
  8
NOTCHES
100
AcDbLine
 10
718.5318626955338
 20
1.047160253394394
 30
0.0
 11
718.5318626955338
 21
0.0471602533943951
 31
0.0
  0
LINE
  5
A1
330
17
100
AcDbEntity
  8
NOTCHES
100
AcDbLine
 10
781.1656013678939
 20
2061.5
 30
0.0
 11
781.1656013678939
 21
2055.5
 31
0.0
  0
LINE
  5
A2
330
17
100
AcDbEntity
  8
NOTCHES
100
AcDbLine
 10
718.5318626955338
 20
2059.25
 30
0.0
 11
718.5318626955338
 21
2058.25
 31
0.0
  0
LINE
  5
A3
330
17
100
AcDbEntity
  8
NOTCHES
100
AcDbLine
 10
706.8981240238709
 20
2048.5
 30
0.0
 11
706.8981240238709
 21
2047.5
 31
0.0
  0
LINE
  5
A4
330
17
100
AcDbEntity
  8
NOTCHES
100
AcDbLine
 10
696.2643853517429
 20
2046.25
 30
0.0
 11
696.2643853517429
 21
2043.25
 31
0.0
  0
LINE
  5
A5
330
17
100
AcDbEntity
  8
NOTCHES
100
AcDbLine
 10
688.630646679848
 20
2039.5
 30
0.0
 11
688.630646679848
 21
2036.5
 31
0.0
  0
LINE
  5
A6
330
17
100
AcDbEntity
  8
NOTCHES
100
AcDbLine
 10
588.6306080080749
 20
2039.5
 30
0.0
 11
588.6306080080749
 21
2036.5
 31
0.0
  0
LINE
  5
A7
330
17
100
AcDbEntity
  8
NOTCHES
100
AcDbLine
 10
529.4968693359469
 20
2097.75
 30
0.0
 11
529.4968693359469
 21
2094.75
 31
0.0
  0
LINE
  5
A8
330
17
100
AcDbEntity
  8
NOTCHES
100
AcDbLine
 10
818.2993400397879
 20
2097.75
 30
0.0
 11
818.2993400397879
 21
2094.75
 31
0.0
  0
LINE
  5
A9
330
17
100
AcDbEntity
  8
NOTCHES
100
AcDbLine
 10
688.630646679848
 20
3.0
 30
0.0
 11
688.630646679848
 21
0.0
 31
0.0
  0
LINE
  5
AA
330
17
100
AcDbEntity
  8
NOTCHES
100
AcDbLine
 10
588.6306080080749
 20
3.0
 30
0.0
 11
588.6306080080749
 21
0.0
 31
0.0
  0
LINE
  5
AB
330
17
100
AcDbEntity
  8
NOTCHES
100
AcDbLine
 10
696.2643853517429
 20
3.0
 30
0.0
 11
696.2643853517429
 21
0.0
 31
0.0
  0
LINE
  5
AC
330
17
100
AcDbEntity
  8
NOTCHES
100
AcDbLine
 10
781.1656013678939
 20
3.0
 30
0.0
 11
781.1656013678939
 21
0.0
 31
0.0
  0
LINE
  5
AD
330
17
100
AcDbEntity
  8
NOTCHES
100
AcDbLine
 10
529.4968693359469
 20
3.0
 30
0.0
 11
529.4968693359469
 21
0.0
 31
0.0
  0
LINE
  5
AE
330
17
100
AcDbEntity
  8
NOTCHES
100
AcDbLine
 10
818.2993400397879
 20
3.0
 30
0.0
 11
818.2993400397879
 21
0.0
 31
0.0
  0
LINE
  5
AF
330
17
100
AcDbEntity
  8
NOTCHES
100
AcDbLine
 10
706.8981240238709
 20
1.0
 30
0.0
 11
706.8981240238709
 21
0.0
 31
0.0
  0
LINE
  5
B0
330
17
100
AcDbEntity
  8
NOTCHES
100
AcDbLine
 10
718.5318626955338
 20
1.047160253394394
 30
0.0
 11
718.5318626955338
 21
0.0471602533943951
 31
0.0
  0
LINE
  5
B1
330
17
100
AcDbEntity
  8
NOTCHES
100
AcDbLine
 10
781.1656013678939
 20
2061.5
 30
0.0
 11
781.1656013678939
 21
2055.5
 31
0.0
  0
LINE
  5
B2
330
17
100
AcDbEntity
  8
NOTCHES
100
AcDbLine
 10
718.5318626955338
 20
2059.25
 30
0.0
 11
718.5318626955338
 21
2058.25
 31
0.0
  0
LINE
  5
B3
330
17
100
AcDbEntity
  8
NOTCHES
100
AcDbLine
 10
706.8981240238709
 20
2048.5
 30
0.0
 11
706.8981240238709
 21
2047.5
 31
0.0
  0
LINE
  5
B4
330
17
100
AcDbEntity
  8
NOTCHES
100
AcDbLine
 10
696.2643853517429
 20
2046.25
 30
0.0
 11
696.2643853517429
 21
2043.25
 31
0.0
  0
LINE
  5
B5
330
17
100
AcDbEntity
  8
NOTCHES
100
AcDbLine
 10
688.630646679848
 20
2039.5
 30
0.0
 11
688.630646679848
 21
2036.5
 31
0.0
  0
LINE
  5
B6
330
17
100
AcDbEntity
  8
NOTCHES
100
AcDbLine
 10
588.6306080080749
 20
2039.5
 30
0.0
 11
588.6306080080749
 21
2036.5
 31
0.0
  0
LINE
  5
B7
330
17
100
AcDbEntity
  8
NOTCHES
100
AcDbLine
 10
529.4968693359469
 20
2097.75
 30
0.0
 11
529.4968693359469
 21
2094.75
 31
0.0
  0
LINE
  5
B8
330
17
100
AcDbEntity
  8
NOTCHES
100
AcDbLine
 10
818.2993400397879
 20
2097.75
 30
0.0
 11
818.2993400397879
 21
2094.75
 31
0.0
  0
LINE
  5
B9
330
17
100
AcDbEntity
  8
NOTCHES
100
AcDbLine
 10
688.630646679848
 20
3.0
 30
0.0
 11
688.630646679848
 21
0.0
 31
0.0
  0
LINE
  5
BA
330
17
100
AcDbEntity
  8
NOTCHES
100
AcDbLine
 10
588.6306080080749
 20
3.0
 30
0.0
 11
588.6306080080749
 21
0.0
 31
0.0
  0
LINE
  5
BB
330
17
100
AcDbEntity
  8
NOTCHES
100
AcDbLine
 10
696.2643853517429
 20
3.0
 30
0.0
 11
696.2643853517429
 21
0.0
 31
0.0
  0
LINE
  5
BC
330
17
100
AcDbEntity
  8
NOTCHES
100
AcDbLine
 10
781.1656013678939
 20
3.0
 30
0.0
 11
781.1656013678939
 21
0.0
 31
0.0
  0
LINE
  5
BD
330
17
100
AcDbEntity
  8
NOTCHES
100
AcDbLine
 10
529.4968693359469
 20
3.0
 30
0.0
 11
529.4968693359469
 21
0.0
 31
0.0
  0
LINE
  5
BE
330
17
100
AcDbEntity
  8
NOTCHES
100
AcDbLine
 10
818.2993400397879
 20
3.0
 30
0.0
 11
818.2993400397879
 21
0.0
 31
0.0
  0
LINE
  5
BF
330
17
100
AcDbEntity
  8
NOTCHES
100
AcDbLine
 10
706.8981240238709
 20
1.0
 30
0.0
 11
706.8981240238709
 21
0.0
 31
0.0
  0
LINE
  5
C0
330
17
100
AcDbEntity
  8
NOTCHES
100
AcDbLine
 10
718.5318626955338
 20
1.047160253394394
 30
0.0
 11
718.5318626955338
 21
0.0471602533943951
 31
0.0
  0
LINE
  5
C1
330
17
100
AcDbEntity
  8
NOTCHES
100
AcDbLine
 10
781.1656013678939
 20
2061.5
 30
0.0
 11
781.1656013678939
 21
2055.5
 31
0.0
  0
LINE
  5
C2
330
17
100
AcDbEntity
  8
NOTCHES
100
AcDbLine
 10
718.5318626955338
 20
2059.25
 30
0.0
 11
718.5318626955338
 21
2058.25
 31
0.0
  0
LINE
  5
C3
330
17
100
AcDbEntity
  8
NOTCHES
100
AcDbLine
 10
706.8981240238709
 20
2048.5
 30
0.0
 11
706.8981240238709
 21
2047.5
 31
0.0
  0
LINE
  5
C4
330
17
100
AcDbEntity
  8
NOTCHES
100
AcDbLine
 10
696.2643853517429
 20
2046.25
 30
0.0
 11
696.2643853517429
 21
2043.25
 31
0.0
  0
LINE
  5
C5
330
17
100
AcDbEntity
  8
NOTCHES
100
AcDbLine
 10
688.630646679848
 20
2039.5
 30
0.0
 11
688.630646679848
 21
2036.5
 31
0.0
  0
LINE
  5
C6
330
17
100
AcDbEntity
  8
NOTCHES
100
AcDbLine
 10
588.6306080080749
 20
2039.5
 30
0.0
 11
588.6306080080749
 21
2036.5
 31
0.0
  0
LINE
  5
C7
330
17
100
AcDbEntity
  8
NOTCHES
100
AcDbLine
 10
529.4968693359469
 20
2097.75
 30
0.0
 11
529.4968693359469
 21
2094.75
 31
0.0
  0
LINE
  5
C8
330
17
100
AcDbEntity
  8
NOTCHES
100
AcDbLine
 10
818.2993400397879
 20
2097.75
 30
0.0
 11
818.2993400397879
 21
2094.75
 31
0.0
  0
LWPOLYLINE
  5
C9
330
17
100
AcDbEntity
  8
NOTCHES
100
AcDbPolyline
 90
4
 70
1
 10
754.232432031836
 20
6.0
 10
766.232432031836
 20
6.0
 10
766.232432031836
 20
4.0
 10
754.232432031836
 20
4.0
  0
LWPOLYLINE
  5
CA
330
17
100
AcDbEntity
  8
NOTCHES
100
AcDbPolyline
 90
4
 70
1
 10
615.5637773441329
 20
11.0
 10
603.5637773441329
 20
11.0
 10
603.5637773441329
 20
9.0
 10
615.5637773441329
 20
9.0
  0
LWPOLYLINE
  5
CB
330
17
100
AcDbEntity
  8
OUTLINE
100
AcDbPolyline
 90
44
 70
1
 10
1978.8599999999997
 20
315.93620937562036
 10
1031.8600000000001
 20
315.93620937562036
 10
1031.8600000000001
 20
303.9362093756213
 10
1033.3600000000001
 20
300.80247070372525
 10
1067.3600000000001
 20
266.80247070372525
 10
1070.3600000000001
 20
263.6687320317146
 10
1060.3600000000001
 20
253.6687320317119
 10
1060.3600000000001
 20
214.1687320317119
 10
1070.3600000000001
 20
204.16873203171463
 10
1071.8600000000001
 20
201.0349933598195
 10
1080.3600000000001
 20
192.53499335981678
 10
1083.3600000000001
 20
189.40125468780616
 10
1083.3600000000001
 20
181.90125468780707
 10
1084.8600000000001
 20
178.76751601591195
 10
1089.3600000000001
 20
174.26751601591195
 10
1092.3600000000001
 20
171.13377734390042
 10
1082.3600000000001
 20
159.21624141803431
 10
1082.3600000000001
 20
84.2674773439062
 10
1092.3600000000001
 20
74.26747734390801
 10
1089.3600000000001
 20
71.13373867189512
 10
1033.3600000000001
 20
15.133738671894207
 10
1031.8600000000001
 20
12.0
 10
1031.8600000000001
 20
0.0
 10
1978.8599999999997
 20
0.0
 10
1978.8599999999997
 20
12.0
 10
1977.3599999999997
 20
15.133738671894207
 10
1921.3599999999997
 20
71.13373867189512
 10
1918.3599999999997
 20
74.26747734390801
 10
1928.3599999999997
 20
84.2674773439062
 10
1928.3599999999997
 20
159.21624141803431
 10
1918.3599999999997
 20
171.13377734390042
 10
1921.3599999999997
 20
174.26751601591195
 10
1925.8599999999997
 20
178.76751601591195
 10
1927.3599999999997
 20
181.90125468780707
 10
1927.3599999999997
 20
189.40125468780616
 10
1930.3599999999997
 20
192.53499335981678
 10
1938.8599999999997
 20
201.0349933598195
 10
1940.3599999999997
 20
204.16873203171463
 10
1950.3599999999997
 20
214.1687320317119
 10
1950.3599999999997
 20
253.6687320317119
 10
1940.3599999999997
 20
263.6687320317146
 10
1943.3599999999997
 20
266.80247070372525
 10
1977.3599999999997
 20
300.80247070372525
 10
1978.8599999999997
 20
303.9362093756213
  0
LWPOLYLINE
  5
CC
330
17
100
AcDbEntity
  8
CUTOUTS
100
AcDbPolyline
 90
4
 70
1
 10
1940.1099999999997
 20
215.16873203183013
 10
1942.1099999999997
 20
215.16873203183013
 10
1942.1099999999997
 20
227.16873203183013
 10
1940.1099999999997
 20
227.16873203183013
  0
LWPOLYLINE
  5
CD
330
17
100
AcDbEntity
  8
CUTOUTS
100
AcDbPolyline
 90
4
 70
1
 10
1940.1099999999997
 20
240.6687320317119
 10
1942.1099999999997
 20
240.6687320317119
 10
1942.1099999999997
 20
252.6687320317119
 10
1940.1099999999997
 20
252.6687320317119
  0
LWPOLYLINE
  5
CE
330
17
100
AcDbEntity
  8
CUTOUTS
100
AcDbPolyline
 90
4
 70
1
 10
1918.1099999999997
 20
85.2674773439062
 10
1920.1099999999997
 20
85.2674773439062
 10
1920.1099999999997
 20
97.2674773439062
 10
1918.1099999999997
 20
97.2674773439062
  0
LWPOLYLINE
  5
CF
330
17
100
AcDbEntity
  8
CUTOUTS
100
AcDbPolyline
 90
4
 70
1
 10
1918.1099999999997
 20
148.13377734390042
 10
1920.1099999999997
 20
148.13377734390042
 10
1920.1099999999997
 20
160.13377734390042
 10
1918.1099999999997
 20
160.13377734390042
  0
LWPOLYLINE
  5
D0
330
17
100
AcDbEntity
  8
CUTOUTS
100
AcDbPolyline
 90
4
 70
1
 10
1068.6100000000001
 20
215.16873203183013
 10
1070.6100000000001
 20
215.16873203183013
 10
1070.6100000000001
 20
227.16873203183013
 10
1068.6100000000001
 20
227.16873203183013
  0
LWPOLYLINE
  5
D1
330
17
100
AcDbEntity
  8
CUTOUTS
100
AcDbPolyline
 90
4
 70
1
 10
1068.6100000000001
 20
240.6687320317119
 10
1070.6100000000001
 20
240.6687320317119
 10
1070.6100000000001
 20
252.6687320317119
 10
1068.6100000000001
 20
252.6687320317119
  0
LWPOLYLINE
  5
D2
330
17
100
AcDbEntity
  8
CUTOUTS
100
AcDbPolyline
 90
4
 70
1
 10
1090.6100000000001
 20
85.2674773439062
 10
1092.6100000000001
 20
85.2674773439062
 10
1092.6100000000001
 20
97.2674773439062
 10
1090.6100000000001
 20
97.2674773439062
  0
LWPOLYLINE
  5
D3
330
17
100
AcDbEntity
  8
CUTOUTS
100
AcDbPolyline
 90
4
 70
1
 10
1090.6100000000001
 20
148.13377734390042
 10
1092.6100000000001
 20
148.13377734390042
 10
1092.6100000000001
 20
160.13377734390042
 10
1090.6100000000001
 20
160.13377734390042
  0
LINE
  5
D4
330
17
100
AcDbEntity
  8
NOTCHES
100
AcDbLine
 10
1978.1099999999997
 20
302.369340039671
 30
0.0
 11
1972.1099999999997
 21
302.369340039671
 31
0.0
  0
LINE
  5
D5
330
17
100
AcDbEntity
  8
NOTCHES
100
AcDbLine
 10
1941.8599999999997
 20
265.2356013676613
 30
0.0
 11
1935.8599999999997
 21
265.2356013676613
 31
0.0
  0
LINE
  5
D6
330
17
100
AcDbEntity
  8
NOTCHES
100
AcDbLine
 10
1939.6099999999997
 20
202.60186269564883
 30
0.0
 11
1937.6099999999997
 21
202.60186269564883
 31
0.0
  0
LINE
  5
D7
330
17
100
AcDbEntity
  8
NOTCHES
100
AcDbLine
 10
1928.8599999999997
 20
190.9681240237528
 30
0.0
 11
1926.8599999999997
 21
190.9681240237528
 31
0.0
  0
LINE
  5
D8
330
17
100
AcDbEntity
  8
NOTCHES
100
AcDbLine
 10
1926.6099999999997
 20
180.33438535174128
 30
0.0
 11
1920.6099999999997
 21
180.33438535174128
 31
0.0
  0
LINE
  5
D9
330
17
100
AcDbEntity
  8
NOTCHES
100
AcDbLine
 10
1919.8599999999997
 20
172.7006466798489
 30
0.0
 11
1913.8599999999997
 21
172.7006466798489
 31
0.0
  0
LINE
  5
DA
330
17
100
AcDbEntity
  8
NOTCHES
100
AcDbLine
 10
1919.8599999999997
 20
72.70060800784222
 30
0.0
 11
1913.8599999999997
 21
72.70060800784222
 31
0.0
  0
LINE
  5
DB
330
17
100
AcDbEntity
  8
NOTCHES
100
AcDbLine
 10
1978.1099999999997
 20
13.566869335947104
 30
0.0
 11
1972.1099999999997
 21
13.566869335947104
 31
0.0
  0
LINE
  5
DC
330
17
100
AcDbEntity
  8
NOTCHES
100
AcDbLine
 10
1068.8600000000001
 20
265.2356013676613
 30
0.0
 11
1074.8600000000001
 21
265.2356013676613
 31
0.0
  0
LINE
  5
DD
330
17
100
AcDbEntity
  8
NOTCHES
100
AcDbLine
 10
1071.1100000000001
 20
202.60186269564883
 30
0.0
 11
1073.1100000000001
 21
202.60186269564883
 31
0.0
  0
LINE
  5
DE
330
17
100
AcDbEntity
  8
NOTCHES
100
AcDbLine
 10
1081.8600000000001
 20
190.9681240237528
 30
0.0
 11
1083.8600000000001
 21
190.9681240237528
 31
0.0
  0
LINE
  5
DF
330
17
100
AcDbEntity
  8
NOTCHES
100
AcDbLine
 10
1084.1100000000001
 20
180.33438535174128
 30
0.0
 11
1090.1100000000001
 21
180.33438535174128
 31
0.0
  0
LINE
  5
E0
330
17
100
AcDbEntity
  8
NOTCHES
100
AcDbLine
 10
1090.8600000000001
 20
172.7006466798489
 30
0.0
 11
1096.8600000000001
 21
172.7006466798489
 31
0.0
  0
LINE
  5
E1
330
17
100
AcDbEntity
  8
NOTCHES
100
AcDbLine
 10
1090.8600000000001
 20
72.70060800784222
 30
0.0
 11
1096.8600000000001
 21
72.70060800784222
 31
0.0
  0
LINE
  5
E2
330
17
100
AcDbEntity
  8
NOTCHES
100
AcDbLine
 10
1038.6100000000001
 20
302.369340039671
 30
0.0
 11
1032.6100000000001
 21
302.369340039671
 31
0.0
  0
LINE
  5
E3
330
17
100
AcDbEntity
  8
NOTCHES
100
AcDbLine
 10
1038.6100000000001
 20
13.566869335947104
 30
0.0
 11
1032.6100000000001
 21
13.566869335947104
 31
0.0
  0
LWPOLYLINE
  5
E4
330
17
100
AcDbEntity
  8
OUTLINE
100
AcDbPolyline
 90
4
 70
1
 10
2278.86
 20
0.0
 10
3280.79
 20
0.0
 10
3280.79
 20
2050.0
 10
2278.86
 20
2050.0
  0
LWPOLYLINE
  5
E5
330
17
100
AcDbEntity
  8
CUTOUTS
100
AcDbPolyline
 90
4
 70
1
 10
2322.46
 20
150.0
 10
2351.96
 20
150.0
 10
2351.96
 20
252.0
 10
2322.46
 20
252.0
  0
LWPOLYLINE
  5
E6
330
17
100
AcDbEntity
  8
CUTOUTS
100
AcDbPolyline
 90
4
 70
1
 10
2322.46
 20
878.0
 10
2351.96
 20
878.0
 10
2351.96
 20
980.0
 10
2322.46
 20
980.0
  0
LWPOLYLINE
  5
E7
330
17
100
AcDbEntity
  8
CUTOUTS
100
AcDbPolyline
 90
4
 70
1
 10
2322.46
 20
1606.0
 10
2351.96
 20
1606.0
 10
2351.96
 20
1708.0
 10
2322.46
 20
1708.0
  0
LWPOLYLINE
  5
E8
330
17
100
AcDbEntity
  8
CUTOUTS
100
AcDbPolyline
 90
4
 70
1
 10
2322.46
 20
1808.0
 10
2351.96
 20
1808.0
 10
2351.96
 20
1910.0
 10
2322.46
 20
1910.0
  0
LWPOLYLINE
  5
E9
330
17
100
AcDbEntity
  8
CUTOUTS
100
AcDbPolyline
 90
4
 70
1
 10
3216.26
 20
905.8
 10
3240.76
 20
905.8
 10
3240.76
 20
1141.1
 10
3216.26
 20
1141.1
  0
CIRCLE
  5
EA
330
17
100
AcDbEntity
  8
HOLES
100
AcDbCircle
 10
3150.82
 20
1043.0
 30
0.0
 40
11.0
  0
CIRCLE
  5
EB
330
17
100
AcDbEntity
  8
HOLES
100
AcDbCircle
 10
3131.82
 20
1043.0
 30
0.0
 40
3.5
  0
CIRCLE
  5
EC
330
17
100
AcDbEntity
  8
HOLES
100
AcDbCircle
 10
3169.82
 20
1043.0
 30
0.0
 40
3.5
  0
LINE
  5
ED
330
17
100
AcDbEntity
  8
NOTCHES
100
AcDbLine
 10
2290.6
 20
0.0
 30
0.0
 11
2290.6
 21
3.0
 31
0.0
  0
LINE
  5
EE
330
17
100
AcDbEntity
  8
NOTCHES
100
AcDbLine
 10
2290.6
 20
2050.0
 30
0.0
 11
2290.6
 21
2047.0
 31
0.0
  0
LINE
  5
EF
330
17
100
AcDbEntity
  8
NOTCHES
100
AcDbLine
 10
2312.61
 20
0.0
 30
0.0
 11
2312.61
 21
3.0
 31
0.0
  0
LINE
  5
F0
330
17
100
AcDbEntity
  8
NOTCHES
100
AcDbLine
 10
2312.61
 20
2050.0
 30
0.0
 11
2312.61
 21
2047.0
 31
0.0
  0
LINE
  5
F1
330
17
100
AcDbEntity
  8
NOTCHES
100
AcDbLine
 10
2350.1200000000003
 20
0.0
 30
0.0
 11
2350.1200000000003
 21
3.0
 31
0.0
  0
LINE
  5
F2
330
17
100
AcDbEntity
  8
NOTCHES
100
AcDbLine
 10
2350.1200000000003
 20
2050.0
 30
0.0
 11
2350.1200000000003
 21
2047.0
 31
0.0
  0
LINE
  5
F3
330
17
100
AcDbEntity
  8
NOTCHES
100
AcDbLine
 10
3269.04
 20
0.0
 30
0.0
 11
3269.04
 21
3.0
 31
0.0
  0
LINE
  5
F4
330
17
100
AcDbEntity
  8
NOTCHES
100
AcDbLine
 10
3269.04
 20
2050.0
 30
0.0
 11
3269.04
 21
2047.0
 31
0.0
  0
LINE
  5
F5
330
17
100
AcDbEntity
  8
NOTCHES
100
AcDbLine
 10
3247.04
 20
0.0
 30
0.0
 11
3247.04
 21
3.0
 31
0.0
  0
LINE
  5
F6
330
17
100
AcDbEntity
  8
NOTCHES
100
AcDbLine
 10
3247.04
 20
2050.0
 30
0.0
 11
3247.04
 21
2047.0
 31
0.0
  0
LINE
  5
F7
330
17
100
AcDbEntity
  8
NOTCHES
100
AcDbLine
 10
3209.52
 20
0.0
 30
0.0
 11
3209.52
 21
3.0
 31
0.0
  0
LINE
  5
F8
330
17
100
AcDbEntity
  8
NOTCHES
100
AcDbLine
 10
3209.52
 20
2050.0
 30
0.0
 11
3209.52
 21
2047.0
 31
0.0
  0
LWPOLYLINE
  5
F9
330
17
100
AcDbEntity
  8
OUTLINE
100
AcDbPolyline
 90
4
 70
1
 10
3580.79
 20
0.0
 10
4469.6
 20
0.0
 10
4469.6
 20
2050.0
 10
3580.79
 20
2050.0
  0
CIRCLE
  5
FA
330
17
100
AcDbEntity
  8
HOLES
100
AcDbCircle
 10
3654.39
 20
1043.0
 30
0.0
 40
11.0
  0
CIRCLE
  5
FB
330
17
100
AcDbEntity
  8
HOLES
100
AcDbCircle
 10
3635.39
 20
1043.0
 30
0.0
 40
3.5
  0
CIRCLE
  5
FC
330
17
100
AcDbEntity
  8
HOLES
100
AcDbCircle
 10
3673.39
 20
1043.0
 30
0.0
 40
3.5
  0
LWPOLYLINE
  5
FD
330
17
100
AcDbEntity
  8
CUTOUTS
100
AcDbPolyline
 90
4
 70
1
 10
3641.69
 20
951.0
 10
3656.69
 20
951.0
 10
3656.69
 20
962.5
 10
3641.69
 20
962.5
  0
LWPOLYLINE
  5
FE
330
17
100
AcDbEntity
  8
CHANNELS
100
AcDbPolyline
 90
14
 70
1
 10
4792.85
 20
0.0
 10
4792.85
 20
18.53305283712598
 10
4790.85
 20
20.53305283712689
 10
4769.6
 20
20.53305283712689
 10
4769.6
 20
54.03305283712689
 10
4770.649999999814
 20
54.03305283712689
 10
4770.649999999814
 20
72.0661056744857
 10
5625.550000000186
 20
72.0661056744857
 10
5625.550000000186
 20
54.03305283712689
 10
5626.6
 20
54.03305283712689
 10
5626.6
 20
20.53305283712689
 10
5605.35
 20
20.53305283712689
 10
5603.35
 20
18.53305283712598
 10
5603.35
 20
0.0
  0
LWPOLYLINE
  5
FF
330
17
100
AcDbEntity
  8
CHANNELS
100
AcDbPolyline
 90
14
 70
1
 10
4792.85
 20
150.0
 10
4792.85
 20
168.53305283712598
 10
4790.85
 20
170.5330528371269
 10
4769.6
 20
170.5330528371269
 10
4769.6
 20
204.0330528371269
 10
4770.649999999814
 20
204.0330528371269
 10
4770.649999999814
 20
222.0661056744857
 10
5625.550000000186
 20
222.0661056744857
 10
5625.550000000186
 20
204.0330528371269
 10
5626.6
 20
204.0330528371269
 10
5626.6
 20
170.5330528371269
 10
5605.35
 20
170.5330528371269
 10
5603.35
 20
168.53305283712598
 10
5603.35
 20
150.0
  0
LWPOLYLINE
  5
100
330
17
100
AcDbEntity
  8
CHANNELS
100
AcDbPolyline
 90
14
 70
1
 10
4792.85
 20
300.0
 10
4792.85
 20
318.533052837126
 10
4790.85
 20
320.5330528371269
 10
4769.6
 20
320.5330528371269
 10
4769.6
 20
354.0330528371269
 10
4770.649999999814
 20
354.0330528371269
 10
4770.649999999814
 20
372.0661056744857
 10
5625.550000000186
 20
372.0661056744857
 10
5625.550000000186
 20
354.0330528371269
 10
5626.6
 20
354.0330528371269
 10
5626.6
 20
320.5330528371269
 10
5605.35
 20
320.5330528371269
 10
5603.35
 20
318.533052837126
 10
5603.35
 20
300.0
  0
TEXT
  5
101
330
17
100
AcDbEntity
  8
TEXT
100
AcDbText
 10
0.0
 20
-100.0
 30
0.0
 40
35.0
  1
DOOR_1 | W:950 H:2100 D:155 | Leaf: 1001.9 / 888.8 x 2050.0
100
AcDbText
  0
LWPOLYLINE
  5
102
330
17
100
AcDbEntity
  8
OUTLINE
100
AcDbPolyline
 90
44
 70
1
 10
6268.268724023737
 20
1991.0
 10
6263.768724023737
 20
1995.5
 10
6260.634985351842
 20
1997.0
 10
6253.134985351842
 20
1997.0
 10
6250.001246679714
 20
2000.0
 10
6241.501246679714
 20
2008.5
 10
6238.367508007819
 20
2010.0
 10
6226.367508007819
 20
2010.0
 10
6226.367508007819
 20
2019.0
 10
6223.367508007819
 20
2022.0
 10
6219.367508007819
 20
2022.0
 10
6216.367508007819
 20
2019.0
 10
6216.367508007819
 20
2010.0
 10
6200.867508007819
 20
2010.0
 10
6200.867508007819
 20
2019.0
 10
6197.867508007819
 20
2022.0
 10
6193.867508007819
 20
2022.0
 10
6190.867508007819
 20
2019.0
 10
6190.867508007819
 20
2010.0
 10
6178.867508007819
 20
2010.0
 10
6175.733769335691
 20
2013.0
 10
6141.733769336157
 20
2047.0
 10
6138.600030663796
 20
2048.5
 10
6126.6
 20
2048.5
 10
6126.6
 20
0.0
 10
6457.5362400395325
 20
0.0
 10
6457.536240039765
 20
2048.5
 10
6445.536240039533
 20
2048.5
 10
6442.402501367637
 20
2047.0
 10
6386.402501367637
 20
1991.0
 10
6383.268762695509
 20
1988.0
 10
6371.268762695742
 20
1988.0
 10
6371.268762695742
 20
1997.0
 10
6368.268762695742
 20
2000.0
 10
6364.268762695742
 20
2000.0
 10
6361.268762695742
 20
1997.0
 10
6361.268762695742
 20
1988.0
 10
6293.4024626956325
 20
1988.0
 10
6293.4024626956325
 20
1997.0
 10
6290.4024626956325
 20
2000.0
 10
6286.4024626956325
 20
2000.0
 10
6283.4024626956325
 20
1997.0
 10
6283.4024626956325
 20
1988.0
 10
6271.4024626956325
 20
1988.0
  0
LWPOLYLINE
  5
103
330
17
100
AcDbEntity
  8
CUTOUTS
100
AcDbPolyline
 90
4
 70
1
 10
6175.5
 20
150.0
 10
6206.0
 20
150.0
 10
6206.0
 20
252.0
 10
6175.5
 20
252.0
  0
LWPOLYLINE
  5
104
330
17
100
AcDbEntity
  8
CUTOUTS
100
AcDbPolyline
 90
4
 70
1
 10
6175.5
 20
853.0
 10
6206.0
 20
853.0
 10
6206.0
 20
955.0
 10
6175.5
 20
955.0
  0
LWPOLYLINE
  5
105
330
17
100
AcDbEntity
  8
CUTOUTS
100
AcDbPolyline
 90
4
 70
1
 10
6175.5
 20
1556.0
 10
6206.0
 20
1556.0
 10
6206.0
 20
1658.0
 10
6175.5
 20
1658.0
  0
LWPOLYLINE
  5
106
330
17
100
AcDbEntity
  8
CUTOUTS
100
AcDbPolyline
 90
4
 70
1
 10
6175.5
 20
1758.0
 10
6206.0
 20
1758.0
 10
6206.0
 20
1860.0
 10
6175.5
 20
1860.0
  0
CIRCLE
  5
107
330
17
100
AcDbEntity
  8
HOLES
100
AcDbCircle
 10
6198.860000000001
 20
1467.5
 30
0.0
 40
2.0
  0
CIRCLE
  5
108
330
17
100
AcDbEntity
  8
HOLES
100
AcDbCircle
 10
6198.860000000001
 20
1397.5
 30
0.0
 40
2.0
  0
CIRCLE
  5
109
330
17
100
AcDbEntity
  8
HOLES
100
AcDbCircle
 10
6327.330000000001
 20
150.0
 30
0.0
 40
3.25
  0
CIRCLE
  5
10A
330
17
100
AcDbEntity
  8
HOLES
100
AcDbCircle
 10
6327.330000000001
 20
712.6666666666666
 30
0.0
 40
3.25
  0
CIRCLE
  5
10B
330
17
100
AcDbEntity
  8
HOLES
100
AcDbCircle
 10
6327.330000000001
 20
1275.3333333333333
 30
0.0
 40
3.25
  0
CIRCLE
  5
10C
330
17
100
AcDbEntity
  8
HOLES
100
AcDbCircle
 10
6327.330000000001
 20
1838.0
 30
0.0
 40
3.25
  0
LINE
  5
10D
330
17
100
AcDbEntity
  8
NOTCHES
100
AcDbLine
 10
6269.835593359685
 20
3.0
 30
0.0
 11
6269.835593359685
 21
0.0
 31
0.0
  0
LINE
  5
10E
330
17
100
AcDbEntity
  8
NOTCHES
100
AcDbLine
 10
6384.835632031691
 20
3.0
 30
0.0
 11
6384.835632031691
 21
0.0
 31
0.0
  0
LINE
  5
10F
330
17
100
AcDbEntity
  8
NOTCHES
100
AcDbLine
 10
6262.201854687557
 20
3.0
 30
0.0
 11
6262.201854687557
 21
0.0
 31
0.0
  0
LINE
  5
110
330
17
100
AcDbEntity
  8
NOTCHES
100
AcDbLine
 10
6177.300638671872
 20
3.0
 30
0.0
 11
6177.300638671872
 21
0.0
 31
0.0
  0
LINE
  5
111
330
17
100
AcDbEntity
  8
NOTCHES
100
AcDbLine
 10
6443.969370703586
 20
3.0
 30
0.0
 11
6443.969370703586
 21
0.0
 31
0.0
  0
LINE
  5
112
330
17
100
AcDbEntity
  8
NOTCHES
100
AcDbLine
 10
6140.1668999999765
 20
3.0
 30
0.0
 11
6140.1668999999765
 21
0.0
 31
0.0
  0
LINE
  5
113
330
17
100
AcDbEntity
  8
NOTCHES
100
AcDbLine
 10
6251.568116015662
 20
1.0
 30
0.0
 11
6251.568116015662
 21
0.0
 31
0.0
  0
LINE
  5
114
330
17
100
AcDbEntity
  8
NOTCHES
100
AcDbLine
 10
6239.934377343767
 20
1.047160253394394
 30
0.0
 11
6239.934377343767
 21
0.0471602533943951
 31
0.0
  0
LINE
  5
115
330
17
100
AcDbEntity
  8
NOTCHES
100
AcDbLine
 10
6177.300638671872
 20
2011.5
 30
0.0
 11
6177.300638671872
 21
2008.5
 31
0.0
  0
LINE
  5
116
330
17
100
AcDbEntity
  8
NOTCHES
100
AcDbLine
 10
6239.934377343767
 20
2009.25
 30
0.0
 11
6239.934377343767
 21
2008.25
 31
0.0
  0
LINE
  5
117
330
17
100
AcDbEntity
  8
NOTCHES
100
AcDbLine
 10
6251.568116015662
 20
1998.5
 30
0.0
 11
6251.568116015662
 21
1997.5
 31
0.0
  0
LINE
  5
118
330
17
100
AcDbEntity
  8
NOTCHES
100
AcDbLine
 10
6262.201854687557
 20
1996.25
 30
0.0
 11
6262.201854687557
 21
1993.25
 31
0.0
  0
LINE
  5
119
330
17
100
AcDbEntity
  8
NOTCHES
100
AcDbLine
 10
6269.835593359685
 20
1989.5
 30
0.0
 11
6269.835593359685
 21
1986.5
 31
0.0
  0
LINE
  5
11A
330
17
100
AcDbEntity
  8
NOTCHES
100
AcDbLine
 10
6384.835632031691
 20
1989.5
 30
0.0
 11
6384.835632031691
 21
1986.5
 31
0.0
  0
LINE
  5
11B
330
17
100
AcDbEntity
  8
NOTCHES
100
AcDbLine
 10
6443.969370703586
 20
2047.75
 30
0.0
 11
6443.969370703586
 21
2044.75
 31
0.0
  0
LINE
  5
11C
330
17
100
AcDbEntity
  8
NOTCHES
100
AcDbLine
 10
6140.1668999999765
 20
2047.75
 30
0.0
 11
6140.1668999999765
 21
2044.75
 31
0.0
  0
LINE
  5
11D
330
17
100
AcDbEntity
  8
NOTCHES
100
AcDbLine
 10
6269.835593359685
 20
3.0
 30
0.0
 11
6269.835593359685
 21
0.0
 31
0.0
  0
LINE
  5
11E
330
17
100
AcDbEntity
  8
NOTCHES
100
AcDbLine
 10
6384.835632031691
 20
3.0
 30
0.0
 11
6384.835632031691
 21
0.0
 31
0.0
  0
LINE
  5
11F
330
17
100
AcDbEntity
  8
NOTCHES
100
AcDbLine
 10
6262.201854687557
 20
3.0
 30
0.0
 11
6262.201854687557
 21
0.0
 31
0.0
  0
LINE
  5
120
330
17
100
AcDbEntity
  8
NOTCHES
100
AcDbLine
 10
6177.300638671872
 20
3.0
 30
0.0
 11
6177.300638671872
 21
0.0
 31
0.0
  0
LINE
  5
121
330
17
100
AcDbEntity
  8
NOTCHES
100
AcDbLine
 10
6443.969370703586
 20
3.0
 30
0.0
 11
6443.969370703586
 21
0.0
 31
0.0
  0
LINE
  5
122
330
17
100
AcDbEntity
  8
NOTCHES
100
AcDbLine
 10
6140.1668999999765
 20
3.0
 30
0.0
 11
6140.1668999999765
 21
0.0
 31
0.0
  0
LINE
  5
123
330
17
100
AcDbEntity
  8
NOTCHES
100
AcDbLine
 10
6251.568116015662
 20
1.0
 30
0.0
 11
6251.568116015662
 21
0.0
 31
0.0
  0
LINE
  5
124
330
17
100
AcDbEntity
  8
NOTCHES
100
AcDbLine
 10
6239.934377343767
 20
1.047160253394394
 30
0.0
 11
6239.934377343767
 21
0.0471602533943951
 31
0.0
  0
LINE
  5
125
330
17
100
AcDbEntity
  8
NOTCHES
100
AcDbLine
 10
6177.300638671872
 20
2011.5
 30
0.0
 11
6177.300638671872
 21
2008.5
 31
0.0
  0
LINE
  5
126
330
17
100
AcDbEntity
  8
NOTCHES
100
AcDbLine
 10
6239.934377343767
 20
2009.25
 30
0.0
 11
6239.934377343767
 21
2008.25
 31
0.0
  0
LINE
  5
127
330
17
100
AcDbEntity
  8
NOTCHES
100
AcDbLine
 10
6251.568116015662
 20
1998.5
 30
0.0
 11
6251.568116015662
 21
1997.5
 31
0.0
  0
LINE
  5
128
330
17
100
AcDbEntity
  8
NOTCHES
100
AcDbLine
 10
6262.201854687557
 20
1996.25
 30
0.0
 11
6262.201854687557
 21
1993.25
 31
0.0
  0
LINE
  5
129
330
17
100
AcDbEntity
  8
NOTCHES
100
AcDbLine
 10
6269.835593359685
 20
1989.5
 30
0.0
 11
6269.835593359685
 21
1986.5
 31
0.0
  0
LINE
  5
12A
330
17
100
AcDbEntity
  8
NOTCHES
100
AcDbLine
 10
6384.835632031691
 20
1989.5
 30
0.0
 11
6384.835632031691
 21
1986.5
 31
0.0
  0
LINE
  5
12B
330
17
100
AcDbEntity
  8
NOTCHES
100
AcDbLine
 10
6443.969370703586
 20
2047.75
 30
0.0
 11
6443.969370703586
 21
2044.75
 31
0.0
  0
LINE
  5
12C
330
17
100
AcDbEntity
  8
NOTCHES
100
AcDbLine
 10
6140.1668999999765
 20
2047.75
 30
0.0
 11
6140.1668999999765
 21
2044.75
 31
0.0
  0
LINE
  5
12D
330
17
100
AcDbEntity
  8
NOTCHES
100
AcDbLine
 10
6269.835593359685
 20
3.0
 30
0.0
 11
6269.835593359685
 21
0.0
 31
0.0
  0
LINE
  5
12E
330
17
100
AcDbEntity
  8
NOTCHES
100
AcDbLine
 10
6384.835632031691
 20
3.0
 30
0.0
 11
6384.835632031691
 21
0.0
 31
0.0
  0
LINE
  5
12F
330
17
100
AcDbEntity
  8
NOTCHES
100
AcDbLine
 10
6262.201854687557
 20
3.0
 30
0.0
 11
6262.201854687557
 21
0.0
 31
0.0
  0
LINE
  5
130
330
17
100
AcDbEntity
  8
NOTCHES
100
AcDbLine
 10
6177.300638671872
 20
3.0
 30
0.0
 11
6177.300638671872
 21
0.0
 31
0.0
  0
LINE
  5
131
330
17
100
AcDbEntity
  8
NOTCHES
100
AcDbLine
 10
6443.969370703586
 20
3.0
 30
0.0
 11
6443.969370703586
 21
0.0
 31
0.0
  0
LINE
  5
132
330
17
100
AcDbEntity
  8
NOTCHES
100
AcDbLine
 10
6140.1668999999765
 20
3.0
 30
0.0
 11
6140.1668999999765
 21
0.0
 31
0.0
  0
LINE
  5
133
330
17
100
AcDbEntity
  8
NOTCHES
100
AcDbLine
 10
6251.568116015662
 20
1.0
 30
0.0
 11
6251.568116015662
 21
0.0
 31
0.0
  0
LINE
  5
134
330
17
100
AcDbEntity
  8
NOTCHES
100
AcDbLine
 10
6239.934377343767
 20
1.047160253394394
 30
0.0
 11
6239.934377343767
 21
0.0471602533943951
 31
0.0
  0
LINE
  5
135
330
17
100
AcDbEntity
  8
NOTCHES
100
AcDbLine
 10
6177.300638671872
 20
2011.5
 30
0.0
 11
6177.300638671872
 21
2008.5
 31
0.0
  0
LINE
  5
136
330
17
100
AcDbEntity
  8
NOTCHES
100
AcDbLine
 10
6239.934377343767
 20
2009.25
 30
0.0
 11
6239.934377343767
 21
2008.25
 31
0.0
  0
LINE
  5
137
330
17
100
AcDbEntity
  8
NOTCHES
100
AcDbLine
 10
6251.568116015662
 20
1998.5
 30
0.0
 11
6251.568116015662
 21
1997.5
 31
0.0
  0
LINE
  5
138
330
17
100
AcDbEntity
  8
NOTCHES
100
AcDbLine
 10
6262.201854687557
 20
1996.25
 30
0.0
 11
6262.201854687557
 21
1993.25
 31
0.0
  0
LINE
  5
139
330
17
100
AcDbEntity
  8
NOTCHES
100
AcDbLine
 10
6269.835593359685
 20
1989.5
 30
0.0
 11
6269.835593359685
 21
1986.5
 31
0.0
  0
LINE
  5
13A
330
17
100
AcDbEntity
  8
NOTCHES
100
AcDbLine
 10
6384.835632031691
 20
1989.5
 30
0.0
 11
6384.835632031691
 21
1986.5
 31
0.0
  0
LINE
  5
13B
330
17
100
AcDbEntity
  8
NOTCHES
100
AcDbLine
 10
6443.969370703586
 20
2047.75
 30
0.0
 11
6443.969370703586
 21
2044.75
 31
0.0
  0
LINE
  5
13C
330
17
100
AcDbEntity
  8
NOTCHES
100
AcDbLine
 10
6140.1668999999765
 20
2047.75
 30
0.0
 11
6140.1668999999765
 21
2044.75
 31
0.0
  0
LINE
  5
13D
330
17
100
AcDbEntity
  8
NOTCHES
100
AcDbLine
 10
6269.835593359685
 20
3.0
 30
0.0
 11
6269.835593359685
 21
0.0
 31
0.0
  0
LINE
  5
13E
330
17
100
AcDbEntity
  8
NOTCHES
100
AcDbLine
 10
6384.835632031691
 20
3.0
 30
0.0
 11
6384.835632031691
 21
0.0
 31
0.0
  0
LINE
  5
13F
330
17
100
AcDbEntity
  8
NOTCHES
100
AcDbLine
 10
6262.201854687557
 20
3.0
 30
0.0
 11
6262.201854687557
 21
0.0
 31
0.0
  0
LINE
  5
140
330
17
100
AcDbEntity
  8
NOTCHES
100
AcDbLine
 10
6177.300638671872
 20
3.0
 30
0.0
 11
6177.300638671872
 21
0.0
 31
0.0
  0
LINE
  5
141
330
17
100
AcDbEntity
  8
NOTCHES
100
AcDbLine
 10
6443.969370703586
 20
3.0
 30
0.0
 11
6443.969370703586
 21
0.0
 31
0.0
  0
LINE
  5
142
330
17
100
AcDbEntity
  8
NOTCHES
100
AcDbLine
 10
6140.1668999999765
 20
3.0
 30
0.0
 11
6140.1668999999765
 21
0.0
 31
0.0
  0
LINE
  5
143
330
17
100
AcDbEntity
  8
NOTCHES
100
AcDbLine
 10
6251.568116015662
 20
1.0
 30
0.0
 11
6251.568116015662
 21
0.0
 31
0.0
  0
LINE
  5
144
330
17
100
AcDbEntity
  8
NOTCHES
100
AcDbLine
 10
6239.934377343767
 20
1.047160253394394
 30
0.0
 11
6239.934377343767
 21
0.0471602533943951
 31
0.0
  0
LINE
  5
145
330
17
100
AcDbEntity
  8
NOTCHES
100
AcDbLine
 10
6177.300638671872
 20
2011.5
 30
0.0
 11
6177.300638671872
 21
2008.5
 31
0.0
  0
LINE
  5
146
330
17
100
AcDbEntity
  8
NOTCHES
100
AcDbLine
 10
6239.934377343767
 20
2009.25
 30
0.0
 11
6239.934377343767
 21
2008.25
 31
0.0
  0
LINE
  5
147
330
17
100
AcDbEntity
  8
NOTCHES
100
AcDbLine
 10
6251.568116015662
 20
1998.5
 30
0.0
 11
6251.568116015662
 21
1997.5
 31
0.0
  0
LINE
  5
148
330
17
100
AcDbEntity
  8
NOTCHES
100
AcDbLine
 10
6262.201854687557
 20
1996.25
 30
0.0
 11
6262.201854687557
 21
1993.25
 31
0.0
  0
LINE
  5
149
330
17
100
AcDbEntity
  8
NOTCHES
100
AcDbLine
 10
6269.835593359685
 20
1989.5
 30
0.0
 11
6269.835593359685
 21
1986.5
 31
0.0
  0
LINE
  5
14A
330
17
100
AcDbEntity
  8
NOTCHES
100
AcDbLine
 10
6384.835632031691
 20
1989.5
 30
0.0
 11
6384.835632031691
 21
1986.5
 31
0.0
  0
LINE
  5
14B
330
17
100
AcDbEntity
  8
NOTCHES
100
AcDbLine
 10
6443.969370703586
 20
2047.75
 30
0.0
 11
6443.969370703586
 21
2044.75
 31
0.0
  0
LINE
  5
14C
330
17
100
AcDbEntity
  8
NOTCHES
100
AcDbLine
 10
6140.1668999999765
 20
2047.75
 30
0.0
 11
6140.1668999999765
 21
2044.75
 31
0.0
  0
LWPOLYLINE
  5
14D
330
17
100
AcDbEntity
  8
NOTCHES
100
AcDbPolyline
 90
4
 70
1
 10
6204.23380800793
 20
6.0
 10
6192.23380800793
 20
6.0
 10
6192.23380800793
 20
4.0
 10
6204.23380800793
 20
4.0
  0
LWPOLYLINE
  5
14E
330
17
100
AcDbEntity
  8
NOTCHES
100
AcDbPolyline
 90
4
 70
1
 10
6357.9024626954
 20
11.0
 10
6369.9024626954
 20
11.0
 10
6369.9024626954
 20
9.0
 10
6357.9024626954
 20
9.0
  0
LWPOLYLINE
  5
14F
330
17
100
AcDbEntity
  8
OUTLINE
100
AcDbPolyline
 90
44
 70
1
 10
6846.7975160160295
 20
1991.0
 10
6851.297516016029
 20
1995.5
 10
6854.431254687925
 20
1997.0
 10
6861.931254687925
 20
1997.0
 10
6865.06499335982
 20
2000.0
 10
6873.56499335982
 20
2008.5
 10
6876.698732031715
 20
2010.0
 10
6888.698732031715
 20
2010.0
 10
6888.698732031715
 20
2019.0
 10
6891.698732031715
 20
2022.0
 10
6895.698732031715
 20
2022.0
 10
6898.698732031715
 20
2019.0
 10
6898.698732031715
 20
2010.0
 10
6914.198732031715
 20
2010.0
 10
6914.198732031715
 20
2019.0
 10
6917.198732031715
 20
2022.0
 10
6921.198732031715
 20
2022.0
 10
6924.198732031715
 20
2019.0
 10
6924.198732031715
 20
2010.0
 10
6936.198732031715
 20
2010.0
 10
6939.33247070361
 20
2013.0
 10
6973.33247070361
 20
2047.0
 10
6976.466209375503
 20
2048.5
 10
6988.466240039534
 20
2048.5
 10
6988.466240039766
 20
0.0
 10
6657.530000000001
 20
0.0
 10
6657.530000000001
 20
2048.5
 10
6669.530000000001
 20
2048.5
 10
6672.663738671896
 20
2047.0
 10
6728.663738671896
 20
1991.0
 10
6731.797477343791
 20
1988.0
 10
6743.797477343791
 20
1988.0
 10
6743.797477343791
 20
1997.0
 10
6746.797477343791
 20
2000.0
 10
6750.797477343791
 20
2000.0
 10
6753.797477343791
 20
1997.0
 10
6753.797477343791
 20
1988.0
 10
6821.663777343669
 20
1988.0
 10
6821.663777343669
 20
1997.0
 10
6824.663777343669
 20
2000.0
 10
6828.663777343669
 20
2000.0
 10
6831.663777343669
 20
1997.0
 10
6831.663777343669
 20
1988.0
 10
6843.6637773439015
 20
1988.0
  0
LWPOLYLINE
  5
150
330
17
100
AcDbEntity
  8
CUTOUTS
100
AcDbPolyline
 90
8
 70
1
 10
6930.038278474444
 20
1044.5
 10
6930.038278474444
 20
952.25
 10
6905.538278474444
 20
952.25
 10
6905.538278474444
 20
1122.75
 10
6930.038278474444
 20
1122.75
 10
6930.038278474444
 20
1110.5
 10
6938.365601367755
 20
1110.5
 10
6938.365601367755
 20
1044.5
  0
CIRCLE
  5
151
330
17
100
AcDbEntity
  8
HOLES
100
AcDbCircle
 10
6787.730000000001
 20
150.0
 30
0.0
 40
3.25
  0
CIRCLE
  5
152
330
17
100
AcDbEntity
  8
HOLES
100
AcDbCircle
 10
6787.730000000001
 20
712.6666666666666
 30
0.0
 40
3.25
  0
CIRCLE
  5
153
330
17
100
AcDbEntity
  8
HOLES
100
AcDbCircle
 10
6787.730000000001
 20
1275.3333333333333
 30
0.0
 40
3.25
  0
CIRCLE
  5
154
330
17
100
AcDbEntity
  8
HOLES
100
AcDbCircle
 10
6787.730000000001
 20
1838.0
 30
0.0
 40
3.25
  0
LINE
  5
155
330
17
100
AcDbEntity
  8
NOTCHES
100
AcDbLine
 10
6845.230646679849
 20
3.0
 30
0.0
 11
6845.230646679849
 21
0.0
 31
0.0
  0
LINE
  5
156
330
17
100
AcDbEntity
  8
NOTCHES
100
AcDbLine
 10
6730.230608008075
 20
3.0
 30
0.0
 11
6730.230608008075
 21
0.0
 31
0.0
  0
LINE
  5
157
330
17
100
AcDbEntity
  8
NOTCHES
100
AcDbLine
 10
6852.864385351743
 20
3.0
 30
0.0
 11
6852.864385351743
 21
0.0
 31
0.0
  0
LINE
  5
158
330
17
100
AcDbEntity
  8
NOTCHES
100
AcDbLine
 10
6937.765601367894
 20
3.0
 30
0.0
 11
6937.765601367894
 21
0.0
 31
0.0
  0
LINE
  5
159
330
17
100
AcDbEntity
  8
NOTCHES
100
AcDbLine
 10
6671.096869335947
 20
3.0
 30
0.0
 11
6671.096869335947
 21
0.0
 31
0.0
  0
LINE
  5
15A
330
17
100
AcDbEntity
  8
NOTCHES
100
AcDbLine
 10
6974.8993400397885
 20
3.0
 30
0.0
 11
6974.8993400397885
 21
0.0
 31
0.0
  0
LINE
  5
15B
330
17
100
AcDbEntity
  8
NOTCHES
100
AcDbLine
 10
6863.498124023871
 20
1.0
 30
0.0
 11
6863.498124023871
 21
0.0
 31
0.0
  0
LINE
  5
15C
330
17
100
AcDbEntity
  8
NOTCHES
100
AcDbLine
 10
6875.131862695534
 20
1.047160253394394
 30
0.0
 11
6875.131862695534
 21
0.0471602533943951
 31
0.0
  0
LINE
  5
15D
330
17
100
AcDbEntity
  8
NOTCHES
100
AcDbLine
 10
6937.765601367894
 20
2011.5
 30
0.0
 11
6937.765601367894
 21
2005.5
 31
0.0
  0
LINE
  5
15E
330
17
100
AcDbEntity
  8
NOTCHES
100
AcDbLine
 10
6875.131862695534
 20
2009.25
 30
0.0
 11
6875.131862695534
 21
2008.25
 31
0.0
  0
LINE
  5
15F
330
17
100
AcDbEntity
  8
NOTCHES
100
AcDbLine
 10
6863.498124023871
 20
1998.5
 30
0.0
 11
6863.498124023871
 21
1997.5
 31
0.0
  0
LINE
  5
160
330
17
100
AcDbEntity
  8
NOTCHES
100
AcDbLine
 10
6852.864385351743
 20
1996.25
 30
0.0
 11
6852.864385351743
 21
1993.25
 31
0.0
  0
LINE
  5
161
330
17
100
AcDbEntity
  8
NOTCHES
100
AcDbLine
 10
6845.230646679849
 20
1989.5
 30
0.0
 11
6845.230646679849
 21
1986.5
 31
0.0
  0
LINE
  5
162
330
17
100
AcDbEntity
  8
NOTCHES
100
AcDbLine
 10
6730.230608008075
 20
1989.5
 30
0.0
 11
6730.230608008075
 21
1986.5
 31
0.0
  0
LINE
  5
163
330
17
100
AcDbEntity
  8
NOTCHES
100
AcDbLine
 10
6671.096869335947
 20
2047.75
 30
0.0
 11
6671.096869335947
 21
2044.75
 31
0.0
  0
LINE
  5
164
330
17
100
AcDbEntity
  8
NOTCHES
100
AcDbLine
 10
6974.8993400397885
 20
2047.75
 30
0.0
 11
6974.8993400397885
 21
2044.75
 31
0.0
  0
LINE
  5
165
330
17
100
AcDbEntity
  8
NOTCHES
100
AcDbLine
 10
6845.230646679849
 20
3.0
 30
0.0
 11
6845.230646679849
 21
0.0
 31
0.0
  0
LINE
  5
166
330
17
100
AcDbEntity
  8
NOTCHES
100
AcDbLine
 10
6730.230608008075
 20
3.0
 30
0.0
 11
6730.230608008075
 21
0.0
 31
0.0
  0
LINE
  5
167
330
17
100
AcDbEntity
  8
NOTCHES
100
AcDbLine
 10
6852.864385351743
 20
3.0
 30
0.0
 11
6852.864385351743
 21
0.0
 31
0.0
  0
LINE
  5
168
330
17
100
AcDbEntity
  8
NOTCHES
100
AcDbLine
 10
6937.765601367894
 20
3.0
 30
0.0
 11
6937.765601367894
 21
0.0
 31
0.0
  0
LINE
  5
169
330
17
100
AcDbEntity
  8
NOTCHES
100
AcDbLine
 10
6671.096869335947
 20
3.0
 30
0.0
 11
6671.096869335947
 21
0.0
 31
0.0
  0
LINE
  5
16A
330
17
100
AcDbEntity
  8
NOTCHES
100
AcDbLine
 10
6974.8993400397885
 20
3.0
 30
0.0
 11
6974.8993400397885
 21
0.0
 31
0.0
  0
LINE
  5
16B
330
17
100
AcDbEntity
  8
NOTCHES
100
AcDbLine
 10
6863.498124023871
 20
1.0
 30
0.0
 11
6863.498124023871
 21
0.0
 31
0.0
  0
LINE
  5
16C
330
17
100
AcDbEntity
  8
NOTCHES
100
AcDbLine
 10
6875.131862695534
 20
1.047160253394394
 30
0.0
 11
6875.131862695534
 21
0.0471602533943951
 31
0.0
  0
LINE
  5
16D
330
17
100
AcDbEntity
  8
NOTCHES
100
AcDbLine
 10
6937.765601367894
 20
2011.5
 30
0.0
 11
6937.765601367894
 21
2005.5
 31
0.0
  0
LINE
  5
16E
330
17
100
AcDbEntity
  8
NOTCHES
100
AcDbLine
 10
6875.131862695534
 20
2009.25
 30
0.0
 11
6875.131862695534
 21
2008.25
 31
0.0
  0
LINE
  5
16F
330
17
100
AcDbEntity
  8
NOTCHES
100
AcDbLine
 10
6863.498124023871
 20
1998.5
 30
0.0
 11
6863.498124023871
 21
1997.5
 31
0.0
  0
LINE
  5
170
330
17
100
AcDbEntity
  8
NOTCHES
100
AcDbLine
 10
6852.864385351743
 20
1996.25
 30
0.0
 11
6852.864385351743
 21
1993.25
 31
0.0
  0
LINE
  5
171
330
17
100
AcDbEntity
  8
NOTCHES
100
AcDbLine
 10
6845.230646679849
 20
1989.5
 30
0.0
 11
6845.230646679849
 21
1986.5
 31
0.0
  0
LINE
  5
172
330
17
100
AcDbEntity
  8
NOTCHES
100
AcDbLine
 10
6730.230608008075
 20
1989.5
 30
0.0
 11
6730.230608008075
 21
1986.5
 31
0.0
  0
LINE
  5
173
330
17
100
AcDbEntity
  8
NOTCHES
100
AcDbLine
 10
6671.096869335947
 20
2047.75
 30
0.0
 11
6671.096869335947
 21
2044.75
 31
0.0
  0
LINE
  5
174
330
17
100
AcDbEntity
  8
NOTCHES
100
AcDbLine
 10
6974.8993400397885
 20
2047.75
 30
0.0
 11
6974.8993400397885
 21
2044.75
 31
0.0
  0
LINE
  5
175
330
17
100
AcDbEntity
  8
NOTCHES
100
AcDbLine
 10
6845.230646679849
 20
3.0
 30
0.0
 11
6845.230646679849
 21
0.0
 31
0.0
  0
LINE
  5
176
330
17
100
AcDbEntity
  8
NOTCHES
100
AcDbLine
 10
6730.230608008075
 20
3.0
 30
0.0
 11
6730.230608008075
 21
0.0
 31
0.0
  0
LINE
  5
177
330
17
100
AcDbEntity
  8
NOTCHES
100
AcDbLine
 10
6852.864385351743
 20
3.0
 30
0.0
 11
6852.864385351743
 21
0.0
 31
0.0
  0
LINE
  5
178
330
17
100
AcDbEntity
  8
NOTCHES
100
AcDbLine
 10
6937.765601367894
 20
3.0
 30
0.0
 11
6937.765601367894
 21
0.0
 31
0.0
  0
LINE
  5
179
330
17
100
AcDbEntity
  8
NOTCHES
100
AcDbLine
 10
6671.096869335947
 20
3.0
 30
0.0
 11
6671.096869335947
 21
0.0
 31
0.0
  0
LINE
  5
17A
330
17
100
AcDbEntity
  8
NOTCHES
100
AcDbLine
 10
6974.8993400397885
 20
3.0
 30
0.0
 11
6974.8993400397885
 21
0.0
 31
0.0
  0
LINE
  5
17B
330
17
100
AcDbEntity
  8
NOTCHES
100
AcDbLine
 10
6863.498124023871
 20
1.0
 30
0.0
 11
6863.498124023871
 21
0.0
 31
0.0
  0
LINE
  5
17C
330
17
100
AcDbEntity
  8
NOTCHES
100
AcDbLine
 10
6875.131862695534
 20
1.047160253394394
 30
0.0
 11
6875.131862695534
 21
0.0471602533943951
 31
0.0
  0
LINE
  5
17D
330
17
100
AcDbEntity
  8
NOTCHES
100
AcDbLine
 10
6937.765601367894
 20
2011.5
 30
0.0
 11
6937.765601367894
 21
2005.5
 31
0.0
  0
LINE
  5
17E
330
17
100
AcDbEntity
  8
NOTCHES
100
AcDbLine
 10
6875.131862695534
 20
2009.25
 30
0.0
 11
6875.131862695534
 21
2008.25
 31
0.0
  0
LINE
  5
17F
330
17
100
AcDbEntity
  8
NOTCHES
100
AcDbLine
 10
6863.498124023871
 20
1998.5
 30
0.0
 11
6863.498124023871
 21
1997.5
 31
0.0
  0
LINE
  5
180
330
17
100
AcDbEntity
  8
NOTCHES
100
AcDbLine
 10
6852.864385351743
 20
1996.25
 30
0.0
 11
6852.864385351743
 21
1993.25
 31
0.0
  0
LINE
  5
181
330
17
100
AcDbEntity
  8
NOTCHES
100
AcDbLine
 10
6845.230646679849
 20
1989.5
 30
0.0
 11
6845.230646679849
 21
1986.5
 31
0.0
  0
LINE
  5
182
330
17
100
AcDbEntity
  8
NOTCHES
100
AcDbLine
 10
6730.230608008075
 20
1989.5
 30
0.0
 11
6730.230608008075
 21
1986.5
 31
0.0
  0
LINE
  5
183
330
17
100
AcDbEntity
  8
NOTCHES
100
AcDbLine
 10
6671.096869335947
 20
2047.75
 30
0.0
 11
6671.096869335947
 21
2044.75
 31
0.0
  0
LINE
  5
184
330
17
100
AcDbEntity
  8
NOTCHES
100
AcDbLine
 10
6974.8993400397885
 20
2047.75
 30
0.0
 11
6974.8993400397885
 21
2044.75
 31
0.0
  0
LINE
  5
185
330
17
100
AcDbEntity
  8
NOTCHES
100
AcDbLine
 10
6845.230646679849
 20
3.0
 30
0.0
 11
6845.230646679849
 21
0.0
 31
0.0
  0
LINE
  5
186
330
17
100
AcDbEntity
  8
NOTCHES
100
AcDbLine
 10
6730.230608008075
 20
3.0
 30
0.0
 11
6730.230608008075
 21
0.0
 31
0.0
  0
LINE
  5
187
330
17
100
AcDbEntity
  8
NOTCHES
100
AcDbLine
 10
6852.864385351743
 20
3.0
 30
0.0
 11
6852.864385351743
 21
0.0
 31
0.0
  0
LINE
  5
188
330
17
100
AcDbEntity
  8
NOTCHES
100
AcDbLine
 10
6937.765601367894
 20
3.0
 30
0.0
 11
6937.765601367894
 21
0.0
 31
0.0
  0
LINE
  5
189
330
17
100
AcDbEntity
  8
NOTCHES
100
AcDbLine
 10
6671.096869335947
 20
3.0
 30
0.0
 11
6671.096869335947
 21
0.0
 31
0.0
  0
LINE
  5
18A
330
17
100
AcDbEntity
  8
NOTCHES
100
AcDbLine
 10
6974.8993400397885
 20
3.0
 30
0.0
 11
6974.8993400397885
 21
0.0
 31
0.0
  0
LINE
  5
18B
330
17
100
AcDbEntity
  8
NOTCHES
100
AcDbLine
 10
6863.498124023871
 20
1.0
 30
0.0
 11
6863.498124023871
 21
0.0
 31
0.0
  0
LINE
  5
18C
330
17
100
AcDbEntity
  8
NOTCHES
100
AcDbLine
 10
6875.131862695534
 20
1.047160253394394
 30
0.0
 11
6875.131862695534
 21
0.0471602533943951
 31
0.0
  0
LINE
  5
18D
330
17
100
AcDbEntity
  8
NOTCHES
100
AcDbLine
 10
6937.765601367894
 20
2011.5
 30
0.0
 11
6937.765601367894
 21
2005.5
 31
0.0
  0
LINE
  5
18E
330
17
100
AcDbEntity
  8
NOTCHES
100
AcDbLine
 10
6875.131862695534
 20
2009.25
 30
0.0
 11
6875.131862695534
 21
2008.25
 31
0.0
  0
LINE
  5
18F
330
17
100
AcDbEntity
  8
NOTCHES
100
AcDbLine
 10
6863.498124023871
 20
1998.5
 30
0.0
 11
6863.498124023871
 21
1997.5
 31
0.0
  0
LINE
  5
190
330
17
100
AcDbEntity
  8
NOTCHES
100
AcDbLine
 10
6852.864385351743
 20
1996.25
 30
0.0
 11
6852.864385351743
 21
1993.25
 31
0.0
  0
LINE
  5
191
330
17
100
AcDbEntity
  8
NOTCHES
100
AcDbLine
 10
6845.230646679849
 20
1989.5
 30
0.0
 11
6845.230646679849
 21
1986.5
 31
0.0
  0
LINE
  5
192
330
17
100
AcDbEntity
  8
NOTCHES
100
AcDbLine
 10
6730.230608008075
 20
1989.5
 30
0.0
 11
6730.230608008075
 21
1986.5
 31
0.0
  0
LINE
  5
193
330
17
100
AcDbEntity
  8
NOTCHES
100
AcDbLine
 10
6671.096869335947
 20
2047.75
 30
0.0
 11
6671.096869335947
 21
2044.75
 31
0.0
  0
LINE
  5
194
330
17
100
AcDbEntity
  8
NOTCHES
100
AcDbLine
 10
6974.8993400397885
 20
2047.75
 30
0.0
 11
6974.8993400397885
 21
2044.75
 31
0.0
  0
LWPOLYLINE
  5
195
330
17
100
AcDbEntity
  8
NOTCHES
100
AcDbPolyline
 90
4
 70
1
 10
6910.832432031837
 20
6.0
 10
6922.832432031837
 20
6.0
 10
6922.832432031837
 20
4.0
 10
6910.832432031837
 20
4.0
  0
LWPOLYLINE
  5
196
330
17
100
AcDbEntity
  8
NOTCHES
100
AcDbPolyline
 90
4
 70
1
 10
6757.163777344133
 20
11.0
 10
6745.163777344133
 20
11.0
 10
6745.163777344133
 20
9.0
 10
6757.163777344133
 20
9.0
  0
LWPOLYLINE
  5
197
330
17
100
AcDbEntity
  8
OUTLINE
100
AcDbPolyline
 90
44
 70
1
 10
8285.460000000001
 20
330.93620937562036
 10
7188.460000000001
 20
330.93620937562036
 10
7188.460000000001
 20
318.9362093756213
 10
7189.960000000001
 20
315.80247070372525
 10
7223.960000000001
 20
281.80247070372525
 10
7226.960000000001
 20
278.6687320317146
 10
7216.960000000001
 20
268.6687320317119
 10
7216.960000000001
 20
229.1687320317119
 10
7226.960000000001
 20
219.16873203171463
 10
7228.460000000001
 20
216.0349933598195
 10
7236.960000000001
 20
207.53499335981678
 10
7239.960000000001
 20
204.40125468780616
 10
7239.960000000001
 20
196.90125468780707
 10
7241.460000000001
 20
193.76751601591195
 10
7245.960000000001
 20
189.26751601591195
 10
7248.960000000001
 20
186.13377734390042
 10
7238.960000000001
 20
174.21624141803431
 10
7238.960000000001
 20
84.2674773439062
 10
7248.960000000001
 20
74.26747734390801
 10
7245.960000000001
 20
71.13373867189512
 10
7189.960000000001
 20
15.133738671894207
 10
7188.460000000001
 20
12.0
 10
7188.460000000001
 20
0.0
 10
8285.460000000001
 20
0.0
 10
8285.460000000001
 20
12.0
 10
8283.960000000001
 20
15.133738671894207
 10
8227.960000000001
 20
71.13373867189512
 10
8224.960000000001
 20
74.26747734390801
 10
8234.960000000001
 20
84.2674773439062
 10
8234.960000000001
 20
174.21624141803431
 10
8224.960000000001
 20
186.13377734390042
 10
8227.960000000001
 20
189.26751601591195
 10
8232.460000000001
 20
193.76751601591195
 10
8233.960000000001
 20
196.90125468780707
 10
8233.960000000001
 20
204.40125468780616
 10
8236.960000000001
 20
207.53499335981678
 10
8245.460000000001
 20
216.0349933598195
 10
8246.960000000001
 20
219.16873203171463
 10
8256.960000000001
 20
229.1687320317119
 10
8256.960000000001
 20
268.6687320317119
 10
8246.960000000001
 20
278.6687320317146
 10
8249.960000000001
 20
281.80247070372525
 10
8283.960000000001
 20
315.80247070372525
 10
8285.460000000001
 20
318.9362093756213
  0
LWPOLYLINE
  5
198
330
17
100
AcDbEntity
  8
CUTOUTS
100
AcDbPolyline
 90
4
 70
1
 10
8246.710000000001
 20
230.16873203183013
 10
8248.710000000001
 20
230.16873203183013
 10
8248.710000000001
 20
242.16873203183013
 10
8246.710000000001
 20
242.16873203183013
  0
LWPOLYLINE
  5
199
330
17
100
AcDbEntity
  8
CUTOUTS
100
AcDbPolyline
 90
4
 70
1
 10
8246.710000000001
 20
255.6687320317119
 10
8248.710000000001
 20
255.6687320317119
 10
8248.710000000001
 20
267.6687320317119
 10
8246.710000000001
 20
267.6687320317119
  0
LWPOLYLINE
  5
19A
330
17
100
AcDbEntity
  8
CUTOUTS
100
AcDbPolyline
 90
4
 70
1
 10
8224.710000000001
 20
85.2674773439062
 10
8226.710000000001
 20
85.2674773439062
 10
8226.710000000001
 20
97.2674773439062
 10
8224.710000000001
 20
97.2674773439062
  0
LWPOLYLINE
  5
19B
330
17
100
AcDbEntity
  8
CUTOUTS
100
AcDbPolyline
 90
4
 70
1
 10
8224.710000000001
 20
163.13377734390042
 10
8226.710000000001
 20
163.13377734390042
 10
8226.710000000001
 20
175.13377734390042
 10
8224.710000000001
 20
175.13377734390042
  0
LWPOLYLINE
  5
19C
330
17
100
AcDbEntity
  8
CUTOUTS
100
AcDbPolyline
 90
4
 70
1
 10
7225.210000000001
 20
230.16873203183013
 10
7227.210000000001
 20
230.16873203183013
 10
7227.210000000001
 20
242.16873203183013
 10
7225.210000000001
 20
242.16873203183013
  0
LWPOLYLINE
  5
19D
330
17
100
AcDbEntity
  8
CUTOUTS
100
AcDbPolyline
 90
4
 70
1
 10
7225.210000000001
 20
255.6687320317119
 10
7227.210000000001
 20
255.6687320317119
 10
7227.210000000001
 20
267.6687320317119
 10
7225.210000000001
 20
267.6687320317119
  0
LWPOLYLINE
  5
19E
330
17
100
AcDbEntity
  8
CUTOUTS
100
AcDbPolyline
 90
4
 70
1
 10
7247.210000000001
 20
85.2674773439062
 10
7249.210000000001
 20
85.2674773439062
 10
7249.210000000001
 20
97.2674773439062
 10
7247.210000000001
 20
97.2674773439062
  0
LWPOLYLINE
  5
19F
330
17
100
AcDbEntity
  8
CUTOUTS
100
AcDbPolyline
 90
4
 70
1
 10
7247.210000000001
 20
163.13377734390042
 10
7249.210000000001
 20
163.13377734390042
 10
7249.210000000001
 20
175.13377734390042
 10
7247.210000000001
 20
175.13377734390042
  0
LINE
  5
1A0
330
17
100
AcDbEntity
  8
NOTCHES
100
AcDbLine
 10
8284.710000000001
 20
317.369340039671
 30
0.0
 11
8278.710000000001
 21
317.369340039671
 31
0.0
  0
LINE
  5
1A1
330
17
100
AcDbEntity
  8
NOTCHES
100
AcDbLine
 10
8248.460000000001
 20
280.2356013676613
 30
0.0
 11
8242.460000000001
 21
280.2356013676613
 31
0.0
  0
LINE
  5
1A2
330
17
100
AcDbEntity
  8
NOTCHES
100
AcDbLine
 10
8246.210000000001
 20
217.60186269564883
 30
0.0
 11
8244.210000000001
 21
217.60186269564883
 31
0.0
  0
LINE
  5
1A3
330
17
100
AcDbEntity
  8
NOTCHES
100
AcDbLine
 10
8235.460000000001
 20
205.9681240237528
 30
0.0
 11
8233.460000000001
 21
205.9681240237528
 31
0.0
  0
LINE
  5
1A4
330
17
100
AcDbEntity
  8
NOTCHES
100
AcDbLine
 10
8233.210000000001
 20
195.33438535174128
 30
0.0
 11
8227.210000000001
 21
195.33438535174128
 31
0.0
  0
LINE
  5
1A5
330
17
100
AcDbEntity
  8
NOTCHES
100
AcDbLine
 10
8226.460000000001
 20
187.7006466798489
 30
0.0
 11
8220.460000000001
 21
187.7006466798489
 31
0.0
  0
LINE
  5
1A6
330
17
100
AcDbEntity
  8
NOTCHES
100
AcDbLine
 10
8226.460000000001
 20
72.70060800784222
 30
0.0
 11
8220.460000000001
 21
72.70060800784222
 31
0.0
  0
LINE
  5
1A7
330
17
100
AcDbEntity
  8
NOTCHES
100
AcDbLine
 10
8284.710000000001
 20
13.566869335947104
 30
0.0
 11
8278.710000000001
 21
13.566869335947104
 31
0.0
  0
LINE
  5
1A8
330
17
100
AcDbEntity
  8
NOTCHES
100
AcDbLine
 10
7225.460000000001
 20
280.2356013676613
 30
0.0
 11
7231.460000000001
 21
280.2356013676613
 31
0.0
  0
LINE
  5
1A9
330
17
100
AcDbEntity
  8
NOTCHES
100
AcDbLine
 10
7227.710000000001
 20
217.60186269564883
 30
0.0
 11
7229.710000000001
 21
217.60186269564883
 31
0.0
  0
LINE
  5
1AA
330
17
100
AcDbEntity
  8
NOTCHES
100
AcDbLine
 10
7238.460000000001
 20
205.9681240237528
 30
0.0
 11
7240.460000000001
 21
205.9681240237528
 31
0.0
  0
LINE
  5
1AB
330
17
100
AcDbEntity
  8
NOTCHES
100
AcDbLine
 10
7240.710000000001
 20
195.33438535174128
 30
0.0
 11
7246.710000000001
 21
195.33438535174128
 31
0.0
  0
LINE
  5
1AC
330
17
100
AcDbEntity
  8
NOTCHES
100
AcDbLine
 10
7247.460000000001
 20
187.7006466798489
 30
0.0
 11
7253.460000000001
 21
187.7006466798489
 31
0.0
  0
LINE
  5
1AD
330
17
100
AcDbEntity
  8
NOTCHES
100
AcDbLine
 10
7247.460000000001
 20
72.70060800784222
 30
0.0
 11
7253.460000000001
 21
72.70060800784222
 31
0.0
  0
LINE
  5
1AE
330
17
100
AcDbEntity
  8
NOTCHES
100
AcDbLine
 10
7195.210000000001
 20
317.369340039671
 30
0.0
 11
7189.210000000001
 21
317.369340039671
 31
0.0
  0
LINE
  5
1AF
330
17
100
AcDbEntity
  8
NOTCHES
100
AcDbLine
 10
7195.210000000001
 20
13.566869335947104
 30
0.0
 11
7189.210000000001
 21
13.566869335947104
 31
0.0
  0
LWPOLYLINE
  5
1B0
330
17
100
AcDbEntity
  8
OUTLINE
100
AcDbPolyline
 90
4
 70
1
 10
8585.460000000001
 20
0.0
 10
9737.390000000001
 20
0.0
 10
9737.390000000001
 20
2000.0
 10
8585.460000000001
 20
2000.0
  0
LWPOLYLINE
  5
1B1
330
17
100
AcDbEntity
  8
CUTOUTS
100
AcDbPolyline
 90
4
 70
1
 10
8629.060000000001
 20
150.0
 10
8658.560000000001
 20
150.0
 10
8658.560000000001
 20
252.0
 10
8629.060000000001
 20
252.0
  0
LWPOLYLINE
  5
1B2
330
17
100
AcDbEntity
  8
CUTOUTS
100
AcDbPolyline
 90
4
 70
1
 10
8629.060000000001
 20
853.0
 10
8658.560000000001
 20
853.0
 10
8658.560000000001
 20
955.0
 10
8629.060000000001
 20
955.0
  0
LWPOLYLINE
  5
1B3
330
17
100
AcDbEntity
  8
CUTOUTS
100
AcDbPolyline
 90
4
 70
1
 10
8629.060000000001
 20
1556.0
 10
8658.560000000001
 20
1556.0
 10
8658.560000000001
 20
1658.0
 10
8629.060000000001
 20
1658.0
  0
LWPOLYLINE
  5
1B4
330
17
100
AcDbEntity
  8
CUTOUTS
100
AcDbPolyline
 90
4
 70
1
 10
8629.060000000001
 20
1758.0
 10
8658.560000000001
 20
1758.0
 10
8658.560000000001
 20
1860.0
 10
8629.060000000001
 20
1860.0
  0
LWPOLYLINE
  5
1B5
330
17
100
AcDbEntity
  8
CUTOUTS
100
AcDbPolyline
 90
4
 70
1
 10
9672.86
 20
905.8
 10
9697.36
 20
905.8
 10
9697.36
 20
1141.1
 10
9672.86
 20
1141.1
  0
CIRCLE
  5
1B6
330
17
100
AcDbEntity
  8
HOLES
100
AcDbCircle
 10
9607.420000000002
 20
1043.0
 30
0.0
 40
11.0
  0
CIRCLE
  5
1B7
330
17
100
AcDbEntity
  8
HOLES
100
AcDbCircle
 10
9588.420000000002
 20
1043.0
 30
0.0
 40
3.5
  0
CIRCLE
  5
1B8
330
17
100
AcDbEntity
  8
HOLES
100
AcDbCircle
 10
9626.420000000002
 20
1043.0
 30
0.0
 40
3.5
  0
LINE
  5
1B9
330
17
100
AcDbEntity
  8
NOTCHES
100
AcDbLine
 10
8597.2
 20
0.0
 30
0.0
 11
8597.2
 21
3.0
 31
0.0
  0
LINE
  5
1BA
330
17
100
AcDbEntity
  8
NOTCHES
100
AcDbLine
 10
8597.2
 20
2000.0
 30
0.0
 11
8597.2
 21
1997.0
 31
0.0
  0
LINE
  5
1BB
330
17
100
AcDbEntity
  8
NOTCHES
100
AcDbLine
 10
8619.210000000001
 20
0.0
 30
0.0
 11
8619.210000000001
 21
3.0
 31
0.0
  0
LINE
  5
1BC
330
17
100
AcDbEntity
  8
NOTCHES
100
AcDbLine
 10
8619.210000000001
 20
2000.0
 30
0.0
 11
8619.210000000001
 21
1997.0
 31
0.0
  0
LINE
  5
1BD
330
17
100
AcDbEntity
  8
NOTCHES
100
AcDbLine
 10
8656.720000000001
 20
0.0
 30
0.0
 11
8656.720000000001
 21
3.0
 31
0.0
  0
LINE
  5
1BE
330
17
100
AcDbEntity
  8
NOTCHES
100
AcDbLine
 10
8656.720000000001
 20
2000.0
 30
0.0
 11
8656.720000000001
 21
1997.0
 31
0.0
  0
LINE
  5
1BF
330
17
100
AcDbEntity
  8
NOTCHES
100
AcDbLine
 10
9725.640000000001
 20
0.0
 30
0.0
 11
9725.640000000001
 21
3.0
 31
0.0
  0
LINE
  5
1C0
330
17
100
AcDbEntity
  8
NOTCHES
100
AcDbLine
 10
9725.640000000001
 20
2000.0
 30
0.0
 11
9725.640000000001
 21
1997.0
 31
0.0
  0
LINE
  5
1C1
330
17
100
AcDbEntity
  8
NOTCHES
100
AcDbLine
 10
9703.640000000001
 20
0.0
 30
0.0
 11
9703.640000000001
 21
3.0
 31
0.0
  0
LINE
  5
1C2
330
17
100
AcDbEntity
  8
NOTCHES
100
AcDbLine
 10
9703.640000000001
 20
2000.0
 30
0.0
 11
9703.640000000001
 21
1997.0
 31
0.0
  0
LINE
  5
1C3
330
17
100
AcDbEntity
  8
NOTCHES
100
AcDbLine
 10
9666.12
 20
0.0
 30
0.0
 11
9666.12
 21
3.0
 31
0.0
  0
LINE
  5
1C4
330
17
100
AcDbEntity
  8
NOTCHES
100
AcDbLine
 10
9666.12
 20
2000.0
 30
0.0
 11
9666.12
 21
1997.0
 31
0.0
  0
LWPOLYLINE
  5
1C5
330
17
100
AcDbEntity
  8
OUTLINE
100
AcDbPolyline
 90
4
 70
1
 10
10037.390000000001
 20
0.0
 10
11076.2
 20
0.0
 10
11076.2
 20
2000.0
 10
10037.390000000001
 20
2000.0
  0
CIRCLE
  5
1C6
330
17
100
AcDbEntity
  8
HOLES
100
AcDbCircle
 10
10110.990000000002
 20
1043.0
 30
0.0
 40
11.0
  0
CIRCLE
  5
1C7
330
17
100
AcDbEntity
  8
HOLES
100
AcDbCircle
 10
10091.990000000002
 20
1043.0
 30
0.0
 40
3.5
  0
CIRCLE
  5
1C8
330
17
100
AcDbEntity
  8
HOLES
100
AcDbCircle
 10
10129.990000000002
 20
1043.0
 30
0.0
 40
3.5
  0
LWPOLYLINE
  5
1C9
330
17
100
AcDbEntity
  8
CUTOUTS
100
AcDbPolyline
 90
4
 70
1
 10
10098.29
 20
951.0
 10
10113.29
 20
951.0
 10
10113.29
 20
962.5
 10
10098.29
 20
962.5
  0
LWPOLYLINE
  5
1CA
330
17
100
AcDbEntity
  8
CHANNELS
100
AcDbPolyline
 90
14
 70
1
 10
11399.45
 20
0.0
 10
11399.45
 20
18.53305283712598
 10
11397.45
 20
20.53305283712689
 10
11376.2
 20
20.53305283712689
 10
11376.2
 20
54.03305283712689
 10
11377.249999999814
 20
54.03305283712689
 10
11377.249999999814
 20
72.0661056744857
 10
12382.150000000187
 20
72.0661056744857
 10
12382.150000000187
 20
54.03305283712689
 10
12383.2
 20
54.03305283712689
 10
12383.2
 20
20.53305283712689
 10
12361.95
 20
20.53305283712689
 10
12359.95
 20
18.53305283712598
 10
12359.95
 20
0.0
  0
LWPOLYLINE
  5
1CB
330
17
100
AcDbEntity
  8
CHANNELS
100
AcDbPolyline
 90
14
 70
1
 10
11399.45
 20
150.0
 10
11399.45
 20
168.53305283712598
 10
11397.45
 20
170.5330528371269
 10
11376.2
 20
170.5330528371269
 10
11376.2
 20
204.0330528371269
 10
11377.249999999814
 20
204.0330528371269
 10
11377.249999999814
 20
222.0661056744857
 10
12382.150000000187
 20
222.0661056744857
 10
12382.150000000187
 20
204.0330528371269
 10
12383.2
 20
204.0330528371269
 10
12383.2
 20
170.5330528371269
 10
12361.95
 20
170.5330528371269
 10
12359.95
 20
168.53305283712598
 10
12359.95
 20
150.0
  0
LWPOLYLINE
  5
1CC
330
17
100
AcDbEntity
  8
CHANNELS
100
AcDbPolyline
 90
14
 70
1
 10
11399.45
 20
300.0
 10
11399.45
 20
318.533052837126
 10
11397.45
 20
320.5330528371269
 10
11376.2
 20
320.5330528371269
 10
11376.2
 20
354.0330528371269
 10
11377.249999999814
 20
354.0330528371269
 10
11377.249999999814
 20
372.0661056744857
 10
12382.150000000187
 20
372.0661056744857
 10
12382.150000000187
 20
354.0330528371269
 10
12383.2
 20
354.0330528371269
 10
12383.2
 20
320.5330528371269
 10
12361.95
 20
320.5330528371269
 10
12359.95
 20
318.533052837126
 10
12359.95
 20
300.0
  0
TEXT
  5
1CD
330
17
100
AcDbEntity
  8
TEXT
100
AcDbText
 10
6126.6
 20
-100.0
 30
0.0
 40
35.0
  1
DOOR_2 | W:1100 H:2050 D:170 | Leaf: 1151.9 / 1038.8 x 2000.0
100
AcDbText
  0
ENDSEC
  0
SECTION
  2
OBJECTS
  0
DICTIONARY
  5
A
330
0
100
AcDbDictionary
281
1
  3
ACAD_COLOR
350
B
  3
ACAD_GROUP
350
C
  3
ACAD_LAYOUT
350
D
  3
ACAD_MATERIAL
350
E
  3
ACAD_MLEADERSTYLE
350
F
  3
ACAD_MLINESTYLE
350
10
  3
ACAD_PLOTSETTINGS
350
11
  3
ACAD_PLOTSTYLENAME
350
12
  3
ACAD_SCALELIST
350
14
  3
ACAD_TABLESTYLE
350
15
  3
ACAD_VISUALSTYLE
350
16
  3
EZDXF_META
350
2D
  0
DICTIONARY
  5
B
330
A
100
AcDbDictionary
281
1
  0
DICTIONARY
  5
C
330
A
100
AcDbDictionary
281
1
  0
DICTIONARY
  5
D
330
A
100
AcDbDictionary
281
1
  3
Model
350
1A
  3
Layout1
350
1E
  0
DICTIONARY
  5
E
330
A
100
AcDbDictionary
281
1
  3
ByBlock
350
1F
  3
ByLayer
350
20
  3
Global
350
21
  0
DICTIONARY
  5
F
330
A
100
AcDbDictionary
281
1
  3
Standard
350
2C
  0
DICTIONARY
  5
10
330
A
100
AcDbDictionary
281
1
  3
Standard
350
22
  0
DICTIONARY
  5
11
330
A
100
AcDbDictionary
281
1
  0
ACDBDICTIONARYWDFLT
  5
12
330
A
100
AcDbDictionary
281
1
  3
Normal
350
13
100
AcDbDictionaryWithDefault
340
13
  0
ACDBPLACEHOLDER
  5
13
330
12
  0
DICTIONARY
  5
14
330
A
100
AcDbDictionary
281
1
  0
DICTIONARY
  5
15
330
A
100
AcDbDictionary
281
1
  0
DICTIONARY
  5
16
330
A
100
AcDbDictionary
281
1
  0
LAYOUT
  5
1A
330
D
100
AcDbPlotSettings
  1

  4
A3
  6

 40
7.5
 41
20.0
 42
7.5
 43
20.0
 44
420.0
 45
297.0
 46
0.0
 47
0.0
 48
0.0
 49
0.0
140
0.0
141
0.0
142
1.0
143
1.0
 70
1024
 72
1
 73
0
 74
5
  7

 75
16
 76
0
 77
2
 78
300
147
1.0
148
0.0
149
0.0
100
AcDbLayout
  1
Model
 70
1
 71
0
 10
0.0
 20
0.0
 11
420.0
 21
297.0
 12
0.0
 22
0.0
 32
0.0
 14
1e+20
 24
1e+20
 34
1e+20
 15
-1e+20
 25
-1e+20
 35
-1e+20
146
0.0
 13
0.0
 23
0.0
 33
0.0
 16
1.0
 26
0.0
 36
0.0
 17
0.0
 27
1.0
 37
0.0
 76
1
330
17
  0
LAYOUT
  5
1E
330
D
100
AcDbPlotSettings
  1

  4
A3
  6

 40
7.5
 41
20.0
 42
7.5
 43
20.0
 44
420.0
 45
297.0
 46
0.0
 47
0.0
 48
0.0
 49
0.0
140
0.0
141
0.0
142
1.0
143
1.0
 70
0
 72
1
 73
0
 74
5
  7

 75
16
 76
0
 77
2
 78
300
147
1.0
148
0.0
149
0.0
100
AcDbLayout
  1
Layout1
 70
1
 71
1
 10
0.0
 20
0.0
 11
420.0
 21
297.0
 12
0.0
 22
0.0
 32
0.0
 14
1e+20
 24
1e+20
 34
1e+20
 15
-1e+20
 25
-1e+20
 35
-1e+20
146
0.0
 13
0.0
 23
0.0
 33
0.0
 16
1.0
 26
0.0
 36
0.0
 17
0.0
 27
1.0
 37
0.0
 76
1
330
1B
  0
MATERIAL
  5
1F
102
{ACAD_REACTORS
330
E
102
}
330
E
100
AcDbMaterial
  1
ByBlock
  2

 70
0
 40
1.0
 71
1
 41
1.0
 91
-1023410177
 42
1.0
 72
1
  3

 73
1
 74
1
 75
1
 44
0.5
 73
0
 45
1.0
 46
1.0
 77
1
  4

 78
1
 79
1
170
1
 48
1.0
171
1
  6

172
1
173
1
174
1
140
1.0
141
1.0
175
1
  7

176
1
177
1
178
1
143
1.0
179
1
  8

270
1
271
1
272
1
145
1.0
146
1.0
273
1
  9

274
1
275
1
276
1
 42
1.0
 72
1
  3

 73
1
 74
1
 75
1
 94
63
  0
MATERIAL
  5
20
102
{ACAD_REACTORS
330
E
102
}
330
E
100
AcDbMaterial
  1
ByLayer
  2

 70
0
 40
1.0
 71
1
 41
1.0
 91
-1023410177
 42
1.0
 72
1
  3

 73
1
 74
1
 75
1
 44
0.5
 73
0
 45
1.0
 46
1.0
 77
1
  4

 78
1
 79
1
170
1
 48
1.0
171
1
  6

172
1
173
1
174
1
140
1.0
141
1.0
175
1
  7

176
1
177
1
178
1
143
1.0
179
1
  8

270
1
271
1
272
1
145
1.0
146
1.0
273
1
  9

274
1
275
1
276
1
 42
1.0
 72
1
  3

 73
1
 74
1
 75
1
 94
63
  0
MATERIAL
  5
21
102
{ACAD_REACTORS
330
E
102
}
330
E
100
AcDbMaterial
  1
Global
  2

 70
0
 40
1.0
 71
1
 41
1.0
 91
-1023410177
 42
1.0
 72
1
  3

 73
1
 74
1
 75
1
 44
0.5
 73
0
 45
1.0
 46
1.0
 77
1
  4

 78
1
 79
1
170
1
 48
1.0
171
1
  6

172
1
173
1
174
1
140
1.0
141
1.0
175
1
  7

176
1
177
1
178
1
143
1.0
179
1
  8

270
1
271
1
272
1
145
1.0
146
1.0
273
1
  9

274
1
275
1
276
1
 42
1.0
 72
1
  3

 73
1
 74
1
 75
1
 94
63
  0
MLINESTYLE
  5
22
102
{ACAD_REACTORS
330
10
102
}
330
10
100
AcDbMlineStyle
  2
Standard
 70
0
  3

 62
256
 51
90.0
 52
90.0
 71
2
 49
0.5
 62
256
  6
BYLAYER
 49
-0.5
 62
256
  6
BYLAYER
  0
MLEADERSTYLE
  5
2C
102
{ACAD_REACTORS
330
F
102
}
330
F
100
AcDbMLeaderStyle
179
2
170
2
171
1
172
0
 90
2
 40
0.0
 41
0.0
173
1
 91
-1056964608
 92
-2
290
1
 42
2.0
291
1
 43
8.0
  3
Standard
 44
4.0
300

342
29
174
1
175
1
176
0
178
1
 93
-1056964608
 45
4.0
292
0
297
0
 46
4.0
 94
-1056964608
 47
1.0
 49
1.0
140
1.0
294
1
141
0.0
177
0
142
1.0
295
0
296
0
143
3.75
271
0
272
9
273
9
  0
DICTIONARY
  5
2D
330
A
100
AcDbDictionary
280
1
281
1
  3
CREATED_BY_EZDXF
350
2E
  3
WRITTEN_BY_EZDXF
350
1D0
  0
DICTIONARYVAR
  5
2E
330
2D
100
DictionaryVariables
280
0
  1
1.4.4 @ 2026-09-19T19:46:41.704719+00:00
  0
DICTIONARYVAR
  5
1D0
330
2D
100
DictionaryVariables
280
0
  1
1.4.4 @ 2026-09-19T19:46:41.719745+00:00
  0
ENDSEC
  0
EOF
