  0
SECTION
  2
HEADER
  9
$ACADVER
  1
AC1032
  9
$ACADMAINTVER
 90
4
  9
$DWGCODEPAGE
  3
ANSI_1252
  9
$LASTSAVEDBY
  1
ezdxf
  9
$REQUIREDVERSIONS
160
0
  9
$INSBASE
 10
0.0
 20
0.0
 30
0.0
  9
$EXTMIN
 10
1e+20
 20
1e+20
 30
1e+20
  9
$EXTMAX
 10
-1e+20
 20
-1e+20
 30
-1e+20
  9
$LIMMIN
 10
0.0
 20
0.0
  9
$LIMMAX
 10
420.0
 20
297.0
  9
$ORTHOMODE
 70
0
  9
$REGENMODE
 70
1
  9
$FILLMODE
 70
1
  9
$QTEXTMODE
 70
0
  9
$MIRRTEXT
 70
1
  9
$LTSCALE
 40
1.0
  9
$ATTMODE
 70
1
  9
$TEXTSIZE
 40
2.5
  9
$TRACEWID
 40
1.0
  9
$TEXTSTYLE
  7
Standard
  9
$CLAYER
  8
0
  9
$CELTYPE
  6
ByLayer
  9
$CECOLOR
 62
256
  9
$CELTSCALE
 40
1.0
  9
$DISPSILH
 70
0
  9
$DIMSCALE
 40
1.0
  9
$DIMASZ
 40
2.5
  9
$DIMEXO
 40
0.625
  9
$DIMDLI
 40
3.75
  9
$DIMRND
 40
0.0
  9
$DIMDLE
 40
0.0
  9
$DIMEXE
 40
1.25
  9
$DIMTP
 40
0.0
  9
$DIMTM
 40
0.0
  9
$DIMTXT
 40
2.5
  9
$DIMCEN
 40
2.5
  9
$DIMTSZ
 40
0.0
  9
$DIMTOL
 70
0
  9
$DIMLIM
 70
0
  9
$DIMTIH
 70
0
  9
$DIMTOH
 70
0
  9
$DIMSE1
 70
0
  9
$DIMSE2
 70
0
  9
$DIMTAD
 70
1
  9
$DIMZIN
 70
8
  9
$DIMBLK
  1

  9
$DIMASO
 70
1
  9
$DIMSHO
 70
1
  9
$DIMPOST
  1

  9
$DIMAPOST
  1

  9
$DIMALT
 70
0
  9
$DIMALTD
 70
3
  9
$DIMALTF
 40
0.03937007874
  9
$DIMLFAC
 40
1.0
  9
$DIMTOFL
 70
1
  9
$DIMTVP
 40
0.0
  9
$DIMTIX
 70
0
  9
$DIMSOXD
 70
0
  9
$DIMSAH
 70
0
  9
$DIMBLK1
  1

  9
$DIMBLK2
  1

  9
$DIMSTYLE
  2
ISO-25
  9
$DIMCLRD
 70
0
  9
$DIMCLRE
 70
0
  9
$DIMCLRT
 70
0
  9
$DIMTFAC
 40
1.0
  9
$DIMGAP
 40
0.625
  9
$DIMJUST
 70
0
  9
$DIMSD1
 70
0
  9
$DIMSD2
 70
0
  9
$DIMTOLJ
 70
0
  9
$DIMTZIN
 70
8
  9
$DIMALTZ
 70
0
  9
$DIMALTTZ
 70
0
  9
$DIMUPT
 70
0
  9
$DIMDEC
 70
2
  9
$DIMTDEC
 70
2
  9
$DIMALTU
 70
2
  9
$DIMALTTD
 70
3
  9
$DIMTXSTY
  7
Standard
  9
$DIMAUNIT
 70
0
  9
$DIMADEC
 70
0
  9
$DIMALTRND
 40
0.0
  9
$DIMAZIN
 70
0
  9
$DIMDSEP
 70
44
  9
$DIMATFIT
 70
3
  9
$DIMFRAC
 70
0
  9
$DIMLDRBLK
  1

  9
$DIMLUNIT
 70
2
  9
$DIMLWD
 70
-2
  9
$DIMLWE
 70
-2
  9
$DIMTMOVE
 70
0
  9
$DIMFXL
 40
1.0
  9
$DIMFXLON
 70
0
  9
$DIMJOGANG
 40
0.785398163397
  9
$DIMTFILL
 70
0
  9
$DIMTFILLCLR
 70
0
  9
$DIMARCSYM
 70
0
  9
$DIMLTYPE
  6

  9
$DIMLTEX1
  6

  9
$DIMLTEX2
  6

  9
$DIMTXTDIRECTION
 70
0
  9
$LUNITS
 70
2
  9
$LUPREC
 70
4
  9
$SKETCHINC
 40
1.0
  9
$FILLETRAD
 40
10.0
  9
$AUNITS
 70
0
  9
$AUPREC
 70
2
  9
$MENU
  1
.
  9
$ELEVATION
 40
0.0
  9
$PELEVATION
 40
0.0
  9
$THICKNESS
 40
0.0
  9
$LIMCHECK
 70
0
  9
$CHAMFERA
 40
0.0
  9
$CHAMFERB
 40
0.0
  9
$CHAMFERC
 40
0.0
  9
$CHAMFERD
 40
0.0
  9
$SKPOLY
 70
0
  9
$TDCREATE
 40
2461303.9675231483
  9
$TDUCREATE
 40
2458532.153996898
  9
$TDUPDATE
 40
2461303.9675231483
  9
$TDUUPDATE
 40
2458532.1544311
  9
$TDINDWG
 40
0.0
  9
$TDUSRTIMER
 40
0.0
  9
$USRTIMER
 70
1
  9
$ANGBASE
 50
0.0
  9
$ANGDIR
 70
0
  9
$PDMODE
 70
0
  9
$PDSIZE
 40
0.0
  9
$PLINEWID
 40
0.0
  9
$SPLFRAME
 70
0
  9
$SPLINETYPE
 70
6
  9
$SPLINESEGS
 70
8
  9
$HANDSEED
  5
22D
  9
$SURFTAB1
 70
6
  9
$SURFTAB2
 70
6
  9
$SURFTYPE
 70
6
  9
$SURFU
 70
6
  9
$SURFV
 70
6
  9
$UCSBASE
  2

  9
$UCSNAME
  2

  9
$UCSORG
 10
0.0
 20
0.0
 30
0.0
  9
$UCSXDIR
 10
1.0
 20
0.0
 30
0.0
  9
$UCSYDIR
 10
0.0
 20
1.0
 30
0.0
  9
$UCSORTHOREF
  2

  9
$UCSORTHOVIEW
 70
0
  9
$UCSORGTOP
 10
0.0
 20
0.0
 30
0.0
  9
$UCSORGBOTTOM
 10
0.0
 20
0.0
 30
0.0
  9
$UCSORGLEFT
 10
0.0
 20
0.0
 30
0.0
  9
$UCSORGRIGHT
 10
0.0
 20
0.0
 30
0.0
  9
$UCSORGFRONT
 10
0.0
 20
0.0
 30
0.0
  9
$UCSORGBACK
 10
0.0
 20
0.0
 30
0.0
  9
$PUCSBASE
  2

  9
$PUCSNAME
  2

  9
$PUCSORG
 10
0.0
 20
0.0
 30
0.0
  9
$PUCSXDIR
 10
1.0
 20
0.0
 30
0.0
  9
$PUCSYDIR
 10
0.0
 20
1.0
 30
0.0
  9
$PUCSORTHOREF
  2

  9
$PUCSORTHOVIEW
 70
0
  9
$PUCSORGTOP
 10
0.0
 20
0.0
 30
0.0
  9
$PUCSORGBOTTOM
 10
0.0
 20
0.0
 30
0.0
  9
$PUCSORGLEFT
 10
0.0
 20
0.0
 30
0.0
  9
$PUCSORGRIGHT
 10
0.0
 20
0.0
 30
0.0
  9
$PUCSORGFRONT
 10
0.0
 20
0.0
 30
0.0
  9
$PUCSORGBACK
 10
0.0
 20
0.0
 30
0.0
  9
$USERI1
 70
0
  9
$USERI2
 70
0
  9
$USERI3
 70
0
  9
$USERI4
 70
0
  9
$USERI5
 70
0
  9
$USERR1
 40
0.0
  9
$USERR2
 40
0.0
  9
$USERR3
 40
0.0
  9
$USERR4
 40
0.0
  9
$USERR5
 40
0.0
  9
$WORLDVIEW
 70
1
  9
$SHADEDGE
 70
3
  9
$SHADEDIF
 70
70
  9
$TILEMODE
 70
1
  9
$MAXACTVP
 70
64
  9
$PINSBASE
 10
0.0
 20
0.0
 30
0.0
  9
$PLIMCHECK
 70
0
  9
$PEXTMIN
 10
1e+20
 20
1e+20
 30
1e+20
  9
$PEXTMAX
 10
-1e+20
 20
-1e+20
 30
-1e+20
  9
$PLIMMIN
 10
0.0
 20
0.0
  9
$PLIMMAX
 10
420.0
 20
297.0
  9
$UNITMODE
 70
0
  9
$VISRETAIN
 70
1
  9
$PLINEGEN
 70
0
  9
$PSLTSCALE
 70
1
  9
$TREEDEPTH
 70
3020
  9
$CMLSTYLE
  2
Standard
  9
$CMLJUST
 70
0
  9
$CMLSCALE
 40
20.0
  9
$PROXYGRAPHICS
 70
1
  9
$MEASUREMENT
 70
1
  9
$CELWEIGHT
370
-1
  9
$ENDCAPS
280
0
  9
$JOINSTYLE
280
0
  9
$LWDISPLAY
290
0
  9
$INSUNITS
 70
6
  9
$HYPERLINKBASE
  1

  9
$STYLESHEET
  1

  9
$XEDIT
290
1
  9
$CEPSNTYPE
380
0
  9
$PSTYLEMODE
290
1
  9
$FINGERPRINTGUID
  2
{442020DD-1949-4BCF-ACE4-FE5B3D5146AE}
  9
$VERSIONGUID
  2
{AC59555C-F7F8-4D4F-8A24-2890CD9B812F}
  9
$EXTNAMES
290
1
  9
$PSVPSCALE
 40
0.0
  9
$OLESTARTUP
290
0
  9
$SORTENTS
280
127
  9
$INDEXCTL
280
0
  9
$HIDETEXT
280
1
  9
$XCLIPFRAME
280
1
  9
$HALOGAP
280
0
  9
$OBSCOLOR
 70
257
  9
$OBSLTYPE
280
0
  9
$INTERSECTIONDISPLAY
280
0
  9
$INTERSECTIONCOLOR
 70
257
  9
$DIMASSOC
280
2
  9
$PROJECTNAME
  1

  9
$CAMERADISPLAY
290
0
  9
$LENSLENGTH
 40
50.0
  9
$CAMERAHEIGHT
 40
0.0
  9
$STEPSPERSEC
 40
24.0
  9
$STEPSIZE
 40
100.0
  9
$3DDWFPREC
 40
2.0
  9
$PSOLWIDTH
 40
0.005
  9
$PSOLHEIGHT
 40
0.08
  9
$LOFTANG1
 40
1.570796326795
  9
$LOFTANG2
 40
1.570796326795
  9
$LOFTMAG1
 40
0.0
  9
$LOFTMAG2
 40
0.0
  9
$LOFTPARAM
 70
7
  9
$LOFTNORMALS
280
1
  9
$LATITUDE
 40
37.795
  9
$LONGITUDE
 40
-122.394
  9
$NORTHDIRECTION
 40
0.0
  9
$TIMEZONE
 70
-8000
  9
$LIGHTGLYPHDISPLAY
280
1
  9
$TILEMODELIGHTSYNCH
280
1
  9
$CMATERIAL
347
20
  9
$SOLIDHIST
280
0
  9
$SHOWHIST
280
1
  9
$DWFFRAME
280
2
  9
$DGNFRAME
280
2
  9
$REALWORLDSCALE
290
1
  9
$INTERFERECOLOR
 62
256
  9
$CSHADOW
280
0
  9
$SHADOWPLANELOCATION
 40
0.0
  0
ENDSEC
  0
SECTION
  2
CLASSES
  0
CLASS
  1
ACDBDICTIONARYWDFLT
  2
AcDbDictionaryWithDefault
  3
ObjectDBX Classes
 90
0
 91
0
280
0
281
0
  0
CLASS
  1
SUN
  2
AcDbSun
  3
SCENEOE
 90
1153
 91
0
280
0
281
0
  0
CLASS
  1
VISUALSTYLE
  2
AcDbVisualStyle
  3
ObjectDBX Classes
 90
4095
 91
0
280
0
281
0
  0
CLASS
  1
MATERIAL
  2
AcDbMaterial
  3
ObjectDBX Classes
 90
1153
 91
0
280
0
281
0
  0
CLASS
  1
SCALE
  2
AcDbScale
  3
ObjectDBX Classes
 90
1153
 91
0
280
0
281
0
  0
CLASS
  1
TABLESTYLE
  2
AcDbTableStyle
  3
ObjectDBX Classes
 90
4095
 91
0
280
0
281
0
  0
CLASS
  1
MLEADERSTYLE
  2
AcDbMLeaderStyle
  3
ACDB_MLEADERSTYLE_CLASS
 90
4095
 91
0
280
0
281
0
  0
CLASS
  1
DICTIONARYVAR
  2
AcDbDictionaryVar
  3
ObjectDBX Classes
 90
0
 91
0
280
0
281
0
  0
CLASS
  1
CELLSTYLEMAP
  2
AcDbCellStyleMap
  3
ObjectDBX Classes
 90
1152
 91
0
280
0
281
0
  0
CLASS
  1
MENTALRAYRENDERSETTINGS
  2
AcDbMentalRayRenderSettings
  3
SCENEOE
 90
1024
 91
0
280
0
281
0
  0
CLASS
  1
ACDBDETAILVIEWSTYLE
  2
AcDbDetailViewStyle
  3
ObjectDBX Classes
 90
1025
 91
0
280
0
281
0
  0
CLASS
  1
ACDBSECTIONVIEWSTYLE
  2
AcDbSectionViewStyle
  3
ObjectDBX Classes
 90
1025
 91
0
280
0
281
0
  0
CLASS
  1
RASTERVARIABLES
  2
AcDbRasterVariables
  3
ISM
 90
0
 91
0
280
0
281
0
  0
CLASS
  1
LAYOUT
  2
AcDbLayout
  3
ObjectDBX Classes
 90
0
 91
0
280
0
281
0
  0
CLASS
  1
ACDBPLACEHOLDER
  2
AcDbPlaceHolder
  3
ObjectDBX Classes
 90
0
 91
0
280
0
281
0
  0
ENDSEC
  0
SECTION
  2
TABLES
  0
TABLE
  2
VPORT
  5
8
330
0
100
AcDbSymbolTable
 70
1
  0
VPORT
  5
23
330
8
100
AcDbSymbolTableRecord
100
AcDbViewportTableRecord
  2
*Active
 70
0
 10
0.0
 20
0.0
 11
1.0
 21
1.0
 12
0.0
 22
0.0
 13
0.0
 23
0.0
 14
0.5
 24
0.5
 15
0.5
 25
0.5
 16
0.0
 26
0.0
 36
1.0
 17
0.0
 27
0.0
 37
0.0
 40
1000.0
 41
1.34
 42
50.0
 43
0.0
 44
0.0
 50
0.0
 51
0.0
 71
0
 72
1000
 73
1
 74
3
 75
0
 76
0
 77
0
 78
0
281
0
 65
0
146
0.0
  0
ENDTAB
  0
TABLE
  2
LTYPE
  5
2
330
0
100
AcDbSymbolTable
 70
3
  0
LTYPE
  5
24
330
2
100
AcDbSymbolTableRecord
100
AcDbLinetypeTableRecord
  2
ByBlock
 70
0
  3

 72
65
 73
0
 40
0.0
  0
LTYPE
  5
25
330
2
100
AcDbSymbolTableRecord
100
AcDbLinetypeTableRecord
  2
ByLayer
 70
0
  3

 72
65
 73
0
 40
0.0
  0
LTYPE
  5
26
330
2
100
AcDbSymbolTableRecord
100
AcDbLinetypeTableRecord
  2
Continuous
 70
0
  3

 72
65
 73
0
 40
0.0
  0
ENDTAB
  0
TABLE
  2
LAYER
  5
1
330
0
100
AcDbSymbolTable
 70
11
  0
LAYER
  5
27
330
1
100
AcDbSymbolTableRecord
100
AcDbLayerTableRecord
  2
0
 70
0
 62
7
  6
Continuous
370
-3
390
13
347
21
  0
LAYER
  5
28
330
1
100
AcDbSymbolTableRecord
100
AcDbLayerTableRecord
  2
Defpoints
 70
0
 62
7
  6
Continuous
290
0
370
-3
390
13
347
21
  0
LAYER
  5
2F
330
1
100
AcDbSymbolTableRecord
100
AcDbLayerTableRecord
  2
OUTLINE
 70
0
 62
7
  6
Continuous
370
-3
390
13
347
21
  0
LAYER
  5
30
330
1
100
AcDbSymbolTableRecord
100
AcDbLayerTableRecord
  2
BEND_LINES
 70
0
 62
1
  6
Continuous
370
-3
390
13
347
21
  0
LAYER
  5
31
330
1
100
AcDbSymbolTableRecord
100
AcDbLayerTableRecord
  2
CUTOUTS
 70
0
 62
3
  6
Continuous
370
-3
390
13
347
21
  0
LAYER
  5
32
330
1
100
AcDbSymbolTableRecord
100
AcDbLayerTableRecord
  2
HOLES
 70
0
 62
4
  6
Continuous
370
-3
390
13
347
21
  0
LAYER
  5
33
330
1
100
AcDbSymbolTableRecord
100
AcDbLayerTableRecord
  2
NOTCHES
 70
0
 62
6
  6
Continuous
370
-3
390
13
347
21
  0
LAYER
  5
34
330
1
100
AcDbSymbolTableRecord
100
AcDbLayerTableRecord
  2
CHANNELS
 70
0
 62
5
  6
Continuous
370
-3
390
13
347
21
  0
LAYER
  5
35
330
1
100
AcDbSymbolTableRecord
100
AcDbLayerTableRecord
  2
SHEETS_1_5
 70
0
 62
4
  6
Continuous
370
-3
390
13
347
21
  0
LAYER
  5
36
330
1
100
AcDbSymbolTableRecord
100
AcDbLayerTableRecord
  2
SHEETS_1_2
 70
0
 62
3
  6
Continuous
370
-3
390
13
347
21
  0
LAYER
  5
37
330
1
100
AcDbSymbolTableRecord
100
AcDbLayerTableRecord
  2
TEXT
 70
0
 62
2
  6
Continuous
370
-3
390
13
347
21
  0
ENDTAB
  0
TABLE
  2
STYLE
  5
5
330
0
100
AcDbSymbolTable
 70
1
  0
STYLE
  5
29
330
5
100
AcDbSymbolTableRecord
100
AcDbTextStyleTableRecord
  2
Standard
 70
0
 40
0.0
 41
1.0
 50
0.0
 71
0
 42
2.5
  3
txt
  4

  0
ENDTAB
  0
TABLE
  2
VIEW
  5
7
330
0
100
AcDbSymbolTable
 70
0
  0
ENDTAB
  0
TABLE
  2
UCS
  5
6
330
0
100
AcDbSymbolTable
 70
0
  0
ENDTAB
  0
TABLE
  2
APPID
  5
3
330
0
100
AcDbSymbolTable
 70
3
  0
APPID
  5
2A
330
3
100
AcDbSymbolTableRecord
100
AcDbRegAppTableRecord
  2
ACAD
 70
0
  0
APPID
  5
22A
330
3
100
AcDbSymbolTableRecord
100
AcDbRegAppTableRecord
  2
HATCHBACKGROUNDCOLOR
 70
0
  0
APPID
  5
22B
330
3
100
AcDbSymbolTableRecord
100
AcDbRegAppTableRecord
  2
EZDXF
 70
0
  0
ENDTAB
  0
TABLE
  2
DIMSTYLE
  5
4
330
0
100
AcDbSymbolTable
 70
1
100
AcDbDimStyleTable
  0
DIMSTYLE
105
2B
330
4
100
AcDbSymbolTableRecord
100
AcDbDimStyleTableRecord
  2
Standard
 70
0
 40
1.0
 41
2.5
 42
0.625
 43
3.75
 44
1.25
 45
0.0
 46
0.0
 47
0.0
 48
0.0
 49
2.5
140
2.5
141
2.5
142
0.0
143
0.03937007874
144
1.0
145
0.0
146
1.0
147
0.625
148
0.0
 69
0
 70
0
 71
0
 72
0
 73
0
 74
0
 75
0
 76
0
 77
1
 78
8
 79
3
170
0
171
3
172
1
173
0
174
0
175
0
176
0
177
0
178
0
179
2
271
2
272
2
273
2
274
3
275
0
276
0
277
2
278
44
279
0
280
0
281
0
282
0
283
0
284
8
285
0
286
0
288
0
289
3
290
0
371
-2
372
-2
  0
ENDTAB
  0
TABLE
  2
BLOCK_RECORD
  5
9
330
0
100
AcDbSymbolTable
 70
12
  0
BLOCK_RECORD
  5
17
330
9
100
AcDbSymbolTableRecord
100
AcDbBlockTableRecord
  2
*Model_Space
340
1A
 70
0
280
1
281
0
  0
BLOCK_RECORD
  5
1B
330
9
100
AcDbSymbolTableRecord
100
AcDbBlockTableRecord
  2
*Paper_Space
340
1E
 70
0
280
1
281
0
  0
BLOCK_RECORD
  5
38
330
9
100
AcDbSymbolTableRecord
100
AcDbBlockTableRecord
  2
B_A1_HINGE_POST
340
0
 70
0
280
1
281
0
  0
BLOCK_RECORD
  5
88
330
9
100
AcDbSymbolTableRecord
100
AcDbBlockTableRecord
  2
B_A1_LOCK_POST
340
0
 70
0
280
1
281
0
  0
BLOCK_RECORD
  5
D3
330
9
100
AcDbSymbolTableRecord
100
AcDbBlockTableRecord
  2
B_A1_HEADER
340
0
 70
0
280
1
281
0
  0
BLOCK_RECORD
  5
EF
330
9
100
AcDbSymbolTableRecord
100
AcDbBlockTableRecord
  2
B_A1_LEAF1
340
0
 70
0
280
1
281
0
  0
BLOCK_RECORD
  5
10A
330
9
100
AcDbSymbolTableRecord
100
AcDbBlockTableRecord
  2
B_A1_LEAF2
340
0
 70
0
280
1
281
0
  0
BLOCK_RECORD
  5
121
330
9
100
AcDbSymbolTableRecord
100
AcDbBlockTableRecord
  2
B_A2_HINGE_POST
340
0
 70
0
280
1
281
0
  0
BLOCK_RECORD
  5
171
330
9
100
AcDbSymbolTableRecord
100
AcDbBlockTableRecord
  2
B_A2_LOCK_POST
340
0
 70
0
280
1
281
0
  0
BLOCK_RECORD
  5
1BC
330
9
100
AcDbSymbolTableRecord
100
AcDbBlockTableRecord
  2
B_A2_HEADER
340
0
 70
0
280
1
281
0
  0
BLOCK_RECORD
  5
1D8
330
9
100
AcDbSymbolTableRecord
100
AcDbBlockTableRecord
  2
B_A2_LEAF1
340
0
 70
0
280
1
281
0
  0
BLOCK_RECORD
  5
1F3
330
9
100
AcDbSymbolTableRecord
100
AcDbBlockTableRecord
  2
B_A2_LEAF2
340
0
 70
0
280
1
281
0
  0
ENDTAB
  0
ENDSEC
  0
SECTION
  2
BLOCKS
  0
BLOCK
  5
18
330
17
100
AcDbEntity
  8
0
100
AcDbBlockBegin
  2
*Model_Space
 70
0
 10
0.0
 20
0.0
 30
0.0
  3
*Model_Space
  1

  0
ENDBLK
  5
19
330
17
100
AcDbEntity
  8
0
100
AcDbBlockEnd
  0
BLOCK
  5
1C
330
1B
100
AcDbEntity
  8
0
100
AcDbBlockBegin
  2
*Paper_Space
 70
0
 10
0.0
 20
0.0
 30
0.0
  3
*Paper_Space
  1

  0
ENDBLK
  5
1D
330
1B
100
AcDbEntity
  8
0
100
AcDbBlockEnd
  0
BLOCK
  5
39
330
38
100
AcDbEntity
  8
0
100
AcDbBlockBegin
  2
B_A1_HINGE_POST
 70
0
 10
0.0
 20
0.0
 30
0.0
  3
B_A1_HINGE_POST
  1

  0
LWPOLYLINE
  5
3B
330
38
100
AcDbEntity
  8
OUTLINE
100
AcDbPolyline
 90
44
 70
1
 10
141.6687240237369
 20
1941.0
 10
137.1687240237369
 20
1945.5
 10
134.03498535184156
 20
1947.0
 10
126.5349853518419
 20
1947.0
 10
123.40124667971384
 20
1950.0
 10
114.90124667971361
 20
1958.5
 10
111.7675080078186
 20
1960.0
 10
99.76750800781895
 20
1960.0
 10
99.76750800781895
 20
1969.0
 10
96.7675080078186
 20
1972.0
 10
92.76750800781895
 20
1972.0
 10
89.7675080078186
 20
1969.0
 10
89.7675080078186
 20
1960.0
 10
74.2675080078186
 20
1960.0
 10
74.2675080078186
 20
1969.0
 10
71.26750800781895
 20
1972.0
 10
67.2675080078186
 20
1972.0
 10
64.26750800781872
 20
1969.0
 10
64.26750800781872
 20
1960.0
 10
52.267508007818606
 20
1960.0
 10
49.13376933569066
 20
1963.0
 10
15.133769336156433
 20
1997.0
 10
12.000030663795428
 20
1998.5
 10
0.0
 20
1998.5
 10
0.0
 20
0.0
 10
310.9362400395322
 20
0.0
 10
310.93624003976527
 20
1998.5
 10
298.93624003953335
 20
1998.5
 10
295.8025013676373
 20
1997.0
 10
239.80250136763732
 20
1941.0
 10
236.66876269550914
 20
1938.0
 10
224.6687626957422
 20
1938.0
 10
224.6687626957422
 20
1947.0
 10
221.6687626957422
 20
1950.0
 10
217.6687626957422
 20
1950.0
 10
214.6687626957422
 20
1947.0
 10
214.6687626957422
 20
1938.0
 10
166.80246269563224
 20
1938.0
 10
166.80246269563224
 20
1947.0
 10
163.80246269563202
 20
1950.0
 10
159.8024626956319
 20
1950.0
 10
156.8024626956319
 20
1947.0
 10
156.8024626956319
 20
1938.0
 10
144.8024626956319
 20
1938.0
  0
LWPOLYLINE
  5
3C
330
38
100
AcDbEntity
  8
CUTOUTS
100
AcDbPolyline
 90
4
 70
1
 10
48.9
 20
150.0
 10
79.4
 20
150.0
 10
79.4
 20
252.0
 10
48.9
 20
252.0
  0
LWPOLYLINE
  5
3D
330
38
100
AcDbEntity
  8
CUTOUTS
100
AcDbPolyline
 90
4
 70
1
 10
48.9
 20
828.0
 10
79.4
 20
828.0
 10
79.4
 20
930.0
 10
48.9
 20
930.0
  0
LWPOLYLINE
  5
3E
330
38
100
AcDbEntity
  8
CUTOUTS
100
AcDbPolyline
 90
4
 70
1
 10
48.9
 20
1506.0
 10
79.4
 20
1506.0
 10
79.4
 20
1608.0
 10
48.9
 20
1608.0
  0
LWPOLYLINE
  5
3F
330
38
100
AcDbEntity
  8
CUTOUTS
100
AcDbPolyline
 90
4
 70
1
 10
48.9
 20
1708.0
 10
79.4
 20
1708.0
 10
79.4
 20
1810.0
 10
48.9
 20
1810.0
  0
CIRCLE
  5
40
330
38
100
AcDbEntity
  8
HOLES
100
AcDbCircle
 10
72.26
 20
1417.5
 30
0.0
 40
2.0
  0
CIRCLE
  5
41
330
38
100
AcDbEntity
  8
HOLES
100
AcDbCircle
 10
72.26
 20
1347.5
 30
0.0
 40
2.0
  0
CIRCLE
  5
42
330
38
100
AcDbEntity
  8
HOLES
100
AcDbCircle
 10
190.73000000000002
 20
150.0
 30
0.0
 40
3.25
  0
CIRCLE
  5
43
330
38
100
AcDbEntity
  8
HOLES
100
AcDbCircle
 10
190.73000000000002
 20
696.0
 30
0.0
 40
3.25
  0
CIRCLE
  5
44
330
38
100
AcDbEntity
  8
HOLES
100
AcDbCircle
 10
190.73000000000002
 20
1242.0
 30
0.0
 40
3.25
  0
CIRCLE
  5
45
330
38
100
AcDbEntity
  8
HOLES
100
AcDbCircle
 10
190.73000000000002
 20
1788.0
 30
0.0
 40
3.25
  0
LINE
  5
46
330
38
100
AcDbEntity
  8
NOTCHES
100
AcDbLine
 10
143.23559335968446
 20
3.0
 30
0.0
 11
143.23559335968446
 21
0.0
 31
0.0
  0
LINE
  5
47
330
38
100
AcDbEntity
  8
NOTCHES
100
AcDbLine
 10
238.23563203169022
 20
3.0
 30
0.0
 11
238.23563203169022
 21
0.0
 31
0.0
  0
LINE
  5
48
330
38
100
AcDbEntity
  8
NOTCHES
100
AcDbLine
 10
135.6018546875565
 20
3.0
 30
0.0
 11
135.6018546875565
 21
0.0
 31
0.0
  0
LINE
  5
49
330
38
100
AcDbEntity
  8
NOTCHES
100
AcDbLine
 10
50.700638671870934
 20
3.0
 30
0.0
 11
50.700638671870934
 21
0.0
 31
0.0
  0
LINE
  5
4A
330
38
100
AcDbEntity
  8
NOTCHES
100
AcDbLine
 10
297.36937070358533
 20
3.0
 30
0.0
 11
297.36937070358533
 21
0.0
 31
0.0
  0
LINE
  5
4B
330
38
100
AcDbEntity
  8
NOTCHES
100
AcDbLine
 10
13.56689999997593
 20
3.0
 30
0.0
 11
13.56689999997593
 21
0.0
 31
0.0
  0
LINE
  5
4C
330
38
100
AcDbEntity
  8
NOTCHES
100
AcDbLine
 10
124.96811601566117
 20
1.0
 30
0.0
 11
124.96811601566117
 21
0.0
 31
0.0
  0
LINE
  5
4D
330
38
100
AcDbEntity
  8
NOTCHES
100
AcDbLine
 10
113.3343773437665
 20
1.047160253394394
 30
0.0
 11
113.3343773437665
 21
0.0471602533943951
 31
0.0
  0
LINE
  5
4E
330
38
100
AcDbEntity
  8
NOTCHES
100
AcDbLine
 10
50.700638671870934
 20
1961.5
 30
0.0
 11
50.700638671870934
 21
1958.5
 31
0.0
  0
LINE
  5
4F
330
38
100
AcDbEntity
  8
NOTCHES
100
AcDbLine
 10
113.3343773437665
 20
1959.25
 30
0.0
 11
113.3343773437665
 21
1958.25
 31
0.0
  0
LINE
  5
50
330
38
100
AcDbEntity
  8
NOTCHES
100
AcDbLine
 10
124.96811601566117
 20
1948.5
 30
0.0
 11
124.96811601566117
 21
1947.5
 31
0.0
  0
LINE
  5
51
330
38
100
AcDbEntity
  8
NOTCHES
100
AcDbLine
 10
135.6018546875565
 20
1946.25
 30
0.0
 11
135.6018546875565
 21
1943.25
 31
0.0
  0
LINE
  5
52
330
38
100
AcDbEntity
  8
NOTCHES
100
AcDbLine
 10
143.23559335968446
 20
1939.5
 30
0.0
 11
143.23559335968446
 21
1936.5
 31
0.0
  0
LINE
  5
53
330
38
100
AcDbEntity
  8
NOTCHES
100
AcDbLine
 10
238.23563203169022
 20
1939.5
 30
0.0
 11
238.23563203169022
 21
1936.5
 31
0.0
  0
LINE
  5
54
330
38
100
AcDbEntity
  8
NOTCHES
100
AcDbLine
 10
297.36937070358533
 20
1997.75
 30
0.0
 11
297.36937070358533
 21
1994.75
 31
0.0
  0
LINE
  5
55
330
38
100
AcDbEntity
  8
NOTCHES
100
AcDbLine
 10
13.56689999997593
 20
1997.75
 30
0.0
 11
13.56689999997593
 21
1994.75
 31
0.0
  0
LINE
  5
56
330
38
100
AcDbEntity
  8
NOTCHES
100
AcDbLine
 10
143.23559335968446
 20
3.0
 30
0.0
 11
143.23559335968446
 21
0.0
 31
0.0
  0
LINE
  5
57
330
38
100
AcDbEntity
  8
NOTCHES
100
AcDbLine
 10
238.23563203169022
 20
3.0
 30
0.0
 11
238.23563203169022
 21
0.0
 31
0.0
  0
LINE
  5
58
330
38
100
AcDbEntity
  8
NOTCHES
100
AcDbLine
 10
135.6018546875565
 20
3.0
 30
0.0
 11
135.6018546875565
 21
0.0
 31
0.0
  0
LINE
  5
59
330
38
100
AcDbEntity
  8
NOTCHES
100
AcDbLine
 10
50.700638671870934
 20
3.0
 30
0.0
 11
50.700638671870934
 21
0.0
 31
0.0
  0
LINE
  5
5A
330
38
100
AcDbEntity
  8
NOTCHES
100
AcDbLine
 10
297.36937070358533
 20
3.0
 30
0.0
 11
297.36937070358533
 21
0.0
 31
0.0
  0
LINE
  5
5B
330
38
100
AcDbEntity
  8
NOTCHES
100
AcDbLine
 10
13.56689999997593
 20
3.0
 30
0.0
 11
13.56689999997593
 21
0.0
 31
0.0
  0
LINE
  5
5C
330
38
100
AcDbEntity
  8
NOTCHES
100
AcDbLine
 10
124.96811601566117
 20
1.0
 30
0.0
 11
124.96811601566117
 21
0.0
 31
0.0
  0
LINE
  5
5D
330
38
100
AcDbEntity
  8
NOTCHES
100
AcDbLine
 10
113.3343773437665
 20
1.047160253394394
 30
0.0
 11
113.3343773437665
 21
0.0471602533943951
 31
0.0
  0
LINE
  5
5E
330
38
100
AcDbEntity
  8
NOTCHES
100
AcDbLine
 10
50.700638671870934
 20
1961.5
 30
0.0
 11
50.700638671870934
 21
1958.5
 31
0.0
  0
LINE
  5
5F
330
38
100
AcDbEntity
  8
NOTCHES
100
AcDbLine
 10
113.3343773437665
 20
1959.25
 30
0.0
 11
113.3343773437665
 21
1958.25
 31
0.0
  0
LINE
  5
60
330
38
100
AcDbEntity
  8
NOTCHES
100
AcDbLine
 10
124.96811601566117
 20
1948.5
 30
0.0
 11
124.96811601566117
 21
1947.5
 31
0.0
  0
LINE
  5
61
330
38
100
AcDbEntity
  8
NOTCHES
100
AcDbLine
 10
135.6018546875565
 20
1946.25
 30
0.0
 11
135.6018546875565
 21
1943.25
 31
0.0
  0
LINE
  5
62
330
38
100
AcDbEntity
  8
NOTCHES
100
AcDbLine
 10
143.23559335968446
 20
1939.5
 30
0.0
 11
143.23559335968446
 21
1936.5
 31
0.0
  0
LINE
  5
63
330
38
100
AcDbEntity
  8
NOTCHES
100
AcDbLine
 10
238.23563203169022
 20
1939.5
 30
0.0
 11
238.23563203169022
 21
1936.5
 31
0.0
  0
LINE
  5
64
330
38
100
AcDbEntity
  8
NOTCHES
100
AcDbLine
 10
297.36937070358533
 20
1997.75
 30
0.0
 11
297.36937070358533
 21
1994.75
 31
0.0
  0
LINE
  5
65
330
38
100
AcDbEntity
  8
NOTCHES
100
AcDbLine
 10
13.56689999997593
 20
1997.75
 30
0.0
 11
13.56689999997593
 21
1994.75
 31
0.0
  0
LINE
  5
66
330
38
100
AcDbEntity
  8
NOTCHES
100
AcDbLine
 10
143.23559335968446
 20
3.0
 30
0.0
 11
143.23559335968446
 21
0.0
 31
0.0
  0
LINE
  5
67
330
38
100
AcDbEntity
  8
NOTCHES
100
AcDbLine
 10
238.23563203169022
 20
3.0
 30
0.0
 11
238.23563203169022
 21
0.0
 31
0.0
  0
LINE
  5
68
330
38
100
AcDbEntity
  8
NOTCHES
100
AcDbLine
 10
135.6018546875565
 20
3.0
 30
0.0
 11
135.6018546875565
 21
0.0
 31
0.0
  0
LINE
  5
69
330
38
100
AcDbEntity
  8
NOTCHES
100
AcDbLine
 10
50.700638671870934
 20
3.0
 30
0.0
 11
50.700638671870934
 21
0.0
 31
0.0
  0
LINE
  5
6A
330
38
100
AcDbEntity
  8
NOTCHES
100
AcDbLine
 10
297.36937070358533
 20
3.0
 30
0.0
 11
297.36937070358533
 21
0.0
 31
0.0
  0
LINE
  5
6B
330
38
100
AcDbEntity
  8
NOTCHES
100
AcDbLine
 10
13.56689999997593
 20
3.0
 30
0.0
 11
13.56689999997593
 21
0.0
 31
0.0
  0
LINE
  5
6C
330
38
100
AcDbEntity
  8
NOTCHES
100
AcDbLine
 10
124.96811601566117
 20
1.0
 30
0.0
 11
124.96811601566117
 21
0.0
 31
0.0
  0
LINE
  5
6D
330
38
100
AcDbEntity
  8
NOTCHES
100
AcDbLine
 10
113.3343773437665
 20
1.047160253394394
 30
0.0
 11
113.3343773437665
 21
0.0471602533943951
 31
0.0
  0
LINE
  5
6E
330
38
100
AcDbEntity
  8
NOTCHES
100
AcDbLine
 10
50.700638671870934
 20
1961.5
 30
0.0
 11
50.700638671870934
 21
1958.5
 31
0.0
  0
LINE
  5
6F
330
38
100
AcDbEntity
  8
NOTCHES
100
AcDbLine
 10
113.3343773437665
 20
1959.25
 30
0.0
 11
113.3343773437665
 21
1958.25
 31
0.0
  0
LINE
  5
70
330
38
100
AcDbEntity
  8
NOTCHES
100
AcDbLine
 10
124.96811601566117
 20
1948.5
 30
0.0
 11
124.96811601566117
 21
1947.5
 31
0.0
  0
LINE
  5
71
330
38
100
AcDbEntity
  8
NOTCHES
100
AcDbLine
 10
135.6018546875565
 20
1946.25
 30
0.0
 11
135.6018546875565
 21
1943.25
 31
0.0
  0
LINE
  5
72
330
38
100
AcDbEntity
  8
NOTCHES
100
AcDbLine
 10
143.23559335968446
 20
1939.5
 30
0.0
 11
143.23559335968446
 21
1936.5
 31
0.0
  0
LINE
  5
73
330
38
100
AcDbEntity
  8
NOTCHES
100
AcDbLine
 10
238.23563203169022
 20
1939.5
 30
0.0
 11
238.23563203169022
 21
1936.5
 31
0.0
  0
LINE
  5
74
330
38
100
AcDbEntity
  8
NOTCHES
100
AcDbLine
 10
297.36937070358533
 20
1997.75
 30
0.0
 11
297.36937070358533
 21
1994.75
 31
0.0
  0
LINE
  5
75
330
38
100
AcDbEntity
  8
NOTCHES
100
AcDbLine
 10
13.56689999997593
 20
1997.75
 30
0.0
 11
13.56689999997593
 21
1994.75
 31
0.0
  0
LINE
  5
76
330
38
100
AcDbEntity
  8
NOTCHES
100
AcDbLine
 10
143.23559335968446
 20
3.0
 30
0.0
 11
143.23559335968446
 21
0.0
 31
0.0
  0
LINE
  5
77
330
38
100
AcDbEntity
  8
NOTCHES
100
AcDbLine
 10
238.23563203169022
 20
3.0
 30
0.0
 11
238.23563203169022
 21
0.0
 31
0.0
  0
LINE
  5
78
330
38
100
AcDbEntity
  8
NOTCHES
100
AcDbLine
 10
135.6018546875565
 20
3.0
 30
0.0
 11
135.6018546875565
 21
0.0
 31
0.0
  0
LINE
  5
79
330
38
100
AcDbEntity
  8
NOTCHES
100
AcDbLine
 10
50.700638671870934
 20
3.0
 30
0.0
 11
50.700638671870934
 21
0.0
 31
0.0
  0
LINE
  5
7A
330
38
100
AcDbEntity
  8
NOTCHES
100
AcDbLine
 10
297.36937070358533
 20
3.0
 30
0.0
 11
297.36937070358533
 21
0.0
 31
0.0
  0
LINE
  5
7B
330
38
100
AcDbEntity
  8
NOTCHES
100
AcDbLine
 10
13.56689999997593
 20
3.0
 30
0.0
 11
13.56689999997593
 21
0.0
 31
0.0
  0
LINE
  5
7C
330
38
100
AcDbEntity
  8
NOTCHES
100
AcDbLine
 10
124.96811601566117
 20
1.0
 30
0.0
 11
124.96811601566117
 21
0.0
 31
0.0
  0
LINE
  5
7D
330
38
100
AcDbEntity
  8
NOTCHES
100
AcDbLine
 10
113.3343773437665
 20
1.047160253394394
 30
0.0
 11
113.3343773437665
 21
0.0471602533943951
 31
0.0
  0
LINE
  5
7E
330
38
100
AcDbEntity
  8
NOTCHES
100
AcDbLine
 10
50.700638671870934
 20
1961.5
 30
0.0
 11
50.700638671870934
 21
1958.5
 31
0.0
  0
LINE
  5
7F
330
38
100
AcDbEntity
  8
NOTCHES
100
AcDbLine
 10
113.3343773437665
 20
1959.25
 30
0.0
 11
113.3343773437665
 21
1958.25
 31
0.0
  0
LINE
  5
80
330
38
100
AcDbEntity
  8
NOTCHES
100
AcDbLine
 10
124.96811601566117
 20
1948.5
 30
0.0
 11
124.96811601566117
 21
1947.5
 31
0.0
  0
LINE
  5
81
330
38
100
AcDbEntity
  8
NOTCHES
100
AcDbLine
 10
135.6018546875565
 20
1946.25
 30
0.0
 11
135.6018546875565
 21
1943.25
 31
0.0
  0
LINE
  5
82
330
38
100
AcDbEntity
  8
NOTCHES
100
AcDbLine
 10
143.23559335968446
 20
1939.5
 30
0.0
 11
143.23559335968446
 21
1936.5
 31
0.0
  0
LINE
  5
83
330
38
100
AcDbEntity
  8
NOTCHES
100
AcDbLine
 10
238.23563203169022
 20
1939.5
 30
0.0
 11
238.23563203169022
 21
1936.5
 31
0.0
  0
LINE
  5
84
330
38
100
AcDbEntity
  8
NOTCHES
100
AcDbLine
 10
297.36937070358533
 20
1997.75
 30
0.0
 11
297.36937070358533
 21
1994.75
 31
0.0
  0
LINE
  5
85
330
38
100
AcDbEntity
  8
NOTCHES
100
AcDbLine
 10
13.56689999997593
 20
1997.75
 30
0.0
 11
13.56689999997593
 21
1994.75
 31
0.0
  0
LWPOLYLINE
  5
86
330
38
100
AcDbEntity
  8
NOTCHES
100
AcDbPolyline
 90
4
 70
1
 10
77.63380800792925
 20
6.0
 10
65.63380800792947
 20
6.0
 10
65.63380800792947
 20
4.0
 10
77.63380800792925
 20
4.0
  0
LWPOLYLINE
  5
87
330
38
100
AcDbEntity
  8
NOTCHES
100
AcDbPolyline
 90
4
 70
1
 10
211.30246269539919
 20
11.0
 10
223.30246269539919
 20
11.0
 10
223.30246269539919
 20
9.0
 10
211.30246269539919
 20
9.0
  0
ENDBLK
  5
3A
330
38
100
AcDbEntity
  8
0
100
AcDbBlockEnd
  0
BLOCK
  5
89
330
88
100
AcDbEntity
  8
0
100
AcDbBlockBegin
  2
B_A1_LOCK_POST
 70
0
 10
0.0
 20
0.0
 30
0.0
  3
B_A1_LOCK_POST
  1

  0
LWPOLYLINE
  5
8B
330
88
100
AcDbEntity
  8
OUTLINE
100
AcDbPolyline
 90
44
 70
1
 10
169.26751601602882
 20
1941.0
 10
173.7675160160279
 20
1945.5
 10
176.90125468792394
 20
1947.0
 10
184.40125468792394
 20
1947.0
 10
187.53499335981883
 20
1950.0
 10
196.03499335981883
 20
1958.5
 10
199.16873203171394
 20
1960.0
 10
211.16873203171394
 20
1960.0
 10
211.16873203171394
 20
1969.0
 10
214.16873203171394
 20
1972.0
 10
218.16873203171394
 20
1972.0
 10
221.16873203171394
 20
1969.0
 10
221.16873203171394
 20
1960.0
 10
236.66873203171394
 20
1960.0
 10
236.66873203171394
 20
1969.0
 10
239.66873203171394
 20
1972.0
 10
243.66873203171394
 20
1972.0
 10
246.66873203171394
 20
1969.0
 10
246.66873203171394
 20
1960.0
 10
258.66873203171394
 20
1960.0
 10
261.80247070360883
 20
1963.0
 10
295.80247070360883
 20
1997.0
 10
298.9362093755028
 20
1998.5
 10
310.936240039533
 20
1998.5
 10
310.9362400397649
 20
0.0
 10
0.0
 20
0.0
 10
0.0
 20
1998.5
 10
12.0
 20
1998.5
 10
15.13373867189489
 20
1997.0
 10
71.13373867189489
 20
1941.0
 10
74.26747734379
 20
1938.0
 10
86.26747734379
 20
1938.0
 10
86.26747734379
 20
1947.0
 10
89.26747734379
 20
1950.0
 10
93.26747734379
 20
1950.0
 10
96.26747734379
 20
1947.0
 10
96.26747734379
 20
1938.0
 10
144.13377734366782
 20
1938.0
 10
144.13377734366782
 20
1947.0
 10
147.13377734366782
 20
1950.0
 10
151.13377734366782
 20
1950.0
 10
154.13377734366782
 20
1947.0
 10
154.13377734366782
 20
1938.0
 10
166.13377734390087
 20
1938.0
  0
LWPOLYLINE
  5
8C
330
88
100
AcDbEntity
  8
CUTOUTS
100
AcDbPolyline
 90
8
 70
1
 10
252.50827847444384
 20
1044.5
 10
252.50827847444384
 20
952.25
 10
228.00827847444384
 20
952.25
 10
228.00827847444384
 20
1122.75
 10
252.50827847444384
 20
1122.75
 10
252.50827847444384
 20
1110.5
 10
260.83560136775395
 20
1110.5
 10
260.83560136775395
 20
1044.5
  0
CIRCLE
  5
8D
330
88
100
AcDbEntity
  8
HOLES
100
AcDbCircle
 10
120.2
 20
150.0
 30
0.0
 40
3.25
  0
CIRCLE
  5
8E
330
88
100
AcDbEntity
  8
HOLES
100
AcDbCircle
 10
120.2
 20
696.0
 30
0.0
 40
3.25
  0
CIRCLE
  5
8F
330
88
100
AcDbEntity
  8
HOLES
100
AcDbCircle
 10
120.2
 20
1242.0
 30
0.0
 40
3.25
  0
CIRCLE
  5
90
330
88
100
AcDbEntity
  8
HOLES
100
AcDbCircle
 10
120.2
 20
1788.0
 30
0.0
 40
3.25
  0
LINE
  5
91
330
88
100
AcDbEntity
  8
NOTCHES
100
AcDbLine
 10
167.70064667984798
 20
3.0
 30
0.0
 11
167.70064667984798
 21
0.0
 31
0.0
  0
LINE
  5
92
330
88
100
AcDbEntity
  8
NOTCHES
100
AcDbLine
 10
72.70060800807482
 20
3.0
 30
0.0
 11
72.70060800807482
 21
0.0
 31
0.0
  0
LINE
  5
93
330
88
100
AcDbEntity
  8
NOTCHES
100
AcDbLine
 10
175.33438535174287
 20
3.0
 30
0.0
 11
175.33438535174287
 21
0.0
 31
0.0
  0
LINE
  5
94
330
88
100
AcDbEntity
  8
NOTCHES
100
AcDbLine
 10
260.2356013678939
 20
3.0
 30
0.0
 11
260.2356013678939
 21
0.0
 31
0.0
  0
LINE
  5
95
330
88
100
AcDbEntity
  8
NOTCHES
100
AcDbLine
 10
13.566869335946876
 20
3.0
 30
0.0
 11
13.566869335946876
 21
0.0
 31
0.0
  0
LINE
  5
96
330
88
100
AcDbEntity
  8
NOTCHES
100
AcDbLine
 10
297.36934003978786
 20
3.0
 30
0.0
 11
297.36934003978786
 21
0.0
 31
0.0
  0
LINE
  5
97
330
88
100
AcDbEntity
  8
NOTCHES
100
AcDbLine
 10
185.9681240238708
 20
1.0
 30
0.0
 11
185.9681240238708
 21
0.0
 31
0.0
  0
LINE
  5
98
330
88
100
AcDbEntity
  8
NOTCHES
100
AcDbLine
 10
197.60186269553378
 20
1.047160253394394
 30
0.0
 11
197.60186269553378
 21
0.0471602533943951
 31
0.0
  0
LINE
  5
99
330
88
100
AcDbEntity
  8
NOTCHES
100
AcDbLine
 10
260.2356013678939
 20
1961.5
 30
0.0
 11
260.2356013678939
 21
1955.5
 31
0.0
  0
LINE
  5
9A
330
88
100
AcDbEntity
  8
NOTCHES
100
AcDbLine
 10
197.60186269553378
 20
1959.25
 30
0.0
 11
197.60186269553378
 21
1958.25
 31
0.0
  0
LINE
  5
9B
330
88
100
AcDbEntity
  8
NOTCHES
100
AcDbLine
 10
185.9681240238708
 20
1948.5
 30
0.0
 11
185.9681240238708
 21
1947.5
 31
0.0
  0
LINE
  5
9C
330
88
100
AcDbEntity
  8
NOTCHES
100
AcDbLine
 10
175.33438535174287
 20
1946.25
 30
0.0
 11
175.33438535174287
 21
1943.25
 31
0.0
  0
LINE
  5
9D
330
88
100
AcDbEntity
  8
NOTCHES
100
AcDbLine
 10
167.70064667984798
 20
1939.5
 30
0.0
 11
167.70064667984798
 21
1936.5
 31
0.0
  0
LINE
  5
9E
330
88
100
AcDbEntity
  8
NOTCHES
100
AcDbLine
 10
72.70060800807482
 20
1939.5
 30
0.0
 11
72.70060800807482
 21
1936.5
 31
0.0
  0
LINE
  5
9F
330
88
100
AcDbEntity
  8
NOTCHES
100
AcDbLine
 10
13.566869335946876
 20
1997.75
 30
0.0
 11
13.566869335946876
 21
1994.75
 31
0.0
  0
LINE
  5
A0
330
88
100
AcDbEntity
  8
NOTCHES
100
AcDbLine
 10
297.36934003978786
 20
1997.75
 30
0.0
 11
297.36934003978786
 21
1994.75
 31
0.0
  0
LINE
  5
A1
330
88
100
AcDbEntity
  8
NOTCHES
100
AcDbLine
 10
167.70064667984798
 20
3.0
 30
0.0
 11
167.70064667984798
 21
0.0
 31
0.0
  0
LINE
  5
A2
330
88
100
AcDbEntity
  8
NOTCHES
100
AcDbLine
 10
72.70060800807482
 20
3.0
 30
0.0
 11
72.70060800807482
 21
0.0
 31
0.0
  0
LINE
  5
A3
330
88
100
AcDbEntity
  8
NOTCHES
100
AcDbLine
 10
175.33438535174287
 20
3.0
 30
0.0
 11
175.33438535174287
 21
0.0
 31
0.0
  0
LINE
  5
A4
330
88
100
AcDbEntity
  8
NOTCHES
100
AcDbLine
 10
260.2356013678939
 20
3.0
 30
0.0
 11
260.2356013678939
 21
0.0
 31
0.0
  0
LINE
  5
A5
330
88
100
AcDbEntity
  8
NOTCHES
100
AcDbLine
 10
13.566869335946876
 20
3.0
 30
0.0
 11
13.566869335946876
 21
0.0
 31
0.0
  0
LINE
  5
A6
330
88
100
AcDbEntity
  8
NOTCHES
100
AcDbLine
 10
297.36934003978786
 20
3.0
 30
0.0
 11
297.36934003978786
 21
0.0
 31
0.0
  0
LINE
  5
A7
330
88
100
AcDbEntity
  8
NOTCHES
100
AcDbLine
 10
185.9681240238708
 20
1.0
 30
0.0
 11
185.9681240238708
 21
0.0
 31
0.0
  0
LINE
  5
A8
330
88
100
AcDbEntity
  8
NOTCHES
100
AcDbLine
 10
197.60186269553378
 20
1.047160253394394
 30
0.0
 11
197.60186269553378
 21
0.0471602533943951
 31
0.0
  0
LINE
  5
A9
330
88
100
AcDbEntity
  8
NOTCHES
100
AcDbLine
 10
260.2356013678939
 20
1961.5
 30
0.0
 11
260.2356013678939
 21
1955.5
 31
0.0
  0
LINE
  5
AA
330
88
100
AcDbEntity
  8
NOTCHES
100
AcDbLine
 10
197.60186269553378
 20
1959.25
 30
0.0
 11
197.60186269553378
 21
1958.25
 31
0.0
  0
LINE
  5
AB
330
88
100
AcDbEntity
  8
NOTCHES
100
AcDbLine
 10
185.9681240238708
 20
1948.5
 30
0.0
 11
185.9681240238708
 21
1947.5
 31
0.0
  0
LINE
  5
AC
330
88
100
AcDbEntity
  8
NOTCHES
100
AcDbLine
 10
175.33438535174287
 20
1946.25
 30
0.0
 11
175.33438535174287
 21
1943.25
 31
0.0
  0
LINE
  5
AD
330
88
100
AcDbEntity
  8
NOTCHES
100
AcDbLine
 10
167.70064667984798
 20
1939.5
 30
0.0
 11
167.70064667984798
 21
1936.5
 31
0.0
  0
LINE
  5
AE
330
88
100
AcDbEntity
  8
NOTCHES
100
AcDbLine
 10
72.70060800807482
 20
1939.5
 30
0.0
 11
72.70060800807482
 21
1936.5
 31
0.0
  0
LINE
  5
AF
330
88
100
AcDbEntity
  8
NOTCHES
100
AcDbLine
 10
13.566869335946876
 20
1997.75
 30
0.0
 11
13.566869335946876
 21
1994.75
 31
0.0
  0
LINE
  5
B0
330
88
100
AcDbEntity
  8
NOTCHES
100
AcDbLine
 10
297.36934003978786
 20
1997.75
 30
0.0
 11
297.36934003978786
 21
1994.75
 31
0.0
  0
LINE
  5
B1
330
88
100
AcDbEntity
  8
NOTCHES
100
AcDbLine
 10
167.70064667984798
 20
3.0
 30
0.0
 11
167.70064667984798
 21
0.0
 31
0.0
  0
LINE
  5
B2
330
88
100
AcDbEntity
  8
NOTCHES
100
AcDbLine
 10
72.70060800807482
 20
3.0
 30
0.0
 11
72.70060800807482
 21
0.0
 31
0.0
  0
LINE
  5
B3
330
88
100
AcDbEntity
  8
NOTCHES
100
AcDbLine
 10
175.33438535174287
 20
3.0
 30
0.0
 11
175.33438535174287
 21
0.0
 31
0.0
  0
LINE
  5
B4
330
88
100
AcDbEntity
  8
NOTCHES
100
AcDbLine
 10
260.2356013678939
 20
3.0
 30
0.0
 11
260.2356013678939
 21
0.0
 31
0.0
  0
LINE
  5
B5
330
88
100
AcDbEntity
  8
NOTCHES
100
AcDbLine
 10
13.566869335946876
 20
3.0
 30
0.0
 11
13.566869335946876
 21
0.0
 31
0.0
  0
LINE
  5
B6
330
88
100
AcDbEntity
  8
NOTCHES
100
AcDbLine
 10
297.36934003978786
 20
3.0
 30
0.0
 11
297.36934003978786
 21
0.0
 31
0.0
  0
LINE
  5
B7
330
88
100
AcDbEntity
  8
NOTCHES
100
AcDbLine
 10
185.9681240238708
 20
1.0
 30
0.0
 11
185.9681240238708
 21
0.0
 31
0.0
  0
LINE
  5
B8
330
88
100
AcDbEntity
  8
NOTCHES
100
AcDbLine
 10
197.60186269553378
 20
1.047160253394394
 30
0.0
 11
197.60186269553378
 21
0.0471602533943951
 31
0.0
  0
LINE
  5
B9
330
88
100
AcDbEntity
  8
NOTCHES
100
AcDbLine
 10
260.2356013678939
 20
1961.5
 30
0.0
 11
260.2356013678939
 21
1955.5
 31
0.0
  0
LINE
  5
BA
330
88
100
AcDbEntity
  8
NOTCHES
100
AcDbLine
 10
197.60186269553378
 20
1959.25
 30
0.0
 11
197.60186269553378
 21
1958.25
 31
0.0
  0
LINE
  5
BB
330
88
100
AcDbEntity
  8
NOTCHES
100
AcDbLine
 10
185.9681240238708
 20
1948.5
 30
0.0
 11
185.9681240238708
 21
1947.5
 31
0.0
  0
LINE
  5
BC
330
88
100
AcDbEntity
  8
NOTCHES
100
AcDbLine
 10
175.33438535174287
 20
1946.25
 30
0.0
 11
175.33438535174287
 21
1943.25
 31
0.0
  0
LINE
  5
BD
330
88
100
AcDbEntity
  8
NOTCHES
100
AcDbLine
 10
167.70064667984798
 20
1939.5
 30
0.0
 11
167.70064667984798
 21
1936.5
 31
0.0
  0
LINE
  5
BE
330
88
100
AcDbEntity
  8
NOTCHES
100
AcDbLine
 10
72.70060800807482
 20
1939.5
 30
0.0
 11
72.70060800807482
 21
1936.5
 31
0.0
  0
LINE
  5
BF
330
88
100
AcDbEntity
  8
NOTCHES
100
AcDbLine
 10
13.566869335946876
 20
1997.75
 30
0.0
 11
13.566869335946876
 21
1994.75
 31
0.0
  0
LINE
  5
C0
330
88
100
AcDbEntity
  8
NOTCHES
100
AcDbLine
 10
297.36934003978786
 20
1997.75
 30
0.0
 11
297.36934003978786
 21
1994.75
 31
0.0
  0
LINE
  5
C1
330
88
100
AcDbEntity
  8
NOTCHES
100
AcDbLine
 10
167.70064667984798
 20
3.0
 30
0.0
 11
167.70064667984798
 21
0.0
 31
0.0
  0
LINE
  5
C2
330
88
100
AcDbEntity
  8
NOTCHES
100
AcDbLine
 10
72.70060800807482
 20
3.0
 30
0.0
 11
72.70060800807482
 21
0.0
 31
0.0
  0
LINE
  5
C3
330
88
100
AcDbEntity
  8
NOTCHES
100
AcDbLine
 10
175.33438535174287
 20
3.0
 30
0.0
 11
175.33438535174287
 21
0.0
 31
0.0
  0
LINE
  5
C4
330
88
100
AcDbEntity
  8
NOTCHES
100
AcDbLine
 10
260.2356013678939
 20
3.0
 30
0.0
 11
260.2356013678939
 21
0.0
 31
0.0
  0
LINE
  5
C5
330
88
100
AcDbEntity
  8
NOTCHES
100
AcDbLine
 10
13.566869335946876
 20
3.0
 30
0.0
 11
13.566869335946876
 21
0.0
 31
0.0
  0
LINE
  5
C6
330
88
100
AcDbEntity
  8
NOTCHES
100
AcDbLine
 10
297.36934003978786
 20
3.0
 30
0.0
 11
297.36934003978786
 21
0.0
 31
0.0
  0
LINE
  5
C7
330
88
100
AcDbEntity
  8
NOTCHES
100
AcDbLine
 10
185.9681240238708
 20
1.0
 30
0.0
 11
185.9681240238708
 21
0.0
 31
0.0
  0
LINE
  5
C8
330
88
100
AcDbEntity
  8
NOTCHES
100
AcDbLine
 10
197.60186269553378
 20
1.047160253394394
 30
0.0
 11
197.60186269553378
 21
0.0471602533943951
 31
0.0
  0
LINE
  5
C9
330
88
100
AcDbEntity
  8
NOTCHES
100
AcDbLine
 10
260.2356013678939
 20
1961.5
 30
0.0
 11
260.2356013678939
 21
1955.5
 31
0.0
  0
LINE
  5
CA
330
88
100
AcDbEntity
  8
NOTCHES
100
AcDbLine
 10
197.60186269553378
 20
1959.25
 30
0.0
 11
197.60186269553378
 21
1958.25
 31
0.0
  0
LINE
  5
CB
330
88
100
AcDbEntity
  8
NOTCHES
100
AcDbLine
 10
185.9681240238708
 20
1948.5
 30
0.0
 11
185.9681240238708
 21
1947.5
 31
0.0
  0
LINE
  5
CC
330
88
100
AcDbEntity
  8
NOTCHES
100
AcDbLine
 10
175.33438535174287
 20
1946.25
 30
0.0
 11
175.33438535174287
 21
1943.25
 31
0.0
  0
LINE
  5
CD
330
88
100
AcDbEntity
  8
NOTCHES
100
AcDbLine
 10
167.70064667984798
 20
1939.5
 30
0.0
 11
167.70064667984798
 21
1936.5
 31
0.0
  0
LINE
  5
CE
330
88
100
AcDbEntity
  8
NOTCHES
100
AcDbLine
 10
72.70060800807482
 20
1939.5
 30
0.0
 11
72.70060800807482
 21
1936.5
 31
0.0
  0
LINE
  5
CF
330
88
100
AcDbEntity
  8
NOTCHES
100
AcDbLine
 10
13.566869335946876
 20
1997.75
 30
0.0
 11
13.566869335946876
 21
1994.75
 31
0.0
  0
LINE
  5
D0
330
88
100
AcDbEntity
  8
NOTCHES
100
AcDbLine
 10
297.36934003978786
 20
1997.75
 30
0.0
 11
297.36934003978786
 21
1994.75
 31
0.0
  0
LWPOLYLINE
  5
D1
330
88
100
AcDbEntity
  8
NOTCHES
100
AcDbPolyline
 90
4
 70
1
 10
233.3024320318359
 20
6.0
 10
245.3024320318359
 20
6.0
 10
245.3024320318359
 20
4.0
 10
233.3024320318359
 20
4.0
  0
LWPOLYLINE
  5
D2
330
88
100
AcDbEntity
  8
NOTCHES
100
AcDbPolyline
 90
4
 70
1
 10
99.6337773441328
 20
11.0
 10
87.6337773441328
 20
11.0
 10
87.6337773441328
 20
9.0
 10
99.6337773441328
 20
9.0
  0
ENDBLK
  5
8A
330
88
100
AcDbEntity
  8
0
100
AcDbBlockEnd
  0
BLOCK
  5
D4
330
D3
100
AcDbEntity
  8
0
100
AcDbBlockBegin
  2
B_A1_HEADER
 70
0
 10
0.0
 20
0.0
 30
0.0
  3
B_A1_HEADER
  1

  0
LWPOLYLINE
  5
D6
330
D3
100
AcDbEntity
  8
OUTLINE
100
AcDbPolyline
 90
44
 70
1
 10
996.9999999999995
 20
310.93620937562036
 10
0.0
 20
310.93620937562036
 10
0.0
 20
298.9362093756213
 10
1.5000000000001137
 20
295.80247070372525
 10
35.500000000000114
 20
261.80247070372525
 10
38.500000000000114
 20
258.6687320317146
 10
28.5
 20
248.6687320317119
 10
28.5
 20
209.1687320317119
 10
38.500000000000114
 20
199.16873203171463
 10
40.000000000000114
 20
196.0349933598195
 10
48.5
 20
187.53499335981678
 10
51.500000000000114
 20
184.40125468780616
 10
51.500000000000114
 20
176.90125468780707
 10
53.0
 20
173.76751601591195
 10
57.499999999999886
 20
169.26751601591195
 10
60.500000000000114
 20
166.13377734390042
 10
50.499999999999886
 20
154.21624141803431
 10
50.499999999999886
 20
84.2674773439062
 10
60.500000000000114
 20
74.26747734390801
 10
57.499999999999886
 20
71.13373867189512
 10
1.5000000000001137
 20
15.133738671894207
 10
0.0
 20
12.0
 10
0.0
 20
0.0
 10
996.9999999999995
 20
0.0
 10
996.9999999999995
 20
12.0
 10
995.4999999999995
 20
15.133738671894207
 10
939.4999999999997
 20
71.13373867189512
 10
936.4999999999997
 20
74.26747734390801
 10
946.4999999999995
 20
84.2674773439062
 10
946.4999999999995
 20
154.21624141803431
 10
936.4999999999997
 20
166.13377734390042
 10
939.4999999999997
 20
169.26751601591195
 10
943.9999999999997
 20
173.76751601591195
 10
945.4999999999997
 20
176.90125468780707
 10
945.4999999999997
 20
184.40125468780616
 10
948.4999999999995
 20
187.53499335981678
 10
956.9999999999995
 20
196.0349933598195
 10
958.4999999999995
 20
199.16873203171463
 10
968.4999999999995
 20
209.1687320317119
 10
968.4999999999995
 20
248.6687320317119
 10
958.4999999999995
 20
258.6687320317146
 10
961.4999999999995
 20
261.80247070372525
 10
995.4999999999995
 20
295.80247070372525
 10
996.9999999999995
 20
298.9362093756213
  0
LWPOLYLINE
  5
D7
330
D3
100
AcDbEntity
  8
CUTOUTS
100
AcDbPolyline
 90
4
 70
1
 10
958.2499999999995
 20
210.16873203183013
 10
960.2499999999995
 20
210.16873203183013
 10
960.2499999999995
 20
222.16873203183013
 10
958.2499999999995
 20
222.16873203183013
  0
LWPOLYLINE
  5
D8
330
D3
100
AcDbEntity
  8
CUTOUTS
100
AcDbPolyline
 90
4
 70
1
 10
958.2499999999995
 20
235.6687320317119
 10
960.2499999999995
 20
235.6687320317119
 10
960.2499999999995
 20
247.6687320317119
 10
958.2499999999995
 20
247.6687320317119
  0
LWPOLYLINE
  5
D9
330
D3
100
AcDbEntity
  8
CUTOUTS
100
AcDbPolyline
 90
4
 70
1
 10
936.2499999999997
 20
85.2674773439062
 10
938.2499999999997
 20
85.2674773439062
 10
938.2499999999997
 20
97.2674773439062
 10
936.2499999999997
 20
97.2674773439062
  0
LWPOLYLINE
  5
DA
330
D3
100
AcDbEntity
  8
CUTOUTS
100
AcDbPolyline
 90
4
 70
1
 10
936.2499999999997
 20
143.13377734390042
 10
938.2499999999997
 20
143.13377734390042
 10
938.2499999999997
 20
155.13377734390042
 10
936.2499999999997
 20
155.13377734390042
  0
LWPOLYLINE
  5
DB
330
D3
100
AcDbEntity
  8
CUTOUTS
100
AcDbPolyline
 90
4
 70
1
 10
36.750000000000114
 20
210.16873203183013
 10
38.750000000000114
 20
210.16873203183013
 10
38.750000000000114
 20
222.16873203183013
 10
36.750000000000114
 20
222.16873203183013
  0
LWPOLYLINE
  5
DC
330
D3
100
AcDbEntity
  8
CUTOUTS
100
AcDbPolyline
 90
4
 70
1
 10
36.750000000000114
 20
235.6687320317119
 10
38.750000000000114
 20
235.6687320317119
 10
38.750000000000114
 20
247.6687320317119
 10
36.750000000000114
 20
247.6687320317119
  0
LWPOLYLINE
  5
DD
330
D3
100
AcDbEntity
  8
CUTOUTS
100
AcDbPolyline
 90
4
 70
1
 10
58.750000000000114
 20
85.2674773439062
 10
60.750000000000114
 20
85.2674773439062
 10
60.750000000000114
 20
97.2674773439062
 10
58.750000000000114
 20
97.2674773439062
  0
LWPOLYLINE
  5
DE
330
D3
100
AcDbEntity
  8
CUTOUTS
100
AcDbPolyline
 90
4
 70
1
 10
58.750000000000114
 20
143.13377734390042
 10
60.750000000000114
 20
143.13377734390042
 10
60.750000000000114
 20
155.13377734390042
 10
58.750000000000114
 20
155.13377734390042
  0
LINE
  5
DF
330
D3
100
AcDbEntity
  8
NOTCHES
100
AcDbLine
 10
996.2499999999995
 20
297.369340039671
 30
0.0
 11
990.2499999999995
 21
297.369340039671
 31
0.0
  0
LINE
  5
E0
330
D3
100
AcDbEntity
  8
NOTCHES
100
AcDbLine
 10
959.9999999999995
 20
260.2356013676613
 30
0.0
 11
953.9999999999995
 21
260.2356013676613
 31
0.0
  0
LINE
  5
E1
330
D3
100
AcDbEntity
  8
NOTCHES
100
AcDbLine
 10
957.7499999999995
 20
197.60186269564883
 30
0.0
 11
955.7499999999995
 21
197.60186269564883
 31
0.0
  0
LINE
  5
E2
330
D3
100
AcDbEntity
  8
NOTCHES
100
AcDbLine
 10
946.9999999999995
 20
185.9681240237528
 30
0.0
 11
944.9999999999997
 21
185.9681240237528
 31
0.0
  0
LINE
  5
E3
330
D3
100
AcDbEntity
  8
NOTCHES
100
AcDbLine
 10
944.7499999999997
 20
175.33438535174128
 30
0.0
 11
938.7499999999997
 21
175.33438535174128
 31
0.0
  0
LINE
  5
E4
330
D3
100
AcDbEntity
  8
NOTCHES
100
AcDbLine
 10
937.9999999999997
 20
167.7006466798489
 30
0.0
 11
931.9999999999997
 21
167.7006466798489
 31
0.0
  0
LINE
  5
E5
330
D3
100
AcDbEntity
  8
NOTCHES
100
AcDbLine
 10
937.9999999999997
 20
72.70060800784222
 30
0.0
 11
931.9999999999997
 21
72.70060800784222
 31
0.0
  0
LINE
  5
E6
330
D3
100
AcDbEntity
  8
NOTCHES
100
AcDbLine
 10
996.2499999999995
 20
13.566869335947104
 30
0.0
 11
990.2499999999995
 21
13.566869335947104
 31
0.0
  0
LINE
  5
E7
330
D3
100
AcDbEntity
  8
NOTCHES
100
AcDbLine
 10
36.999999999999886
 20
260.2356013676613
 30
0.0
 11
43.000000000000114
 21
260.2356013676613
 31
0.0
  0
LINE
  5
E8
330
D3
100
AcDbEntity
  8
NOTCHES
100
AcDbLine
 10
39.250000000000114
 20
197.60186269564883
 30
0.0
 11
41.250000000000114
 21
197.60186269564883
 31
0.0
  0
LINE
  5
E9
330
D3
100
AcDbEntity
  8
NOTCHES
100
AcDbLine
 10
50.000000000000114
 20
185.9681240237528
 30
0.0
 11
52.000000000000114
 21
185.9681240237528
 31
0.0
  0
LINE
  5
EA
330
D3
100
AcDbEntity
  8
NOTCHES
100
AcDbLine
 10
52.249999999999886
 20
175.33438535174128
 30
0.0
 11
58.250000000000114
 21
175.33438535174128
 31
0.0
  0
LINE
  5
EB
330
D3
100
AcDbEntity
  8
NOTCHES
100
AcDbLine
 10
59.000000000000114
 20
167.7006466798489
 30
0.0
 11
65.00000000000011
 21
167.7006466798489
 31
0.0
  0
LINE
  5
EC
330
D3
100
AcDbEntity
  8
NOTCHES
100
AcDbLine
 10
59.000000000000114
 20
72.70060800784222
 30
0.0
 11
65.00000000000011
 21
72.70060800784222
 31
0.0
  0
LINE
  5
ED
330
D3
100
AcDbEntity
  8
NOTCHES
100
AcDbLine
 10
6.75
 20
297.369340039671
 30
0.0
 11
0.75
 21
297.369340039671
 31
0.0
  0
LINE
  5
EE
330
D3
100
AcDbEntity
  8
NOTCHES
100
AcDbLine
 10
6.75
 20
13.566869335947104
 30
0.0
 11
0.75
 21
13.566869335947104
 31
0.0
  0
ENDBLK
  5
D5
330
D3
100
AcDbEntity
  8
0
100
AcDbBlockEnd
  0
BLOCK
  5
F0
330
EF
100
AcDbEntity
  8
0
100
AcDbBlockBegin
  2
B_A1_LEAF1
 70
0
 10
0.0
 20
0.0
 30
0.0
  3
B_A1_LEAF1
  1

  0
LWPOLYLINE
  5
F2
330
EF
100
AcDbEntity
  8
OUTLINE
100
AcDbPolyline
 90
4
 70
1
 10
0.0
 20
0.0
 10
1051.93
 20
0.0
 10
1051.93
 20
1950.0
 10
0.0
 20
1950.0
  0
LWPOLYLINE
  5
F3
330
EF
100
AcDbEntity
  8
CUTOUTS
100
AcDbPolyline
 90
4
 70
1
 10
43.6
 20
143.0
 10
73.1
 20
143.0
 10
73.1
 20
245.0
 10
43.6
 20
245.0
  0
LWPOLYLINE
  5
F4
330
EF
100
AcDbEntity
  8
CUTOUTS
100
AcDbPolyline
 90
4
 70
1
 10
43.6
 20
821.0
 10
73.1
 20
821.0
 10
73.1
 20
923.0
 10
43.6
 20
923.0
  0
LWPOLYLINE
  5
F5
330
EF
100
AcDbEntity
  8
CUTOUTS
100
AcDbPolyline
 90
4
 70
1
 10
43.6
 20
1499.0
 10
73.1
 20
1499.0
 10
73.1
 20
1601.0
 10
43.6
 20
1601.0
  0
LWPOLYLINE
  5
F6
330
EF
100
AcDbEntity
  8
CUTOUTS
100
AcDbPolyline
 90
4
 70
1
 10
43.6
 20
1701.0
 10
73.1
 20
1701.0
 10
73.1
 20
1803.0
 10
43.6
 20
1803.0
  0
LWPOLYLINE
  5
F7
330
EF
100
AcDbEntity
  8
CUTOUTS
100
AcDbPolyline
 90
4
 70
1
 10
987.4000000000001
 20
905.8
 10
1011.9000000000001
 20
905.8
 10
1011.9000000000001
 20
1141.1
 10
987.4000000000001
 20
1141.1
  0
CIRCLE
  5
F8
330
EF
100
AcDbEntity
  8
HOLES
100
AcDbCircle
 10
921.96
 20
1043.0
 30
0.0
 40
11.0
  0
CIRCLE
  5
F9
330
EF
100
AcDbEntity
  8
HOLES
100
AcDbCircle
 10
902.96
 20
1043.0
 30
0.0
 40
3.5
  0
CIRCLE
  5
FA
330
EF
100
AcDbEntity
  8
HOLES
100
AcDbCircle
 10
940.96
 20
1043.0
 30
0.0
 40
3.5
  0
LWPOLYLINE
  5
FB
330
EF
100
AcDbEntity
  8
CUTOUTS
100
AcDbPolyline
 90
4
 70
1
 10
914.4599999999999
 20
962.3766424718433
 10
914.4599999999999
 20
950.9233809415823
 42
0.9999999999999998
 10
929.4600000000002
 20
950.9233809415823
 10
929.4600000000002
 20
962.3766424718433
 42
2.539565129295556
  0
LWPOLYLINE
  5
FC
330
EF
100
AcDbEntity
  8
NOTCHES
100
AcDbPolyline
 90
4
 70
1
 10
45.0
 20
0.0
 10
60.0
 20
0.0
 10
60.0
 20
30.0
 10
45.0
 20
30.0
  0
LWPOLYLINE
  5
FD
330
EF
100
AcDbEntity
  8
NOTCHES
100
AcDbPolyline
 90
4
 70
1
 10
991.9000000000001
 20
0.0
 10
1006.9000000000001
 20
0.0
 10
1006.9000000000001
 20
30.0
 10
991.9000000000001
 20
30.0
  0
LINE
  5
FE
330
EF
100
AcDbEntity
  8
NOTCHES
100
AcDbLine
 10
11.74
 20
0.0
 30
0.0
 11
11.74
 21
3.0
 31
0.0
  0
LINE
  5
FF
330
EF
100
AcDbEntity
  8
NOTCHES
100
AcDbLine
 10
11.74
 20
1950.0
 30
0.0
 11
11.74
 21
1947.0
 31
0.0
  0
LINE
  5
100
330
EF
100
AcDbEntity
  8
NOTCHES
100
AcDbLine
 10
33.75
 20
0.0
 30
0.0
 11
33.75
 21
3.0
 31
0.0
  0
LINE
  5
101
330
EF
100
AcDbEntity
  8
NOTCHES
100
AcDbLine
 10
33.75
 20
1950.0
 30
0.0
 11
33.75
 21
1947.0
 31
0.0
  0
LINE
  5
102
330
EF
100
AcDbEntity
  8
NOTCHES
100
AcDbLine
 10
71.26
 20
0.0
 30
0.0
 11
71.26
 21
3.0
 31
0.0
  0
LINE
  5
103
330
EF
100
AcDbEntity
  8
NOTCHES
100
AcDbLine
 10
71.26
 20
1950.0
 30
0.0
 11
71.26
 21
1947.0
 31
0.0
  0
LINE
  5
104
330
EF
100
AcDbEntity
  8
NOTCHES
100
AcDbLine
 10
1040.18
 20
0.0
 30
0.0
 11
1040.18
 21
3.0
 31
0.0
  0
LINE
  5
105
330
EF
100
AcDbEntity
  8
NOTCHES
100
AcDbLine
 10
1040.18
 20
1950.0
 30
0.0
 11
1040.18
 21
1947.0
 31
0.0
  0
LINE
  5
106
330
EF
100
AcDbEntity
  8
NOTCHES
100
AcDbLine
 10
1018.1800000000001
 20
0.0
 30
0.0
 11
1018.1800000000001
 21
3.0
 31
0.0
  0
LINE
  5
107
330
EF
100
AcDbEntity
  8
NOTCHES
100
AcDbLine
 10
1018.1800000000001
 20
1950.0
 30
0.0
 11
1018.1800000000001
 21
1947.0
 31
0.0
  0
LINE
  5
108
330
EF
100
AcDbEntity
  8
NOTCHES
100
AcDbLine
 10
980.6600000000001
 20
0.0
 30
0.0
 11
980.6600000000001
 21
3.0
 31
0.0
  0
LINE
  5
109
330
EF
100
AcDbEntity
  8
NOTCHES
100
AcDbLine
 10
980.6600000000001
 20
1950.0
 30
0.0
 11
980.6600000000001
 21
1947.0
 31
0.0
  0
ENDBLK
  5
F1
330
EF
100
AcDbEntity
  8
0
100
AcDbBlockEnd
  0
BLOCK
  5
10B
330
10A
100
AcDbEntity
  8
0
100
AcDbBlockBegin
  2
B_A1_LEAF2
 70
0
 10
0.0
 20
0.0
 30
0.0
  3
B_A1_LEAF2
  1

  0
LWPOLYLINE
  5
10D
330
10A
100
AcDbEntity
  8
OUTLINE
100
AcDbPolyline
 90
4
 70
1
 10
0.0
 20
0.0
 10
938.81
 20
0.0
 10
938.81
 20
1950.0
 10
0.0
 20
1950.0
  0
CIRCLE
  5
10E
330
10A
100
AcDbEntity
  8
HOLES
100
AcDbCircle
 10
73.6
 20
1043.0
 30
0.0
 40
11.0
  0
CIRCLE
  5
10F
330
10A
100
AcDbEntity
  8
HOLES
100
AcDbCircle
 10
54.599999999999994
 20
1043.0
 30
0.0
 40
3.5
  0
CIRCLE
  5
110
330
10A
100
AcDbEntity
  8
HOLES
100
AcDbCircle
 10
92.6
 20
1043.0
 30
0.0
 40
3.5
  0
LWPOLYLINE
  5
111
330
10A
100
AcDbEntity
  8
CUTOUTS
100
AcDbPolyline
 90
4
 70
1
 10
66.09999999999988
 20
962.3766424718433
 10
66.09999999999988
 20
950.9233809415823
 42
0.9999999999999998
 10
81.10000000000011
 20
950.9233809415823
 10
81.10000000000011
 20
962.3766424718433
 42
2.539565129295556
  0
LINE
  5
112
330
10A
100
AcDbEntity
  8
NOTCHES
100
AcDbLine
 10
16.7
 20
0.0
 30
0.0
 11
16.7
 21
3.0
 31
0.0
  0
LINE
  5
113
330
10A
100
AcDbEntity
  8
NOTCHES
100
AcDbLine
 10
16.7
 20
1950.0
 30
0.0
 11
16.7
 21
1947.0
 31
0.0
  0
LINE
  5
114
330
10A
100
AcDbEntity
  8
NOTCHES
100
AcDbLine
 10
922.1099999999999
 20
0.0
 30
0.0
 11
922.1099999999999
 21
3.0
 31
0.0
  0
LINE
  5
115
330
10A
100
AcDbEntity
  8
NOTCHES
100
AcDbLine
 10
922.1099999999999
 20
1950.0
 30
0.0
 11
922.1099999999999
 21
1947.0
 31
0.0
  0
ENDBLK
  5
10C
330
10A
100
AcDbEntity
  8
0
100
AcDbBlockEnd
  0
BLOCK
  5
122
330
121
100
AcDbEntity
  8
0
100
AcDbBlockBegin
  2
B_A2_HINGE_POST
 70
0
 10
0.0
 20
0.0
 30
0.0
  3
B_A2_HINGE_POST
  1

  0
LWPOLYLINE
  5
124
330
121
100
AcDbEntity
  8
OUTLINE
100
AcDbPolyline
 90
44
 70
1
 10
141.6687240237369
 20
2041.0
 10
137.1687240237369
 20
2045.5
 10
134.03498535184156
 20
2047.0
 10
126.5349853518419
 20
2047.0
 10
123.40124667971384
 20
2050.0
 10
114.90124667971361
 20
2058.5
 10
111.7675080078186
 20
2060.0
 10
99.76750800781895
 20
2060.0
 10
99.76750800781895
 20
2069.0
 10
96.7675080078186
 20
2072.0
 10
92.76750800781895
 20
2072.0
 10
89.7675080078186
 20
2069.0
 10
89.7675080078186
 20
2060.0
 10
74.2675080078186
 20
2060.0
 10
74.2675080078186
 20
2069.0
 10
71.26750800781895
 20
2072.0
 10
67.2675080078186
 20
2072.0
 10
64.26750800781872
 20
2069.0
 10
64.26750800781872
 20
2060.0
 10
52.267508007818606
 20
2060.0
 10
49.13376933569066
 20
2063.0
 10
15.133769336156433
 20
2097.0
 10
12.000030663795428
 20
2098.5
 10
0.0
 20
2098.5
 10
0.0
 20
0.0
 10
330.9362400395322
 20
0.0
 10
330.93624003976527
 20
2098.5
 10
318.93624003953335
 20
2098.5
 10
315.8025013676373
 20
2097.0
 10
259.8025013676373
 20
2041.0
 10
256.66876269550914
 20
2038.0
 10
244.6687626957422
 20
2038.0
 10
244.6687626957422
 20
2047.0
 10
241.6687626957422
 20
2050.0
 10
237.6687626957422
 20
2050.0
 10
234.6687626957422
 20
2047.0
 10
234.6687626957422
 20
2038.0
 10
166.80246269563224
 20
2038.0
 10
166.80246269563224
 20
2047.0
 10
163.80246269563202
 20
2050.0
 10
159.8024626956319
 20
2050.0
 10
156.8024626956319
 20
2047.0
 10
156.8024626956319
 20
2038.0
 10
144.8024626956319
 20
2038.0
  0
LWPOLYLINE
  5
125
330
121
100
AcDbEntity
  8
CUTOUTS
100
AcDbPolyline
 90
4
 70
1
 10
48.9
 20
150.0
 10
79.4
 20
150.0
 10
79.4
 20
252.0
 10
48.9
 20
252.0
  0
LWPOLYLINE
  5
126
330
121
100
AcDbEntity
  8
CUTOUTS
100
AcDbPolyline
 90
4
 70
1
 10
48.9
 20
878.0
 10
79.4
 20
878.0
 10
79.4
 20
980.0
 10
48.9
 20
980.0
  0
LWPOLYLINE
  5
127
330
121
100
AcDbEntity
  8
CUTOUTS
100
AcDbPolyline
 90
4
 70
1
 10
48.9
 20
1606.0
 10
79.4
 20
1606.0
 10
79.4
 20
1708.0
 10
48.9
 20
1708.0
  0
LWPOLYLINE
  5
128
330
121
100
AcDbEntity
  8
CUTOUTS
100
AcDbPolyline
 90
4
 70
1
 10
48.9
 20
1808.0
 10
79.4
 20
1808.0
 10
79.4
 20
1910.0
 10
48.9
 20
1910.0
  0
CIRCLE
  5
129
330
121
100
AcDbEntity
  8
HOLES
100
AcDbCircle
 10
72.26
 20
1517.5
 30
0.0
 40
2.0
  0
CIRCLE
  5
12A
330
121
100
AcDbEntity
  8
HOLES
100
AcDbCircle
 10
72.26
 20
1447.5
 30
0.0
 40
2.0
  0
CIRCLE
  5
12B
330
121
100
AcDbEntity
  8
HOLES
100
AcDbCircle
 10
200.73000000000002
 20
150.0
 30
0.0
 40
3.25
  0
CIRCLE
  5
12C
330
121
100
AcDbEntity
  8
HOLES
100
AcDbCircle
 10
200.73000000000002
 20
729.3333333333334
 30
0.0
 40
3.25
  0
CIRCLE
  5
12D
330
121
100
AcDbEntity
  8
HOLES
100
AcDbCircle
 10
200.73000000000002
 20
1308.6666666666667
 30
0.0
 40
3.25
  0
CIRCLE
  5
12E
330
121
100
AcDbEntity
  8
HOLES
100
AcDbCircle
 10
200.73000000000002
 20
1888.0
 30
0.0
 40
3.25
  0
LINE
  5
12F
330
121
100
AcDbEntity
  8
NOTCHES
100
AcDbLine
 10
143.23559335968446
 20
3.0
 30
0.0
 11
143.23559335968446
 21
0.0
 31
0.0
  0
LINE
  5
130
330
121
100
AcDbEntity
  8
NOTCHES
100
AcDbLine
 10
258.2356320316902
 20
3.0
 30
0.0
 11
258.2356320316902
 21
0.0
 31
0.0
  0
LINE
  5
131
330
121
100
AcDbEntity
  8
NOTCHES
100
AcDbLine
 10
135.6018546875565
 20
3.0
 30
0.0
 11
135.6018546875565
 21
0.0
 31
0.0
  0
LINE
  5
132
330
121
100
AcDbEntity
  8
NOTCHES
100
AcDbLine
 10
50.700638671870934
 20
3.0
 30
0.0
 11
50.700638671870934
 21
0.0
 31
0.0
  0
LINE
  5
133
330
121
100
AcDbEntity
  8
NOTCHES
100
AcDbLine
 10
317.36937070358533
 20
3.0
 30
0.0
 11
317.36937070358533
 21
0.0
 31
0.0
  0
LINE
  5
134
330
121
100
AcDbEntity
  8
NOTCHES
100
AcDbLine
 10
13.56689999997593
 20
3.0
 30
0.0
 11
13.56689999997593
 21
0.0
 31
0.0
  0
LINE
  5
135
330
121
100
AcDbEntity
  8
NOTCHES
100
AcDbLine
 10
124.96811601566117
 20
1.0
 30
0.0
 11
124.96811601566117
 21
0.0
 31
0.0
  0
LINE
  5
136
330
121
100
AcDbEntity
  8
NOTCHES
100
AcDbLine
 10
113.3343773437665
 20
1.047160253394394
 30
0.0
 11
113.3343773437665
 21
0.0471602533943951
 31
0.0
  0
LINE
  5
137
330
121
100
AcDbEntity
  8
NOTCHES
100
AcDbLine
 10
50.700638671870934
 20
2061.5
 30
0.0
 11
50.700638671870934
 21
2058.5
 31
0.0
  0
LINE
  5
138
330
121
100
AcDbEntity
  8
NOTCHES
100
AcDbLine
 10
113.3343773437665
 20
2059.25
 30
0.0
 11
113.3343773437665
 21
2058.25
 31
0.0
  0
LINE
  5
139
330
121
100
AcDbEntity
  8
NOTCHES
100
AcDbLine
 10
124.96811601566117
 20
2048.5
 30
0.0
 11
124.96811601566117
 21
2047.5
 31
0.0
  0
LINE
  5
13A
330
121
100
AcDbEntity
  8
NOTCHES
100
AcDbLine
 10
135.6018546875565
 20
2046.25
 30
0.0
 11
135.6018546875565
 21
2043.25
 31
0.0
  0
LINE
  5
13B
330
121
100
AcDbEntity
  8
NOTCHES
100
AcDbLine
 10
143.23559335968446
 20
2039.5
 30
0.0
 11
143.23559335968446
 21
2036.5
 31
0.0
  0
LINE
  5
13C
330
121
100
AcDbEntity
  8
NOTCHES
100
AcDbLine
 10
258.2356320316902
 20
2039.5
 30
0.0
 11
258.2356320316902
 21
2036.5
 31
0.0
  0
LINE
  5
13D
330
121
100
AcDbEntity
  8
NOTCHES
100
AcDbLine
 10
317.36937070358533
 20
2097.75
 30
0.0
 11
317.36937070358533
 21
2094.75
 31
0.0
  0
LINE
  5
13E
330
121
100
AcDbEntity
  8
NOTCHES
100
AcDbLine
 10
13.56689999997593
 20
2097.75
 30
0.0
 11
13.56689999997593
 21
2094.75
 31
0.0
  0
LINE
  5
13F
330
121
100
AcDbEntity
  8
NOTCHES
100
AcDbLine
 10
143.23559335968446
 20
3.0
 30
0.0
 11
143.23559335968446
 21
0.0
 31
0.0
  0
LINE
  5
140
330
121
100
AcDbEntity
  8
NOTCHES
100
AcDbLine
 10
258.2356320316902
 20
3.0
 30
0.0
 11
258.2356320316902
 21
0.0
 31
0.0
  0
LINE
  5
141
330
121
100
AcDbEntity
  8
NOTCHES
100
AcDbLine
 10
135.6018546875565
 20
3.0
 30
0.0
 11
135.6018546875565
 21
0.0
 31
0.0
  0
LINE
  5
142
330
121
100
AcDbEntity
  8
NOTCHES
100
AcDbLine
 10
50.700638671870934
 20
3.0
 30
0.0
 11
50.700638671870934
 21
0.0
 31
0.0
  0
LINE
  5
143
330
121
100
AcDbEntity
  8
NOTCHES
100
AcDbLine
 10
317.36937070358533
 20
3.0
 30
0.0
 11
317.36937070358533
 21
0.0
 31
0.0
  0
LINE
  5
144
330
121
100
AcDbEntity
  8
NOTCHES
100
AcDbLine
 10
13.56689999997593
 20
3.0
 30
0.0
 11
13.56689999997593
 21
0.0
 31
0.0
  0
LINE
  5
145
330
121
100
AcDbEntity
  8
NOTCHES
100
AcDbLine
 10
124.96811601566117
 20
1.0
 30
0.0
 11
124.96811601566117
 21
0.0
 31
0.0
  0
LINE
  5
146
330
121
100
AcDbEntity
  8
NOTCHES
100
AcDbLine
 10
113.3343773437665
 20
1.047160253394394
 30
0.0
 11
113.3343773437665
 21
0.0471602533943951
 31
0.0
  0
LINE
  5
147
330
121
100
AcDbEntity
  8
NOTCHES
100
AcDbLine
 10
50.700638671870934
 20
2061.5
 30
0.0
 11
50.700638671870934
 21
2058.5
 31
0.0
  0
LINE
  5
148
330
121
100
AcDbEntity
  8
NOTCHES
100
AcDbLine
 10
113.3343773437665
 20
2059.25
 30
0.0
 11
113.3343773437665
 21
2058.25
 31
0.0
  0
LINE
  5
149
330
121
100
AcDbEntity
  8
NOTCHES
100
AcDbLine
 10
124.96811601566117
 20
2048.5
 30
0.0
 11
124.96811601566117
 21
2047.5
 31
0.0
  0
LINE
  5
14A
330
121
100
AcDbEntity
  8
NOTCHES
100
AcDbLine
 10
135.6018546875565
 20
2046.25
 30
0.0
 11
135.6018546875565
 21
2043.25
 31
0.0
  0
LINE
  5
14B
330
121
100
AcDbEntity
  8
NOTCHES
100
AcDbLine
 10
143.23559335968446
 20
2039.5
 30
0.0
 11
143.23559335968446
 21
2036.5
 31
0.0
  0
LINE
  5
14C
330
121
100
AcDbEntity
  8
NOTCHES
100
AcDbLine
 10
258.2356320316902
 20
2039.5
 30
0.0
 11
258.2356320316902
 21
2036.5
 31
0.0
  0
LINE
  5
14D
330
121
100
AcDbEntity
  8
NOTCHES
100
AcDbLine
 10
317.36937070358533
 20
2097.75
 30
0.0
 11
317.36937070358533
 21
2094.75
 31
0.0
  0
LINE
  5
14E
330
121
100
AcDbEntity
  8
NOTCHES
100
AcDbLine
 10
13.56689999997593
 20
2097.75
 30
0.0
 11
13.56689999997593
 21
2094.75
 31
0.0
  0
LINE
  5
14F
330
121
100
AcDbEntity
  8
NOTCHES
100
AcDbLine
 10
143.23559335968446
 20
3.0
 30
0.0
 11
143.23559335968446
 21
0.0
 31
0.0
  0
LINE
  5
150
330
121
100
AcDbEntity
  8
NOTCHES
100
AcDbLine
 10
258.2356320316902
 20
3.0
 30
0.0
 11
258.2356320316902
 21
0.0
 31
0.0
  0
LINE
  5
151
330
121
100
AcDbEntity
  8
NOTCHES
100
AcDbLine
 10
135.6018546875565
 20
3.0
 30
0.0
 11
135.6018546875565
 21
0.0
 31
0.0
  0
LINE
  5
152
330
121
100
AcDbEntity
  8
NOTCHES
100
AcDbLine
 10
50.700638671870934
 20
3.0
 30
0.0
 11
50.700638671870934
 21
0.0
 31
0.0
  0
LINE
  5
153
330
121
100
AcDbEntity
  8
NOTCHES
100
AcDbLine
 10
317.36937070358533
 20
3.0
 30
0.0
 11
317.36937070358533
 21
0.0
 31
0.0
  0
LINE
  5
154
330
121
100
AcDbEntity
  8
NOTCHES
100
AcDbLine
 10
13.56689999997593
 20
3.0
 30
0.0
 11
13.56689999997593
 21
0.0
 31
0.0
  0
LINE
  5
155
330
121
100
AcDbEntity
  8
NOTCHES
100
AcDbLine
 10
124.96811601566117
 20
1.0
 30
0.0
 11
124.96811601566117
 21
0.0
 31
0.0
  0
LINE
  5
156
330
121
100
AcDbEntity
  8
NOTCHES
100
AcDbLine
 10
113.3343773437665
 20
1.047160253394394
 30
0.0
 11
113.3343773437665
 21
0.0471602533943951
 31
0.0
  0
LINE
  5
157
330
121
100
AcDbEntity
  8
NOTCHES
100
AcDbLine
 10
50.700638671870934
 20
2061.5
 30
0.0
 11
50.700638671870934
 21
2058.5
 31
0.0
  0
LINE
  5
158
330
121
100
AcDbEntity
  8
NOTCHES
100
AcDbLine
 10
113.3343773437665
 20
2059.25
 30
0.0
 11
113.3343773437665
 21
2058.25
 31
0.0
  0
LINE
  5
159
330
121
100
AcDbEntity
  8
NOTCHES
100
AcDbLine
 10
124.96811601566117
 20
2048.5
 30
0.0
 11
124.96811601566117
 21
2047.5
 31
0.0
  0
LINE
  5
15A
330
121
100
AcDbEntity
  8
NOTCHES
100
AcDbLine
 10
135.6018546875565
 20
2046.25
 30
0.0
 11
135.6018546875565
 21
2043.25
 31
0.0
  0
LINE
  5
15B
330
121
100
AcDbEntity
  8
NOTCHES
100
AcDbLine
 10
143.23559335968446
 20
2039.5
 30
0.0
 11
143.23559335968446
 21
2036.5
 31
0.0
  0
LINE
  5
15C
330
121
100
AcDbEntity
  8
NOTCHES
100
AcDbLine
 10
258.2356320316902
 20
2039.5
 30
0.0
 11
258.2356320316902
 21
2036.5
 31
0.0
  0
LINE
  5
15D
330
121
100
AcDbEntity
  8
NOTCHES
100
AcDbLine
 10
317.36937070358533
 20
2097.75
 30
0.0
 11
317.36937070358533
 21
2094.75
 31
0.0
  0
LINE
  5
15E
330
121
100
AcDbEntity
  8
NOTCHES
100
AcDbLine
 10
13.56689999997593
 20
2097.75
 30
0.0
 11
13.56689999997593
 21
2094.75
 31
0.0
  0
LINE
  5
15F
330
121
100
AcDbEntity
  8
NOTCHES
100
AcDbLine
 10
143.23559335968446
 20
3.0
 30
0.0
 11
143.23559335968446
 21
0.0
 31
0.0
  0
LINE
  5
160
330
121
100
AcDbEntity
  8
NOTCHES
100
AcDbLine
 10
258.2356320316902
 20
3.0
 30
0.0
 11
258.2356320316902
 21
0.0
 31
0.0
  0
LINE
  5
161
330
121
100
AcDbEntity
  8
NOTCHES
100
AcDbLine
 10
135.6018546875565
 20
3.0
 30
0.0
 11
135.6018546875565
 21
0.0
 31
0.0
  0
LINE
  5
162
330
121
100
AcDbEntity
  8
NOTCHES
100
AcDbLine
 10
50.700638671870934
 20
3.0
 30
0.0
 11
50.700638671870934
 21
0.0
 31
0.0
  0
LINE
  5
163
330
121
100
AcDbEntity
  8
NOTCHES
100
AcDbLine
 10
317.36937070358533
 20
3.0
 30
0.0
 11
317.36937070358533
 21
0.0
 31
0.0
  0
LINE
  5
164
330
121
100
AcDbEntity
  8
NOTCHES
100
AcDbLine
 10
13.56689999997593
 20
3.0
 30
0.0
 11
13.56689999997593
 21
0.0
 31
0.0
  0
LINE
  5
165
330
121
100
AcDbEntity
  8
NOTCHES
100
AcDbLine
 10
124.96811601566117
 20
1.0
 30
0.0
 11
124.96811601566117
 21
0.0
 31
0.0
  0
LINE
  5
166
330
121
100
AcDbEntity
  8
NOTCHES
100
AcDbLine
 10
113.3343773437665
 20
1.047160253394394
 30
0.0
 11
113.3343773437665
 21
0.0471602533943951
 31
0.0
  0
LINE
  5
167
330
121
100
AcDbEntity
  8
NOTCHES
100
AcDbLine
 10
50.700638671870934
 20
2061.5
 30
0.0
 11
50.700638671870934
 21
2058.5
 31
0.0
  0
LINE
  5
168
330
121
100
AcDbEntity
  8
NOTCHES
100
AcDbLine
 10
113.3343773437665
 20
2059.25
 30
0.0
 11
113.3343773437665
 21
2058.25
 31
0.0
  0
LINE
  5
169
330
121
100
AcDbEntity
  8
NOTCHES
100
AcDbLine
 10
124.96811601566117
 20
2048.5
 30
0.0
 11
124.96811601566117
 21
2047.5
 31
0.0
  0
LINE
  5
16A
330
121
100
AcDbEntity
  8
NOTCHES
100
AcDbLine
 10
135.6018546875565
 20
2046.25
 30
0.0
 11
135.6018546875565
 21
2043.25
 31
0.0
  0
LINE
  5
16B
330
121
100
AcDbEntity
  8
NOTCHES
100
AcDbLine
 10
143.23559335968446
 20
2039.5
 30
0.0
 11
143.23559335968446
 21
2036.5
 31
0.0
  0
LINE
  5
16C
330
121
100
AcDbEntity
  8
NOTCHES
100
AcDbLine
 10
258.2356320316902
 20
2039.5
 30
0.0
 11
258.2356320316902
 21
2036.5
 31
0.0
  0
LINE
  5
16D
330
121
100
AcDbEntity
  8
NOTCHES
100
AcDbLine
 10
317.36937070358533
 20
2097.75
 30
0.0
 11
317.36937070358533
 21
2094.75
 31
0.0
  0
LINE
  5
16E
330
121
100
AcDbEntity
  8
NOTCHES
100
AcDbLine
 10
13.56689999997593
 20
2097.75
 30
0.0
 11
13.56689999997593
 21
2094.75
 31
0.0
  0
LWPOLYLINE
  5
16F
330
121
100
AcDbEntity
  8
NOTCHES
100
AcDbPolyline
 90
4
 70
1
 10
77.63380800792925
 20
6.0
 10
65.63380800792947
 20
6.0
 10
65.63380800792947
 20
4.0
 10
77.63380800792925
 20
4.0
  0
LWPOLYLINE
  5
170
330
121
100
AcDbEntity
  8
NOTCHES
100
AcDbPolyline
 90
4
 70
1
 10
231.30246269539919
 20
11.0
 10
243.30246269539919
 20
11.0
 10
243.30246269539919
 20
9.0
 10
231.30246269539919
 20
9.0
  0
ENDBLK
  5
123
330
121
100
AcDbEntity
  8
0
100
AcDbBlockEnd
  0
BLOCK
  5
172
330
171
100
AcDbEntity
  8
0
100
AcDbBlockBegin
  2
B_A2_LOCK_POST
 70
0
 10
0.0
 20
0.0
 30
0.0
  3
B_A2_LOCK_POST
  1

  0
LWPOLYLINE
  5
174
330
171
100
AcDbEntity
  8
OUTLINE
100
AcDbPolyline
 90
44
 70
1
 10
189.26751601602882
 20
2041.0
 10
193.7675160160279
 20
2045.5
 10
196.90125468792394
 20
2047.0
 10
204.40125468792394
 20
2047.0
 10
207.53499335981883
 20
2050.0
 10
216.03499335981883
 20
2058.5
 10
219.16873203171394
 20
2060.0
 10
231.16873203171394
 20
2060.0
 10
231.16873203171394
 20
2069.0
 10
234.16873203171394
 20
2072.0
 10
238.16873203171394
 20
2072.0
 10
241.16873203171394
 20
2069.0
 10
241.16873203171394
 20
2060.0
 10
256.66873203171394
 20
2060.0
 10
256.66873203171394
 20
2069.0
 10
259.66873203171394
 20
2072.0
 10
263.66873203171394
 20
2072.0
 10
266.66873203171394
 20
2069.0
 10
266.66873203171394
 20
2060.0
 10
278.66873203171394
 20
2060.0
 10
281.80247070360883
 20
2063.0
 10
315.80247070360883
 20
2097.0
 10
318.9362093755028
 20
2098.5
 10
330.936240039533
 20
2098.5
 10
330.9362400397649
 20
0.0
 10
0.0
 20
0.0
 10
0.0
 20
2098.5
 10
12.0
 20
2098.5
 10
15.13373867189489
 20
2097.0
 10
71.13373867189489
 20
2041.0
 10
74.26747734379
 20
2038.0
 10
86.26747734379
 20
2038.0
 10
86.26747734379
 20
2047.0
 10
89.26747734379
 20
2050.0
 10
93.26747734379
 20
2050.0
 10
96.26747734379
 20
2047.0
 10
96.26747734379
 20
2038.0
 10
164.13377734366782
 20
2038.0
 10
164.13377734366782
 20
2047.0
 10
167.13377734366782
 20
2050.0
 10
171.13377734366782
 20
2050.0
 10
174.13377734366782
 20
2047.0
 10
174.13377734366782
 20
2038.0
 10
186.13377734390087
 20
2038.0
  0
LWPOLYLINE
  5
175
330
171
100
AcDbEntity
  8
CUTOUTS
100
AcDbPolyline
 90
8
 70
1
 10
272.50827847444384
 20
1044.5
 10
272.50827847444384
 20
952.25
 10
248.00827847444384
 20
952.25
 10
248.00827847444384
 20
1122.75
 10
272.50827847444384
 20
1122.75
 10
272.50827847444384
 20
1110.5
 10
280.83560136775395
 20
1110.5
 10
280.83560136775395
 20
1044.5
  0
CIRCLE
  5
176
330
171
100
AcDbEntity
  8
HOLES
100
AcDbCircle
 10
130.2
 20
150.0
 30
0.0
 40
3.25
  0
CIRCLE
  5
177
330
171
100
AcDbEntity
  8
HOLES
100
AcDbCircle
 10
130.2
 20
729.3333333333334
 30
0.0
 40
3.25
  0
CIRCLE
  5
178
330
171
100
AcDbEntity
  8
HOLES
100
AcDbCircle
 10
130.2
 20
1308.6666666666667
 30
0.0
 40
3.25
  0
CIRCLE
  5
179
330
171
100
AcDbEntity
  8
HOLES
100
AcDbCircle
 10
130.2
 20
1888.0
 30
0.0
 40
3.25
  0
LINE
  5
17A
330
171
100
AcDbEntity
  8
NOTCHES
100
AcDbLine
 10
187.70064667984798
 20
3.0
 30
0.0
 11
187.70064667984798
 21
0.0
 31
0.0
  0
LINE
  5
17B
330
171
100
AcDbEntity
  8
NOTCHES
100
AcDbLine
 10
72.70060800807482
 20
3.0
 30
0.0
 11
72.70060800807482
 21
0.0
 31
0.0
  0
LINE
  5
17C
330
171
100
AcDbEntity
  8
NOTCHES
100
AcDbLine
 10
195.33438535174287
 20
3.0
 30
0.0
 11
195.33438535174287
 21
0.0
 31
0.0
  0
LINE
  5
17D
330
171
100
AcDbEntity
  8
NOTCHES
100
AcDbLine
 10
280.2356013678939
 20
3.0
 30
0.0
 11
280.2356013678939
 21
0.0
 31
0.0
  0
LINE
  5
17E
330
171
100
AcDbEntity
  8
NOTCHES
100
AcDbLine
 10
13.566869335946876
 20
3.0
 30
0.0
 11
13.566869335946876
 21
0.0
 31
0.0
  0
LINE
  5
17F
330
171
100
AcDbEntity
  8
NOTCHES
100
AcDbLine
 10
317.36934003978786
 20
3.0
 30
0.0
 11
317.36934003978786
 21
0.0
 31
0.0
  0
LINE
  5
180
330
171
100
AcDbEntity
  8
NOTCHES
100
AcDbLine
 10
205.9681240238708
 20
1.0
 30
0.0
 11
205.9681240238708
 21
0.0
 31
0.0
  0
LINE
  5
181
330
171
100
AcDbEntity
  8
NOTCHES
100
AcDbLine
 10
217.60186269553378
 20
1.047160253394394
 30
0.0
 11
217.60186269553378
 21
0.0471602533943951
 31
0.0
  0
LINE
  5
182
330
171
100
AcDbEntity
  8
NOTCHES
100
AcDbLine
 10
280.2356013678939
 20
2061.5
 30
0.0
 11
280.2356013678939
 21
2055.5
 31
0.0
  0
LINE
  5
183
330
171
100
AcDbEntity
  8
NOTCHES
100
AcDbLine
 10
217.60186269553378
 20
2059.25
 30
0.0
 11
217.60186269553378
 21
2058.25
 31
0.0
  0
LINE
  5
184
330
171
100
AcDbEntity
  8
NOTCHES
100
AcDbLine
 10
205.9681240238708
 20
2048.5
 30
0.0
 11
205.9681240238708
 21
2047.5
 31
0.0
  0
LINE
  5
185
330
171
100
AcDbEntity
  8
NOTCHES
100
AcDbLine
 10
195.33438535174287
 20
2046.25
 30
0.0
 11
195.33438535174287
 21
2043.25
 31
0.0
  0
LINE
  5
186
330
171
100
AcDbEntity
  8
NOTCHES
100
AcDbLine
 10
187.70064667984798
 20
2039.5
 30
0.0
 11
187.70064667984798
 21
2036.5
 31
0.0
  0
LINE
  5
187
330
171
100
AcDbEntity
  8
NOTCHES
100
AcDbLine
 10
72.70060800807482
 20
2039.5
 30
0.0
 11
72.70060800807482
 21
2036.5
 31
0.0
  0
LINE
  5
188
330
171
100
AcDbEntity
  8
NOTCHES
100
AcDbLine
 10
13.566869335946876
 20
2097.75
 30
0.0
 11
13.566869335946876
 21
2094.75
 31
0.0
  0
LINE
  5
189
330
171
100
AcDbEntity
  8
NOTCHES
100
AcDbLine
 10
317.36934003978786
 20
2097.75
 30
0.0
 11
317.36934003978786
 21
2094.75
 31
0.0
  0
LINE
  5
18A
330
171
100
AcDbEntity
  8
NOTCHES
100
AcDbLine
 10
187.70064667984798
 20
3.0
 30
0.0
 11
187.70064667984798
 21
0.0
 31
0.0
  0
LINE
  5
18B
330
171
100
AcDbEntity
  8
NOTCHES
100
AcDbLine
 10
72.70060800807482
 20
3.0
 30
0.0
 11
72.70060800807482
 21
0.0
 31
0.0
  0
LINE
  5
18C
330
171
100
AcDbEntity
  8
NOTCHES
100
AcDbLine
 10
195.33438535174287
 20
3.0
 30
0.0
 11
195.33438535174287
 21
0.0
 31
0.0
  0
LINE
  5
18D
330
171
100
AcDbEntity
  8
NOTCHES
100
AcDbLine
 10
280.2356013678939
 20
3.0
 30
0.0
 11
280.2356013678939
 21
0.0
 31
0.0
  0
LINE
  5
18E
330
171
100
AcDbEntity
  8
NOTCHES
100
AcDbLine
 10
13.566869335946876
 20
3.0
 30
0.0
 11
13.566869335946876
 21
0.0
 31
0.0
  0
LINE
  5
18F
330
171
100
AcDbEntity
  8
NOTCHES
100
AcDbLine
 10
317.36934003978786
 20
3.0
 30
0.0
 11
317.36934003978786
 21
0.0
 31
0.0
  0
LINE
  5
190
330
171
100
AcDbEntity
  8
NOTCHES
100
AcDbLine
 10
205.9681240238708
 20
1.0
 30
0.0
 11
205.9681240238708
 21
0.0
 31
0.0
  0
LINE
  5
191
330
171
100
AcDbEntity
  8
NOTCHES
100
AcDbLine
 10
217.60186269553378
 20
1.047160253394394
 30
0.0
 11
217.60186269553378
 21
0.0471602533943951
 31
0.0
  0
LINE
  5
192
330
171
100
AcDbEntity
  8
NOTCHES
100
AcDbLine
 10
280.2356013678939
 20
2061.5
 30
0.0
 11
280.2356013678939
 21
2055.5
 31
0.0
  0
LINE
  5
193
330
171
100
AcDbEntity
  8
NOTCHES
100
AcDbLine
 10
217.60186269553378
 20
2059.25
 30
0.0
 11
217.60186269553378
 21
2058.25
 31
0.0
  0
LINE
  5
194
330
171
100
AcDbEntity
  8
NOTCHES
100
AcDbLine
 10
205.9681240238708
 20
2048.5
 30
0.0
 11
205.9681240238708
 21
2047.5
 31
0.0
  0
LINE
  5
195
330
171
100
AcDbEntity
  8
NOTCHES
100
AcDbLine
 10
195.33438535174287
 20
2046.25
 30
0.0
 11
195.33438535174287
 21
2043.25
 31
0.0
  0
LINE
  5
196
330
171
100
AcDbEntity
  8
NOTCHES
100
AcDbLine
 10
187.70064667984798
 20
2039.5
 30
0.0
 11
187.70064667984798
 21
2036.5
 31
0.0
  0
LINE
  5
197
330
171
100
AcDbEntity
  8
NOTCHES
100
AcDbLine
 10
72.70060800807482
 20
2039.5
 30
0.0
 11
72.70060800807482
 21
2036.5
 31
0.0
  0
LINE
  5
198
330
171
100
AcDbEntity
  8
NOTCHES
100
AcDbLine
 10
13.566869335946876
 20
2097.75
 30
0.0
 11
13.566869335946876
 21
2094.75
 31
0.0
  0
LINE
  5
199
330
171
100
AcDbEntity
  8
NOTCHES
100
AcDbLine
 10
317.36934003978786
 20
2097.75
 30
0.0
 11
317.36934003978786
 21
2094.75
 31
0.0
  0
LINE
  5
19A
330
171
100
AcDbEntity
  8
NOTCHES
100
AcDbLine
 10
187.70064667984798
 20
3.0
 30
0.0
 11
187.70064667984798
 21
0.0
 31
0.0
  0
LINE
  5
19B
330
171
100
AcDbEntity
  8
NOTCHES
100
AcDbLine
 10
72.70060800807482
 20
3.0
 30
0.0
 11
72.70060800807482
 21
0.0
 31
0.0
  0
LINE
  5
19C
330
171
100
AcDbEntity
  8
NOTCHES
100
AcDbLine
 10
195.33438535174287
 20
3.0
 30
0.0
 11
195.33438535174287
 21
0.0
 31
0.0
  0
LINE
  5
19D
330
171
100
AcDbEntity
  8
NOTCHES
100
AcDbLine
 10
280.2356013678939
 20
3.0
 30
0.0
 11
280.2356013678939
 21
0.0
 31
0.0
  0
LINE
  5
19E
330
171
100
AcDbEntity
  8
NOTCHES
100
AcDbLine
 10
13.566869335946876
 20
3.0
 30
0.0
 11
13.566869335946876
 21
0.0
 31
0.0
  0
LINE
  5
19F
330
171
100
AcDbEntity
  8
NOTCHES
100
AcDbLine
 10
317.36934003978786
 20
3.0
 30
0.0
 11
317.36934003978786
 21
0.0
 31
0.0
  0
LINE
  5
1A0
330
171
100
AcDbEntity
  8
NOTCHES
100
AcDbLine
 10
205.9681240238708
 20
1.0
 30
0.0
 11
205.9681240238708
 21
0.0
 31
0.0
  0
LINE
  5
1A1
330
171
100
AcDbEntity
  8
NOTCHES
100
AcDbLine
 10
217.60186269553378
 20
1.047160253394394
 30
0.0
 11
217.60186269553378
 21
0.0471602533943951
 31
0.0
  0
LINE
  5
1A2
330
171
100
AcDbEntity
  8
NOTCHES
100
AcDbLine
 10
280.2356013678939
 20
2061.5
 30
0.0
 11
280.2356013678939
 21
2055.5
 31
0.0
  0
LINE
  5
1A3
330
171
100
AcDbEntity
  8
NOTCHES
100
AcDbLine
 10
217.60186269553378
 20
2059.25
 30
0.0
 11
217.60186269553378
 21
2058.25
 31
0.0
  0
LINE
  5
1A4
330
171
100
AcDbEntity
  8
NOTCHES
100
AcDbLine
 10
205.9681240238708
 20
2048.5
 30
0.0
 11
205.9681240238708
 21
2047.5
 31
0.0
  0
LINE
  5
1A5
330
171
100
AcDbEntity
  8
NOTCHES
100
AcDbLine
 10
195.33438535174287
 20
2046.25
 30
0.0
 11
195.33438535174287
 21
2043.25
 31
0.0
  0
LINE
  5
1A6
330
171
100
AcDbEntity
  8
NOTCHES
100
AcDbLine
 10
187.70064667984798
 20
2039.5
 30
0.0
 11
187.70064667984798
 21
2036.5
 31
0.0
  0
LINE
  5
1A7
330
171
100
AcDbEntity
  8
NOTCHES
100
AcDbLine
 10
72.70060800807482
 20
2039.5
 30
0.0
 11
72.70060800807482
 21
2036.5
 31
0.0
  0
LINE
  5
1A8
330
171
100
AcDbEntity
  8
NOTCHES
100
AcDbLine
 10
13.566869335946876
 20
2097.75
 30
0.0
 11
13.566869335946876
 21
2094.75
 31
0.0
  0
LINE
  5
1A9
330
171
100
AcDbEntity
  8
NOTCHES
100
AcDbLine
 10
317.36934003978786
 20
2097.75
 30
0.0
 11
317.36934003978786
 21
2094.75
 31
0.0
  0
LINE
  5
1AA
330
171
100
AcDbEntity
  8
NOTCHES
100
AcDbLine
 10
187.70064667984798
 20
3.0
 30
0.0
 11
187.70064667984798
 21
0.0
 31
0.0
  0
LINE
  5
1AB
330
171
100
AcDbEntity
  8
NOTCHES
100
AcDbLine
 10
72.70060800807482
 20
3.0
 30
0.0
 11
72.70060800807482
 21
0.0
 31
0.0
  0
LINE
  5
1AC
330
171
100
AcDbEntity
  8
NOTCHES
100
AcDbLine
 10
195.33438535174287
 20
3.0
 30
0.0
 11
195.33438535174287
 21
0.0
 31
0.0
  0
LINE
  5
1AD
330
171
100
AcDbEntity
  8
NOTCHES
100
AcDbLine
 10
280.2356013678939
 20
3.0
 30
0.0
 11
280.2356013678939
 21
0.0
 31
0.0
  0
LINE
  5
1AE
330
171
100
AcDbEntity
  8
NOTCHES
100
AcDbLine
 10
13.566869335946876
 20
3.0
 30
0.0
 11
13.566869335946876
 21
0.0
 31
0.0
  0
LINE
  5
1AF
330
171
100
AcDbEntity
  8
NOTCHES
100
AcDbLine
 10
317.36934003978786
 20
3.0
 30
0.0
 11
317.36934003978786
 21
0.0
 31
0.0
  0
LINE
  5
1B0
330
171
100
AcDbEntity
  8
NOTCHES
100
AcDbLine
 10
205.9681240238708
 20
1.0
 30
0.0
 11
205.9681240238708
 21
0.0
 31
0.0
  0
LINE
  5
1B1
330
171
100
AcDbEntity
  8
NOTCHES
100
AcDbLine
 10
217.60186269553378
 20
1.047160253394394
 30
0.0
 11
217.60186269553378
 21
0.0471602533943951
 31
0.0
  0
LINE
  5
1B2
330
171
100
AcDbEntity
  8
NOTCHES
100
AcDbLine
 10
280.2356013678939
 20
2061.5
 30
0.0
 11
280.2356013678939
 21
2055.5
 31
0.0
  0
LINE
  5
1B3
330
171
100
AcDbEntity
  8
NOTCHES
100
AcDbLine
 10
217.60186269553378
 20
2059.25
 30
0.0
 11
217.60186269553378
 21
2058.25
 31
0.0
  0
LINE
  5
1B4
330
171
100
AcDbEntity
  8
NOTCHES
100
AcDbLine
 10
205.9681240238708
 20
2048.5
 30
0.0
 11
205.9681240238708
 21
2047.5
 31
0.0
  0
LINE
  5
1B5
330
171
100
AcDbEntity
  8
NOTCHES
100
AcDbLine
 10
195.33438535174287
 20
2046.25
 30
0.0
 11
195.33438535174287
 21
2043.25
 31
0.0
  0
LINE
  5
1B6
330
171
100
AcDbEntity
  8
NOTCHES
100
AcDbLine
 10
187.70064667984798
 20
2039.5
 30
0.0
 11
187.70064667984798
 21
2036.5
 31
0.0
  0
LINE
  5
1B7
330
171
100
AcDbEntity
  8
NOTCHES
100
AcDbLine
 10
72.70060800807482
 20
2039.5
 30
0.0
 11
72.70060800807482
 21
2036.5
 31
0.0
  0
LINE
  5
1B8
330
171
100
AcDbEntity
  8
NOTCHES
100
AcDbLine
 10
13.566869335946876
 20
2097.75
 30
0.0
 11
13.566869335946876
 21
2094.75
 31
0.0
  0
LINE
  5
1B9
330
171
100
AcDbEntity
  8
NOTCHES
100
AcDbLine
 10
317.36934003978786
 20
2097.75
 30
0.0
 11
317.36934003978786
 21
2094.75
 31
0.0
  0
LWPOLYLINE
  5
1BA
330
171
100
AcDbEntity
  8
NOTCHES
100
AcDbPolyline
 90
4
 70
1
 10
253.3024320318359
 20
6.0
 10
265.3024320318359
 20
6.0
 10
265.3024320318359
 20
4.0
 10
253.3024320318359
 20
4.0
  0
LWPOLYLINE
  5
1BB
330
171
100
AcDbEntity
  8
NOTCHES
100
AcDbPolyline
 90
4
 70
1
 10
99.6337773441328
 20
11.0
 10
87.6337773441328
 20
11.0
 10
87.6337773441328
 20
9.0
 10
99.6337773441328
 20
9.0
  0
ENDBLK
  5
173
330
171
100
AcDbEntity
  8
0
100
AcDbBlockEnd
  0
BLOCK
  5
1BD
330
1BC
100
AcDbEntity
  8
0
100
AcDbBlockBegin
  2
B_A2_HEADER
 70
0
 10
0.0
 20
0.0
 30
0.0
  3
B_A2_HEADER
  1

  0
LWPOLYLINE
  5
1BF
330
1BC
100
AcDbEntity
  8
OUTLINE
100
AcDbPolyline
 90
44
 70
1
 10
1146.9999999999995
 20
330.93620937562036
 10
0.0
 20
330.93620937562036
 10
0.0
 20
318.9362093756213
 10
1.5000000000001137
 20
315.80247070372525
 10
35.500000000000114
 20
281.80247070372525
 10
38.500000000000114
 20
278.6687320317146
 10
28.5
 20
268.6687320317119
 10
28.5
 20
229.1687320317119
 10
38.500000000000114
 20
219.16873203171463
 10
40.000000000000114
 20
216.0349933598195
 10
48.5
 20
207.53499335981678
 10
51.500000000000114
 20
204.40125468780616
 10
51.500000000000114
 20
196.90125468780707
 10
53.0
 20
193.76751601591195
 10
57.499999999999886
 20
189.26751601591195
 10
60.500000000000114
 20
186.13377734390042
 10
50.499999999999886
 20
174.21624141803431
 10
50.499999999999886
 20
84.2674773439062
 10
60.500000000000114
 20
74.26747734390801
 10
57.499999999999886
 20
71.13373867189512
 10
1.5000000000001137
 20
15.133738671894207
 10
0.0
 20
12.0
 10
0.0
 20
0.0
 10
1146.9999999999995
 20
0.0
 10
1146.9999999999995
 20
12.0
 10
1145.4999999999995
 20
15.133738671894207
 10
1089.4999999999995
 20
71.13373867189512
 10
1086.4999999999995
 20
74.26747734390801
 10
1096.4999999999995
 20
84.2674773439062
 10
1096.4999999999995
 20
174.21624141803431
 10
1086.4999999999995
 20
186.13377734390042
 10
1089.4999999999995
 20
189.26751601591195
 10
1093.9999999999995
 20
193.76751601591195
 10
1095.4999999999995
 20
196.90125468780707
 10
1095.4999999999995
 20
204.40125468780616
 10
1098.4999999999995
 20
207.53499335981678
 10
1106.9999999999995
 20
216.0349933598195
 10
1108.4999999999995
 20
219.16873203171463
 10
1118.4999999999995
 20
229.1687320317119
 10
1118.4999999999995
 20
268.6687320317119
 10
1108.4999999999995
 20
278.6687320317146
 10
1111.4999999999995
 20
281.80247070372525
 10
1145.4999999999995
 20
315.80247070372525
 10
1146.9999999999995
 20
318.9362093756213
  0
LWPOLYLINE
  5
1C0
330
1BC
100
AcDbEntity
  8
CUTOUTS
100
AcDbPolyline
 90
4
 70
1
 10
1108.2499999999995
 20
230.16873203183013
 10
1110.2499999999995
 20
230.16873203183013
 10
1110.2499999999995
 20
242.16873203183013
 10
1108.2499999999995
 20
242.16873203183013
  0
LWPOLYLINE
  5
1C1
330
1BC
100
AcDbEntity
  8
CUTOUTS
100
AcDbPolyline
 90
4
 70
1
 10
1108.2499999999995
 20
255.6687320317119
 10
1110.2499999999995
 20
255.6687320317119
 10
1110.2499999999995
 20
267.6687320317119
 10
1108.2499999999995
 20
267.6687320317119
  0
LWPOLYLINE
  5
1C2
330
1BC
100
AcDbEntity
  8
CUTOUTS
100
AcDbPolyline
 90
4
 70
1
 10
1086.2499999999995
 20
85.2674773439062
 10
1088.2499999999995
 20
85.2674773439062
 10
1088.2499999999995
 20
97.2674773439062
 10
1086.2499999999995
 20
97.2674773439062
  0
LWPOLYLINE
  5
1C3
330
1BC
100
AcDbEntity
  8
CUTOUTS
100
AcDbPolyline
 90
4
 70
1
 10
1086.2499999999995
 20
163.13377734390042
 10
1088.2499999999995
 20
163.13377734390042
 10
1088.2499999999995
 20
175.13377734390042
 10
1086.2499999999995
 20
175.13377734390042
  0
LWPOLYLINE
  5
1C4
330
1BC
100
AcDbEntity
  8
CUTOUTS
100
AcDbPolyline
 90
4
 70
1
 10
36.750000000000114
 20
230.16873203183013
 10
38.750000000000114
 20
230.16873203183013
 10
38.750000000000114
 20
242.16873203183013
 10
36.750000000000114
 20
242.16873203183013
  0
LWPOLYLINE
  5
1C5
330
1BC
100
AcDbEntity
  8
CUTOUTS
100
AcDbPolyline
 90
4
 70
1
 10
36.750000000000114
 20
255.6687320317119
 10
38.750000000000114
 20
255.6687320317119
 10
38.750000000000114
 20
267.6687320317119
 10
36.750000000000114
 20
267.6687320317119
  0
LWPOLYLINE
  5
1C6
330
1BC
100
AcDbEntity
  8
CUTOUTS
100
AcDbPolyline
 90
4
 70
1
 10
58.750000000000114
 20
85.2674773439062
 10
60.750000000000114
 20
85.2674773439062
 10
60.750000000000114
 20
97.2674773439062
 10
58.750000000000114
 20
97.2674773439062
  0
LWPOLYLINE
  5
1C7
330
1BC
100
AcDbEntity
  8
CUTOUTS
100
AcDbPolyline
 90
4
 70
1
 10
58.750000000000114
 20
163.13377734390042
 10
60.750000000000114
 20
163.13377734390042
 10
60.750000000000114
 20
175.13377734390042
 10
58.750000000000114
 20
175.13377734390042
  0
LINE
  5
1C8
330
1BC
100
AcDbEntity
  8
NOTCHES
100
AcDbLine
 10
1146.2499999999995
 20
317.369340039671
 30
0.0
 11
1140.2499999999995
 21
317.369340039671
 31
0.0
  0
LINE
  5
1C9
330
1BC
100
AcDbEntity
  8
NOTCHES
100
AcDbLine
 10
1109.9999999999995
 20
280.2356013676613
 30
0.0
 11
1103.9999999999995
 21
280.2356013676613
 31
0.0
  0
LINE
  5
1CA
330
1BC
100
AcDbEntity
  8
NOTCHES
100
AcDbLine
 10
1107.7499999999995
 20
217.60186269564883
 30
0.0
 11
1105.7499999999995
 21
217.60186269564883
 31
0.0
  0
LINE
  5
1CB
330
1BC
100
AcDbEntity
  8
NOTCHES
100
AcDbLine
 10
1096.9999999999995
 20
205.9681240237528
 30
0.0
 11
1094.9999999999995
 21
205.9681240237528
 31
0.0
  0
LINE
  5
1CC
330
1BC
100
AcDbEntity
  8
NOTCHES
100
AcDbLine
 10
1094.7499999999995
 20
195.33438535174128
 30
0.0
 11
1088.7499999999995
 21
195.33438535174128
 31
0.0
  0
LINE
  5
1CD
330
1BC
100
AcDbEntity
  8
NOTCHES
100
AcDbLine
 10
1087.9999999999995
 20
187.7006466798489
 30
0.0
 11
1081.9999999999995
 21
187.7006466798489
 31
0.0
  0
LINE
  5
1CE
330
1BC
100
AcDbEntity
  8
NOTCHES
100
AcDbLine
 10
1087.9999999999995
 20
72.70060800784222
 30
0.0
 11
1081.9999999999995
 21
72.70060800784222
 31
0.0
  0
LINE
  5
1CF
330
1BC
100
AcDbEntity
  8
NOTCHES
100
AcDbLine
 10
1146.2499999999995
 20
13.566869335947104
 30
0.0
 11
1140.2499999999995
 21
13.566869335947104
 31
0.0
  0
LINE
  5
1D0
330
1BC
100
AcDbEntity
  8
NOTCHES
100
AcDbLine
 10
36.999999999999886
 20
280.2356013676613
 30
0.0
 11
43.000000000000114
 21
280.2356013676613
 31
0.0
  0
LINE
  5
1D1
330
1BC
100
AcDbEntity
  8
NOTCHES
100
AcDbLine
 10
39.250000000000114
 20
217.60186269564883
 30
0.0
 11
41.250000000000114
 21
217.60186269564883
 31
0.0
  0
LINE
  5
1D2
330
1BC
100
AcDbEntity
  8
NOTCHES
100
AcDbLine
 10
50.000000000000114
 20
205.9681240237528
 30
0.0
 11
52.000000000000114
 21
205.9681240237528
 31
0.0
  0
LINE
  5
1D3
330
1BC
100
AcDbEntity
  8
NOTCHES
100
AcDbLine
 10
52.249999999999886
 20
195.33438535174128
 30
0.0
 11
58.250000000000114
 21
195.33438535174128
 31
0.0
  0
LINE
  5
1D4
330
1BC
100
AcDbEntity
  8
NOTCHES
100
AcDbLine
 10
59.000000000000114
 20
187.7006466798489
 30
0.0
 11
65.00000000000011
 21
187.7006466798489
 31
0.0
  0
LINE
  5
1D5
330
1BC
100
AcDbEntity
  8
NOTCHES
100
AcDbLine
 10
59.000000000000114
 20
72.70060800784222
 30
0.0
 11
65.00000000000011
 21
72.70060800784222
 31
0.0
  0
LINE
  5
1D6
330
1BC
100
AcDbEntity
  8
NOTCHES
100
AcDbLine
 10
6.75
 20
317.369340039671
 30
0.0
 11
0.75
 21
317.369340039671
 31
0.0
  0
LINE
  5
1D7
330
1BC
100
AcDbEntity
  8
NOTCHES
100
AcDbLine
 10
6.75
 20
13.566869335947104
 30
0.0
 11
0.75
 21
13.566869335947104
 31
0.0
  0
ENDBLK
  5
1BE
330
1BC
100
AcDbEntity
  8
0
100
AcDbBlockEnd
  0
BLOCK
  5
1D9
330
1D8
100
AcDbEntity
  8
0
100
AcDbBlockBegin
  2
B_A2_LEAF1
 70
0
 10
0.0
 20
0.0
 30
0.0
  3
B_A2_LEAF1
  1

  0
LWPOLYLINE
  5
1DB
330
1D8
100
AcDbEntity
  8
OUTLINE
100
AcDbPolyline
 90
4
 70
1
 10
0.0
 20
0.0
 10
1201.93
 20
0.0
 10
1201.93
 20
2050.0
 10
0.0
 20
2050.0
  0
LWPOLYLINE
  5
1DC
330
1D8
100
AcDbEntity
  8
CUTOUTS
100
AcDbPolyline
 90
4
 70
1
 10
43.6
 20
143.0
 10
73.1
 20
143.0
 10
73.1
 20
245.0
 10
43.6
 20
245.0
  0
LWPOLYLINE
  5
1DD
330
1D8
100
AcDbEntity
  8
CUTOUTS
100
AcDbPolyline
 90
4
 70
1
 10
43.6
 20
871.0
 10
73.1
 20
871.0
 10
73.1
 20
973.0
 10
43.6
 20
973.0
  0
LWPOLYLINE
  5
1DE
330
1D8
100
AcDbEntity
  8
CUTOUTS
100
AcDbPolyline
 90
4
 70
1
 10
43.6
 20
1599.0
 10
73.1
 20
1599.0
 10
73.1
 20
1701.0
 10
43.6
 20
1701.0
  0
LWPOLYLINE
  5
1DF
330
1D8
100
AcDbEntity
  8
CUTOUTS
100
AcDbPolyline
 90
4
 70
1
 10
43.6
 20
1801.0
 10
73.1
 20
1801.0
 10
73.1
 20
1903.0
 10
43.6
 20
1903.0
  0
LWPOLYLINE
  5
1E0
330
1D8
100
AcDbEntity
  8
CUTOUTS
100
AcDbPolyline
 90
4
 70
1
 10
1137.4
 20
905.8
 10
1161.9
 20
905.8
 10
1161.9
 20
1141.1
 10
1137.4
 20
1141.1
  0
CIRCLE
  5
1E1
330
1D8
100
AcDbEntity
  8
HOLES
100
AcDbCircle
 10
1071.96
 20
1043.0
 30
0.0
 40
11.0
  0
CIRCLE
  5
1E2
330
1D8
100
AcDbEntity
  8
HOLES
100
AcDbCircle
 10
1052.96
 20
1043.0
 30
0.0
 40
3.5
  0
CIRCLE
  5
1E3
330
1D8
100
AcDbEntity
  8
HOLES
100
AcDbCircle
 10
1090.96
 20
1043.0
 30
0.0
 40
3.5
  0
LWPOLYLINE
  5
1E4
330
1D8
100
AcDbEntity
  8
CUTOUTS
100
AcDbPolyline
 90
4
 70
1
 10
1064.46
 20
962.3766424718433
 10
1064.46
 20
950.9233809415823
 42
0.9999999999999998
 10
1079.46
 20
950.9233809415823
 10
1079.46
 20
962.3766424718433
 42
2.539565129295556
  0
LWPOLYLINE
  5
1E5
330
1D8
100
AcDbEntity
  8
NOTCHES
100
AcDbPolyline
 90
4
 70
1
 10
45.0
 20
0.0
 10
60.0
 20
0.0
 10
60.0
 20
30.0
 10
45.0
 20
30.0
  0
LWPOLYLINE
  5
1E6
330
1D8
100
AcDbEntity
  8
NOTCHES
100
AcDbPolyline
 90
4
 70
1
 10
1141.9
 20
0.0
 10
1156.9
 20
0.0
 10
1156.9
 20
30.0
 10
1141.9
 20
30.0
  0
LINE
  5
1E7
330
1D8
100
AcDbEntity
  8
NOTCHES
100
AcDbLine
 10
11.74
 20
0.0
 30
0.0
 11
11.74
 21
3.0
 31
0.0
  0
LINE
  5
1E8
330
1D8
100
AcDbEntity
  8
NOTCHES
100
AcDbLine
 10
11.74
 20
2050.0
 30
0.0
 11
11.74
 21
2047.0
 31
0.0
  0
LINE
  5
1E9
330
1D8
100
AcDbEntity
  8
NOTCHES
100
AcDbLine
 10
33.75
 20
0.0
 30
0.0
 11
33.75
 21
3.0
 31
0.0
  0
LINE
  5
1EA
330
1D8
100
AcDbEntity
  8
NOTCHES
100
AcDbLine
 10
33.75
 20
2050.0
 30
0.0
 11
33.75
 21
2047.0
 31
0.0
  0
LINE
  5
1EB
330
1D8
100
AcDbEntity
  8
NOTCHES
100
AcDbLine
 10
71.26
 20
0.0
 30
0.0
 11
71.26
 21
3.0
 31
0.0
  0
LINE
  5
1EC
330
1D8
100
AcDbEntity
  8
NOTCHES
100
AcDbLine
 10
71.26
 20
2050.0
 30
0.0
 11
71.26
 21
2047.0
 31
0.0
  0
LINE
  5
1ED
330
1D8
100
AcDbEntity
  8
NOTCHES
100
AcDbLine
 10
1190.18
 20
0.0
 30
0.0
 11
1190.18
 21
3.0
 31
0.0
  0
LINE
  5
1EE
330
1D8
100
AcDbEntity
  8
NOTCHES
100
AcDbLine
 10
1190.18
 20
2050.0
 30
0.0
 11
1190.18
 21
2047.0
 31
0.0
  0
LINE
  5
1EF
330
1D8
100
AcDbEntity
  8
NOTCHES
100
AcDbLine
 10
1168.18
 20
0.0
 30
0.0
 11
1168.18
 21
3.0
 31
0.0
  0
LINE
  5
1F0
330
1D8
100
AcDbEntity
  8
NOTCHES
100
AcDbLine
 10
1168.18
 20
2050.0
 30
0.0
 11
1168.18
 21
2047.0
 31
0.0
  0
LINE
  5
1F1
330
1D8
100
AcDbEntity
  8
NOTCHES
100
AcDbLine
 10
1130.66
 20
0.0
 30
0.0
 11
1130.66
 21
3.0
 31
0.0
  0
LINE
  5
1F2
330
1D8
100
AcDbEntity
  8
NOTCHES
100
AcDbLine
 10
1130.66
 20
2050.0
 30
0.0
 11
1130.66
 21
2047.0
 31
0.0
  0
ENDBLK
  5
1DA
330
1D8
100
AcDbEntity
  8
0
100
AcDbBlockEnd
  0
BLOCK
  5
1F4
330
1F3
100
AcDbEntity
  8
0
100
AcDbBlockBegin
  2
B_A2_LEAF2
 70
0
 10
0.0
 20
0.0
 30
0.0
  3
B_A2_LEAF2
  1

  0
LWPOLYLINE
  5
1F6
330
1F3
100
AcDbEntity
  8
OUTLINE
100
AcDbPolyline
 90
4
 70
1
 10
0.0
 20
0.0
 10
1088.81
 20
0.0
 10
1088.81
 20
2050.0
 10
0.0
 20
2050.0
  0
CIRCLE
  5
1F7
330
1F3
100
AcDbEntity
  8
HOLES
100
AcDbCircle
 10
73.6
 20
1043.0
 30
0.0
 40
11.0
  0
CIRCLE
  5
1F8
330
1F3
100
AcDbEntity
  8
HOLES
100
AcDbCircle
 10
54.599999999999994
 20
1043.0
 30
0.0
 40
3.5
  0
CIRCLE
  5
1F9
330
1F3
100
AcDbEntity
  8
HOLES
100
AcDbCircle
 10
92.6
 20
1043.0
 30
0.0
 40
3.5
  0
LWPOLYLINE
  5
1FA
330
1F3
100
AcDbEntity
  8
CUTOUTS
100
AcDbPolyline
 90
4
 70
1
 10
66.09999999999988
 20
962.3766424718433
 10
66.09999999999988
 20
950.9233809415823
 42
0.9999999999999998
 10
81.10000000000011
 20
950.9233809415823
 10
81.10000000000011
 20
962.3766424718433
 42
2.539565129295556
  0
LINE
  5
1FB
330
1F3
100
AcDbEntity
  8
NOTCHES
100
AcDbLine
 10
16.7
 20
0.0
 30
0.0
 11
16.7
 21
3.0
 31
0.0
  0
LINE
  5
1FC
330
1F3
100
AcDbEntity
  8
NOTCHES
100
AcDbLine
 10
16.7
 20
2050.0
 30
0.0
 11
16.7
 21
2047.0
 31
0.0
  0
LINE
  5
1FD
330
1F3
100
AcDbEntity
  8
NOTCHES
100
AcDbLine
 10
1072.11
 20
0.0
 30
0.0
 11
1072.11
 21
3.0
 31
0.0
  0
LINE
  5
1FE
330
1F3
100
AcDbEntity
  8
NOTCHES
100
AcDbLine
 10
1072.11
 20
2050.0
 30
0.0
 11
1072.11
 21
2047.0
 31
0.0
  0
ENDBLK
  5
1F5
330
1F3
100
AcDbEntity
  8
0
100
AcDbBlockEnd
  0
ENDSEC
  0
SECTION
  2
ENTITIES
  0
INSERT
  5
116
330
17
100
AcDbEntity
  8
0
100
AcDbBlockReference
  2
B_A1_HINGE_POST
 10
0.0
 20
0.0
 30
0.0
  0
INSERT
  5
118
330
17
100
AcDbEntity
  8
0
100
AcDbBlockReference
  2
B_A1_LOCK_POST
 10
460.93
 20
0.0
 30
0.0
  0
INSERT
  5
11A
330
17
100
AcDbEntity
  8
0
100
AcDbBlockReference
  2
B_A1_HEADER
 10
921.86
 20
0.0
 30
0.0
  0
INSERT
  5
11C
330
17
100
AcDbEntity
  8
0
100
AcDbBlockReference
  2
B_A1_LEAF1
 10
2168.86
 20
0.0
 30
0.0
  0
INSERT
  5
11E
330
17
100
AcDbEntity
  8
0
100
AcDbBlockReference
  2
B_A1_LEAF2
 10
3470.79
 20
0.0
 30
0.0
  0
TEXT
  5
120
330
17
100
AcDbEntity
  8
TEXT
100
AcDbText
 10
0.0
 20
-120.0
 30
0.0
 40
45.0
  1
DOOR A1 | 1000x2000x150 mm (RH)
100
AcDbText
  0
INSERT
  5
1FF
330
17
100
AcDbEntity
  8
0
100
AcDbBlockReference
  2
B_A2_HINGE_POST
 10
4909.6
 20
0.0
 30
0.0
  0
INSERT
  5
201
330
17
100
AcDbEntity
  8
0
100
AcDbBlockReference
  2
B_A2_LOCK_POST
 10
5390.530000000001
 20
0.0
 30
0.0
  0
INSERT
  5
203
330
17
100
AcDbEntity
  8
0
100
AcDbBlockReference
  2
B_A2_HEADER
 10
5871.460000000001
 20
0.0
 30
0.0
  0
INSERT
  5
205
330
17
100
AcDbEntity
  8
0
100
AcDbBlockReference
  2
B_A2_LEAF1
 10
7268.460000000001
 20
0.0
 30
0.0
  0
INSERT
  5
207
330
17
100
AcDbEntity
  8
0
100
AcDbBlockReference
  2
B_A2_LEAF2
 10
8720.390000000001
 20
0.0
 30
0.0
  0
TEXT
  5
209
330
17
100
AcDbEntity
  8
TEXT
100
AcDbText
 10
4909.6
 20
-120.0
 30
0.0
 40
45.0
  1
DOOR A2 | 1150x2100x170 mm (LH)
100
AcDbText
  0
LWPOLYLINE
  5
20A
330
17
100
AcDbEntity
  8
SHEETS_1_5
100
AcDbPolyline
 90
4
 70
1
 10
0.0
 20
-3500.0
 10
1000.0
 20
-3500.0
 10
1000.0
 20
-1200.0
 10
0.0
 20
-1200.0
  0
INSERT
  5
20B
330
17
100
AcDbEntity
  8
0
100
AcDbBlockReference
  2
B_A2_HINGE_POST
 10
0.0
 20
-3500.0
 30
0.0
  0
INSERT
  5
20D
330
17
100
AcDbEntity
  8
0
100
AcDbBlockReference
  2
B_A2_LOCK_POST
 10
330.93
 20
-3500.0
 30
0.0
  0
INSERT
  5
20F
330
17
100
AcDbEntity
  8
0
100
AcDbBlockReference
  2
B_A1_HINGE_POST
 10
661.86
 20
-3500.0
 30
0.0
  0
TEXT
  5
211
330
17
100
AcDbEntity
  8
TEXT
100
AcDbText
 10
0.0
 20
-3580.0
 30
0.0
 40
40.0
  1
Sheet 1.5mm #1 (100x230 cm)
100
AcDbText
  0
LWPOLYLINE
  5
212
330
17
100
AcDbEntity
  8
SHEETS_1_5
100
AcDbPolyline
 90
4
 70
1
 10
1250.0
 20
-3500.0
 10
2500.0
 20
-3500.0
 10
2500.0
 20
-1200.0
 10
1250.0
 20
-1200.0
  0
INSERT
  5
213
330
17
100
AcDbEntity
  8
0
100
AcDbBlockReference
  2
B_A1_LOCK_POST
 10
1250.0
 20
-3500.0
 30
0.0
  0
INSERT
  5
215
330
17
100
AcDbEntity
  8
0
100
AcDbBlockReference
  2
B_A2_HEADER
 10
1891.8600000000001
 20
-3500.0
 30
0.0
 50
90.0
  0
INSERT
  5
217
330
17
100
AcDbEntity
  8
0
100
AcDbBlockReference
  2
B_A1_HEADER
 10
1871.8600000000001
 20
-2353.0
 30
0.0
 50
90.0
  0
TEXT
  5
219
330
17
100
AcDbEntity
  8
TEXT
100
AcDbText
 10
1250.0
 20
-3580.0
 30
0.0
 40
40.0
  1
Sheet 1.5mm #2 (125x230 cm)
100
AcDbText
  0
LWPOLYLINE
  5
21A
330
17
100
AcDbEntity
  8
SHEETS_1_2
100
AcDbPolyline
 90
4
 70
1
 10
0.0
 20
-6700.0
 10
1250.0
 20
-6700.0
 10
1250.0
 20
-4400.0
 10
0.0
 20
-4400.0
  0
INSERT
  5
21B
330
17
100
AcDbEntity
  8
0
100
AcDbBlockReference
  2
B_A2_LEAF1
 10
0.0
 20
-6700.0
 30
0.0
  0
TEXT
  5
21D
330
17
100
AcDbEntity
  8
TEXT
100
AcDbText
 10
0.0
 20
-6780.0
 30
0.0
 40
40.0
  1
Sheet 1.2mm #1 (125x230 cm)
100
AcDbText
  0
LWPOLYLINE
  5
21E
330
17
100
AcDbEntity
  8
SHEETS_1_2
100
AcDbPolyline
 90
4
 70
1
 10
1500.0
 20
-6700.0
 10
2750.0
 20
-6700.0
 10
2750.0
 20
-4400.0
 10
1500.0
 20
-4400.0
  0
INSERT
  5
21F
330
17
100
AcDbEntity
  8
0
100
AcDbBlockReference
  2
B_A2_LEAF2
 10
1500.0
 20
-6700.0
 30
0.0
  0
TEXT
  5
221
330
17
100
AcDbEntity
  8
TEXT
100
AcDbText
 10
1500.0
 20
-6780.0
 30
0.0
 40
40.0
  1
Sheet 1.2mm #2 (125x230 cm)
100
AcDbText
  0
LWPOLYLINE
  5
222
330
17
100
AcDbEntity
  8
SHEETS_1_2
100
AcDbPolyline
 90
4
 70
1
 10
3000.0
 20
-6700.0
 10
4250.0
 20
-6700.0
 10
4250.0
 20
-4400.0
 10
3000.0
 20
-4400.0
  0
INSERT
  5
223
330
17
100
AcDbEntity
  8
0
100
AcDbBlockReference
  2
B_A1_LEAF1
 10
3000.0
 20
-6700.0
 30
0.0
  0
TEXT
  5
225
330
17
100
AcDbEntity
  8
TEXT
100
AcDbText
 10
3000.0
 20
-6780.0
 30
0.0
 40
40.0
  1
Sheet 1.2mm #3 (125x230 cm)
100
AcDbText
  0
LWPOLYLINE
  5
226
330
17
100
AcDbEntity
  8
SHEETS_1_2
100
AcDbPolyline
 90
4
 70
1
 10
4500.0
 20
-6700.0
 10
5500.0
 20
-6700.0
 10
5500.0
 20
-4400.0
 10
4500.0
 20
-4400.0
  0
INSERT
  5
227
330
17
100
AcDbEntity
  8
0
100
AcDbBlockReference
  2
B_A1_LEAF2
 10
4500.0
 20
-6700.0
 30
0.0
  0
TEXT
  5
229
330
17
100
AcDbEntity
  8
TEXT
100
AcDbText
 10
4500.0
 20
-6780.0
 30
0.0
 40
40.0
  1
Sheet 1.2mm #4 (100x230 cm)
100
AcDbText
  0
ENDSEC
  0
SECTION
  2
OBJECTS
  0
DICTIONARY
  5
A
330
0
100
AcDbDictionary
281
1
  3
ACAD_COLOR
350
B
  3
ACAD_GROUP
350
C
  3
ACAD_LAYOUT
350
D
  3
ACAD_MATERIAL
350
E
  3
ACAD_MLEADERSTYLE
350
F
  3
ACAD_MLINESTYLE
350
10
  3
ACAD_PLOTSETTINGS
350
11
  3
ACAD_PLOTSTYLENAME
350
12
  3
ACAD_SCALELIST
350
14
  3
ACAD_TABLESTYLE
350
15
  3
ACAD_VISUALSTYLE
350
16
  3
EZDXF_META
350
2D
  0
DICTIONARY
  5
B
330
A
100
AcDbDictionary
281
1
  0
DICTIONARY
  5
C
330
A
100
AcDbDictionary
281
1
  0
DICTIONARY
  5
D
330
A
100
AcDbDictionary
281
1
  3
Model
350
1A
  3
Layout1
350
1E
  0
DICTIONARY
  5
E
330
A
100
AcDbDictionary
281
1
  3
ByBlock
350
1F
  3
ByLayer
350
20
  3
Global
350
21
  0
DICTIONARY
  5
F
330
A
100
AcDbDictionary
281
1
  3
Standard
350
2C
  0
DICTIONARY
  5
10
330
A
100
AcDbDictionary
281
1
  3
Standard
350
22
  0
DICTIONARY
  5
11
330
A
100
AcDbDictionary
281
1
  0
ACDBDICTIONARYWDFLT
  5
12
330
A
100
AcDbDictionary
281
1
  3
Normal
350
13
100
AcDbDictionaryWithDefault
340
13
  0
ACDBPLACEHOLDER
  5
13
330
12
  0
DICTIONARY
  5
14
330
A
100
AcDbDictionary
281
1
  0
DICTIONARY
  5
15
330
A
100
AcDbDictionary
281
1
  0
DICTIONARY
  5
16
330
A
100
AcDbDictionary
281
1
  0
LAYOUT
  5
1A
330
D
100
AcDbPlotSettings
  1

  4
A3
  6

 40
7.5
 41
20.0
 42
7.5
 43
20.0
 44
420.0
 45
297.0
 46
0.0
 47
0.0
 48
0.0
 49
0.0
140
0.0
141
0.0
142
1.0
143
1.0
 70
1024
 72
1
 73
0
 74
5
  7

 75
16
 76
0
 77
2
 78
300
147
1.0
148
0.0
149
0.0
100
AcDbLayout
  1
Model
 70
1
 71
0
 10
0.0
 20
0.0
 11
420.0
 21
297.0
 12
0.0
 22
0.0
 32
0.0
 14
1e+20
 24
1e+20
 34
1e+20
 15
-1e+20
 25
-1e+20
 35
-1e+20
146
0.0
 13
0.0
 23
0.0
 33
0.0
 16
1.0
 26
0.0
 36
0.0
 17
0.0
 27
1.0
 37
0.0
 76
1
330
17
  0
LAYOUT
  5
1E
330
D
100
AcDbPlotSettings
  1

  4
A3
  6

 40
7.5
 41
20.0
 42
7.5
 43
20.0
 44
420.0
 45
297.0
 46
0.0
 47
0.0
 48
0.0
 49
0.0
140
0.0
141
0.0
142
1.0
143
1.0
 70
0
 72
1
 73
0
 74
5
  7

 75
16
 76
0
 77
2
 78
300
147
1.0
148
0.0
149
0.0
100
AcDbLayout
  1
Layout1
 70
1
 71
1
 10
0.0
 20
0.0
 11
420.0
 21
297.0
 12
0.0
 22
0.0
 32
0.0
 14
1e+20
 24
1e+20
 34
1e+20
 15
-1e+20
 25
-1e+20
 35
-1e+20
146
0.0
 13
0.0
 23
0.0
 33
0.0
 16
1.0
 26
0.0
 36
0.0
 17
0.0
 27
1.0
 37
0.0
 76
1
330
1B
  0
MATERIAL
  5
1F
102
{ACAD_REACTORS
330
E
102
}
330
E
100
AcDbMaterial
  1
ByBlock
  2

 70
0
 40
1.0
 71
1
 41
1.0
 91
-1023410177
 42
1.0
 72
1
  3

 73
1
 74
1
 75
1
 44
0.5
 73
0
 45
1.0
 46
1.0
 77
1
  4

 78
1
 79
1
170
1
 48
1.0
171
1
  6

172
1
173
1
174
1
140
1.0
141
1.0
175
1
  7

176
1
177
1
178
1
143
1.0
179
1
  8

270
1
271
1
272
1
145
1.0
146
1.0
273
1
  9

274
1
275
1
276
1
 42
1.0
 72
1
  3

 73
1
 74
1
 75
1
 94
63
  0
MATERIAL
  5
20
102
{ACAD_REACTORS
330
E
102
}
330
E
100
AcDbMaterial
  1
ByLayer
  2

 70
0
 40
1.0
 71
1
 41
1.0
 91
-1023410177
 42
1.0
 72
1
  3

 73
1
 74
1
 75
1
 44
0.5
 73
0
 45
1.0
 46
1.0
 77
1
  4

 78
1
 79
1
170
1
 48
1.0
171
1
  6

172
1
173
1
174
1
140
1.0
141
1.0
175
1
  7

176
1
177
1
178
1
143
1.0
179
1
  8

270
1
271
1
272
1
145
1.0
146
1.0
273
1
  9

274
1
275
1
276
1
 42
1.0
 72
1
  3

 73
1
 74
1
 75
1
 94
63
  0
MATERIAL
  5
21
102
{ACAD_REACTORS
330
E
102
}
330
E
100
AcDbMaterial
  1
Global
  2

 70
0
 40
1.0
 71
1
 41
1.0
 91
-1023410177
 42
1.0
 72
1
  3

 73
1
 74
1
 75
1
 44
0.5
 73
0
 45
1.0
 46
1.0
 77
1
  4

 78
1
 79
1
170
1
 48
1.0
171
1
  6

172
1
173
1
174
1
140
1.0
141
1.0
175
1
  7

176
1
177
1
178
1
143
1.0
179
1
  8

270
1
271
1
272
1
145
1.0
146
1.0
273
1
  9

274
1
275
1
276
1
 42
1.0
 72
1
  3

 73
1
 74
1
 75
1
 94
63
  0
MLINESTYLE
  5
22
102
{ACAD_REACTORS
330
10
102
}
330
10
100
AcDbMlineStyle
  2
Standard
 70
0
  3

 62
256
 51
90.0
 52
90.0
 71
2
 49
0.5
 62
256
  6
BYLAYER
 49
-0.5
 62
256
  6
BYLAYER
  0
MLEADERSTYLE
  5
2C
102
{ACAD_REACTORS
330
F
102
}
330
F
100
AcDbMLeaderStyle
179
2
170
2
171
1
172
0
 90
2
 40
0.0
 41
0.0
173
1
 91
-1056964608
 92
-2
290
1
 42
2.0
291
1
 43
8.0
  3
Standard
 44
4.0
300

342
29
174
1
175
1
176
0
178
1
 93
-1056964608
 45
4.0
292
0
297
0
 46
4.0
 94
-1056964608
 47
1.0
 49
1.0
140
1.0
294
1
141
0.0
177
0
142
1.0
295
0
296
0
143
3.75
271
0
272
9
273
9
  0
DICTIONARY
  5
2D
330
A
100
AcDbDictionary
280
1
281
1
  3
CREATED_BY_EZDXF
350
2E
  3
WRITTEN_BY_EZDXF
350
22C
  0
DICTIONARYVAR
  5
2E
330
2D
100
DictionaryVariables
280
0
  1
1.4.4 @ 2026-09-19T20:13:14.527516+00:00
  0
DICTIONARYVAR
  5
22C
330
2D
100
DictionaryVariables
280
0
  1
1.4.4 @ 2026-09-19T20:13:14.547426+00:00
  0
ENDSEC
  0
EOF
