  0
SECTION
  2
HEADER
  9
$ACADVER
  1
AC1032
  9
$ACADMAINTVER
 90
4
  9
$DWGCODEPAGE
  3
ANSI_1252
  9
$LASTSAVEDBY
  1
ezdxf
  9
$REQUIREDVERSIONS
160
0
  9
$INSBASE
 10
0.0
 20
0.0
 30
0.0
  9
$EXTMIN
 10
1e+20
 20
1e+20
 30
1e+20
  9
$EXTMAX
 10
-1e+20
 20
-1e+20
 30
-1e+20
  9
$LIMMIN
 10
0.0
 20
0.0
  9
$LIMMAX
 10
420.0
 20
297.0
  9
$ORTHOMODE
 70
0
  9
$REGENMODE
 70
1
  9
$FILLMODE
 70
1
  9
$QTEXTMODE
 70
0
  9
$MIRRTEXT
 70
1
  9
$LTSCALE
 40
1.0
  9
$ATTMODE
 70
1
  9
$TEXTSIZE
 40
2.5
  9
$TRACEWID
 40
1.0
  9
$TEXTSTYLE
  7
Standard
  9
$CLAYER
  8
0
  9
$CELTYPE
  6
ByLayer
  9
$CECOLOR
 62
256
  9
$CELTSCALE
 40
1.0
  9
$DISPSILH
 70
0
  9
$DIMSCALE
 40
1.0
  9
$DIMASZ
 40
2.5
  9
$DIMEXO
 40
0.625
  9
$DIMDLI
 40
3.75
  9
$DIMRND
 40
0.0
  9
$DIMDLE
 40
0.0
  9
$DIMEXE
 40
1.25
  9
$DIMTP
 40
0.0
  9
$DIMTM
 40
0.0
  9
$DIMTXT
 40
2.5
  9
$DIMCEN
 40
2.5
  9
$DIMTSZ
 40
0.0
  9
$DIMTOL
 70
0
  9
$DIMLIM
 70
0
  9
$DIMTIH
 70
0
  9
$DIMTOH
 70
0
  9
$DIMSE1
 70
0
  9
$DIMSE2
 70
0
  9
$DIMTAD
 70
1
  9
$DIMZIN
 70
8
  9
$DIMBLK
  1

  9
$DIMASO
 70
1
  9
$DIMSHO
 70
1
  9
$DIMPOST
  1

  9
$DIMAPOST
  1

  9
$DIMALT
 70
0
  9
$DIMALTD
 70
3
  9
$DIMALTF
 40
0.03937007874
  9
$DIMLFAC
 40
1.0
  9
$DIMTOFL
 70
1
  9
$DIMTVP
 40
0.0
  9
$DIMTIX
 70
0
  9
$DIMSOXD
 70
0
  9
$DIMSAH
 70
0
  9
$DIMBLK1
  1

  9
$DIMBLK2
  1

  9
$DIMSTYLE
  2
ISO-25
  9
$DIMCLRD
 70
0
  9
$DIMCLRE
 70
0
  9
$DIMCLRT
 70
0
  9
$DIMTFAC
 40
1.0
  9
$DIMGAP
 40
0.625
  9
$DIMJUST
 70
0
  9
$DIMSD1
 70
0
  9
$DIMSD2
 70
0
  9
$DIMTOLJ
 70
0
  9
$DIMTZIN
 70
8
  9
$DIMALTZ
 70
0
  9
$DIMALTTZ
 70
0
  9
$DIMUPT
 70
0
  9
$DIMDEC
 70
2
  9
$DIMTDEC
 70
2
  9
$DIMALTU
 70
2
  9
$DIMALTTD
 70
3
  9
$DIMTXSTY
  7
Standard
  9
$DIMAUNIT
 70
0
  9
$DIMADEC
 70
0
  9
$DIMALTRND
 40
0.0
  9
$DIMAZIN
 70
0
  9
$DIMDSEP
 70
44
  9
$DIMATFIT
 70
3
  9
$DIMFRAC
 70
0
  9
$DIMLDRBLK
  1

  9
$DIMLUNIT
 70
2
  9
$DIMLWD
 70
-2
  9
$DIMLWE
 70
-2
  9
$DIMTMOVE
 70
0
  9
$DIMFXL
 40
1.0
  9
$DIMFXLON
 70
0
  9
$DIMJOGANG
 40
0.785398163397
  9
$DIMTFILL
 70
0
  9
$DIMTFILLCLR
 70
0
  9
$DIMARCSYM
 70
0
  9
$DIMLTYPE
  6

  9
$DIMLTEX1
  6

  9
$DIMLTEX2
  6

  9
$DIMTXTDIRECTION
 70
0
  9
$LUNITS
 70
2
  9
$LUPREC
 70
4
  9
$SKETCHINC
 40
1.0
  9
$FILLETRAD
 40
10.0
  9
$AUNITS
 70
0
  9
$AUPREC
 70
2
  9
$MENU
  1
.
  9
$ELEVATION
 40
0.0
  9
$PELEVATION
 40
0.0
  9
$THICKNESS
 40
0.0
  9
$LIMCHECK
 70
0
  9
$CHAMFERA
 40
0.0
  9
$CHAMFERB
 40
0.0
  9
$CHAMFERC
 40
0.0
  9
$CHAMFERD
 40
0.0
  9
$SKPOLY
 70
0
  9
$TDCREATE
 40
2461305.9343055557
  9
$TDUCREATE
 40
2458532.153996898
  9
$TDUPDATE
 40
2461305.9343055557
  9
$TDUUPDATE
 40
2458532.1544311
  9
$TDINDWG
 40
0.0
  9
$TDUSRTIMER
 40
0.0
  9
$USRTIMER
 70
1
  9
$ANGBASE
 50
0.0
  9
$ANGDIR
 70
0
  9
$PDMODE
 70
0
  9
$PDSIZE
 40
0.0
  9
$PLINEWID
 40
0.0
  9
$SPLFRAME
 70
0
  9
$SPLINETYPE
 70
6
  9
$SPLINESEGS
 70
8
  9
$HANDSEED
  5
147
  9
$SURFTAB1
 70
6
  9
$SURFTAB2
 70
6
  9
$SURFTYPE
 70
6
  9
$SURFU
 70
6
  9
$SURFV
 70
6
  9
$UCSBASE
  2

  9
$UCSNAME
  2

  9
$UCSORG
 10
0.0
 20
0.0
 30
0.0
  9
$UCSXDIR
 10
1.0
 20
0.0
 30
0.0
  9
$UCSYDIR
 10
0.0
 20
1.0
 30
0.0
  9
$UCSORTHOREF
  2

  9
$UCSORTHOVIEW
 70
0
  9
$UCSORGTOP
 10
0.0
 20
0.0
 30
0.0
  9
$UCSORGBOTTOM
 10
0.0
 20
0.0
 30
0.0
  9
$UCSORGLEFT
 10
0.0
 20
0.0
 30
0.0
  9
$UCSORGRIGHT
 10
0.0
 20
0.0
 30
0.0
  9
$UCSORGFRONT
 10
0.0
 20
0.0
 30
0.0
  9
$UCSORGBACK
 10
0.0
 20
0.0
 30
0.0
  9
$PUCSBASE
  2

  9
$PUCSNAME
  2

  9
$PUCSORG
 10
0.0
 20
0.0
 30
0.0
  9
$PUCSXDIR
 10
1.0
 20
0.0
 30
0.0
  9
$PUCSYDIR
 10
0.0
 20
1.0
 30
0.0
  9
$PUCSORTHOREF
  2

  9
$PUCSORTHOVIEW
 70
0
  9
$PUCSORGTOP
 10
0.0
 20
0.0
 30
0.0
  9
$PUCSORGBOTTOM
 10
0.0
 20
0.0
 30
0.0
  9
$PUCSORGLEFT
 10
0.0
 20
0.0
 30
0.0
  9
$PUCSORGRIGHT
 10
0.0
 20
0.0
 30
0.0
  9
$PUCSORGFRONT
 10
0.0
 20
0.0
 30
0.0
  9
$PUCSORGBACK
 10
0.0
 20
0.0
 30
0.0
  9
$USERI1
 70
0
  9
$USERI2
 70
0
  9
$USERI3
 70
0
  9
$USERI4
 70
0
  9
$USERI5
 70
0
  9
$USERR1
 40
0.0
  9
$USERR2
 40
0.0
  9
$USERR3
 40
0.0
  9
$USERR4
 40
0.0
  9
$USERR5
 40
0.0
  9
$WORLDVIEW
 70
1
  9
$SHADEDGE
 70
3
  9
$SHADEDIF
 70
70
  9
$TILEMODE
 70
1
  9
$MAXACTVP
 70
64
  9
$PINSBASE
 10
0.0
 20
0.0
 30
0.0
  9
$PLIMCHECK
 70
0
  9
$PEXTMIN
 10
1e+20
 20
1e+20
 30
1e+20
  9
$PEXTMAX
 10
-1e+20
 20
-1e+20
 30
-1e+20
  9
$PLIMMIN
 10
0.0
 20
0.0
  9
$PLIMMAX
 10
420.0
 20
297.0
  9
$UNITMODE
 70
0
  9
$VISRETAIN
 70
1
  9
$PLINEGEN
 70
0
  9
$PSLTSCALE
 70
1
  9
$TREEDEPTH
 70
3020
  9
$CMLSTYLE
  2
Standard
  9
$CMLJUST
 70
0
  9
$CMLSCALE
 40
20.0
  9
$PROXYGRAPHICS
 70
1
  9
$MEASUREMENT
 70
1
  9
$CELWEIGHT
370
-1
  9
$ENDCAPS
280
0
  9
$JOINSTYLE
280
0
  9
$LWDISPLAY
290
0
  9
$INSUNITS
 70
6
  9
$HYPERLINKBASE
  1

  9
$STYLESHEET
  1

  9
$XEDIT
290
1
  9
$CEPSNTYPE
380
0
  9
$PSTYLEMODE
290
1
  9
$FINGERPRINTGUID
  2
{8E9CCFF0-FC82-458A-BA9A-63D9D278C380}
  9
$VERSIONGUID
  2
{642218FC-F4B1-43F2-B13A-650AC9C95FC2}
  9
$EXTNAMES
290
1
  9
$PSVPSCALE
 40
0.0
  9
$OLESTARTUP
290
0
  9
$SORTENTS
280
127
  9
$INDEXCTL
280
0
  9
$HIDETEXT
280
1
  9
$XCLIPFRAME
280
1
  9
$HALOGAP
280
0
  9
$OBSCOLOR
 70
257
  9
$OBSLTYPE
280
0
  9
$INTERSECTIONDISPLAY
280
0
  9
$INTERSECTIONCOLOR
 70
257
  9
$DIMASSOC
280
2
  9
$PROJECTNAME
  1

  9
$CAMERADISPLAY
290
0
  9
$LENSLENGTH
 40
50.0
  9
$CAMERAHEIGHT
 40
0.0
  9
$STEPSPERSEC
 40
24.0
  9
$STEPSIZE
 40
100.0
  9
$3DDWFPREC
 40
2.0
  9
$PSOLWIDTH
 40
0.005
  9
$PSOLHEIGHT
 40
0.08
  9
$LOFTANG1
 40
1.570796326795
  9
$LOFTANG2
 40
1.570796326795
  9
$LOFTMAG1
 40
0.0
  9
$LOFTMAG2
 40
0.0
  9
$LOFTPARAM
 70
7
  9
$LOFTNORMALS
280
1
  9
$LATITUDE
 40
37.795
  9
$LONGITUDE
 40
-122.394
  9
$NORTHDIRECTION
 40
0.0
  9
$TIMEZONE
 70
-8000
  9
$LIGHTGLYPHDISPLAY
280
1
  9
$TILEMODELIGHTSYNCH
280
1
  9
$CMATERIAL
347
20
  9
$SOLIDHIST
280
0
  9
$SHOWHIST
280
1
  9
$DWFFRAME
280
2
  9
$DGNFRAME
280
2
  9
$REALWORLDSCALE
290
1
  9
$INTERFERECOLOR
 62
256
  9
$CSHADOW
280
0
  9
$SHADOWPLANELOCATION
 40
0.0
  0
ENDSEC
  0
SECTION
  2
CLASSES
  0
CLASS
  1
ACDBDICTIONARYWDFLT
  2
AcDbDictionaryWithDefault
  3
ObjectDBX Classes
 90
0
 91
0
280
0
281
0
  0
CLASS
  1
SUN
  2
AcDbSun
  3
SCENEOE
 90
1153
 91
0
280
0
281
0
  0
CLASS
  1
VISUALSTYLE
  2
AcDbVisualStyle
  3
ObjectDBX Classes
 90
4095
 91
0
280
0
281
0
  0
CLASS
  1
MATERIAL
  2
AcDbMaterial
  3
ObjectDBX Classes
 90
1153
 91
0
280
0
281
0
  0
CLASS
  1
SCALE
  2
AcDbScale
  3
ObjectDBX Classes
 90
1153
 91
0
280
0
281
0
  0
CLASS
  1
TABLESTYLE
  2
AcDbTableStyle
  3
ObjectDBX Classes
 90
4095
 91
0
280
0
281
0
  0
CLASS
  1
MLEADERSTYLE
  2
AcDbMLeaderStyle
  3
ACDB_MLEADERSTYLE_CLASS
 90
4095
 91
0
280
0
281
0
  0
CLASS
  1
DICTIONARYVAR
  2
AcDbDictionaryVar
  3
ObjectDBX Classes
 90
0
 91
0
280
0
281
0
  0
CLASS
  1
CELLSTYLEMAP
  2
AcDbCellStyleMap
  3
ObjectDBX Classes
 90
1152
 91
0
280
0
281
0
  0
CLASS
  1
MENTALRAYRENDERSETTINGS
  2
AcDbMentalRayRenderSettings
  3
SCENEOE
 90
1024
 91
0
280
0
281
0
  0
CLASS
  1
ACDBDETAILVIEWSTYLE
  2
AcDbDetailViewStyle
  3
ObjectDBX Classes
 90
1025
 91
0
280
0
281
0
  0
CLASS
  1
ACDBSECTIONVIEWSTYLE
  2
AcDbSectionViewStyle
  3
ObjectDBX Classes
 90
1025
 91
0
280
0
281
0
  0
CLASS
  1
RASTERVARIABLES
  2
AcDbRasterVariables
  3
ISM
 90
0
 91
0
280
0
281
0
  0
CLASS
  1
ACDBPLACEHOLDER
  2
AcDbPlaceHolder
  3
ObjectDBX Classes
 90
0
 91
0
280
0
281
0
  0
CLASS
  1
LAYOUT
  2
AcDbLayout
  3
ObjectDBX Classes
 90
0
 91
0
280
0
281
0
  0
ENDSEC
  0
SECTION
  2
TABLES
  0
TABLE
  2
VPORT
  5
8
330
0
100
AcDbSymbolTable
 70
1
  0
VPORT
  5
23
330
8
100
AcDbSymbolTableRecord
100
AcDbViewportTableRecord
  2
*Active
 70
0
 10
0.0
 20
0.0
 11
1.0
 21
1.0
 12
0.0
 22
0.0
 13
0.0
 23
0.0
 14
0.5
 24
0.5
 15
0.5
 25
0.5
 16
0.0
 26
0.0
 36
1.0
 17
0.0
 27
0.0
 37
0.0
 40
1000.0
 41
1.34
 42
50.0
 43
0.0
 44
0.0
 50
0.0
 51
0.0
 71
0
 72
1000
 73
1
 74
3
 75
0
 76
0
 77
0
 78
0
281
0
 65
0
146
0.0
  0
ENDTAB
  0
TABLE
  2
LTYPE
  5
2
330
0
100
AcDbSymbolTable
 70
3
  0
LTYPE
  5
24
330
2
100
AcDbSymbolTableRecord
100
AcDbLinetypeTableRecord
  2
ByBlock
 70
0
  3

 72
65
 73
0
 40
0.0
  0
LTYPE
  5
25
330
2
100
AcDbSymbolTableRecord
100
AcDbLinetypeTableRecord
  2
ByLayer
 70
0
  3

 72
65
 73
0
 40
0.0
  0
LTYPE
  5
26
330
2
100
AcDbSymbolTableRecord
100
AcDbLinetypeTableRecord
  2
Continuous
 70
0
  3

 72
65
 73
0
 40
0.0
  0
ENDTAB
  0
TABLE
  2
LAYER
  5
1
330
0
100
AcDbSymbolTable
 70
10
  0
LAYER
  5
27
330
1
100
AcDbSymbolTableRecord
100
AcDbLayerTableRecord
  2
0
 70
0
 62
7
  6
Continuous
370
-3
390
13
347
21
  0
LAYER
  5
28
330
1
100
AcDbSymbolTableRecord
100
AcDbLayerTableRecord
  2
Defpoints
 70
0
 62
7
  6
Continuous
290
0
370
-3
390
13
347
21
  0
LAYER
  5
2F
330
1
100
AcDbSymbolTableRecord
100
AcDbLayerTableRecord
  2
OUTLINE
 70
0
 62
7
  6
Continuous
370
-3
390
13
347
21
  0
LAYER
  5
30
330
1
100
AcDbSymbolTableRecord
100
AcDbLayerTableRecord
  2
CUTOUTS
 70
0
 62
3
  6
Continuous
370
-3
390
13
347
21
  0
LAYER
  5
31
330
1
100
AcDbSymbolTableRecord
100
AcDbLayerTableRecord
  2
HOLES
 70
0
 62
4
  6
Continuous
370
-3
390
13
347
21
  0
LAYER
  5
32
330
1
100
AcDbSymbolTableRecord
100
AcDbLayerTableRecord
  2
NOTCHES
 70
0
 62
6
  6
Continuous
370
-3
390
13
347
21
  0
LAYER
  5
33
330
1
100
AcDbSymbolTableRecord
100
AcDbLayerTableRecord
  2
SHEETS_1_5
 70
0
 62
4
  6
Continuous
370
-3
390
13
347
21
  0
LAYER
  5
34
330
1
100
AcDbSymbolTableRecord
100
AcDbLayerTableRecord
  2
SHEETS_1_2
 70
0
 62
3
  6
Continuous
370
-3
390
13
347
21
  0
LAYER
  5
35
330
1
100
AcDbSymbolTableRecord
100
AcDbLayerTableRecord
  2
PART_LABELS
 70
0
 62
7
  6
Continuous
370
-3
390
13
347
21
  0
LAYER
  5
36
330
1
100
AcDbSymbolTableRecord
100
AcDbLayerTableRecord
  2
TEXT
 70
0
 62
2
  6
Continuous
370
-3
390
13
347
21
  0
ENDTAB
  0
TABLE
  2
STYLE
  5
5
330
0
100
AcDbSymbolTable
 70
1
  0
STYLE
  5
29
330
5
100
AcDbSymbolTableRecord
100
AcDbTextStyleTableRecord
  2
Standard
 70
0
 40
0.0
 41
1.0
 50
0.0
 71
0
 42
2.5
  3
txt
  4

  0
ENDTAB
  0
TABLE
  2
VIEW
  5
7
330
0
100
AcDbSymbolTable
 70
0
  0
ENDTAB
  0
TABLE
  2
UCS
  5
6
330
0
100
AcDbSymbolTable
 70
0
  0
ENDTAB
  0
TABLE
  2
APPID
  5
3
330
0
100
AcDbSymbolTable
 70
3
  0
APPID
  5
2A
330
3
100
AcDbSymbolTableRecord
100
AcDbRegAppTableRecord
  2
ACAD
 70
0
  0
APPID
  5
144
330
3
100
AcDbSymbolTableRecord
100
AcDbRegAppTableRecord
  2
HATCHBACKGROUNDCOLOR
 70
0
  0
APPID
  5
145
330
3
100
AcDbSymbolTableRecord
100
AcDbRegAppTableRecord
  2
EZDXF
 70
0
  0
ENDTAB
  0
TABLE
  2
DIMSTYLE
  5
4
330
0
100
AcDbSymbolTable
 70
1
100
AcDbDimStyleTable
  0
DIMSTYLE
105
2B
330
4
100
AcDbSymbolTableRecord
100
AcDbDimStyleTableRecord
  2
Standard
 70
0
 40
1.0
 41
2.5
 42
0.625
 43
3.75
 44
1.25
 45
0.0
 46
0.0
 47
0.0
 48
0.0
 49
2.5
140
2.5
141
2.5
142
0.0
143
0.03937007874
144
1.0
145
0.0
146
1.0
147
0.625
148
0.0
 69
0
 70
0
 71
0
 72
0
 73
0
 74
0
 75
0
 76
0
 77
1
 78
8
 79
3
170
0
171
3
172
1
173
0
174
0
175
0
176
0
177
0
178
0
179
2
271
2
272
2
273
2
274
3
275
0
276
0
277
2
278
44
279
0
280
0
281
0
282
0
283
0
284
8
285
0
286
0
288
0
289
3
290
0
371
-2
372
-2
  0
ENDTAB
  0
TABLE
  2
BLOCK_RECORD
  5
9
330
0
100
AcDbSymbolTable
 70
7
  0
BLOCK_RECORD
  5
17
330
9
100
AcDbSymbolTableRecord
100
AcDbBlockTableRecord
  2
*Model_Space
340
1A
 70
0
280
1
281
0
  0
BLOCK_RECORD
  5
1B
330
9
100
AcDbSymbolTableRecord
100
AcDbBlockTableRecord
  2
*Paper_Space
340
1E
 70
0
280
1
281
0
  0
BLOCK_RECORD
  5
37
330
9
100
AcDbSymbolTableRecord
100
AcDbBlockTableRecord
  2
B_D1_HINGE_POST
340
0
 70
0
280
1
281
0
  0
BLOCK_RECORD
  5
8E
330
9
100
AcDbSymbolTableRecord
100
AcDbBlockTableRecord
  2
B_D1_LOCK_POST
340
0
 70
0
280
1
281
0
  0
BLOCK_RECORD
  5
DF
330
9
100
AcDbSymbolTableRecord
100
AcDbBlockTableRecord
  2
B_D1_HEADER
340
0
 70
0
280
1
281
0
  0
BLOCK_RECORD
  5
FC
330
9
100
AcDbSymbolTableRecord
100
AcDbBlockTableRecord
  2
B_D1_LEAF1
340
0
 70
0
280
1
281
0
  0
BLOCK_RECORD
  5
11B
330
9
100
AcDbSymbolTableRecord
100
AcDbBlockTableRecord
  2
B_D1_LEAF2
340
0
 70
0
280
1
281
0
  0
ENDTAB
  0
ENDSEC
  0
SECTION
  2
BLOCKS
  0
BLOCK
  5
18
330
17
100
AcDbEntity
  8
0
100
AcDbBlockBegin
  2
*Model_Space
 70
0
 10
0.0
 20
0.0
 30
0.0
  3
*Model_Space
  1

  0
ENDBLK
  5
19
330
17
100
AcDbEntity
  8
0
100
AcDbBlockEnd
  0
BLOCK
  5
1C
330
1B
100
AcDbEntity
  8
0
100
AcDbBlockBegin
  2
*Paper_Space
 70
0
 10
0.0
 20
0.0
 30
0.0
  3
*Paper_Space
  1

  0
ENDBLK
  5
1D
330
1B
100
AcDbEntity
  8
0
100
AcDbBlockEnd
  0
BLOCK
  5
38
330
37
100
AcDbEntity
  8
0
100
AcDbBlockBegin
  2
B_D1_HINGE_POST
 70
0
 10
0.0
 20
0.0
 30
0.0
  3
B_D1_HINGE_POST
  1

  0
LINE
  5
3A
330
37
100
AcDbEntity
  8
NOTCHES
100
AcDbLine
 10
164.23574805195915
 20
3.0
 30
0.0
 11
164.23574805195915
 21
0.0
 31
0.0
  0
LINE
  5
3B
330
37
100
AcDbEntity
  8
NOTCHES
100
AcDbLine
 10
279.2357867239649
 20
3.0
 30
0.0
 11
279.2357867239649
 21
0.0
 31
0.0
  0
LINE
  5
3C
330
37
100
AcDbEntity
  8
NOTCHES
100
AcDbLine
 10
156.6020093798312
 20
3.0
 30
0.0
 11
156.6020093798312
 21
0.0
 31
0.0
  0
LINE
  5
3D
330
37
100
AcDbEntity
  8
NOTCHES
100
AcDbLine
 10
71.70079336414562
 20
3.0
 30
0.0
 11
71.70079336414562
 21
0.0
 31
0.0
  0
LINE
  5
3E
330
37
100
AcDbEntity
  8
NOTCHES
100
AcDbLine
 10
332.36952539586
 20
3.0
 30
0.0
 11
332.36952539586
 21
0.0
 31
0.0
  0
LINE
  5
3F
330
37
100
AcDbEntity
  8
NOTCHES
100
AcDbLine
 10
18.567054692250622
 20
3.0
 30
0.0
 11
18.567054692250622
 21
0.0
 31
0.0
  0
LINE
  5
40
330
37
100
AcDbEntity
  8
NOTCHES
100
AcDbLine
 10
145.96827070793586
 20
1.0
 30
0.0
 11
145.96827070793586
 21
0.0
 31
0.0
  0
LINE
  5
41
330
37
100
AcDbEntity
  8
NOTCHES
100
AcDbLine
 10
134.3345320360412
 20
1.047160253394394
 30
0.0
 11
134.3345320360412
 21
0.0471602533943951
 31
0.0
  0
LINE
  5
42
330
37
100
AcDbEntity
  8
NOTCHES
100
AcDbLine
 10
71.70079336414562
 20
2061.5
 30
0.0
 11
71.70079336414562
 21
2058.5
 31
0.0
  0
LINE
  5
43
330
37
100
AcDbEntity
  8
NOTCHES
100
AcDbLine
 10
134.3345320360412
 20
2059.25
 30
0.0
 11
134.3345320360412
 21
2058.25
 31
0.0
  0
LINE
  5
44
330
37
100
AcDbEntity
  8
NOTCHES
100
AcDbLine
 10
145.96827070793586
 20
2048.5
 30
0.0
 11
145.96827070793586
 21
2047.5
 31
0.0
  0
LINE
  5
45
330
37
100
AcDbEntity
  8
NOTCHES
100
AcDbLine
 10
156.6020093798312
 20
2046.25
 30
0.0
 11
156.6020093798312
 21
2043.25
 31
0.0
  0
LINE
  5
46
330
37
100
AcDbEntity
  8
NOTCHES
100
AcDbLine
 10
164.23574805195915
 20
2039.5
 30
0.0
 11
164.23574805195915
 21
2036.5
 31
0.0
  0
LINE
  5
47
330
37
100
AcDbEntity
  8
NOTCHES
100
AcDbLine
 10
279.2357867239649
 20
2039.5
 30
0.0
 11
279.2357867239649
 21
2036.5
 31
0.0
  0
LINE
  5
48
330
37
100
AcDbEntity
  8
NOTCHES
100
AcDbLine
 10
332.36952539586
 20
2097.75
 30
0.0
 11
332.36952539586
 21
2094.75
 31
0.0
  0
LINE
  5
49
330
37
100
AcDbEntity
  8
NOTCHES
100
AcDbLine
 10
18.567054692250622
 20
2097.75
 30
0.0
 11
18.567054692250622
 21
2094.75
 31
0.0
  0
LWPOLYLINE
  5
4A
330
37
100
AcDbEntity
  8
OUTLINE
100
AcDbPolyline
 90
44
 70
1
 10
162.6688787160116
 20
2041.0
 10
158.1688787160116
 20
2045.5
 10
155.03514004411625
 20
2047.0
 10
147.5351400441166
 20
2047.0
 10
144.40140137198853
 20
2050.0
 10
135.9014013719883
 20
2058.5
 10
132.7676627000933
 20
2060.0
 10
120.76766270009364
 20
2060.0
 10
120.76766270009364
 20
2069.0
 10
117.7676627000933
 20
2072.0
 10
113.76766270009364
 20
2072.0
 10
110.7676627000933
 20
2069.0
 10
110.7676627000933
 20
2060.0
 10
95.2676627000933
 20
2060.0
 10
95.2676627000933
 20
2069.0
 10
92.26766270009364
 20
2072.0
 10
88.2676627000933
 20
2072.0
 10
85.26766270009341
 20
2069.0
 10
85.26766270009341
 20
2060.0
 10
73.2676627000933
 20
2060.0
 10
70.13392402796535
 20
2063.0
 10
20.133924028431124
 20
2097.0
 10
17.00018535607012
 20
2098.5
 10
0.00015469227469111502
 20
2098.5
 10
0.00015469227469111502
 20
0.0
 10
355.9363947318069
 20
0.0
 10
355.93639473203996
 20
2098.5
 10
333.93639473180804
 20
2098.5
 10
330.802656059912
 20
2097.0
 10
280.802656059912
 20
2041.0
 10
277.66891738778384
 20
2038.0
 10
265.6689173880169
 20
2038.0
 10
265.6689173880169
 20
2047.0
 10
262.6689173880169
 20
2050.0
 10
258.6689173880169
 20
2050.0
 10
255.6689173880169
 20
2047.0
 10
255.6689173880169
 20
2038.0
 10
187.80261738790693
 20
2038.0
 10
187.80261738790693
 20
2047.0
 10
184.8026173879067
 20
2050.0
 10
180.8026173879066
 20
2050.0
 10
177.8026173879066
 20
2047.0
 10
177.8026173879066
 20
2038.0
 10
165.8026173879066
 20
2038.0
  0
LWPOLYLINE
  5
4B
330
37
100
AcDbEntity
  8
CUTOUTS
100
AcDbPolyline
 90
4
 70
1
 10
69.90079336409906
 20
1973.5
 10
100.40079336409929
 20
1973.5
 10
100.40079336409929
 20
1871.5
 10
69.90079336409906
 20
1871.5
  0
LINE
  5
4C
330
37
100
AcDbEntity
  8
NOTCHES
100
AcDbLine
 10
164.23574805195915
 20
3.0
 30
0.0
 11
164.23574805195915
 21
0.0
 31
0.0
  0
LINE
  5
4D
330
37
100
AcDbEntity
  8
NOTCHES
100
AcDbLine
 10
279.2357867239649
 20
3.0
 30
0.0
 11
279.2357867239649
 21
0.0
 31
0.0
  0
LINE
  5
4E
330
37
100
AcDbEntity
  8
NOTCHES
100
AcDbLine
 10
156.6020093798312
 20
3.0
 30
0.0
 11
156.6020093798312
 21
0.0
 31
0.0
  0
LINE
  5
4F
330
37
100
AcDbEntity
  8
NOTCHES
100
AcDbLine
 10
71.70079336414562
 20
3.0
 30
0.0
 11
71.70079336414562
 21
0.0
 31
0.0
  0
LINE
  5
50
330
37
100
AcDbEntity
  8
NOTCHES
100
AcDbLine
 10
332.36952539586
 20
3.0
 30
0.0
 11
332.36952539586
 21
0.0
 31
0.0
  0
LINE
  5
51
330
37
100
AcDbEntity
  8
NOTCHES
100
AcDbLine
 10
18.567054692250622
 20
3.0
 30
0.0
 11
18.567054692250622
 21
0.0
 31
0.0
  0
LINE
  5
52
330
37
100
AcDbEntity
  8
NOTCHES
100
AcDbLine
 10
145.96827070793586
 20
1.0
 30
0.0
 11
145.96827070793586
 21
0.0
 31
0.0
  0
LINE
  5
53
330
37
100
AcDbEntity
  8
NOTCHES
100
AcDbLine
 10
134.3345320360412
 20
1.047160253394394
 30
0.0
 11
134.3345320360412
 21
0.0471602533943951
 31
0.0
  0
LINE
  5
54
330
37
100
AcDbEntity
  8
NOTCHES
100
AcDbLine
 10
71.70079336414562
 20
2061.5
 30
0.0
 11
71.70079336414562
 21
2058.5
 31
0.0
  0
LINE
  5
55
330
37
100
AcDbEntity
  8
NOTCHES
100
AcDbLine
 10
134.3345320360412
 20
2059.25
 30
0.0
 11
134.3345320360412
 21
2058.25
 31
0.0
  0
LINE
  5
56
330
37
100
AcDbEntity
  8
NOTCHES
100
AcDbLine
 10
145.96827070793586
 20
2048.5
 30
0.0
 11
145.96827070793586
 21
2047.5
 31
0.0
  0
LINE
  5
57
330
37
100
AcDbEntity
  8
NOTCHES
100
AcDbLine
 10
156.6020093798312
 20
2046.25
 30
0.0
 11
156.6020093798312
 21
2043.25
 31
0.0
  0
LINE
  5
58
330
37
100
AcDbEntity
  8
NOTCHES
100
AcDbLine
 10
164.23574805195915
 20
2039.5
 30
0.0
 11
164.23574805195915
 21
2036.5
 31
0.0
  0
LINE
  5
59
330
37
100
AcDbEntity
  8
NOTCHES
100
AcDbLine
 10
279.2357867239649
 20
2039.5
 30
0.0
 11
279.2357867239649
 21
2036.5
 31
0.0
  0
LINE
  5
5A
330
37
100
AcDbEntity
  8
NOTCHES
100
AcDbLine
 10
332.36952539586
 20
2097.75
 30
0.0
 11
332.36952539586
 21
2094.75
 31
0.0
  0
LINE
  5
5B
330
37
100
AcDbEntity
  8
NOTCHES
100
AcDbLine
 10
18.567054692250622
 20
2097.75
 30
0.0
 11
18.567054692250622
 21
2094.75
 31
0.0
  0
LWPOLYLINE
  5
5C
330
37
100
AcDbEntity
  8
CUTOUTS
100
AcDbPolyline
 90
4
 70
1
 10
69.90079336409906
 20
1973.5
 10
100.40079336409929
 20
1973.5
 10
100.40079336409929
 20
1871.5
 10
69.90079336409906
 20
1871.5
  0
LINE
  5
5D
330
37
100
AcDbEntity
  8
NOTCHES
100
AcDbLine
 10
164.23574805195915
 20
3.0
 30
0.0
 11
164.23574805195915
 21
0.0
 31
0.0
  0
LINE
  5
5E
330
37
100
AcDbEntity
  8
NOTCHES
100
AcDbLine
 10
279.2357867239649
 20
3.0
 30
0.0
 11
279.2357867239649
 21
0.0
 31
0.0
  0
LINE
  5
5F
330
37
100
AcDbEntity
  8
NOTCHES
100
AcDbLine
 10
156.6020093798312
 20
3.0
 30
0.0
 11
156.6020093798312
 21
0.0
 31
0.0
  0
LINE
  5
60
330
37
100
AcDbEntity
  8
NOTCHES
100
AcDbLine
 10
71.70079336414562
 20
3.0
 30
0.0
 11
71.70079336414562
 21
0.0
 31
0.0
  0
LINE
  5
61
330
37
100
AcDbEntity
  8
NOTCHES
100
AcDbLine
 10
332.36952539586
 20
3.0
 30
0.0
 11
332.36952539586
 21
0.0
 31
0.0
  0
LINE
  5
62
330
37
100
AcDbEntity
  8
NOTCHES
100
AcDbLine
 10
18.567054692250622
 20
3.0
 30
0.0
 11
18.567054692250622
 21
0.0
 31
0.0
  0
LINE
  5
63
330
37
100
AcDbEntity
  8
NOTCHES
100
AcDbLine
 10
145.96827070793586
 20
1.0
 30
0.0
 11
145.96827070793586
 21
0.0
 31
0.0
  0
LINE
  5
64
330
37
100
AcDbEntity
  8
NOTCHES
100
AcDbLine
 10
134.3345320360412
 20
1.047160253394394
 30
0.0
 11
134.3345320360412
 21
0.0471602533943951
 31
0.0
  0
LINE
  5
65
330
37
100
AcDbEntity
  8
NOTCHES
100
AcDbLine
 10
71.70079336414562
 20
2061.5
 30
0.0
 11
71.70079336414562
 21
2058.5
 31
0.0
  0
LINE
  5
66
330
37
100
AcDbEntity
  8
NOTCHES
100
AcDbLine
 10
134.3345320360412
 20
2059.25
 30
0.0
 11
134.3345320360412
 21
2058.25
 31
0.0
  0
LINE
  5
67
330
37
100
AcDbEntity
  8
NOTCHES
100
AcDbLine
 10
145.96827070793586
 20
2048.5
 30
0.0
 11
145.96827070793586
 21
2047.5
 31
0.0
  0
LINE
  5
68
330
37
100
AcDbEntity
  8
NOTCHES
100
AcDbLine
 10
156.6020093798312
 20
2046.25
 30
0.0
 11
156.6020093798312
 21
2043.25
 31
0.0
  0
LINE
  5
69
330
37
100
AcDbEntity
  8
NOTCHES
100
AcDbLine
 10
164.23574805195915
 20
2039.5
 30
0.0
 11
164.23574805195915
 21
2036.5
 31
0.0
  0
LINE
  5
6A
330
37
100
AcDbEntity
  8
NOTCHES
100
AcDbLine
 10
279.2357867239649
 20
2039.5
 30
0.0
 11
279.2357867239649
 21
2036.5
 31
0.0
  0
LINE
  5
6B
330
37
100
AcDbEntity
  8
NOTCHES
100
AcDbLine
 10
332.36952539586
 20
2097.75
 30
0.0
 11
332.36952539586
 21
2094.75
 31
0.0
  0
LINE
  5
6C
330
37
100
AcDbEntity
  8
NOTCHES
100
AcDbLine
 10
18.567054692250622
 20
2097.75
 30
0.0
 11
18.567054692250622
 21
2094.75
 31
0.0
  0
LWPOLYLINE
  5
6D
330
37
100
AcDbEntity
  8
CUTOUTS
100
AcDbPolyline
 90
4
 70
1
 10
69.90079336409906
 20
1973.5
 10
100.40079336409929
 20
1973.5
 10
100.40079336409929
 20
1871.5
 10
69.90079336409906
 20
1871.5
  0
LINE
  5
6E
330
37
100
AcDbEntity
  8
NOTCHES
100
AcDbLine
 10
164.23574805195915
 20
3.0
 30
0.0
 11
164.23574805195915
 21
0.0
 31
0.0
  0
LINE
  5
6F
330
37
100
AcDbEntity
  8
NOTCHES
100
AcDbLine
 10
279.2357867239649
 20
3.0
 30
0.0
 11
279.2357867239649
 21
0.0
 31
0.0
  0
LINE
  5
70
330
37
100
AcDbEntity
  8
NOTCHES
100
AcDbLine
 10
156.6020093798312
 20
3.0
 30
0.0
 11
156.6020093798312
 21
0.0
 31
0.0
  0
LINE
  5
71
330
37
100
AcDbEntity
  8
NOTCHES
100
AcDbLine
 10
71.70079336414562
 20
3.0
 30
0.0
 11
71.70079336414562
 21
0.0
 31
0.0
  0
LINE
  5
72
330
37
100
AcDbEntity
  8
NOTCHES
100
AcDbLine
 10
332.36952539586
 20
3.0
 30
0.0
 11
332.36952539586
 21
0.0
 31
0.0
  0
LINE
  5
73
330
37
100
AcDbEntity
  8
NOTCHES
100
AcDbLine
 10
18.567054692250622
 20
3.0
 30
0.0
 11
18.567054692250622
 21
0.0
 31
0.0
  0
LINE
  5
74
330
37
100
AcDbEntity
  8
NOTCHES
100
AcDbLine
 10
145.96827070793586
 20
1.0
 30
0.0
 11
145.96827070793586
 21
0.0
 31
0.0
  0
LINE
  5
75
330
37
100
AcDbEntity
  8
NOTCHES
100
AcDbLine
 10
134.3345320360412
 20
1.047160253394394
 30
0.0
 11
134.3345320360412
 21
0.0471602533943951
 31
0.0
  0
LINE
  5
76
330
37
100
AcDbEntity
  8
NOTCHES
100
AcDbLine
 10
71.70079336414562
 20
2061.5
 30
0.0
 11
71.70079336414562
 21
2058.5
 31
0.0
  0
LINE
  5
77
330
37
100
AcDbEntity
  8
NOTCHES
100
AcDbLine
 10
134.3345320360412
 20
2059.25
 30
0.0
 11
134.3345320360412
 21
2058.25
 31
0.0
  0
LINE
  5
78
330
37
100
AcDbEntity
  8
NOTCHES
100
AcDbLine
 10
145.96827070793586
 20
2048.5
 30
0.0
 11
145.96827070793586
 21
2047.5
 31
0.0
  0
LINE
  5
79
330
37
100
AcDbEntity
  8
NOTCHES
100
AcDbLine
 10
156.6020093798312
 20
2046.25
 30
0.0
 11
156.6020093798312
 21
2043.25
 31
0.0
  0
LINE
  5
7A
330
37
100
AcDbEntity
  8
NOTCHES
100
AcDbLine
 10
164.23574805195915
 20
2039.5
 30
0.0
 11
164.23574805195915
 21
2036.5
 31
0.0
  0
LINE
  5
7B
330
37
100
AcDbEntity
  8
NOTCHES
100
AcDbLine
 10
279.2357867239649
 20
2039.5
 30
0.0
 11
279.2357867239649
 21
2036.5
 31
0.0
  0
LINE
  5
7C
330
37
100
AcDbEntity
  8
NOTCHES
100
AcDbLine
 10
332.36952539586
 20
2097.75
 30
0.0
 11
332.36952539586
 21
2094.75
 31
0.0
  0
LINE
  5
7D
330
37
100
AcDbEntity
  8
NOTCHES
100
AcDbLine
 10
18.567054692250622
 20
2097.75
 30
0.0
 11
18.567054692250622
 21
2094.75
 31
0.0
  0
LWPOLYLINE
  5
7E
330
37
100
AcDbEntity
  8
CUTOUTS
100
AcDbPolyline
 90
4
 70
1
 10
69.90079336409906
 20
1973.5
 10
100.40079336409929
 20
1973.5
 10
100.40079336409929
 20
1871.5
 10
69.90079336409906
 20
1871.5
  0
LWPOLYLINE
  5
7F
330
37
100
AcDbEntity
  8
CUTOUTS
100
AcDbPolyline
 90
4
 70
1
 10
69.90079336386634
 20
252.0
 10
100.40079336386634
 20
252.0
 10
100.40079336386634
 20
150.0
 10
69.90079336386634
 20
150.0
  0
LWPOLYLINE
  5
80
330
37
100
AcDbEntity
  8
CUTOUTS
100
AcDbPolyline
 90
4
 70
1
 10
69.90079336386634
 20
252.0
 10
100.40079336386634
 20
252.0
 10
100.40079336386634
 20
150.0
 10
69.90079336386634
 20
150.0
  0
LWPOLYLINE
  5
81
330
37
100
AcDbEntity
  8
CUTOUTS
100
AcDbPolyline
 90
4
 70
1
 10
69.90079336386634
 20
252.0
 10
100.40079336386634
 20
252.0
 10
100.40079336386634
 20
150.0
 10
69.90079336386634
 20
150.0
  0
LWPOLYLINE
  5
82
330
37
100
AcDbEntity
  8
CUTOUTS
100
AcDbPolyline
 90
4
 70
1
 10
69.90079336386634
 20
252.0
 10
100.40079336386634
 20
252.0
 10
100.40079336386634
 20
150.0
 10
69.90079336386634
 20
150.0
  0
LWPOLYLINE
  5
83
330
37
100
AcDbEntity
  8
CUTOUTS
100
AcDbPolyline
 90
4
 70
1
 10
69.90079336409906
 20
1771.5
 10
100.40079336409929
 20
1771.5
 10
100.40079336409929
 20
1669.5
 10
69.90079336409906
 20
1669.5
  0
LWPOLYLINE
  5
84
330
37
100
AcDbEntity
  8
CUTOUTS
100
AcDbPolyline
 90
4
 70
1
 10
69.90079336375027
 20
1011.75
 10
100.40079336374981
 20
1011.75
 10
100.40079336374981
 20
909.75
 10
69.90079336375027
 20
909.75
  0
LWPOLYLINE
  5
85
330
37
100
AcDbEntity
  8
CUTOUTS
100
AcDbPolyline
 90
4
 70
1
 10
98.63396270020394
 20
6.0
 10
86.63396270020417
 20
6.0
 10
86.63396270020417
 20
4.0
 10
98.63396270020394
 20
4.0
  0
LWPOLYLINE
  5
86
330
37
100
AcDbEntity
  8
CUTOUTS
100
AcDbPolyline
 90
4
 70
1
 10
252.30261738767388
 20
11.0
 10
264.3026173876739
 20
11.0
 10
264.3026173876739
 20
9.0
 10
252.30261738767388
 20
9.0
  0
CIRCLE
  5
87
330
37
100
AcDbEntity
  8
HOLES
100
AcDbCircle
 10
93.2676320360647
 20
1581.0
 30
0.0
 40
2.0
  0
CIRCLE
  5
88
330
37
100
AcDbEntity
  8
HOLES
100
AcDbCircle
 10
93.2676320360647
 20
1511.0
 30
0.0
 40
2.0
  0
CIRCLE
  5
89
330
37
100
AcDbEntity
  8
HOLES
100
AcDbCircle
 10
221.73576738843087
 20
149.9999999999963
 30
0.0
 40
3.25
  0
CIRCLE
  5
8A
330
37
100
AcDbEntity
  8
HOLES
100
AcDbCircle
 10
221.735767388392
 20
750.4999999999961
 30
0.0
 40
3.25
  0
CIRCLE
  5
8B
330
37
100
AcDbEntity
  8
HOLES
100
AcDbCircle
 10
221.73576738835402
 20
1350.999999999996
 30
0.0
 40
3.25
  0
CIRCLE
  5
8C
330
37
100
AcDbEntity
  8
HOLES
100
AcDbCircle
 10
221.7357673883149
 20
1951.499999999996
 30
0.0
 40
3.25
  0
TEXT
  5
8D
330
37
100
AcDbEntity
  8
PART_LABELS
100
AcDbText
 10
177.96827471215732
 20
1049.25
 30
0.0
 40
28.0
  1
PRJ-101 - D1
 72
1
 11
177.96827471215732
 21
1049.25
 31
0.0
100
AcDbText
 73
2
  0
ENDBLK
  5
39
330
37
100
AcDbEntity
  8
0
100
AcDbBlockEnd
  0
BLOCK
  5
8F
330
8E
100
AcDbEntity
  8
0
100
AcDbBlockBegin
  2
B_D1_LOCK_POST
 70
0
 10
0.0
 20
0.0
 30
0.0
  3
B_D1_LOCK_POST
  1

  0
LINE
  5
91
330
8E
100
AcDbEntity
  8
NOTCHES
100
AcDbLine
 10
191.69682059851402
 20
3.0
 30
0.0
 11
191.69682059851402
 21
0.0
 31
0.0
  0
LINE
  5
92
330
8E
100
AcDbEntity
  8
NOTCHES
100
AcDbLine
 10
76.69678192674087
 20
3.0
 30
0.0
 11
76.69678192674087
 21
0.0
 31
0.0
  0
LINE
  5
93
330
8E
100
AcDbEntity
  8
NOTCHES
100
AcDbLine
 10
199.3305592704089
 20
3.0
 30
0.0
 11
199.3305592704089
 21
0.0
 31
0.0
  0
LINE
  5
94
330
8E
100
AcDbEntity
  8
NOTCHES
100
AcDbLine
 10
284.2317752865599
 20
3.0
 30
0.0
 11
284.2317752865599
 21
0.0
 31
0.0
  0
LINE
  5
95
330
8E
100
AcDbEntity
  8
NOTCHES
100
AcDbLine
 10
23.56304325461292
 20
3.0
 30
0.0
 11
23.56304325461292
 21
0.0
 31
0.0
  0
LINE
  5
96
330
8E
100
AcDbEntity
  8
NOTCHES
100
AcDbLine
 10
337.3655139584539
 20
3.0
 30
0.0
 11
337.3655139584539
 21
0.0
 31
0.0
  0
LINE
  5
97
330
8E
100
AcDbEntity
  8
NOTCHES
100
AcDbLine
 10
209.96429794253686
 20
1.0
 30
0.0
 11
209.96429794253686
 21
0.0
 31
0.0
  0
LINE
  5
98
330
8E
100
AcDbEntity
  8
NOTCHES
100
AcDbLine
 10
221.59803661419983
 20
1.047160253394394
 30
0.0
 11
221.59803661419983
 21
0.0471602533943951
 31
0.0
  0
LINE
  5
99
330
8E
100
AcDbEntity
  8
NOTCHES
100
AcDbLine
 10
284.2317752865599
 20
2061.5
 30
0.0
 11
284.2317752865599
 21
2055.5
 31
0.0
  0
LINE
  5
9A
330
8E
100
AcDbEntity
  8
NOTCHES
100
AcDbLine
 10
221.59803661419983
 20
2059.25
 30
0.0
 11
221.59803661419983
 21
2058.25
 31
0.0
  0
LINE
  5
9B
330
8E
100
AcDbEntity
  8
NOTCHES
100
AcDbLine
 10
209.96429794253686
 20
2048.5
 30
0.0
 11
209.96429794253686
 21
2047.5
 31
0.0
  0
LINE
  5
9C
330
8E
100
AcDbEntity
  8
NOTCHES
100
AcDbLine
 10
199.3305592704089
 20
2046.25
 30
0.0
 11
199.3305592704089
 21
2043.25
 31
0.0
  0
LINE
  5
9D
330
8E
100
AcDbEntity
  8
NOTCHES
100
AcDbLine
 10
191.69682059851402
 20
2039.5
 30
0.0
 11
191.69682059851402
 21
2036.5
 31
0.0
  0
LINE
  5
9E
330
8E
100
AcDbEntity
  8
NOTCHES
100
AcDbLine
 10
76.69678192674087
 20
2039.5
 30
0.0
 11
76.69678192674087
 21
2036.5
 31
0.0
  0
LINE
  5
9F
330
8E
100
AcDbEntity
  8
NOTCHES
100
AcDbLine
 10
23.56304325461292
 20
2097.75
 30
0.0
 11
23.56304325461292
 21
2094.75
 31
0.0
  0
LINE
  5
A0
330
8E
100
AcDbEntity
  8
NOTCHES
100
AcDbLine
 10
337.3655139584539
 20
2097.75
 30
0.0
 11
337.3655139584539
 21
2094.75
 31
0.0
  0
LWPOLYLINE
  5
A1
330
8E
100
AcDbEntity
  8
OUTLINE
100
AcDbPolyline
 90
44
 70
1
 10
193.26368993469487
 20
2041.0
 10
197.76368993469396
 20
2045.5
 10
200.89742860658998
 20
2047.0
 10
208.39742860658998
 20
2047.0
 10
211.53116727848487
 20
2050.0
 10
220.03116727848487
 20
2058.5
 10
223.16490595038
 20
2060.0
 10
235.16490595038
 20
2060.0
 10
235.16490595038
 20
2069.0
 10
238.16490595038
 20
2072.0
 10
242.16490595038
 20
2072.0
 10
245.16490595038
 20
2069.0
 10
245.16490595038
 20
2060.0
 10
260.66490595038
 20
2060.0
 10
260.66490595038
 20
2069.0
 10
263.66490595038
 20
2072.0
 10
267.66490595038
 20
2072.0
 10
270.66490595038
 20
2069.0
 10
270.66490595038
 20
2060.0
 10
282.66490595038
 20
2060.0
 10
285.7986446222749
 20
2063.0
 10
335.7986446222749
 20
2097.0
 10
338.93238329416886
 20
2098.5
 10
355.93241395819905
 20
2098.5
 10
355.93241395843097
 20
0.0
 10
-0.0038260813339547894
 20
0.0
 10
-0.0038260813339547894
 20
2098.5
 10
21.996173918666045
 20
2098.5
 10
25.129912590560934
 20
2097.0
 10
75.12991259056093
 20
2041.0
 10
78.26365126245605
 20
2038.0
 10
90.26365126245605
 20
2038.0
 10
90.26365126245605
 20
2047.0
 10
93.26365126245605
 20
2050.0
 10
97.26365126245605
 20
2050.0
 10
100.26365126245605
 20
2047.0
 10
100.26365126245605
 20
2038.0
 10
168.12995126233386
 20
2038.0
 10
168.12995126233386
 20
2047.0
 10
171.12995126233386
 20
2050.0
 10
175.12995126233386
 20
2050.0
 10
178.12995126233386
 20
2047.0
 10
178.12995126233386
 20
2038.0
 10
190.12995126256692
 20
2038.0
  0
LINE
  5
A2
330
8E
100
AcDbEntity
  8
NOTCHES
100
AcDbLine
 10
191.69682059851402
 20
3.0
 30
0.0
 11
191.69682059851402
 21
0.0
 31
0.0
  0
LINE
  5
A3
330
8E
100
AcDbEntity
  8
NOTCHES
100
AcDbLine
 10
76.69678192674087
 20
3.0
 30
0.0
 11
76.69678192674087
 21
0.0
 31
0.0
  0
LINE
  5
A4
330
8E
100
AcDbEntity
  8
NOTCHES
100
AcDbLine
 10
199.3305592704089
 20
3.0
 30
0.0
 11
199.3305592704089
 21
0.0
 31
0.0
  0
LINE
  5
A5
330
8E
100
AcDbEntity
  8
NOTCHES
100
AcDbLine
 10
284.2317752865599
 20
3.0
 30
0.0
 11
284.2317752865599
 21
0.0
 31
0.0
  0
LINE
  5
A6
330
8E
100
AcDbEntity
  8
NOTCHES
100
AcDbLine
 10
23.56304325461292
 20
3.0
 30
0.0
 11
23.56304325461292
 21
0.0
 31
0.0
  0
LINE
  5
A7
330
8E
100
AcDbEntity
  8
NOTCHES
100
AcDbLine
 10
337.3655139584539
 20
3.0
 30
0.0
 11
337.3655139584539
 21
0.0
 31
0.0
  0
LINE
  5
A8
330
8E
100
AcDbEntity
  8
NOTCHES
100
AcDbLine
 10
209.96429794253686
 20
1.0
 30
0.0
 11
209.96429794253686
 21
0.0
 31
0.0
  0
LINE
  5
A9
330
8E
100
AcDbEntity
  8
NOTCHES
100
AcDbLine
 10
221.59803661419983
 20
1.047160253394394
 30
0.0
 11
221.59803661419983
 21
0.0471602533943951
 31
0.0
  0
LINE
  5
AA
330
8E
100
AcDbEntity
  8
NOTCHES
100
AcDbLine
 10
284.2317752865599
 20
2061.5
 30
0.0
 11
284.2317752865599
 21
2055.5
 31
0.0
  0
LINE
  5
AB
330
8E
100
AcDbEntity
  8
NOTCHES
100
AcDbLine
 10
221.59803661419983
 20
2059.25
 30
0.0
 11
221.59803661419983
 21
2058.25
 31
0.0
  0
LINE
  5
AC
330
8E
100
AcDbEntity
  8
NOTCHES
100
AcDbLine
 10
209.96429794253686
 20
2048.5
 30
0.0
 11
209.96429794253686
 21
2047.5
 31
0.0
  0
LINE
  5
AD
330
8E
100
AcDbEntity
  8
NOTCHES
100
AcDbLine
 10
199.3305592704089
 20
2046.25
 30
0.0
 11
199.3305592704089
 21
2043.25
 31
0.0
  0
LINE
  5
AE
330
8E
100
AcDbEntity
  8
NOTCHES
100
AcDbLine
 10
191.69682059851402
 20
2039.5
 30
0.0
 11
191.69682059851402
 21
2036.5
 31
0.0
  0
LINE
  5
AF
330
8E
100
AcDbEntity
  8
NOTCHES
100
AcDbLine
 10
76.69678192674087
 20
2039.5
 30
0.0
 11
76.69678192674087
 21
2036.5
 31
0.0
  0
LINE
  5
B0
330
8E
100
AcDbEntity
  8
NOTCHES
100
AcDbLine
 10
23.56304325461292
 20
2097.75
 30
0.0
 11
23.56304325461292
 21
2094.75
 31
0.0
  0
LINE
  5
B1
330
8E
100
AcDbEntity
  8
NOTCHES
100
AcDbLine
 10
337.3655139584539
 20
2097.75
 30
0.0
 11
337.3655139584539
 21
2094.75
 31
0.0
  0
LINE
  5
B2
330
8E
100
AcDbEntity
  8
NOTCHES
100
AcDbLine
 10
191.69682059851402
 20
3.0
 30
0.0
 11
191.69682059851402
 21
0.0
 31
0.0
  0
LINE
  5
B3
330
8E
100
AcDbEntity
  8
NOTCHES
100
AcDbLine
 10
76.69678192674087
 20
3.0
 30
0.0
 11
76.69678192674087
 21
0.0
 31
0.0
  0
LINE
  5
B4
330
8E
100
AcDbEntity
  8
NOTCHES
100
AcDbLine
 10
199.3305592704089
 20
3.0
 30
0.0
 11
199.3305592704089
 21
0.0
 31
0.0
  0
LINE
  5
B5
330
8E
100
AcDbEntity
  8
NOTCHES
100
AcDbLine
 10
284.2317752865599
 20
3.0
 30
0.0
 11
284.2317752865599
 21
0.0
 31
0.0
  0
LINE
  5
B6
330
8E
100
AcDbEntity
  8
NOTCHES
100
AcDbLine
 10
23.56304325461292
 20
3.0
 30
0.0
 11
23.56304325461292
 21
0.0
 31
0.0
  0
LINE
  5
B7
330
8E
100
AcDbEntity
  8
NOTCHES
100
AcDbLine
 10
337.3655139584539
 20
3.0
 30
0.0
 11
337.3655139584539
 21
0.0
 31
0.0
  0
LINE
  5
B8
330
8E
100
AcDbEntity
  8
NOTCHES
100
AcDbLine
 10
209.96429794253686
 20
1.0
 30
0.0
 11
209.96429794253686
 21
0.0
 31
0.0
  0
LINE
  5
B9
330
8E
100
AcDbEntity
  8
NOTCHES
100
AcDbLine
 10
221.59803661419983
 20
1.047160253394394
 30
0.0
 11
221.59803661419983
 21
0.0471602533943951
 31
0.0
  0
LINE
  5
BA
330
8E
100
AcDbEntity
  8
NOTCHES
100
AcDbLine
 10
284.2317752865599
 20
2061.5
 30
0.0
 11
284.2317752865599
 21
2055.5
 31
0.0
  0
LINE
  5
BB
330
8E
100
AcDbEntity
  8
NOTCHES
100
AcDbLine
 10
221.59803661419983
 20
2059.25
 30
0.0
 11
221.59803661419983
 21
2058.25
 31
0.0
  0
LINE
  5
BC
330
8E
100
AcDbEntity
  8
NOTCHES
100
AcDbLine
 10
209.96429794253686
 20
2048.5
 30
0.0
 11
209.96429794253686
 21
2047.5
 31
0.0
  0
LINE
  5
BD
330
8E
100
AcDbEntity
  8
NOTCHES
100
AcDbLine
 10
199.3305592704089
 20
2046.25
 30
0.0
 11
199.3305592704089
 21
2043.25
 31
0.0
  0
LINE
  5
BE
330
8E
100
AcDbEntity
  8
NOTCHES
100
AcDbLine
 10
191.69682059851402
 20
2039.5
 30
0.0
 11
191.69682059851402
 21
2036.5
 31
0.0
  0
LINE
  5
BF
330
8E
100
AcDbEntity
  8
NOTCHES
100
AcDbLine
 10
76.69678192674087
 20
2039.5
 30
0.0
 11
76.69678192674087
 21
2036.5
 31
0.0
  0
LINE
  5
C0
330
8E
100
AcDbEntity
  8
NOTCHES
100
AcDbLine
 10
23.56304325461292
 20
2097.75
 30
0.0
 11
23.56304325461292
 21
2094.75
 31
0.0
  0
LINE
  5
C1
330
8E
100
AcDbEntity
  8
NOTCHES
100
AcDbLine
 10
337.3655139584539
 20
2097.75
 30
0.0
 11
337.3655139584539
 21
2094.75
 31
0.0
  0
LINE
  5
C2
330
8E
100
AcDbEntity
  8
NOTCHES
100
AcDbLine
 10
191.69682059851402
 20
3.0
 30
0.0
 11
191.69682059851402
 21
0.0
 31
0.0
  0
LINE
  5
C3
330
8E
100
AcDbEntity
  8
NOTCHES
100
AcDbLine
 10
76.69678192674087
 20
3.0
 30
0.0
 11
76.69678192674087
 21
0.0
 31
0.0
  0
LINE
  5
C4
330
8E
100
AcDbEntity
  8
NOTCHES
100
AcDbLine
 10
199.3305592704089
 20
3.0
 30
0.0
 11
199.3305592704089
 21
0.0
 31
0.0
  0
LINE
  5
C5
330
8E
100
AcDbEntity
  8
NOTCHES
100
AcDbLine
 10
284.2317752865599
 20
3.0
 30
0.0
 11
284.2317752865599
 21
0.0
 31
0.0
  0
LINE
  5
C6
330
8E
100
AcDbEntity
  8
NOTCHES
100
AcDbLine
 10
23.56304325461292
 20
3.0
 30
0.0
 11
23.56304325461292
 21
0.0
 31
0.0
  0
LINE
  5
C7
330
8E
100
AcDbEntity
  8
NOTCHES
100
AcDbLine
 10
337.3655139584539
 20
3.0
 30
0.0
 11
337.3655139584539
 21
0.0
 31
0.0
  0
LINE
  5
C8
330
8E
100
AcDbEntity
  8
NOTCHES
100
AcDbLine
 10
209.96429794253686
 20
1.0
 30
0.0
 11
209.96429794253686
 21
0.0
 31
0.0
  0
LINE
  5
C9
330
8E
100
AcDbEntity
  8
NOTCHES
100
AcDbLine
 10
221.59803661419983
 20
1.047160253394394
 30
0.0
 11
221.59803661419983
 21
0.0471602533943951
 31
0.0
  0
LINE
  5
CA
330
8E
100
AcDbEntity
  8
NOTCHES
100
AcDbLine
 10
284.2317752865599
 20
2061.5
 30
0.0
 11
284.2317752865599
 21
2055.5
 31
0.0
  0
LINE
  5
CB
330
8E
100
AcDbEntity
  8
NOTCHES
100
AcDbLine
 10
221.59803661419983
 20
2059.25
 30
0.0
 11
221.59803661419983
 21
2058.25
 31
0.0
  0
LINE
  5
CC
330
8E
100
AcDbEntity
  8
NOTCHES
100
AcDbLine
 10
209.96429794253686
 20
2048.5
 30
0.0
 11
209.96429794253686
 21
2047.5
 31
0.0
  0
LINE
  5
CD
330
8E
100
AcDbEntity
  8
NOTCHES
100
AcDbLine
 10
199.3305592704089
 20
2046.25
 30
0.0
 11
199.3305592704089
 21
2043.25
 31
0.0
  0
LINE
  5
CE
330
8E
100
AcDbEntity
  8
NOTCHES
100
AcDbLine
 10
191.69682059851402
 20
2039.5
 30
0.0
 11
191.69682059851402
 21
2036.5
 31
0.0
  0
LINE
  5
CF
330
8E
100
AcDbEntity
  8
NOTCHES
100
AcDbLine
 10
76.69678192674087
 20
2039.5
 30
0.0
 11
76.69678192674087
 21
2036.5
 31
0.0
  0
LINE
  5
D0
330
8E
100
AcDbEntity
  8
NOTCHES
100
AcDbLine
 10
23.56304325461292
 20
2097.75
 30
0.0
 11
23.56304325461292
 21
2094.75
 31
0.0
  0
LINE
  5
D1
330
8E
100
AcDbEntity
  8
NOTCHES
100
AcDbLine
 10
337.3655139584539
 20
2097.75
 30
0.0
 11
337.3655139584539
 21
2094.75
 31
0.0
  0
LWPOLYLINE
  5
D2
330
8E
100
AcDbEntity
  8
CUTOUTS
100
AcDbPolyline
 90
4
 70
1
 10
257.29860595050195
 20
6.0
 10
269.29860595050195
 20
6.0
 10
269.29860595050195
 20
4.0
 10
257.29860595050195
 20
4.0
  0
LWPOLYLINE
  5
D3
330
8E
100
AcDbEntity
  8
CUTOUTS
100
AcDbPolyline
 90
4
 70
1
 10
103.62995126279884
 20
11.0
 10
91.62995126279884
 20
11.0
 10
91.62995126279884
 20
9.0
 10
103.62995126279884
 20
9.0
  0
LWPOLYLINE
  5
D4
330
8E
100
AcDbEntity
  8
CUTOUTS
100
AcDbPolyline
 90
8
 70
1
 10
276.5044523931099
 20
1044.5
 10
276.5044523931099
 20
952.25
 10
252.0044523931099
 20
952.25
 10
252.0044523931099
 20
1122.75
 10
276.5044523931099
 20
1122.75
 10
276.5044523931099
 20
1110.5
 10
284.83177528642
 20
1110.5
 10
284.83177528642
 20
1044.5
  0
CIRCLE
  5
D5
330
8E
100
AcDbEntity
  8
HOLES
100
AcDbCircle
 10
134.1968012622749
 20
149.9999999999963
 30
0.0
 40
3.25
  0
CIRCLE
  5
D6
330
8E
100
AcDbEntity
  8
HOLES
100
AcDbCircle
 10
134.196801262314
 20
750.4999999999961
 30
0.0
 40
3.25
  0
CIRCLE
  5
D7
330
8E
100
AcDbEntity
  8
HOLES
100
AcDbCircle
 10
134.19680126235198
 20
1350.999999999996
 30
0.0
 40
3.25
  0
CIRCLE
  5
D8
330
8E
100
AcDbEntity
  8
HOLES
100
AcDbCircle
 10
134.19680126239086
 20
1951.499999999996
 30
0.0
 40
3.25
  0
LWPOLYLINE
  5
D9
330
8E
100
AcDbEntity
  8
CUTOUTS
100
AcDbPolyline
 90
12
 70
1
 10
275.01238329471084
 20
1114.5
 10
275.01238329471084
 20
1144.0
 10
250.51238329471084
 20
1144.0
 10
250.51238329471084
 20
1114.5
 10
241.51238329471084
 20
1114.5
 10
241.51238329471084
 20
1040.5
 10
250.51238329471084
 20
1040.5
 10
250.51238329471084
 20
941.5
 10
275.01238329471084
 20
941.5
 10
275.01238329471084
 20
1040.5
 10
284.831775286887
 20
1040.5
 10
284.831775286887
 20
1114.5
  0
LWPOLYLINE
  5
DA
330
8E
100
AcDbEntity
  8
CUTOUTS
100
AcDbPolyline
 90
24
 70
1
 10
274.2317752865599
 20
1124.125000000081
 42
-0.4142135623737884
 10
274.781775286551
 20
1123.575000000081
 10
274.781775286551
 20
1099.853776297679
 42
0.2392499996180965
 10
274.9661319155009
 20
1099.490549647471
 10
284.606450517839
 20
1092.44016738607
 42
-0.2392499996180235
 10
284.8317752865498
 20
1091.996223702492
 10
284.8317752865589
 20
1055.20377629768
 42
-0.2392499996184368
 10
284.606450517839
 20
1054.759832614101
 10
274.96613191551
 20
1047.709450352691
 42
0.2392499996180462
 10
274.781775286551
 20
1047.346223702492
 10
274.781775286551
 20
935.6250000000819
 42
-0.4142135623737769
 10
274.2317752865599
 20
935.0750000000806
 10
252.23177528654992
 20
935.0750000000806
 42
-0.4142135623737733
 10
251.68177528655087
 20
935.6250000000819
 10
251.68177528655087
 20
1047.346223702492
 42
0.2392499996185795
 10
251.49741865760097
 20
1047.709450352691
 10
241.85710005527199
 20
1054.759832614101
 42
-0.2392499996184618
 10
241.63177528654887
 20
1055.20377629768
 10
241.63177528654887
 20
1091.996223702492
 42
-0.2392499996180227
 10
241.85710005527199
 20
1092.44016738607
 10
251.49741865760097
 20
1099.490549647471
 42
0.2392499996180768
 10
251.68177528655087
 20
1099.853776297679
 10
251.68177528655087
 20
1123.575000000081
 42
-0.4142135623723201
 10
252.23177528654992
 20
1124.125000000081
  0
LWPOLYLINE
  5
DB
330
8E
100
AcDbEntity
  8
CUTOUTS
100
AcDbPolyline
 90
14
 70
1
 10
279.73177528632687
 20
1005.600000000035
 42
0.4142135623730951
 10
279.231775286328
 20
1005.100000000035
 10
279.231775286328
 20
988.2500000000582
 42
-0.4142135623730951
 10
277.98177528632687
 20
987.000000000058
 10
248.48177528632687
 20
987.000000000058
 42
-0.4142135623730951
 10
247.231775286328
 20
988.2500000000582
 10
247.231775286328
 20
1109.750000000058
 42
-0.4142135623730951
 10
248.48177528632687
 20
1111.000000000058
 10
277.98177528632687
 20
1111.000000000058
 42
-0.4142135623730951
 10
279.231775286328
 20
1109.750000000058
 10
279.231775286328
 20
1092.900000000081
 42
0.4142135623730951
 10
279.73177528632687
 20
1092.400000000081
 10
286.83177528653687
 20
1092.400000000081
 10
286.83177528653687
 20
1005.600000000035
  0
LWPOLYLINE
  5
DC
330
8E
100
AcDbEntity
  8
CUTOUTS
100
AcDbPolyline
 90
8
 70
1
 10
249.23177528632687
 20
935.5499999999882
 10
249.23177528632687
 20
1120.549999999988
 10
274.231775286328
 20
1120.549999999988
 10
274.231775286328
 20
1108.350000000005
 10
284.83177528653687
 20
1108.350000000005
 10
284.83177528653687
 20
1051.649999999994
 10
274.231775286328
 20
1051.649999999994
 10
274.231775286328
 20
935.5499999999882
  0
LWPOLYLINE
  5
DD
330
8E
100
AcDbEntity
  8
NOTCHES
100
AcDbPolyline
 90
10
 70
1
 10
285.56302517345193
 20
1104.600000000035
 10
285.56302517345193
 20
969.2000000000698
 10
280.10052539962294
 20
969.2000000000698
 42
0.4142135623730951
 10
274.25052539953003
 20
963.3500000000347
 10
274.25052539953003
 20
946.7500000000583
 10
249.95052539948392
 20
946.7500000000583
 10
249.95052539948392
 20
1127.050000000046
 10
274.25052539953003
 20
1127.050000000046
 10
274.25052539953003
 20
1110.45000000007
 42
0.4142135623730951
 10
280.10052539962294
 20
1104.600000000035
  0
TEXT
  5
DE
330
8E
100
AcDbEntity
  8
PART_LABELS
100
AcDbText
 10
177.9642939385485
 20
1049.25
 30
0.0
 40
28.0
  1
PRJ-101 - D1
 72
1
 11
177.9642939385485
 21
1049.25
 31
0.0
100
AcDbText
 73
2
  0
ENDBLK
  5
90
330
8E
100
AcDbEntity
  8
0
100
AcDbBlockEnd
  0
BLOCK
  5
E0
330
DF
100
AcDbEntity
  8
0
100
AcDbBlockBegin
  2
B_D1_HEADER
 70
0
 10
0.0
 20
0.0
 30
0.0
  3
B_D1_HEADER
  1

  0
LWPOLYLINE
  5
E2
330
DF
100
AcDbEntity
  8
NOTCHES
100
AcDbPolyline
 90
4
 70
1
 10
38.74471567465412
 20
234.17029775008905
 10
38.74471567465412
 20
246.17029775008905
 10
36.74471567465412
 20
246.17029775008905
 10
36.74471567465412
 20
234.17029775008905
  0
LWPOLYLINE
  5
E3
330
DF
100
AcDbEntity
  8
NOTCHES
100
AcDbPolyline
 90
4
 70
1
 10
38.74471567465412
 20
259.6702977499708
 10
38.74471567465412
 20
271.67029774997445
 10
36.74471567465412
 20
271.67029774997445
 10
36.74471567465412
 20
259.6702977499708
  0
LWPOLYLINE
  5
E4
330
DF
100
AcDbEntity
  8
NOTCHES
100
AcDbPolyline
 90
4
 70
1
 10
58.74471567465412
 20
89.26904306216511
 10
58.74471567465412
 20
101.26904306216511
 10
60.74471567465412
 20
101.26904306216511
 10
60.74471567465412
 20
89.26904306216511
  0
LWPOLYLINE
  5
E5
330
DF
100
AcDbEntity
  8
NOTCHES
100
AcDbPolyline
 90
4
 70
1
 10
58.74471567465412
 20
167.13534306215934
 10
58.74471567465412
 20
179.13534306215934
 10
60.74471567465412
 20
179.13534306215934
 10
60.74471567465412
 20
167.13534306215934
  0
LINE
  5
E6
330
DF
100
AcDbEntity
  8
NOTCHES
100
AcDbLine
 10
0.7447156746541168
 20
337.3709057579299
 30
0.0
 11
6.744715674654117
 21
337.3709057579299
 31
0.0
  0
LINE
  5
E7
330
DF
100
AcDbEntity
  8
NOTCHES
100
AcDbLine
 10
36.99471567465412
 20
284.2371670859202
 30
0.0
 11
42.99471567465412
 21
284.2371670859202
 31
0.0
  0
LINE
  5
E8
330
DF
100
AcDbEntity
  8
NOTCHES
100
AcDbLine
 10
39.24471567465412
 20
221.60342841390775
 30
0.0
 11
41.24471567465412
 21
221.60342841390775
 31
0.0
  0
LINE
  5
E9
330
DF
100
AcDbEntity
  8
NOTCHES
100
AcDbLine
 10
49.99471567465412
 20
209.96968974201172
 30
0.0
 11
51.99471567465412
 21
209.96968974201172
 31
0.0
  0
LINE
  5
EA
330
DF
100
AcDbEntity
  8
NOTCHES
100
AcDbLine
 10
52.24471567465412
 20
199.3359510700002
 30
0.0
 11
58.24471567465412
 21
199.3359510700002
 31
0.0
  0
LINE
  5
EB
330
DF
100
AcDbEntity
  8
NOTCHES
100
AcDbLine
 10
58.99471567465412
 20
191.7022123981078
 30
0.0
 11
64.99471567465412
 21
191.7022123981078
 31
0.0
  0
LINE
  5
EC
330
DF
100
AcDbEntity
  8
NOTCHES
100
AcDbLine
 10
58.99471567465412
 20
76.70217372610114
 30
0.0
 11
64.99471567465412
 21
76.70217372610114
 31
0.0
  0
LINE
  5
ED
330
DF
100
AcDbEntity
  8
NOTCHES
100
AcDbLine
 10
0.7447156746541168
 20
23.56843505420602
 30
0.0
 11
6.744715674654117
 21
23.56843505420602
 31
0.0
  0
LWPOLYLINE
  5
EE
330
DF
100
AcDbEntity
  8
NOTCHES
100
AcDbPolyline
 90
4
 70
1
 10
1036.244715674654
 20
234.17029775008905
 10
1036.244715674654
 20
246.17029775008905
 10
1038.2447156746537
 20
246.17029775008905
 10
1038.2447156746537
 20
234.17029775008905
  0
LWPOLYLINE
  5
EF
330
DF
100
AcDbEntity
  8
NOTCHES
100
AcDbPolyline
 90
4
 70
1
 10
1036.244715674654
 20
259.6702977499708
 10
1036.244715674654
 20
271.67029774997445
 10
1038.2447156746537
 20
271.67029774997445
 10
1038.2447156746537
 20
259.6702977499708
  0
LWPOLYLINE
  5
F0
330
DF
100
AcDbEntity
  8
NOTCHES
100
AcDbPolyline
 90
4
 70
1
 10
1016.2447156746537
 20
89.26904306216511
 10
1016.2447156746537
 20
101.26904306216511
 10
1014.2447156746537
 20
101.26904306216511
 10
1014.2447156746537
 20
89.26904306216511
  0
LWPOLYLINE
  5
F1
330
DF
100
AcDbEntity
  8
NOTCHES
100
AcDbPolyline
 90
4
 70
1
 10
1016.2447156746537
 20
167.13534306215934
 10
1016.2447156746537
 20
179.13534306215934
 10
1014.2447156746537
 20
179.13534306215934
 10
1014.2447156746537
 20
167.13534306215934
  0
LINE
  5
F2
330
DF
100
AcDbEntity
  8
NOTCHES
100
AcDbLine
 10
1037.994715674654
 20
284.2371670859202
 30
0.0
 11
1031.9947156746537
 21
284.2371670859202
 31
0.0
  0
LINE
  5
F3
330
DF
100
AcDbEntity
  8
NOTCHES
100
AcDbLine
 10
1035.7447156746537
 20
221.60342841390775
 30
0.0
 11
1033.7447156746537
 21
221.60342841390775
 31
0.0
  0
LINE
  5
F4
330
DF
100
AcDbEntity
  8
NOTCHES
100
AcDbLine
 10
1024.9947156746537
 20
209.96968974201172
 30
0.0
 11
1022.9947156746537
 21
209.96968974201172
 31
0.0
  0
LINE
  5
F5
330
DF
100
AcDbEntity
  8
NOTCHES
100
AcDbLine
 10
1022.7447156746539
 20
199.3359510700002
 30
0.0
 11
1016.7447156746537
 21
199.3359510700002
 31
0.0
  0
LINE
  5
F6
330
DF
100
AcDbEntity
  8
NOTCHES
100
AcDbLine
 10
1015.9947156746537
 20
191.7022123981078
 30
0.0
 11
1009.9947156746537
 21
191.7022123981078
 31
0.0
  0
LINE
  5
F7
330
DF
100
AcDbEntity
  8
NOTCHES
100
AcDbLine
 10
1015.9947156746537
 20
76.70217372610114
 30
0.0
 11
1009.9947156746537
 21
76.70217372610114
 31
0.0
  0
LWPOLYLINE
  5
F8
330
DF
100
AcDbEntity
  8
OUTLINE
100
AcDbPolyline
 90
44
 70
1
 10
-0.00528432534588319
 20
355.9377750938793
 10
1074.994715674654
 20
355.9377750938793
 10
1074.994715674654
 20
338.9377750938802
 10
1073.4947156746537
 20
335.80403642198416
 10
1039.4947156746537
 20
285.80403642198416
 10
1036.4947156746537
 20
282.67029774997354
 10
1046.494715674654
 20
272.6702977499708
 10
1046.494715674654
 20
233.1702977499708
 10
1036.4947156746537
 20
223.17029774997354
 10
1034.9947156746537
 20
220.03655907807843
 10
1026.494715674654
 20
211.5365590780757
 10
1023.4947156746537
 20
208.40282040606508
 10
1023.4947156746537
 20
200.90282040606598
 10
1021.9947156746538
 20
197.76908173417087
 10
1017.4947156746539
 20
193.26908173417087
 10
1014.4947156746537
 20
190.13534306215934
 10
1024.494715674654
 20
178.21780713629323
 10
1024.494715674654
 20
88.26904306216511
 10
1014.4947156746537
 20
78.26904306216693
 10
1017.4947156746539
 20
75.13530439015403
 10
1073.4947156746537
 20
25.135304390153124
 10
1074.994715674654
 20
22.001565718258917
 10
1074.994715674654
 20
0.001565718258916604
 10
-0.00528432534588319
 20
0.001565718258916604
 10
-0.00528432534588319
 20
22.001565718258917
 10
1.4947156746541168
 20
25.135304390153124
 10
57.49471567465412
 20
75.13530439015403
 10
60.49471567465412
 20
78.26904306216693
 10
50.49471567465412
 20
88.26904306216511
 10
50.49471567465412
 20
178.21780713629323
 10
60.49471567465412
 20
190.13534306215934
 10
57.49471567465412
 20
193.26908173417087
 10
52.99471567465412
 20
197.76908173417087
 10
51.49471567465412
 20
200.90282040606598
 10
51.49471567465412
 20
208.40282040606508
 10
48.49471567465412
 20
211.5365590780757
 10
39.99471567465412
 20
220.03655907807843
 10
38.49471567465412
 20
223.17029774997354
 10
28.494715674654117
 20
233.1702977499708
 10
28.494715674654117
 20
272.6702977499708
 10
38.49471567465412
 20
282.67029774997354
 10
35.49471567465412
 20
285.80403642198416
 10
1.4947156746541168
 20
335.80403642198416
 10
-0.00528432534588319
 20
338.9377750938802
  0
LINE
  5
F9
330
DF
100
AcDbEntity
  8
NOTCHES
100
AcDbLine
 10
1068.244715674654
 20
337.3709057579299
 30
0.0
 11
1074.244715674654
 21
337.3709057579299
 31
0.0
  0
LINE
  5
FA
330
DF
100
AcDbEntity
  8
NOTCHES
100
AcDbLine
 10
1068.244715674654
 20
23.56843505420602
 30
0.0
 11
1074.244715674654
 21
23.56843505420602
 31
0.0
  0
TEXT
  5
FB
330
DF
100
AcDbEntity
  8
PART_LABELS
100
AcDbText
 10
537.494715674654
 20
177.9696704060691
 30
0.0
 40
28.0
  1
PRJ-101 - D1
 72
1
 11
537.494715674654
 21
177.9696704060691
 31
0.0
100
AcDbText
 73
2
  0
ENDBLK
  5
E1
330
DF
100
AcDbEntity
  8
0
100
AcDbBlockEnd
  0
BLOCK
  5
FD
330
FC
100
AcDbEntity
  8
0
100
AcDbBlockBegin
  2
B_D1_LEAF1
 70
0
 10
0.0
 20
0.0
 30
0.0
  3
B_D1_LEAF1
  1

  0
LINE
  5
FF
330
FC
100
AcDbEntity
  8
NOTCHES
100
AcDbLine
 10
11.748268750794978
 20
2113.499634573593
 30
0.0
 11
11.748268750794978
 21
2110.499634573594
 31
0.0
  0
LINE
  5
100
330
FC
100
AcDbEntity
  8
NOTCHES
100
AcDbLine
 10
11.748268750794978
 20
2.9996345735926297
 30
0.0
 11
11.748268750794978
 21
-0.00036542640737025067
 31
0.0
  0
LINE
  5
101
330
FC
100
AcDbEntity
  8
NOTCHES
100
AcDbLine
 10
71.266796975229
 20
2113.499634573593
 30
0.0
 11
71.266796975229
 21
2110.499634573594
 31
0.0
  0
LINE
  5
102
330
FC
100
AcDbEntity
  8
NOTCHES
100
AcDbLine
 10
71.266796975229
 20
2.9996345735926297
 30
0.0
 11
71.266796975229
 21
-0.00036542640737025067
 31
0.0
  0
LINE
  5
103
330
FC
100
AcDbEntity
  8
NOTCHES
100
AcDbLine
 10
33.75089012628405
 20
2113.499634573593
 30
0.0
 11
33.75089012628405
 21
2110.499634573594
 31
0.0
  0
LINE
  5
104
330
FC
100
AcDbEntity
  8
NOTCHES
100
AcDbLine
 10
33.75089012628405
 20
2.9996345735926297
 30
0.0
 11
33.75089012628405
 21
-0.00036542640737025067
 31
0.0
  0
LINE
  5
105
330
FC
100
AcDbEntity
  8
NOTCHES
100
AcDbLine
 10
1058.666803824082
 20
2110.499634573594
 30
0.0
 11
1058.666803824082
 21
2113.499634573593
 31
0.0
  0
LWPOLYLINE
  5
106
330
FC
100
AcDbEntity
  8
CUTOUTS
100
AcDbPolyline
 90
4
 70
1
 10
1086.3668038242683
 20
244.99963457289505
 10
1056.8668038242683
 20
244.99963457289505
 10
1056.8668038242683
 20
142.99963457289505
 10
1086.3668038242683
 20
142.99963457289505
  0
LWPOLYLINE
  5
107
330
FC
100
AcDbEntity
  8
CUTOUTS
100
AcDbPolyline
 90
4
 70
1
 10
1056.8668038242683
 20
1966.499634573593
 10
1086.3668038242683
 20
1966.499634573593
 10
1086.3668038242683
 20
1864.499634573594
 10
1056.8668038242683
 20
1864.499634573594
  0
LWPOLYLINE
  5
108
330
FC
100
AcDbEntity
  8
CUTOUTS
100
AcDbPolyline
 90
4
 70
1
 10
1056.8668038242683
 20
1764.499634573594
 10
1086.3668038242683
 20
1764.499634573594
 10
1086.3668038242683
 20
1662.499634573593
 10
1056.8668038242683
 20
1662.499634573593
  0
LINE
  5
109
330
FC
100
AcDbEntity
  8
NOTCHES
100
AcDbLine
 10
1118.1853320489824
 20
2110.499634573594
 30
0.0
 11
1118.1853320489824
 21
2113.499634573593
 31
0.0
  0
LINE
  5
10A
330
FC
100
AcDbEntity
  8
NOTCHES
100
AcDbLine
 10
1096.1827106730268
 20
2110.499634573594
 30
0.0
 11
1096.1827106730268
 21
2113.499634573593
 31
0.0
  0
LWPOLYLINE
  5
10B
330
FC
100
AcDbEntity
  8
CUTOUTS
100
AcDbPolyline
 90
4
 70
1
 10
1086.366803824152
 20
1004.7496345736072
 10
1056.866803824152
 20
1004.7496345736072
 10
1056.866803824152
 20
902.7496345736081
 10
1086.366803824152
 20
902.7496345736081
  0
LWPOLYLINE
  5
10C
330
FC
100
AcDbEntity
  8
OUTLINE
100
AcDbPolyline
 90
4
 70
1
 10
40.06775946246512
 20
1141.149634573616
 10
64.56775946246512
 20
1141.149634573616
 10
64.56775946246512
 20
905.8496345735698
 10
40.06775946246512
 20
905.8496345735698
  0
CIRCLE
  5
10D
330
FC
100
AcDbEntity
  8
HOLES
100
AcDbCircle
 10
110.96475040011103
 20
1042.999634573593
 30
0.0
 40
3.500000000000055
  0
CIRCLE
  5
10E
330
FC
100
AcDbEntity
  8
HOLES
100
AcDbCircle
 10
148.96475040011137
 20
1042.999634573593
 30
0.0
 40
3.5
  0
LINE
  5
10F
330
FC
100
AcDbEntity
  8
NOTCHES
100
AcDbLine
 10
45.00884355075709
 20
-0.00036542640737025067
 30
0.0
 11
45.00884355075709
 21
-0.00036542640737025067
 31
0.0
  0
LINE
  5
110
330
FC
100
AcDbEntity
  8
NOTCHES
100
AcDbLine
 10
60.00884355075709
 20
-0.00036542640737025067
 30
0.0
 11
60.00884355075709
 21
-0.00036542640737025067
 31
0.0
  0
LINE
  5
111
330
FC
100
AcDbEntity
  8
NOTCHES
100
AcDbLine
 10
1118.1853320489824
 20
2.9996345735926297
 30
0.0
 11
1118.1853320489824
 21
-0.00036542640737025067
 31
0.0
  0
LINE
  5
112
330
FC
100
AcDbEntity
  8
NOTCHES
100
AcDbLine
 10
1058.6668038245477
 20
2.9996345735926297
 30
0.0
 11
1058.6668038245477
 21
-0.00036542640737025067
 31
0.0
  0
LINE
  5
113
330
FC
100
AcDbEntity
  8
NOTCHES
100
AcDbLine
 10
1096.1827106734925
 20
2.9996345735926297
 30
0.0
 11
1096.1827106734925
 21
-0.00036542640737025067
 31
0.0
  0
LWPOLYLINE
  5
114
330
FC
100
AcDbEntity
  8
OUTLINE
100
AcDbPolyline
 90
4
 70
1
 10
1129.93
 20
2113.499634573593
 10
0.0036007997771321243
 20
2113.499634573593
 10
0.0036007997771321243
 20
-0.00036542640737025067
 10
1129.93
 20
-0.00036542640737025067
  0
CIRCLE
  5
115
330
FC
100
AcDbEntity
  8
HOLES
100
AcDbCircle
 10
129.96475040011137
 20
1042.999634573593
 30
0.0
 40
11.0
  0
LWPOLYLINE
  5
116
330
FC
100
AcDbEntity
  8
OUTLINE
100
AcDbPolyline
 90
4
 70
1
 10
137.46475040011126
 20
962.3816770454359
 10
137.46475040011126
 20
950.928415515175
 42
0.9999999999999998
 10
122.46475040011103
 20
950.928415515175
 10
122.46475040011103
 20
962.3816770454359
 42
2.539565129295556
  0
LWPOLYLINE
  5
117
330
FC
100
AcDbEntity
  8
OUTLINE
100
AcDbPolyline
 90
4
 70
1
 10
132.52475039993396
 20
962.3816770454359
 10
132.52475039993396
 20
950.9284155151772
 42
0.9999999999999998
 10
117.52475039993408
 20
950.9284155151772
 10
117.52475039993408
 20
962.3816770454359
 42
2.539565129295556
  0
LWPOLYLINE
  5
118
330
FC
100
AcDbEntity
  8
CUTOUTS
100
AcDbPolyline
 90
4
 70
1
 10
1084.92475724902
 20
-0.00036542640737025067
 10
1069.92475724902
 20
-0.00036542640737025067
 10
1069.92475724902
 20
29.99963457359445
 10
1084.92475724902
 20
29.99963457359445
  0
LWPOLYLINE
  5
119
330
FC
100
AcDbEntity
  8
OUTLINE
100
AcDbPolyline
 90
4
 70
1
 10
45.00884355075709
 20
-0.00036542640737025067
 10
60.00884355075709
 20
-0.00036542640737025067
 10
60.00884355075709
 20
29.99963457359445
 10
45.00884355075709
 20
29.99963457359445
  0
TEXT
  5
11A
330
FC
100
AcDbEntity
  8
PART_LABELS
100
AcDbText
 10
564.9668003998886
 20
1056.7496345735929
 30
0.0
 40
35.0
  1
PRJ-101 - D1
 72
1
 11
564.9668003998886
 21
1056.7496345735929
 31
0.0
100
AcDbText
 73
2
  0
ENDBLK
  5
FE
330
FC
100
AcDbEntity
  8
0
100
AcDbBlockEnd
  0
BLOCK
  5
11C
330
11B
100
AcDbEntity
  8
0
100
AcDbBlockBegin
  2
B_D1_LEAF2
 70
0
 10
0.0
 20
0.0
 30
0.0
  3
B_D1_LEAF2
  1

  0
LINE
  5
11E
330
11B
100
AcDbEntity
  8
NOTCHES
100
AcDbLine
 10
16.708471976086912
 20
2110.499634573594
 30
0.0
 11
16.708471976086912
 21
2113.499634573593
 31
0.0
  0
LINE
  5
11F
330
11B
100
AcDbEntity
  8
NOTCHES
100
AcDbLine
 10
1000.1071891229199
 20
2113.499634573593
 30
0.0
 11
1000.1071891229199
 21
2110.499634573594
 31
0.0
  0
LINE
  5
120
330
11B
100
AcDbEntity
  8
NOTCHES
100
AcDbLine
 10
1000.1071891229199
 20
2.9996345735926297
 30
0.0
 11
1000.1071891229199
 21
-0.00036542640737025067
 31
0.0
  0
LINE
  5
121
330
11B
100
AcDbEntity
  8
NOTCHES
100
AcDbLine
 10
16.708471976086912
 20
-0.00036542640737025067
 30
0.0
 11
16.708471976086912
 21
2.9996345735926297
 31
0.0
  0
LWPOLYLINE
  5
122
330
11B
100
AcDbEntity
  8
OUTLINE
100
AcDbPolyline
 90
4
 70
1
 10
1016.8128305495309
 20
2113.499634573593
 10
0.0028305494747655757
 20
2113.499634573593
 10
0.0028305494747655757
 20
-0.00036542640737025067
 10
1016.8128305495309
 20
-0.00036542640737025067
  0
CIRCLE
  5
123
330
11B
100
AcDbEntity
  8
HOLES
100
AcDbCircle
 10
924.172433967103
 20
1042.999634573593
 30
0.0
 40
3.500000000000055
  0
CIRCLE
  5
124
330
11B
100
AcDbEntity
  8
HOLES
100
AcDbCircle
 10
962.172433967103
 20
1042.999634573593
 30
0.0
 40
3.5
  0
CIRCLE
  5
125
330
11B
100
AcDbEntity
  8
HOLES
100
AcDbCircle
 10
943.172433967103
 20
1042.999634573593
 30
0.0
 40
11.0
  0
LWPOLYLINE
  5
126
330
11B
100
AcDbEntity
  8
OUTLINE
100
AcDbPolyline
 90
4
 70
1
 10
950.672433967103
 20
962.3816770454359
 10
950.672433967103
 20
950.9284155151772
 42
0.9999999999999998
 10
935.672433967103
 20
950.9284155151772
 10
935.672433967103
 20
962.3816770454359
 42
2.539565129295556
  0
LWPOLYLINE
  5
127
330
11B
100
AcDbEntity
  8
OUTLINE
100
AcDbPolyline
 90
4
 70
1
 10
955.842433967028
 20
962.3816770454359
 10
955.842433967028
 20
950.9284155151772
 42
0.9999999999999998
 10
940.842433967028
 20
950.9284155151772
 10
940.842433967028
 20
962.3816770454359
 42
2.539565129295556
  0
TEXT
  5
128
330
11B
100
AcDbEntity
  8
PART_LABELS
100
AcDbText
 10
508.4078305495028
 20
1056.7496345735929
 30
0.0
 40
35.0
  1
PRJ-101 - D1
 72
1
 11
508.4078305495028
 21
1056.7496345735929
 31
0.0
100
AcDbText
 73
2
  0
ENDBLK
  5
11D
330
11B
100
AcDbEntity
  8
0
100
AcDbBlockEnd
  0
ENDSEC
  0
SECTION
  2
ENTITIES
  0
INSERT
  5
129
330
17
100
AcDbEntity
  8
0
100
AcDbBlockReference
  2
B_D1_HINGE_POST
 10
0.0
 20
0.0
 30
0.0
  0
INSERT
  5
12B
330
17
100
AcDbEntity
  8
0
100
AcDbBlockReference
  2
B_D1_LOCK_POST
 10
505.93624003976527
 20
0.0
 30
0.0
  0
INSERT
  5
12D
330
17
100
AcDbEntity
  8
0
100
AcDbBlockReference
  2
B_D1_HEADER
 10
1011.8724800795302
 20
0.0
 30
0.0
  0
INSERT
  5
12F
330
17
100
AcDbEntity
  8
0
100
AcDbBlockReference
  2
B_D1_LEAF1
 10
2336.87248007953
 20
0.0
 30
0.0
  0
INSERT
  5
131
330
17
100
AcDbEntity
  8
0
100
AcDbBlockReference
  2
B_D1_LEAF2
 10
3716.798879279753
 20
0.0
 30
0.0
  0
TEXT
  5
133
330
17
100
AcDbEntity
  8
TEXT
100
AcDbText
 10
0.0
 20
-120.0
 30
0.0
 40
45.0
  1
DOOR D1 | 1000x2100x170 mm (RH)
100
AcDbText
  0
LWPOLYLINE
  5
134
330
17
100
AcDbEntity
  8
SHEETS_1_5
100
AcDbPolyline
 90
4
 70
1
 10
0.0
 20
-3500.0
 10
1250.0
 20
-3500.0
 10
1250.0
 20
-1200.0
 10
0.0
 20
-1200.0
  0
INSERT
  5
135
330
17
100
AcDbEntity
  8
0
100
AcDbBlockReference
  2
B_D1_HINGE_POST
 10
0.0
 20
-3500.0
 30
0.0
  0
INSERT
  5
137
330
17
100
AcDbEntity
  8
0
100
AcDbBlockReference
  2
B_D1_LOCK_POST
 10
355.93624003976527
 20
-3500.0
 30
0.0
  0
INSERT
  5
139
330
17
100
AcDbEntity
  8
0
100
AcDbBlockReference
  2
B_D1_HEADER
 10
1067.8086894551507
 20
-3500.0
 30
0.0
 50
90.0
  0
TEXT
  5
13B
330
17
100
AcDbEntity
  8
TEXT
100
AcDbText
 10
0.0
 20
-3580.0
 30
0.0
 40
40.0
  1
Sheet 1.5mm #1 (125x230 cm)
100
AcDbText
  0
LWPOLYLINE
  5
13C
330
17
100
AcDbEntity
  8
SHEETS_1_2
100
AcDbPolyline
 90
4
 70
1
 10
0.0
 20
-6700.0
 10
1250.0
 20
-6700.0
 10
1250.0
 20
-4400.0
 10
0.0
 20
-4400.0
  0
INSERT
  5
13D
330
17
100
AcDbEntity
  8
0
100
AcDbBlockReference
  2
B_D1_LEAF1
 10
0.0
 20
-6700.0
 30
0.0
  0
TEXT
  5
13F
330
17
100
AcDbEntity
  8
TEXT
100
AcDbText
 10
0.0
 20
-6780.0
 30
0.0
 40
40.0
  1
Sheet 1.2mm #1 (125x230 cm)
100
AcDbText
  0
LWPOLYLINE
  5
140
330
17
100
AcDbEntity
  8
SHEETS_1_2
100
AcDbPolyline
 90
4
 70
1
 10
1500.0
 20
-6700.0
 10
2750.0
 20
-6700.0
 10
2750.0
 20
-4400.0
 10
1500.0
 20
-4400.0
  0
INSERT
  5
141
330
17
100
AcDbEntity
  8
0
100
AcDbBlockReference
  2
B_D1_LEAF2
 10
1500.0
 20
-6700.0
 30
0.0
  0
TEXT
  5
143
330
17
100
AcDbEntity
  8
TEXT
100
AcDbText
 10
1500.0
 20
-6780.0
 30
0.0
 40
40.0
  1
Sheet 1.2mm #2 (125x230 cm)
100
AcDbText
  0
ENDSEC
  0
SECTION
  2
OBJECTS
  0
DICTIONARY
  5
A
330
0
100
AcDbDictionary
281
1
  3
ACAD_COLOR
350
B
  3
ACAD_GROUP
350
C
  3
ACAD_LAYOUT
350
D
  3
ACAD_MATERIAL
350
E
  3
ACAD_MLEADERSTYLE
350
F
  3
ACAD_MLINESTYLE
350
10
  3
ACAD_PLOTSETTINGS
350
11
  3
ACAD_PLOTSTYLENAME
350
12
  3
ACAD_SCALELIST
350
14
  3
ACAD_TABLESTYLE
350
15
  3
ACAD_VISUALSTYLE
350
16
  3
EZDXF_META
350
2D
  0
DICTIONARY
  5
B
330
A
100
AcDbDictionary
281
1
  0
DICTIONARY
  5
C
330
A
100
AcDbDictionary
281
1
  0
DICTIONARY
  5
D
330
A
100
AcDbDictionary
281
1
  3
Model
350
1A
  3
Layout1
350
1E
  0
DICTIONARY
  5
E
330
A
100
AcDbDictionary
281
1
  3
ByBlock
350
1F
  3
ByLayer
350
20
  3
Global
350
21
  0
DICTIONARY
  5
F
330
A
100
AcDbDictionary
281
1
  3
Standard
350
2C
  0
DICTIONARY
  5
10
330
A
100
AcDbDictionary
281
1
  3
Standard
350
22
  0
DICTIONARY
  5
11
330
A
100
AcDbDictionary
281
1
  0
ACDBDICTIONARYWDFLT
  5
12
330
A
100
AcDbDictionary
281
1
  3
Normal
350
13
100
AcDbDictionaryWithDefault
340
13
  0
ACDBPLACEHOLDER
  5
13
330
12
  0
DICTIONARY
  5
14
330
A
100
AcDbDictionary
281
1
  0
DICTIONARY
  5
15
330
A
100
AcDbDictionary
281
1
  0
DICTIONARY
  5
16
330
A
100
AcDbDictionary
281
1
  0
LAYOUT
  5
1A
330
D
100
AcDbPlotSettings
  1

  4
A3
  6

 40
7.5
 41
20.0
 42
7.5
 43
20.0
 44
420.0
 45
297.0
 46
0.0
 47
0.0
 48
0.0
 49
0.0
140
0.0
141
0.0
142
1.0
143
1.0
 70
1024
 72
1
 73
0
 74
5
  7

 75
16
 76
0
 77
2
 78
300
147
1.0
148
0.0
149
0.0
100
AcDbLayout
  1
Model
 70
1
 71
0
 10
0.0
 20
0.0
 11
420.0
 21
297.0
 12
0.0
 22
0.0
 32
0.0
 14
1e+20
 24
1e+20
 34
1e+20
 15
-1e+20
 25
-1e+20
 35
-1e+20
146
0.0
 13
0.0
 23
0.0
 33
0.0
 16
1.0
 26
0.0
 36
0.0
 17
0.0
 27
1.0
 37
0.0
 76
1
330
17
  0
LAYOUT
  5
1E
330
D
100
AcDbPlotSettings
  1

  4
A3
  6

 40
7.5
 41
20.0
 42
7.5
 43
20.0
 44
420.0
 45
297.0
 46
0.0
 47
0.0
 48
0.0
 49
0.0
140
0.0
141
0.0
142
1.0
143
1.0
 70
0
 72
1
 73
0
 74
5
  7

 75
16
 76
0
 77
2
 78
300
147
1.0
148
0.0
149
0.0
100
AcDbLayout
  1
Layout1
 70
1
 71
1
 10
0.0
 20
0.0
 11
420.0
 21
297.0
 12
0.0
 22
0.0
 32
0.0
 14
1e+20
 24
1e+20
 34
1e+20
 15
-1e+20
 25
-1e+20
 35
-1e+20
146
0.0
 13
0.0
 23
0.0
 33
0.0
 16
1.0
 26
0.0
 36
0.0
 17
0.0
 27
1.0
 37
0.0
 76
1
330
1B
  0
MATERIAL
  5
1F
102
{ACAD_REACTORS
330
E
102
}
330
E
100
AcDbMaterial
  1
ByBlock
  2

 70
0
 40
1.0
 71
1
 41
1.0
 91
-1023410177
 42
1.0
 72
1
  3

 73
1
 74
1
 75
1
 44
0.5
 73
0
 45
1.0
 46
1.0
 77
1
  4

 78
1
 79
1
170
1
 48
1.0
171
1
  6

172
1
173
1
174
1
140
1.0
141
1.0
175
1
  7

176
1
177
1
178
1
143
1.0
179
1
  8

270
1
271
1
272
1
145
1.0
146
1.0
273
1
  9

274
1
275
1
276
1
 42
1.0
 72
1
  3

 73
1
 74
1
 75
1
 94
63
  0
MATERIAL
  5
20
102
{ACAD_REACTORS
330
E
102
}
330
E
100
AcDbMaterial
  1
ByLayer
  2

 70
0
 40
1.0
 71
1
 41
1.0
 91
-1023410177
 42
1.0
 72
1
  3

 73
1
 74
1
 75
1
 44
0.5
 73
0
 45
1.0
 46
1.0
 77
1
  4

 78
1
 79
1
170
1
 48
1.0
171
1
  6

172
1
173
1
174
1
140
1.0
141
1.0
175
1
  7

176
1
177
1
178
1
143
1.0
179
1
  8

270
1
271
1
272
1
145
1.0
146
1.0
273
1
  9

274
1
275
1
276
1
 42
1.0
 72
1
  3

 73
1
 74
1
 75
1
 94
63
  0
MATERIAL
  5
21
102
{ACAD_REACTORS
330
E
102
}
330
E
100
AcDbMaterial
  1
Global
  2

 70
0
 40
1.0
 71
1
 41
1.0
 91
-1023410177
 42
1.0
 72
1
  3

 73
1
 74
1
 75
1
 44
0.5
 73
0
 45
1.0
 46
1.0
 77
1
  4

 78
1
 79
1
170
1
 48
1.0
171
1
  6

172
1
173
1
174
1
140
1.0
141
1.0
175
1
  7

176
1
177
1
178
1
143
1.0
179
1
  8

270
1
271
1
272
1
145
1.0
146
1.0
273
1
  9

274
1
275
1
276
1
 42
1.0
 72
1
  3

 73
1
 74
1
 75
1
 94
63
  0
MLINESTYLE
  5
22
102
{ACAD_REACTORS
330
10
102
}
330
10
100
AcDbMlineStyle
  2
Standard
 70
0
  3

 62
256
 51
90.0
 52
90.0
 71
2
 49
0.5
 62
256
  6
BYLAYER
 49
-0.5
 62
256
  6
BYLAYER
  0
MLEADERSTYLE
  5
2C
102
{ACAD_REACTORS
330
F
102
}
330
F
100
AcDbMLeaderStyle
179
2
170
2
171
1
172
0
 90
2
 40
0.0
 41
0.0
173
1
 91
-1056964608
 92
-2
290
1
 42
2.0
291
1
 43
8.0
  3
Standard
 44
4.0
300

342
29
174
1
175
1
176
0
178
1
 93
-1056964608
 45
4.0
292
0
297
0
 46
4.0
 94
-1056964608
 47
1.0
 49
1.0
140
1.0
294
1
141
0.0
177
0
142
1.0
295
0
296
0
143
3.75
271
0
272
9
273
9
  0
DICTIONARY
  5
2D
330
A
100
AcDbDictionary
280
1
281
1
  3
CREATED_BY_EZDXF
350
2E
  3
WRITTEN_BY_EZDXF
350
146
  0
DICTIONARYVAR
  5
2E
330
2D
100
DictionaryVariables
280
0
  1
1.4.4 @ 2026-09-21T19:25:24.350941+00:00
  0
DICTIONARYVAR
  5
146
330
2D
100
DictionaryVariables
280
0
  1
1.4.4 @ 2026-09-21T19:25:24.382040+00:00
  0
ENDSEC
  0
EOF
