  0
SECTION
  2
HEADER
  9
$ACADVER
  1
AC1032
  9
$ACADMAINTVER
 90
4
  9
$DWGCODEPAGE
  3
ANSI_1252
  9
$LASTSAVEDBY
  1
ezdxf
  9
$REQUIREDVERSIONS
160
0
  9
$INSBASE
 10
0.0
 20
0.0
 30
0.0
  9
$EXTMIN
 10
1e+20
 20
1e+20
 30
1e+20
  9
$EXTMAX
 10
-1e+20
 20
-1e+20
 30
-1e+20
  9
$LIMMIN
 10
0.0
 20
0.0
  9
$LIMMAX
 10
420.0
 20
297.0
  9
$ORTHOMODE
 70
0
  9
$REGENMODE
 70
1
  9
$FILLMODE
 70
1
  9
$QTEXTMODE
 70
0
  9
$MIRRTEXT
 70
1
  9
$LTSCALE
 40
1.0
  9
$ATTMODE
 70
1
  9
$TEXTSIZE
 40
2.5
  9
$TRACEWID
 40
1.0
  9
$TEXTSTYLE
  7
Standard
  9
$CLAYER
  8
0
  9
$CELTYPE
  6
ByLayer
  9
$CECOLOR
 62
256
  9
$CELTSCALE
 40
1.0
  9
$DISPSILH
 70
0
  9
$DIMSCALE
 40
1.0
  9
$DIMASZ
 40
2.5
  9
$DIMEXO
 40
0.625
  9
$DIMDLI
 40
3.75
  9
$DIMRND
 40
0.0
  9
$DIMDLE
 40
0.0
  9
$DIMEXE
 40
1.25
  9
$DIMTP
 40
0.0
  9
$DIMTM
 40
0.0
  9
$DIMTXT
 40
2.5
  9
$DIMCEN
 40
2.5
  9
$DIMTSZ
 40
0.0
  9
$DIMTOL
 70
0
  9
$DIMLIM
 70
0
  9
$DIMTIH
 70
0
  9
$DIMTOH
 70
0
  9
$DIMSE1
 70
0
  9
$DIMSE2
 70
0
  9
$DIMTAD
 70
1
  9
$DIMZIN
 70
8
  9
$DIMBLK
  1

  9
$DIMASO
 70
1
  9
$DIMSHO
 70
1
  9
$DIMPOST
  1

  9
$DIMAPOST
  1

  9
$DIMALT
 70
0
  9
$DIMALTD
 70
3
  9
$DIMALTF
 40
0.03937007874
  9
$DIMLFAC
 40
1.0
  9
$DIMTOFL
 70
1
  9
$DIMTVP
 40
0.0
  9
$DIMTIX
 70
0
  9
$DIMSOXD
 70
0
  9
$DIMSAH
 70
0
  9
$DIMBLK1
  1

  9
$DIMBLK2
  1

  9
$DIMSTYLE
  2
ISO-25
  9
$DIMCLRD
 70
0
  9
$DIMCLRE
 70
0
  9
$DIMCLRT
 70
0
  9
$DIMTFAC
 40
1.0
  9
$DIMGAP
 40
0.625
  9
$DIMJUST
 70
0
  9
$DIMSD1
 70
0
  9
$DIMSD2
 70
0
  9
$DIMTOLJ
 70
0
  9
$DIMTZIN
 70
8
  9
$DIMALTZ
 70
0
  9
$DIMALTTZ
 70
0
  9
$DIMUPT
 70
0
  9
$DIMDEC
 70
2
  9
$DIMTDEC
 70
2
  9
$DIMALTU
 70
2
  9
$DIMALTTD
 70
3
  9
$DIMTXSTY
  7
Standard
  9
$DIMAUNIT
 70
0
  9
$DIMADEC
 70
0
  9
$DIMALTRND
 40
0.0
  9
$DIMAZIN
 70
0
  9
$DIMDSEP
 70
44
  9
$DIMATFIT
 70
3
  9
$DIMFRAC
 70
0
  9
$DIMLDRBLK
  1

  9
$DIMLUNIT
 70
2
  9
$DIMLWD
 70
-2
  9
$DIMLWE
 70
-2
  9
$DIMTMOVE
 70
0
  9
$DIMFXL
 40
1.0
  9
$DIMFXLON
 70
0
  9
$DIMJOGANG
 40
0.785398163397
  9
$DIMTFILL
 70
0
  9
$DIMTFILLCLR
 70
0
  9
$DIMARCSYM
 70
0
  9
$DIMLTYPE
  6

  9
$DIMLTEX1
  6

  9
$DIMLTEX2
  6

  9
$DIMTXTDIRECTION
 70
0
  9
$LUNITS
 70
2
  9
$LUPREC
 70
4
  9
$SKETCHINC
 40
1.0
  9
$FILLETRAD
 40
10.0
  9
$AUNITS
 70
0
  9
$AUPREC
 70
2
  9
$MENU
  1
.
  9
$ELEVATION
 40
0.0
  9
$PELEVATION
 40
0.0
  9
$THICKNESS
 40
0.0
  9
$LIMCHECK
 70
0
  9
$CHAMFERA
 40
0.0
  9
$CHAMFERB
 40
0.0
  9
$CHAMFERC
 40
0.0
  9
$CHAMFERD
 40
0.0
  9
$SKPOLY
 70
0
  9
$TDCREATE
 40
2461305.890833333
  9
$TDUCREATE
 40
2458532.153996898
  9
$TDUPDATE
 40
2461305.890833333
  9
$TDUUPDATE
 40
2458532.1544311
  9
$TDINDWG
 40
0.0
  9
$TDUSRTIMER
 40
0.0
  9
$USRTIMER
 70
1
  9
$ANGBASE
 50
0.0
  9
$ANGDIR
 70
0
  9
$PDMODE
 70
0
  9
$PDSIZE
 40
0.0
  9
$PLINEWID
 40
0.0
  9
$SPLFRAME
 70
0
  9
$SPLINETYPE
 70
6
  9
$SPLINESEGS
 70
8
  9
$HANDSEED
  5
13A
  9
$SURFTAB1
 70
6
  9
$SURFTAB2
 70
6
  9
$SURFTYPE
 70
6
  9
$SURFU
 70
6
  9
$SURFV
 70
6
  9
$UCSBASE
  2

  9
$UCSNAME
  2

  9
$UCSORG
 10
0.0
 20
0.0
 30
0.0
  9
$UCSXDIR
 10
1.0
 20
0.0
 30
0.0
  9
$UCSYDIR
 10
0.0
 20
1.0
 30
0.0
  9
$UCSORTHOREF
  2

  9
$UCSORTHOVIEW
 70
0
  9
$UCSORGTOP
 10
0.0
 20
0.0
 30
0.0
  9
$UCSORGBOTTOM
 10
0.0
 20
0.0
 30
0.0
  9
$UCSORGLEFT
 10
0.0
 20
0.0
 30
0.0
  9
$UCSORGRIGHT
 10
0.0
 20
0.0
 30
0.0
  9
$UCSORGFRONT
 10
0.0
 20
0.0
 30
0.0
  9
$UCSORGBACK
 10
0.0
 20
0.0
 30
0.0
  9
$PUCSBASE
  2

  9
$PUCSNAME
  2

  9
$PUCSORG
 10
0.0
 20
0.0
 30
0.0
  9
$PUCSXDIR
 10
1.0
 20
0.0
 30
0.0
  9
$PUCSYDIR
 10
0.0
 20
1.0
 30
0.0
  9
$PUCSORTHOREF
  2

  9
$PUCSORTHOVIEW
 70
0
  9
$PUCSORGTOP
 10
0.0
 20
0.0
 30
0.0
  9
$PUCSORGBOTTOM
 10
0.0
 20
0.0
 30
0.0
  9
$PUCSORGLEFT
 10
0.0
 20
0.0
 30
0.0
  9
$PUCSORGRIGHT
 10
0.0
 20
0.0
 30
0.0
  9
$PUCSORGFRONT
 10
0.0
 20
0.0
 30
0.0
  9
$PUCSORGBACK
 10
0.0
 20
0.0
 30
0.0
  9
$USERI1
 70
0
  9
$USERI2
 70
0
  9
$USERI3
 70
0
  9
$USERI4
 70
0
  9
$USERI5
 70
0
  9
$USERR1
 40
0.0
  9
$USERR2
 40
0.0
  9
$USERR3
 40
0.0
  9
$USERR4
 40
0.0
  9
$USERR5
 40
0.0
  9
$WORLDVIEW
 70
1
  9
$SHADEDGE
 70
3
  9
$SHADEDIF
 70
70
  9
$TILEMODE
 70
1
  9
$MAXACTVP
 70
64
  9
$PINSBASE
 10
0.0
 20
0.0
 30
0.0
  9
$PLIMCHECK
 70
0
  9
$PEXTMIN
 10
1e+20
 20
1e+20
 30
1e+20
  9
$PEXTMAX
 10
-1e+20
 20
-1e+20
 30
-1e+20
  9
$PLIMMIN
 10
0.0
 20
0.0
  9
$PLIMMAX
 10
420.0
 20
297.0
  9
$UNITMODE
 70
0
  9
$VISRETAIN
 70
1
  9
$PLINEGEN
 70
0
  9
$PSLTSCALE
 70
1
  9
$TREEDEPTH
 70
3020
  9
$CMLSTYLE
  2
Standard
  9
$CMLJUST
 70
0
  9
$CMLSCALE
 40
20.0
  9
$PROXYGRAPHICS
 70
1
  9
$MEASUREMENT
 70
1
  9
$CELWEIGHT
370
-1
  9
$ENDCAPS
280
0
  9
$JOINSTYLE
280
0
  9
$LWDISPLAY
290
0
  9
$INSUNITS
 70
6
  9
$HYPERLINKBASE
  1

  9
$STYLESHEET
  1

  9
$XEDIT
290
1
  9
$CEPSNTYPE
380
0
  9
$PSTYLEMODE
290
1
  9
$FINGERPRINTGUID
  2
{B6E5F896-ECA6-48B6-8E42-6DDD1E3224BF}
  9
$VERSIONGUID
  2
{C08C1EDC-F593-47AA-BD58-F04AF26CC6F2}
  9
$EXTNAMES
290
1
  9
$PSVPSCALE
 40
0.0
  9
$OLESTARTUP
290
0
  9
$SORTENTS
280
127
  9
$INDEXCTL
280
0
  9
$HIDETEXT
280
1
  9
$XCLIPFRAME
280
1
  9
$HALOGAP
280
0
  9
$OBSCOLOR
 70
257
  9
$OBSLTYPE
280
0
  9
$INTERSECTIONDISPLAY
280
0
  9
$INTERSECTIONCOLOR
 70
257
  9
$DIMASSOC
280
2
  9
$PROJECTNAME
  1

  9
$CAMERADISPLAY
290
0
  9
$LENSLENGTH
 40
50.0
  9
$CAMERAHEIGHT
 40
0.0
  9
$STEPSPERSEC
 40
24.0
  9
$STEPSIZE
 40
100.0
  9
$3DDWFPREC
 40
2.0
  9
$PSOLWIDTH
 40
0.005
  9
$PSOLHEIGHT
 40
0.08
  9
$LOFTANG1
 40
1.570796326795
  9
$LOFTANG2
 40
1.570796326795
  9
$LOFTMAG1
 40
0.0
  9
$LOFTMAG2
 40
0.0
  9
$LOFTPARAM
 70
7
  9
$LOFTNORMALS
280
1
  9
$LATITUDE
 40
37.795
  9
$LONGITUDE
 40
-122.394
  9
$NORTHDIRECTION
 40
0.0
  9
$TIMEZONE
 70
-8000
  9
$LIGHTGLYPHDISPLAY
280
1
  9
$TILEMODELIGHTSYNCH
280
1
  9
$CMATERIAL
347
20
  9
$SOLIDHIST
280
0
  9
$SHOWHIST
280
1
  9
$DWFFRAME
280
2
  9
$DGNFRAME
280
2
  9
$REALWORLDSCALE
290
1
  9
$INTERFERECOLOR
 62
256
  9
$CSHADOW
280
0
  9
$SHADOWPLANELOCATION
 40
0.0
  0
ENDSEC
  0
SECTION
  2
CLASSES
  0
CLASS
  1
ACDBDICTIONARYWDFLT
  2
AcDbDictionaryWithDefault
  3
ObjectDBX Classes
 90
0
 91
0
280
0
281
0
  0
CLASS
  1
SUN
  2
AcDbSun
  3
SCENEOE
 90
1153
 91
0
280
0
281
0
  0
CLASS
  1
VISUALSTYLE
  2
AcDbVisualStyle
  3
ObjectDBX Classes
 90
4095
 91
0
280
0
281
0
  0
CLASS
  1
MATERIAL
  2
AcDbMaterial
  3
ObjectDBX Classes
 90
1153
 91
0
280
0
281
0
  0
CLASS
  1
SCALE
  2
AcDbScale
  3
ObjectDBX Classes
 90
1153
 91
0
280
0
281
0
  0
CLASS
  1
TABLESTYLE
  2
AcDbTableStyle
  3
ObjectDBX Classes
 90
4095
 91
0
280
0
281
0
  0
CLASS
  1
MLEADERSTYLE
  2
AcDbMLeaderStyle
  3
ACDB_MLEADERSTYLE_CLASS
 90
4095
 91
0
280
0
281
0
  0
CLASS
  1
DICTIONARYVAR
  2
AcDbDictionaryVar
  3
ObjectDBX Classes
 90
0
 91
0
280
0
281
0
  0
CLASS
  1
CELLSTYLEMAP
  2
AcDbCellStyleMap
  3
ObjectDBX Classes
 90
1152
 91
0
280
0
281
0
  0
CLASS
  1
MENTALRAYRENDERSETTINGS
  2
AcDbMentalRayRenderSettings
  3
SCENEOE
 90
1024
 91
0
280
0
281
0
  0
CLASS
  1
ACDBDETAILVIEWSTYLE
  2
AcDbDetailViewStyle
  3
ObjectDBX Classes
 90
1025
 91
0
280
0
281
0
  0
CLASS
  1
ACDBSECTIONVIEWSTYLE
  2
AcDbSectionViewStyle
  3
ObjectDBX Classes
 90
1025
 91
0
280
0
281
0
  0
CLASS
  1
RASTERVARIABLES
  2
AcDbRasterVariables
  3
ISM
 90
0
 91
0
280
0
281
0
  0
CLASS
  1
LAYOUT
  2
AcDbLayout
  3
ObjectDBX Classes
 90
0
 91
0
280
0
281
0
  0
CLASS
  1
ACDBPLACEHOLDER
  2
AcDbPlaceHolder
  3
ObjectDBX Classes
 90
0
 91
0
280
0
281
0
  0
ENDSEC
  0
SECTION
  2
TABLES
  0
TABLE
  2
VPORT
  5
8
330
0
100
AcDbSymbolTable
 70
1
  0
VPORT
  5
23
330
8
100
AcDbSymbolTableRecord
100
AcDbViewportTableRecord
  2
*Active
 70
0
 10
0.0
 20
0.0
 11
1.0
 21
1.0
 12
0.0
 22
0.0
 13
0.0
 23
0.0
 14
0.5
 24
0.5
 15
0.5
 25
0.5
 16
0.0
 26
0.0
 36
1.0
 17
0.0
 27
0.0
 37
0.0
 40
1000.0
 41
1.34
 42
50.0
 43
0.0
 44
0.0
 50
0.0
 51
0.0
 71
0
 72
1000
 73
1
 74
3
 75
0
 76
0
 77
0
 78
0
281
0
 65
0
146
0.0
  0
ENDTAB
  0
TABLE
  2
LTYPE
  5
2
330
0
100
AcDbSymbolTable
 70
3
  0
LTYPE
  5
24
330
2
100
AcDbSymbolTableRecord
100
AcDbLinetypeTableRecord
  2
ByBlock
 70
0
  3

 72
65
 73
0
 40
0.0
  0
LTYPE
  5
25
330
2
100
AcDbSymbolTableRecord
100
AcDbLinetypeTableRecord
  2
ByLayer
 70
0
  3

 72
65
 73
0
 40
0.0
  0
LTYPE
  5
26
330
2
100
AcDbSymbolTableRecord
100
AcDbLinetypeTableRecord
  2
Continuous
 70
0
  3

 72
65
 73
0
 40
0.0
  0
ENDTAB
  0
TABLE
  2
LAYER
  5
1
330
0
100
AcDbSymbolTable
 70
12
  0
LAYER
  5
27
330
1
100
AcDbSymbolTableRecord
100
AcDbLayerTableRecord
  2
0
 70
0
 62
7
  6
Continuous
370
-3
390
13
347
21
  0
LAYER
  5
28
330
1
100
AcDbSymbolTableRecord
100
AcDbLayerTableRecord
  2
Defpoints
 70
0
 62
7
  6
Continuous
290
0
370
-3
390
13
347
21
  0
LAYER
  5
2F
330
1
100
AcDbSymbolTableRecord
100
AcDbLayerTableRecord
  2
OUTLINE
 70
0
 62
7
  6
Continuous
370
-3
390
13
347
21
  0
LAYER
  5
30
330
1
100
AcDbSymbolTableRecord
100
AcDbLayerTableRecord
  2
BEND_LINES
 70
0
 62
1
  6
Continuous
370
-3
390
13
347
21
  0
LAYER
  5
31
330
1
100
AcDbSymbolTableRecord
100
AcDbLayerTableRecord
  2
CUTOUTS
 70
0
 62
3
  6
Continuous
370
-3
390
13
347
21
  0
LAYER
  5
32
330
1
100
AcDbSymbolTableRecord
100
AcDbLayerTableRecord
  2
HOLES
 70
0
 62
4
  6
Continuous
370
-3
390
13
347
21
  0
LAYER
  5
33
330
1
100
AcDbSymbolTableRecord
100
AcDbLayerTableRecord
  2
NOTCHES
 70
0
 62
6
  6
Continuous
370
-3
390
13
347
21
  0
LAYER
  5
34
330
1
100
AcDbSymbolTableRecord
100
AcDbLayerTableRecord
  2
CHANNELS
 70
0
 62
5
  6
Continuous
370
-3
390
13
347
21
  0
LAYER
  5
35
330
1
100
AcDbSymbolTableRecord
100
AcDbLayerTableRecord
  2
SHEETS_1_5
 70
0
 62
4
  6
Continuous
370
-3
390
13
347
21
  0
LAYER
  5
36
330
1
100
AcDbSymbolTableRecord
100
AcDbLayerTableRecord
  2
SHEETS_1_2
 70
0
 62
3
  6
Continuous
370
-3
390
13
347
21
  0
LAYER
  5
37
330
1
100
AcDbSymbolTableRecord
100
AcDbLayerTableRecord
  2
PART_LABELS
 70
0
 62
7
  6
Continuous
370
-3
390
13
347
21
  0
LAYER
  5
38
330
1
100
AcDbSymbolTableRecord
100
AcDbLayerTableRecord
  2
TEXT
 70
0
 62
2
  6
Continuous
370
-3
390
13
347
21
  0
ENDTAB
  0
TABLE
  2
STYLE
  5
5
330
0
100
AcDbSymbolTable
 70
1
  0
STYLE
  5
29
330
5
100
AcDbSymbolTableRecord
100
AcDbTextStyleTableRecord
  2
Standard
 70
0
 40
0.0
 41
1.0
 50
0.0
 71
0
 42
2.5
  3
txt
  4

  0
ENDTAB
  0
TABLE
  2
VIEW
  5
7
330
0
100
AcDbSymbolTable
 70
0
  0
ENDTAB
  0
TABLE
  2
UCS
  5
6
330
0
100
AcDbSymbolTable
 70
0
  0
ENDTAB
  0
TABLE
  2
APPID
  5
3
330
0
100
AcDbSymbolTable
 70
3
  0
APPID
  5
2A
330
3
100
AcDbSymbolTableRecord
100
AcDbRegAppTableRecord
  2
ACAD
 70
0
  0
APPID
  5
137
330
3
100
AcDbSymbolTableRecord
100
AcDbRegAppTableRecord
  2
HATCHBACKGROUNDCOLOR
 70
0
  0
APPID
  5
138
330
3
100
AcDbSymbolTableRecord
100
AcDbRegAppTableRecord
  2
EZDXF
 70
0
  0
ENDTAB
  0
TABLE
  2
DIMSTYLE
  5
4
330
0
100
AcDbSymbolTable
 70
1
100
AcDbDimStyleTable
  0
DIMSTYLE
105
2B
330
4
100
AcDbSymbolTableRecord
100
AcDbDimStyleTableRecord
  2
Standard
 70
0
 40
1.0
 41
2.5
 42
0.625
 43
3.75
 44
1.25
 45
0.0
 46
0.0
 47
0.0
 48
0.0
 49
2.5
140
2.5
141
2.5
142
0.0
143
0.03937007874
144
1.0
145
0.0
146
1.0
147
0.625
148
0.0
 69
0
 70
0
 71
0
 72
0
 73
0
 74
0
 75
0
 76
0
 77
1
 78
8
 79
3
170
0
171
3
172
1
173
0
174
0
175
0
176
0
177
0
178
0
179
2
271
2
272
2
273
2
274
3
275
0
276
0
277
2
278
44
279
0
280
0
281
0
282
0
283
0
284
8
285
0
286
0
288
0
289
3
290
0
371
-2
372
-2
  0
ENDTAB
  0
TABLE
  2
BLOCK_RECORD
  5
9
330
0
100
AcDbSymbolTable
 70
7
  0
BLOCK_RECORD
  5
17
330
9
100
AcDbSymbolTableRecord
100
AcDbBlockTableRecord
  2
*Model_Space
340
1A
 70
0
280
1
281
0
  0
BLOCK_RECORD
  5
1B
330
9
100
AcDbSymbolTableRecord
100
AcDbBlockTableRecord
  2
*Paper_Space
340
1E
 70
0
280
1
281
0
  0
BLOCK_RECORD
  5
39
330
9
100
AcDbSymbolTableRecord
100
AcDbBlockTableRecord
  2
B_D-TEST_HINGE_POST
340
0
 70
0
280
1
281
0
  0
BLOCK_RECORD
  5
8A
330
9
100
AcDbSymbolTableRecord
100
AcDbBlockTableRecord
  2
B_D-TEST_LOCK_POST
340
0
 70
0
280
1
281
0
  0
BLOCK_RECORD
  5
D6
330
9
100
AcDbSymbolTableRecord
100
AcDbBlockTableRecord
  2
B_D-TEST_HEADER
340
0
 70
0
280
1
281
0
  0
BLOCK_RECORD
  5
F3
330
9
100
AcDbSymbolTableRecord
100
AcDbBlockTableRecord
  2
B_D-TEST_LEAF1
340
0
 70
0
280
1
281
0
  0
BLOCK_RECORD
  5
10F
330
9
100
AcDbSymbolTableRecord
100
AcDbBlockTableRecord
  2
B_D-TEST_LEAF2
340
0
 70
0
280
1
281
0
  0
ENDTAB
  0
ENDSEC
  0
SECTION
  2
BLOCKS
  0
BLOCK
  5
18
330
17
100
AcDbEntity
  8
0
100
AcDbBlockBegin
  2
*Model_Space
 70
0
 10
0.0
 20
0.0
 30
0.0
  3
*Model_Space
  1

  0
ENDBLK
  5
19
330
17
100
AcDbEntity
  8
0
100
AcDbBlockEnd
  0
BLOCK
  5
1C
330
1B
100
AcDbEntity
  8
0
100
AcDbBlockBegin
  2
*Paper_Space
 70
0
 10
0.0
 20
0.0
 30
0.0
  3
*Paper_Space
  1

  0
ENDBLK
  5
1D
330
1B
100
AcDbEntity
  8
0
100
AcDbBlockEnd
  0
BLOCK
  5
3A
330
39
100
AcDbEntity
  8
0
100
AcDbBlockBegin
  2
B_D-TEST_HINGE_POST
 70
0
 10
0.0
 20
0.0
 30
0.0
  3
B_D-TEST_HINGE_POST
  1

  0
LWPOLYLINE
  5
3C
330
39
100
AcDbEntity
  8
OUTLINE
100
AcDbPolyline
 90
44
 70
1
 10
162.53472402373689
 20
2041.0
 10
158.03472402373689
 20
2045.5
 10
154.90098535184154
 20
2047.0
 10
147.40098535184188
 20
2047.0
 10
144.26724667971382
 20
2050.0
 10
135.7672466797136
 20
2058.5
 10
132.6335080078186
 20
2060.0
 10
120.63350800781895
 20
2060.0
 10
120.63350800781895
 20
2069.0
 10
117.6335080078186
 20
2072.0
 10
113.63350800781895
 20
2072.0
 10
110.6335080078186
 20
2069.0
 10
110.6335080078186
 20
2060.0
 10
95.1335080078186
 20
2060.0
 10
95.1335080078186
 20
2069.0
 10
92.13350800781895
 20
2072.0
 10
88.1335080078186
 20
2072.0
 10
85.13350800781872
 20
2069.0
 10
85.13350800781872
 20
2060.0
 10
73.1335080078186
 20
2060.0
 10
69.99966078778039
 20
2063.0
 10
19.999695171344566
 20
2097.0
 10
15.858372755114878
 20
2098.5
 10
0.0
 20
2098.5
 10
0.0
 20
0.0
 10
355.669396549812
 20
0.0
 10
355.669396550197
 20
2098.5
 10
335.8451713466156
 20
2098.5
 10
330.6685547925333
 20
2097.0
 10
280.6685013676373
 20
2041.0
 10
277.53476269550913
 20
2038.0
 10
265.5347626957422
 20
2038.0
 10
265.5347626957422
 20
2047.0
 10
262.5347626957422
 20
2050.0
 10
258.5347626957422
 20
2050.0
 10
255.5348831835895
 20
2047.0
 10
255.5348831835895
 20
2038.0
 10
187.668227768534
 20
2038.0
 10
187.668227768534
 20
2047.0
 10
184.668462695632
 20
2050.0
 10
180.6684626956319
 20
2050.0
 10
177.6684626956319
 20
2047.0
 10
177.6684626956319
 20
2038.0
 10
165.6684626956319
 20
2038.0
  0
LWPOLYLINE
  5
3D
330
39
100
AcDbEntity
  8
CUTOUTS
100
AcDbPolyline
 90
4
 70
1
 10
69.77
 20
150.0
 10
100.27
 20
150.0
 10
100.27
 20
252.0
 10
69.77
 20
252.0
  0
LWPOLYLINE
  5
3E
330
39
100
AcDbEntity
  8
CUTOUTS
100
AcDbPolyline
 90
4
 70
1
 10
69.77
 20
878.0
 10
100.27
 20
878.0
 10
100.27
 20
980.0
 10
69.77
 20
980.0
  0
LWPOLYLINE
  5
3F
330
39
100
AcDbEntity
  8
CUTOUTS
100
AcDbPolyline
 90
4
 70
1
 10
69.77
 20
1606.0
 10
100.27
 20
1606.0
 10
100.27
 20
1708.0
 10
69.77
 20
1708.0
  0
LWPOLYLINE
  5
40
330
39
100
AcDbEntity
  8
CUTOUTS
100
AcDbPolyline
 90
4
 70
1
 10
69.77
 20
1808.0
 10
100.27
 20
1808.0
 10
100.27
 20
1910.0
 10
69.77
 20
1910.0
  0
CIRCLE
  5
41
330
39
100
AcDbEntity
  8
HOLES
100
AcDbCircle
 10
93.13
 20
1517.5
 30
0.0
 40
2.0
  0
CIRCLE
  5
42
330
39
100
AcDbEntity
  8
HOLES
100
AcDbCircle
 10
93.13
 20
1447.5
 30
0.0
 40
2.0
  0
CIRCLE
  5
43
330
39
100
AcDbEntity
  8
HOLES
100
AcDbCircle
 10
221.6015
 20
150.0
 30
0.0
 40
3.25
  0
CIRCLE
  5
44
330
39
100
AcDbEntity
  8
HOLES
100
AcDbCircle
 10
221.6015
 20
729.3333333333334
 30
0.0
 40
3.25
  0
CIRCLE
  5
45
330
39
100
AcDbEntity
  8
HOLES
100
AcDbCircle
 10
221.6015
 20
1308.6666666666667
 30
0.0
 40
3.25
  0
CIRCLE
  5
46
330
39
100
AcDbEntity
  8
HOLES
100
AcDbCircle
 10
221.6015
 20
1888.0
 30
0.0
 40
3.25
  0
LINE
  5
47
330
39
100
AcDbEntity
  8
NOTCHES
100
AcDbLine
 10
164.10159335968444
 20
3.0
 30
0.0
 11
164.10159335968444
 21
0.0
 31
0.0
  0
LINE
  5
48
330
39
100
AcDbEntity
  8
NOTCHES
100
AcDbLine
 10
279.1016320316902
 20
3.0
 30
0.0
 11
279.1016320316902
 21
0.0
 31
0.0
  0
LINE
  5
49
330
39
100
AcDbEntity
  8
NOTCHES
100
AcDbLine
 10
156.4678546875565
 20
3.0
 30
0.0
 11
156.4678546875565
 21
0.0
 31
0.0
  0
LINE
  5
4A
330
39
100
AcDbEntity
  8
NOTCHES
100
AcDbLine
 10
71.56663867187093
 20
3.0
 30
0.0
 11
71.56663867187093
 21
0.0
 31
0.0
  0
LINE
  5
4B
330
39
100
AcDbEntity
  8
NOTCHES
100
AcDbLine
 10
333.2566737982973
 20
3.0
 30
0.0
 11
333.2566737982973
 21
0.0
 31
0.0
  0
LINE
  5
4C
330
39
100
AcDbEntity
  8
NOTCHES
100
AcDbLine
 10
17.92903396322972
 20
3.0
 30
0.0
 11
17.92903396322972
 21
0.0
 31
0.0
  0
LINE
  5
4D
330
39
100
AcDbEntity
  8
NOTCHES
100
AcDbLine
 10
145.83411601566115
 20
1.0
 30
0.0
 11
145.83411601566115
 21
0.0
 31
0.0
  0
LINE
  5
4E
330
39
100
AcDbEntity
  8
NOTCHES
100
AcDbLine
 10
134.2003773437665
 20
1.047160253394394
 30
0.0
 11
134.2003773437665
 21
0.0471602533943951
 31
0.0
  0
LINE
  5
4F
330
39
100
AcDbEntity
  8
NOTCHES
100
AcDbLine
 10
71.56663867187093
 20
2061.5
 30
0.0
 11
71.56663867187093
 21
2058.5
 31
0.0
  0
LINE
  5
50
330
39
100
AcDbEntity
  8
NOTCHES
100
AcDbLine
 10
134.2003773437665
 20
2059.25
 30
0.0
 11
134.2003773437665
 21
2058.25
 31
0.0
  0
LINE
  5
51
330
39
100
AcDbEntity
  8
NOTCHES
100
AcDbLine
 10
145.83411601566115
 20
2048.5
 30
0.0
 11
145.83411601566115
 21
2047.5
 31
0.0
  0
LINE
  5
52
330
39
100
AcDbEntity
  8
NOTCHES
100
AcDbLine
 10
156.4678546875565
 20
2046.25
 30
0.0
 11
156.4678546875565
 21
2043.25
 31
0.0
  0
LINE
  5
53
330
39
100
AcDbEntity
  8
NOTCHES
100
AcDbLine
 10
164.10159335968444
 20
2039.5
 30
0.0
 11
164.10159335968444
 21
2036.5
 31
0.0
  0
LINE
  5
54
330
39
100
AcDbEntity
  8
NOTCHES
100
AcDbLine
 10
279.1016320316902
 20
2039.5
 30
0.0
 11
279.1016320316902
 21
2036.5
 31
0.0
  0
LINE
  5
55
330
39
100
AcDbEntity
  8
NOTCHES
100
AcDbLine
 10
333.2566737982973
 20
2097.75
 30
0.0
 11
333.2566737982973
 21
2094.75
 31
0.0
  0
LINE
  5
56
330
39
100
AcDbEntity
  8
NOTCHES
100
AcDbLine
 10
17.92903396322972
 20
2097.75
 30
0.0
 11
17.92903396322972
 21
2094.75
 31
0.0
  0
LINE
  5
57
330
39
100
AcDbEntity
  8
NOTCHES
100
AcDbLine
 10
164.10159335968444
 20
3.0
 30
0.0
 11
164.10159335968444
 21
0.0
 31
0.0
  0
LINE
  5
58
330
39
100
AcDbEntity
  8
NOTCHES
100
AcDbLine
 10
279.1016320316902
 20
3.0
 30
0.0
 11
279.1016320316902
 21
0.0
 31
0.0
  0
LINE
  5
59
330
39
100
AcDbEntity
  8
NOTCHES
100
AcDbLine
 10
156.4678546875565
 20
3.0
 30
0.0
 11
156.4678546875565
 21
0.0
 31
0.0
  0
LINE
  5
5A
330
39
100
AcDbEntity
  8
NOTCHES
100
AcDbLine
 10
71.56663867187093
 20
3.0
 30
0.0
 11
71.56663867187093
 21
0.0
 31
0.0
  0
LINE
  5
5B
330
39
100
AcDbEntity
  8
NOTCHES
100
AcDbLine
 10
333.2566737982973
 20
3.0
 30
0.0
 11
333.2566737982973
 21
0.0
 31
0.0
  0
LINE
  5
5C
330
39
100
AcDbEntity
  8
NOTCHES
100
AcDbLine
 10
17.92903396322972
 20
3.0
 30
0.0
 11
17.92903396322972
 21
0.0
 31
0.0
  0
LINE
  5
5D
330
39
100
AcDbEntity
  8
NOTCHES
100
AcDbLine
 10
145.83411601566115
 20
1.0
 30
0.0
 11
145.83411601566115
 21
0.0
 31
0.0
  0
LINE
  5
5E
330
39
100
AcDbEntity
  8
NOTCHES
100
AcDbLine
 10
134.2003773437665
 20
1.047160253394394
 30
0.0
 11
134.2003773437665
 21
0.0471602533943951
 31
0.0
  0
LINE
  5
5F
330
39
100
AcDbEntity
  8
NOTCHES
100
AcDbLine
 10
71.56663867187093
 20
2061.5
 30
0.0
 11
71.56663867187093
 21
2058.5
 31
0.0
  0
LINE
  5
60
330
39
100
AcDbEntity
  8
NOTCHES
100
AcDbLine
 10
134.2003773437665
 20
2059.25
 30
0.0
 11
134.2003773437665
 21
2058.25
 31
0.0
  0
LINE
  5
61
330
39
100
AcDbEntity
  8
NOTCHES
100
AcDbLine
 10
145.83411601566115
 20
2048.5
 30
0.0
 11
145.83411601566115
 21
2047.5
 31
0.0
  0
LINE
  5
62
330
39
100
AcDbEntity
  8
NOTCHES
100
AcDbLine
 10
156.4678546875565
 20
2046.25
 30
0.0
 11
156.4678546875565
 21
2043.25
 31
0.0
  0
LINE
  5
63
330
39
100
AcDbEntity
  8
NOTCHES
100
AcDbLine
 10
164.10159335968444
 20
2039.5
 30
0.0
 11
164.10159335968444
 21
2036.5
 31
0.0
  0
LINE
  5
64
330
39
100
AcDbEntity
  8
NOTCHES
100
AcDbLine
 10
279.1016320316902
 20
2039.5
 30
0.0
 11
279.1016320316902
 21
2036.5
 31
0.0
  0
LINE
  5
65
330
39
100
AcDbEntity
  8
NOTCHES
100
AcDbLine
 10
333.2566737982973
 20
2097.75
 30
0.0
 11
333.2566737982973
 21
2094.75
 31
0.0
  0
LINE
  5
66
330
39
100
AcDbEntity
  8
NOTCHES
100
AcDbLine
 10
17.92903396322972
 20
2097.75
 30
0.0
 11
17.92903396322972
 21
2094.75
 31
0.0
  0
LINE
  5
67
330
39
100
AcDbEntity
  8
NOTCHES
100
AcDbLine
 10
164.10159335968444
 20
3.0
 30
0.0
 11
164.10159335968444
 21
0.0
 31
0.0
  0
LINE
  5
68
330
39
100
AcDbEntity
  8
NOTCHES
100
AcDbLine
 10
279.1016320316902
 20
3.0
 30
0.0
 11
279.1016320316902
 21
0.0
 31
0.0
  0
LINE
  5
69
330
39
100
AcDbEntity
  8
NOTCHES
100
AcDbLine
 10
156.4678546875565
 20
3.0
 30
0.0
 11
156.4678546875565
 21
0.0
 31
0.0
  0
LINE
  5
6A
330
39
100
AcDbEntity
  8
NOTCHES
100
AcDbLine
 10
71.56663867187093
 20
3.0
 30
0.0
 11
71.56663867187093
 21
0.0
 31
0.0
  0
LINE
  5
6B
330
39
100
AcDbEntity
  8
NOTCHES
100
AcDbLine
 10
333.2566737982973
 20
3.0
 30
0.0
 11
333.2566737982973
 21
0.0
 31
0.0
  0
LINE
  5
6C
330
39
100
AcDbEntity
  8
NOTCHES
100
AcDbLine
 10
17.92903396322972
 20
3.0
 30
0.0
 11
17.92903396322972
 21
0.0
 31
0.0
  0
LINE
  5
6D
330
39
100
AcDbEntity
  8
NOTCHES
100
AcDbLine
 10
145.83411601566115
 20
1.0
 30
0.0
 11
145.83411601566115
 21
0.0
 31
0.0
  0
LINE
  5
6E
330
39
100
AcDbEntity
  8
NOTCHES
100
AcDbLine
 10
134.2003773437665
 20
1.047160253394394
 30
0.0
 11
134.2003773437665
 21
0.0471602533943951
 31
0.0
  0
LINE
  5
6F
330
39
100
AcDbEntity
  8
NOTCHES
100
AcDbLine
 10
71.56663867187093
 20
2061.5
 30
0.0
 11
71.56663867187093
 21
2058.5
 31
0.0
  0
LINE
  5
70
330
39
100
AcDbEntity
  8
NOTCHES
100
AcDbLine
 10
134.2003773437665
 20
2059.25
 30
0.0
 11
134.2003773437665
 21
2058.25
 31
0.0
  0
LINE
  5
71
330
39
100
AcDbEntity
  8
NOTCHES
100
AcDbLine
 10
145.83411601566115
 20
2048.5
 30
0.0
 11
145.83411601566115
 21
2047.5
 31
0.0
  0
LINE
  5
72
330
39
100
AcDbEntity
  8
NOTCHES
100
AcDbLine
 10
156.4678546875565
 20
2046.25
 30
0.0
 11
156.4678546875565
 21
2043.25
 31
0.0
  0
LINE
  5
73
330
39
100
AcDbEntity
  8
NOTCHES
100
AcDbLine
 10
164.10159335968444
 20
2039.5
 30
0.0
 11
164.10159335968444
 21
2036.5
 31
0.0
  0
LINE
  5
74
330
39
100
AcDbEntity
  8
NOTCHES
100
AcDbLine
 10
279.1016320316902
 20
2039.5
 30
0.0
 11
279.1016320316902
 21
2036.5
 31
0.0
  0
LINE
  5
75
330
39
100
AcDbEntity
  8
NOTCHES
100
AcDbLine
 10
333.2566737982973
 20
2097.75
 30
0.0
 11
333.2566737982973
 21
2094.75
 31
0.0
  0
LINE
  5
76
330
39
100
AcDbEntity
  8
NOTCHES
100
AcDbLine
 10
17.92903396322972
 20
2097.75
 30
0.0
 11
17.92903396322972
 21
2094.75
 31
0.0
  0
LINE
  5
77
330
39
100
AcDbEntity
  8
NOTCHES
100
AcDbLine
 10
164.10159335968444
 20
3.0
 30
0.0
 11
164.10159335968444
 21
0.0
 31
0.0
  0
LINE
  5
78
330
39
100
AcDbEntity
  8
NOTCHES
100
AcDbLine
 10
279.1016320316902
 20
3.0
 30
0.0
 11
279.1016320316902
 21
0.0
 31
0.0
  0
LINE
  5
79
330
39
100
AcDbEntity
  8
NOTCHES
100
AcDbLine
 10
156.4678546875565
 20
3.0
 30
0.0
 11
156.4678546875565
 21
0.0
 31
0.0
  0
LINE
  5
7A
330
39
100
AcDbEntity
  8
NOTCHES
100
AcDbLine
 10
71.56663867187093
 20
3.0
 30
0.0
 11
71.56663867187093
 21
0.0
 31
0.0
  0
LINE
  5
7B
330
39
100
AcDbEntity
  8
NOTCHES
100
AcDbLine
 10
333.2566737982973
 20
3.0
 30
0.0
 11
333.2566737982973
 21
0.0
 31
0.0
  0
LINE
  5
7C
330
39
100
AcDbEntity
  8
NOTCHES
100
AcDbLine
 10
17.92903396322972
 20
3.0
 30
0.0
 11
17.92903396322972
 21
0.0
 31
0.0
  0
LINE
  5
7D
330
39
100
AcDbEntity
  8
NOTCHES
100
AcDbLine
 10
145.83411601566115
 20
1.0
 30
0.0
 11
145.83411601566115
 21
0.0
 31
0.0
  0
LINE
  5
7E
330
39
100
AcDbEntity
  8
NOTCHES
100
AcDbLine
 10
134.2003773437665
 20
1.047160253394394
 30
0.0
 11
134.2003773437665
 21
0.0471602533943951
 31
0.0
  0
LINE
  5
7F
330
39
100
AcDbEntity
  8
NOTCHES
100
AcDbLine
 10
71.56663867187093
 20
2061.5
 30
0.0
 11
71.56663867187093
 21
2058.5
 31
0.0
  0
LINE
  5
80
330
39
100
AcDbEntity
  8
NOTCHES
100
AcDbLine
 10
134.2003773437665
 20
2059.25
 30
0.0
 11
134.2003773437665
 21
2058.25
 31
0.0
  0
LINE
  5
81
330
39
100
AcDbEntity
  8
NOTCHES
100
AcDbLine
 10
145.83411601566115
 20
2048.5
 30
0.0
 11
145.83411601566115
 21
2047.5
 31
0.0
  0
LINE
  5
82
330
39
100
AcDbEntity
  8
NOTCHES
100
AcDbLine
 10
156.4678546875565
 20
2046.25
 30
0.0
 11
156.4678546875565
 21
2043.25
 31
0.0
  0
LINE
  5
83
330
39
100
AcDbEntity
  8
NOTCHES
100
AcDbLine
 10
164.10159335968444
 20
2039.5
 30
0.0
 11
164.10159335968444
 21
2036.5
 31
0.0
  0
LINE
  5
84
330
39
100
AcDbEntity
  8
NOTCHES
100
AcDbLine
 10
279.1016320316902
 20
2039.5
 30
0.0
 11
279.1016320316902
 21
2036.5
 31
0.0
  0
LINE
  5
85
330
39
100
AcDbEntity
  8
NOTCHES
100
AcDbLine
 10
333.2566737982973
 20
2097.75
 30
0.0
 11
333.2566737982973
 21
2094.75
 31
0.0
  0
LINE
  5
86
330
39
100
AcDbEntity
  8
NOTCHES
100
AcDbLine
 10
17.92903396322972
 20
2097.75
 30
0.0
 11
17.92903396322972
 21
2094.75
 31
0.0
  0
LWPOLYLINE
  5
87
330
39
100
AcDbEntity
  8
NOTCHES
100
AcDbPolyline
 90
4
 70
1
 10
98.49980800792925
 20
6.0
 10
86.49980800792947
 20
6.0
 10
86.49980800792947
 20
4.0
 10
98.49980800792925
 20
4.0
  0
LWPOLYLINE
  5
88
330
39
100
AcDbEntity
  8
NOTCHES
100
AcDbPolyline
 90
4
 70
1
 10
253.87777392522256
 20
11.0
 10
264.16846269539917
 20
11.0
 10
264.16846269539917
 20
9.0
 10
253.87777392522256
 20
9.0
  0
TEXT
  5
89
330
39
100
AcDbEntity
  8
PART_LABELS
100
AcDbText
 10
221.6015
 20
1049.25
 30
0.0
 40
25.0
  1
PRJ-101 - D-TEST
 72
1
 11
221.6015
 21
1049.25
 31
0.0
100
AcDbText
 73
2
  0
ENDBLK
  5
3B
330
39
100
AcDbEntity
  8
0
100
AcDbBlockEnd
  0
BLOCK
  5
8B
330
8A
100
AcDbEntity
  8
0
100
AcDbBlockBegin
  2
B_D-TEST_LOCK_POST
 70
0
 10
0.0
 20
0.0
 30
0.0
  3
B_D-TEST_LOCK_POST
  1

  0
LWPOLYLINE
  5
8D
330
8A
100
AcDbEntity
  8
OUTLINE
100
AcDbPolyline
 90
44
 70
1
 10
193.1345160160288
 20
2041.0
 10
197.6345160160279
 20
2045.5
 10
200.76825468792393
 20
2047.0
 10
208.26825468792393
 20
2047.0
 10
211.40199335981882
 20
2050.0
 10
219.90199335981882
 20
2058.5
 10
223.03573203171393
 20
2060.0
 10
235.03573203171393
 20
2060.0
 10
235.03573203171393
 20
2069.0
 10
238.03573203171393
 20
2072.0
 10
242.03573203171393
 20
2072.0
 10
245.03573203171393
 20
2069.0
 10
245.03573203171393
 20
2060.0
 10
260.5357320317139
 20
2060.0
 10
260.5357320317139
 20
2069.0
 10
263.5357320317139
 20
2072.0
 10
267.5357320317139
 20
2072.0
 10
270.5357320317139
 20
2069.0
 10
270.5357320317139
 20
2060.0
 10
282.5357320317139
 20
2060.0
 10
285.6696922111894
 20
2063.0
 10
335.6696220478509
 20
2097.0
 10
339.81094446346344
 20
2098.5
 10
355.6693172188886
 20
2098.5
 10
355.669317219195
 20
0.0
 10
0.0
 20
0.0
 10
0.0
 20
2098.5
 10
19.822915290075326
 20
2098.5
 10
24.999568309592455
 20
2097.0
 10
74.99976667133473
 20
2041.0
 10
78.13347734379
 20
2038.0
 10
90.13347734379
 20
2038.0
 10
90.13347734379
 20
2047.0
 10
93.13347734379
 20
2050.0
 10
97.13347734379
 20
2050.0
 10
100.13423497929887
 20
2047.0
 10
100.13423497929887
 20
2038.0
 10
168.00089039424012
 20
2038.0
 10
168.00089039424012
 20
2047.0
 10
171.0007773436678
 20
2050.0
 10
175.0007773436678
 20
2050.0
 10
178.0007773436678
 20
2047.0
 10
178.0007773436678
 20
2038.0
 10
190.00077734390086
 20
2038.0
  0
LWPOLYLINE
  5
8E
330
8A
100
AcDbEntity
  8
CUTOUTS
100
AcDbPolyline
 90
8
 70
1
 10
276.3752784744438
 20
1044.5
 10
276.3752784744438
 20
952.25
 10
251.87527847444383
 20
952.25
 10
251.87527847444383
 20
1122.75
 10
276.3752784744438
 20
1122.75
 10
276.3752784744438
 20
1110.5
 10
284.7026013677539
 20
1110.5
 10
284.7026013677539
 20
1044.5
  0
CIRCLE
  5
8F
330
8A
100
AcDbEntity
  8
HOLES
100
AcDbCircle
 10
134.0675
 20
150.0
 30
0.0
 40
3.25
  0
CIRCLE
  5
90
330
8A
100
AcDbEntity
  8
HOLES
100
AcDbCircle
 10
134.0675
 20
729.3333333333334
 30
0.0
 40
3.25
  0
CIRCLE
  5
91
330
8A
100
AcDbEntity
  8
HOLES
100
AcDbCircle
 10
134.0675
 20
1308.6666666666667
 30
0.0
 40
3.25
  0
CIRCLE
  5
92
330
8A
100
AcDbEntity
  8
HOLES
100
AcDbCircle
 10
134.0675
 20
1888.0
 30
0.0
 40
3.25
  0
LINE
  5
93
330
8A
100
AcDbEntity
  8
NOTCHES
100
AcDbLine
 10
191.56764667984797
 20
3.0
 30
0.0
 11
191.56764667984797
 21
0.0
 31
0.0
  0
LINE
  5
94
330
8A
100
AcDbEntity
  8
NOTCHES
100
AcDbLine
 10
76.56660800807482
 20
3.0
 30
0.0
 11
76.56660800807482
 21
0.0
 31
0.0
  0
LINE
  5
95
330
8A
100
AcDbEntity
  8
NOTCHES
100
AcDbLine
 10
199.20138535174286
 20
3.0
 30
0.0
 11
199.20138535174286
 21
0.0
 31
0.0
  0
LINE
  5
96
330
8A
100
AcDbEntity
  8
NOTCHES
100
AcDbLine
 10
284.10260136789384
 20
3.0
 30
0.0
 11
284.10260136789384
 21
0.0
 31
0.0
  0
LINE
  5
97
330
8A
100
AcDbEntity
  8
NOTCHES
100
AcDbLine
 10
22.41124179983295
 20
3.0
 30
0.0
 11
22.41124179983295
 21
0.0
 31
0.0
  0
LINE
  5
98
330
8A
100
AcDbEntity
  8
NOTCHES
100
AcDbLine
 10
337.74028325596385
 20
3.0
 30
0.0
 11
337.74028325596385
 21
0.0
 31
0.0
  0
LINE
  5
99
330
8A
100
AcDbEntity
  8
NOTCHES
100
AcDbLine
 10
209.8351240238708
 20
1.0
 30
0.0
 11
209.8351240238708
 21
0.0
 31
0.0
  0
LINE
  5
9A
330
8A
100
AcDbEntity
  8
NOTCHES
100
AcDbLine
 10
221.46886269553377
 20
1.047160253394394
 30
0.0
 11
221.46886269553377
 21
0.0471602533943951
 31
0.0
  0
LINE
  5
9B
330
8A
100
AcDbEntity
  8
NOTCHES
100
AcDbLine
 10
284.10260136789384
 20
2061.5
 30
0.0
 11
284.10260136789384
 21
2055.5
 31
0.0
  0
LINE
  5
9C
330
8A
100
AcDbEntity
  8
NOTCHES
100
AcDbLine
 10
221.46886269553377
 20
2059.25
 30
0.0
 11
221.46886269553377
 21
2058.25
 31
0.0
  0
LINE
  5
9D
330
8A
100
AcDbEntity
  8
NOTCHES
100
AcDbLine
 10
209.8351240238708
 20
2048.5
 30
0.0
 11
209.8351240238708
 21
2047.5
 31
0.0
  0
LINE
  5
9E
330
8A
100
AcDbEntity
  8
NOTCHES
100
AcDbLine
 10
199.20138535174286
 20
2046.25
 30
0.0
 11
199.20138535174286
 21
2043.25
 31
0.0
  0
LINE
  5
9F
330
8A
100
AcDbEntity
  8
NOTCHES
100
AcDbLine
 10
191.56764667984797
 20
2039.5
 30
0.0
 11
191.56764667984797
 21
2036.5
 31
0.0
  0
LINE
  5
A0
330
8A
100
AcDbEntity
  8
NOTCHES
100
AcDbLine
 10
76.56660800807482
 20
2039.5
 30
0.0
 11
76.56660800807482
 21
2036.5
 31
0.0
  0
LINE
  5
A1
330
8A
100
AcDbEntity
  8
NOTCHES
100
AcDbLine
 10
22.41124179983295
 20
2097.75
 30
0.0
 11
22.41124179983295
 21
2094.75
 31
0.0
  0
LINE
  5
A2
330
8A
100
AcDbEntity
  8
NOTCHES
100
AcDbLine
 10
337.74028325596385
 20
2097.75
 30
0.0
 11
337.74028325596385
 21
2094.75
 31
0.0
  0
LINE
  5
A3
330
8A
100
AcDbEntity
  8
NOTCHES
100
AcDbLine
 10
191.56764667984797
 20
3.0
 30
0.0
 11
191.56764667984797
 21
0.0
 31
0.0
  0
LINE
  5
A4
330
8A
100
AcDbEntity
  8
NOTCHES
100
AcDbLine
 10
76.56660800807482
 20
3.0
 30
0.0
 11
76.56660800807482
 21
0.0
 31
0.0
  0
LINE
  5
A5
330
8A
100
AcDbEntity
  8
NOTCHES
100
AcDbLine
 10
199.20138535174286
 20
3.0
 30
0.0
 11
199.20138535174286
 21
0.0
 31
0.0
  0
LINE
  5
A6
330
8A
100
AcDbEntity
  8
NOTCHES
100
AcDbLine
 10
284.10260136789384
 20
3.0
 30
0.0
 11
284.10260136789384
 21
0.0
 31
0.0
  0
LINE
  5
A7
330
8A
100
AcDbEntity
  8
NOTCHES
100
AcDbLine
 10
22.41124179983295
 20
3.0
 30
0.0
 11
22.41124179983295
 21
0.0
 31
0.0
  0
LINE
  5
A8
330
8A
100
AcDbEntity
  8
NOTCHES
100
AcDbLine
 10
337.74028325596385
 20
3.0
 30
0.0
 11
337.74028325596385
 21
0.0
 31
0.0
  0
LINE
  5
A9
330
8A
100
AcDbEntity
  8
NOTCHES
100
AcDbLine
 10
209.8351240238708
 20
1.0
 30
0.0
 11
209.8351240238708
 21
0.0
 31
0.0
  0
LINE
  5
AA
330
8A
100
AcDbEntity
  8
NOTCHES
100
AcDbLine
 10
221.46886269553377
 20
1.047160253394394
 30
0.0
 11
221.46886269553377
 21
0.0471602533943951
 31
0.0
  0
LINE
  5
AB
330
8A
100
AcDbEntity
  8
NOTCHES
100
AcDbLine
 10
284.10260136789384
 20
2061.5
 30
0.0
 11
284.10260136789384
 21
2055.5
 31
0.0
  0
LINE
  5
AC
330
8A
100
AcDbEntity
  8
NOTCHES
100
AcDbLine
 10
221.46886269553377
 20
2059.25
 30
0.0
 11
221.46886269553377
 21
2058.25
 31
0.0
  0
LINE
  5
AD
330
8A
100
AcDbEntity
  8
NOTCHES
100
AcDbLine
 10
209.8351240238708
 20
2048.5
 30
0.0
 11
209.8351240238708
 21
2047.5
 31
0.0
  0
LINE
  5
AE
330
8A
100
AcDbEntity
  8
NOTCHES
100
AcDbLine
 10
199.20138535174286
 20
2046.25
 30
0.0
 11
199.20138535174286
 21
2043.25
 31
0.0
  0
LINE
  5
AF
330
8A
100
AcDbEntity
  8
NOTCHES
100
AcDbLine
 10
191.56764667984797
 20
2039.5
 30
0.0
 11
191.56764667984797
 21
2036.5
 31
0.0
  0
LINE
  5
B0
330
8A
100
AcDbEntity
  8
NOTCHES
100
AcDbLine
 10
76.56660800807482
 20
2039.5
 30
0.0
 11
76.56660800807482
 21
2036.5
 31
0.0
  0
LINE
  5
B1
330
8A
100
AcDbEntity
  8
NOTCHES
100
AcDbLine
 10
22.41124179983295
 20
2097.75
 30
0.0
 11
22.41124179983295
 21
2094.75
 31
0.0
  0
LINE
  5
B2
330
8A
100
AcDbEntity
  8
NOTCHES
100
AcDbLine
 10
337.74028325596385
 20
2097.75
 30
0.0
 11
337.74028325596385
 21
2094.75
 31
0.0
  0
LINE
  5
B3
330
8A
100
AcDbEntity
  8
NOTCHES
100
AcDbLine
 10
191.56764667984797
 20
3.0
 30
0.0
 11
191.56764667984797
 21
0.0
 31
0.0
  0
LINE
  5
B4
330
8A
100
AcDbEntity
  8
NOTCHES
100
AcDbLine
 10
76.56660800807482
 20
3.0
 30
0.0
 11
76.56660800807482
 21
0.0
 31
0.0
  0
LINE
  5
B5
330
8A
100
AcDbEntity
  8
NOTCHES
100
AcDbLine
 10
199.20138535174286
 20
3.0
 30
0.0
 11
199.20138535174286
 21
0.0
 31
0.0
  0
LINE
  5
B6
330
8A
100
AcDbEntity
  8
NOTCHES
100
AcDbLine
 10
284.10260136789384
 20
3.0
 30
0.0
 11
284.10260136789384
 21
0.0
 31
0.0
  0
LINE
  5
B7
330
8A
100
AcDbEntity
  8
NOTCHES
100
AcDbLine
 10
22.41124179983295
 20
3.0
 30
0.0
 11
22.41124179983295
 21
0.0
 31
0.0
  0
LINE
  5
B8
330
8A
100
AcDbEntity
  8
NOTCHES
100
AcDbLine
 10
337.74028325596385
 20
3.0
 30
0.0
 11
337.74028325596385
 21
0.0
 31
0.0
  0
LINE
  5
B9
330
8A
100
AcDbEntity
  8
NOTCHES
100
AcDbLine
 10
209.8351240238708
 20
1.0
 30
0.0
 11
209.8351240238708
 21
0.0
 31
0.0
  0
LINE
  5
BA
330
8A
100
AcDbEntity
  8
NOTCHES
100
AcDbLine
 10
221.46886269553377
 20
1.047160253394394
 30
0.0
 11
221.46886269553377
 21
0.0471602533943951
 31
0.0
  0
LINE
  5
BB
330
8A
100
AcDbEntity
  8
NOTCHES
100
AcDbLine
 10
284.10260136789384
 20
2061.5
 30
0.0
 11
284.10260136789384
 21
2055.5
 31
0.0
  0
LINE
  5
BC
330
8A
100
AcDbEntity
  8
NOTCHES
100
AcDbLine
 10
221.46886269553377
 20
2059.25
 30
0.0
 11
221.46886269553377
 21
2058.25
 31
0.0
  0
LINE
  5
BD
330
8A
100
AcDbEntity
  8
NOTCHES
100
AcDbLine
 10
209.8351240238708
 20
2048.5
 30
0.0
 11
209.8351240238708
 21
2047.5
 31
0.0
  0
LINE
  5
BE
330
8A
100
AcDbEntity
  8
NOTCHES
100
AcDbLine
 10
199.20138535174286
 20
2046.25
 30
0.0
 11
199.20138535174286
 21
2043.25
 31
0.0
  0
LINE
  5
BF
330
8A
100
AcDbEntity
  8
NOTCHES
100
AcDbLine
 10
191.56764667984797
 20
2039.5
 30
0.0
 11
191.56764667984797
 21
2036.5
 31
0.0
  0
LINE
  5
C0
330
8A
100
AcDbEntity
  8
NOTCHES
100
AcDbLine
 10
76.56660800807482
 20
2039.5
 30
0.0
 11
76.56660800807482
 21
2036.5
 31
0.0
  0
LINE
  5
C1
330
8A
100
AcDbEntity
  8
NOTCHES
100
AcDbLine
 10
22.41124179983295
 20
2097.75
 30
0.0
 11
22.41124179983295
 21
2094.75
 31
0.0
  0
LINE
  5
C2
330
8A
100
AcDbEntity
  8
NOTCHES
100
AcDbLine
 10
337.74028325596385
 20
2097.75
 30
0.0
 11
337.74028325596385
 21
2094.75
 31
0.0
  0
LINE
  5
C3
330
8A
100
AcDbEntity
  8
NOTCHES
100
AcDbLine
 10
191.56764667984797
 20
3.0
 30
0.0
 11
191.56764667984797
 21
0.0
 31
0.0
  0
LINE
  5
C4
330
8A
100
AcDbEntity
  8
NOTCHES
100
AcDbLine
 10
76.56660800807482
 20
3.0
 30
0.0
 11
76.56660800807482
 21
0.0
 31
0.0
  0
LINE
  5
C5
330
8A
100
AcDbEntity
  8
NOTCHES
100
AcDbLine
 10
199.20138535174286
 20
3.0
 30
0.0
 11
199.20138535174286
 21
0.0
 31
0.0
  0
LINE
  5
C6
330
8A
100
AcDbEntity
  8
NOTCHES
100
AcDbLine
 10
284.10260136789384
 20
3.0
 30
0.0
 11
284.10260136789384
 21
0.0
 31
0.0
  0
LINE
  5
C7
330
8A
100
AcDbEntity
  8
NOTCHES
100
AcDbLine
 10
22.41124179983295
 20
3.0
 30
0.0
 11
22.41124179983295
 21
0.0
 31
0.0
  0
LINE
  5
C8
330
8A
100
AcDbEntity
  8
NOTCHES
100
AcDbLine
 10
337.74028325596385
 20
3.0
 30
0.0
 11
337.74028325596385
 21
0.0
 31
0.0
  0
LINE
  5
C9
330
8A
100
AcDbEntity
  8
NOTCHES
100
AcDbLine
 10
209.8351240238708
 20
1.0
 30
0.0
 11
209.8351240238708
 21
0.0
 31
0.0
  0
LINE
  5
CA
330
8A
100
AcDbEntity
  8
NOTCHES
100
AcDbLine
 10
221.46886269553377
 20
1.047160253394394
 30
0.0
 11
221.46886269553377
 21
0.0471602533943951
 31
0.0
  0
LINE
  5
CB
330
8A
100
AcDbEntity
  8
NOTCHES
100
AcDbLine
 10
284.10260136789384
 20
2061.5
 30
0.0
 11
284.10260136789384
 21
2055.5
 31
0.0
  0
LINE
  5
CC
330
8A
100
AcDbEntity
  8
NOTCHES
100
AcDbLine
 10
221.46886269553377
 20
2059.25
 30
0.0
 11
221.46886269553377
 21
2058.25
 31
0.0
  0
LINE
  5
CD
330
8A
100
AcDbEntity
  8
NOTCHES
100
AcDbLine
 10
209.8351240238708
 20
2048.5
 30
0.0
 11
209.8351240238708
 21
2047.5
 31
0.0
  0
LINE
  5
CE
330
8A
100
AcDbEntity
  8
NOTCHES
100
AcDbLine
 10
199.20138535174286
 20
2046.25
 30
0.0
 11
199.20138535174286
 21
2043.25
 31
0.0
  0
LINE
  5
CF
330
8A
100
AcDbEntity
  8
NOTCHES
100
AcDbLine
 10
191.56764667984797
 20
2039.5
 30
0.0
 11
191.56764667984797
 21
2036.5
 31
0.0
  0
LINE
  5
D0
330
8A
100
AcDbEntity
  8
NOTCHES
100
AcDbLine
 10
76.56660800807482
 20
2039.5
 30
0.0
 11
76.56660800807482
 21
2036.5
 31
0.0
  0
LINE
  5
D1
330
8A
100
AcDbEntity
  8
NOTCHES
100
AcDbLine
 10
22.41124179983295
 20
2097.75
 30
0.0
 11
22.41124179983295
 21
2094.75
 31
0.0
  0
LINE
  5
D2
330
8A
100
AcDbEntity
  8
NOTCHES
100
AcDbLine
 10
337.74028325596385
 20
2097.75
 30
0.0
 11
337.74028325596385
 21
2094.75
 31
0.0
  0
LWPOLYLINE
  5
D3
330
8A
100
AcDbEntity
  8
NOTCHES
100
AcDbPolyline
 90
4
 70
1
 10
257.16943203183587
 20
6.0
 10
269.16943203183587
 20
6.0
 10
269.16943203183587
 20
4.0
 10
257.16943203183587
 20
4.0
  0
LWPOLYLINE
  5
D4
330
8A
100
AcDbEntity
  8
NOTCHES
100
AcDbPolyline
 90
4
 70
1
 10
101.79134423766573
 20
11.0
 10
91.4997773441328
 20
11.0
 10
91.4997773441328
 20
9.0
 10
101.79134423766573
 20
9.0
  0
TEXT
  5
D5
330
8A
100
AcDbEntity
  8
PART_LABELS
100
AcDbText
 10
134.0675
 20
1049.25
 30
0.0
 40
25.0
  1
PRJ-101 - D-TEST
 72
1
 11
134.0675
 21
1049.25
 31
0.0
100
AcDbText
 73
2
  0
ENDBLK
  5
8C
330
8A
100
AcDbEntity
  8
0
100
AcDbBlockEnd
  0
BLOCK
  5
D7
330
D6
100
AcDbEntity
  8
0
100
AcDbBlockBegin
  2
B_D-TEST_HEADER
 70
0
 10
0.0
 20
0.0
 30
0.0
  3
B_D-TEST_HEADER
  1

  0
LWPOLYLINE
  5
D9
330
D6
100
AcDbEntity
  8
OUTLINE
100
AcDbPolyline
 90
44
 70
1
 10
4.547473508864641e-13
 20
355.66927669567906
 10
997.0
 20
355.66927669567906
 10
997.0
 20
339.81094446362
 10
995.4999999999999
 20
335.6696220480048
 10
961.4999999999999
 20
285.6696922113606
 10
958.4999999999999
 20
282.5357320317146
 10
968.5
 20
272.53573203171186
 10
968.5
 20
233.0357320317119
 10
958.4999999999999
 20
223.03573203171462
 10
956.9999999999999
 20
219.9019933598195
 10
948.5
 20
211.40199335981677
 10
945.4999999999999
 20
208.26825468780615
 10
945.4999999999999
 20
200.76825468780706
 10
944.0
 20
197.63451601591194
 10
939.5000000000001
 20
193.13451601591194
 10
936.4999999999999
 20
190.0007773439004
 10
946.5000000000001
 20
178.0832414180343
 10
946.5000000000001
 20
88.1334773439062
 10
936.4999999999999
 20
78.13347734390801
 10
939.5000000000001
 20
74.99976667133492
 10
995.4999999999999
 20
24.99956830959133
 10
997.0
 20
19.822915290075326
 10
997.0
 20
0.0
 10
4.547473508864641e-13
 20
0.0
 10
4.547473508864641e-13
 20
19.822915290075326
 10
1.5000000000004547
 20
24.99956830959133
 10
57.50000000000034
 20
74.99976667133492
 10
60.50000000000034
 20
78.13347734390801
 10
50.500000000000455
 20
88.1334773439062
 10
50.500000000000455
 20
178.0832414180343
 10
60.50000000000034
 20
190.0007773439004
 10
57.50000000000034
 20
193.13451601591194
 10
53.00000000000034
 20
197.63451601591194
 10
51.50000000000034
 20
200.76825468780706
 10
51.50000000000034
 20
208.26825468780615
 10
48.500000000000455
 20
211.40199335981677
 10
40.000000000000455
 20
219.9019933598195
 10
38.500000000000455
 20
223.03573203171462
 10
28.500000000000455
 20
233.0357320317119
 10
28.500000000000455
 20
272.53573203171186
 10
38.500000000000455
 20
282.5357320317146
 10
35.500000000000455
 20
285.6696922113606
 10
1.5000000000004547
 20
335.6696220480048
 10
4.547473508864641e-13
 20
339.81094446362
  0
LWPOLYLINE
  5
DA
330
D6
100
AcDbEntity
  8
CUTOUTS
100
AcDbPolyline
 90
4
 70
1
 10
36.750000000000455
 20
234.03573203183012
 10
38.750000000000455
 20
234.03573203183012
 10
38.750000000000455
 20
246.03573203183012
 10
36.750000000000455
 20
246.03573203183012
  0
LWPOLYLINE
  5
DB
330
D6
100
AcDbEntity
  8
CUTOUTS
100
AcDbPolyline
 90
4
 70
1
 10
36.750000000000455
 20
259.53573203171186
 10
38.750000000000455
 20
259.53573203171186
 10
38.750000000000455
 20
271.53573203171186
 10
36.750000000000455
 20
271.53573203171186
  0
LWPOLYLINE
  5
DC
330
D6
100
AcDbEntity
  8
CUTOUTS
100
AcDbPolyline
 90
4
 70
1
 10
58.75000000000034
 20
89.1334773439062
 10
60.75000000000034
 20
89.1334773439062
 10
60.75000000000034
 20
101.1334773439062
 10
58.75000000000034
 20
101.1334773439062
  0
LWPOLYLINE
  5
DD
330
D6
100
AcDbEntity
  8
CUTOUTS
100
AcDbPolyline
 90
4
 70
1
 10
58.75000000000034
 20
167.50862611066094
 10
60.75000000000034
 20
167.50862611066094
 10
60.75000000000034
 20
179.50862611066094
 10
58.75000000000034
 20
179.50862611066094
  0
LWPOLYLINE
  5
DE
330
D6
100
AcDbEntity
  8
CUTOUTS
100
AcDbPolyline
 90
4
 70
1
 10
958.2500000000001
 20
234.03573203183012
 10
960.2500000000001
 20
234.03573203183012
 10
960.2500000000001
 20
246.03573203183012
 10
958.2500000000001
 20
246.03573203183012
  0
LWPOLYLINE
  5
DF
330
D6
100
AcDbEntity
  8
CUTOUTS
100
AcDbPolyline
 90
4
 70
1
 10
958.2500000000001
 20
259.53573203171186
 10
960.2500000000001
 20
259.53573203171186
 10
960.2500000000001
 20
271.53573203171186
 10
958.2500000000001
 20
271.53573203171186
  0
LWPOLYLINE
  5
E0
330
D6
100
AcDbEntity
  8
CUTOUTS
100
AcDbPolyline
 90
4
 70
1
 10
936.2499999999999
 20
89.1334773439062
 10
938.2499999999999
 20
89.1334773439062
 10
938.2499999999999
 20
101.1334773439062
 10
936.2499999999999
 20
101.1334773439062
  0
LWPOLYLINE
  5
E1
330
D6
100
AcDbEntity
  8
CUTOUTS
100
AcDbPolyline
 90
4
 70
1
 10
936.2499999999999
 20
167.50862611066094
 10
938.2499999999999
 20
167.50862611066094
 10
938.2499999999999
 20
179.50862611066094
 10
936.2499999999999
 20
179.50862611066094
  0
LINE
  5
E2
330
D6
100
AcDbEntity
  8
NOTCHES
100
AcDbLine
 10
0.7500000000004547
 20
337.7402832558094
 30
0.0
 11
6.750000000000455
 21
337.7402832558094
 31
0.0
  0
LINE
  5
E3
330
D6
100
AcDbEntity
  8
NOTCHES
100
AcDbLine
 10
37.000000000000455
 20
284.10260136766124
 30
0.0
 11
43.000000000000455
 21
284.10260136766124
 31
0.0
  0
LINE
  5
E4
330
D6
100
AcDbEntity
  8
NOTCHES
100
AcDbLine
 10
39.250000000000455
 20
221.46886269564882
 30
0.0
 11
41.250000000000455
 21
221.46886269564882
 31
0.0
  0
LINE
  5
E5
330
D6
100
AcDbEntity
  8
NOTCHES
100
AcDbLine
 10
50.000000000000455
 20
209.8351240237528
 30
0.0
 11
52.00000000000034
 21
209.8351240237528
 31
0.0
  0
LINE
  5
E6
330
D6
100
AcDbEntity
  8
NOTCHES
100
AcDbLine
 10
52.25000000000034
 20
199.20138535174127
 30
0.0
 11
58.25000000000034
 21
199.20138535174127
 31
0.0
  0
LINE
  5
E7
330
D6
100
AcDbEntity
  8
NOTCHES
100
AcDbLine
 10
59.00000000000034
 20
191.56764667984888
 30
0.0
 11
65.00000000000034
 21
191.56764667984888
 31
0.0
  0
LINE
  5
E8
330
D6
100
AcDbEntity
  8
NOTCHES
100
AcDbLine
 10
59.00000000000034
 20
76.56660800784222
 30
0.0
 11
65.00000000000034
 21
76.56660800784222
 31
0.0
  0
LINE
  5
E9
330
D6
100
AcDbEntity
  8
NOTCHES
100
AcDbLine
 10
0.7500000000004547
 20
22.411241799833327
 30
0.0
 11
6.750000000000455
 21
22.411241799833327
 31
0.0
  0
LINE
  5
EA
330
D6
100
AcDbEntity
  8
NOTCHES
100
AcDbLine
 10
960.0000000000001
 20
284.10260136766124
 30
0.0
 11
953.9999999999999
 21
284.10260136766124
 31
0.0
  0
LINE
  5
EB
330
D6
100
AcDbEntity
  8
NOTCHES
100
AcDbLine
 10
957.7499999999999
 20
221.46886269564882
 30
0.0
 11
955.7499999999999
 21
221.46886269564882
 31
0.0
  0
LINE
  5
EC
330
D6
100
AcDbEntity
  8
NOTCHES
100
AcDbLine
 10
946.9999999999999
 20
209.8351240237528
 30
0.0
 11
944.9999999999999
 21
209.8351240237528
 31
0.0
  0
LINE
  5
ED
330
D6
100
AcDbEntity
  8
NOTCHES
100
AcDbLine
 10
944.7500000000001
 20
199.20138535174127
 30
0.0
 11
938.7499999999999
 21
199.20138535174127
 31
0.0
  0
LINE
  5
EE
330
D6
100
AcDbEntity
  8
NOTCHES
100
AcDbLine
 10
937.9999999999999
 20
191.56764667984888
 30
0.0
 11
931.9999999999999
 21
191.56764667984888
 31
0.0
  0
LINE
  5
EF
330
D6
100
AcDbEntity
  8
NOTCHES
100
AcDbLine
 10
937.9999999999999
 20
76.56660800784222
 30
0.0
 11
931.9999999999999
 21
76.56660800784222
 31
0.0
  0
LINE
  5
F0
330
D6
100
AcDbEntity
  8
NOTCHES
100
AcDbLine
 10
990.25
 20
337.7402832558094
 30
0.0
 11
996.25
 21
337.7402832558094
 31
0.0
  0
LINE
  5
F1
330
D6
100
AcDbEntity
  8
NOTCHES
100
AcDbLine
 10
990.25
 20
22.411241799833327
 30
0.0
 11
996.25
 21
22.411241799833327
 31
0.0
  0
TEXT
  5
F2
330
D6
100
AcDbEntity
  8
PART_LABELS
100
AcDbText
 10
498.5
 20
177.83463834783953
 30
0.0
 40
25.0
  1
PRJ-101 - D-TEST
 72
1
 11
498.5
 21
177.83463834783953
 31
0.0
100
AcDbText
 73
2
  0
ENDBLK
  5
D8
330
D6
100
AcDbEntity
  8
0
100
AcDbBlockEnd
  0
BLOCK
  5
F4
330
F3
100
AcDbEntity
  8
0
100
AcDbBlockBegin
  2
B_D-TEST_LEAF1
 70
0
 10
0.0
 20
0.0
 30
0.0
  3
B_D-TEST_LEAF1
  1

  0
LWPOLYLINE
  5
F6
330
F3
100
AcDbEntity
  8
OUTLINE
100
AcDbPolyline
 90
4
 70
1
 10
0.0
 20
0.0
 10
1051.93
 20
0.0
 10
1051.93
 20
2050.0
 10
0.0
 20
2050.0
  0
LWPOLYLINE
  5
F7
330
F3
100
AcDbEntity
  8
CUTOUTS
100
AcDbPolyline
 90
4
 70
1
 10
978.83
 20
143.0
 10
1008.33
 20
143.0
 10
1008.33
 20
245.0
 10
978.83
 20
245.0
  0
LWPOLYLINE
  5
F8
330
F3
100
AcDbEntity
  8
CUTOUTS
100
AcDbPolyline
 90
4
 70
1
 10
978.83
 20
871.0
 10
1008.33
 20
871.0
 10
1008.33
 20
973.0
 10
978.83
 20
973.0
  0
LWPOLYLINE
  5
F9
330
F3
100
AcDbEntity
  8
CUTOUTS
100
AcDbPolyline
 90
4
 70
1
 10
978.83
 20
1599.0
 10
1008.33
 20
1599.0
 10
1008.33
 20
1701.0
 10
978.83
 20
1701.0
  0
LWPOLYLINE
  5
FA
330
F3
100
AcDbEntity
  8
CUTOUTS
100
AcDbPolyline
 90
4
 70
1
 10
978.83
 20
1801.0
 10
1008.33
 20
1801.0
 10
1008.33
 20
1903.0
 10
978.83
 20
1903.0
  0
LWPOLYLINE
  5
FB
330
F3
100
AcDbEntity
  8
CUTOUTS
100
AcDbPolyline
 90
4
 70
1
 10
40.0
 20
905.8
 10
64.5
 20
905.8
 10
64.5
 20
1141.1
 10
40.0
 20
1141.1
  0
CIRCLE
  5
FC
330
F3
100
AcDbEntity
  8
HOLES
100
AcDbCircle
 10
130.0
 20
1043.0
 30
0.0
 40
11.0
  0
CIRCLE
  5
FD
330
F3
100
AcDbEntity
  8
HOLES
100
AcDbCircle
 10
111.0
 20
1043.0
 30
0.0
 40
3.5
  0
CIRCLE
  5
FE
330
F3
100
AcDbEntity
  8
HOLES
100
AcDbCircle
 10
149.0
 20
1043.0
 30
0.0
 40
3.5
  0
LWPOLYLINE
  5
FF
330
F3
100
AcDbEntity
  8
CUTOUTS
100
AcDbPolyline
 90
4
 70
1
 10
122.49999999999989
 20
962.3766424718433
 10
122.49999999999989
 20
950.9233809415823
 42
0.9999999999999998
 10
137.5000000000001
 20
950.9233809415823
 10
137.5000000000001
 20
962.3766424718433
 42
2.539565129295556
  0
LWPOLYLINE
  5
100
330
F3
100
AcDbEntity
  8
NOTCHES
100
AcDbPolyline
 90
4
 70
1
 10
45.0
 20
0.0
 10
60.0
 20
0.0
 10
60.0
 20
30.0
 10
45.0
 20
30.0
  0
LWPOLYLINE
  5
101
330
F3
100
AcDbEntity
  8
NOTCHES
100
AcDbPolyline
 90
4
 70
1
 10
991.9000000000001
 20
0.0
 10
1006.9000000000001
 20
0.0
 10
1006.9000000000001
 20
30.0
 10
991.9000000000001
 20
30.0
  0
LINE
  5
102
330
F3
100
AcDbEntity
  8
NOTCHES
100
AcDbLine
 10
11.74
 20
0.0
 30
0.0
 11
11.74
 21
3.0
 31
0.0
  0
LINE
  5
103
330
F3
100
AcDbEntity
  8
NOTCHES
100
AcDbLine
 10
11.74
 20
2050.0
 30
0.0
 11
11.74
 21
2047.0
 31
0.0
  0
LINE
  5
104
330
F3
100
AcDbEntity
  8
NOTCHES
100
AcDbLine
 10
33.75
 20
0.0
 30
0.0
 11
33.75
 21
3.0
 31
0.0
  0
LINE
  5
105
330
F3
100
AcDbEntity
  8
NOTCHES
100
AcDbLine
 10
33.75
 20
2050.0
 30
0.0
 11
33.75
 21
2047.0
 31
0.0
  0
LINE
  5
106
330
F3
100
AcDbEntity
  8
NOTCHES
100
AcDbLine
 10
71.26
 20
0.0
 30
0.0
 11
71.26
 21
3.0
 31
0.0
  0
LINE
  5
107
330
F3
100
AcDbEntity
  8
NOTCHES
100
AcDbLine
 10
71.26
 20
2050.0
 30
0.0
 11
71.26
 21
2047.0
 31
0.0
  0
LINE
  5
108
330
F3
100
AcDbEntity
  8
NOTCHES
100
AcDbLine
 10
1040.18
 20
0.0
 30
0.0
 11
1040.18
 21
3.0
 31
0.0
  0
LINE
  5
109
330
F3
100
AcDbEntity
  8
NOTCHES
100
AcDbLine
 10
1040.18
 20
2050.0
 30
0.0
 11
1040.18
 21
2047.0
 31
0.0
  0
LINE
  5
10A
330
F3
100
AcDbEntity
  8
NOTCHES
100
AcDbLine
 10
1018.1800000000001
 20
0.0
 30
0.0
 11
1018.1800000000001
 21
3.0
 31
0.0
  0
LINE
  5
10B
330
F3
100
AcDbEntity
  8
NOTCHES
100
AcDbLine
 10
1018.1800000000001
 20
2050.0
 30
0.0
 11
1018.1800000000001
 21
2047.0
 31
0.0
  0
LINE
  5
10C
330
F3
100
AcDbEntity
  8
NOTCHES
100
AcDbLine
 10
980.6600000000001
 20
0.0
 30
0.0
 11
980.6600000000001
 21
3.0
 31
0.0
  0
LINE
  5
10D
330
F3
100
AcDbEntity
  8
NOTCHES
100
AcDbLine
 10
980.6600000000001
 20
2050.0
 30
0.0
 11
980.6600000000001
 21
2047.0
 31
0.0
  0
TEXT
  5
10E
330
F3
100
AcDbEntity
  8
PART_LABELS
100
AcDbText
 10
525.965
 20
1025.0
 30
0.0
 40
35.0
  1
PRJ-101 - D-TEST
 72
1
 11
525.965
 21
1025.0
 31
0.0
100
AcDbText
 73
2
  0
ENDBLK
  5
F5
330
F3
100
AcDbEntity
  8
0
100
AcDbBlockEnd
  0
BLOCK
  5
110
330
10F
100
AcDbEntity
  8
0
100
AcDbBlockBegin
  2
B_D-TEST_LEAF2
 70
0
 10
0.0
 20
0.0
 30
0.0
  3
B_D-TEST_LEAF2
  1

  0
LWPOLYLINE
  5
112
330
10F
100
AcDbEntity
  8
OUTLINE
100
AcDbPolyline
 90
4
 70
1
 10
0.0
 20
0.0
 10
938.81
 20
0.0
 10
938.81
 20
2050.0
 10
0.0
 20
2050.0
  0
CIRCLE
  5
113
330
10F
100
AcDbEntity
  8
HOLES
100
AcDbCircle
 10
865.2099999999999
 20
1043.0
 30
0.0
 40
11.0
  0
CIRCLE
  5
114
330
10F
100
AcDbEntity
  8
HOLES
100
AcDbCircle
 10
846.2099999999999
 20
1043.0
 30
0.0
 40
3.5
  0
CIRCLE
  5
115
330
10F
100
AcDbEntity
  8
HOLES
100
AcDbCircle
 10
884.2099999999999
 20
1043.0
 30
0.0
 40
3.5
  0
LWPOLYLINE
  5
116
330
10F
100
AcDbEntity
  8
CUTOUTS
100
AcDbPolyline
 90
4
 70
1
 10
857.7099999999998
 20
962.3766424718433
 10
857.7099999999998
 20
950.9233809415823
 42
0.9999999999999998
 10
872.71
 20
950.9233809415823
 10
872.71
 20
962.3766424718433
 42
2.539565129295556
  0
LINE
  5
117
330
10F
100
AcDbEntity
  8
NOTCHES
100
AcDbLine
 10
16.7
 20
0.0
 30
0.0
 11
16.7
 21
3.0
 31
0.0
  0
LINE
  5
118
330
10F
100
AcDbEntity
  8
NOTCHES
100
AcDbLine
 10
16.7
 20
2050.0
 30
0.0
 11
16.7
 21
2047.0
 31
0.0
  0
LINE
  5
119
330
10F
100
AcDbEntity
  8
NOTCHES
100
AcDbLine
 10
922.1099999999999
 20
0.0
 30
0.0
 11
922.1099999999999
 21
3.0
 31
0.0
  0
LINE
  5
11A
330
10F
100
AcDbEntity
  8
NOTCHES
100
AcDbLine
 10
922.1099999999999
 20
2050.0
 30
0.0
 11
922.1099999999999
 21
2047.0
 31
0.0
  0
TEXT
  5
11B
330
10F
100
AcDbEntity
  8
PART_LABELS
100
AcDbText
 10
469.405
 20
1025.0
 30
0.0
 40
35.0
  1
PRJ-101 - D-TEST
 72
1
 11
469.405
 21
1025.0
 31
0.0
100
AcDbText
 73
2
  0
ENDBLK
  5
111
330
10F
100
AcDbEntity
  8
0
100
AcDbBlockEnd
  0
ENDSEC
  0
SECTION
  2
ENTITIES
  0
INSERT
  5
11C
330
17
100
AcDbEntity
  8
0
100
AcDbBlockReference
  2
B_D-TEST_HINGE_POST
 10
0.0
 20
0.0
 30
0.0
  0
INSERT
  5
11E
330
17
100
AcDbEntity
  8
0
100
AcDbBlockReference
  2
B_D-TEST_LOCK_POST
 10
505.669396550197
 20
0.0
 30
0.0
  0
INSERT
  5
120
330
17
100
AcDbEntity
  8
0
100
AcDbBlockReference
  2
B_D-TEST_HEADER
 10
1011.338713769392
 20
0.0
 30
0.0
  0
INSERT
  5
122
330
17
100
AcDbEntity
  8
0
100
AcDbBlockReference
  2
B_D-TEST_LEAF1
 10
2258.338713769392
 20
0.0
 30
0.0
  0
INSERT
  5
124
330
17
100
AcDbEntity
  8
0
100
AcDbBlockReference
  2
B_D-TEST_LEAF2
 10
3560.268713769392
 20
0.0
 30
0.0
  0
TEXT
  5
126
330
17
100
AcDbEntity
  8
TEXT
100
AcDbText
 10
0.0
 20
-120.0
 30
0.0
 40
45.0
  1
DOOR D-TEST | 1000x2100x170 mm (RH)
100
AcDbText
  0
LWPOLYLINE
  5
127
330
17
100
AcDbEntity
  8
SHEETS_1_5
100
AcDbPolyline
 90
4
 70
1
 10
0.0
 20
-3500.0
 10
1250.0
 20
-3500.0
 10
1250.0
 20
-1200.0
 10
0.0
 20
-1200.0
  0
INSERT
  5
128
330
17
100
AcDbEntity
  8
0
100
AcDbBlockReference
  2
B_D-TEST_HINGE_POST
 10
0.0
 20
-3500.0
 30
0.0
  0
INSERT
  5
12A
330
17
100
AcDbEntity
  8
0
100
AcDbBlockReference
  2
B_D-TEST_LOCK_POST
 10
355.669396550197
 20
-3500.0
 30
0.0
  0
INSERT
  5
12C
330
17
100
AcDbEntity
  8
0
100
AcDbBlockReference
  2
B_D-TEST_HEADER
 10
1067.007990465071
 20
-3500.0
 30
0.0
 50
90.0
  0
TEXT
  5
12E
330
17
100
AcDbEntity
  8
TEXT
100
AcDbText
 10
0.0
 20
-3580.0
 30
0.0
 40
40.0
  1
Sheet 1.5mm #1 (125x230 cm)
100
AcDbText
  0
LWPOLYLINE
  5
12F
330
17
100
AcDbEntity
  8
SHEETS_1_2
100
AcDbPolyline
 90
4
 70
1
 10
0.0
 20
-6700.0
 10
1250.0
 20
-6700.0
 10
1250.0
 20
-4400.0
 10
0.0
 20
-4400.0
  0
INSERT
  5
130
330
17
100
AcDbEntity
  8
0
100
AcDbBlockReference
  2
B_D-TEST_LEAF1
 10
0.0
 20
-6700.0
 30
0.0
  0
TEXT
  5
132
330
17
100
AcDbEntity
  8
TEXT
100
AcDbText
 10
0.0
 20
-6780.0
 30
0.0
 40
40.0
  1
Sheet 1.2mm #1 (125x230 cm)
100
AcDbText
  0
LWPOLYLINE
  5
133
330
17
100
AcDbEntity
  8
SHEETS_1_2
100
AcDbPolyline
 90
4
 70
1
 10
1500.0
 20
-6700.0
 10
2500.0
 20
-6700.0
 10
2500.0
 20
-4400.0
 10
1500.0
 20
-4400.0
  0
INSERT
  5
134
330
17
100
AcDbEntity
  8
0
100
AcDbBlockReference
  2
B_D-TEST_LEAF2
 10
1500.0
 20
-6700.0
 30
0.0
  0
TEXT
  5
136
330
17
100
AcDbEntity
  8
TEXT
100
AcDbText
 10
1500.0
 20
-6780.0
 30
0.0
 40
40.0
  1
Sheet 1.2mm #2 (100x230 cm)
100
AcDbText
  0
ENDSEC
  0
SECTION
  2
OBJECTS
  0
DICTIONARY
  5
A
330
0
100
AcDbDictionary
281
1
  3
ACAD_COLOR
350
B
  3
ACAD_GROUP
350
C
  3
ACAD_LAYOUT
350
D
  3
ACAD_MATERIAL
350
E
  3
ACAD_MLEADERSTYLE
350
F
  3
ACAD_MLINESTYLE
350
10
  3
ACAD_PLOTSETTINGS
350
11
  3
ACAD_PLOTSTYLENAME
350
12
  3
ACAD_SCALELIST
350
14
  3
ACAD_TABLESTYLE
350
15
  3
ACAD_VISUALSTYLE
350
16
  3
EZDXF_META
350
2D
  0
DICTIONARY
  5
B
330
A
100
AcDbDictionary
281
1
  0
DICTIONARY
  5
C
330
A
100
AcDbDictionary
281
1
  0
DICTIONARY
  5
D
330
A
100
AcDbDictionary
281
1
  3
Model
350
1A
  3
Layout1
350
1E
  0
DICTIONARY
  5
E
330
A
100
AcDbDictionary
281
1
  3
ByBlock
350
1F
  3
ByLayer
350
20
  3
Global
350
21
  0
DICTIONARY
  5
F
330
A
100
AcDbDictionary
281
1
  3
Standard
350
2C
  0
DICTIONARY
  5
10
330
A
100
AcDbDictionary
281
1
  3
Standard
350
22
  0
DICTIONARY
  5
11
330
A
100
AcDbDictionary
281
1
  0
ACDBDICTIONARYWDFLT
  5
12
330
A
100
AcDbDictionary
281
1
  3
Normal
350
13
100
AcDbDictionaryWithDefault
340
13
  0
ACDBPLACEHOLDER
  5
13
330
12
  0
DICTIONARY
  5
14
330
A
100
AcDbDictionary
281
1
  0
DICTIONARY
  5
15
330
A
100
AcDbDictionary
281
1
  0
DICTIONARY
  5
16
330
A
100
AcDbDictionary
281
1
  0
LAYOUT
  5
1A
330
D
100
AcDbPlotSettings
  1

  4
A3
  6

 40
7.5
 41
20.0
 42
7.5
 43
20.0
 44
420.0
 45
297.0
 46
0.0
 47
0.0
 48
0.0
 49
0.0
140
0.0
141
0.0
142
1.0
143
1.0
 70
1024
 72
1
 73
0
 74
5
  7

 75
16
 76
0
 77
2
 78
300
147
1.0
148
0.0
149
0.0
100
AcDbLayout
  1
Model
 70
1
 71
0
 10
0.0
 20
0.0
 11
420.0
 21
297.0
 12
0.0
 22
0.0
 32
0.0
 14
1e+20
 24
1e+20
 34
1e+20
 15
-1e+20
 25
-1e+20
 35
-1e+20
146
0.0
 13
0.0
 23
0.0
 33
0.0
 16
1.0
 26
0.0
 36
0.0
 17
0.0
 27
1.0
 37
0.0
 76
1
330
17
  0
LAYOUT
  5
1E
330
D
100
AcDbPlotSettings
  1

  4
A3
  6

 40
7.5
 41
20.0
 42
7.5
 43
20.0
 44
420.0
 45
297.0
 46
0.0
 47
0.0
 48
0.0
 49
0.0
140
0.0
141
0.0
142
1.0
143
1.0
 70
0
 72
1
 73
0
 74
5
  7

 75
16
 76
0
 77
2
 78
300
147
1.0
148
0.0
149
0.0
100
AcDbLayout
  1
Layout1
 70
1
 71
1
 10
0.0
 20
0.0
 11
420.0
 21
297.0
 12
0.0
 22
0.0
 32
0.0
 14
1e+20
 24
1e+20
 34
1e+20
 15
-1e+20
 25
-1e+20
 35
-1e+20
146
0.0
 13
0.0
 23
0.0
 33
0.0
 16
1.0
 26
0.0
 36
0.0
 17
0.0
 27
1.0
 37
0.0
 76
1
330
1B
  0
MATERIAL
  5
1F
102
{ACAD_REACTORS
330
E
102
}
330
E
100
AcDbMaterial
  1
ByBlock
  2

 70
0
 40
1.0
 71
1
 41
1.0
 91
-1023410177
 42
1.0
 72
1
  3

 73
1
 74
1
 75
1
 44
0.5
 73
0
 45
1.0
 46
1.0
 77
1
  4

 78
1
 79
1
170
1
 48
1.0
171
1
  6

172
1
173
1
174
1
140
1.0
141
1.0
175
1
  7

176
1
177
1
178
1
143
1.0
179
1
  8

270
1
271
1
272
1
145
1.0
146
1.0
273
1
  9

274
1
275
1
276
1
 42
1.0
 72
1
  3

 73
1
 74
1
 75
1
 94
63
  0
MATERIAL
  5
20
102
{ACAD_REACTORS
330
E
102
}
330
E
100
AcDbMaterial
  1
ByLayer
  2

 70
0
 40
1.0
 71
1
 41
1.0
 91
-1023410177
 42
1.0
 72
1
  3

 73
1
 74
1
 75
1
 44
0.5
 73
0
 45
1.0
 46
1.0
 77
1
  4

 78
1
 79
1
170
1
 48
1.0
171
1
  6

172
1
173
1
174
1
140
1.0
141
1.0
175
1
  7

176
1
177
1
178
1
143
1.0
179
1
  8

270
1
271
1
272
1
145
1.0
146
1.0
273
1
  9

274
1
275
1
276
1
 42
1.0
 72
1
  3

 73
1
 74
1
 75
1
 94
63
  0
MATERIAL
  5
21
102
{ACAD_REACTORS
330
E
102
}
330
E
100
AcDbMaterial
  1
Global
  2

 70
0
 40
1.0
 71
1
 41
1.0
 91
-1023410177
 42
1.0
 72
1
  3

 73
1
 74
1
 75
1
 44
0.5
 73
0
 45
1.0
 46
1.0
 77
1
  4

 78
1
 79
1
170
1
 48
1.0
171
1
  6

172
1
173
1
174
1
140
1.0
141
1.0
175
1
  7

176
1
177
1
178
1
143
1.0
179
1
  8

270
1
271
1
272
1
145
1.0
146
1.0
273
1
  9

274
1
275
1
276
1
 42
1.0
 72
1
  3

 73
1
 74
1
 75
1
 94
63
  0
MLINESTYLE
  5
22
102
{ACAD_REACTORS
330
10
102
}
330
10
100
AcDbMlineStyle
  2
Standard
 70
0
  3

 62
256
 51
90.0
 52
90.0
 71
2
 49
0.5
 62
256
  6
BYLAYER
 49
-0.5
 62
256
  6
BYLAYER
  0
MLEADERSTYLE
  5
2C
102
{ACAD_REACTORS
330
F
102
}
330
F
100
AcDbMLeaderStyle
179
2
170
2
171
1
172
0
 90
2
 40
0.0
 41
0.0
173
1
 91
-1056964608
 92
-2
290
1
 42
2.0
291
1
 43
8.0
  3
Standard
 44
4.0
300

342
29
174
1
175
1
176
0
178
1
 93
-1056964608
 45
4.0
292
0
297
0
 46
4.0
 94
-1056964608
 47
1.0
 49
1.0
140
1.0
294
1
141
0.0
177
0
142
1.0
295
0
296
0
143
3.75
271
0
272
9
273
9
  0
DICTIONARY
  5
2D
330
A
100
AcDbDictionary
280
1
281
1
  3
CREATED_BY_EZDXF
350
2E
  3
WRITTEN_BY_EZDXF
350
139
  0
DICTIONARYVAR
  5
2E
330
2D
100
DictionaryVariables
280
0
  1
1.4.4 @ 2026-09-21T18:22:48.214983+00:00
  0
DICTIONARYVAR
  5
139
330
2D
100
DictionaryVariables
280
0
  1
1.4.4 @ 2026-09-21T18:22:48.242829+00:00
  0
ENDSEC
  0
EOF
